%TF.GenerationSoftware,KiCad,Pcbnew,(7.0.0)*%
%TF.CreationDate,2023-04-20T20:46:08+02:00*%
%TF.ProjectId,pcb_morse,7063625f-6d6f-4727-9365-2e6b69636164,rev?*%
%TF.SameCoordinates,Original*%
%TF.FileFunction,Copper,L2,Bot*%
%TF.FilePolarity,Positive*%
%FSLAX46Y46*%
G04 Gerber Fmt 4.6, Leading zero omitted, Abs format (unit mm)*
G04 Created by KiCad (PCBNEW (7.0.0)) date 2023-04-20 20:46:08*
%MOMM*%
%LPD*%
G01*
G04 APERTURE LIST*
%TA.AperFunction,ComponentPad*%
%ADD10R,1.600000X1.600000*%
%TD*%
%TA.AperFunction,ComponentPad*%
%ADD11O,1.600000X1.600000*%
%TD*%
%TA.AperFunction,HeatsinkPad*%
%ADD12C,0.600000*%
%TD*%
%TA.AperFunction,ComponentPad*%
%ADD13C,2.032000*%
%TD*%
%TA.AperFunction,ComponentPad*%
%ADD14R,1.800000X1.800000*%
%TD*%
%TA.AperFunction,ComponentPad*%
%ADD15C,1.800000*%
%TD*%
%TA.AperFunction,ComponentPad*%
%ADD16R,3.000000X3.000000*%
%TD*%
%TA.AperFunction,ComponentPad*%
%ADD17C,3.000000*%
%TD*%
%TA.AperFunction,ComponentPad*%
%ADD18R,1.700000X1.700000*%
%TD*%
%TA.AperFunction,ComponentPad*%
%ADD19O,1.700000X1.700000*%
%TD*%
%TA.AperFunction,ComponentPad*%
%ADD20C,2.500000*%
%TD*%
%TA.AperFunction,ComponentPad*%
%ADD21C,2.000000*%
%TD*%
%TA.AperFunction,ComponentPad*%
%ADD22R,2.000000X4.600000*%
%TD*%
%TA.AperFunction,ComponentPad*%
%ADD23O,2.000000X4.200000*%
%TD*%
%TA.AperFunction,ComponentPad*%
%ADD24O,4.200000X2.000000*%
%TD*%
%TA.AperFunction,ViaPad*%
%ADD25C,0.800000*%
%TD*%
%TA.AperFunction,Conductor*%
%ADD26C,0.400000*%
%TD*%
%TA.AperFunction,Conductor*%
%ADD27C,0.600000*%
%TD*%
%TA.AperFunction,Conductor*%
%ADD28C,0.500000*%
%TD*%
G04 APERTURE END LIST*
D10*
%TO.P,U1,1*%
%TO.N,Net-(R8-Pad2)*%
X50286999Y-63997999D03*
D11*
%TO.P,U1,2*%
%TO.N,GPIO32*%
X52826999Y-63997999D03*
%TO.P,U1,3*%
%TO.N,Net-(R9-Pad1)*%
X52826999Y-56377999D03*
%TO.P,U1,4*%
%TO.N,VDD*%
X50286999Y-56377999D03*
%TD*%
D12*
%TO.P,ESP32,39,GND*%
%TO.N,GND*%
X62730000Y-47012500D03*
X62730000Y-48537500D03*
X63492500Y-46250000D03*
X63492500Y-47775000D03*
X63492500Y-49300000D03*
X64255000Y-47012500D03*
X64255000Y-48537500D03*
X65017500Y-46250000D03*
X65017500Y-47775000D03*
X65017500Y-49300000D03*
X65780000Y-47012500D03*
X65780000Y-48537500D03*
%TD*%
D13*
%TO.P,UMP1584,1,IN-*%
%TO.N,Net-(Barrel_Jack1-Pad2)*%
X31623000Y-70326000D03*
%TO.P,UMP1584,2,IN-*%
X34163000Y-70326000D03*
%TO.P,UMP1584,3,IN+*%
%TO.N,+12V*%
X42291000Y-70326000D03*
%TO.P,UMP1584,4,IN+*%
X44831000Y-70326000D03*
%TO.P,UMP1584,5,OUT+*%
%TO.N,VDD*%
X44831000Y-51784000D03*
%TO.P,UMP1584,6,OUT+*%
X42291000Y-51784000D03*
%TO.P,UMP1584,7,OUT-*%
%TO.N,GND*%
X34163000Y-51784000D03*
%TO.P,UMP1584,8,OUT-*%
X31623000Y-51784000D03*
%TD*%
D14*
%TO.P,LED1,1,K*%
%TO.N,GND*%
X90428999Y-53085999D03*
D15*
%TO.P,LED1,2,A*%
%TO.N,Net-(LED1-A)*%
X87889000Y-53086000D03*
%TD*%
D16*
%TO.P,Kroonsteen1,1,Pin_1*%
%TO.N,Net-(Kroonsteen1-Pin_1)*%
X77977999Y-84327999D03*
D17*
%TO.P,Kroonsteen1,2,Pin_2*%
%TO.N,Net-(Kroonsteen1-Pin_2)*%
X72898000Y-84328000D03*
%TO.P,Kroonsteen1,3,Pin_3*%
%TO.N,GND*%
X67818000Y-84328000D03*
%TD*%
D18*
%TO.P,J2,1,Pin_1*%
%TO.N,+3.3V*%
X88899999Y-41179999D03*
D19*
%TO.P,J2,2,Pin_2*%
%TO.N,RX0*%
X88899999Y-43719999D03*
%TO.P,J2,3,Pin_3*%
%TO.N,TX0*%
X88899999Y-46259999D03*
%TO.P,J2,4,Pin_4*%
%TO.N,GND*%
X88899999Y-48799999D03*
%TD*%
D17*
%TO.P,Relais1,1*%
%TO.N,+12V*%
X55326000Y-69670000D03*
D20*
%TO.P,Relais1,2*%
%TO.N,Net-(D1-A)*%
X49276000Y-71620000D03*
D17*
%TO.P,Relais1,3*%
%TO.N,Net-(Kroonsteen1-Pin_2)*%
X49276000Y-83820000D03*
%TO.P,Relais1,4*%
%TO.N,Net-(Kroonsteen1-Pin_1)*%
X61326000Y-83870000D03*
D20*
%TO.P,Relais1,5*%
%TO.N,VDD*%
X61276000Y-71620000D03*
%TD*%
D21*
%TO.P,START1,1,1A*%
%TO.N,+3.3V*%
X66330000Y-76910000D03*
X66330000Y-70410000D03*
%TO.P,START1,2,2B*%
%TO.N,GPIO2*%
X70830000Y-76910000D03*
X70830000Y-70410000D03*
%TD*%
D18*
%TO.P,ULTRASONIC-SENSOR1,1,Pin_1*%
%TO.N,GND*%
X89915999Y-70103999D03*
D19*
%TO.P,ULTRASONIC-SENSOR1,2,Pin_2*%
%TO.N,GPIO16-5V*%
X89915999Y-67563999D03*
%TO.P,ULTRASONIC-SENSOR1,3,Pin_3*%
%TO.N,GPIO17-5V*%
X89915999Y-65023999D03*
%TO.P,ULTRASONIC-SENSOR1,4,Pin_4*%
%TO.N,VDD*%
X89915999Y-62483999D03*
%TD*%
D14*
%TO.P,LED2,1,K*%
%TO.N,GND*%
X83819999Y-49783999D03*
D15*
%TO.P,LED2,2,A*%
%TO.N,Net-(LED2-A)*%
X81280000Y-49784000D03*
%TD*%
D21*
%TO.P,RESET1,1,1A*%
%TO.N,+3.3V*%
X74240000Y-76858000D03*
X74240000Y-70358000D03*
%TO.P,RESET1,2,2B*%
%TO.N,GPIO4*%
X78740000Y-76858000D03*
X78740000Y-70358000D03*
%TD*%
D22*
%TO.P,Barrel_Jack1,1*%
%TO.N,+12V*%
X42875999Y-77977999D03*
D23*
%TO.P,Barrel_Jack1,2*%
%TO.N,Net-(Barrel_Jack1-Pad2)*%
X36575999Y-77977999D03*
D24*
%TO.P,Barrel_Jack1,3*%
%TO.N,N/C*%
X39975999Y-82777999D03*
%TD*%
D14*
%TO.P,LED3,1,K*%
%TO.N,GND*%
X83824999Y-54355999D03*
D15*
%TO.P,LED3,2,A*%
%TO.N,Net-(LED3-A)*%
X81285000Y-54356000D03*
%TD*%
D25*
%TO.N,GND*%
X63246000Y-60452000D03*
%TO.N,Net-(R9-Pad1)*%
X59944000Y-64516000D03*
%TO.N,+3.3V*%
X53340000Y-40640000D03*
X87122000Y-61976000D03*
X76200000Y-43180000D03*
X83820000Y-45720000D03*
X87122000Y-57658000D03*
X82042000Y-62484000D03*
%TO.N,GND*%
X30734000Y-46990000D03*
X78740000Y-61500000D03*
X80518000Y-73660000D03*
X77978000Y-57404000D03*
X81534000Y-43434000D03*
X33909000Y-86995000D03*
X55626000Y-76962000D03*
X40640000Y-60960000D03*
X73787000Y-40513000D03*
X70866000Y-49530000D03*
X76200000Y-68580000D03*
X73660000Y-62960000D03*
X31242000Y-36322000D03*
X30734000Y-60960000D03*
X30734000Y-66040000D03*
X63500000Y-53848000D03*
X40640000Y-66040000D03*
X59436000Y-61214000D03*
X43053000Y-45974000D03*
X63500000Y-40640000D03*
X86868000Y-74676000D03*
X46482000Y-40513000D03*
X87122000Y-81280000D03*
X40640000Y-55880000D03*
X30734000Y-55880000D03*
X40640000Y-88900000D03*
X51172000Y-51308000D03*
%TO.N,VDD*%
X86868000Y-68580000D03*
%TO.N,TX0*%
X73685000Y-44245000D03*
%TO.N,GPIO16*%
X83058000Y-60198000D03*
X73660000Y-54356000D03*
%TO.N,GPIO17*%
X73660000Y-53086000D03*
X83058000Y-58166000D03*
%TD*%
D26*
%TO.N,Net-(R9-Pad1)*%
X59944000Y-64516000D02*
X59944000Y-63495000D01*
X59944000Y-63495000D02*
X52827000Y-56378000D01*
%TO.N,VDD*%
X62604503Y-72948503D02*
X61276000Y-71620000D01*
X78721497Y-72948503D02*
X62604503Y-72948503D01*
X49276000Y-66802000D02*
X49225497Y-66852503D01*
X61276000Y-71620000D02*
X56458000Y-66802000D01*
X56458000Y-66802000D02*
X49276000Y-66802000D01*
D27*
X49225497Y-66852503D02*
X44831000Y-62458006D01*
D28*
%TO.N,+3.3V*%
X82042000Y-62484000D02*
X86614000Y-62484000D01*
X58039000Y-45339000D02*
X53340000Y-40640000D01*
D27*
X83439000Y-45339000D02*
X83820000Y-45720000D01*
D28*
X58325000Y-45625000D02*
X58039000Y-45339000D01*
X88900000Y-41180000D02*
X88360000Y-41180000D01*
D27*
X76200000Y-45339000D02*
X83439000Y-45339000D01*
D28*
X58420000Y-45625000D02*
X58325000Y-45625000D01*
X66330000Y-66330000D02*
X58420000Y-58420000D01*
X83820000Y-45720000D02*
X83725000Y-45625000D01*
X88360000Y-41180000D02*
X83820000Y-45720000D01*
D27*
X58039000Y-45339000D02*
X76200000Y-45339000D01*
D28*
X58250000Y-45550000D02*
X58039000Y-45339000D01*
X87122000Y-61976000D02*
X87122000Y-57658000D01*
X66330000Y-70410000D02*
X66330000Y-66330000D01*
D27*
X76200000Y-45339000D02*
X76200000Y-43180000D01*
D28*
X58420000Y-58420000D02*
X58420000Y-45625000D01*
X86614000Y-62484000D02*
X87122000Y-61976000D01*
D27*
%TO.N,GND*%
X63492500Y-46250000D02*
X60452000Y-49290500D01*
X65017500Y-46250000D02*
X67818000Y-49050500D01*
X67818000Y-49050500D02*
X67818000Y-49530000D01*
X60452000Y-49290500D02*
X60452000Y-49530000D01*
%TO.N,VDD*%
X84344000Y-67326000D02*
X89662000Y-62008000D01*
X84344000Y-67326000D02*
X85598000Y-68580000D01*
X44831000Y-62458006D02*
X44831000Y-51784000D01*
X78721497Y-72948503D02*
X84344000Y-67326000D01*
X85598000Y-68580000D02*
X86868000Y-68580000D01*
D26*
%TO.N,TX0*%
X91440000Y-40640000D02*
X91440000Y-43720000D01*
X91440000Y-43720000D02*
X88900000Y-46260000D01*
X85598000Y-42037000D02*
X88011000Y-39624000D01*
X74930000Y-43434000D02*
X74930000Y-42418000D01*
X74930000Y-42418000D02*
X75311000Y-42037000D01*
X90424000Y-39624000D02*
X91440000Y-40640000D01*
X74119000Y-44245000D02*
X74930000Y-43434000D01*
X75311000Y-42037000D02*
X85598000Y-42037000D01*
X88011000Y-39624000D02*
X90424000Y-39624000D01*
X73685000Y-44245000D02*
X74119000Y-44245000D01*
%TO.N,GPIO16*%
X77216000Y-54356000D02*
X83058000Y-60198000D01*
X73660000Y-54356000D02*
X77216000Y-54356000D01*
%TO.N,GPIO17*%
X77978000Y-53086000D02*
X83058000Y-58166000D01*
X73660000Y-53086000D02*
X77978000Y-53086000D01*
%TD*%
%TA.AperFunction,Conductor*%
%TO.N,GND*%
G36*
X40873000Y-30497113D02*
G01*
X40918387Y-30542500D01*
X40935000Y-30604500D01*
X40935000Y-38885000D01*
X40951326Y-38885000D01*
X87455436Y-38885000D01*
X87513062Y-38899204D01*
X87557486Y-38938560D01*
X87578532Y-38994054D01*
X87571378Y-39052972D01*
X87542283Y-39095121D01*
X87543070Y-39095818D01*
X87503184Y-39140838D01*
X87498051Y-39146290D01*
X85344162Y-41300181D01*
X85303934Y-41327061D01*
X85256481Y-41336500D01*
X75335910Y-41336500D01*
X75328423Y-41336274D01*
X75275881Y-41333095D01*
X75275873Y-41333095D01*
X75268394Y-41332643D01*
X75261019Y-41333994D01*
X75261009Y-41333995D01*
X75209242Y-41343481D01*
X75201843Y-41344608D01*
X75149567Y-41350956D01*
X75149561Y-41350957D01*
X75142128Y-41351860D01*
X75135123Y-41354516D01*
X75135112Y-41354519D01*
X75132639Y-41355457D01*
X75111041Y-41361478D01*
X75108451Y-41361952D01*
X75108444Y-41361954D01*
X75101068Y-41363306D01*
X75094225Y-41366385D01*
X75094227Y-41366385D01*
X75046234Y-41387984D01*
X75039318Y-41390848D01*
X74990088Y-41409519D01*
X74990078Y-41409523D01*
X74983070Y-41412182D01*
X74976899Y-41416441D01*
X74976894Y-41416444D01*
X74974722Y-41417944D01*
X74955187Y-41428962D01*
X74952784Y-41430043D01*
X74952777Y-41430047D01*
X74945943Y-41433123D01*
X74940043Y-41437745D01*
X74940040Y-41437747D01*
X74898595Y-41470216D01*
X74892566Y-41474651D01*
X74849249Y-41504551D01*
X74849241Y-41504557D01*
X74843071Y-41508817D01*
X74838101Y-41514426D01*
X74838094Y-41514433D01*
X74803184Y-41553838D01*
X74798051Y-41559290D01*
X74452290Y-41905051D01*
X74446838Y-41910184D01*
X74407431Y-41945096D01*
X74407425Y-41945102D01*
X74401817Y-41950071D01*
X74397560Y-41956236D01*
X74397551Y-41956248D01*
X74367649Y-41999568D01*
X74363213Y-42005597D01*
X74330749Y-42047035D01*
X74330743Y-42047043D01*
X74326122Y-42052943D01*
X74323044Y-42059780D01*
X74323043Y-42059783D01*
X74321962Y-42062185D01*
X74310940Y-42081727D01*
X74309441Y-42083898D01*
X74309437Y-42083904D01*
X74305182Y-42090070D01*
X74302526Y-42097070D01*
X74302522Y-42097080D01*
X74283853Y-42146305D01*
X74280989Y-42153219D01*
X74259382Y-42201229D01*
X74259379Y-42201235D01*
X74256305Y-42208068D01*
X74254953Y-42215439D01*
X74254951Y-42215449D01*
X74254474Y-42218053D01*
X74248456Y-42239643D01*
X74247519Y-42242114D01*
X74247517Y-42242119D01*
X74244860Y-42249128D01*
X74243956Y-42256565D01*
X74243956Y-42256569D01*
X74237610Y-42308827D01*
X74236483Y-42316226D01*
X74226994Y-42368010D01*
X74226993Y-42368018D01*
X74225642Y-42375394D01*
X74226094Y-42382873D01*
X74226094Y-42382881D01*
X74229274Y-42435433D01*
X74229500Y-42442921D01*
X74229500Y-43092481D01*
X74220061Y-43139934D01*
X74193183Y-43180159D01*
X74032764Y-43340578D01*
X73980303Y-43371789D01*
X73919304Y-43374185D01*
X73786008Y-43345852D01*
X73786005Y-43345851D01*
X73779646Y-43344500D01*
X73590354Y-43344500D01*
X73583995Y-43345851D01*
X73583991Y-43345852D01*
X73411559Y-43382503D01*
X73411552Y-43382505D01*
X73405197Y-43383856D01*
X73399262Y-43386498D01*
X73399254Y-43386501D01*
X73238207Y-43458205D01*
X73238202Y-43458207D01*
X73232270Y-43460849D01*
X73227016Y-43464665D01*
X73227011Y-43464669D01*
X73084388Y-43568290D01*
X73084381Y-43568295D01*
X73079129Y-43572112D01*
X73074784Y-43576937D01*
X73074779Y-43576942D01*
X72956813Y-43707956D01*
X72956808Y-43707962D01*
X72952467Y-43712784D01*
X72949222Y-43718404D01*
X72949218Y-43718410D01*
X72861069Y-43871089D01*
X72861066Y-43871094D01*
X72857821Y-43876716D01*
X72855815Y-43882888D01*
X72855813Y-43882894D01*
X72801333Y-44050564D01*
X72801331Y-44050573D01*
X72799326Y-44056744D01*
X72798648Y-44063194D01*
X72798646Y-44063204D01*
X72785015Y-44192904D01*
X72779540Y-44245000D01*
X72780219Y-44251460D01*
X72780219Y-44251461D01*
X72795992Y-44401539D01*
X72784121Y-44468858D01*
X72738381Y-44519658D01*
X72672671Y-44538500D01*
X58351229Y-44538500D01*
X58303776Y-44529061D01*
X58263548Y-44502181D01*
X54252770Y-40491402D01*
X54222521Y-40442041D01*
X54167179Y-40271716D01*
X54072533Y-40107784D01*
X53945871Y-39967112D01*
X53940613Y-39963292D01*
X53940611Y-39963290D01*
X53797988Y-39859669D01*
X53797987Y-39859668D01*
X53792730Y-39855849D01*
X53786792Y-39853205D01*
X53625745Y-39781501D01*
X53625740Y-39781499D01*
X53619803Y-39778856D01*
X53613444Y-39777504D01*
X53613440Y-39777503D01*
X53441008Y-39740852D01*
X53441005Y-39740851D01*
X53434646Y-39739500D01*
X53245354Y-39739500D01*
X53238995Y-39740851D01*
X53238991Y-39740852D01*
X53066559Y-39777503D01*
X53066552Y-39777505D01*
X53060197Y-39778856D01*
X53054262Y-39781498D01*
X53054254Y-39781501D01*
X52893207Y-39853205D01*
X52893202Y-39853207D01*
X52887270Y-39855849D01*
X52882016Y-39859665D01*
X52882011Y-39859669D01*
X52739388Y-39963290D01*
X52739381Y-39963295D01*
X52734129Y-39967112D01*
X52729784Y-39971937D01*
X52729779Y-39971942D01*
X52611813Y-40102956D01*
X52611808Y-40102962D01*
X52607467Y-40107784D01*
X52604222Y-40113404D01*
X52604218Y-40113410D01*
X52516069Y-40266089D01*
X52516066Y-40266094D01*
X52512821Y-40271716D01*
X52510815Y-40277888D01*
X52510813Y-40277894D01*
X52456333Y-40445564D01*
X52456331Y-40445573D01*
X52454326Y-40451744D01*
X52453648Y-40458194D01*
X52453646Y-40458204D01*
X52436370Y-40622587D01*
X52434540Y-40640000D01*
X52435219Y-40646460D01*
X52453646Y-40821795D01*
X52453647Y-40821803D01*
X52454326Y-40828256D01*
X52456331Y-40834428D01*
X52456333Y-40834435D01*
X52504124Y-40981519D01*
X52512821Y-41008284D01*
X52607467Y-41172216D01*
X52611811Y-41177041D01*
X52611813Y-41177043D01*
X52729779Y-41308057D01*
X52734129Y-41312888D01*
X52739387Y-41316708D01*
X52739388Y-41316709D01*
X52761942Y-41333095D01*
X52887270Y-41424151D01*
X53060197Y-41501144D01*
X53125335Y-41514989D01*
X53158714Y-41527303D01*
X53187228Y-41548596D01*
X57287028Y-45648395D01*
X57310983Y-45682157D01*
X57313211Y-45688522D01*
X57316912Y-45694412D01*
X57377870Y-45791427D01*
X57409184Y-45841262D01*
X57536738Y-45968816D01*
X57542638Y-45972523D01*
X57542644Y-45972528D01*
X57611472Y-46015776D01*
X57654028Y-46060788D01*
X57669500Y-46120769D01*
X57669500Y-58356293D01*
X57668191Y-58374264D01*
X57664711Y-58398023D01*
X57665340Y-58405214D01*
X57665340Y-58405221D01*
X57669028Y-58447369D01*
X57669500Y-58458176D01*
X57669500Y-58463709D01*
X57669916Y-58467272D01*
X57669917Y-58467282D01*
X57673098Y-58494496D01*
X57673464Y-58498082D01*
X57679371Y-58565604D01*
X57679372Y-58565609D01*
X57680001Y-58572797D01*
X57682271Y-58579649D01*
X57682976Y-58583063D01*
X57683028Y-58583384D01*
X57683120Y-58583709D01*
X57683920Y-58587085D01*
X57684759Y-58594255D01*
X57710413Y-58664742D01*
X57711582Y-58668108D01*
X57732913Y-58732479D01*
X57732917Y-58732489D01*
X57735186Y-58739334D01*
X57738971Y-58745472D01*
X57740443Y-58748628D01*
X57740570Y-58748935D01*
X57740729Y-58749220D01*
X57742295Y-58752338D01*
X57744763Y-58759117D01*
X57748727Y-58765144D01*
X57748729Y-58765148D01*
X57785979Y-58821784D01*
X57787900Y-58824799D01*
X57827288Y-58888656D01*
X57832392Y-58893760D01*
X57834542Y-58896479D01*
X57834739Y-58896752D01*
X57834973Y-58897007D01*
X57837202Y-58899663D01*
X57841170Y-58905696D01*
X57846423Y-58910652D01*
X57846424Y-58910653D01*
X57895709Y-58957151D01*
X57898296Y-58959664D01*
X65543181Y-66604548D01*
X65570061Y-66644776D01*
X65579500Y-66692229D01*
X65579500Y-69036128D01*
X65562023Y-69099602D01*
X65514520Y-69145180D01*
X65506491Y-69149526D01*
X65502445Y-69152675D01*
X65502436Y-69152681D01*
X65336647Y-69281721D01*
X65310256Y-69302262D01*
X65306793Y-69306023D01*
X65306784Y-69306032D01*
X65145311Y-69481439D01*
X65145305Y-69481446D01*
X65141836Y-69485215D01*
X65139031Y-69489506D01*
X65139028Y-69489512D01*
X65008631Y-69689099D01*
X65008624Y-69689111D01*
X65005827Y-69693393D01*
X65003772Y-69698077D01*
X65003766Y-69698089D01*
X64907997Y-69916422D01*
X64905937Y-69921119D01*
X64904679Y-69926084D01*
X64904678Y-69926089D01*
X64846151Y-70157204D01*
X64846149Y-70157213D01*
X64844892Y-70162179D01*
X64844468Y-70167288D01*
X64844467Y-70167298D01*
X64831317Y-70326000D01*
X64824357Y-70410000D01*
X64824781Y-70415117D01*
X64844467Y-70652701D01*
X64844468Y-70652709D01*
X64844892Y-70657821D01*
X64846149Y-70662788D01*
X64846151Y-70662795D01*
X64893958Y-70851577D01*
X64905937Y-70898881D01*
X64907997Y-70903577D01*
X65003766Y-71121910D01*
X65003769Y-71121916D01*
X65005827Y-71126607D01*
X65008627Y-71130893D01*
X65008631Y-71130900D01*
X65136675Y-71326885D01*
X65141836Y-71334785D01*
X65145310Y-71338559D01*
X65145311Y-71338560D01*
X65306784Y-71513967D01*
X65306787Y-71513970D01*
X65310256Y-71517738D01*
X65506491Y-71670474D01*
X65725190Y-71788828D01*
X65960386Y-71869571D01*
X66205665Y-71910500D01*
X66449201Y-71910500D01*
X66454335Y-71910500D01*
X66699614Y-71869571D01*
X66934810Y-71788828D01*
X67153509Y-71670474D01*
X67349744Y-71517738D01*
X67518164Y-71334785D01*
X67654173Y-71126607D01*
X67754063Y-70898881D01*
X67815108Y-70657821D01*
X67835643Y-70410000D01*
X69324357Y-70410000D01*
X69324781Y-70415117D01*
X69344467Y-70652701D01*
X69344468Y-70652709D01*
X69344892Y-70657821D01*
X69346149Y-70662788D01*
X69346151Y-70662795D01*
X69393958Y-70851577D01*
X69405937Y-70898881D01*
X69407997Y-70903577D01*
X69503766Y-71121910D01*
X69503769Y-71121916D01*
X69505827Y-71126607D01*
X69508627Y-71130893D01*
X69508631Y-71130900D01*
X69636675Y-71326885D01*
X69641836Y-71334785D01*
X69645310Y-71338559D01*
X69645311Y-71338560D01*
X69806784Y-71513967D01*
X69806787Y-71513970D01*
X69810256Y-71517738D01*
X70006491Y-71670474D01*
X70225190Y-71788828D01*
X70460386Y-71869571D01*
X70705665Y-71910500D01*
X70949201Y-71910500D01*
X70954335Y-71910500D01*
X71199614Y-71869571D01*
X71434810Y-71788828D01*
X71653509Y-71670474D01*
X71849744Y-71517738D01*
X72018164Y-71334785D01*
X72154173Y-71126607D01*
X72254063Y-70898881D01*
X72315108Y-70657821D01*
X72335643Y-70410000D01*
X72331334Y-70358000D01*
X72734357Y-70358000D01*
X72734781Y-70363117D01*
X72754467Y-70600701D01*
X72754468Y-70600709D01*
X72754892Y-70605821D01*
X72756149Y-70610788D01*
X72756151Y-70610795D01*
X72804210Y-70800573D01*
X72815937Y-70846881D01*
X72817997Y-70851577D01*
X72913766Y-71069910D01*
X72913769Y-71069916D01*
X72915827Y-71074607D01*
X72918627Y-71078893D01*
X72918631Y-71078900D01*
X73008188Y-71215977D01*
X73051836Y-71282785D01*
X73055310Y-71286559D01*
X73055311Y-71286560D01*
X73216784Y-71461967D01*
X73216787Y-71461970D01*
X73220256Y-71465738D01*
X73416491Y-71618474D01*
X73635190Y-71736828D01*
X73870386Y-71817571D01*
X74115665Y-71858500D01*
X74359201Y-71858500D01*
X74364335Y-71858500D01*
X74609614Y-71817571D01*
X74844810Y-71736828D01*
X75063509Y-71618474D01*
X75259744Y-71465738D01*
X75428164Y-71282785D01*
X75564173Y-71074607D01*
X75664063Y-70846881D01*
X75725108Y-70605821D01*
X75745643Y-70358000D01*
X75725108Y-70110179D01*
X75664063Y-69869119D01*
X75564173Y-69641393D01*
X75560254Y-69635395D01*
X75469217Y-69496052D01*
X75428164Y-69433215D01*
X75407703Y-69410988D01*
X75263215Y-69254032D01*
X75263211Y-69254029D01*
X75259744Y-69250262D01*
X75117255Y-69139358D01*
X75067559Y-69100678D01*
X75067557Y-69100676D01*
X75063509Y-69097526D01*
X75058997Y-69095084D01*
X74849316Y-68981610D01*
X74849310Y-68981607D01*
X74844810Y-68979172D01*
X74839969Y-68977510D01*
X74839962Y-68977507D01*
X74614465Y-68900094D01*
X74614461Y-68900093D01*
X74609614Y-68898429D01*
X74600768Y-68896952D01*
X74369398Y-68858344D01*
X74369387Y-68858343D01*
X74364335Y-68857500D01*
X74115665Y-68857500D01*
X74110613Y-68858343D01*
X74110601Y-68858344D01*
X73875443Y-68897585D01*
X73875441Y-68897585D01*
X73870386Y-68898429D01*
X73865541Y-68900092D01*
X73865534Y-68900094D01*
X73640037Y-68977507D01*
X73640026Y-68977511D01*
X73635190Y-68979172D01*
X73630693Y-68981605D01*
X73630683Y-68981610D01*
X73421002Y-69095084D01*
X73420995Y-69095088D01*
X73416491Y-69097526D01*
X73412448Y-69100672D01*
X73412440Y-69100678D01*
X73267463Y-69213519D01*
X73220256Y-69250262D01*
X73216793Y-69254023D01*
X73216784Y-69254032D01*
X73055311Y-69429439D01*
X73055305Y-69429446D01*
X73051836Y-69433215D01*
X73049031Y-69437506D01*
X73049028Y-69437512D01*
X72918631Y-69637099D01*
X72918624Y-69637111D01*
X72915827Y-69641393D01*
X72913772Y-69646077D01*
X72913766Y-69646089D01*
X72819646Y-69860663D01*
X72815937Y-69869119D01*
X72814679Y-69874084D01*
X72814678Y-69874089D01*
X72756151Y-70105204D01*
X72756149Y-70105213D01*
X72754892Y-70110179D01*
X72754468Y-70115288D01*
X72754467Y-70115298D01*
X72736606Y-70330854D01*
X72734357Y-70358000D01*
X72331334Y-70358000D01*
X72315108Y-70162179D01*
X72254063Y-69921119D01*
X72154173Y-69693393D01*
X72136003Y-69665582D01*
X72020971Y-69489512D01*
X72018164Y-69485215D01*
X72012578Y-69479147D01*
X71853215Y-69306032D01*
X71853211Y-69306029D01*
X71849744Y-69302262D01*
X71653509Y-69149526D01*
X71645484Y-69145183D01*
X71439316Y-69033610D01*
X71439310Y-69033607D01*
X71434810Y-69031172D01*
X71429969Y-69029510D01*
X71429962Y-69029507D01*
X71204465Y-68952094D01*
X71204461Y-68952093D01*
X71199614Y-68950429D01*
X71190768Y-68948952D01*
X70959398Y-68910344D01*
X70959387Y-68910343D01*
X70954335Y-68909500D01*
X70705665Y-68909500D01*
X70700613Y-68910343D01*
X70700601Y-68910344D01*
X70465443Y-68949585D01*
X70465441Y-68949585D01*
X70460386Y-68950429D01*
X70455541Y-68952092D01*
X70455534Y-68952094D01*
X70230037Y-69029507D01*
X70230026Y-69029511D01*
X70225190Y-69031172D01*
X70220693Y-69033605D01*
X70220683Y-69033610D01*
X70011002Y-69147084D01*
X70010995Y-69147088D01*
X70006491Y-69149526D01*
X70002448Y-69152672D01*
X70002440Y-69152678D01*
X69836647Y-69281721D01*
X69810256Y-69302262D01*
X69806793Y-69306023D01*
X69806784Y-69306032D01*
X69645311Y-69481439D01*
X69645305Y-69481446D01*
X69641836Y-69485215D01*
X69639031Y-69489506D01*
X69639028Y-69489512D01*
X69508631Y-69689099D01*
X69508624Y-69689111D01*
X69505827Y-69693393D01*
X69503772Y-69698077D01*
X69503766Y-69698089D01*
X69407997Y-69916422D01*
X69405937Y-69921119D01*
X69404679Y-69926084D01*
X69404678Y-69926089D01*
X69346151Y-70157204D01*
X69346149Y-70157213D01*
X69344892Y-70162179D01*
X69344468Y-70167288D01*
X69344467Y-70167298D01*
X69331317Y-70326000D01*
X69324357Y-70410000D01*
X67835643Y-70410000D01*
X67815108Y-70162179D01*
X67754063Y-69921119D01*
X67654173Y-69693393D01*
X67636003Y-69665582D01*
X67520971Y-69489512D01*
X67518164Y-69485215D01*
X67512578Y-69479147D01*
X67353215Y-69306032D01*
X67353211Y-69306029D01*
X67349744Y-69302262D01*
X67153509Y-69149526D01*
X67145479Y-69145180D01*
X67097977Y-69099602D01*
X67080500Y-69036128D01*
X67080500Y-66393707D01*
X67081809Y-66375736D01*
X67082297Y-66372396D01*
X67085289Y-66351977D01*
X67080971Y-66302633D01*
X67080500Y-66291827D01*
X67080500Y-66289902D01*
X67080500Y-66286291D01*
X67076894Y-66255443D01*
X67076537Y-66251956D01*
X67069998Y-66177203D01*
X67067724Y-66170341D01*
X67067027Y-66166965D01*
X67066970Y-66166613D01*
X67066875Y-66166277D01*
X67066079Y-66162919D01*
X67065241Y-66155745D01*
X67039569Y-66085212D01*
X67038401Y-66081848D01*
X67017086Y-66017521D01*
X67017085Y-66017519D01*
X67014814Y-66010665D01*
X67011022Y-66004518D01*
X67009559Y-66001379D01*
X67009431Y-66001069D01*
X67009257Y-66000758D01*
X67007710Y-65997677D01*
X67005237Y-65990883D01*
X66964005Y-65928194D01*
X66962106Y-65925212D01*
X66926504Y-65867491D01*
X66926501Y-65867488D01*
X66922712Y-65861344D01*
X66917605Y-65856237D01*
X66915459Y-65853523D01*
X66915257Y-65853244D01*
X66915022Y-65852987D01*
X66912796Y-65850334D01*
X66908830Y-65844304D01*
X66854290Y-65792848D01*
X66851703Y-65790335D01*
X59206819Y-58145451D01*
X59179939Y-58105223D01*
X59170500Y-58057770D01*
X59170500Y-54356000D01*
X72754540Y-54356000D01*
X72755219Y-54362460D01*
X72773646Y-54537795D01*
X72773647Y-54537803D01*
X72774326Y-54544256D01*
X72776331Y-54550428D01*
X72776333Y-54550435D01*
X72830813Y-54718105D01*
X72832821Y-54724284D01*
X72927467Y-54888216D01*
X73054129Y-55028888D01*
X73059387Y-55032708D01*
X73059388Y-55032709D01*
X73114200Y-55072532D01*
X73207270Y-55140151D01*
X73380197Y-55217144D01*
X73565354Y-55256500D01*
X73748143Y-55256500D01*
X73754646Y-55256500D01*
X73939803Y-55217144D01*
X74112730Y-55140151D01*
X74195273Y-55080179D01*
X74229837Y-55062569D01*
X74268155Y-55056500D01*
X76874481Y-55056500D01*
X76921934Y-55065939D01*
X76962162Y-55092819D01*
X82131495Y-60262152D01*
X82155734Y-60296449D01*
X82167135Y-60336870D01*
X82171646Y-60379795D01*
X82171647Y-60379803D01*
X82172326Y-60386256D01*
X82230821Y-60566284D01*
X82325467Y-60730216D01*
X82452129Y-60870888D01*
X82605270Y-60982151D01*
X82778197Y-61059144D01*
X82963354Y-61098500D01*
X83146143Y-61098500D01*
X83152646Y-61098500D01*
X83337803Y-61059144D01*
X83510730Y-60982151D01*
X83663871Y-60870888D01*
X83790533Y-60730216D01*
X83885179Y-60566284D01*
X83943674Y-60386256D01*
X83963460Y-60198000D01*
X83943674Y-60009744D01*
X83885179Y-59829716D01*
X83790533Y-59665784D01*
X83663871Y-59525112D01*
X83658613Y-59521292D01*
X83658611Y-59521290D01*
X83515988Y-59417669D01*
X83515987Y-59417668D01*
X83510730Y-59413849D01*
X83504792Y-59411205D01*
X83343745Y-59339501D01*
X83343740Y-59339499D01*
X83337803Y-59336856D01*
X83331444Y-59335504D01*
X83331440Y-59335503D01*
X83182872Y-59303924D01*
X83149485Y-59291607D01*
X83120972Y-59270315D01*
X83119925Y-59269268D01*
X83087421Y-59212110D01*
X83088712Y-59146369D01*
X83123435Y-59090531D01*
X83181823Y-59060298D01*
X83337803Y-59027144D01*
X83510730Y-58950151D01*
X83663871Y-58838888D01*
X83790533Y-58698216D01*
X83885179Y-58534284D01*
X83943674Y-58354256D01*
X83963460Y-58166000D01*
X83943674Y-57977744D01*
X83885179Y-57797716D01*
X83790533Y-57633784D01*
X83663871Y-57493112D01*
X83658613Y-57489292D01*
X83658611Y-57489290D01*
X83515988Y-57385669D01*
X83515987Y-57385668D01*
X83510730Y-57381849D01*
X83502191Y-57378047D01*
X83343745Y-57307501D01*
X83343740Y-57307499D01*
X83337803Y-57304856D01*
X83331444Y-57303504D01*
X83331440Y-57303503D01*
X83182872Y-57271924D01*
X83149485Y-57259607D01*
X83120972Y-57238315D01*
X81748835Y-55866178D01*
X81717312Y-55812648D01*
X81715707Y-55750547D01*
X81744424Y-55695460D01*
X81796251Y-55661217D01*
X81849503Y-55642936D01*
X82053626Y-55532470D01*
X82236784Y-55389913D01*
X82245510Y-55380433D01*
X82298132Y-55346578D01*
X82360587Y-55342728D01*
X82416970Y-55369866D01*
X82452924Y-55421080D01*
X82478548Y-55489779D01*
X82486962Y-55505189D01*
X82562498Y-55606092D01*
X82574907Y-55618501D01*
X82675810Y-55694037D01*
X82691222Y-55702452D01*
X82810358Y-55746888D01*
X82825332Y-55750426D01*
X82873885Y-55755646D01*
X82880482Y-55756000D01*
X83558674Y-55756000D01*
X83571549Y-55752549D01*
X83575000Y-55739674D01*
X84075000Y-55739674D01*
X84078450Y-55752549D01*
X84091326Y-55756000D01*
X84769518Y-55756000D01*
X84776114Y-55755646D01*
X84824667Y-55750426D01*
X84839641Y-55746888D01*
X84958777Y-55702452D01*
X84974189Y-55694037D01*
X85075092Y-55618501D01*
X85087501Y-55606092D01*
X85163037Y-55505189D01*
X85171452Y-55489777D01*
X85215888Y-55370641D01*
X85219426Y-55355667D01*
X85224646Y-55307114D01*
X85225000Y-55300518D01*
X85225000Y-54622326D01*
X85221549Y-54609450D01*
X85208674Y-54606000D01*
X84091326Y-54606000D01*
X84078450Y-54609450D01*
X84075000Y-54622326D01*
X84075000Y-55739674D01*
X83575000Y-55739674D01*
X83575000Y-54089674D01*
X84075000Y-54089674D01*
X84078450Y-54102549D01*
X84091326Y-54106000D01*
X85208674Y-54106000D01*
X85221549Y-54102549D01*
X85225000Y-54089674D01*
X85225000Y-53411482D01*
X85224646Y-53404885D01*
X85219426Y-53356332D01*
X85215888Y-53341358D01*
X85171452Y-53222222D01*
X85163037Y-53206810D01*
X85087501Y-53105907D01*
X85075092Y-53093498D01*
X85065076Y-53086000D01*
X86483700Y-53086000D01*
X86484124Y-53091117D01*
X86502441Y-53312186D01*
X86502442Y-53312195D01*
X86502866Y-53317305D01*
X86504123Y-53322272D01*
X86504125Y-53322279D01*
X86548405Y-53497134D01*
X86559843Y-53542300D01*
X86561903Y-53546996D01*
X86651016Y-53750154D01*
X86651019Y-53750159D01*
X86653076Y-53754849D01*
X86700748Y-53827817D01*
X86777219Y-53944865D01*
X86777222Y-53944869D01*
X86780021Y-53949153D01*
X86937216Y-54119913D01*
X86941262Y-54123062D01*
X86941263Y-54123063D01*
X87006969Y-54174204D01*
X87120374Y-54262470D01*
X87324497Y-54372936D01*
X87544019Y-54448298D01*
X87772951Y-54486500D01*
X87999916Y-54486500D01*
X88005049Y-54486500D01*
X88233981Y-54448298D01*
X88453503Y-54372936D01*
X88657626Y-54262470D01*
X88840784Y-54119913D01*
X88849510Y-54110433D01*
X88902132Y-54076578D01*
X88964587Y-54072728D01*
X89020970Y-54099866D01*
X89056924Y-54151080D01*
X89082548Y-54219779D01*
X89090962Y-54235189D01*
X89166498Y-54336092D01*
X89178907Y-54348501D01*
X89279810Y-54424037D01*
X89295222Y-54432452D01*
X89414358Y-54476888D01*
X89429332Y-54480426D01*
X89477885Y-54485646D01*
X89484482Y-54486000D01*
X90162674Y-54486000D01*
X90175549Y-54482549D01*
X90179000Y-54469674D01*
X90679000Y-54469674D01*
X90682450Y-54482549D01*
X90695326Y-54486000D01*
X91373518Y-54486000D01*
X91380114Y-54485646D01*
X91428667Y-54480426D01*
X91443641Y-54476888D01*
X91562777Y-54432452D01*
X91578189Y-54424037D01*
X91679092Y-54348501D01*
X91691501Y-54336092D01*
X91767037Y-54235189D01*
X91775452Y-54219777D01*
X91819888Y-54100641D01*
X91823426Y-54085667D01*
X91828646Y-54037114D01*
X91829000Y-54030518D01*
X91829000Y-53352326D01*
X91825549Y-53339450D01*
X91812674Y-53336000D01*
X90695326Y-53336000D01*
X90682450Y-53339450D01*
X90679000Y-53352326D01*
X90679000Y-54469674D01*
X90179000Y-54469674D01*
X90179000Y-52819674D01*
X90679000Y-52819674D01*
X90682450Y-52832549D01*
X90695326Y-52836000D01*
X91812674Y-52836000D01*
X91825549Y-52832549D01*
X91829000Y-52819674D01*
X91829000Y-52141482D01*
X91828646Y-52134885D01*
X91823426Y-52086332D01*
X91819888Y-52071358D01*
X91775452Y-51952222D01*
X91767037Y-51936810D01*
X91691501Y-51835907D01*
X91679092Y-51823498D01*
X91578189Y-51747962D01*
X91562777Y-51739547D01*
X91443641Y-51695111D01*
X91428667Y-51691573D01*
X91380114Y-51686353D01*
X91373518Y-51686000D01*
X90695326Y-51686000D01*
X90682450Y-51689450D01*
X90679000Y-51702326D01*
X90679000Y-52819674D01*
X90179000Y-52819674D01*
X90179000Y-51702326D01*
X90175549Y-51689450D01*
X90162674Y-51686000D01*
X89484482Y-51686000D01*
X89477885Y-51686353D01*
X89429332Y-51691573D01*
X89414358Y-51695111D01*
X89295222Y-51739547D01*
X89279810Y-51747962D01*
X89178907Y-51823498D01*
X89166498Y-51835907D01*
X89090962Y-51936810D01*
X89082545Y-51952224D01*
X89056923Y-52020920D01*
X89020971Y-52072133D01*
X88964590Y-52099270D01*
X88902136Y-52095422D01*
X88849513Y-52061569D01*
X88844258Y-52055861D01*
X88844257Y-52055860D01*
X88840784Y-52052087D01*
X88808165Y-52026699D01*
X88661672Y-51912679D01*
X88661671Y-51912678D01*
X88657626Y-51909530D01*
X88521583Y-51835907D01*
X88458007Y-51801501D01*
X88458002Y-51801499D01*
X88453503Y-51799064D01*
X88448657Y-51797400D01*
X88448654Y-51797399D01*
X88238834Y-51725368D01*
X88238833Y-51725367D01*
X88233981Y-51723702D01*
X88228931Y-51722859D01*
X88228922Y-51722857D01*
X88010111Y-51686344D01*
X88010102Y-51686343D01*
X88005049Y-51685500D01*
X87772951Y-51685500D01*
X87767898Y-51686343D01*
X87767888Y-51686344D01*
X87549077Y-51722857D01*
X87549065Y-51722859D01*
X87544019Y-51723702D01*
X87539169Y-51725366D01*
X87539165Y-51725368D01*
X87329345Y-51797399D01*
X87329337Y-51797402D01*
X87324497Y-51799064D01*
X87320001Y-51801496D01*
X87319992Y-51801501D01*
X87124882Y-51907090D01*
X87124878Y-51907092D01*
X87120374Y-51909530D01*
X87116334Y-51912674D01*
X87116327Y-51912679D01*
X86941263Y-52048936D01*
X86941255Y-52048943D01*
X86937216Y-52052087D01*
X86933746Y-52055855D01*
X86933742Y-52055860D01*
X86783491Y-52219077D01*
X86783488Y-52219080D01*
X86780021Y-52222847D01*
X86777226Y-52227124D01*
X86777219Y-52227134D01*
X86657127Y-52410951D01*
X86653076Y-52417151D01*
X86651021Y-52421835D01*
X86651016Y-52421845D01*
X86566753Y-52613947D01*
X86559843Y-52629700D01*
X86558585Y-52634665D01*
X86558584Y-52634670D01*
X86504125Y-52849720D01*
X86504123Y-52849729D01*
X86502866Y-52854695D01*
X86502442Y-52859802D01*
X86502441Y-52859813D01*
X86489144Y-53020295D01*
X86483700Y-53086000D01*
X85065076Y-53086000D01*
X84974189Y-53017962D01*
X84958777Y-53009547D01*
X84839641Y-52965111D01*
X84824667Y-52961573D01*
X84776114Y-52956353D01*
X84769518Y-52956000D01*
X84091326Y-52956000D01*
X84078450Y-52959450D01*
X84075000Y-52972326D01*
X84075000Y-54089674D01*
X83575000Y-54089674D01*
X83575000Y-52972326D01*
X83571549Y-52959450D01*
X83558674Y-52956000D01*
X82880482Y-52956000D01*
X82873885Y-52956353D01*
X82825332Y-52961573D01*
X82810358Y-52965111D01*
X82691222Y-53009547D01*
X82675810Y-53017962D01*
X82574907Y-53093498D01*
X82562498Y-53105907D01*
X82486962Y-53206810D01*
X82478545Y-53222224D01*
X82452923Y-53290920D01*
X82416971Y-53342133D01*
X82360590Y-53369270D01*
X82298136Y-53365422D01*
X82245513Y-53331569D01*
X82240258Y-53325861D01*
X82240257Y-53325860D01*
X82236784Y-53322087D01*
X82224063Y-53312186D01*
X82057672Y-53182679D01*
X82057671Y-53182678D01*
X82053626Y-53179530D01*
X81999497Y-53150237D01*
X81854007Y-53071501D01*
X81854002Y-53071499D01*
X81849503Y-53069064D01*
X81844657Y-53067400D01*
X81844654Y-53067399D01*
X81634834Y-52995368D01*
X81634833Y-52995367D01*
X81629981Y-52993702D01*
X81624931Y-52992859D01*
X81624922Y-52992857D01*
X81406111Y-52956344D01*
X81406102Y-52956343D01*
X81401049Y-52955500D01*
X81168951Y-52955500D01*
X81163898Y-52956343D01*
X81163888Y-52956344D01*
X80945077Y-52992857D01*
X80945065Y-52992859D01*
X80940019Y-52993702D01*
X80935169Y-52995366D01*
X80935165Y-52995368D01*
X80725345Y-53067399D01*
X80725337Y-53067402D01*
X80720497Y-53069064D01*
X80716001Y-53071496D01*
X80715992Y-53071501D01*
X80520882Y-53177090D01*
X80520878Y-53177092D01*
X80516374Y-53179530D01*
X80512334Y-53182674D01*
X80512327Y-53182679D01*
X80337263Y-53318936D01*
X80337255Y-53318943D01*
X80333216Y-53322087D01*
X80329746Y-53325855D01*
X80329742Y-53325860D01*
X80179491Y-53489077D01*
X80179488Y-53489080D01*
X80176021Y-53492847D01*
X80173226Y-53497124D01*
X80173219Y-53497134D01*
X80081168Y-53638030D01*
X80049076Y-53687151D01*
X80003294Y-53791523D01*
X79975851Y-53854087D01*
X79939464Y-53901337D01*
X79885228Y-53926137D01*
X79825687Y-53922749D01*
X79774614Y-53891957D01*
X78490939Y-52608282D01*
X78485822Y-52602847D01*
X78445929Y-52557817D01*
X78396410Y-52523636D01*
X78390404Y-52519216D01*
X78348961Y-52486747D01*
X78348958Y-52486745D01*
X78343057Y-52482122D01*
X78336219Y-52479044D01*
X78336210Y-52479039D01*
X78333810Y-52477959D01*
X78314268Y-52466937D01*
X78312107Y-52465445D01*
X78312102Y-52465442D01*
X78305930Y-52461182D01*
X78249702Y-52439857D01*
X78242784Y-52436991D01*
X78194772Y-52415383D01*
X78194769Y-52415382D01*
X78187932Y-52412305D01*
X78180560Y-52410954D01*
X78180551Y-52410951D01*
X78177952Y-52410475D01*
X78156340Y-52404450D01*
X78153891Y-52403521D01*
X78153885Y-52403519D01*
X78146872Y-52400860D01*
X78139430Y-52399956D01*
X78139425Y-52399955D01*
X78087171Y-52393610D01*
X78079771Y-52392483D01*
X78027987Y-52382994D01*
X78027982Y-52382993D01*
X78020606Y-52381642D01*
X78013126Y-52382094D01*
X78013118Y-52382094D01*
X77960567Y-52385274D01*
X77953079Y-52385500D01*
X74268155Y-52385500D01*
X74229837Y-52379431D01*
X74195273Y-52361820D01*
X74112730Y-52301849D01*
X74106792Y-52299205D01*
X73945745Y-52227501D01*
X73945740Y-52227499D01*
X73939803Y-52224856D01*
X73933444Y-52223504D01*
X73933440Y-52223503D01*
X73761008Y-52186852D01*
X73761005Y-52186851D01*
X73754646Y-52185500D01*
X73565354Y-52185500D01*
X73558995Y-52186851D01*
X73558991Y-52186852D01*
X73386559Y-52223503D01*
X73386552Y-52223505D01*
X73380197Y-52224856D01*
X73374262Y-52227498D01*
X73374254Y-52227501D01*
X73213207Y-52299205D01*
X73213202Y-52299207D01*
X73207270Y-52301849D01*
X73202016Y-52305665D01*
X73202011Y-52305669D01*
X73059388Y-52409290D01*
X73059381Y-52409295D01*
X73054129Y-52413112D01*
X73049784Y-52417937D01*
X73049779Y-52417942D01*
X72931813Y-52548956D01*
X72931808Y-52548962D01*
X72927467Y-52553784D01*
X72924222Y-52559404D01*
X72924218Y-52559410D01*
X72836069Y-52712089D01*
X72836066Y-52712094D01*
X72832821Y-52717716D01*
X72830815Y-52723888D01*
X72830813Y-52723894D01*
X72776333Y-52891564D01*
X72776331Y-52891573D01*
X72774326Y-52897744D01*
X72773648Y-52904194D01*
X72773646Y-52904204D01*
X72759820Y-53035762D01*
X72754540Y-53086000D01*
X72755219Y-53092460D01*
X72773646Y-53267795D01*
X72773647Y-53267803D01*
X72774326Y-53274256D01*
X72776331Y-53280428D01*
X72776333Y-53280435D01*
X72830813Y-53448105D01*
X72832821Y-53454284D01*
X72927467Y-53618216D01*
X72939443Y-53631517D01*
X72945307Y-53638030D01*
X72973472Y-53691003D01*
X72973472Y-53750997D01*
X72945307Y-53803970D01*
X72931814Y-53818956D01*
X72927467Y-53823784D01*
X72924222Y-53829404D01*
X72924218Y-53829410D01*
X72836069Y-53982089D01*
X72836066Y-53982094D01*
X72832821Y-53987716D01*
X72830815Y-53993888D01*
X72830813Y-53993894D01*
X72776333Y-54161564D01*
X72776331Y-54161573D01*
X72774326Y-54167744D01*
X72773648Y-54174194D01*
X72773646Y-54174204D01*
X72756632Y-54336092D01*
X72754540Y-54356000D01*
X59170500Y-54356000D01*
X59170500Y-50016216D01*
X63133342Y-50016216D01*
X63140111Y-50022984D01*
X63149765Y-50027634D01*
X63306782Y-50082576D01*
X63320280Y-50085657D01*
X63485577Y-50104282D01*
X63499423Y-50104282D01*
X63664719Y-50085657D01*
X63678217Y-50082576D01*
X63835233Y-50027634D01*
X63844888Y-50022984D01*
X63851656Y-50016216D01*
X64658342Y-50016216D01*
X64665111Y-50022984D01*
X64674765Y-50027634D01*
X64831782Y-50082576D01*
X64845280Y-50085657D01*
X65010577Y-50104282D01*
X65024423Y-50104282D01*
X65189719Y-50085657D01*
X65203217Y-50082576D01*
X65360233Y-50027634D01*
X65369888Y-50022984D01*
X65376656Y-50016216D01*
X65370728Y-50006781D01*
X65147947Y-49784000D01*
X79874700Y-49784000D01*
X79875124Y-49789117D01*
X79893441Y-50010186D01*
X79893442Y-50010195D01*
X79893866Y-50015305D01*
X79895123Y-50020272D01*
X79895125Y-50020279D01*
X79922230Y-50127311D01*
X79950843Y-50240300D01*
X79952903Y-50244996D01*
X80042016Y-50448154D01*
X80042019Y-50448159D01*
X80044076Y-50452849D01*
X80100937Y-50539882D01*
X80168219Y-50642865D01*
X80168222Y-50642869D01*
X80171021Y-50647153D01*
X80328216Y-50817913D01*
X80332262Y-50821062D01*
X80332263Y-50821063D01*
X80393837Y-50868988D01*
X80511374Y-50960470D01*
X80715497Y-51070936D01*
X80935019Y-51146298D01*
X81163951Y-51184500D01*
X81390916Y-51184500D01*
X81396049Y-51184500D01*
X81624981Y-51146298D01*
X81844503Y-51070936D01*
X82048626Y-50960470D01*
X82231784Y-50817913D01*
X82240510Y-50808433D01*
X82293132Y-50774578D01*
X82355587Y-50770728D01*
X82411970Y-50797866D01*
X82447924Y-50849080D01*
X82473548Y-50917779D01*
X82481962Y-50933189D01*
X82557498Y-51034092D01*
X82569907Y-51046501D01*
X82670810Y-51122037D01*
X82686222Y-51130452D01*
X82805358Y-51174888D01*
X82820332Y-51178426D01*
X82868885Y-51183646D01*
X82875482Y-51184000D01*
X83553674Y-51184000D01*
X83566549Y-51180549D01*
X83570000Y-51167674D01*
X84070000Y-51167674D01*
X84073450Y-51180549D01*
X84086326Y-51184000D01*
X84764518Y-51184000D01*
X84771114Y-51183646D01*
X84819667Y-51178426D01*
X84834641Y-51174888D01*
X84953777Y-51130452D01*
X84969189Y-51122037D01*
X85070092Y-51046501D01*
X85082501Y-51034092D01*
X85158037Y-50933189D01*
X85166452Y-50917777D01*
X85210888Y-50798641D01*
X85214426Y-50783667D01*
X85219646Y-50735114D01*
X85220000Y-50728518D01*
X85220000Y-50050326D01*
X85216549Y-50037450D01*
X85203674Y-50034000D01*
X84086326Y-50034000D01*
X84073450Y-50037450D01*
X84070000Y-50050326D01*
X84070000Y-51167674D01*
X83570000Y-51167674D01*
X83570000Y-49517674D01*
X84070000Y-49517674D01*
X84073450Y-49530549D01*
X84086326Y-49534000D01*
X85203674Y-49534000D01*
X85216549Y-49530549D01*
X85220000Y-49517674D01*
X85220000Y-49052551D01*
X87572688Y-49052551D01*
X87573056Y-49063780D01*
X87625168Y-49258263D01*
X87628856Y-49268397D01*
X87724113Y-49472676D01*
X87729501Y-49482008D01*
X87858784Y-49666643D01*
X87865721Y-49674909D01*
X88025090Y-49834278D01*
X88033356Y-49841215D01*
X88217991Y-49970498D01*
X88227323Y-49975886D01*
X88431602Y-50071143D01*
X88441736Y-50074831D01*
X88636219Y-50126943D01*
X88647448Y-50127311D01*
X88650000Y-50116369D01*
X89150000Y-50116369D01*
X89152551Y-50127311D01*
X89163780Y-50126943D01*
X89358263Y-50074831D01*
X89368397Y-50071143D01*
X89572676Y-49975886D01*
X89582008Y-49970498D01*
X89766643Y-49841215D01*
X89774909Y-49834278D01*
X89934278Y-49674909D01*
X89941215Y-49666643D01*
X90070498Y-49482008D01*
X90075886Y-49472676D01*
X90171143Y-49268397D01*
X90174831Y-49258263D01*
X90226943Y-49063780D01*
X90227311Y-49052551D01*
X90216369Y-49050000D01*
X89166326Y-49050000D01*
X89153450Y-49053450D01*
X89150000Y-49066326D01*
X89150000Y-50116369D01*
X88650000Y-50116369D01*
X88650000Y-49066326D01*
X88646549Y-49053450D01*
X88633674Y-49050000D01*
X87583631Y-49050000D01*
X87572688Y-49052551D01*
X85220000Y-49052551D01*
X85220000Y-48839482D01*
X85219646Y-48832885D01*
X85214426Y-48784332D01*
X85210888Y-48769358D01*
X85166452Y-48650222D01*
X85158037Y-48634810D01*
X85082501Y-48533907D01*
X85070092Y-48521498D01*
X84969189Y-48445962D01*
X84953777Y-48437547D01*
X84834641Y-48393111D01*
X84819667Y-48389573D01*
X84771114Y-48384353D01*
X84764518Y-48384000D01*
X84086326Y-48384000D01*
X84073450Y-48387450D01*
X84070000Y-48400326D01*
X84070000Y-49517674D01*
X83570000Y-49517674D01*
X83570000Y-48400326D01*
X83566549Y-48387450D01*
X83553674Y-48384000D01*
X82875482Y-48384000D01*
X82868885Y-48384353D01*
X82820332Y-48389573D01*
X82805358Y-48393111D01*
X82686222Y-48437547D01*
X82670810Y-48445962D01*
X82569907Y-48521498D01*
X82557498Y-48533907D01*
X82481962Y-48634810D01*
X82473545Y-48650224D01*
X82447923Y-48718920D01*
X82411971Y-48770133D01*
X82355590Y-48797270D01*
X82293136Y-48793422D01*
X82240513Y-48759569D01*
X82235258Y-48753861D01*
X82235257Y-48753860D01*
X82231784Y-48750087D01*
X82197261Y-48723217D01*
X82052672Y-48610679D01*
X82052671Y-48610678D01*
X82048626Y-48607530D01*
X81940550Y-48549042D01*
X81849007Y-48499501D01*
X81849002Y-48499499D01*
X81844503Y-48497064D01*
X81839657Y-48495400D01*
X81839654Y-48495399D01*
X81629834Y-48423368D01*
X81629833Y-48423367D01*
X81624981Y-48421702D01*
X81619931Y-48420859D01*
X81619922Y-48420857D01*
X81401111Y-48384344D01*
X81401102Y-48384343D01*
X81396049Y-48383500D01*
X81163951Y-48383500D01*
X81158898Y-48384343D01*
X81158888Y-48384344D01*
X80940077Y-48420857D01*
X80940065Y-48420859D01*
X80935019Y-48421702D01*
X80930169Y-48423366D01*
X80930165Y-48423368D01*
X80720345Y-48495399D01*
X80720337Y-48495402D01*
X80715497Y-48497064D01*
X80711001Y-48499496D01*
X80710992Y-48499501D01*
X80515882Y-48605090D01*
X80515878Y-48605092D01*
X80511374Y-48607530D01*
X80507334Y-48610674D01*
X80507327Y-48610679D01*
X80332263Y-48746936D01*
X80332255Y-48746943D01*
X80328216Y-48750087D01*
X80324746Y-48753855D01*
X80324742Y-48753860D01*
X80174491Y-48917077D01*
X80174488Y-48917080D01*
X80171021Y-48920847D01*
X80168226Y-48925124D01*
X80168219Y-48925134D01*
X80084387Y-49053450D01*
X80044076Y-49115151D01*
X80042021Y-49119835D01*
X80042016Y-49119845D01*
X79952903Y-49323003D01*
X79950843Y-49327700D01*
X79949585Y-49332665D01*
X79949584Y-49332670D01*
X79895125Y-49547720D01*
X79895123Y-49547729D01*
X79893866Y-49552695D01*
X79893442Y-49557802D01*
X79893441Y-49557813D01*
X79884552Y-49665096D01*
X79874700Y-49784000D01*
X65147947Y-49784000D01*
X65029042Y-49665095D01*
X65017500Y-49658431D01*
X65005956Y-49665096D01*
X64664271Y-50006780D01*
X64658342Y-50016216D01*
X63851656Y-50016216D01*
X63845728Y-50006781D01*
X63504042Y-49665095D01*
X63492500Y-49658431D01*
X63480956Y-49665096D01*
X63139271Y-50006780D01*
X63133342Y-50016216D01*
X59170500Y-50016216D01*
X59170500Y-49253716D01*
X62370842Y-49253716D01*
X62377611Y-49260484D01*
X62387265Y-49265134D01*
X62544284Y-49320077D01*
X62557771Y-49323155D01*
X62593481Y-49327178D01*
X62645569Y-49345404D01*
X62684591Y-49384425D01*
X62702819Y-49436513D01*
X62706843Y-49472219D01*
X62709923Y-49485717D01*
X62764864Y-49642731D01*
X62769515Y-49652389D01*
X62776282Y-49659156D01*
X62785717Y-49653228D01*
X63127404Y-49311542D01*
X63134068Y-49299999D01*
X63850931Y-49299999D01*
X63857595Y-49311542D01*
X64199281Y-49653228D01*
X64209547Y-49659679D01*
X64214047Y-49658105D01*
X64255001Y-49651147D01*
X64295955Y-49658106D01*
X64300451Y-49659679D01*
X64310717Y-49653228D01*
X64652404Y-49311542D01*
X64659068Y-49299999D01*
X65375931Y-49299999D01*
X65382595Y-49311542D01*
X65724281Y-49653228D01*
X65733716Y-49659156D01*
X65740484Y-49652388D01*
X65745134Y-49642733D01*
X65800077Y-49485715D01*
X65803155Y-49472227D01*
X65807178Y-49436518D01*
X65825405Y-49384428D01*
X65864428Y-49345405D01*
X65916518Y-49327178D01*
X65952227Y-49323155D01*
X65965715Y-49320077D01*
X66122733Y-49265134D01*
X66132388Y-49260484D01*
X66139156Y-49253716D01*
X66133228Y-49244281D01*
X65791542Y-48902595D01*
X65780000Y-48895931D01*
X65768457Y-48902595D01*
X65382595Y-49288457D01*
X65375931Y-49299999D01*
X64659068Y-49299999D01*
X64652404Y-49288457D01*
X64266542Y-48902595D01*
X64255000Y-48895931D01*
X64243457Y-48902595D01*
X63857595Y-49288457D01*
X63850931Y-49299999D01*
X63134068Y-49299999D01*
X63127404Y-49288457D01*
X62741542Y-48902595D01*
X62730000Y-48895931D01*
X62718456Y-48902596D01*
X62376771Y-49244280D01*
X62370842Y-49253716D01*
X59170500Y-49253716D01*
X59170500Y-48544423D01*
X61925718Y-48544423D01*
X61944342Y-48709719D01*
X61947423Y-48723217D01*
X62002364Y-48880231D01*
X62007015Y-48889889D01*
X62013782Y-48896656D01*
X62023217Y-48890728D01*
X62364904Y-48549042D01*
X62371568Y-48537499D01*
X63088431Y-48537499D01*
X63095095Y-48549042D01*
X63480957Y-48934904D01*
X63492500Y-48941568D01*
X63504042Y-48934904D01*
X63889904Y-48549042D01*
X63896568Y-48537499D01*
X64613431Y-48537499D01*
X64620095Y-48549042D01*
X65005957Y-48934904D01*
X65017500Y-48941568D01*
X65029042Y-48934904D01*
X65414904Y-48549042D01*
X65421567Y-48537500D01*
X66138431Y-48537500D01*
X66145095Y-48549042D01*
X66486781Y-48890728D01*
X66496216Y-48896656D01*
X66502984Y-48889888D01*
X66507634Y-48880233D01*
X66562576Y-48723217D01*
X66565657Y-48709719D01*
X66584282Y-48544423D01*
X66584282Y-48530577D01*
X66565657Y-48365280D01*
X66562576Y-48351782D01*
X66507634Y-48194765D01*
X66502984Y-48185111D01*
X66496216Y-48178342D01*
X66486780Y-48184271D01*
X66145096Y-48525956D01*
X66138431Y-48537500D01*
X65421567Y-48537500D01*
X65421568Y-48537499D01*
X65414904Y-48525957D01*
X65029042Y-48140095D01*
X65017499Y-48133431D01*
X65005957Y-48140095D01*
X64620095Y-48525957D01*
X64613431Y-48537499D01*
X63896568Y-48537499D01*
X63889904Y-48525957D01*
X63504042Y-48140095D01*
X63492499Y-48133431D01*
X63480957Y-48140095D01*
X63095095Y-48525957D01*
X63088431Y-48537499D01*
X62371568Y-48537499D01*
X62364904Y-48525957D01*
X62023219Y-48184272D01*
X62013783Y-48178343D01*
X62007013Y-48185113D01*
X62002366Y-48194764D01*
X61947423Y-48351782D01*
X61944342Y-48365280D01*
X61925718Y-48530577D01*
X61925718Y-48544423D01*
X59170500Y-48544423D01*
X59170500Y-47820450D01*
X62370319Y-47820450D01*
X62376772Y-47830719D01*
X62718457Y-48172404D01*
X62730000Y-48179068D01*
X62741542Y-48172404D01*
X63127404Y-47786542D01*
X63134068Y-47775000D01*
X63850931Y-47775000D01*
X63857595Y-47786542D01*
X64243457Y-48172404D01*
X64255000Y-48179068D01*
X64266542Y-48172404D01*
X64652404Y-47786542D01*
X64659068Y-47775000D01*
X65375931Y-47775000D01*
X65382595Y-47786542D01*
X65768457Y-48172404D01*
X65780000Y-48179068D01*
X65791542Y-48172404D01*
X66133228Y-47830717D01*
X66139679Y-47820451D01*
X66138106Y-47815955D01*
X66131147Y-47775001D01*
X66138105Y-47734047D01*
X66139679Y-47729547D01*
X66133228Y-47719281D01*
X65791542Y-47377595D01*
X65780000Y-47370931D01*
X65768457Y-47377595D01*
X65382595Y-47763457D01*
X65375931Y-47775000D01*
X64659068Y-47775000D01*
X64652404Y-47763457D01*
X64266542Y-47377595D01*
X64255000Y-47370931D01*
X64243457Y-47377595D01*
X63857595Y-47763457D01*
X63850931Y-47775000D01*
X63134068Y-47775000D01*
X63127404Y-47763457D01*
X62741542Y-47377595D01*
X62730000Y-47370931D01*
X62718456Y-47377596D01*
X62376771Y-47719280D01*
X62370320Y-47729547D01*
X62371894Y-47734046D01*
X62378852Y-47775000D01*
X62371893Y-47815954D01*
X62370319Y-47820450D01*
X59170500Y-47820450D01*
X59170500Y-47019423D01*
X61925718Y-47019423D01*
X61944342Y-47184719D01*
X61947423Y-47198217D01*
X62002364Y-47355231D01*
X62007015Y-47364889D01*
X62013782Y-47371656D01*
X62023217Y-47365728D01*
X62364904Y-47024042D01*
X62371568Y-47012500D01*
X63088431Y-47012500D01*
X63095095Y-47024042D01*
X63480957Y-47409904D01*
X63492500Y-47416568D01*
X63504042Y-47409904D01*
X63889904Y-47024042D01*
X63896568Y-47012500D01*
X64613431Y-47012500D01*
X64620095Y-47024042D01*
X65005957Y-47409904D01*
X65017500Y-47416568D01*
X65029042Y-47409904D01*
X65414904Y-47024042D01*
X65421568Y-47012500D01*
X66138431Y-47012500D01*
X66145095Y-47024042D01*
X66486781Y-47365728D01*
X66496216Y-47371656D01*
X66502984Y-47364888D01*
X66507634Y-47355233D01*
X66562576Y-47198217D01*
X66565657Y-47184719D01*
X66584282Y-47019423D01*
X66584282Y-47005577D01*
X66565657Y-46840280D01*
X66562576Y-46826782D01*
X66507634Y-46669765D01*
X66502984Y-46660111D01*
X66496216Y-46653342D01*
X66486780Y-46659271D01*
X66145096Y-47000956D01*
X66138431Y-47012500D01*
X65421568Y-47012500D01*
X65414904Y-47000957D01*
X65029042Y-46615095D01*
X65017499Y-46608431D01*
X65005957Y-46615095D01*
X64620095Y-47000957D01*
X64613431Y-47012500D01*
X63896568Y-47012500D01*
X63889904Y-47000957D01*
X63504042Y-46615095D01*
X63492499Y-46608431D01*
X63480957Y-46615095D01*
X63095095Y-47000957D01*
X63088431Y-47012500D01*
X62371568Y-47012500D01*
X62364904Y-47000957D01*
X62023219Y-46659272D01*
X62013783Y-46653343D01*
X62007013Y-46660113D01*
X62002366Y-46669764D01*
X61947423Y-46826782D01*
X61944342Y-46840280D01*
X61925718Y-47005577D01*
X61925718Y-47019423D01*
X59170500Y-47019423D01*
X59170500Y-46263500D01*
X59187113Y-46201500D01*
X59232500Y-46156113D01*
X59294500Y-46139500D01*
X62250128Y-46139500D01*
X62307042Y-46153333D01*
X62351258Y-46191746D01*
X62372911Y-46246168D01*
X62368952Y-46286356D01*
X62369901Y-46294784D01*
X62376772Y-46305719D01*
X62718457Y-46647404D01*
X62730000Y-46654068D01*
X62741542Y-46647404D01*
X63213128Y-46175819D01*
X63253356Y-46148939D01*
X63300809Y-46139500D01*
X63684191Y-46139500D01*
X63731644Y-46148939D01*
X63771872Y-46175819D01*
X64243457Y-46647404D01*
X64255000Y-46654068D01*
X64266542Y-46647404D01*
X64738128Y-46175819D01*
X64778356Y-46148939D01*
X64825809Y-46139500D01*
X65209191Y-46139500D01*
X65256644Y-46148939D01*
X65296872Y-46175819D01*
X65768457Y-46647404D01*
X65780000Y-46654068D01*
X65791542Y-46647404D01*
X66133228Y-46305717D01*
X66140097Y-46294785D01*
X66141046Y-46286357D01*
X66137089Y-46246166D01*
X66158741Y-46191745D01*
X66202957Y-46153333D01*
X66259871Y-46139500D01*
X76148086Y-46139500D01*
X76161968Y-46140279D01*
X76200000Y-46144565D01*
X76238031Y-46140279D01*
X76251914Y-46139500D01*
X82950799Y-46139500D01*
X83012799Y-46156113D01*
X83058186Y-46201500D01*
X83087467Y-46252216D01*
X83091811Y-46257041D01*
X83091813Y-46257043D01*
X83135641Y-46305719D01*
X83214129Y-46392888D01*
X83367270Y-46504151D01*
X83540197Y-46581144D01*
X83725354Y-46620500D01*
X83908143Y-46620500D01*
X83914646Y-46620500D01*
X84099803Y-46581144D01*
X84272730Y-46504151D01*
X84425871Y-46392888D01*
X84552533Y-46252216D01*
X84647179Y-46088284D01*
X84702522Y-45917955D01*
X84732769Y-45868597D01*
X87401746Y-43199619D01*
X87457331Y-43167527D01*
X87521518Y-43167527D01*
X87577106Y-43199620D01*
X87609200Y-43255208D01*
X87609200Y-43319395D01*
X87566337Y-43479365D01*
X87566335Y-43479371D01*
X87564937Y-43484592D01*
X87564465Y-43489977D01*
X87564465Y-43489982D01*
X87552415Y-43627719D01*
X87544341Y-43720000D01*
X87544813Y-43725395D01*
X87559115Y-43888872D01*
X87564937Y-43955408D01*
X87566336Y-43960630D01*
X87566337Y-43960634D01*
X87624694Y-44178430D01*
X87624697Y-44178438D01*
X87626097Y-44183663D01*
X87628385Y-44188570D01*
X87628386Y-44188572D01*
X87723678Y-44392927D01*
X87723681Y-44392933D01*
X87725965Y-44397830D01*
X87729064Y-44402257D01*
X87729066Y-44402259D01*
X87858399Y-44586966D01*
X87858402Y-44586970D01*
X87861505Y-44591401D01*
X88028599Y-44758495D01*
X88033032Y-44761599D01*
X88033038Y-44761604D01*
X88214158Y-44888425D01*
X88253024Y-44932743D01*
X88267035Y-44990000D01*
X88253024Y-45047257D01*
X88214158Y-45091575D01*
X88028599Y-45221505D01*
X88024775Y-45225328D01*
X88024769Y-45225334D01*
X87865334Y-45384769D01*
X87865328Y-45384775D01*
X87861505Y-45388599D01*
X87858402Y-45393029D01*
X87858399Y-45393034D01*
X87729073Y-45577731D01*
X87729068Y-45577738D01*
X87725965Y-45582171D01*
X87723677Y-45587077D01*
X87723675Y-45587081D01*
X87628386Y-45791427D01*
X87628383Y-45791432D01*
X87626097Y-45796337D01*
X87624698Y-45801557D01*
X87624694Y-45801569D01*
X87566337Y-46019365D01*
X87566335Y-46019371D01*
X87564937Y-46024592D01*
X87564465Y-46029977D01*
X87564465Y-46029982D01*
X87549459Y-46201500D01*
X87544341Y-46260000D01*
X87564937Y-46495408D01*
X87566336Y-46500630D01*
X87566337Y-46500634D01*
X87624694Y-46718430D01*
X87624697Y-46718438D01*
X87626097Y-46723663D01*
X87628385Y-46728570D01*
X87628386Y-46728572D01*
X87723678Y-46932927D01*
X87723681Y-46932933D01*
X87725965Y-46937830D01*
X87729064Y-46942257D01*
X87729066Y-46942259D01*
X87858399Y-47126966D01*
X87858402Y-47126970D01*
X87861505Y-47131401D01*
X88028599Y-47298495D01*
X88033031Y-47301598D01*
X88033033Y-47301600D01*
X88214595Y-47428731D01*
X88253460Y-47473049D01*
X88267471Y-47530306D01*
X88253460Y-47587563D01*
X88214595Y-47631881D01*
X88033352Y-47758788D01*
X88025092Y-47765719D01*
X87865719Y-47925092D01*
X87858784Y-47933357D01*
X87729508Y-48117982D01*
X87724110Y-48127332D01*
X87628856Y-48331602D01*
X87625168Y-48341736D01*
X87573056Y-48536219D01*
X87572688Y-48547448D01*
X87583631Y-48550000D01*
X90216369Y-48550000D01*
X90227311Y-48547448D01*
X90226943Y-48536219D01*
X90174831Y-48341736D01*
X90171143Y-48331602D01*
X90075889Y-48127332D01*
X90070491Y-48117982D01*
X89941215Y-47933357D01*
X89934280Y-47925092D01*
X89774909Y-47765721D01*
X89766643Y-47758784D01*
X89585405Y-47631880D01*
X89546540Y-47587562D01*
X89532529Y-47530305D01*
X89546540Y-47473048D01*
X89585406Y-47428730D01*
X89612293Y-47409904D01*
X89771401Y-47298495D01*
X89938495Y-47131401D01*
X90074035Y-46937830D01*
X90173903Y-46723663D01*
X90235063Y-46495408D01*
X90255659Y-46260000D01*
X90235063Y-46024592D01*
X90230557Y-46007778D01*
X90230557Y-45943594D01*
X90262649Y-45888006D01*
X91917731Y-44232924D01*
X91923151Y-44227822D01*
X91968183Y-44187929D01*
X92002362Y-44138410D01*
X92006779Y-44132407D01*
X92043877Y-44085057D01*
X92048030Y-44075826D01*
X92059058Y-44056272D01*
X92064818Y-44047930D01*
X92086149Y-43991680D01*
X92089014Y-43984766D01*
X92110614Y-43936776D01*
X92110614Y-43936773D01*
X92113694Y-43929932D01*
X92115518Y-43919974D01*
X92121548Y-43898340D01*
X92125140Y-43888872D01*
X92132389Y-43829165D01*
X92133516Y-43821762D01*
X92144357Y-43762606D01*
X92140726Y-43702578D01*
X92140500Y-43695091D01*
X92140500Y-40664921D01*
X92140726Y-40657433D01*
X92143905Y-40604881D01*
X92144358Y-40597394D01*
X92133514Y-40538220D01*
X92132387Y-40530814D01*
X92132100Y-40528453D01*
X92125140Y-40471128D01*
X92121547Y-40461656D01*
X92115522Y-40440042D01*
X92113695Y-40430068D01*
X92089006Y-40375212D01*
X92086142Y-40368297D01*
X92067480Y-40319088D01*
X92067478Y-40319084D01*
X92064818Y-40312070D01*
X92059063Y-40303733D01*
X92048035Y-40284179D01*
X92046958Y-40281785D01*
X92046954Y-40281779D01*
X92043878Y-40274943D01*
X92006785Y-40227597D01*
X92002355Y-40221577D01*
X91968183Y-40172071D01*
X91923170Y-40132193D01*
X91917716Y-40127059D01*
X90936939Y-39146282D01*
X90931822Y-39140847D01*
X90891929Y-39095817D01*
X90842410Y-39061636D01*
X90836404Y-39057216D01*
X90794961Y-39024747D01*
X90794958Y-39024745D01*
X90789057Y-39020122D01*
X90782219Y-39017044D01*
X90782210Y-39017039D01*
X90779810Y-39015959D01*
X90760268Y-39004937D01*
X90758107Y-39003445D01*
X90758102Y-39003442D01*
X90751930Y-38999182D01*
X90695702Y-38977857D01*
X90688784Y-38974991D01*
X90640772Y-38953383D01*
X90640769Y-38953382D01*
X90633932Y-38950305D01*
X90626560Y-38948954D01*
X90626551Y-38948951D01*
X90623952Y-38948475D01*
X90602340Y-38942450D01*
X90599891Y-38941521D01*
X90599885Y-38941519D01*
X90592872Y-38938860D01*
X90585430Y-38937956D01*
X90585425Y-38937955D01*
X90533171Y-38931610D01*
X90525771Y-38930483D01*
X90473987Y-38920994D01*
X90473982Y-38920993D01*
X90466606Y-38919642D01*
X90459126Y-38920094D01*
X90459118Y-38920094D01*
X90406567Y-38923274D01*
X90399079Y-38923500D01*
X89059000Y-38923500D01*
X88997000Y-38906887D01*
X88951613Y-38861500D01*
X88935000Y-38799500D01*
X88935000Y-32342061D01*
X90715360Y-32342061D01*
X90715784Y-32347178D01*
X90735211Y-32581634D01*
X90735212Y-32581642D01*
X90735636Y-32586754D01*
X90736893Y-32591721D01*
X90736895Y-32591728D01*
X90794651Y-32819801D01*
X90795910Y-32824772D01*
X90797970Y-32829468D01*
X90892479Y-33044928D01*
X90892482Y-33044933D01*
X90894539Y-33049623D01*
X90943420Y-33124441D01*
X91026030Y-33250886D01*
X91026033Y-33250890D01*
X91028832Y-33255174D01*
X91195126Y-33435818D01*
X91199172Y-33438967D01*
X91199173Y-33438968D01*
X91384836Y-33583475D01*
X91384839Y-33583477D01*
X91388885Y-33586626D01*
X91604824Y-33703486D01*
X91837051Y-33783210D01*
X92079234Y-33823623D01*
X92319633Y-33823623D01*
X92324766Y-33823623D01*
X92566949Y-33783210D01*
X92799176Y-33703486D01*
X93015115Y-33586626D01*
X93208874Y-33435818D01*
X93375168Y-33255174D01*
X93509461Y-33049623D01*
X93608090Y-32824772D01*
X93668364Y-32586754D01*
X93688640Y-32342061D01*
X93668364Y-32097368D01*
X93608090Y-31859350D01*
X93509461Y-31634499D01*
X93375168Y-31428948D01*
X93208874Y-31248304D01*
X93204826Y-31245153D01*
X93019163Y-31100646D01*
X93019157Y-31100642D01*
X93015115Y-31097496D01*
X93010601Y-31095053D01*
X92803682Y-30983074D01*
X92803676Y-30983071D01*
X92799176Y-30980636D01*
X92794335Y-30978974D01*
X92794328Y-30978971D01*
X92571802Y-30902578D01*
X92571801Y-30902577D01*
X92566949Y-30900912D01*
X92561899Y-30900069D01*
X92561890Y-30900067D01*
X92329828Y-30861343D01*
X92329819Y-30861342D01*
X92324766Y-30860499D01*
X92079234Y-30860499D01*
X92074181Y-30861342D01*
X92074171Y-30861343D01*
X91842109Y-30900067D01*
X91842097Y-30900069D01*
X91837051Y-30900912D01*
X91832201Y-30902576D01*
X91832197Y-30902578D01*
X91609671Y-30978971D01*
X91609660Y-30978975D01*
X91604824Y-30980636D01*
X91600327Y-30983069D01*
X91600317Y-30983074D01*
X91393398Y-31095053D01*
X91393391Y-31095057D01*
X91388885Y-31097496D01*
X91384847Y-31100638D01*
X91384836Y-31100646D01*
X91199173Y-31245153D01*
X91199165Y-31245160D01*
X91195126Y-31248304D01*
X91191656Y-31252072D01*
X91191652Y-31252077D01*
X91032302Y-31425178D01*
X91032299Y-31425181D01*
X91028832Y-31428948D01*
X91026037Y-31433225D01*
X91026030Y-31433235D01*
X90974445Y-31512193D01*
X90894539Y-31634499D01*
X90892484Y-31639183D01*
X90892479Y-31639193D01*
X90849437Y-31737320D01*
X90795910Y-31859350D01*
X90794652Y-31864315D01*
X90794651Y-31864320D01*
X90736895Y-32092393D01*
X90736893Y-32092402D01*
X90735636Y-32097368D01*
X90735212Y-32102477D01*
X90735211Y-32102487D01*
X90715784Y-32336944D01*
X90715360Y-32342061D01*
X88935000Y-32342061D01*
X88935000Y-30604500D01*
X88951613Y-30542500D01*
X88997000Y-30497113D01*
X89059000Y-30480500D01*
X93855500Y-30480500D01*
X93917500Y-30497113D01*
X93962887Y-30542500D01*
X93979500Y-30604500D01*
X93979500Y-91315500D01*
X93962887Y-91377500D01*
X93917500Y-91422887D01*
X93855500Y-91439500D01*
X28572500Y-91439500D01*
X28510500Y-91422887D01*
X28465113Y-91377500D01*
X28448500Y-91315500D01*
X28448500Y-89619061D01*
X28782299Y-89619061D01*
X28782723Y-89624178D01*
X28802150Y-89858634D01*
X28802151Y-89858642D01*
X28802575Y-89863754D01*
X28803832Y-89868721D01*
X28803834Y-89868728D01*
X28814708Y-89911667D01*
X28862849Y-90101772D01*
X28864909Y-90106468D01*
X28959418Y-90321928D01*
X28959421Y-90321933D01*
X28961478Y-90326623D01*
X28992333Y-90373850D01*
X29092969Y-90527886D01*
X29092972Y-90527890D01*
X29095771Y-90532174D01*
X29262065Y-90712818D01*
X29266111Y-90715967D01*
X29266112Y-90715968D01*
X29451775Y-90860475D01*
X29451778Y-90860477D01*
X29455824Y-90863626D01*
X29671763Y-90980486D01*
X29903990Y-91060210D01*
X30146173Y-91100623D01*
X30386572Y-91100623D01*
X30391705Y-91100623D01*
X30633888Y-91060210D01*
X30866115Y-90980486D01*
X31082054Y-90863626D01*
X31275813Y-90712818D01*
X31442107Y-90532174D01*
X31576400Y-90326623D01*
X31675029Y-90101772D01*
X31735303Y-89863754D01*
X31752021Y-89662000D01*
X90758299Y-89662000D01*
X90758723Y-89667117D01*
X90778150Y-89901573D01*
X90778151Y-89901581D01*
X90778575Y-89906693D01*
X90779832Y-89911660D01*
X90779834Y-89911667D01*
X90837590Y-90139740D01*
X90838849Y-90144711D01*
X90840909Y-90149407D01*
X90935418Y-90364867D01*
X90935421Y-90364872D01*
X90937478Y-90369562D01*
X91004624Y-90472337D01*
X91068969Y-90570825D01*
X91068972Y-90570829D01*
X91071771Y-90575113D01*
X91238065Y-90755757D01*
X91242111Y-90758906D01*
X91242112Y-90758907D01*
X91427775Y-90903414D01*
X91427778Y-90903416D01*
X91431824Y-90906565D01*
X91647763Y-91023425D01*
X91879990Y-91103149D01*
X92122173Y-91143562D01*
X92362572Y-91143562D01*
X92367705Y-91143562D01*
X92609888Y-91103149D01*
X92842115Y-91023425D01*
X93058054Y-90906565D01*
X93251813Y-90755757D01*
X93418107Y-90575113D01*
X93552400Y-90369562D01*
X93651029Y-90144711D01*
X93711303Y-89906693D01*
X93731579Y-89662000D01*
X93711303Y-89417307D01*
X93651029Y-89179289D01*
X93552400Y-88954438D01*
X93418107Y-88748887D01*
X93251813Y-88568243D01*
X93247765Y-88565092D01*
X93062102Y-88420585D01*
X93062096Y-88420581D01*
X93058054Y-88417435D01*
X93053540Y-88414992D01*
X92846621Y-88303013D01*
X92846615Y-88303010D01*
X92842115Y-88300575D01*
X92837274Y-88298913D01*
X92837267Y-88298910D01*
X92614741Y-88222517D01*
X92614740Y-88222516D01*
X92609888Y-88220851D01*
X92604838Y-88220008D01*
X92604829Y-88220006D01*
X92372767Y-88181282D01*
X92372758Y-88181281D01*
X92367705Y-88180438D01*
X92122173Y-88180438D01*
X92117120Y-88181281D01*
X92117110Y-88181282D01*
X91885048Y-88220006D01*
X91885036Y-88220008D01*
X91879990Y-88220851D01*
X91875140Y-88222515D01*
X91875136Y-88222517D01*
X91652610Y-88298910D01*
X91652599Y-88298914D01*
X91647763Y-88300575D01*
X91643266Y-88303008D01*
X91643256Y-88303013D01*
X91436337Y-88414992D01*
X91436330Y-88414996D01*
X91431824Y-88417435D01*
X91427786Y-88420577D01*
X91427775Y-88420585D01*
X91242112Y-88565092D01*
X91242104Y-88565099D01*
X91238065Y-88568243D01*
X91234595Y-88572011D01*
X91234591Y-88572016D01*
X91075241Y-88745117D01*
X91075238Y-88745120D01*
X91071771Y-88748887D01*
X91068976Y-88753164D01*
X91068969Y-88753174D01*
X90940280Y-88950149D01*
X90937478Y-88954438D01*
X90935423Y-88959122D01*
X90935418Y-88959132D01*
X90840909Y-89174592D01*
X90838849Y-89179289D01*
X90837591Y-89184254D01*
X90837590Y-89184259D01*
X90779834Y-89412332D01*
X90779832Y-89412341D01*
X90778575Y-89417307D01*
X90778151Y-89422416D01*
X90778150Y-89422426D01*
X90762281Y-89613944D01*
X90758299Y-89662000D01*
X31752021Y-89662000D01*
X31755579Y-89619061D01*
X31735303Y-89374368D01*
X31675029Y-89136350D01*
X31576400Y-88911499D01*
X31442107Y-88705948D01*
X31275813Y-88525304D01*
X31271765Y-88522153D01*
X31086102Y-88377646D01*
X31086096Y-88377642D01*
X31082054Y-88374496D01*
X30945460Y-88300575D01*
X30870621Y-88260074D01*
X30870615Y-88260071D01*
X30866115Y-88257636D01*
X30861274Y-88255974D01*
X30861267Y-88255971D01*
X30638741Y-88179578D01*
X30638740Y-88179577D01*
X30633888Y-88177912D01*
X30628838Y-88177069D01*
X30628829Y-88177067D01*
X30396767Y-88138343D01*
X30396758Y-88138342D01*
X30391705Y-88137499D01*
X30146173Y-88137499D01*
X30141120Y-88138342D01*
X30141110Y-88138343D01*
X29909048Y-88177067D01*
X29909036Y-88177069D01*
X29903990Y-88177912D01*
X29899140Y-88179576D01*
X29899136Y-88179578D01*
X29676610Y-88255971D01*
X29676599Y-88255975D01*
X29671763Y-88257636D01*
X29667266Y-88260069D01*
X29667256Y-88260074D01*
X29460337Y-88372053D01*
X29460330Y-88372057D01*
X29455824Y-88374496D01*
X29451786Y-88377638D01*
X29451775Y-88377646D01*
X29266112Y-88522153D01*
X29266104Y-88522160D01*
X29262065Y-88525304D01*
X29258595Y-88529072D01*
X29258591Y-88529077D01*
X29099241Y-88702178D01*
X29099238Y-88702181D01*
X29095771Y-88705948D01*
X29092976Y-88710225D01*
X29092969Y-88710235D01*
X28964280Y-88907210D01*
X28961478Y-88911499D01*
X28959423Y-88916183D01*
X28959418Y-88916193D01*
X28864909Y-89131653D01*
X28862849Y-89136350D01*
X28861591Y-89141315D01*
X28861590Y-89141320D01*
X28803834Y-89369393D01*
X28803832Y-89369402D01*
X28802575Y-89374368D01*
X28802151Y-89379477D01*
X28802150Y-89379487D01*
X28782723Y-89613944D01*
X28782299Y-89619061D01*
X28448500Y-89619061D01*
X28448500Y-85907689D01*
X66597392Y-85907689D01*
X66605710Y-85918800D01*
X66730406Y-86012147D01*
X66737849Y-86016931D01*
X66981158Y-86149787D01*
X66989196Y-86153458D01*
X67248952Y-86250342D01*
X67257421Y-86252828D01*
X67528309Y-86311757D01*
X67537065Y-86313016D01*
X67813582Y-86332793D01*
X67822418Y-86332793D01*
X68098934Y-86313016D01*
X68107690Y-86311757D01*
X68378578Y-86252828D01*
X68387047Y-86250342D01*
X68646803Y-86153458D01*
X68654841Y-86149787D01*
X68898150Y-86016931D01*
X68905593Y-86012147D01*
X69030288Y-85918800D01*
X69038606Y-85907689D01*
X69031954Y-85895508D01*
X67829542Y-84693095D01*
X67818000Y-84686431D01*
X67806457Y-84693095D01*
X66604044Y-85895508D01*
X66597392Y-85907689D01*
X28448500Y-85907689D01*
X28448500Y-82902335D01*
X37375500Y-82902335D01*
X37376343Y-82907387D01*
X37376344Y-82907398D01*
X37409717Y-83107392D01*
X37416429Y-83147614D01*
X37418093Y-83152461D01*
X37418094Y-83152465D01*
X37495507Y-83377962D01*
X37495510Y-83377969D01*
X37497172Y-83382810D01*
X37499607Y-83387310D01*
X37499610Y-83387316D01*
X37606360Y-83584572D01*
X37615526Y-83601509D01*
X37768262Y-83797744D01*
X37772029Y-83801211D01*
X37772032Y-83801215D01*
X37846753Y-83870000D01*
X37951215Y-83966164D01*
X37956424Y-83969567D01*
X38155099Y-84099368D01*
X38155102Y-84099369D01*
X38159393Y-84102173D01*
X38164087Y-84104232D01*
X38164089Y-84104233D01*
X38176692Y-84109761D01*
X38387119Y-84202063D01*
X38628179Y-84263108D01*
X38813933Y-84278500D01*
X41135497Y-84278500D01*
X41138067Y-84278500D01*
X41323821Y-84263108D01*
X41564881Y-84202063D01*
X41792607Y-84102173D01*
X42000785Y-83966164D01*
X42159562Y-83820000D01*
X47270390Y-83820000D01*
X47270706Y-83824418D01*
X47290487Y-84101005D01*
X47290488Y-84101014D01*
X47290804Y-84105428D01*
X47291744Y-84109753D01*
X47291746Y-84109761D01*
X47341732Y-84339542D01*
X47351631Y-84385046D01*
X47353175Y-84389185D01*
X47353176Y-84389189D01*
X47438402Y-84617690D01*
X47451633Y-84653161D01*
X47453753Y-84657043D01*
X47453756Y-84657050D01*
X47584805Y-84897047D01*
X47588774Y-84904315D01*
X47760261Y-85133395D01*
X47962605Y-85335739D01*
X48191685Y-85507226D01*
X48442839Y-85644367D01*
X48710954Y-85744369D01*
X48990572Y-85805196D01*
X49276000Y-85825610D01*
X49561428Y-85805196D01*
X49841046Y-85744369D01*
X50109161Y-85644367D01*
X50360315Y-85507226D01*
X50589395Y-85335739D01*
X50791739Y-85133395D01*
X50963226Y-84904315D01*
X51100367Y-84653161D01*
X51200369Y-84385046D01*
X51261196Y-84105428D01*
X51278034Y-83870000D01*
X59320390Y-83870000D01*
X59320706Y-83874418D01*
X59340487Y-84151005D01*
X59340488Y-84151014D01*
X59340804Y-84155428D01*
X59341744Y-84159753D01*
X59341746Y-84159761D01*
X59379306Y-84332418D01*
X59401631Y-84435046D01*
X59403175Y-84439185D01*
X59403176Y-84439189D01*
X59497878Y-84693095D01*
X59501633Y-84703161D01*
X59503753Y-84707043D01*
X59503756Y-84707050D01*
X59609345Y-84900420D01*
X59638774Y-84954315D01*
X59810261Y-85183395D01*
X60012605Y-85385739D01*
X60241685Y-85557226D01*
X60492839Y-85694367D01*
X60760954Y-85794369D01*
X61040572Y-85855196D01*
X61326000Y-85875610D01*
X61611428Y-85855196D01*
X61891046Y-85794369D01*
X62159161Y-85694367D01*
X62410315Y-85557226D01*
X62639395Y-85385739D01*
X62841739Y-85183395D01*
X63013226Y-84954315D01*
X63150367Y-84703161D01*
X63250369Y-84435046D01*
X63272694Y-84332418D01*
X65813207Y-84332418D01*
X65832983Y-84608934D01*
X65834242Y-84617690D01*
X65893171Y-84888578D01*
X65895657Y-84897047D01*
X65992541Y-85156803D01*
X65996212Y-85164841D01*
X66129068Y-85408150D01*
X66133852Y-85415593D01*
X66227198Y-85540288D01*
X66238309Y-85548606D01*
X66250490Y-85541954D01*
X67452903Y-84339542D01*
X67459567Y-84328000D01*
X68176431Y-84328000D01*
X68183095Y-84339542D01*
X69385508Y-85541954D01*
X69397689Y-85548606D01*
X69408800Y-85540288D01*
X69502147Y-85415593D01*
X69506931Y-85408150D01*
X69639787Y-85164841D01*
X69643458Y-85156803D01*
X69740342Y-84897047D01*
X69742828Y-84888578D01*
X69801757Y-84617690D01*
X69803016Y-84608934D01*
X69822793Y-84332418D01*
X69822793Y-84328000D01*
X70892390Y-84328000D01*
X70892706Y-84332418D01*
X70912487Y-84609005D01*
X70912488Y-84609014D01*
X70912804Y-84613428D01*
X70913744Y-84617753D01*
X70913746Y-84617761D01*
X70932324Y-84703161D01*
X70973631Y-84893046D01*
X70975175Y-84897185D01*
X70975176Y-84897189D01*
X71072007Y-85156803D01*
X71073633Y-85161161D01*
X71075753Y-85165043D01*
X71075756Y-85165050D01*
X71194549Y-85382601D01*
X71210774Y-85412315D01*
X71382261Y-85641395D01*
X71584605Y-85843739D01*
X71813685Y-86015226D01*
X72064839Y-86152367D01*
X72332954Y-86252369D01*
X72612572Y-86313196D01*
X72898000Y-86333610D01*
X73183428Y-86313196D01*
X73463046Y-86252369D01*
X73731161Y-86152367D01*
X73982315Y-86015226D01*
X74172871Y-85872578D01*
X75977500Y-85872578D01*
X75977501Y-85875872D01*
X75977853Y-85879150D01*
X75977854Y-85879161D01*
X75983079Y-85927768D01*
X75983080Y-85927773D01*
X75983909Y-85935483D01*
X75986619Y-85942749D01*
X75986620Y-85942753D01*
X76012503Y-86012147D01*
X76034204Y-86070331D01*
X76120454Y-86185546D01*
X76235669Y-86271796D01*
X76370517Y-86322091D01*
X76430127Y-86328500D01*
X79525872Y-86328499D01*
X79585483Y-86322091D01*
X79720331Y-86271796D01*
X79835546Y-86185546D01*
X79921796Y-86070331D01*
X79972091Y-85935483D01*
X79978500Y-85875873D01*
X79978499Y-82780128D01*
X79972091Y-82720517D01*
X79921796Y-82585669D01*
X79835546Y-82470454D01*
X79748988Y-82405657D01*
X79727431Y-82389519D01*
X79727430Y-82389518D01*
X79720331Y-82384204D01*
X79640050Y-82354261D01*
X79592752Y-82336620D01*
X79592750Y-82336619D01*
X79585483Y-82333909D01*
X79577770Y-82333079D01*
X79577767Y-82333079D01*
X79529180Y-82327855D01*
X79529169Y-82327854D01*
X79525873Y-82327500D01*
X79522550Y-82327500D01*
X76433439Y-82327500D01*
X76433420Y-82327500D01*
X76430128Y-82327501D01*
X76426850Y-82327853D01*
X76426838Y-82327854D01*
X76378231Y-82333079D01*
X76378225Y-82333080D01*
X76370517Y-82333909D01*
X76363252Y-82336618D01*
X76363246Y-82336620D01*
X76243980Y-82381104D01*
X76243978Y-82381104D01*
X76235669Y-82384204D01*
X76228572Y-82389516D01*
X76228568Y-82389519D01*
X76127550Y-82465141D01*
X76127546Y-82465144D01*
X76120454Y-82470454D01*
X76115144Y-82477546D01*
X76115141Y-82477550D01*
X76039519Y-82578568D01*
X76039516Y-82578572D01*
X76034204Y-82585669D01*
X76031104Y-82593978D01*
X76031104Y-82593980D01*
X75986620Y-82713247D01*
X75986619Y-82713250D01*
X75983909Y-82720517D01*
X75983079Y-82728227D01*
X75983079Y-82728232D01*
X75977855Y-82776819D01*
X75977854Y-82776831D01*
X75977500Y-82780127D01*
X75977500Y-82783448D01*
X75977500Y-82783449D01*
X75977500Y-85872560D01*
X75977500Y-85872578D01*
X74172871Y-85872578D01*
X74211395Y-85843739D01*
X74413739Y-85641395D01*
X74585226Y-85412315D01*
X74722367Y-85161161D01*
X74822369Y-84893046D01*
X74883196Y-84613428D01*
X74903610Y-84328000D01*
X74883196Y-84042572D01*
X74822369Y-83762954D01*
X74722367Y-83494839D01*
X74585226Y-83243685D01*
X74413739Y-83014605D01*
X74211395Y-82812261D01*
X73982315Y-82640774D01*
X73896619Y-82593980D01*
X73735050Y-82505756D01*
X73735043Y-82505753D01*
X73731161Y-82503633D01*
X73727017Y-82502087D01*
X73727012Y-82502085D01*
X73467189Y-82405176D01*
X73467185Y-82405175D01*
X73463046Y-82403631D01*
X73398174Y-82389519D01*
X73187761Y-82343746D01*
X73187753Y-82343744D01*
X73183428Y-82342804D01*
X73179014Y-82342488D01*
X73179005Y-82342487D01*
X72902418Y-82322706D01*
X72898000Y-82322390D01*
X72893582Y-82322706D01*
X72616994Y-82342487D01*
X72616983Y-82342488D01*
X72612572Y-82342804D01*
X72608248Y-82343744D01*
X72608238Y-82343746D01*
X72337279Y-82402690D01*
X72337276Y-82402690D01*
X72332954Y-82403631D01*
X72328818Y-82405173D01*
X72328810Y-82405176D01*
X72068987Y-82502085D01*
X72068976Y-82502089D01*
X72064839Y-82503633D01*
X72060961Y-82505750D01*
X72060949Y-82505756D01*
X71817579Y-82638647D01*
X71817571Y-82638651D01*
X71813685Y-82640774D01*
X71810135Y-82643431D01*
X71810131Y-82643434D01*
X71588156Y-82809602D01*
X71588149Y-82809607D01*
X71584605Y-82812261D01*
X71581474Y-82815391D01*
X71581467Y-82815398D01*
X71385398Y-83011467D01*
X71385391Y-83011474D01*
X71382261Y-83014605D01*
X71379607Y-83018149D01*
X71379602Y-83018156D01*
X71279060Y-83152465D01*
X71210774Y-83243685D01*
X71208651Y-83247571D01*
X71208647Y-83247579D01*
X71075756Y-83490949D01*
X71075750Y-83490961D01*
X71073633Y-83494839D01*
X71072089Y-83498976D01*
X71072085Y-83498987D01*
X70975176Y-83758810D01*
X70975173Y-83758818D01*
X70973631Y-83762954D01*
X70972690Y-83767276D01*
X70972690Y-83767279D01*
X70913746Y-84038238D01*
X70913744Y-84038248D01*
X70912804Y-84042572D01*
X70912488Y-84046983D01*
X70912487Y-84046994D01*
X70895930Y-84278500D01*
X70892390Y-84328000D01*
X69822793Y-84328000D01*
X69822793Y-84323582D01*
X69803016Y-84047065D01*
X69801757Y-84038309D01*
X69742828Y-83767421D01*
X69740342Y-83758952D01*
X69643458Y-83499196D01*
X69639787Y-83491158D01*
X69506931Y-83247849D01*
X69502147Y-83240406D01*
X69408800Y-83115710D01*
X69397689Y-83107392D01*
X69385508Y-83114044D01*
X68183095Y-84316457D01*
X68176431Y-84328000D01*
X67459567Y-84328000D01*
X67452903Y-84316457D01*
X66247308Y-83110862D01*
X66238135Y-83104967D01*
X66229894Y-83112108D01*
X66133855Y-83240402D01*
X66129068Y-83247850D01*
X65996212Y-83491158D01*
X65992541Y-83499196D01*
X65895657Y-83758952D01*
X65893171Y-83767421D01*
X65834242Y-84038309D01*
X65832983Y-84047065D01*
X65813207Y-84323582D01*
X65813207Y-84332418D01*
X63272694Y-84332418D01*
X63311196Y-84155428D01*
X63331610Y-83870000D01*
X63311196Y-83584572D01*
X63250369Y-83304954D01*
X63150367Y-83036839D01*
X63013226Y-82785685D01*
X62985116Y-82748135D01*
X66594967Y-82748135D01*
X66600862Y-82757308D01*
X67806457Y-83962903D01*
X67818000Y-83969567D01*
X67829542Y-83962903D01*
X69031954Y-82760490D01*
X69038606Y-82748309D01*
X69030288Y-82737198D01*
X68905593Y-82643852D01*
X68898150Y-82639068D01*
X68654841Y-82506212D01*
X68646803Y-82502541D01*
X68387047Y-82405657D01*
X68378578Y-82403171D01*
X68107690Y-82344242D01*
X68098934Y-82342983D01*
X67822418Y-82323207D01*
X67813582Y-82323207D01*
X67537065Y-82342983D01*
X67528309Y-82344242D01*
X67257421Y-82403171D01*
X67248952Y-82405657D01*
X66989196Y-82502541D01*
X66981158Y-82506212D01*
X66737850Y-82639068D01*
X66730402Y-82643855D01*
X66602108Y-82739894D01*
X66594967Y-82748135D01*
X62985116Y-82748135D01*
X62841739Y-82556605D01*
X62639395Y-82354261D01*
X62410315Y-82182774D01*
X62401640Y-82178037D01*
X62163050Y-82047756D01*
X62163043Y-82047753D01*
X62159161Y-82045633D01*
X62155017Y-82044087D01*
X62155012Y-82044085D01*
X61895189Y-81947176D01*
X61895185Y-81947175D01*
X61891046Y-81945631D01*
X61861075Y-81939111D01*
X61615761Y-81885746D01*
X61615753Y-81885744D01*
X61611428Y-81884804D01*
X61607014Y-81884488D01*
X61607005Y-81884487D01*
X61330418Y-81864706D01*
X61326000Y-81864390D01*
X61321582Y-81864706D01*
X61044994Y-81884487D01*
X61044983Y-81884488D01*
X61040572Y-81884804D01*
X61036248Y-81885744D01*
X61036238Y-81885746D01*
X60765279Y-81944690D01*
X60765276Y-81944690D01*
X60760954Y-81945631D01*
X60756818Y-81947173D01*
X60756810Y-81947176D01*
X60496987Y-82044085D01*
X60496976Y-82044089D01*
X60492839Y-82045633D01*
X60488961Y-82047750D01*
X60488949Y-82047756D01*
X60245579Y-82180647D01*
X60245571Y-82180651D01*
X60241685Y-82182774D01*
X60238135Y-82185431D01*
X60238131Y-82185434D01*
X60016156Y-82351602D01*
X60016149Y-82351607D01*
X60012605Y-82354261D01*
X60009474Y-82357391D01*
X60009467Y-82357398D01*
X59813398Y-82553467D01*
X59813391Y-82553474D01*
X59810261Y-82556605D01*
X59807607Y-82560149D01*
X59807602Y-82560156D01*
X59641434Y-82782131D01*
X59638774Y-82785685D01*
X59636651Y-82789571D01*
X59636647Y-82789579D01*
X59503756Y-83032949D01*
X59503750Y-83032961D01*
X59501633Y-83036839D01*
X59500089Y-83040976D01*
X59500085Y-83040987D01*
X59403176Y-83300810D01*
X59403173Y-83300818D01*
X59401631Y-83304954D01*
X59400690Y-83309276D01*
X59400690Y-83309279D01*
X59341746Y-83580238D01*
X59341744Y-83580248D01*
X59340804Y-83584572D01*
X59340488Y-83588983D01*
X59340487Y-83588994D01*
X59324282Y-83815582D01*
X59320390Y-83870000D01*
X51278034Y-83870000D01*
X51281610Y-83820000D01*
X51261196Y-83534572D01*
X51200369Y-83254954D01*
X51100367Y-82986839D01*
X50963226Y-82735685D01*
X50791739Y-82506605D01*
X50589395Y-82304261D01*
X50360315Y-82132774D01*
X50356420Y-82130647D01*
X50113050Y-81997756D01*
X50113043Y-81997753D01*
X50109161Y-81995633D01*
X50105017Y-81994087D01*
X50105012Y-81994085D01*
X49845189Y-81897176D01*
X49845185Y-81897175D01*
X49841046Y-81895631D01*
X49789818Y-81884487D01*
X49565761Y-81835746D01*
X49565753Y-81835744D01*
X49561428Y-81834804D01*
X49557014Y-81834488D01*
X49557005Y-81834487D01*
X49280418Y-81814706D01*
X49276000Y-81814390D01*
X49271582Y-81814706D01*
X48994994Y-81834487D01*
X48994983Y-81834488D01*
X48990572Y-81834804D01*
X48986248Y-81835744D01*
X48986238Y-81835746D01*
X48715279Y-81894690D01*
X48715276Y-81894690D01*
X48710954Y-81895631D01*
X48706818Y-81897173D01*
X48706810Y-81897176D01*
X48446987Y-81994085D01*
X48446976Y-81994089D01*
X48442839Y-81995633D01*
X48438961Y-81997750D01*
X48438949Y-81997756D01*
X48195579Y-82130647D01*
X48195571Y-82130651D01*
X48191685Y-82132774D01*
X48188135Y-82135431D01*
X48188131Y-82135434D01*
X47966156Y-82301602D01*
X47966149Y-82301607D01*
X47962605Y-82304261D01*
X47959474Y-82307391D01*
X47959467Y-82307398D01*
X47763398Y-82503467D01*
X47763391Y-82503474D01*
X47760261Y-82506605D01*
X47757607Y-82510149D01*
X47757602Y-82510156D01*
X47594353Y-82728232D01*
X47588774Y-82735685D01*
X47586651Y-82739571D01*
X47586647Y-82739579D01*
X47453756Y-82982949D01*
X47453750Y-82982961D01*
X47451633Y-82986839D01*
X47450089Y-82990976D01*
X47450085Y-82990987D01*
X47353176Y-83250810D01*
X47353173Y-83250818D01*
X47351631Y-83254954D01*
X47350690Y-83259276D01*
X47350690Y-83259279D01*
X47291746Y-83530238D01*
X47291744Y-83530248D01*
X47290804Y-83534572D01*
X47290488Y-83538983D01*
X47290487Y-83538994D01*
X47271272Y-83807654D01*
X47270390Y-83820000D01*
X42159562Y-83820000D01*
X42183738Y-83797744D01*
X42336474Y-83601509D01*
X42454828Y-83382810D01*
X42535571Y-83147614D01*
X42576500Y-82902335D01*
X42576500Y-82653665D01*
X42535571Y-82408386D01*
X42454828Y-82173190D01*
X42336474Y-81954491D01*
X42183738Y-81758256D01*
X42179970Y-81754787D01*
X42179967Y-81754784D01*
X42004560Y-81593311D01*
X42004559Y-81593310D01*
X42000785Y-81589836D01*
X41992885Y-81584675D01*
X41796900Y-81456631D01*
X41796893Y-81456627D01*
X41792607Y-81453827D01*
X41787916Y-81451769D01*
X41787910Y-81451766D01*
X41569577Y-81355997D01*
X41569578Y-81355997D01*
X41564881Y-81353937D01*
X41559911Y-81352678D01*
X41559910Y-81352678D01*
X41328795Y-81294151D01*
X41328788Y-81294149D01*
X41323821Y-81292892D01*
X41318709Y-81292468D01*
X41318701Y-81292467D01*
X41140633Y-81277712D01*
X41140617Y-81277711D01*
X41138067Y-81277500D01*
X38813933Y-81277500D01*
X38811383Y-81277711D01*
X38811366Y-81277712D01*
X38633298Y-81292467D01*
X38633288Y-81292468D01*
X38628179Y-81292892D01*
X38623213Y-81294149D01*
X38623204Y-81294151D01*
X38392089Y-81352678D01*
X38392084Y-81352679D01*
X38387119Y-81353937D01*
X38382425Y-81355995D01*
X38382422Y-81355997D01*
X38164089Y-81451766D01*
X38164077Y-81451772D01*
X38159393Y-81453827D01*
X38155111Y-81456624D01*
X38155099Y-81456631D01*
X37955512Y-81587028D01*
X37955506Y-81587031D01*
X37951215Y-81589836D01*
X37947446Y-81593305D01*
X37947439Y-81593311D01*
X37772032Y-81754784D01*
X37772023Y-81754793D01*
X37768262Y-81758256D01*
X37765113Y-81762301D01*
X37765111Y-81762304D01*
X37618678Y-81950440D01*
X37618672Y-81950448D01*
X37615526Y-81954491D01*
X37613088Y-81958995D01*
X37613084Y-81959002D01*
X37499610Y-82168683D01*
X37499605Y-82168693D01*
X37497172Y-82173190D01*
X37495511Y-82178026D01*
X37495507Y-82178037D01*
X37418094Y-82403534D01*
X37418092Y-82403541D01*
X37416429Y-82408386D01*
X37415585Y-82413441D01*
X37415585Y-82413443D01*
X37376344Y-82648601D01*
X37376343Y-82648613D01*
X37375500Y-82653665D01*
X37375500Y-82902335D01*
X28448500Y-82902335D01*
X28448500Y-79140067D01*
X35075500Y-79140067D01*
X35075711Y-79142617D01*
X35075712Y-79142633D01*
X35090467Y-79320701D01*
X35090468Y-79320709D01*
X35090892Y-79325821D01*
X35092149Y-79330788D01*
X35092151Y-79330795D01*
X35150678Y-79561910D01*
X35151937Y-79566881D01*
X35153997Y-79571577D01*
X35249766Y-79789910D01*
X35249769Y-79789916D01*
X35251827Y-79794607D01*
X35254627Y-79798893D01*
X35254631Y-79798900D01*
X35382675Y-79994885D01*
X35387836Y-80002785D01*
X35391310Y-80006559D01*
X35391311Y-80006560D01*
X35552784Y-80181967D01*
X35552787Y-80181970D01*
X35556256Y-80185738D01*
X35752491Y-80338474D01*
X35971190Y-80456828D01*
X36206386Y-80537571D01*
X36451665Y-80578500D01*
X36695201Y-80578500D01*
X36700335Y-80578500D01*
X36945614Y-80537571D01*
X37180810Y-80456828D01*
X37399509Y-80338474D01*
X37419932Y-80322578D01*
X41375500Y-80322578D01*
X41375501Y-80325872D01*
X41375853Y-80329150D01*
X41375854Y-80329161D01*
X41381079Y-80377768D01*
X41381080Y-80377773D01*
X41381909Y-80385483D01*
X41384619Y-80392749D01*
X41384620Y-80392753D01*
X41418217Y-80482831D01*
X41432204Y-80520331D01*
X41518454Y-80635546D01*
X41633669Y-80721796D01*
X41768517Y-80772091D01*
X41828127Y-80778500D01*
X43923872Y-80778499D01*
X43983483Y-80772091D01*
X44118331Y-80721796D01*
X44233546Y-80635546D01*
X44319796Y-80520331D01*
X44370091Y-80385483D01*
X44376500Y-80325873D01*
X44376499Y-76910000D01*
X64824357Y-76910000D01*
X64824781Y-76915117D01*
X64844467Y-77152701D01*
X64844468Y-77152709D01*
X64844892Y-77157821D01*
X64846149Y-77162788D01*
X64846151Y-77162795D01*
X64893958Y-77351577D01*
X64905937Y-77398881D01*
X64907997Y-77403577D01*
X65003766Y-77621910D01*
X65003769Y-77621916D01*
X65005827Y-77626607D01*
X65008627Y-77630893D01*
X65008631Y-77630900D01*
X65105055Y-77778487D01*
X65141836Y-77834785D01*
X65145310Y-77838559D01*
X65145311Y-77838560D01*
X65306784Y-78013967D01*
X65306787Y-78013970D01*
X65310256Y-78017738D01*
X65506491Y-78170474D01*
X65725190Y-78288828D01*
X65960386Y-78369571D01*
X66205665Y-78410500D01*
X66449201Y-78410500D01*
X66454335Y-78410500D01*
X66699614Y-78369571D01*
X66934810Y-78288828D01*
X67153509Y-78170474D01*
X67349744Y-78017738D01*
X67518164Y-77834785D01*
X67654173Y-77626607D01*
X67754063Y-77398881D01*
X67815108Y-77157821D01*
X67835643Y-76910000D01*
X69324357Y-76910000D01*
X69324781Y-76915117D01*
X69344467Y-77152701D01*
X69344468Y-77152709D01*
X69344892Y-77157821D01*
X69346149Y-77162788D01*
X69346151Y-77162795D01*
X69393958Y-77351577D01*
X69405937Y-77398881D01*
X69407997Y-77403577D01*
X69503766Y-77621910D01*
X69503769Y-77621916D01*
X69505827Y-77626607D01*
X69508627Y-77630893D01*
X69508631Y-77630900D01*
X69605055Y-77778487D01*
X69641836Y-77834785D01*
X69645310Y-77838559D01*
X69645311Y-77838560D01*
X69806784Y-78013967D01*
X69806787Y-78013970D01*
X69810256Y-78017738D01*
X70006491Y-78170474D01*
X70225190Y-78288828D01*
X70460386Y-78369571D01*
X70705665Y-78410500D01*
X70949201Y-78410500D01*
X70954335Y-78410500D01*
X71199614Y-78369571D01*
X71434810Y-78288828D01*
X71653509Y-78170474D01*
X71849744Y-78017738D01*
X72018164Y-77834785D01*
X72154173Y-77626607D01*
X72254063Y-77398881D01*
X72315108Y-77157821D01*
X72335643Y-76910000D01*
X72331334Y-76858000D01*
X72734357Y-76858000D01*
X72734781Y-76863117D01*
X72754467Y-77100701D01*
X72754468Y-77100709D01*
X72754892Y-77105821D01*
X72756149Y-77110788D01*
X72756151Y-77110795D01*
X72814678Y-77341910D01*
X72815937Y-77346881D01*
X72817997Y-77351577D01*
X72913766Y-77569910D01*
X72913769Y-77569916D01*
X72915827Y-77574607D01*
X72918627Y-77578893D01*
X72918631Y-77578900D01*
X73046675Y-77774885D01*
X73051836Y-77782785D01*
X73055310Y-77786559D01*
X73055311Y-77786560D01*
X73216784Y-77961967D01*
X73216787Y-77961970D01*
X73220256Y-77965738D01*
X73416491Y-78118474D01*
X73635190Y-78236828D01*
X73870386Y-78317571D01*
X74115665Y-78358500D01*
X74359201Y-78358500D01*
X74364335Y-78358500D01*
X74609614Y-78317571D01*
X74844810Y-78236828D01*
X75063509Y-78118474D01*
X75259744Y-77965738D01*
X75428164Y-77782785D01*
X75564173Y-77574607D01*
X75664063Y-77346881D01*
X75725108Y-77105821D01*
X75745643Y-76858000D01*
X77234357Y-76858000D01*
X77234781Y-76863117D01*
X77254467Y-77100701D01*
X77254468Y-77100709D01*
X77254892Y-77105821D01*
X77256149Y-77110788D01*
X77256151Y-77110795D01*
X77314678Y-77341910D01*
X77315937Y-77346881D01*
X77317997Y-77351577D01*
X77413766Y-77569910D01*
X77413769Y-77569916D01*
X77415827Y-77574607D01*
X77418627Y-77578893D01*
X77418631Y-77578900D01*
X77546675Y-77774885D01*
X77551836Y-77782785D01*
X77555310Y-77786559D01*
X77555311Y-77786560D01*
X77716784Y-77961967D01*
X77716787Y-77961970D01*
X77720256Y-77965738D01*
X77916491Y-78118474D01*
X78135190Y-78236828D01*
X78370386Y-78317571D01*
X78615665Y-78358500D01*
X78859201Y-78358500D01*
X78864335Y-78358500D01*
X79109614Y-78317571D01*
X79344810Y-78236828D01*
X79563509Y-78118474D01*
X79759744Y-77965738D01*
X79928164Y-77782785D01*
X80064173Y-77574607D01*
X80164063Y-77346881D01*
X80225108Y-77105821D01*
X80245643Y-76858000D01*
X80225108Y-76610179D01*
X80164063Y-76369119D01*
X80064173Y-76141393D01*
X79928164Y-75933215D01*
X79811084Y-75806032D01*
X79763215Y-75754032D01*
X79763211Y-75754029D01*
X79759744Y-75750262D01*
X79589205Y-75617526D01*
X79567559Y-75600678D01*
X79567557Y-75600676D01*
X79563509Y-75597526D01*
X79513601Y-75570517D01*
X79349316Y-75481610D01*
X79349310Y-75481607D01*
X79344810Y-75479172D01*
X79339969Y-75477510D01*
X79339962Y-75477507D01*
X79114465Y-75400094D01*
X79114461Y-75400093D01*
X79109614Y-75398429D01*
X79100768Y-75396952D01*
X78869398Y-75358344D01*
X78869387Y-75358343D01*
X78864335Y-75357500D01*
X78615665Y-75357500D01*
X78610613Y-75358343D01*
X78610601Y-75358344D01*
X78375443Y-75397585D01*
X78375441Y-75397585D01*
X78370386Y-75398429D01*
X78365541Y-75400092D01*
X78365534Y-75400094D01*
X78140037Y-75477507D01*
X78140026Y-75477511D01*
X78135190Y-75479172D01*
X78130693Y-75481605D01*
X78130683Y-75481610D01*
X77921002Y-75595084D01*
X77920995Y-75595088D01*
X77916491Y-75597526D01*
X77912448Y-75600672D01*
X77912440Y-75600678D01*
X77724304Y-75747111D01*
X77720256Y-75750262D01*
X77716793Y-75754023D01*
X77716784Y-75754032D01*
X77555311Y-75929439D01*
X77555305Y-75929446D01*
X77551836Y-75933215D01*
X77549031Y-75937506D01*
X77549028Y-75937512D01*
X77418631Y-76137099D01*
X77418624Y-76137111D01*
X77415827Y-76141393D01*
X77413772Y-76146077D01*
X77413766Y-76146089D01*
X77317997Y-76364422D01*
X77315937Y-76369119D01*
X77314679Y-76374084D01*
X77314678Y-76374089D01*
X77256151Y-76605204D01*
X77256149Y-76605213D01*
X77254892Y-76610179D01*
X77254468Y-76615288D01*
X77254467Y-76615298D01*
X77238055Y-76813366D01*
X77234357Y-76858000D01*
X75745643Y-76858000D01*
X75725108Y-76610179D01*
X75664063Y-76369119D01*
X75564173Y-76141393D01*
X75428164Y-75933215D01*
X75311084Y-75806032D01*
X75263215Y-75754032D01*
X75263211Y-75754029D01*
X75259744Y-75750262D01*
X75089205Y-75617526D01*
X75067559Y-75600678D01*
X75067557Y-75600676D01*
X75063509Y-75597526D01*
X75013601Y-75570517D01*
X74849316Y-75481610D01*
X74849310Y-75481607D01*
X74844810Y-75479172D01*
X74839969Y-75477510D01*
X74839962Y-75477507D01*
X74614465Y-75400094D01*
X74614461Y-75400093D01*
X74609614Y-75398429D01*
X74600768Y-75396952D01*
X74369398Y-75358344D01*
X74369387Y-75358343D01*
X74364335Y-75357500D01*
X74115665Y-75357500D01*
X74110613Y-75358343D01*
X74110601Y-75358344D01*
X73875443Y-75397585D01*
X73875441Y-75397585D01*
X73870386Y-75398429D01*
X73865541Y-75400092D01*
X73865534Y-75400094D01*
X73640037Y-75477507D01*
X73640026Y-75477511D01*
X73635190Y-75479172D01*
X73630693Y-75481605D01*
X73630683Y-75481610D01*
X73421002Y-75595084D01*
X73420995Y-75595088D01*
X73416491Y-75597526D01*
X73412448Y-75600672D01*
X73412440Y-75600678D01*
X73224304Y-75747111D01*
X73220256Y-75750262D01*
X73216793Y-75754023D01*
X73216784Y-75754032D01*
X73055311Y-75929439D01*
X73055305Y-75929446D01*
X73051836Y-75933215D01*
X73049031Y-75937506D01*
X73049028Y-75937512D01*
X72918631Y-76137099D01*
X72918624Y-76137111D01*
X72915827Y-76141393D01*
X72913772Y-76146077D01*
X72913766Y-76146089D01*
X72817997Y-76364422D01*
X72815937Y-76369119D01*
X72814679Y-76374084D01*
X72814678Y-76374089D01*
X72756151Y-76605204D01*
X72756149Y-76605213D01*
X72754892Y-76610179D01*
X72754468Y-76615288D01*
X72754467Y-76615298D01*
X72738055Y-76813366D01*
X72734357Y-76858000D01*
X72331334Y-76858000D01*
X72315108Y-76662179D01*
X72254063Y-76421119D01*
X72154173Y-76193393D01*
X72136334Y-76166089D01*
X72020971Y-75989512D01*
X72018164Y-75985215D01*
X71849744Y-75802262D01*
X71653509Y-75649526D01*
X71648997Y-75647084D01*
X71439316Y-75533610D01*
X71439310Y-75533607D01*
X71434810Y-75531172D01*
X71429969Y-75529510D01*
X71429962Y-75529507D01*
X71204465Y-75452094D01*
X71204461Y-75452093D01*
X71199614Y-75450429D01*
X71190768Y-75448952D01*
X70959398Y-75410344D01*
X70959387Y-75410343D01*
X70954335Y-75409500D01*
X70705665Y-75409500D01*
X70700613Y-75410343D01*
X70700601Y-75410344D01*
X70465443Y-75449585D01*
X70465441Y-75449585D01*
X70460386Y-75450429D01*
X70455541Y-75452092D01*
X70455534Y-75452094D01*
X70230037Y-75529507D01*
X70230026Y-75529511D01*
X70225190Y-75531172D01*
X70220693Y-75533605D01*
X70220683Y-75533610D01*
X70011002Y-75647084D01*
X70010995Y-75647088D01*
X70006491Y-75649526D01*
X70002448Y-75652672D01*
X70002440Y-75652678D01*
X69814304Y-75799111D01*
X69810256Y-75802262D01*
X69806793Y-75806023D01*
X69806784Y-75806032D01*
X69645311Y-75981439D01*
X69645305Y-75981446D01*
X69641836Y-75985215D01*
X69639031Y-75989506D01*
X69639028Y-75989512D01*
X69508631Y-76189099D01*
X69508624Y-76189111D01*
X69505827Y-76193393D01*
X69503772Y-76198077D01*
X69503766Y-76198089D01*
X69417793Y-76394089D01*
X69405937Y-76421119D01*
X69404679Y-76426084D01*
X69404678Y-76426089D01*
X69346151Y-76657204D01*
X69346149Y-76657213D01*
X69344892Y-76662179D01*
X69344468Y-76667288D01*
X69344467Y-76667298D01*
X69329090Y-76852883D01*
X69324357Y-76910000D01*
X67835643Y-76910000D01*
X67815108Y-76662179D01*
X67754063Y-76421119D01*
X67654173Y-76193393D01*
X67636334Y-76166089D01*
X67520971Y-75989512D01*
X67518164Y-75985215D01*
X67349744Y-75802262D01*
X67153509Y-75649526D01*
X67148997Y-75647084D01*
X66939316Y-75533610D01*
X66939310Y-75533607D01*
X66934810Y-75531172D01*
X66929969Y-75529510D01*
X66929962Y-75529507D01*
X66704465Y-75452094D01*
X66704461Y-75452093D01*
X66699614Y-75450429D01*
X66690768Y-75448952D01*
X66459398Y-75410344D01*
X66459387Y-75410343D01*
X66454335Y-75409500D01*
X66205665Y-75409500D01*
X66200613Y-75410343D01*
X66200601Y-75410344D01*
X65965443Y-75449585D01*
X65965441Y-75449585D01*
X65960386Y-75450429D01*
X65955541Y-75452092D01*
X65955534Y-75452094D01*
X65730037Y-75529507D01*
X65730026Y-75529511D01*
X65725190Y-75531172D01*
X65720693Y-75533605D01*
X65720683Y-75533610D01*
X65511002Y-75647084D01*
X65510995Y-75647088D01*
X65506491Y-75649526D01*
X65502448Y-75652672D01*
X65502440Y-75652678D01*
X65314304Y-75799111D01*
X65310256Y-75802262D01*
X65306793Y-75806023D01*
X65306784Y-75806032D01*
X65145311Y-75981439D01*
X65145305Y-75981446D01*
X65141836Y-75985215D01*
X65139031Y-75989506D01*
X65139028Y-75989512D01*
X65008631Y-76189099D01*
X65008624Y-76189111D01*
X65005827Y-76193393D01*
X65003772Y-76198077D01*
X65003766Y-76198089D01*
X64917793Y-76394089D01*
X64905937Y-76421119D01*
X64904679Y-76426084D01*
X64904678Y-76426089D01*
X64846151Y-76657204D01*
X64846149Y-76657213D01*
X64844892Y-76662179D01*
X64844468Y-76667288D01*
X64844467Y-76667298D01*
X64829090Y-76852883D01*
X64824357Y-76910000D01*
X44376499Y-76910000D01*
X44376499Y-75630128D01*
X44370091Y-75570517D01*
X44319796Y-75435669D01*
X44233546Y-75320454D01*
X44118331Y-75234204D01*
X43983483Y-75183909D01*
X43975770Y-75183079D01*
X43975767Y-75183079D01*
X43927180Y-75177855D01*
X43927169Y-75177854D01*
X43923873Y-75177500D01*
X43920550Y-75177500D01*
X41831439Y-75177500D01*
X41831420Y-75177500D01*
X41828128Y-75177501D01*
X41824850Y-75177853D01*
X41824838Y-75177854D01*
X41776231Y-75183079D01*
X41776225Y-75183080D01*
X41768517Y-75183909D01*
X41761252Y-75186618D01*
X41761246Y-75186620D01*
X41641980Y-75231104D01*
X41641978Y-75231104D01*
X41633669Y-75234204D01*
X41626572Y-75239516D01*
X41626568Y-75239519D01*
X41525550Y-75315141D01*
X41525546Y-75315144D01*
X41518454Y-75320454D01*
X41513144Y-75327546D01*
X41513141Y-75327550D01*
X41437519Y-75428568D01*
X41437516Y-75428572D01*
X41432204Y-75435669D01*
X41429104Y-75443978D01*
X41429104Y-75443980D01*
X41384620Y-75563247D01*
X41384619Y-75563250D01*
X41381909Y-75570517D01*
X41381079Y-75578227D01*
X41381079Y-75578232D01*
X41375855Y-75626819D01*
X41375854Y-75626831D01*
X41375500Y-75630127D01*
X41375500Y-75633448D01*
X41375500Y-75633449D01*
X41375500Y-80322560D01*
X41375500Y-80322578D01*
X37419932Y-80322578D01*
X37595744Y-80185738D01*
X37764164Y-80002785D01*
X37900173Y-79794607D01*
X38000063Y-79566881D01*
X38061108Y-79325821D01*
X38076500Y-79140067D01*
X38076500Y-76815933D01*
X38061108Y-76630179D01*
X38000063Y-76389119D01*
X37900173Y-76161393D01*
X37890174Y-76146089D01*
X37787878Y-75989512D01*
X37764164Y-75953215D01*
X37625202Y-75802262D01*
X37599215Y-75774032D01*
X37599211Y-75774029D01*
X37595744Y-75770262D01*
X37399509Y-75617526D01*
X37368377Y-75600678D01*
X37185316Y-75501610D01*
X37185310Y-75501607D01*
X37180810Y-75499172D01*
X37175969Y-75497510D01*
X37175962Y-75497507D01*
X36950465Y-75420094D01*
X36950461Y-75420093D01*
X36945614Y-75418429D01*
X36936768Y-75416952D01*
X36705398Y-75378344D01*
X36705387Y-75378343D01*
X36700335Y-75377500D01*
X36451665Y-75377500D01*
X36446613Y-75378343D01*
X36446601Y-75378344D01*
X36211443Y-75417585D01*
X36211441Y-75417585D01*
X36206386Y-75418429D01*
X36201541Y-75420092D01*
X36201534Y-75420094D01*
X35976037Y-75497507D01*
X35976026Y-75497511D01*
X35971190Y-75499172D01*
X35966693Y-75501605D01*
X35966683Y-75501610D01*
X35757002Y-75615084D01*
X35756995Y-75615088D01*
X35752491Y-75617526D01*
X35748448Y-75620672D01*
X35748440Y-75620678D01*
X35577108Y-75754032D01*
X35556256Y-75770262D01*
X35552793Y-75774023D01*
X35552784Y-75774032D01*
X35391311Y-75949439D01*
X35391305Y-75949446D01*
X35387836Y-75953215D01*
X35385031Y-75957506D01*
X35385028Y-75957512D01*
X35254631Y-76157099D01*
X35254624Y-76157111D01*
X35251827Y-76161393D01*
X35249772Y-76166077D01*
X35249766Y-76166089D01*
X35153997Y-76384422D01*
X35151937Y-76389119D01*
X35150679Y-76394084D01*
X35150678Y-76394089D01*
X35092151Y-76625204D01*
X35092149Y-76625213D01*
X35090892Y-76630179D01*
X35090468Y-76635288D01*
X35090467Y-76635298D01*
X35075712Y-76813366D01*
X35075711Y-76813383D01*
X35075500Y-76815933D01*
X35075500Y-79140067D01*
X28448500Y-79140067D01*
X28448500Y-70326000D01*
X30101811Y-70326000D01*
X30102193Y-70330854D01*
X30109682Y-70426019D01*
X30120539Y-70563966D01*
X30121674Y-70568695D01*
X30121675Y-70568699D01*
X30175125Y-70791336D01*
X30175127Y-70791344D01*
X30176263Y-70796073D01*
X30267611Y-71016605D01*
X30270158Y-71020762D01*
X30270159Y-71020763D01*
X30389785Y-71215977D01*
X30389790Y-71215984D01*
X30392332Y-71220132D01*
X30395492Y-71223831D01*
X30395495Y-71223836D01*
X30509421Y-71357226D01*
X30547357Y-71401643D01*
X30551057Y-71404803D01*
X30678871Y-71513967D01*
X30728868Y-71556668D01*
X30733018Y-71559211D01*
X30733022Y-71559214D01*
X30824581Y-71615321D01*
X30932395Y-71681389D01*
X31152927Y-71772737D01*
X31385034Y-71828461D01*
X31623000Y-71847189D01*
X31860966Y-71828461D01*
X32093073Y-71772737D01*
X32313605Y-71681389D01*
X32517132Y-71556668D01*
X32698643Y-71401643D01*
X32798710Y-71284478D01*
X32841086Y-71252401D01*
X32893000Y-71241011D01*
X32944914Y-71252401D01*
X32987289Y-71284478D01*
X33087357Y-71401643D01*
X33091057Y-71404803D01*
X33218871Y-71513967D01*
X33268868Y-71556668D01*
X33273018Y-71559211D01*
X33273022Y-71559214D01*
X33364581Y-71615321D01*
X33472395Y-71681389D01*
X33692927Y-71772737D01*
X33925034Y-71828461D01*
X34163000Y-71847189D01*
X34400966Y-71828461D01*
X34633073Y-71772737D01*
X34853605Y-71681389D01*
X35057132Y-71556668D01*
X35238643Y-71401643D01*
X35393668Y-71220132D01*
X35518389Y-71016605D01*
X35609737Y-70796073D01*
X35665461Y-70563966D01*
X35684189Y-70326000D01*
X40769811Y-70326000D01*
X40770193Y-70330854D01*
X40777682Y-70426019D01*
X40788539Y-70563966D01*
X40789674Y-70568695D01*
X40789675Y-70568699D01*
X40843125Y-70791336D01*
X40843127Y-70791344D01*
X40844263Y-70796073D01*
X40935611Y-71016605D01*
X40938158Y-71020762D01*
X40938159Y-71020763D01*
X41057785Y-71215977D01*
X41057790Y-71215984D01*
X41060332Y-71220132D01*
X41063492Y-71223831D01*
X41063495Y-71223836D01*
X41177421Y-71357226D01*
X41215357Y-71401643D01*
X41219057Y-71404803D01*
X41346871Y-71513967D01*
X41396868Y-71556668D01*
X41401018Y-71559211D01*
X41401022Y-71559214D01*
X41492581Y-71615321D01*
X41600395Y-71681389D01*
X41820927Y-71772737D01*
X42053034Y-71828461D01*
X42291000Y-71847189D01*
X42528966Y-71828461D01*
X42761073Y-71772737D01*
X42981605Y-71681389D01*
X43185132Y-71556668D01*
X43366643Y-71401643D01*
X43466710Y-71284478D01*
X43509086Y-71252401D01*
X43561000Y-71241011D01*
X43612914Y-71252401D01*
X43655289Y-71284478D01*
X43755357Y-71401643D01*
X43759057Y-71404803D01*
X43886871Y-71513967D01*
X43936868Y-71556668D01*
X43941018Y-71559211D01*
X43941022Y-71559214D01*
X44032581Y-71615321D01*
X44140395Y-71681389D01*
X44360927Y-71772737D01*
X44593034Y-71828461D01*
X44831000Y-71847189D01*
X45068966Y-71828461D01*
X45301073Y-71772737D01*
X45521605Y-71681389D01*
X45621783Y-71620000D01*
X47520592Y-71620000D01*
X47520939Y-71624631D01*
X47538464Y-71858500D01*
X47540198Y-71881630D01*
X47541228Y-71886143D01*
X47541229Y-71886149D01*
X47597547Y-72132891D01*
X47598580Y-72137416D01*
X47600275Y-72141734D01*
X47600276Y-72141738D01*
X47692734Y-72377318D01*
X47692737Y-72377324D01*
X47694432Y-72381643D01*
X47696750Y-72385658D01*
X47696753Y-72385664D01*
X47770973Y-72514216D01*
X47825614Y-72608857D01*
X47989195Y-72813981D01*
X48181521Y-72992433D01*
X48398296Y-73140228D01*
X48634677Y-73254063D01*
X48639105Y-73255428D01*
X48639108Y-73255430D01*
X48698442Y-73273732D01*
X48885385Y-73331396D01*
X49144818Y-73370500D01*
X49402547Y-73370500D01*
X49407182Y-73370500D01*
X49666615Y-73331396D01*
X49917323Y-73254063D01*
X50153704Y-73140228D01*
X50370479Y-72992433D01*
X50562805Y-72813981D01*
X50726386Y-72608857D01*
X50857568Y-72381643D01*
X50953420Y-72137416D01*
X51011802Y-71881630D01*
X51031408Y-71620000D01*
X51011802Y-71358370D01*
X50953420Y-71102584D01*
X50857568Y-70858357D01*
X50726386Y-70631143D01*
X50562805Y-70426019D01*
X50370479Y-70247567D01*
X50153704Y-70099772D01*
X50119500Y-70083300D01*
X49921502Y-69987949D01*
X49921496Y-69987946D01*
X49917323Y-69985937D01*
X49912901Y-69984573D01*
X49912891Y-69984569D01*
X49671048Y-69909971D01*
X49671043Y-69909969D01*
X49666615Y-69908604D01*
X49662035Y-69907913D01*
X49662028Y-69907912D01*
X49411765Y-69870190D01*
X49411754Y-69870189D01*
X49407182Y-69869500D01*
X49144818Y-69869500D01*
X49140246Y-69870189D01*
X49140234Y-69870190D01*
X48889971Y-69907912D01*
X48889961Y-69907914D01*
X48885385Y-69908604D01*
X48880959Y-69909968D01*
X48880951Y-69909971D01*
X48639108Y-69984569D01*
X48639093Y-69984574D01*
X48634677Y-69985937D01*
X48630508Y-69987944D01*
X48630497Y-69987949D01*
X48402481Y-70097756D01*
X48402474Y-70097759D01*
X48398296Y-70099772D01*
X48394463Y-70102385D01*
X48394460Y-70102387D01*
X48206231Y-70230720D01*
X48181521Y-70247567D01*
X48178129Y-70250713D01*
X48178123Y-70250719D01*
X47992596Y-70422863D01*
X47989195Y-70426019D01*
X47986306Y-70429641D01*
X47986302Y-70429646D01*
X47841841Y-70610795D01*
X47825614Y-70631143D01*
X47823295Y-70635159D01*
X47823294Y-70635161D01*
X47696753Y-70854335D01*
X47696747Y-70854346D01*
X47694432Y-70858357D01*
X47692739Y-70862670D01*
X47692734Y-70862681D01*
X47600276Y-71098261D01*
X47600273Y-71098268D01*
X47598580Y-71102584D01*
X47597548Y-71107102D01*
X47597547Y-71107108D01*
X47541229Y-71353850D01*
X47541227Y-71353858D01*
X47540198Y-71358370D01*
X47539851Y-71362989D01*
X47539851Y-71362995D01*
X47529891Y-71495914D01*
X47520592Y-71620000D01*
X45621783Y-71620000D01*
X45725132Y-71556668D01*
X45906643Y-71401643D01*
X46061668Y-71220132D01*
X46186389Y-71016605D01*
X46277737Y-70796073D01*
X46333461Y-70563966D01*
X46352189Y-70326000D01*
X46333461Y-70088034D01*
X46277737Y-69855927D01*
X46186389Y-69635395D01*
X46091470Y-69480500D01*
X46064214Y-69436022D01*
X46064211Y-69436018D01*
X46061668Y-69431868D01*
X46021273Y-69384572D01*
X45909803Y-69254057D01*
X45909802Y-69254056D01*
X45906643Y-69250357D01*
X45853408Y-69204890D01*
X45728836Y-69098495D01*
X45728831Y-69098492D01*
X45725132Y-69095332D01*
X45720984Y-69092790D01*
X45720977Y-69092785D01*
X45525763Y-68973159D01*
X45525762Y-68973158D01*
X45521605Y-68970611D01*
X45301073Y-68879263D01*
X45296344Y-68878127D01*
X45296336Y-68878125D01*
X45073699Y-68824675D01*
X45073695Y-68824674D01*
X45068966Y-68823539D01*
X45064115Y-68823157D01*
X45064114Y-68823157D01*
X44835854Y-68805193D01*
X44831000Y-68804811D01*
X44826146Y-68805193D01*
X44597885Y-68823157D01*
X44597882Y-68823157D01*
X44593034Y-68823539D01*
X44588306Y-68824673D01*
X44588300Y-68824675D01*
X44365663Y-68878125D01*
X44365651Y-68878128D01*
X44360927Y-68879263D01*
X44356430Y-68881125D01*
X44356426Y-68881127D01*
X44144899Y-68968745D01*
X44144895Y-68968746D01*
X44140395Y-68970611D01*
X44136242Y-68973155D01*
X44136236Y-68973159D01*
X43941022Y-69092785D01*
X43941009Y-69092794D01*
X43936868Y-69095332D01*
X43933173Y-69098487D01*
X43933163Y-69098495D01*
X43759057Y-69247196D01*
X43759050Y-69247202D01*
X43755357Y-69250357D01*
X43752202Y-69254050D01*
X43752196Y-69254057D01*
X43655289Y-69367520D01*
X43612912Y-69399598D01*
X43560998Y-69410988D01*
X43509085Y-69399598D01*
X43466710Y-69367520D01*
X43366643Y-69250357D01*
X43313408Y-69204890D01*
X43188836Y-69098495D01*
X43188831Y-69098492D01*
X43185132Y-69095332D01*
X43180984Y-69092790D01*
X43180977Y-69092785D01*
X42985763Y-68973159D01*
X42985762Y-68973158D01*
X42981605Y-68970611D01*
X42761073Y-68879263D01*
X42756344Y-68878127D01*
X42756336Y-68878125D01*
X42533699Y-68824675D01*
X42533695Y-68824674D01*
X42528966Y-68823539D01*
X42524115Y-68823157D01*
X42524114Y-68823157D01*
X42295854Y-68805193D01*
X42291000Y-68804811D01*
X42286146Y-68805193D01*
X42057885Y-68823157D01*
X42057882Y-68823157D01*
X42053034Y-68823539D01*
X42048306Y-68824673D01*
X42048300Y-68824675D01*
X41825663Y-68878125D01*
X41825651Y-68878128D01*
X41820927Y-68879263D01*
X41816430Y-68881125D01*
X41816426Y-68881127D01*
X41604899Y-68968745D01*
X41604895Y-68968746D01*
X41600395Y-68970611D01*
X41596242Y-68973155D01*
X41596236Y-68973159D01*
X41401022Y-69092785D01*
X41401009Y-69092794D01*
X41396868Y-69095332D01*
X41393173Y-69098487D01*
X41393163Y-69098495D01*
X41219057Y-69247196D01*
X41219050Y-69247202D01*
X41215357Y-69250357D01*
X41212202Y-69254050D01*
X41212196Y-69254057D01*
X41063495Y-69428163D01*
X41063487Y-69428173D01*
X41060332Y-69431868D01*
X41057794Y-69436009D01*
X41057785Y-69436022D01*
X40938159Y-69631236D01*
X40938155Y-69631242D01*
X40935611Y-69635395D01*
X40933746Y-69639895D01*
X40933745Y-69639899D01*
X40846491Y-69850549D01*
X40844263Y-69855927D01*
X40843128Y-69860651D01*
X40843125Y-69860663D01*
X40789675Y-70083300D01*
X40789673Y-70083306D01*
X40788539Y-70088034D01*
X40788157Y-70092882D01*
X40788157Y-70092885D01*
X40776969Y-70235046D01*
X40769811Y-70326000D01*
X35684189Y-70326000D01*
X35665461Y-70088034D01*
X35609737Y-69855927D01*
X35518389Y-69635395D01*
X35423470Y-69480500D01*
X35396214Y-69436022D01*
X35396211Y-69436018D01*
X35393668Y-69431868D01*
X35353273Y-69384572D01*
X35241803Y-69254057D01*
X35241802Y-69254056D01*
X35238643Y-69250357D01*
X35185408Y-69204890D01*
X35060836Y-69098495D01*
X35060831Y-69098492D01*
X35057132Y-69095332D01*
X35052984Y-69092790D01*
X35052977Y-69092785D01*
X34857763Y-68973159D01*
X34857762Y-68973158D01*
X34853605Y-68970611D01*
X34633073Y-68879263D01*
X34628344Y-68878127D01*
X34628336Y-68878125D01*
X34405699Y-68824675D01*
X34405695Y-68824674D01*
X34400966Y-68823539D01*
X34396115Y-68823157D01*
X34396114Y-68823157D01*
X34167854Y-68805193D01*
X34163000Y-68804811D01*
X34158146Y-68805193D01*
X33929885Y-68823157D01*
X33929882Y-68823157D01*
X33925034Y-68823539D01*
X33920306Y-68824673D01*
X33920300Y-68824675D01*
X33697663Y-68878125D01*
X33697651Y-68878128D01*
X33692927Y-68879263D01*
X33688430Y-68881125D01*
X33688426Y-68881127D01*
X33476899Y-68968745D01*
X33476895Y-68968746D01*
X33472395Y-68970611D01*
X33468242Y-68973155D01*
X33468236Y-68973159D01*
X33273022Y-69092785D01*
X33273009Y-69092794D01*
X33268868Y-69095332D01*
X33265173Y-69098487D01*
X33265163Y-69098495D01*
X33091057Y-69247196D01*
X33091050Y-69247202D01*
X33087357Y-69250357D01*
X33084202Y-69254050D01*
X33084196Y-69254057D01*
X32987289Y-69367520D01*
X32944912Y-69399598D01*
X32892998Y-69410988D01*
X32841085Y-69399598D01*
X32798710Y-69367520D01*
X32698643Y-69250357D01*
X32645408Y-69204890D01*
X32520836Y-69098495D01*
X32520831Y-69098492D01*
X32517132Y-69095332D01*
X32512984Y-69092790D01*
X32512977Y-69092785D01*
X32317763Y-68973159D01*
X32317762Y-68973158D01*
X32313605Y-68970611D01*
X32093073Y-68879263D01*
X32088344Y-68878127D01*
X32088336Y-68878125D01*
X31865699Y-68824675D01*
X31865695Y-68824674D01*
X31860966Y-68823539D01*
X31856115Y-68823157D01*
X31856114Y-68823157D01*
X31627854Y-68805193D01*
X31623000Y-68804811D01*
X31618146Y-68805193D01*
X31389885Y-68823157D01*
X31389882Y-68823157D01*
X31385034Y-68823539D01*
X31380306Y-68824673D01*
X31380300Y-68824675D01*
X31157663Y-68878125D01*
X31157651Y-68878128D01*
X31152927Y-68879263D01*
X31148430Y-68881125D01*
X31148426Y-68881127D01*
X30936899Y-68968745D01*
X30936895Y-68968746D01*
X30932395Y-68970611D01*
X30928242Y-68973155D01*
X30928236Y-68973159D01*
X30733022Y-69092785D01*
X30733009Y-69092794D01*
X30728868Y-69095332D01*
X30725173Y-69098487D01*
X30725163Y-69098495D01*
X30551057Y-69247196D01*
X30551050Y-69247202D01*
X30547357Y-69250357D01*
X30544202Y-69254050D01*
X30544196Y-69254057D01*
X30395495Y-69428163D01*
X30395487Y-69428173D01*
X30392332Y-69431868D01*
X30389794Y-69436009D01*
X30389785Y-69436022D01*
X30270159Y-69631236D01*
X30270155Y-69631242D01*
X30267611Y-69635395D01*
X30265746Y-69639895D01*
X30265745Y-69639899D01*
X30178491Y-69850549D01*
X30176263Y-69855927D01*
X30175128Y-69860651D01*
X30175125Y-69860663D01*
X30121675Y-70083300D01*
X30121673Y-70083306D01*
X30120539Y-70088034D01*
X30120157Y-70092882D01*
X30120157Y-70092885D01*
X30108969Y-70235046D01*
X30101811Y-70326000D01*
X28448500Y-70326000D01*
X28448500Y-53020295D01*
X30743794Y-53020295D01*
X30751771Y-53028116D01*
X30928463Y-53136394D01*
X30937126Y-53140808D01*
X31148581Y-53228395D01*
X31157818Y-53231397D01*
X31380378Y-53284829D01*
X31389963Y-53286347D01*
X31618146Y-53304306D01*
X31627854Y-53304306D01*
X31856036Y-53286347D01*
X31865621Y-53284829D01*
X32088181Y-53231397D01*
X32097418Y-53228395D01*
X32308880Y-53140805D01*
X32317527Y-53136400D01*
X32494229Y-53028115D01*
X32502204Y-53020295D01*
X33283794Y-53020295D01*
X33291771Y-53028116D01*
X33468463Y-53136394D01*
X33477126Y-53140808D01*
X33688581Y-53228395D01*
X33697818Y-53231397D01*
X33920378Y-53284829D01*
X33929963Y-53286347D01*
X34158146Y-53304306D01*
X34167854Y-53304306D01*
X34396036Y-53286347D01*
X34405621Y-53284829D01*
X34628181Y-53231397D01*
X34637418Y-53228395D01*
X34848880Y-53140805D01*
X34857527Y-53136400D01*
X35034229Y-53028115D01*
X35042204Y-53020295D01*
X35036273Y-53010827D01*
X34174542Y-52149095D01*
X34163000Y-52142431D01*
X34151457Y-52149095D01*
X33289725Y-53010827D01*
X33283794Y-53020295D01*
X32502204Y-53020295D01*
X32496273Y-53010827D01*
X31634542Y-52149095D01*
X31623000Y-52142431D01*
X31611457Y-52149095D01*
X30749725Y-53010827D01*
X30743794Y-53020295D01*
X28448500Y-53020295D01*
X28448500Y-51788854D01*
X30102694Y-51788854D01*
X30120652Y-52017036D01*
X30122170Y-52026621D01*
X30175602Y-52249181D01*
X30178604Y-52258418D01*
X30266191Y-52469873D01*
X30270605Y-52478536D01*
X30378882Y-52655227D01*
X30386703Y-52663204D01*
X30396171Y-52657273D01*
X31257903Y-51795542D01*
X31264567Y-51784000D01*
X31264566Y-51783999D01*
X31981431Y-51783999D01*
X31988095Y-51795542D01*
X32849827Y-52657273D01*
X32860828Y-52664164D01*
X32864727Y-52664587D01*
X32892999Y-52659681D01*
X32921269Y-52664586D01*
X32925171Y-52664163D01*
X32936171Y-52657273D01*
X33797903Y-51795542D01*
X33804567Y-51784000D01*
X33804566Y-51783999D01*
X34521431Y-51783999D01*
X34528095Y-51795542D01*
X35389827Y-52657273D01*
X35399295Y-52663204D01*
X35407115Y-52655229D01*
X35515400Y-52478527D01*
X35519805Y-52469880D01*
X35607395Y-52258418D01*
X35610397Y-52249181D01*
X35663829Y-52026621D01*
X35665347Y-52017036D01*
X35683306Y-51788854D01*
X35683306Y-51784000D01*
X40769811Y-51784000D01*
X40770193Y-51788854D01*
X40772919Y-51823498D01*
X40788539Y-52021966D01*
X40789674Y-52026695D01*
X40789675Y-52026699D01*
X40843125Y-52249336D01*
X40843127Y-52249344D01*
X40844263Y-52254073D01*
X40935611Y-52474605D01*
X40938158Y-52478762D01*
X40938159Y-52478763D01*
X41057785Y-52673977D01*
X41057790Y-52673984D01*
X41060332Y-52678132D01*
X41063492Y-52681831D01*
X41063495Y-52681836D01*
X41195164Y-52836000D01*
X41215357Y-52859643D01*
X41219057Y-52862803D01*
X41392370Y-53010827D01*
X41396868Y-53014668D01*
X41401018Y-53017211D01*
X41401022Y-53017214D01*
X41489611Y-53071501D01*
X41600395Y-53139389D01*
X41820927Y-53230737D01*
X42053034Y-53286461D01*
X42291000Y-53305189D01*
X42528966Y-53286461D01*
X42761073Y-53230737D01*
X42981605Y-53139389D01*
X43185132Y-53014668D01*
X43366643Y-52859643D01*
X43466712Y-52742476D01*
X43509084Y-52710402D01*
X43560998Y-52699011D01*
X43612912Y-52710401D01*
X43655289Y-52742479D01*
X43735164Y-52836000D01*
X43755357Y-52859643D01*
X43759057Y-52862803D01*
X43932370Y-53010827D01*
X43936868Y-53014668D01*
X43958811Y-53028115D01*
X43971290Y-53035762D01*
X44014690Y-53080900D01*
X44030500Y-53141489D01*
X44030500Y-62367812D01*
X44030500Y-62548200D01*
X44032049Y-62554989D01*
X44032050Y-62554994D01*
X44039017Y-62585524D01*
X44041345Y-62599224D01*
X44044852Y-62630342D01*
X44045632Y-62637261D01*
X44047929Y-62643827D01*
X44047930Y-62643829D01*
X44058272Y-62673385D01*
X44062119Y-62686741D01*
X44069088Y-62717273D01*
X44069091Y-62717282D01*
X44070640Y-62724067D01*
X44073658Y-62730335D01*
X44073661Y-62730342D01*
X44087250Y-62758560D01*
X44092568Y-62771399D01*
X44105211Y-62807528D01*
X44108912Y-62813418D01*
X44108913Y-62813420D01*
X44125572Y-62839933D01*
X44132296Y-62852099D01*
X44145677Y-62879882D01*
X44148909Y-62886593D01*
X44172771Y-62916515D01*
X44180818Y-62927856D01*
X44189975Y-62942430D01*
X44201184Y-62960268D01*
X44233174Y-62992258D01*
X48691245Y-67450329D01*
X48796910Y-67534594D01*
X48959436Y-67612863D01*
X49135303Y-67653003D01*
X49308729Y-67653003D01*
X49315691Y-67653003D01*
X49491558Y-67612863D01*
X49654083Y-67534594D01*
X49660405Y-67529552D01*
X49662368Y-67528467D01*
X49665421Y-67526549D01*
X49665528Y-67526720D01*
X49696760Y-67509459D01*
X49737716Y-67502500D01*
X54727665Y-67502500D01*
X54784486Y-67516285D01*
X54828673Y-67554574D01*
X54850403Y-67608856D01*
X54844844Y-67667060D01*
X54813232Y-67716246D01*
X54763164Y-67745150D01*
X54760954Y-67745631D01*
X54756804Y-67747178D01*
X54756800Y-67747180D01*
X54496987Y-67844085D01*
X54496976Y-67844089D01*
X54492839Y-67845633D01*
X54488961Y-67847750D01*
X54488949Y-67847756D01*
X54245579Y-67980647D01*
X54245571Y-67980651D01*
X54241685Y-67982774D01*
X54238135Y-67985431D01*
X54238131Y-67985434D01*
X54016156Y-68151602D01*
X54016149Y-68151607D01*
X54012605Y-68154261D01*
X54009474Y-68157391D01*
X54009467Y-68157398D01*
X53813398Y-68353467D01*
X53813391Y-68353474D01*
X53810261Y-68356605D01*
X53807607Y-68360149D01*
X53807602Y-68360156D01*
X53641434Y-68582131D01*
X53638774Y-68585685D01*
X53636651Y-68589571D01*
X53636647Y-68589579D01*
X53503756Y-68832949D01*
X53503750Y-68832961D01*
X53501633Y-68836839D01*
X53500089Y-68840976D01*
X53500085Y-68840987D01*
X53403176Y-69100810D01*
X53403173Y-69100818D01*
X53401631Y-69104954D01*
X53400690Y-69109276D01*
X53400690Y-69109279D01*
X53341746Y-69380238D01*
X53341744Y-69380248D01*
X53340804Y-69384572D01*
X53340488Y-69388983D01*
X53340487Y-69388994D01*
X53323162Y-69631236D01*
X53320390Y-69670000D01*
X53320706Y-69674418D01*
X53340487Y-69951005D01*
X53340488Y-69951014D01*
X53340804Y-69955428D01*
X53341744Y-69959753D01*
X53341746Y-69959761D01*
X53385780Y-70162179D01*
X53401631Y-70235046D01*
X53403175Y-70239185D01*
X53403176Y-70239189D01*
X53466885Y-70410000D01*
X53501633Y-70503161D01*
X53503753Y-70507043D01*
X53503756Y-70507050D01*
X53583288Y-70652701D01*
X53638774Y-70754315D01*
X53810261Y-70983395D01*
X54012605Y-71185739D01*
X54241685Y-71357226D01*
X54492839Y-71494367D01*
X54760954Y-71594369D01*
X55040572Y-71655196D01*
X55326000Y-71675610D01*
X55611428Y-71655196D01*
X55891046Y-71594369D01*
X56159161Y-71494367D01*
X56410315Y-71357226D01*
X56639395Y-71185739D01*
X56841739Y-70983395D01*
X57013226Y-70754315D01*
X57150367Y-70503161D01*
X57250369Y-70235046D01*
X57311196Y-69955428D01*
X57331610Y-69670000D01*
X57311196Y-69384572D01*
X57250369Y-69104954D01*
X57150367Y-68836839D01*
X57140510Y-68818788D01*
X57125377Y-68762314D01*
X57137805Y-68705181D01*
X57175031Y-68660095D01*
X57228778Y-68637078D01*
X57287098Y-68641249D01*
X57337023Y-68671680D01*
X59588902Y-70923559D01*
X59615484Y-70963074D01*
X59625211Y-71009693D01*
X59616650Y-71056541D01*
X59600271Y-71098273D01*
X59600267Y-71098283D01*
X59598580Y-71102584D01*
X59597550Y-71107093D01*
X59597549Y-71107099D01*
X59541229Y-71353850D01*
X59541227Y-71353858D01*
X59540198Y-71358370D01*
X59539851Y-71362989D01*
X59539851Y-71362995D01*
X59529891Y-71495914D01*
X59520592Y-71620000D01*
X59520939Y-71624631D01*
X59538464Y-71858500D01*
X59540198Y-71881630D01*
X59541228Y-71886143D01*
X59541229Y-71886149D01*
X59597547Y-72132891D01*
X59598580Y-72137416D01*
X59600275Y-72141734D01*
X59600276Y-72141738D01*
X59692734Y-72377318D01*
X59692737Y-72377324D01*
X59694432Y-72381643D01*
X59696750Y-72385658D01*
X59696753Y-72385664D01*
X59770973Y-72514216D01*
X59825614Y-72608857D01*
X59989195Y-72813981D01*
X60181521Y-72992433D01*
X60398296Y-73140228D01*
X60634677Y-73254063D01*
X60639105Y-73255428D01*
X60639108Y-73255430D01*
X60698442Y-73273732D01*
X60885385Y-73331396D01*
X61144818Y-73370500D01*
X61402547Y-73370500D01*
X61407182Y-73370500D01*
X61666615Y-73331396D01*
X61847517Y-73275594D01*
X61913915Y-73273732D01*
X61971748Y-73306405D01*
X62091562Y-73426219D01*
X62096696Y-73431673D01*
X62136574Y-73476686D01*
X62186080Y-73510858D01*
X62192100Y-73515288D01*
X62239446Y-73552381D01*
X62246282Y-73555457D01*
X62246288Y-73555461D01*
X62248682Y-73556538D01*
X62268236Y-73567566D01*
X62276573Y-73573321D01*
X62332799Y-73594644D01*
X62339720Y-73597510D01*
X62394572Y-73622198D01*
X62404544Y-73624025D01*
X62426159Y-73630050D01*
X62435631Y-73633643D01*
X62493334Y-73640649D01*
X62495318Y-73640890D01*
X62502725Y-73642017D01*
X62561897Y-73652861D01*
X62621936Y-73649228D01*
X62629424Y-73649003D01*
X78302834Y-73649003D01*
X78356635Y-73661282D01*
X78455436Y-73708863D01*
X78631303Y-73749003D01*
X78804729Y-73749003D01*
X78811691Y-73749003D01*
X78987558Y-73708863D01*
X79150084Y-73630594D01*
X79255749Y-73546329D01*
X81803559Y-70998518D01*
X88566000Y-70998518D01*
X88566353Y-71005114D01*
X88571573Y-71053667D01*
X88575111Y-71068641D01*
X88619547Y-71187777D01*
X88627962Y-71203189D01*
X88703498Y-71304092D01*
X88715907Y-71316501D01*
X88816810Y-71392037D01*
X88832222Y-71400452D01*
X88951358Y-71444888D01*
X88966332Y-71448426D01*
X89014885Y-71453646D01*
X89021482Y-71454000D01*
X89649674Y-71454000D01*
X89662549Y-71450549D01*
X89666000Y-71437674D01*
X90166000Y-71437674D01*
X90169450Y-71450549D01*
X90182326Y-71454000D01*
X90810518Y-71454000D01*
X90817114Y-71453646D01*
X90865667Y-71448426D01*
X90880641Y-71444888D01*
X90999777Y-71400452D01*
X91015189Y-71392037D01*
X91116092Y-71316501D01*
X91128501Y-71304092D01*
X91204037Y-71203189D01*
X91212452Y-71187777D01*
X91256888Y-71068641D01*
X91260426Y-71053667D01*
X91265646Y-71005114D01*
X91266000Y-70998518D01*
X91266000Y-70370326D01*
X91262549Y-70357450D01*
X91249674Y-70354000D01*
X90182326Y-70354000D01*
X90169450Y-70357450D01*
X90166000Y-70370326D01*
X90166000Y-71437674D01*
X89666000Y-71437674D01*
X89666000Y-70370326D01*
X89662549Y-70357450D01*
X89649674Y-70354000D01*
X88582326Y-70354000D01*
X88569450Y-70357450D01*
X88566000Y-70370326D01*
X88566000Y-70998518D01*
X81803559Y-70998518D01*
X84256318Y-68545759D01*
X84311906Y-68513665D01*
X84376094Y-68513665D01*
X84431681Y-68545759D01*
X84968184Y-69082262D01*
X85095738Y-69209816D01*
X85128151Y-69230183D01*
X85139483Y-69238224D01*
X85163968Y-69257750D01*
X85163973Y-69257753D01*
X85169414Y-69262092D01*
X85175686Y-69265112D01*
X85175687Y-69265113D01*
X85203898Y-69278699D01*
X85216069Y-69285425D01*
X85242581Y-69302084D01*
X85242583Y-69302085D01*
X85248478Y-69305789D01*
X85284613Y-69318433D01*
X85297443Y-69323748D01*
X85325662Y-69337338D01*
X85325667Y-69337340D01*
X85331939Y-69340360D01*
X85369266Y-69348879D01*
X85382613Y-69352725D01*
X85412170Y-69363068D01*
X85412175Y-69363069D01*
X85418745Y-69365368D01*
X85456778Y-69369653D01*
X85470484Y-69371981D01*
X85507806Y-69380500D01*
X85553046Y-69380500D01*
X85688194Y-69380500D01*
X86425633Y-69380500D01*
X86476069Y-69391221D01*
X86561907Y-69429439D01*
X86588197Y-69441144D01*
X86773354Y-69480500D01*
X86956143Y-69480500D01*
X86962646Y-69480500D01*
X87147803Y-69441144D01*
X87320730Y-69364151D01*
X87473871Y-69252888D01*
X87600533Y-69112216D01*
X87695179Y-68948284D01*
X87753674Y-68768256D01*
X87773460Y-68580000D01*
X87753674Y-68391744D01*
X87695179Y-68211716D01*
X87600533Y-68047784D01*
X87540082Y-67980647D01*
X87478220Y-67911942D01*
X87478219Y-67911941D01*
X87473871Y-67907112D01*
X87468613Y-67903292D01*
X87468611Y-67903290D01*
X87325988Y-67799669D01*
X87325987Y-67799668D01*
X87320730Y-67795849D01*
X87307571Y-67789990D01*
X87153745Y-67721501D01*
X87153740Y-67721499D01*
X87147803Y-67718856D01*
X87141444Y-67717504D01*
X87141440Y-67717503D01*
X86969008Y-67680852D01*
X86969005Y-67680851D01*
X86962646Y-67679500D01*
X86773354Y-67679500D01*
X86766995Y-67680851D01*
X86766991Y-67680852D01*
X86594559Y-67717503D01*
X86594552Y-67717505D01*
X86588197Y-67718856D01*
X86582262Y-67721498D01*
X86582254Y-67721501D01*
X86476069Y-67768779D01*
X86425633Y-67779500D01*
X85980940Y-67779500D01*
X85933487Y-67770061D01*
X85893259Y-67743181D01*
X85563758Y-67413680D01*
X85531664Y-67358093D01*
X85531664Y-67293905D01*
X85563755Y-67238322D01*
X88494642Y-64307434D01*
X88554427Y-64274295D01*
X88622691Y-64277873D01*
X88678687Y-64317081D01*
X88705397Y-64380005D01*
X88694703Y-64447521D01*
X88644388Y-64555422D01*
X88644384Y-64555430D01*
X88642097Y-64560337D01*
X88640698Y-64565557D01*
X88640694Y-64565569D01*
X88582337Y-64783365D01*
X88582335Y-64783371D01*
X88580937Y-64788592D01*
X88580465Y-64793977D01*
X88580465Y-64793982D01*
X88570710Y-64905483D01*
X88560341Y-65024000D01*
X88560813Y-65029395D01*
X88577903Y-65224739D01*
X88580937Y-65259408D01*
X88582336Y-65264630D01*
X88582337Y-65264634D01*
X88640694Y-65482430D01*
X88640697Y-65482438D01*
X88642097Y-65487663D01*
X88644385Y-65492570D01*
X88644386Y-65492572D01*
X88739678Y-65696927D01*
X88739681Y-65696933D01*
X88741965Y-65701830D01*
X88745064Y-65706257D01*
X88745066Y-65706259D01*
X88874399Y-65890966D01*
X88874402Y-65890970D01*
X88877505Y-65895401D01*
X89044599Y-66062495D01*
X89049032Y-66065599D01*
X89049038Y-66065604D01*
X89230158Y-66192425D01*
X89269024Y-66236743D01*
X89283035Y-66294000D01*
X89269024Y-66351257D01*
X89230160Y-66395574D01*
X89044599Y-66525505D01*
X89040775Y-66529328D01*
X89040769Y-66529334D01*
X88881334Y-66688769D01*
X88881328Y-66688775D01*
X88877505Y-66692599D01*
X88874402Y-66697029D01*
X88874399Y-66697034D01*
X88745073Y-66881731D01*
X88745068Y-66881738D01*
X88741965Y-66886171D01*
X88739677Y-66891077D01*
X88739675Y-66891081D01*
X88644386Y-67095427D01*
X88644383Y-67095432D01*
X88642097Y-67100337D01*
X88640698Y-67105557D01*
X88640694Y-67105569D01*
X88582337Y-67323365D01*
X88582335Y-67323371D01*
X88580937Y-67328592D01*
X88580465Y-67333977D01*
X88580465Y-67333982D01*
X88562649Y-67537615D01*
X88560341Y-67564000D01*
X88560813Y-67569395D01*
X88576367Y-67747180D01*
X88580937Y-67799408D01*
X88582336Y-67804630D01*
X88582337Y-67804634D01*
X88640694Y-68022430D01*
X88640697Y-68022438D01*
X88642097Y-68027663D01*
X88644385Y-68032570D01*
X88644386Y-68032572D01*
X88739678Y-68236927D01*
X88739681Y-68236933D01*
X88741965Y-68241830D01*
X88745064Y-68246257D01*
X88745066Y-68246259D01*
X88874399Y-68430966D01*
X88874402Y-68430970D01*
X88877505Y-68435401D01*
X88881335Y-68439231D01*
X88881336Y-68439232D01*
X88999818Y-68557714D01*
X89031114Y-68610460D01*
X89033303Y-68671753D01*
X89005850Y-68726597D01*
X88955471Y-68761576D01*
X88832226Y-68807544D01*
X88816810Y-68815962D01*
X88715907Y-68891498D01*
X88703498Y-68903907D01*
X88627962Y-69004810D01*
X88619547Y-69020222D01*
X88575111Y-69139358D01*
X88571573Y-69154332D01*
X88566353Y-69202885D01*
X88566000Y-69209482D01*
X88566000Y-69837674D01*
X88569450Y-69850549D01*
X88582326Y-69854000D01*
X91249674Y-69854000D01*
X91262549Y-69850549D01*
X91266000Y-69837674D01*
X91266000Y-69209482D01*
X91265646Y-69202885D01*
X91260426Y-69154332D01*
X91256888Y-69139358D01*
X91212452Y-69020222D01*
X91204037Y-69004810D01*
X91128501Y-68903907D01*
X91116092Y-68891498D01*
X91015189Y-68815962D01*
X90999779Y-68807548D01*
X90876528Y-68761577D01*
X90826149Y-68726597D01*
X90798696Y-68671753D01*
X90800885Y-68610460D01*
X90832178Y-68557717D01*
X90954495Y-68435401D01*
X91090035Y-68241830D01*
X91189903Y-68027663D01*
X91251063Y-67799408D01*
X91271659Y-67564000D01*
X91251063Y-67328592D01*
X91189903Y-67100337D01*
X91090035Y-66886171D01*
X90954495Y-66692599D01*
X90787401Y-66525505D01*
X90782970Y-66522402D01*
X90782966Y-66522399D01*
X90601841Y-66395574D01*
X90562976Y-66351256D01*
X90548965Y-66293999D01*
X90562976Y-66236742D01*
X90601839Y-66192426D01*
X90787401Y-66062495D01*
X90954495Y-65895401D01*
X91090035Y-65701830D01*
X91189903Y-65487663D01*
X91251063Y-65259408D01*
X91271659Y-65024000D01*
X91251063Y-64788592D01*
X91189903Y-64560337D01*
X91090035Y-64346171D01*
X90954495Y-64152599D01*
X90787401Y-63985505D01*
X90782968Y-63982401D01*
X90782961Y-63982395D01*
X90601842Y-63855575D01*
X90562976Y-63811257D01*
X90548965Y-63754000D01*
X90562976Y-63696743D01*
X90601842Y-63652425D01*
X90782961Y-63525604D01*
X90782961Y-63525603D01*
X90787401Y-63522495D01*
X90954495Y-63355401D01*
X91090035Y-63161830D01*
X91189903Y-62947663D01*
X91251063Y-62719408D01*
X91271659Y-62484000D01*
X91251063Y-62248592D01*
X91189903Y-62020337D01*
X91090035Y-61806171D01*
X90954495Y-61612599D01*
X90787401Y-61445505D01*
X90782970Y-61442402D01*
X90782966Y-61442399D01*
X90598259Y-61313066D01*
X90598257Y-61313064D01*
X90593830Y-61309965D01*
X90588933Y-61307681D01*
X90588927Y-61307678D01*
X90384572Y-61212386D01*
X90384570Y-61212385D01*
X90379663Y-61210097D01*
X90374438Y-61208697D01*
X90374430Y-61208694D01*
X90156634Y-61150337D01*
X90156630Y-61150336D01*
X90151408Y-61148937D01*
X90146020Y-61148465D01*
X90146017Y-61148465D01*
X89921395Y-61128813D01*
X89916000Y-61128341D01*
X89910605Y-61128813D01*
X89685982Y-61148465D01*
X89685977Y-61148465D01*
X89680592Y-61148937D01*
X89675371Y-61150335D01*
X89675365Y-61150337D01*
X89457569Y-61208694D01*
X89457557Y-61208698D01*
X89452337Y-61210097D01*
X89447432Y-61212383D01*
X89447427Y-61212386D01*
X89243081Y-61307675D01*
X89243077Y-61307677D01*
X89238171Y-61309965D01*
X89233738Y-61313068D01*
X89233731Y-61313073D01*
X89049034Y-61442399D01*
X89049029Y-61442402D01*
X89044599Y-61445505D01*
X89040775Y-61449328D01*
X89040769Y-61449334D01*
X88881336Y-61608767D01*
X88881330Y-61608773D01*
X88877505Y-61612599D01*
X88874403Y-61617029D01*
X88874393Y-61617041D01*
X88772038Y-61763218D01*
X88758145Y-61779775D01*
X88196738Y-62341182D01*
X88139894Y-62373605D01*
X88074461Y-62372577D01*
X88018664Y-62338384D01*
X87988043Y-62280549D01*
X87991127Y-62215181D01*
X88007674Y-62164256D01*
X88027460Y-61976000D01*
X88007674Y-61787744D01*
X87949179Y-61607716D01*
X87889112Y-61503678D01*
X87872500Y-61441679D01*
X87872500Y-58192321D01*
X87889113Y-58130321D01*
X87949179Y-58026284D01*
X88007674Y-57846256D01*
X88027460Y-57658000D01*
X88007674Y-57469744D01*
X87949179Y-57289716D01*
X87854533Y-57125784D01*
X87764527Y-57025823D01*
X87732220Y-56989942D01*
X87732219Y-56989941D01*
X87727871Y-56985112D01*
X87722613Y-56981292D01*
X87722611Y-56981290D01*
X87579988Y-56877669D01*
X87579987Y-56877668D01*
X87574730Y-56873849D01*
X87568792Y-56871205D01*
X87407745Y-56799501D01*
X87407740Y-56799499D01*
X87401803Y-56796856D01*
X87395444Y-56795504D01*
X87395440Y-56795503D01*
X87223008Y-56758852D01*
X87223005Y-56758851D01*
X87216646Y-56757500D01*
X87027354Y-56757500D01*
X87020995Y-56758851D01*
X87020991Y-56758852D01*
X86848559Y-56795503D01*
X86848552Y-56795505D01*
X86842197Y-56796856D01*
X86836262Y-56799498D01*
X86836254Y-56799501D01*
X86675207Y-56871205D01*
X86675202Y-56871207D01*
X86669270Y-56873849D01*
X86664016Y-56877665D01*
X86664011Y-56877669D01*
X86521388Y-56981290D01*
X86521381Y-56981295D01*
X86516129Y-56985112D01*
X86511784Y-56989937D01*
X86511779Y-56989942D01*
X86393813Y-57120956D01*
X86393808Y-57120962D01*
X86389467Y-57125784D01*
X86386222Y-57131404D01*
X86386218Y-57131410D01*
X86298069Y-57284089D01*
X86298066Y-57284094D01*
X86294821Y-57289716D01*
X86292815Y-57295888D01*
X86292813Y-57295894D01*
X86238333Y-57463564D01*
X86238331Y-57463573D01*
X86236326Y-57469744D01*
X86235648Y-57476194D01*
X86235646Y-57476204D01*
X86219085Y-57633784D01*
X86216540Y-57658000D01*
X86217596Y-57668051D01*
X86235646Y-57839795D01*
X86235647Y-57839803D01*
X86236326Y-57846256D01*
X86238331Y-57852428D01*
X86238333Y-57852435D01*
X86277041Y-57971564D01*
X86294821Y-58026284D01*
X86340396Y-58105223D01*
X86354887Y-58130321D01*
X86371500Y-58192321D01*
X86371500Y-61441679D01*
X86354887Y-61503679D01*
X86298069Y-61602089D01*
X86298066Y-61602094D01*
X86294821Y-61607716D01*
X86292815Y-61613888D01*
X86292813Y-61613894D01*
X86281791Y-61647818D01*
X86256010Y-61692472D01*
X86214295Y-61722780D01*
X86163860Y-61733500D01*
X82581336Y-61733500D01*
X82543018Y-61727431D01*
X82508454Y-61709820D01*
X82494730Y-61699849D01*
X82488792Y-61697205D01*
X82327745Y-61625501D01*
X82327740Y-61625499D01*
X82321803Y-61622856D01*
X82315444Y-61621504D01*
X82315440Y-61621503D01*
X82143008Y-61584852D01*
X82143005Y-61584851D01*
X82136646Y-61583500D01*
X81947354Y-61583500D01*
X81940995Y-61584851D01*
X81940991Y-61584852D01*
X81768559Y-61621503D01*
X81768552Y-61621505D01*
X81762197Y-61622856D01*
X81756262Y-61625498D01*
X81756254Y-61625501D01*
X81595207Y-61697205D01*
X81595202Y-61697207D01*
X81589270Y-61699849D01*
X81584016Y-61703665D01*
X81584011Y-61703669D01*
X81441388Y-61807290D01*
X81441381Y-61807295D01*
X81436129Y-61811112D01*
X81431784Y-61815937D01*
X81431779Y-61815942D01*
X81313813Y-61946956D01*
X81313808Y-61946962D01*
X81309467Y-61951784D01*
X81306222Y-61957404D01*
X81306218Y-61957410D01*
X81218069Y-62110089D01*
X81218066Y-62110094D01*
X81214821Y-62115716D01*
X81212815Y-62121888D01*
X81212813Y-62121894D01*
X81158333Y-62289564D01*
X81158331Y-62289573D01*
X81156326Y-62295744D01*
X81155648Y-62302194D01*
X81155646Y-62302204D01*
X81137962Y-62470464D01*
X81136540Y-62484000D01*
X81137219Y-62490460D01*
X81155646Y-62665795D01*
X81155647Y-62665803D01*
X81156326Y-62672256D01*
X81158331Y-62678428D01*
X81158333Y-62678435D01*
X81210808Y-62839933D01*
X81214821Y-62852284D01*
X81218068Y-62857908D01*
X81218069Y-62857910D01*
X81304134Y-63006980D01*
X81309467Y-63016216D01*
X81313811Y-63021041D01*
X81313813Y-63021043D01*
X81418028Y-63136785D01*
X81436129Y-63156888D01*
X81441387Y-63160708D01*
X81441388Y-63160709D01*
X81444946Y-63163294D01*
X81589270Y-63268151D01*
X81762197Y-63345144D01*
X81947354Y-63384500D01*
X82130143Y-63384500D01*
X82136646Y-63384500D01*
X82321803Y-63345144D01*
X82494730Y-63268151D01*
X82508454Y-63258179D01*
X82543018Y-63240569D01*
X82581336Y-63234500D01*
X86550293Y-63234500D01*
X86568264Y-63235809D01*
X86572160Y-63236379D01*
X86592023Y-63239289D01*
X86641368Y-63234972D01*
X86652176Y-63234500D01*
X86654100Y-63234500D01*
X86657709Y-63234500D01*
X86688550Y-63230894D01*
X86692031Y-63230539D01*
X86766797Y-63223999D01*
X86773653Y-63221726D01*
X86777043Y-63221027D01*
X86777375Y-63220973D01*
X86777728Y-63220873D01*
X86781071Y-63220080D01*
X86788255Y-63219241D01*
X86858760Y-63193579D01*
X86862118Y-63192412D01*
X86933334Y-63168814D01*
X86939486Y-63165018D01*
X86942607Y-63163564D01*
X86942929Y-63163430D01*
X86943238Y-63163258D01*
X86946315Y-63161712D01*
X86953117Y-63159237D01*
X87015837Y-63117984D01*
X87018732Y-63116140D01*
X87082656Y-63076712D01*
X87087763Y-63071603D01*
X87090476Y-63069459D01*
X87090758Y-63069254D01*
X87091029Y-63069007D01*
X87093658Y-63066800D01*
X87099696Y-63062830D01*
X87151170Y-63008269D01*
X87153615Y-63005751D01*
X87274772Y-62884593D01*
X87303282Y-62863305D01*
X87336670Y-62850988D01*
X87372012Y-62843476D01*
X87434874Y-62846440D01*
X87488184Y-62879882D01*
X87518213Y-62935188D01*
X87517224Y-62998112D01*
X87485473Y-63052447D01*
X83814672Y-66723248D01*
X83804307Y-66732511D01*
X83779823Y-66752037D01*
X83779812Y-66752047D01*
X83774380Y-66756380D01*
X83770047Y-66761812D01*
X83770037Y-66761823D01*
X83750511Y-66786307D01*
X83741248Y-66796672D01*
X80420367Y-70117553D01*
X80364367Y-70149757D01*
X80299768Y-70149423D01*
X80244103Y-70116643D01*
X80212480Y-70060312D01*
X80188664Y-69966267D01*
X80164063Y-69869119D01*
X80064173Y-69641393D01*
X80060254Y-69635395D01*
X79969217Y-69496052D01*
X79928164Y-69433215D01*
X79907703Y-69410988D01*
X79763215Y-69254032D01*
X79763211Y-69254029D01*
X79759744Y-69250262D01*
X79617255Y-69139358D01*
X79567559Y-69100678D01*
X79567557Y-69100676D01*
X79563509Y-69097526D01*
X79558997Y-69095084D01*
X79349316Y-68981610D01*
X79349310Y-68981607D01*
X79344810Y-68979172D01*
X79339969Y-68977510D01*
X79339962Y-68977507D01*
X79114465Y-68900094D01*
X79114461Y-68900093D01*
X79109614Y-68898429D01*
X79100768Y-68896952D01*
X78869398Y-68858344D01*
X78869387Y-68858343D01*
X78864335Y-68857500D01*
X78615665Y-68857500D01*
X78610613Y-68858343D01*
X78610601Y-68858344D01*
X78375443Y-68897585D01*
X78375441Y-68897585D01*
X78370386Y-68898429D01*
X78365541Y-68900092D01*
X78365534Y-68900094D01*
X78140037Y-68977507D01*
X78140026Y-68977511D01*
X78135190Y-68979172D01*
X78130693Y-68981605D01*
X78130683Y-68981610D01*
X77921002Y-69095084D01*
X77920995Y-69095088D01*
X77916491Y-69097526D01*
X77912448Y-69100672D01*
X77912440Y-69100678D01*
X77767463Y-69213519D01*
X77720256Y-69250262D01*
X77716793Y-69254023D01*
X77716784Y-69254032D01*
X77555311Y-69429439D01*
X77555305Y-69429446D01*
X77551836Y-69433215D01*
X77549031Y-69437506D01*
X77549028Y-69437512D01*
X77418631Y-69637099D01*
X77418624Y-69637111D01*
X77415827Y-69641393D01*
X77413772Y-69646077D01*
X77413766Y-69646089D01*
X77319646Y-69860663D01*
X77315937Y-69869119D01*
X77314679Y-69874084D01*
X77314678Y-69874089D01*
X77256151Y-70105204D01*
X77256149Y-70105213D01*
X77254892Y-70110179D01*
X77254468Y-70115288D01*
X77254467Y-70115298D01*
X77236606Y-70330854D01*
X77234357Y-70358000D01*
X77234781Y-70363117D01*
X77254467Y-70600701D01*
X77254468Y-70600709D01*
X77254892Y-70605821D01*
X77256149Y-70610788D01*
X77256151Y-70610795D01*
X77304210Y-70800573D01*
X77315937Y-70846881D01*
X77317997Y-70851577D01*
X77413766Y-71069910D01*
X77413769Y-71069916D01*
X77415827Y-71074607D01*
X77418627Y-71078893D01*
X77418631Y-71078900D01*
X77508188Y-71215977D01*
X77551836Y-71282785D01*
X77555310Y-71286559D01*
X77555311Y-71286560D01*
X77716784Y-71461967D01*
X77716787Y-71461970D01*
X77720256Y-71465738D01*
X77916491Y-71618474D01*
X78135190Y-71736828D01*
X78370386Y-71817571D01*
X78432693Y-71827968D01*
X78493396Y-71856486D01*
X78530371Y-71912445D01*
X78532797Y-71979472D01*
X78499964Y-72037957D01*
X78326238Y-72211684D01*
X78286010Y-72238564D01*
X78238557Y-72248003D01*
X63083670Y-72248003D01*
X63029868Y-72235723D01*
X62986723Y-72201316D01*
X62962779Y-72151595D01*
X62962779Y-72096410D01*
X62989470Y-71979472D01*
X63011802Y-71881630D01*
X63031408Y-71620000D01*
X63011802Y-71358370D01*
X62953420Y-71102584D01*
X62857568Y-70858357D01*
X62726386Y-70631143D01*
X62562805Y-70426019D01*
X62370479Y-70247567D01*
X62153704Y-70099772D01*
X62119500Y-70083300D01*
X61921502Y-69987949D01*
X61921496Y-69987946D01*
X61917323Y-69985937D01*
X61912901Y-69984573D01*
X61912891Y-69984569D01*
X61671048Y-69909971D01*
X61671043Y-69909969D01*
X61666615Y-69908604D01*
X61662035Y-69907913D01*
X61662028Y-69907912D01*
X61411765Y-69870190D01*
X61411754Y-69870189D01*
X61407182Y-69869500D01*
X61144818Y-69869500D01*
X61140246Y-69870189D01*
X61140234Y-69870190D01*
X60889971Y-69907912D01*
X60889961Y-69907914D01*
X60885385Y-69908604D01*
X60880958Y-69909969D01*
X60880947Y-69909972D01*
X60704481Y-69964404D01*
X60638083Y-69966267D01*
X60580251Y-69933594D01*
X56970939Y-66324282D01*
X56965822Y-66318847D01*
X56925929Y-66273817D01*
X56876410Y-66239636D01*
X56870404Y-66235216D01*
X56828961Y-66202747D01*
X56828958Y-66202745D01*
X56823057Y-66198122D01*
X56816219Y-66195044D01*
X56816210Y-66195039D01*
X56813810Y-66193959D01*
X56794268Y-66182937D01*
X56792107Y-66181445D01*
X56792102Y-66181442D01*
X56785930Y-66177182D01*
X56729702Y-66155857D01*
X56722784Y-66152991D01*
X56674772Y-66131383D01*
X56674769Y-66131382D01*
X56667932Y-66128305D01*
X56660560Y-66126954D01*
X56660551Y-66126951D01*
X56657952Y-66126475D01*
X56636340Y-66120450D01*
X56633891Y-66119521D01*
X56633885Y-66119519D01*
X56626872Y-66116860D01*
X56619430Y-66115956D01*
X56619425Y-66115955D01*
X56567171Y-66109610D01*
X56559771Y-66108483D01*
X56507987Y-66098994D01*
X56507982Y-66098993D01*
X56500606Y-66097642D01*
X56493126Y-66098094D01*
X56493118Y-66098094D01*
X56440567Y-66101274D01*
X56433079Y-66101500D01*
X49657934Y-66101500D01*
X49610481Y-66092061D01*
X49570253Y-66065181D01*
X48347650Y-64842578D01*
X48986500Y-64842578D01*
X48986501Y-64845872D01*
X48986853Y-64849150D01*
X48986854Y-64849161D01*
X48992079Y-64897768D01*
X48992080Y-64897773D01*
X48992909Y-64905483D01*
X48995619Y-64912749D01*
X48995620Y-64912753D01*
X49026005Y-64994217D01*
X49043204Y-65040331D01*
X49129454Y-65155546D01*
X49244669Y-65241796D01*
X49379517Y-65292091D01*
X49439127Y-65298500D01*
X51134872Y-65298499D01*
X51194483Y-65292091D01*
X51329331Y-65241796D01*
X51444546Y-65155546D01*
X51530796Y-65040331D01*
X51581091Y-64905483D01*
X51584862Y-64870400D01*
X51605240Y-64814483D01*
X51649329Y-64774499D01*
X51706970Y-64759665D01*
X51764884Y-64773398D01*
X51809725Y-64812535D01*
X51826953Y-64837139D01*
X51987861Y-64998047D01*
X52174266Y-65128568D01*
X52380504Y-65224739D01*
X52385734Y-65226140D01*
X52385736Y-65226141D01*
X52509891Y-65259408D01*
X52600308Y-65283635D01*
X52827000Y-65303468D01*
X53053692Y-65283635D01*
X53273496Y-65224739D01*
X53479734Y-65128568D01*
X53666139Y-64998047D01*
X53827047Y-64837139D01*
X53957568Y-64650734D01*
X54053739Y-64444496D01*
X54112635Y-64224692D01*
X54132468Y-63998000D01*
X54112635Y-63771308D01*
X54106614Y-63748838D01*
X54055141Y-63556736D01*
X54055140Y-63556734D01*
X54053739Y-63551504D01*
X53957568Y-63345266D01*
X53827047Y-63158861D01*
X53666139Y-62997953D01*
X53586843Y-62942430D01*
X53484173Y-62870540D01*
X53484171Y-62870539D01*
X53479734Y-62867432D01*
X53273496Y-62771261D01*
X53268271Y-62769861D01*
X53268263Y-62769858D01*
X53058916Y-62713764D01*
X53058907Y-62713762D01*
X53053692Y-62712365D01*
X53048304Y-62711893D01*
X53048301Y-62711893D01*
X52832395Y-62693004D01*
X52827000Y-62692532D01*
X52821605Y-62693004D01*
X52605698Y-62711893D01*
X52605693Y-62711893D01*
X52600308Y-62712365D01*
X52595094Y-62713762D01*
X52595083Y-62713764D01*
X52385736Y-62769858D01*
X52385724Y-62769862D01*
X52380504Y-62771261D01*
X52375599Y-62773547D01*
X52375594Y-62773550D01*
X52179176Y-62865142D01*
X52179172Y-62865144D01*
X52174266Y-62867432D01*
X52169833Y-62870535D01*
X52169826Y-62870540D01*
X51992296Y-62994847D01*
X51992291Y-62994850D01*
X51987861Y-62997953D01*
X51984037Y-63001776D01*
X51984031Y-63001782D01*
X51830782Y-63155031D01*
X51830776Y-63155037D01*
X51826953Y-63158861D01*
X51823849Y-63163293D01*
X51823849Y-63163294D01*
X51809725Y-63183465D01*
X51764882Y-63222602D01*
X51706968Y-63236334D01*
X51649327Y-63221499D01*
X51605239Y-63181514D01*
X51584861Y-63125591D01*
X51584047Y-63118022D01*
X51581091Y-63090517D01*
X51530796Y-62955669D01*
X51444546Y-62840454D01*
X51329331Y-62754204D01*
X51250050Y-62724634D01*
X51201752Y-62706620D01*
X51201750Y-62706619D01*
X51194483Y-62703909D01*
X51186770Y-62703079D01*
X51186767Y-62703079D01*
X51138180Y-62697855D01*
X51138169Y-62697854D01*
X51134873Y-62697500D01*
X51131550Y-62697500D01*
X49442439Y-62697500D01*
X49442420Y-62697500D01*
X49439128Y-62697501D01*
X49435850Y-62697853D01*
X49435838Y-62697854D01*
X49387231Y-62703079D01*
X49387225Y-62703080D01*
X49379517Y-62703909D01*
X49372252Y-62706618D01*
X49372246Y-62706620D01*
X49252980Y-62751104D01*
X49252978Y-62751104D01*
X49244669Y-62754204D01*
X49237572Y-62759516D01*
X49237568Y-62759519D01*
X49136550Y-62835141D01*
X49136546Y-62835144D01*
X49129454Y-62840454D01*
X49124144Y-62847546D01*
X49124141Y-62847550D01*
X49048519Y-62948568D01*
X49048516Y-62948572D01*
X49043204Y-62955669D01*
X49040104Y-62963978D01*
X49040104Y-62963980D01*
X48995620Y-63083247D01*
X48995619Y-63083250D01*
X48992909Y-63090517D01*
X48992079Y-63098227D01*
X48992079Y-63098232D01*
X48986855Y-63146819D01*
X48986854Y-63146831D01*
X48986500Y-63150127D01*
X48986500Y-63153448D01*
X48986500Y-63153449D01*
X48986500Y-64842560D01*
X48986500Y-64842578D01*
X48347650Y-64842578D01*
X45667819Y-62162747D01*
X45640939Y-62122519D01*
X45631500Y-62075066D01*
X45631500Y-56378000D01*
X48981532Y-56378000D01*
X49001365Y-56604692D01*
X49002762Y-56609907D01*
X49002764Y-56609916D01*
X49058858Y-56819263D01*
X49058861Y-56819271D01*
X49060261Y-56824496D01*
X49156432Y-57030734D01*
X49159539Y-57035171D01*
X49159540Y-57035173D01*
X49222986Y-57125784D01*
X49286953Y-57217139D01*
X49447861Y-57378047D01*
X49634266Y-57508568D01*
X49840504Y-57604739D01*
X49845734Y-57606140D01*
X49845736Y-57606141D01*
X50039278Y-57658000D01*
X50060308Y-57663635D01*
X50287000Y-57683468D01*
X50513692Y-57663635D01*
X50733496Y-57604739D01*
X50939734Y-57508568D01*
X51126139Y-57378047D01*
X51287047Y-57217139D01*
X51417568Y-57030734D01*
X51444618Y-56972724D01*
X51490375Y-56920549D01*
X51557000Y-56901130D01*
X51623625Y-56920549D01*
X51669381Y-56972724D01*
X51696432Y-57030734D01*
X51699539Y-57035171D01*
X51699540Y-57035173D01*
X51762986Y-57125784D01*
X51826953Y-57217139D01*
X51987861Y-57378047D01*
X52174266Y-57508568D01*
X52380504Y-57604739D01*
X52385734Y-57606140D01*
X52385736Y-57606141D01*
X52579278Y-57658000D01*
X52600308Y-57663635D01*
X52827000Y-57683468D01*
X53053692Y-57663635D01*
X53053776Y-57664598D01*
X53106573Y-57668051D01*
X53156978Y-57698635D01*
X59207181Y-63748838D01*
X59234061Y-63789066D01*
X59243500Y-63836519D01*
X59243500Y-63900608D01*
X59235251Y-63945080D01*
X59218296Y-63972720D01*
X59219637Y-63973694D01*
X59215812Y-63978957D01*
X59211467Y-63983784D01*
X59208220Y-63989407D01*
X59208217Y-63989412D01*
X59120069Y-64142089D01*
X59120066Y-64142094D01*
X59116821Y-64147716D01*
X59114815Y-64153888D01*
X59114813Y-64153894D01*
X59060333Y-64321564D01*
X59060331Y-64321573D01*
X59058326Y-64327744D01*
X59057648Y-64334194D01*
X59057646Y-64334204D01*
X59046605Y-64439263D01*
X59038540Y-64516000D01*
X59039219Y-64522460D01*
X59057646Y-64697795D01*
X59057647Y-64697803D01*
X59058326Y-64704256D01*
X59060331Y-64710428D01*
X59060333Y-64710435D01*
X59114813Y-64878105D01*
X59116821Y-64884284D01*
X59120068Y-64889908D01*
X59120069Y-64889910D01*
X59206914Y-65040331D01*
X59211467Y-65048216D01*
X59215811Y-65053041D01*
X59215813Y-65053043D01*
X59333779Y-65184057D01*
X59338129Y-65188888D01*
X59491270Y-65300151D01*
X59664197Y-65377144D01*
X59849354Y-65416500D01*
X60032143Y-65416500D01*
X60038646Y-65416500D01*
X60223803Y-65377144D01*
X60396730Y-65300151D01*
X60549871Y-65188888D01*
X60676533Y-65048216D01*
X60771179Y-64884284D01*
X60829674Y-64704256D01*
X60849460Y-64516000D01*
X60829674Y-64327744D01*
X60771179Y-64147716D01*
X60676533Y-63983784D01*
X60672185Y-63978955D01*
X60668363Y-63973694D01*
X60669703Y-63972720D01*
X60652749Y-63945080D01*
X60644500Y-63900608D01*
X60644500Y-63519921D01*
X60644726Y-63512433D01*
X60647905Y-63459881D01*
X60648358Y-63452394D01*
X60637514Y-63393221D01*
X60636387Y-63385815D01*
X60632694Y-63355401D01*
X60629140Y-63326128D01*
X60625547Y-63316656D01*
X60619522Y-63295041D01*
X60617695Y-63285069D01*
X60593007Y-63230217D01*
X60590141Y-63223296D01*
X60589878Y-63222602D01*
X60568818Y-63167070D01*
X60563063Y-63158733D01*
X60552035Y-63139179D01*
X60550958Y-63136785D01*
X60550954Y-63136779D01*
X60547878Y-63129943D01*
X60510785Y-63082597D01*
X60506355Y-63076577D01*
X60472183Y-63027071D01*
X60427170Y-62987193D01*
X60421716Y-62982059D01*
X54147635Y-56707978D01*
X54117051Y-56657573D01*
X54113598Y-56604776D01*
X54112635Y-56604692D01*
X54131996Y-56383395D01*
X54132468Y-56378000D01*
X54112635Y-56151308D01*
X54053739Y-55931504D01*
X53957568Y-55725266D01*
X53827047Y-55538861D01*
X53666139Y-55377953D01*
X53492685Y-55256500D01*
X53484173Y-55250540D01*
X53484171Y-55250539D01*
X53479734Y-55247432D01*
X53273496Y-55151261D01*
X53268271Y-55149861D01*
X53268263Y-55149858D01*
X53058916Y-55093764D01*
X53058907Y-55093762D01*
X53053692Y-55092365D01*
X53048304Y-55091893D01*
X53048301Y-55091893D01*
X52832395Y-55073004D01*
X52827000Y-55072532D01*
X52821605Y-55073004D01*
X52605698Y-55091893D01*
X52605693Y-55091893D01*
X52600308Y-55092365D01*
X52595094Y-55093762D01*
X52595083Y-55093764D01*
X52385736Y-55149858D01*
X52385724Y-55149862D01*
X52380504Y-55151261D01*
X52375599Y-55153547D01*
X52375594Y-55153550D01*
X52179176Y-55245142D01*
X52179172Y-55245144D01*
X52174266Y-55247432D01*
X52169833Y-55250535D01*
X52169826Y-55250540D01*
X51992296Y-55374847D01*
X51992291Y-55374850D01*
X51987861Y-55377953D01*
X51984037Y-55381776D01*
X51984031Y-55381782D01*
X51830782Y-55535031D01*
X51830776Y-55535037D01*
X51826953Y-55538861D01*
X51823850Y-55543291D01*
X51823847Y-55543296D01*
X51699540Y-55720826D01*
X51699535Y-55720833D01*
X51696432Y-55725266D01*
X51694148Y-55730163D01*
X51694141Y-55730176D01*
X51669382Y-55783274D01*
X51623625Y-55835450D01*
X51557000Y-55854869D01*
X51490375Y-55835450D01*
X51444618Y-55783274D01*
X51419858Y-55730176D01*
X51419855Y-55730172D01*
X51417568Y-55725266D01*
X51287047Y-55538861D01*
X51126139Y-55377953D01*
X50952685Y-55256500D01*
X50944173Y-55250540D01*
X50944171Y-55250539D01*
X50939734Y-55247432D01*
X50733496Y-55151261D01*
X50728271Y-55149861D01*
X50728263Y-55149858D01*
X50518916Y-55093764D01*
X50518907Y-55093762D01*
X50513692Y-55092365D01*
X50508304Y-55091893D01*
X50508301Y-55091893D01*
X50292395Y-55073004D01*
X50287000Y-55072532D01*
X50281605Y-55073004D01*
X50065698Y-55091893D01*
X50065693Y-55091893D01*
X50060308Y-55092365D01*
X50055094Y-55093762D01*
X50055083Y-55093764D01*
X49845736Y-55149858D01*
X49845724Y-55149862D01*
X49840504Y-55151261D01*
X49835599Y-55153547D01*
X49835594Y-55153550D01*
X49639176Y-55245142D01*
X49639172Y-55245144D01*
X49634266Y-55247432D01*
X49629833Y-55250535D01*
X49629826Y-55250540D01*
X49452296Y-55374847D01*
X49452291Y-55374850D01*
X49447861Y-55377953D01*
X49444037Y-55381776D01*
X49444031Y-55381782D01*
X49290782Y-55535031D01*
X49290776Y-55535037D01*
X49286953Y-55538861D01*
X49283850Y-55543291D01*
X49283847Y-55543296D01*
X49159540Y-55720826D01*
X49159535Y-55720833D01*
X49156432Y-55725266D01*
X49154144Y-55730172D01*
X49154142Y-55730176D01*
X49062550Y-55926594D01*
X49062547Y-55926599D01*
X49060261Y-55931504D01*
X49058862Y-55936724D01*
X49058858Y-55936736D01*
X49002764Y-56146083D01*
X49002762Y-56146094D01*
X49001365Y-56151308D01*
X48981532Y-56378000D01*
X45631500Y-56378000D01*
X45631500Y-53141489D01*
X45647310Y-53080900D01*
X45690710Y-53035762D01*
X45693560Y-53034014D01*
X45725132Y-53014668D01*
X45906643Y-52859643D01*
X46061668Y-52678132D01*
X46186389Y-52474605D01*
X46277737Y-52254073D01*
X46333461Y-52021966D01*
X46352189Y-51784000D01*
X46333461Y-51546034D01*
X46277737Y-51313927D01*
X46186389Y-51093395D01*
X46128765Y-50999361D01*
X46064214Y-50894022D01*
X46064211Y-50894018D01*
X46061668Y-50889868D01*
X45996989Y-50814139D01*
X45909803Y-50712057D01*
X45906643Y-50708357D01*
X45839395Y-50650922D01*
X45728836Y-50556495D01*
X45728831Y-50556492D01*
X45725132Y-50553332D01*
X45720984Y-50550790D01*
X45720977Y-50550785D01*
X45525763Y-50431159D01*
X45525762Y-50431158D01*
X45521605Y-50428611D01*
X45301073Y-50337263D01*
X45296344Y-50336127D01*
X45296336Y-50336125D01*
X45073699Y-50282675D01*
X45073695Y-50282674D01*
X45068966Y-50281539D01*
X45064115Y-50281157D01*
X45064114Y-50281157D01*
X44835854Y-50263193D01*
X44831000Y-50262811D01*
X44826146Y-50263193D01*
X44597885Y-50281157D01*
X44597882Y-50281157D01*
X44593034Y-50281539D01*
X44588306Y-50282673D01*
X44588300Y-50282675D01*
X44365663Y-50336125D01*
X44365651Y-50336128D01*
X44360927Y-50337263D01*
X44356430Y-50339125D01*
X44356426Y-50339127D01*
X44144899Y-50426745D01*
X44144895Y-50426746D01*
X44140395Y-50428611D01*
X44136242Y-50431155D01*
X44136236Y-50431159D01*
X43941022Y-50550785D01*
X43941009Y-50550794D01*
X43936868Y-50553332D01*
X43933173Y-50556487D01*
X43933163Y-50556495D01*
X43759057Y-50705196D01*
X43759050Y-50705202D01*
X43755357Y-50708357D01*
X43752202Y-50712050D01*
X43752196Y-50712057D01*
X43655290Y-50825520D01*
X43612914Y-50857598D01*
X43561000Y-50868988D01*
X43509086Y-50857598D01*
X43466710Y-50825520D01*
X43369803Y-50712057D01*
X43366643Y-50708357D01*
X43299395Y-50650922D01*
X43188836Y-50556495D01*
X43188831Y-50556492D01*
X43185132Y-50553332D01*
X43180984Y-50550790D01*
X43180977Y-50550785D01*
X42985763Y-50431159D01*
X42985762Y-50431158D01*
X42981605Y-50428611D01*
X42761073Y-50337263D01*
X42756344Y-50336127D01*
X42756336Y-50336125D01*
X42533699Y-50282675D01*
X42533695Y-50282674D01*
X42528966Y-50281539D01*
X42524115Y-50281157D01*
X42524114Y-50281157D01*
X42295854Y-50263193D01*
X42291000Y-50262811D01*
X42286146Y-50263193D01*
X42057885Y-50281157D01*
X42057882Y-50281157D01*
X42053034Y-50281539D01*
X42048306Y-50282673D01*
X42048300Y-50282675D01*
X41825663Y-50336125D01*
X41825651Y-50336128D01*
X41820927Y-50337263D01*
X41816430Y-50339125D01*
X41816426Y-50339127D01*
X41604899Y-50426745D01*
X41604895Y-50426746D01*
X41600395Y-50428611D01*
X41596242Y-50431155D01*
X41596236Y-50431159D01*
X41401022Y-50550785D01*
X41401009Y-50550794D01*
X41396868Y-50553332D01*
X41393173Y-50556487D01*
X41393163Y-50556495D01*
X41219057Y-50705196D01*
X41219050Y-50705202D01*
X41215357Y-50708357D01*
X41212202Y-50712050D01*
X41212196Y-50712057D01*
X41063495Y-50886163D01*
X41063487Y-50886173D01*
X41060332Y-50889868D01*
X41057794Y-50894009D01*
X41057785Y-50894022D01*
X40938159Y-51089236D01*
X40938155Y-51089242D01*
X40935611Y-51093395D01*
X40933746Y-51097895D01*
X40933745Y-51097899D01*
X40897874Y-51184500D01*
X40844263Y-51313927D01*
X40843128Y-51318651D01*
X40843125Y-51318663D01*
X40789675Y-51541300D01*
X40789673Y-51541306D01*
X40788539Y-51546034D01*
X40788157Y-51550882D01*
X40788157Y-51550885D01*
X40777496Y-51686353D01*
X40769811Y-51784000D01*
X35683306Y-51784000D01*
X35683306Y-51779146D01*
X35665347Y-51550963D01*
X35663829Y-51541378D01*
X35610397Y-51318818D01*
X35607395Y-51309581D01*
X35519808Y-51098126D01*
X35515394Y-51089463D01*
X35407116Y-50912771D01*
X35399295Y-50904794D01*
X35389827Y-50910725D01*
X34528095Y-51772457D01*
X34521431Y-51783999D01*
X33804566Y-51783999D01*
X33797903Y-51772457D01*
X32936171Y-50910725D01*
X32925170Y-50903834D01*
X32921270Y-50903411D01*
X32892997Y-50908317D01*
X32864728Y-50903412D01*
X32860827Y-50903835D01*
X32849827Y-50910725D01*
X31988095Y-51772457D01*
X31981431Y-51783999D01*
X31264566Y-51783999D01*
X31257903Y-51772457D01*
X30396171Y-50910725D01*
X30386703Y-50904794D01*
X30378882Y-50912771D01*
X30270605Y-51089463D01*
X30266191Y-51098126D01*
X30178604Y-51309581D01*
X30175602Y-51318818D01*
X30122170Y-51541378D01*
X30120652Y-51550963D01*
X30102694Y-51779146D01*
X30102694Y-51788854D01*
X28448500Y-51788854D01*
X28448500Y-50547703D01*
X30743794Y-50547703D01*
X30749725Y-50557171D01*
X31611457Y-51418903D01*
X31623000Y-51425567D01*
X31634542Y-51418903D01*
X32496273Y-50557171D01*
X32502204Y-50547703D01*
X33283794Y-50547703D01*
X33289725Y-50557171D01*
X34151457Y-51418903D01*
X34163000Y-51425567D01*
X34174542Y-51418903D01*
X35036273Y-50557171D01*
X35042204Y-50547703D01*
X35034227Y-50539882D01*
X34857536Y-50431605D01*
X34848873Y-50427191D01*
X34637418Y-50339604D01*
X34628181Y-50336602D01*
X34405621Y-50283170D01*
X34396036Y-50281652D01*
X34167854Y-50263694D01*
X34158146Y-50263694D01*
X33929963Y-50281652D01*
X33920378Y-50283170D01*
X33697818Y-50336602D01*
X33688581Y-50339604D01*
X33477126Y-50427191D01*
X33468463Y-50431605D01*
X33291771Y-50539882D01*
X33283794Y-50547703D01*
X32502204Y-50547703D01*
X32494227Y-50539882D01*
X32317536Y-50431605D01*
X32308873Y-50427191D01*
X32097418Y-50339604D01*
X32088181Y-50336602D01*
X31865621Y-50283170D01*
X31856036Y-50281652D01*
X31627854Y-50263694D01*
X31618146Y-50263694D01*
X31389963Y-50281652D01*
X31380378Y-50283170D01*
X31157818Y-50336602D01*
X31148581Y-50339604D01*
X30937126Y-50427191D01*
X30928463Y-50431605D01*
X30751771Y-50539882D01*
X30743794Y-50547703D01*
X28448500Y-50547703D01*
X28448500Y-32215061D01*
X28739360Y-32215061D01*
X28739784Y-32220178D01*
X28759211Y-32454634D01*
X28759212Y-32454642D01*
X28759636Y-32459754D01*
X28760893Y-32464721D01*
X28760895Y-32464728D01*
X28793056Y-32591728D01*
X28819910Y-32697772D01*
X28821970Y-32702468D01*
X28916479Y-32917928D01*
X28916482Y-32917933D01*
X28918539Y-32922623D01*
X28985685Y-33025398D01*
X29050030Y-33123886D01*
X29050033Y-33123890D01*
X29052832Y-33128174D01*
X29219126Y-33308818D01*
X29223172Y-33311967D01*
X29223173Y-33311968D01*
X29408836Y-33456475D01*
X29408839Y-33456477D01*
X29412885Y-33459626D01*
X29628824Y-33576486D01*
X29861051Y-33656210D01*
X30103234Y-33696623D01*
X30343633Y-33696623D01*
X30348766Y-33696623D01*
X30590949Y-33656210D01*
X30823176Y-33576486D01*
X31039115Y-33459626D01*
X31232874Y-33308818D01*
X31399168Y-33128174D01*
X31533461Y-32922623D01*
X31632090Y-32697772D01*
X31692364Y-32459754D01*
X31712640Y-32215061D01*
X31692364Y-31970368D01*
X31632090Y-31732350D01*
X31533461Y-31507499D01*
X31399168Y-31301948D01*
X31232874Y-31121304D01*
X31228826Y-31118153D01*
X31043163Y-30973646D01*
X31043157Y-30973642D01*
X31039115Y-30970496D01*
X31034601Y-30968053D01*
X30827682Y-30856074D01*
X30827676Y-30856071D01*
X30823176Y-30853636D01*
X30818335Y-30851974D01*
X30818328Y-30851971D01*
X30595802Y-30775578D01*
X30595801Y-30775577D01*
X30590949Y-30773912D01*
X30585899Y-30773069D01*
X30585890Y-30773067D01*
X30353828Y-30734343D01*
X30353819Y-30734342D01*
X30348766Y-30733499D01*
X30103234Y-30733499D01*
X30098181Y-30734342D01*
X30098171Y-30734343D01*
X29866109Y-30773067D01*
X29866097Y-30773069D01*
X29861051Y-30773912D01*
X29856201Y-30775576D01*
X29856197Y-30775578D01*
X29633671Y-30851971D01*
X29633660Y-30851975D01*
X29628824Y-30853636D01*
X29624327Y-30856069D01*
X29624317Y-30856074D01*
X29417398Y-30968053D01*
X29417391Y-30968057D01*
X29412885Y-30970496D01*
X29408847Y-30973638D01*
X29408836Y-30973646D01*
X29223173Y-31118153D01*
X29223165Y-31118160D01*
X29219126Y-31121304D01*
X29215656Y-31125072D01*
X29215652Y-31125077D01*
X29056302Y-31298178D01*
X29056299Y-31298181D01*
X29052832Y-31301948D01*
X29050037Y-31306225D01*
X29050030Y-31306235D01*
X28967058Y-31433235D01*
X28918539Y-31507499D01*
X28916484Y-31512183D01*
X28916479Y-31512193D01*
X28821970Y-31727653D01*
X28819910Y-31732350D01*
X28818652Y-31737315D01*
X28818651Y-31737320D01*
X28760895Y-31965393D01*
X28760893Y-31965402D01*
X28759636Y-31970368D01*
X28759212Y-31975477D01*
X28759211Y-31975487D01*
X28749112Y-32097368D01*
X28739360Y-32215061D01*
X28448500Y-32215061D01*
X28448500Y-30604500D01*
X28465113Y-30542500D01*
X28510500Y-30497113D01*
X28572500Y-30480500D01*
X40811000Y-30480500D01*
X40873000Y-30497113D01*
G37*
%TD.AperFunction*%
%TA.AperFunction,Conductor*%
G36*
X85498065Y-42751015D02*
G01*
X85542088Y-42788615D01*
X85564243Y-42842102D01*
X85559701Y-42899818D01*
X85529451Y-42949181D01*
X83900581Y-44578049D01*
X83840494Y-44611259D01*
X83771948Y-44607410D01*
X83752402Y-44600571D01*
X83739554Y-44595250D01*
X83711336Y-44581661D01*
X83711329Y-44581658D01*
X83705061Y-44578640D01*
X83698276Y-44577091D01*
X83698267Y-44577088D01*
X83667735Y-44570119D01*
X83654382Y-44566273D01*
X83618255Y-44553632D01*
X83611338Y-44552852D01*
X83611336Y-44552852D01*
X83580218Y-44549345D01*
X83566518Y-44547017D01*
X83535988Y-44540050D01*
X83535983Y-44540049D01*
X83529194Y-44538500D01*
X83522228Y-44538500D01*
X77124500Y-44538500D01*
X77062500Y-44521887D01*
X77017113Y-44476500D01*
X77000500Y-44414500D01*
X77000500Y-43627719D01*
X77017113Y-43565719D01*
X77018395Y-43563497D01*
X77027179Y-43548284D01*
X77085674Y-43368256D01*
X77105460Y-43180000D01*
X77085674Y-42991744D01*
X77055804Y-42899816D01*
X77051263Y-42842103D01*
X77073418Y-42788615D01*
X77117441Y-42751015D01*
X77173736Y-42737500D01*
X85441770Y-42737500D01*
X85498065Y-42751015D01*
G37*
%TD.AperFunction*%
%TD*%
M02*
