%TF.GenerationSoftware,KiCad,Pcbnew,7.0.1*%
%TF.CreationDate,2023-03-21T16:37:51+01:00*%
%TF.ProjectId,pcb_morse,7063625f-6d6f-4727-9365-2e6b69636164,rev?*%
%TF.SameCoordinates,Original*%
%TF.FileFunction,Soldermask,Bot*%
%TF.FilePolarity,Negative*%
%FSLAX46Y46*%
G04 Gerber Fmt 4.6, Leading zero omitted, Abs format (unit mm)*
G04 Created by KiCad (PCBNEW 7.0.1) date 2023-03-21 16:37:51*
%MOMM*%
%LPD*%
G01*
G04 APERTURE LIST*
%ADD10C,2.032000*%
%ADD11R,1.800000X1.800000*%
%ADD12C,1.800000*%
%ADD13R,3.000000X3.000000*%
%ADD14C,3.000000*%
%ADD15R,1.350000X1.350000*%
%ADD16O,1.350000X1.350000*%
%ADD17C,2.500000*%
%ADD18C,2.000000*%
%ADD19R,2.000000X4.600000*%
%ADD20O,2.000000X4.200000*%
%ADD21O,4.200000X2.000000*%
G04 APERTURE END LIST*
D10*
%TO.C,UMP1584*%
X31623000Y-70326000D03*
X34163000Y-70326000D03*
X42291000Y-70326000D03*
X44831000Y-70326000D03*
X44831000Y-51784000D03*
X42291000Y-51784000D03*
X34163000Y-51784000D03*
X31623000Y-51784000D03*
%TD*%
D11*
%TO.C,LED1*%
X90424000Y-51562000D03*
D12*
X87884000Y-51562000D03*
%TD*%
D13*
%TO.C,Kroonsteen1*%
X60960000Y-86360000D03*
D14*
X55880000Y-86360000D03*
X50800000Y-86360000D03*
%TD*%
D15*
%TO.C,J2*%
X88900000Y-41180000D03*
D16*
X88900000Y-43180000D03*
X88900000Y-45180000D03*
X88900000Y-47180000D03*
%TD*%
D14*
%TO.C,Relais1*%
X55880000Y-62620000D03*
D17*
X49830000Y-64570000D03*
D14*
X49830000Y-76770000D03*
X61880000Y-76820000D03*
D17*
X61830000Y-64570000D03*
%TD*%
D18*
%TO.C,START1*%
X66330000Y-76910000D03*
X66330000Y-70410000D03*
X70830000Y-76910000D03*
X70830000Y-70410000D03*
%TD*%
D15*
%TO.C,ULTRASONIC-SENSOR1*%
X89662000Y-68008000D03*
D16*
X89662000Y-66008000D03*
X89662000Y-64008000D03*
X89662000Y-62008000D03*
%TD*%
D11*
%TO.C,LED2*%
X83820000Y-49784000D03*
D12*
X81280000Y-49784000D03*
%TD*%
D18*
%TO.C,RESET1*%
X74240000Y-76858000D03*
X74240000Y-70358000D03*
X78740000Y-76858000D03*
X78740000Y-70358000D03*
%TD*%
D19*
%TO.C,Barrel_Jack1*%
X42876000Y-77978000D03*
D20*
X36576000Y-77978000D03*
D21*
X39976000Y-82778000D03*
%TD*%
D11*
%TO.C,LED3*%
X83825000Y-54356000D03*
D12*
X81285000Y-54356000D03*
%TD*%
M02*
