%TF.GenerationSoftware,KiCad,Pcbnew,(7.0.0)*%
%TF.CreationDate,2023-04-20T20:46:09+02:00*%
%TF.ProjectId,pcb_morse,7063625f-6d6f-4727-9365-2e6b69636164,rev?*%
%TF.SameCoordinates,Original*%
%TF.FileFunction,Legend,Top*%
%TF.FilePolarity,Positive*%
%FSLAX46Y46*%
G04 Gerber Fmt 4.6, Leading zero omitted, Abs format (unit mm)*
G04 Created by KiCad (PCBNEW (7.0.0)) date 2023-04-20 20:46:09*
%MOMM*%
%LPD*%
G01*
G04 APERTURE LIST*
%ADD10C,0.300000*%
%ADD11C,0.150000*%
%ADD12C,0.120000*%
G04 APERTURE END LIST*
D10*
X66492285Y-90208714D02*
X66420857Y-90280142D01*
X66420857Y-90280142D02*
X66206571Y-90351571D01*
X66206571Y-90351571D02*
X66063714Y-90351571D01*
X66063714Y-90351571D02*
X65849428Y-90280142D01*
X65849428Y-90280142D02*
X65706571Y-90137285D01*
X65706571Y-90137285D02*
X65635142Y-89994428D01*
X65635142Y-89994428D02*
X65563714Y-89708714D01*
X65563714Y-89708714D02*
X65563714Y-89494428D01*
X65563714Y-89494428D02*
X65635142Y-89208714D01*
X65635142Y-89208714D02*
X65706571Y-89065857D01*
X65706571Y-89065857D02*
X65849428Y-88923000D01*
X65849428Y-88923000D02*
X66063714Y-88851571D01*
X66063714Y-88851571D02*
X66206571Y-88851571D01*
X66206571Y-88851571D02*
X66420857Y-88923000D01*
X66420857Y-88923000D02*
X66492285Y-88994428D01*
X67420857Y-88851571D02*
X67706571Y-88851571D01*
X67706571Y-88851571D02*
X67849428Y-88923000D01*
X67849428Y-88923000D02*
X67992285Y-89065857D01*
X67992285Y-89065857D02*
X68063714Y-89351571D01*
X68063714Y-89351571D02*
X68063714Y-89851571D01*
X68063714Y-89851571D02*
X67992285Y-90137285D01*
X67992285Y-90137285D02*
X67849428Y-90280142D01*
X67849428Y-90280142D02*
X67706571Y-90351571D01*
X67706571Y-90351571D02*
X67420857Y-90351571D01*
X67420857Y-90351571D02*
X67278000Y-90280142D01*
X67278000Y-90280142D02*
X67135142Y-90137285D01*
X67135142Y-90137285D02*
X67063714Y-89851571D01*
X67063714Y-89851571D02*
X67063714Y-89351571D01*
X67063714Y-89351571D02*
X67135142Y-89065857D01*
X67135142Y-89065857D02*
X67278000Y-88923000D01*
X67278000Y-88923000D02*
X67420857Y-88851571D01*
X68706571Y-90351571D02*
X68706571Y-88851571D01*
X68706571Y-88851571D02*
X69206571Y-89923000D01*
X69206571Y-89923000D02*
X69706571Y-88851571D01*
X69706571Y-88851571D02*
X69706571Y-90351571D01*
D11*
X39157380Y-78663095D02*
X39157380Y-79234523D01*
X39157380Y-78948809D02*
X38157380Y-78948809D01*
X38157380Y-78948809D02*
X38300238Y-79044047D01*
X38300238Y-79044047D02*
X38395476Y-79139285D01*
X38395476Y-79139285D02*
X38443095Y-79234523D01*
X38252619Y-78282142D02*
X38205000Y-78234523D01*
X38205000Y-78234523D02*
X38157380Y-78139285D01*
X38157380Y-78139285D02*
X38157380Y-77901190D01*
X38157380Y-77901190D02*
X38205000Y-77805952D01*
X38205000Y-77805952D02*
X38252619Y-77758333D01*
X38252619Y-77758333D02*
X38347857Y-77710714D01*
X38347857Y-77710714D02*
X38443095Y-77710714D01*
X38443095Y-77710714D02*
X38585952Y-77758333D01*
X38585952Y-77758333D02*
X39157380Y-78329761D01*
X39157380Y-78329761D02*
X39157380Y-77710714D01*
X38157380Y-77424999D02*
X39157380Y-77091666D01*
X39157380Y-77091666D02*
X38157380Y-76758333D01*
X91027238Y-45772380D02*
X91598666Y-45772380D01*
X91312952Y-46772380D02*
X91312952Y-45772380D01*
X91836762Y-45772380D02*
X92503428Y-46772380D01*
X92503428Y-45772380D02*
X91836762Y-46772380D01*
X93074857Y-45772380D02*
X93170095Y-45772380D01*
X93170095Y-45772380D02*
X93265333Y-45820000D01*
X93265333Y-45820000D02*
X93312952Y-45867619D01*
X93312952Y-45867619D02*
X93360571Y-45962857D01*
X93360571Y-45962857D02*
X93408190Y-46153333D01*
X93408190Y-46153333D02*
X93408190Y-46391428D01*
X93408190Y-46391428D02*
X93360571Y-46581904D01*
X93360571Y-46581904D02*
X93312952Y-46677142D01*
X93312952Y-46677142D02*
X93265333Y-46724761D01*
X93265333Y-46724761D02*
X93170095Y-46772380D01*
X93170095Y-46772380D02*
X93074857Y-46772380D01*
X93074857Y-46772380D02*
X92979619Y-46724761D01*
X92979619Y-46724761D02*
X92932000Y-46677142D01*
X92932000Y-46677142D02*
X92884381Y-46581904D01*
X92884381Y-46581904D02*
X92836762Y-46391428D01*
X92836762Y-46391428D02*
X92836762Y-46153333D01*
X92836762Y-46153333D02*
X92884381Y-45962857D01*
X92884381Y-45962857D02*
X92932000Y-45867619D01*
X92932000Y-45867619D02*
X92979619Y-45820000D01*
X92979619Y-45820000D02*
X93074857Y-45772380D01*
X91693904Y-48360000D02*
X91598666Y-48312380D01*
X91598666Y-48312380D02*
X91455809Y-48312380D01*
X91455809Y-48312380D02*
X91312952Y-48360000D01*
X91312952Y-48360000D02*
X91217714Y-48455238D01*
X91217714Y-48455238D02*
X91170095Y-48550476D01*
X91170095Y-48550476D02*
X91122476Y-48740952D01*
X91122476Y-48740952D02*
X91122476Y-48883809D01*
X91122476Y-48883809D02*
X91170095Y-49074285D01*
X91170095Y-49074285D02*
X91217714Y-49169523D01*
X91217714Y-49169523D02*
X91312952Y-49264761D01*
X91312952Y-49264761D02*
X91455809Y-49312380D01*
X91455809Y-49312380D02*
X91551047Y-49312380D01*
X91551047Y-49312380D02*
X91693904Y-49264761D01*
X91693904Y-49264761D02*
X91741523Y-49217142D01*
X91741523Y-49217142D02*
X91741523Y-48883809D01*
X91741523Y-48883809D02*
X91551047Y-48883809D01*
X92170095Y-49312380D02*
X92170095Y-48312380D01*
X92170095Y-48312380D02*
X92741523Y-49312380D01*
X92741523Y-49312380D02*
X92741523Y-48312380D01*
X93217714Y-49312380D02*
X93217714Y-48312380D01*
X93217714Y-48312380D02*
X93455809Y-48312380D01*
X93455809Y-48312380D02*
X93598666Y-48360000D01*
X93598666Y-48360000D02*
X93693904Y-48455238D01*
X93693904Y-48455238D02*
X93741523Y-48550476D01*
X93741523Y-48550476D02*
X93789142Y-48740952D01*
X93789142Y-48740952D02*
X93789142Y-48883809D01*
X93789142Y-48883809D02*
X93741523Y-49074285D01*
X93741523Y-49074285D02*
X93693904Y-49169523D01*
X93693904Y-49169523D02*
X93598666Y-49264761D01*
X93598666Y-49264761D02*
X93455809Y-49312380D01*
X93455809Y-49312380D02*
X93217714Y-49312380D01*
X91487523Y-44232380D02*
X91154190Y-43756190D01*
X90916095Y-44232380D02*
X90916095Y-43232380D01*
X90916095Y-43232380D02*
X91297047Y-43232380D01*
X91297047Y-43232380D02*
X91392285Y-43280000D01*
X91392285Y-43280000D02*
X91439904Y-43327619D01*
X91439904Y-43327619D02*
X91487523Y-43422857D01*
X91487523Y-43422857D02*
X91487523Y-43565714D01*
X91487523Y-43565714D02*
X91439904Y-43660952D01*
X91439904Y-43660952D02*
X91392285Y-43708571D01*
X91392285Y-43708571D02*
X91297047Y-43756190D01*
X91297047Y-43756190D02*
X90916095Y-43756190D01*
X91820857Y-43232380D02*
X92487523Y-44232380D01*
X92487523Y-43232380D02*
X91820857Y-44232380D01*
X93058952Y-43232380D02*
X93154190Y-43232380D01*
X93154190Y-43232380D02*
X93249428Y-43280000D01*
X93249428Y-43280000D02*
X93297047Y-43327619D01*
X93297047Y-43327619D02*
X93344666Y-43422857D01*
X93344666Y-43422857D02*
X93392285Y-43613333D01*
X93392285Y-43613333D02*
X93392285Y-43851428D01*
X93392285Y-43851428D02*
X93344666Y-44041904D01*
X93344666Y-44041904D02*
X93297047Y-44137142D01*
X93297047Y-44137142D02*
X93249428Y-44184761D01*
X93249428Y-44184761D02*
X93154190Y-44232380D01*
X93154190Y-44232380D02*
X93058952Y-44232380D01*
X93058952Y-44232380D02*
X92963714Y-44184761D01*
X92963714Y-44184761D02*
X92916095Y-44137142D01*
X92916095Y-44137142D02*
X92868476Y-44041904D01*
X92868476Y-44041904D02*
X92820857Y-43851428D01*
X92820857Y-43851428D02*
X92820857Y-43613333D01*
X92820857Y-43613333D02*
X92868476Y-43422857D01*
X92868476Y-43422857D02*
X92916095Y-43327619D01*
X92916095Y-43327619D02*
X92963714Y-43280000D01*
X92963714Y-43280000D02*
X93058952Y-43232380D01*
X90693857Y-40565380D02*
X91312904Y-40565380D01*
X91312904Y-40565380D02*
X90979571Y-40946333D01*
X90979571Y-40946333D02*
X91122428Y-40946333D01*
X91122428Y-40946333D02*
X91217666Y-40993952D01*
X91217666Y-40993952D02*
X91265285Y-41041571D01*
X91265285Y-41041571D02*
X91312904Y-41136809D01*
X91312904Y-41136809D02*
X91312904Y-41374904D01*
X91312904Y-41374904D02*
X91265285Y-41470142D01*
X91265285Y-41470142D02*
X91217666Y-41517761D01*
X91217666Y-41517761D02*
X91122428Y-41565380D01*
X91122428Y-41565380D02*
X90836714Y-41565380D01*
X90836714Y-41565380D02*
X90741476Y-41517761D01*
X90741476Y-41517761D02*
X90693857Y-41470142D01*
X91741476Y-41470142D02*
X91789095Y-41517761D01*
X91789095Y-41517761D02*
X91741476Y-41565380D01*
X91741476Y-41565380D02*
X91693857Y-41517761D01*
X91693857Y-41517761D02*
X91741476Y-41470142D01*
X91741476Y-41470142D02*
X91741476Y-41565380D01*
X92122428Y-40565380D02*
X92741475Y-40565380D01*
X92741475Y-40565380D02*
X92408142Y-40946333D01*
X92408142Y-40946333D02*
X92550999Y-40946333D01*
X92550999Y-40946333D02*
X92646237Y-40993952D01*
X92646237Y-40993952D02*
X92693856Y-41041571D01*
X92693856Y-41041571D02*
X92741475Y-41136809D01*
X92741475Y-41136809D02*
X92741475Y-41374904D01*
X92741475Y-41374904D02*
X92693856Y-41470142D01*
X92693856Y-41470142D02*
X92646237Y-41517761D01*
X92646237Y-41517761D02*
X92550999Y-41565380D01*
X92550999Y-41565380D02*
X92265285Y-41565380D01*
X92265285Y-41565380D02*
X92170047Y-41517761D01*
X92170047Y-41517761D02*
X92122428Y-41470142D01*
X93027190Y-40565380D02*
X93360523Y-41565380D01*
X93360523Y-41565380D02*
X93693856Y-40565380D01*
X32003904Y-53694000D02*
X31908666Y-53646380D01*
X31908666Y-53646380D02*
X31765809Y-53646380D01*
X31765809Y-53646380D02*
X31622952Y-53694000D01*
X31622952Y-53694000D02*
X31527714Y-53789238D01*
X31527714Y-53789238D02*
X31480095Y-53884476D01*
X31480095Y-53884476D02*
X31432476Y-54074952D01*
X31432476Y-54074952D02*
X31432476Y-54217809D01*
X31432476Y-54217809D02*
X31480095Y-54408285D01*
X31480095Y-54408285D02*
X31527714Y-54503523D01*
X31527714Y-54503523D02*
X31622952Y-54598761D01*
X31622952Y-54598761D02*
X31765809Y-54646380D01*
X31765809Y-54646380D02*
X31861047Y-54646380D01*
X31861047Y-54646380D02*
X32003904Y-54598761D01*
X32003904Y-54598761D02*
X32051523Y-54551142D01*
X32051523Y-54551142D02*
X32051523Y-54217809D01*
X32051523Y-54217809D02*
X31861047Y-54217809D01*
X32480095Y-54646380D02*
X32480095Y-53646380D01*
X32480095Y-53646380D02*
X33051523Y-54646380D01*
X33051523Y-54646380D02*
X33051523Y-53646380D01*
X33527714Y-54646380D02*
X33527714Y-53646380D01*
X33527714Y-53646380D02*
X33765809Y-53646380D01*
X33765809Y-53646380D02*
X33908666Y-53694000D01*
X33908666Y-53694000D02*
X34003904Y-53789238D01*
X34003904Y-53789238D02*
X34051523Y-53884476D01*
X34051523Y-53884476D02*
X34099142Y-54074952D01*
X34099142Y-54074952D02*
X34099142Y-54217809D01*
X34099142Y-54217809D02*
X34051523Y-54408285D01*
X34051523Y-54408285D02*
X34003904Y-54503523D01*
X34003904Y-54503523D02*
X33908666Y-54598761D01*
X33908666Y-54598761D02*
X33765809Y-54646380D01*
X33765809Y-54646380D02*
X33527714Y-54646380D01*
%TO.C,U1*%
X47324380Y-60949904D02*
X48133904Y-60949904D01*
X48133904Y-60949904D02*
X48229142Y-60902285D01*
X48229142Y-60902285D02*
X48276761Y-60854666D01*
X48276761Y-60854666D02*
X48324380Y-60759428D01*
X48324380Y-60759428D02*
X48324380Y-60568952D01*
X48324380Y-60568952D02*
X48276761Y-60473714D01*
X48276761Y-60473714D02*
X48229142Y-60426095D01*
X48229142Y-60426095D02*
X48133904Y-60378476D01*
X48133904Y-60378476D02*
X47324380Y-60378476D01*
X48324380Y-59378476D02*
X48324380Y-59949904D01*
X48324380Y-59664190D02*
X47324380Y-59664190D01*
X47324380Y-59664190D02*
X47467238Y-59759428D01*
X47467238Y-59759428D02*
X47562476Y-59854666D01*
X47562476Y-59854666D02*
X47610095Y-59949904D01*
%TO.C,ESP32*%
X57732143Y-39843571D02*
X58065476Y-39843571D01*
X58208333Y-40367380D02*
X57732143Y-40367380D01*
X57732143Y-40367380D02*
X57732143Y-39367380D01*
X57732143Y-39367380D02*
X58208333Y-39367380D01*
X58589286Y-40319761D02*
X58732143Y-40367380D01*
X58732143Y-40367380D02*
X58970238Y-40367380D01*
X58970238Y-40367380D02*
X59065476Y-40319761D01*
X59065476Y-40319761D02*
X59113095Y-40272142D01*
X59113095Y-40272142D02*
X59160714Y-40176904D01*
X59160714Y-40176904D02*
X59160714Y-40081666D01*
X59160714Y-40081666D02*
X59113095Y-39986428D01*
X59113095Y-39986428D02*
X59065476Y-39938809D01*
X59065476Y-39938809D02*
X58970238Y-39891190D01*
X58970238Y-39891190D02*
X58779762Y-39843571D01*
X58779762Y-39843571D02*
X58684524Y-39795952D01*
X58684524Y-39795952D02*
X58636905Y-39748333D01*
X58636905Y-39748333D02*
X58589286Y-39653095D01*
X58589286Y-39653095D02*
X58589286Y-39557857D01*
X58589286Y-39557857D02*
X58636905Y-39462619D01*
X58636905Y-39462619D02*
X58684524Y-39415000D01*
X58684524Y-39415000D02*
X58779762Y-39367380D01*
X58779762Y-39367380D02*
X59017857Y-39367380D01*
X59017857Y-39367380D02*
X59160714Y-39415000D01*
X59589286Y-40367380D02*
X59589286Y-39367380D01*
X59589286Y-39367380D02*
X59970238Y-39367380D01*
X59970238Y-39367380D02*
X60065476Y-39415000D01*
X60065476Y-39415000D02*
X60113095Y-39462619D01*
X60113095Y-39462619D02*
X60160714Y-39557857D01*
X60160714Y-39557857D02*
X60160714Y-39700714D01*
X60160714Y-39700714D02*
X60113095Y-39795952D01*
X60113095Y-39795952D02*
X60065476Y-39843571D01*
X60065476Y-39843571D02*
X59970238Y-39891190D01*
X59970238Y-39891190D02*
X59589286Y-39891190D01*
X60494048Y-39367380D02*
X61113095Y-39367380D01*
X61113095Y-39367380D02*
X60779762Y-39748333D01*
X60779762Y-39748333D02*
X60922619Y-39748333D01*
X60922619Y-39748333D02*
X61017857Y-39795952D01*
X61017857Y-39795952D02*
X61065476Y-39843571D01*
X61065476Y-39843571D02*
X61113095Y-39938809D01*
X61113095Y-39938809D02*
X61113095Y-40176904D01*
X61113095Y-40176904D02*
X61065476Y-40272142D01*
X61065476Y-40272142D02*
X61017857Y-40319761D01*
X61017857Y-40319761D02*
X60922619Y-40367380D01*
X60922619Y-40367380D02*
X60636905Y-40367380D01*
X60636905Y-40367380D02*
X60541667Y-40319761D01*
X60541667Y-40319761D02*
X60494048Y-40272142D01*
X61494048Y-39462619D02*
X61541667Y-39415000D01*
X61541667Y-39415000D02*
X61636905Y-39367380D01*
X61636905Y-39367380D02*
X61875000Y-39367380D01*
X61875000Y-39367380D02*
X61970238Y-39415000D01*
X61970238Y-39415000D02*
X62017857Y-39462619D01*
X62017857Y-39462619D02*
X62065476Y-39557857D01*
X62065476Y-39557857D02*
X62065476Y-39653095D01*
X62065476Y-39653095D02*
X62017857Y-39795952D01*
X62017857Y-39795952D02*
X61446429Y-40367380D01*
X61446429Y-40367380D02*
X62065476Y-40367380D01*
%TO.C,C2*%
X42251333Y-48024142D02*
X42203714Y-48071761D01*
X42203714Y-48071761D02*
X42060857Y-48119380D01*
X42060857Y-48119380D02*
X41965619Y-48119380D01*
X41965619Y-48119380D02*
X41822762Y-48071761D01*
X41822762Y-48071761D02*
X41727524Y-47976523D01*
X41727524Y-47976523D02*
X41679905Y-47881285D01*
X41679905Y-47881285D02*
X41632286Y-47690809D01*
X41632286Y-47690809D02*
X41632286Y-47547952D01*
X41632286Y-47547952D02*
X41679905Y-47357476D01*
X41679905Y-47357476D02*
X41727524Y-47262238D01*
X41727524Y-47262238D02*
X41822762Y-47167000D01*
X41822762Y-47167000D02*
X41965619Y-47119380D01*
X41965619Y-47119380D02*
X42060857Y-47119380D01*
X42060857Y-47119380D02*
X42203714Y-47167000D01*
X42203714Y-47167000D02*
X42251333Y-47214619D01*
X42632286Y-47214619D02*
X42679905Y-47167000D01*
X42679905Y-47167000D02*
X42775143Y-47119380D01*
X42775143Y-47119380D02*
X43013238Y-47119380D01*
X43013238Y-47119380D02*
X43108476Y-47167000D01*
X43108476Y-47167000D02*
X43156095Y-47214619D01*
X43156095Y-47214619D02*
X43203714Y-47309857D01*
X43203714Y-47309857D02*
X43203714Y-47405095D01*
X43203714Y-47405095D02*
X43156095Y-47547952D01*
X43156095Y-47547952D02*
X42584667Y-48119380D01*
X42584667Y-48119380D02*
X43203714Y-48119380D01*
%TO.C,UMP1584*%
X29888095Y-48692380D02*
X29888095Y-49501904D01*
X29888095Y-49501904D02*
X29935714Y-49597142D01*
X29935714Y-49597142D02*
X29983333Y-49644761D01*
X29983333Y-49644761D02*
X30078571Y-49692380D01*
X30078571Y-49692380D02*
X30269047Y-49692380D01*
X30269047Y-49692380D02*
X30364285Y-49644761D01*
X30364285Y-49644761D02*
X30411904Y-49597142D01*
X30411904Y-49597142D02*
X30459523Y-49501904D01*
X30459523Y-49501904D02*
X30459523Y-48692380D01*
X30935714Y-49692380D02*
X30935714Y-48692380D01*
X30935714Y-48692380D02*
X31269047Y-49406666D01*
X31269047Y-49406666D02*
X31602380Y-48692380D01*
X31602380Y-48692380D02*
X31602380Y-49692380D01*
X32078571Y-49692380D02*
X32078571Y-48692380D01*
X32078571Y-48692380D02*
X32459523Y-48692380D01*
X32459523Y-48692380D02*
X32554761Y-48740000D01*
X32554761Y-48740000D02*
X32602380Y-48787619D01*
X32602380Y-48787619D02*
X32649999Y-48882857D01*
X32649999Y-48882857D02*
X32649999Y-49025714D01*
X32649999Y-49025714D02*
X32602380Y-49120952D01*
X32602380Y-49120952D02*
X32554761Y-49168571D01*
X32554761Y-49168571D02*
X32459523Y-49216190D01*
X32459523Y-49216190D02*
X32078571Y-49216190D01*
X33602380Y-49692380D02*
X33030952Y-49692380D01*
X33316666Y-49692380D02*
X33316666Y-48692380D01*
X33316666Y-48692380D02*
X33221428Y-48835238D01*
X33221428Y-48835238D02*
X33126190Y-48930476D01*
X33126190Y-48930476D02*
X33030952Y-48978095D01*
X34507142Y-48692380D02*
X34030952Y-48692380D01*
X34030952Y-48692380D02*
X33983333Y-49168571D01*
X33983333Y-49168571D02*
X34030952Y-49120952D01*
X34030952Y-49120952D02*
X34126190Y-49073333D01*
X34126190Y-49073333D02*
X34364285Y-49073333D01*
X34364285Y-49073333D02*
X34459523Y-49120952D01*
X34459523Y-49120952D02*
X34507142Y-49168571D01*
X34507142Y-49168571D02*
X34554761Y-49263809D01*
X34554761Y-49263809D02*
X34554761Y-49501904D01*
X34554761Y-49501904D02*
X34507142Y-49597142D01*
X34507142Y-49597142D02*
X34459523Y-49644761D01*
X34459523Y-49644761D02*
X34364285Y-49692380D01*
X34364285Y-49692380D02*
X34126190Y-49692380D01*
X34126190Y-49692380D02*
X34030952Y-49644761D01*
X34030952Y-49644761D02*
X33983333Y-49597142D01*
X35126190Y-49120952D02*
X35030952Y-49073333D01*
X35030952Y-49073333D02*
X34983333Y-49025714D01*
X34983333Y-49025714D02*
X34935714Y-48930476D01*
X34935714Y-48930476D02*
X34935714Y-48882857D01*
X34935714Y-48882857D02*
X34983333Y-48787619D01*
X34983333Y-48787619D02*
X35030952Y-48740000D01*
X35030952Y-48740000D02*
X35126190Y-48692380D01*
X35126190Y-48692380D02*
X35316666Y-48692380D01*
X35316666Y-48692380D02*
X35411904Y-48740000D01*
X35411904Y-48740000D02*
X35459523Y-48787619D01*
X35459523Y-48787619D02*
X35507142Y-48882857D01*
X35507142Y-48882857D02*
X35507142Y-48930476D01*
X35507142Y-48930476D02*
X35459523Y-49025714D01*
X35459523Y-49025714D02*
X35411904Y-49073333D01*
X35411904Y-49073333D02*
X35316666Y-49120952D01*
X35316666Y-49120952D02*
X35126190Y-49120952D01*
X35126190Y-49120952D02*
X35030952Y-49168571D01*
X35030952Y-49168571D02*
X34983333Y-49216190D01*
X34983333Y-49216190D02*
X34935714Y-49311428D01*
X34935714Y-49311428D02*
X34935714Y-49501904D01*
X34935714Y-49501904D02*
X34983333Y-49597142D01*
X34983333Y-49597142D02*
X35030952Y-49644761D01*
X35030952Y-49644761D02*
X35126190Y-49692380D01*
X35126190Y-49692380D02*
X35316666Y-49692380D01*
X35316666Y-49692380D02*
X35411904Y-49644761D01*
X35411904Y-49644761D02*
X35459523Y-49597142D01*
X35459523Y-49597142D02*
X35507142Y-49501904D01*
X35507142Y-49501904D02*
X35507142Y-49311428D01*
X35507142Y-49311428D02*
X35459523Y-49216190D01*
X35459523Y-49216190D02*
X35411904Y-49168571D01*
X35411904Y-49168571D02*
X35316666Y-49120952D01*
X36364285Y-49025714D02*
X36364285Y-49692380D01*
X36126190Y-48644761D02*
X35888095Y-49359047D01*
X35888095Y-49359047D02*
X36507142Y-49359047D01*
%TO.C,PLO1*%
X35858333Y-38742380D02*
X35858333Y-37742380D01*
X35858333Y-37742380D02*
X36239285Y-37742380D01*
X36239285Y-37742380D02*
X36334523Y-37790000D01*
X36334523Y-37790000D02*
X36382142Y-37837619D01*
X36382142Y-37837619D02*
X36429761Y-37932857D01*
X36429761Y-37932857D02*
X36429761Y-38075714D01*
X36429761Y-38075714D02*
X36382142Y-38170952D01*
X36382142Y-38170952D02*
X36334523Y-38218571D01*
X36334523Y-38218571D02*
X36239285Y-38266190D01*
X36239285Y-38266190D02*
X35858333Y-38266190D01*
X37334523Y-38742380D02*
X36858333Y-38742380D01*
X36858333Y-38742380D02*
X36858333Y-37742380D01*
X37858333Y-37742380D02*
X38048809Y-37742380D01*
X38048809Y-37742380D02*
X38144047Y-37790000D01*
X38144047Y-37790000D02*
X38239285Y-37885238D01*
X38239285Y-37885238D02*
X38286904Y-38075714D01*
X38286904Y-38075714D02*
X38286904Y-38409047D01*
X38286904Y-38409047D02*
X38239285Y-38599523D01*
X38239285Y-38599523D02*
X38144047Y-38694761D01*
X38144047Y-38694761D02*
X38048809Y-38742380D01*
X38048809Y-38742380D02*
X37858333Y-38742380D01*
X37858333Y-38742380D02*
X37763095Y-38694761D01*
X37763095Y-38694761D02*
X37667857Y-38599523D01*
X37667857Y-38599523D02*
X37620238Y-38409047D01*
X37620238Y-38409047D02*
X37620238Y-38075714D01*
X37620238Y-38075714D02*
X37667857Y-37885238D01*
X37667857Y-37885238D02*
X37763095Y-37790000D01*
X37763095Y-37790000D02*
X37858333Y-37742380D01*
X39239285Y-38742380D02*
X38667857Y-38742380D01*
X38953571Y-38742380D02*
X38953571Y-37742380D01*
X38953571Y-37742380D02*
X38858333Y-37885238D01*
X38858333Y-37885238D02*
X38763095Y-37980476D01*
X38763095Y-37980476D02*
X38667857Y-38028095D01*
%TO.C,LED1*%
X93082380Y-54459047D02*
X93082380Y-54935237D01*
X93082380Y-54935237D02*
X92082380Y-54935237D01*
X92558571Y-54125713D02*
X92558571Y-53792380D01*
X93082380Y-53649523D02*
X93082380Y-54125713D01*
X93082380Y-54125713D02*
X92082380Y-54125713D01*
X92082380Y-54125713D02*
X92082380Y-53649523D01*
X93082380Y-53220951D02*
X92082380Y-53220951D01*
X92082380Y-53220951D02*
X92082380Y-52982856D01*
X92082380Y-52982856D02*
X92130000Y-52839999D01*
X92130000Y-52839999D02*
X92225238Y-52744761D01*
X92225238Y-52744761D02*
X92320476Y-52697142D01*
X92320476Y-52697142D02*
X92510952Y-52649523D01*
X92510952Y-52649523D02*
X92653809Y-52649523D01*
X92653809Y-52649523D02*
X92844285Y-52697142D01*
X92844285Y-52697142D02*
X92939523Y-52744761D01*
X92939523Y-52744761D02*
X93034761Y-52839999D01*
X93034761Y-52839999D02*
X93082380Y-52982856D01*
X93082380Y-52982856D02*
X93082380Y-53220951D01*
X93082380Y-51697142D02*
X93082380Y-52268570D01*
X93082380Y-51982856D02*
X92082380Y-51982856D01*
X92082380Y-51982856D02*
X92225238Y-52078094D01*
X92225238Y-52078094D02*
X92320476Y-52173332D01*
X92320476Y-52173332D02*
X92368095Y-52268570D01*
%TO.C,R1*%
X83183333Y-62267380D02*
X82850000Y-61791190D01*
X82611905Y-62267380D02*
X82611905Y-61267380D01*
X82611905Y-61267380D02*
X82992857Y-61267380D01*
X82992857Y-61267380D02*
X83088095Y-61315000D01*
X83088095Y-61315000D02*
X83135714Y-61362619D01*
X83135714Y-61362619D02*
X83183333Y-61457857D01*
X83183333Y-61457857D02*
X83183333Y-61600714D01*
X83183333Y-61600714D02*
X83135714Y-61695952D01*
X83135714Y-61695952D02*
X83088095Y-61743571D01*
X83088095Y-61743571D02*
X82992857Y-61791190D01*
X82992857Y-61791190D02*
X82611905Y-61791190D01*
X84135714Y-62267380D02*
X83564286Y-62267380D01*
X83850000Y-62267380D02*
X83850000Y-61267380D01*
X83850000Y-61267380D02*
X83754762Y-61410238D01*
X83754762Y-61410238D02*
X83659524Y-61505476D01*
X83659524Y-61505476D02*
X83564286Y-61553095D01*
%TO.C,Kroonsteen1*%
X72049237Y-89775380D02*
X72049237Y-88775380D01*
X72620665Y-89775380D02*
X72192094Y-89203952D01*
X72620665Y-88775380D02*
X72049237Y-89346809D01*
X73049237Y-89775380D02*
X73049237Y-89108714D01*
X73049237Y-89299190D02*
X73096856Y-89203952D01*
X73096856Y-89203952D02*
X73144475Y-89156333D01*
X73144475Y-89156333D02*
X73239713Y-89108714D01*
X73239713Y-89108714D02*
X73334951Y-89108714D01*
X73811142Y-89775380D02*
X73715904Y-89727761D01*
X73715904Y-89727761D02*
X73668285Y-89680142D01*
X73668285Y-89680142D02*
X73620666Y-89584904D01*
X73620666Y-89584904D02*
X73620666Y-89299190D01*
X73620666Y-89299190D02*
X73668285Y-89203952D01*
X73668285Y-89203952D02*
X73715904Y-89156333D01*
X73715904Y-89156333D02*
X73811142Y-89108714D01*
X73811142Y-89108714D02*
X73953999Y-89108714D01*
X73953999Y-89108714D02*
X74049237Y-89156333D01*
X74049237Y-89156333D02*
X74096856Y-89203952D01*
X74096856Y-89203952D02*
X74144475Y-89299190D01*
X74144475Y-89299190D02*
X74144475Y-89584904D01*
X74144475Y-89584904D02*
X74096856Y-89680142D01*
X74096856Y-89680142D02*
X74049237Y-89727761D01*
X74049237Y-89727761D02*
X73953999Y-89775380D01*
X73953999Y-89775380D02*
X73811142Y-89775380D01*
X74715904Y-89775380D02*
X74620666Y-89727761D01*
X74620666Y-89727761D02*
X74573047Y-89680142D01*
X74573047Y-89680142D02*
X74525428Y-89584904D01*
X74525428Y-89584904D02*
X74525428Y-89299190D01*
X74525428Y-89299190D02*
X74573047Y-89203952D01*
X74573047Y-89203952D02*
X74620666Y-89156333D01*
X74620666Y-89156333D02*
X74715904Y-89108714D01*
X74715904Y-89108714D02*
X74858761Y-89108714D01*
X74858761Y-89108714D02*
X74953999Y-89156333D01*
X74953999Y-89156333D02*
X75001618Y-89203952D01*
X75001618Y-89203952D02*
X75049237Y-89299190D01*
X75049237Y-89299190D02*
X75049237Y-89584904D01*
X75049237Y-89584904D02*
X75001618Y-89680142D01*
X75001618Y-89680142D02*
X74953999Y-89727761D01*
X74953999Y-89727761D02*
X74858761Y-89775380D01*
X74858761Y-89775380D02*
X74715904Y-89775380D01*
X75477809Y-89108714D02*
X75477809Y-89775380D01*
X75477809Y-89203952D02*
X75525428Y-89156333D01*
X75525428Y-89156333D02*
X75620666Y-89108714D01*
X75620666Y-89108714D02*
X75763523Y-89108714D01*
X75763523Y-89108714D02*
X75858761Y-89156333D01*
X75858761Y-89156333D02*
X75906380Y-89251571D01*
X75906380Y-89251571D02*
X75906380Y-89775380D01*
X76334952Y-89727761D02*
X76430190Y-89775380D01*
X76430190Y-89775380D02*
X76620666Y-89775380D01*
X76620666Y-89775380D02*
X76715904Y-89727761D01*
X76715904Y-89727761D02*
X76763523Y-89632523D01*
X76763523Y-89632523D02*
X76763523Y-89584904D01*
X76763523Y-89584904D02*
X76715904Y-89489666D01*
X76715904Y-89489666D02*
X76620666Y-89442047D01*
X76620666Y-89442047D02*
X76477809Y-89442047D01*
X76477809Y-89442047D02*
X76382571Y-89394428D01*
X76382571Y-89394428D02*
X76334952Y-89299190D01*
X76334952Y-89299190D02*
X76334952Y-89251571D01*
X76334952Y-89251571D02*
X76382571Y-89156333D01*
X76382571Y-89156333D02*
X76477809Y-89108714D01*
X76477809Y-89108714D02*
X76620666Y-89108714D01*
X76620666Y-89108714D02*
X76715904Y-89156333D01*
X77049238Y-89108714D02*
X77430190Y-89108714D01*
X77192095Y-88775380D02*
X77192095Y-89632523D01*
X77192095Y-89632523D02*
X77239714Y-89727761D01*
X77239714Y-89727761D02*
X77334952Y-89775380D01*
X77334952Y-89775380D02*
X77430190Y-89775380D01*
X78144476Y-89727761D02*
X78049238Y-89775380D01*
X78049238Y-89775380D02*
X77858762Y-89775380D01*
X77858762Y-89775380D02*
X77763524Y-89727761D01*
X77763524Y-89727761D02*
X77715905Y-89632523D01*
X77715905Y-89632523D02*
X77715905Y-89251571D01*
X77715905Y-89251571D02*
X77763524Y-89156333D01*
X77763524Y-89156333D02*
X77858762Y-89108714D01*
X77858762Y-89108714D02*
X78049238Y-89108714D01*
X78049238Y-89108714D02*
X78144476Y-89156333D01*
X78144476Y-89156333D02*
X78192095Y-89251571D01*
X78192095Y-89251571D02*
X78192095Y-89346809D01*
X78192095Y-89346809D02*
X77715905Y-89442047D01*
X79001619Y-89727761D02*
X78906381Y-89775380D01*
X78906381Y-89775380D02*
X78715905Y-89775380D01*
X78715905Y-89775380D02*
X78620667Y-89727761D01*
X78620667Y-89727761D02*
X78573048Y-89632523D01*
X78573048Y-89632523D02*
X78573048Y-89251571D01*
X78573048Y-89251571D02*
X78620667Y-89156333D01*
X78620667Y-89156333D02*
X78715905Y-89108714D01*
X78715905Y-89108714D02*
X78906381Y-89108714D01*
X78906381Y-89108714D02*
X79001619Y-89156333D01*
X79001619Y-89156333D02*
X79049238Y-89251571D01*
X79049238Y-89251571D02*
X79049238Y-89346809D01*
X79049238Y-89346809D02*
X78573048Y-89442047D01*
X79477810Y-89108714D02*
X79477810Y-89775380D01*
X79477810Y-89203952D02*
X79525429Y-89156333D01*
X79525429Y-89156333D02*
X79620667Y-89108714D01*
X79620667Y-89108714D02*
X79763524Y-89108714D01*
X79763524Y-89108714D02*
X79858762Y-89156333D01*
X79858762Y-89156333D02*
X79906381Y-89251571D01*
X79906381Y-89251571D02*
X79906381Y-89775380D01*
X80906381Y-89775380D02*
X80334953Y-89775380D01*
X80620667Y-89775380D02*
X80620667Y-88775380D01*
X80620667Y-88775380D02*
X80525429Y-88918238D01*
X80525429Y-88918238D02*
X80430191Y-89013476D01*
X80430191Y-89013476D02*
X80334953Y-89061095D01*
%TO.C,R15*%
X84066142Y-47738380D02*
X83732809Y-47262190D01*
X83494714Y-47738380D02*
X83494714Y-46738380D01*
X83494714Y-46738380D02*
X83875666Y-46738380D01*
X83875666Y-46738380D02*
X83970904Y-46786000D01*
X83970904Y-46786000D02*
X84018523Y-46833619D01*
X84018523Y-46833619D02*
X84066142Y-46928857D01*
X84066142Y-46928857D02*
X84066142Y-47071714D01*
X84066142Y-47071714D02*
X84018523Y-47166952D01*
X84018523Y-47166952D02*
X83970904Y-47214571D01*
X83970904Y-47214571D02*
X83875666Y-47262190D01*
X83875666Y-47262190D02*
X83494714Y-47262190D01*
X85018523Y-47738380D02*
X84447095Y-47738380D01*
X84732809Y-47738380D02*
X84732809Y-46738380D01*
X84732809Y-46738380D02*
X84637571Y-46881238D01*
X84637571Y-46881238D02*
X84542333Y-46976476D01*
X84542333Y-46976476D02*
X84447095Y-47024095D01*
X85923285Y-46738380D02*
X85447095Y-46738380D01*
X85447095Y-46738380D02*
X85399476Y-47214571D01*
X85399476Y-47214571D02*
X85447095Y-47166952D01*
X85447095Y-47166952D02*
X85542333Y-47119333D01*
X85542333Y-47119333D02*
X85780428Y-47119333D01*
X85780428Y-47119333D02*
X85875666Y-47166952D01*
X85875666Y-47166952D02*
X85923285Y-47214571D01*
X85923285Y-47214571D02*
X85970904Y-47309809D01*
X85970904Y-47309809D02*
X85970904Y-47547904D01*
X85970904Y-47547904D02*
X85923285Y-47643142D01*
X85923285Y-47643142D02*
X85875666Y-47690761D01*
X85875666Y-47690761D02*
X85780428Y-47738380D01*
X85780428Y-47738380D02*
X85542333Y-47738380D01*
X85542333Y-47738380D02*
X85447095Y-47690761D01*
X85447095Y-47690761D02*
X85399476Y-47643142D01*
%TO.C,J2*%
X88566666Y-38217380D02*
X88566666Y-38931666D01*
X88566666Y-38931666D02*
X88519047Y-39074523D01*
X88519047Y-39074523D02*
X88423809Y-39169761D01*
X88423809Y-39169761D02*
X88280952Y-39217380D01*
X88280952Y-39217380D02*
X88185714Y-39217380D01*
X88995238Y-38312619D02*
X89042857Y-38265000D01*
X89042857Y-38265000D02*
X89138095Y-38217380D01*
X89138095Y-38217380D02*
X89376190Y-38217380D01*
X89376190Y-38217380D02*
X89471428Y-38265000D01*
X89471428Y-38265000D02*
X89519047Y-38312619D01*
X89519047Y-38312619D02*
X89566666Y-38407857D01*
X89566666Y-38407857D02*
X89566666Y-38503095D01*
X89566666Y-38503095D02*
X89519047Y-38645952D01*
X89519047Y-38645952D02*
X88947619Y-39217380D01*
X88947619Y-39217380D02*
X89566666Y-39217380D01*
%TO.C,R9*%
X59777333Y-63375380D02*
X59444000Y-62899190D01*
X59205905Y-63375380D02*
X59205905Y-62375380D01*
X59205905Y-62375380D02*
X59586857Y-62375380D01*
X59586857Y-62375380D02*
X59682095Y-62423000D01*
X59682095Y-62423000D02*
X59729714Y-62470619D01*
X59729714Y-62470619D02*
X59777333Y-62565857D01*
X59777333Y-62565857D02*
X59777333Y-62708714D01*
X59777333Y-62708714D02*
X59729714Y-62803952D01*
X59729714Y-62803952D02*
X59682095Y-62851571D01*
X59682095Y-62851571D02*
X59586857Y-62899190D01*
X59586857Y-62899190D02*
X59205905Y-62899190D01*
X60253524Y-63375380D02*
X60444000Y-63375380D01*
X60444000Y-63375380D02*
X60539238Y-63327761D01*
X60539238Y-63327761D02*
X60586857Y-63280142D01*
X60586857Y-63280142D02*
X60682095Y-63137285D01*
X60682095Y-63137285D02*
X60729714Y-62946809D01*
X60729714Y-62946809D02*
X60729714Y-62565857D01*
X60729714Y-62565857D02*
X60682095Y-62470619D01*
X60682095Y-62470619D02*
X60634476Y-62423000D01*
X60634476Y-62423000D02*
X60539238Y-62375380D01*
X60539238Y-62375380D02*
X60348762Y-62375380D01*
X60348762Y-62375380D02*
X60253524Y-62423000D01*
X60253524Y-62423000D02*
X60205905Y-62470619D01*
X60205905Y-62470619D02*
X60158286Y-62565857D01*
X60158286Y-62565857D02*
X60158286Y-62803952D01*
X60158286Y-62803952D02*
X60205905Y-62899190D01*
X60205905Y-62899190D02*
X60253524Y-62946809D01*
X60253524Y-62946809D02*
X60348762Y-62994428D01*
X60348762Y-62994428D02*
X60539238Y-62994428D01*
X60539238Y-62994428D02*
X60634476Y-62946809D01*
X60634476Y-62946809D02*
X60682095Y-62899190D01*
X60682095Y-62899190D02*
X60729714Y-62803952D01*
%TO.C,SW1*%
X45656667Y-41467761D02*
X45799524Y-41515380D01*
X45799524Y-41515380D02*
X46037619Y-41515380D01*
X46037619Y-41515380D02*
X46132857Y-41467761D01*
X46132857Y-41467761D02*
X46180476Y-41420142D01*
X46180476Y-41420142D02*
X46228095Y-41324904D01*
X46228095Y-41324904D02*
X46228095Y-41229666D01*
X46228095Y-41229666D02*
X46180476Y-41134428D01*
X46180476Y-41134428D02*
X46132857Y-41086809D01*
X46132857Y-41086809D02*
X46037619Y-41039190D01*
X46037619Y-41039190D02*
X45847143Y-40991571D01*
X45847143Y-40991571D02*
X45751905Y-40943952D01*
X45751905Y-40943952D02*
X45704286Y-40896333D01*
X45704286Y-40896333D02*
X45656667Y-40801095D01*
X45656667Y-40801095D02*
X45656667Y-40705857D01*
X45656667Y-40705857D02*
X45704286Y-40610619D01*
X45704286Y-40610619D02*
X45751905Y-40563000D01*
X45751905Y-40563000D02*
X45847143Y-40515380D01*
X45847143Y-40515380D02*
X46085238Y-40515380D01*
X46085238Y-40515380D02*
X46228095Y-40563000D01*
X46561429Y-40515380D02*
X46799524Y-41515380D01*
X46799524Y-41515380D02*
X46990000Y-40801095D01*
X46990000Y-40801095D02*
X47180476Y-41515380D01*
X47180476Y-41515380D02*
X47418572Y-40515380D01*
X48323333Y-41515380D02*
X47751905Y-41515380D01*
X48037619Y-41515380D02*
X48037619Y-40515380D01*
X48037619Y-40515380D02*
X47942381Y-40658238D01*
X47942381Y-40658238D02*
X47847143Y-40753476D01*
X47847143Y-40753476D02*
X47751905Y-40801095D01*
X45997905Y-45309571D02*
X46331238Y-45309571D01*
X46474095Y-45833380D02*
X45997905Y-45833380D01*
X45997905Y-45833380D02*
X45997905Y-44833380D01*
X45997905Y-44833380D02*
X46474095Y-44833380D01*
X46902667Y-45833380D02*
X46902667Y-44833380D01*
X46902667Y-44833380D02*
X47474095Y-45833380D01*
X47474095Y-45833380D02*
X47474095Y-44833380D01*
%TO.C,R2*%
X86701333Y-70725380D02*
X86368000Y-70249190D01*
X86129905Y-70725380D02*
X86129905Y-69725380D01*
X86129905Y-69725380D02*
X86510857Y-69725380D01*
X86510857Y-69725380D02*
X86606095Y-69773000D01*
X86606095Y-69773000D02*
X86653714Y-69820619D01*
X86653714Y-69820619D02*
X86701333Y-69915857D01*
X86701333Y-69915857D02*
X86701333Y-70058714D01*
X86701333Y-70058714D02*
X86653714Y-70153952D01*
X86653714Y-70153952D02*
X86606095Y-70201571D01*
X86606095Y-70201571D02*
X86510857Y-70249190D01*
X86510857Y-70249190D02*
X86129905Y-70249190D01*
X87082286Y-69820619D02*
X87129905Y-69773000D01*
X87129905Y-69773000D02*
X87225143Y-69725380D01*
X87225143Y-69725380D02*
X87463238Y-69725380D01*
X87463238Y-69725380D02*
X87558476Y-69773000D01*
X87558476Y-69773000D02*
X87606095Y-69820619D01*
X87606095Y-69820619D02*
X87653714Y-69915857D01*
X87653714Y-69915857D02*
X87653714Y-70011095D01*
X87653714Y-70011095D02*
X87606095Y-70153952D01*
X87606095Y-70153952D02*
X87034667Y-70725380D01*
X87034667Y-70725380D02*
X87653714Y-70725380D01*
%TO.C,Relais1*%
X64583380Y-75042381D02*
X64107190Y-75375714D01*
X64583380Y-75613809D02*
X63583380Y-75613809D01*
X63583380Y-75613809D02*
X63583380Y-75232857D01*
X63583380Y-75232857D02*
X63631000Y-75137619D01*
X63631000Y-75137619D02*
X63678619Y-75090000D01*
X63678619Y-75090000D02*
X63773857Y-75042381D01*
X63773857Y-75042381D02*
X63916714Y-75042381D01*
X63916714Y-75042381D02*
X64011952Y-75090000D01*
X64011952Y-75090000D02*
X64059571Y-75137619D01*
X64059571Y-75137619D02*
X64107190Y-75232857D01*
X64107190Y-75232857D02*
X64107190Y-75613809D01*
X64535761Y-74232857D02*
X64583380Y-74328095D01*
X64583380Y-74328095D02*
X64583380Y-74518571D01*
X64583380Y-74518571D02*
X64535761Y-74613809D01*
X64535761Y-74613809D02*
X64440523Y-74661428D01*
X64440523Y-74661428D02*
X64059571Y-74661428D01*
X64059571Y-74661428D02*
X63964333Y-74613809D01*
X63964333Y-74613809D02*
X63916714Y-74518571D01*
X63916714Y-74518571D02*
X63916714Y-74328095D01*
X63916714Y-74328095D02*
X63964333Y-74232857D01*
X63964333Y-74232857D02*
X64059571Y-74185238D01*
X64059571Y-74185238D02*
X64154809Y-74185238D01*
X64154809Y-74185238D02*
X64250047Y-74661428D01*
X64583380Y-73613809D02*
X64535761Y-73709047D01*
X64535761Y-73709047D02*
X64440523Y-73756666D01*
X64440523Y-73756666D02*
X63583380Y-73756666D01*
X64583380Y-72804285D02*
X64059571Y-72804285D01*
X64059571Y-72804285D02*
X63964333Y-72851904D01*
X63964333Y-72851904D02*
X63916714Y-72947142D01*
X63916714Y-72947142D02*
X63916714Y-73137618D01*
X63916714Y-73137618D02*
X63964333Y-73232856D01*
X64535761Y-72804285D02*
X64583380Y-72899523D01*
X64583380Y-72899523D02*
X64583380Y-73137618D01*
X64583380Y-73137618D02*
X64535761Y-73232856D01*
X64535761Y-73232856D02*
X64440523Y-73280475D01*
X64440523Y-73280475D02*
X64345285Y-73280475D01*
X64345285Y-73280475D02*
X64250047Y-73232856D01*
X64250047Y-73232856D02*
X64202428Y-73137618D01*
X64202428Y-73137618D02*
X64202428Y-72899523D01*
X64202428Y-72899523D02*
X64154809Y-72804285D01*
X64583380Y-72328094D02*
X63916714Y-72328094D01*
X63583380Y-72328094D02*
X63631000Y-72375713D01*
X63631000Y-72375713D02*
X63678619Y-72328094D01*
X63678619Y-72328094D02*
X63631000Y-72280475D01*
X63631000Y-72280475D02*
X63583380Y-72328094D01*
X63583380Y-72328094D02*
X63678619Y-72328094D01*
X64535761Y-71899523D02*
X64583380Y-71804285D01*
X64583380Y-71804285D02*
X64583380Y-71613809D01*
X64583380Y-71613809D02*
X64535761Y-71518571D01*
X64535761Y-71518571D02*
X64440523Y-71470952D01*
X64440523Y-71470952D02*
X64392904Y-71470952D01*
X64392904Y-71470952D02*
X64297666Y-71518571D01*
X64297666Y-71518571D02*
X64250047Y-71613809D01*
X64250047Y-71613809D02*
X64250047Y-71756666D01*
X64250047Y-71756666D02*
X64202428Y-71851904D01*
X64202428Y-71851904D02*
X64107190Y-71899523D01*
X64107190Y-71899523D02*
X64059571Y-71899523D01*
X64059571Y-71899523D02*
X63964333Y-71851904D01*
X63964333Y-71851904D02*
X63916714Y-71756666D01*
X63916714Y-71756666D02*
X63916714Y-71613809D01*
X63916714Y-71613809D02*
X63964333Y-71518571D01*
X64583380Y-70518571D02*
X64583380Y-71089999D01*
X64583380Y-70804285D02*
X63583380Y-70804285D01*
X63583380Y-70804285D02*
X63726238Y-70899523D01*
X63726238Y-70899523D02*
X63821476Y-70994761D01*
X63821476Y-70994761D02*
X63869095Y-71089999D01*
%TO.C,R5*%
X79589333Y-48119380D02*
X79256000Y-47643190D01*
X79017905Y-48119380D02*
X79017905Y-47119380D01*
X79017905Y-47119380D02*
X79398857Y-47119380D01*
X79398857Y-47119380D02*
X79494095Y-47167000D01*
X79494095Y-47167000D02*
X79541714Y-47214619D01*
X79541714Y-47214619D02*
X79589333Y-47309857D01*
X79589333Y-47309857D02*
X79589333Y-47452714D01*
X79589333Y-47452714D02*
X79541714Y-47547952D01*
X79541714Y-47547952D02*
X79494095Y-47595571D01*
X79494095Y-47595571D02*
X79398857Y-47643190D01*
X79398857Y-47643190D02*
X79017905Y-47643190D01*
X80494095Y-47119380D02*
X80017905Y-47119380D01*
X80017905Y-47119380D02*
X79970286Y-47595571D01*
X79970286Y-47595571D02*
X80017905Y-47547952D01*
X80017905Y-47547952D02*
X80113143Y-47500333D01*
X80113143Y-47500333D02*
X80351238Y-47500333D01*
X80351238Y-47500333D02*
X80446476Y-47547952D01*
X80446476Y-47547952D02*
X80494095Y-47595571D01*
X80494095Y-47595571D02*
X80541714Y-47690809D01*
X80541714Y-47690809D02*
X80541714Y-47928904D01*
X80541714Y-47928904D02*
X80494095Y-48024142D01*
X80494095Y-48024142D02*
X80446476Y-48071761D01*
X80446476Y-48071761D02*
X80351238Y-48119380D01*
X80351238Y-48119380D02*
X80113143Y-48119380D01*
X80113143Y-48119380D02*
X80017905Y-48071761D01*
X80017905Y-48071761D02*
X79970286Y-48024142D01*
%TO.C,START1*%
X66381619Y-79821761D02*
X66524476Y-79869380D01*
X66524476Y-79869380D02*
X66762571Y-79869380D01*
X66762571Y-79869380D02*
X66857809Y-79821761D01*
X66857809Y-79821761D02*
X66905428Y-79774142D01*
X66905428Y-79774142D02*
X66953047Y-79678904D01*
X66953047Y-79678904D02*
X66953047Y-79583666D01*
X66953047Y-79583666D02*
X66905428Y-79488428D01*
X66905428Y-79488428D02*
X66857809Y-79440809D01*
X66857809Y-79440809D02*
X66762571Y-79393190D01*
X66762571Y-79393190D02*
X66572095Y-79345571D01*
X66572095Y-79345571D02*
X66476857Y-79297952D01*
X66476857Y-79297952D02*
X66429238Y-79250333D01*
X66429238Y-79250333D02*
X66381619Y-79155095D01*
X66381619Y-79155095D02*
X66381619Y-79059857D01*
X66381619Y-79059857D02*
X66429238Y-78964619D01*
X66429238Y-78964619D02*
X66476857Y-78917000D01*
X66476857Y-78917000D02*
X66572095Y-78869380D01*
X66572095Y-78869380D02*
X66810190Y-78869380D01*
X66810190Y-78869380D02*
X66953047Y-78917000D01*
X67238762Y-78869380D02*
X67810190Y-78869380D01*
X67524476Y-79869380D02*
X67524476Y-78869380D01*
X68095905Y-79583666D02*
X68572095Y-79583666D01*
X68000667Y-79869380D02*
X68334000Y-78869380D01*
X68334000Y-78869380D02*
X68667333Y-79869380D01*
X69572095Y-79869380D02*
X69238762Y-79393190D01*
X69000667Y-79869380D02*
X69000667Y-78869380D01*
X69000667Y-78869380D02*
X69381619Y-78869380D01*
X69381619Y-78869380D02*
X69476857Y-78917000D01*
X69476857Y-78917000D02*
X69524476Y-78964619D01*
X69524476Y-78964619D02*
X69572095Y-79059857D01*
X69572095Y-79059857D02*
X69572095Y-79202714D01*
X69572095Y-79202714D02*
X69524476Y-79297952D01*
X69524476Y-79297952D02*
X69476857Y-79345571D01*
X69476857Y-79345571D02*
X69381619Y-79393190D01*
X69381619Y-79393190D02*
X69000667Y-79393190D01*
X69857810Y-78869380D02*
X70429238Y-78869380D01*
X70143524Y-79869380D02*
X70143524Y-78869380D01*
X71286381Y-79869380D02*
X70714953Y-79869380D01*
X71000667Y-79869380D02*
X71000667Y-78869380D01*
X71000667Y-78869380D02*
X70905429Y-79012238D01*
X70905429Y-79012238D02*
X70810191Y-79107476D01*
X70810191Y-79107476D02*
X70714953Y-79155095D01*
%TO.C,R3*%
X79081333Y-58787380D02*
X78748000Y-58311190D01*
X78509905Y-58787380D02*
X78509905Y-57787380D01*
X78509905Y-57787380D02*
X78890857Y-57787380D01*
X78890857Y-57787380D02*
X78986095Y-57835000D01*
X78986095Y-57835000D02*
X79033714Y-57882619D01*
X79033714Y-57882619D02*
X79081333Y-57977857D01*
X79081333Y-57977857D02*
X79081333Y-58120714D01*
X79081333Y-58120714D02*
X79033714Y-58215952D01*
X79033714Y-58215952D02*
X78986095Y-58263571D01*
X78986095Y-58263571D02*
X78890857Y-58311190D01*
X78890857Y-58311190D02*
X78509905Y-58311190D01*
X79414667Y-57787380D02*
X80033714Y-57787380D01*
X80033714Y-57787380D02*
X79700381Y-58168333D01*
X79700381Y-58168333D02*
X79843238Y-58168333D01*
X79843238Y-58168333D02*
X79938476Y-58215952D01*
X79938476Y-58215952D02*
X79986095Y-58263571D01*
X79986095Y-58263571D02*
X80033714Y-58358809D01*
X80033714Y-58358809D02*
X80033714Y-58596904D01*
X80033714Y-58596904D02*
X79986095Y-58692142D01*
X79986095Y-58692142D02*
X79938476Y-58739761D01*
X79938476Y-58739761D02*
X79843238Y-58787380D01*
X79843238Y-58787380D02*
X79557524Y-58787380D01*
X79557524Y-58787380D02*
X79462286Y-58739761D01*
X79462286Y-58739761D02*
X79414667Y-58692142D01*
%TO.C,R6*%
X79589333Y-50659380D02*
X79256000Y-50183190D01*
X79017905Y-50659380D02*
X79017905Y-49659380D01*
X79017905Y-49659380D02*
X79398857Y-49659380D01*
X79398857Y-49659380D02*
X79494095Y-49707000D01*
X79494095Y-49707000D02*
X79541714Y-49754619D01*
X79541714Y-49754619D02*
X79589333Y-49849857D01*
X79589333Y-49849857D02*
X79589333Y-49992714D01*
X79589333Y-49992714D02*
X79541714Y-50087952D01*
X79541714Y-50087952D02*
X79494095Y-50135571D01*
X79494095Y-50135571D02*
X79398857Y-50183190D01*
X79398857Y-50183190D02*
X79017905Y-50183190D01*
X80446476Y-49659380D02*
X80256000Y-49659380D01*
X80256000Y-49659380D02*
X80160762Y-49707000D01*
X80160762Y-49707000D02*
X80113143Y-49754619D01*
X80113143Y-49754619D02*
X80017905Y-49897476D01*
X80017905Y-49897476D02*
X79970286Y-50087952D01*
X79970286Y-50087952D02*
X79970286Y-50468904D01*
X79970286Y-50468904D02*
X80017905Y-50564142D01*
X80017905Y-50564142D02*
X80065524Y-50611761D01*
X80065524Y-50611761D02*
X80160762Y-50659380D01*
X80160762Y-50659380D02*
X80351238Y-50659380D01*
X80351238Y-50659380D02*
X80446476Y-50611761D01*
X80446476Y-50611761D02*
X80494095Y-50564142D01*
X80494095Y-50564142D02*
X80541714Y-50468904D01*
X80541714Y-50468904D02*
X80541714Y-50230809D01*
X80541714Y-50230809D02*
X80494095Y-50135571D01*
X80494095Y-50135571D02*
X80446476Y-50087952D01*
X80446476Y-50087952D02*
X80351238Y-50040333D01*
X80351238Y-50040333D02*
X80160762Y-50040333D01*
X80160762Y-50040333D02*
X80065524Y-50087952D01*
X80065524Y-50087952D02*
X80017905Y-50135571D01*
X80017905Y-50135571D02*
X79970286Y-50230809D01*
%TO.C,ULTRASONIC-SENSOR1*%
X92077380Y-75111523D02*
X92886904Y-75111523D01*
X92886904Y-75111523D02*
X92982142Y-75063904D01*
X92982142Y-75063904D02*
X93029761Y-75016285D01*
X93029761Y-75016285D02*
X93077380Y-74921047D01*
X93077380Y-74921047D02*
X93077380Y-74730571D01*
X93077380Y-74730571D02*
X93029761Y-74635333D01*
X93029761Y-74635333D02*
X92982142Y-74587714D01*
X92982142Y-74587714D02*
X92886904Y-74540095D01*
X92886904Y-74540095D02*
X92077380Y-74540095D01*
X93077380Y-73587714D02*
X93077380Y-74063904D01*
X93077380Y-74063904D02*
X92077380Y-74063904D01*
X92077380Y-73397237D02*
X92077380Y-72825809D01*
X93077380Y-73111523D02*
X92077380Y-73111523D01*
X93077380Y-71921047D02*
X92601190Y-72254380D01*
X93077380Y-72492475D02*
X92077380Y-72492475D01*
X92077380Y-72492475D02*
X92077380Y-72111523D01*
X92077380Y-72111523D02*
X92125000Y-72016285D01*
X92125000Y-72016285D02*
X92172619Y-71968666D01*
X92172619Y-71968666D02*
X92267857Y-71921047D01*
X92267857Y-71921047D02*
X92410714Y-71921047D01*
X92410714Y-71921047D02*
X92505952Y-71968666D01*
X92505952Y-71968666D02*
X92553571Y-72016285D01*
X92553571Y-72016285D02*
X92601190Y-72111523D01*
X92601190Y-72111523D02*
X92601190Y-72492475D01*
X92791666Y-71540094D02*
X92791666Y-71063904D01*
X93077380Y-71635332D02*
X92077380Y-71301999D01*
X92077380Y-71301999D02*
X93077380Y-70968666D01*
X93029761Y-70682951D02*
X93077380Y-70540094D01*
X93077380Y-70540094D02*
X93077380Y-70301999D01*
X93077380Y-70301999D02*
X93029761Y-70206761D01*
X93029761Y-70206761D02*
X92982142Y-70159142D01*
X92982142Y-70159142D02*
X92886904Y-70111523D01*
X92886904Y-70111523D02*
X92791666Y-70111523D01*
X92791666Y-70111523D02*
X92696428Y-70159142D01*
X92696428Y-70159142D02*
X92648809Y-70206761D01*
X92648809Y-70206761D02*
X92601190Y-70301999D01*
X92601190Y-70301999D02*
X92553571Y-70492475D01*
X92553571Y-70492475D02*
X92505952Y-70587713D01*
X92505952Y-70587713D02*
X92458333Y-70635332D01*
X92458333Y-70635332D02*
X92363095Y-70682951D01*
X92363095Y-70682951D02*
X92267857Y-70682951D01*
X92267857Y-70682951D02*
X92172619Y-70635332D01*
X92172619Y-70635332D02*
X92125000Y-70587713D01*
X92125000Y-70587713D02*
X92077380Y-70492475D01*
X92077380Y-70492475D02*
X92077380Y-70254380D01*
X92077380Y-70254380D02*
X92125000Y-70111523D01*
X92077380Y-69492475D02*
X92077380Y-69301999D01*
X92077380Y-69301999D02*
X92125000Y-69206761D01*
X92125000Y-69206761D02*
X92220238Y-69111523D01*
X92220238Y-69111523D02*
X92410714Y-69063904D01*
X92410714Y-69063904D02*
X92744047Y-69063904D01*
X92744047Y-69063904D02*
X92934523Y-69111523D01*
X92934523Y-69111523D02*
X93029761Y-69206761D01*
X93029761Y-69206761D02*
X93077380Y-69301999D01*
X93077380Y-69301999D02*
X93077380Y-69492475D01*
X93077380Y-69492475D02*
X93029761Y-69587713D01*
X93029761Y-69587713D02*
X92934523Y-69682951D01*
X92934523Y-69682951D02*
X92744047Y-69730570D01*
X92744047Y-69730570D02*
X92410714Y-69730570D01*
X92410714Y-69730570D02*
X92220238Y-69682951D01*
X92220238Y-69682951D02*
X92125000Y-69587713D01*
X92125000Y-69587713D02*
X92077380Y-69492475D01*
X93077380Y-68635332D02*
X92077380Y-68635332D01*
X92077380Y-68635332D02*
X93077380Y-68063904D01*
X93077380Y-68063904D02*
X92077380Y-68063904D01*
X93077380Y-67587713D02*
X92077380Y-67587713D01*
X92982142Y-66540095D02*
X93029761Y-66587714D01*
X93029761Y-66587714D02*
X93077380Y-66730571D01*
X93077380Y-66730571D02*
X93077380Y-66825809D01*
X93077380Y-66825809D02*
X93029761Y-66968666D01*
X93029761Y-66968666D02*
X92934523Y-67063904D01*
X92934523Y-67063904D02*
X92839285Y-67111523D01*
X92839285Y-67111523D02*
X92648809Y-67159142D01*
X92648809Y-67159142D02*
X92505952Y-67159142D01*
X92505952Y-67159142D02*
X92315476Y-67111523D01*
X92315476Y-67111523D02*
X92220238Y-67063904D01*
X92220238Y-67063904D02*
X92125000Y-66968666D01*
X92125000Y-66968666D02*
X92077380Y-66825809D01*
X92077380Y-66825809D02*
X92077380Y-66730571D01*
X92077380Y-66730571D02*
X92125000Y-66587714D01*
X92125000Y-66587714D02*
X92172619Y-66540095D01*
X92696428Y-66111523D02*
X92696428Y-65349619D01*
X93029761Y-64921047D02*
X93077380Y-64778190D01*
X93077380Y-64778190D02*
X93077380Y-64540095D01*
X93077380Y-64540095D02*
X93029761Y-64444857D01*
X93029761Y-64444857D02*
X92982142Y-64397238D01*
X92982142Y-64397238D02*
X92886904Y-64349619D01*
X92886904Y-64349619D02*
X92791666Y-64349619D01*
X92791666Y-64349619D02*
X92696428Y-64397238D01*
X92696428Y-64397238D02*
X92648809Y-64444857D01*
X92648809Y-64444857D02*
X92601190Y-64540095D01*
X92601190Y-64540095D02*
X92553571Y-64730571D01*
X92553571Y-64730571D02*
X92505952Y-64825809D01*
X92505952Y-64825809D02*
X92458333Y-64873428D01*
X92458333Y-64873428D02*
X92363095Y-64921047D01*
X92363095Y-64921047D02*
X92267857Y-64921047D01*
X92267857Y-64921047D02*
X92172619Y-64873428D01*
X92172619Y-64873428D02*
X92125000Y-64825809D01*
X92125000Y-64825809D02*
X92077380Y-64730571D01*
X92077380Y-64730571D02*
X92077380Y-64492476D01*
X92077380Y-64492476D02*
X92125000Y-64349619D01*
X92553571Y-63921047D02*
X92553571Y-63587714D01*
X93077380Y-63444857D02*
X93077380Y-63921047D01*
X93077380Y-63921047D02*
X92077380Y-63921047D01*
X92077380Y-63921047D02*
X92077380Y-63444857D01*
X93077380Y-63016285D02*
X92077380Y-63016285D01*
X92077380Y-63016285D02*
X93077380Y-62444857D01*
X93077380Y-62444857D02*
X92077380Y-62444857D01*
X93029761Y-62016285D02*
X93077380Y-61873428D01*
X93077380Y-61873428D02*
X93077380Y-61635333D01*
X93077380Y-61635333D02*
X93029761Y-61540095D01*
X93029761Y-61540095D02*
X92982142Y-61492476D01*
X92982142Y-61492476D02*
X92886904Y-61444857D01*
X92886904Y-61444857D02*
X92791666Y-61444857D01*
X92791666Y-61444857D02*
X92696428Y-61492476D01*
X92696428Y-61492476D02*
X92648809Y-61540095D01*
X92648809Y-61540095D02*
X92601190Y-61635333D01*
X92601190Y-61635333D02*
X92553571Y-61825809D01*
X92553571Y-61825809D02*
X92505952Y-61921047D01*
X92505952Y-61921047D02*
X92458333Y-61968666D01*
X92458333Y-61968666D02*
X92363095Y-62016285D01*
X92363095Y-62016285D02*
X92267857Y-62016285D01*
X92267857Y-62016285D02*
X92172619Y-61968666D01*
X92172619Y-61968666D02*
X92125000Y-61921047D01*
X92125000Y-61921047D02*
X92077380Y-61825809D01*
X92077380Y-61825809D02*
X92077380Y-61587714D01*
X92077380Y-61587714D02*
X92125000Y-61444857D01*
X92077380Y-60825809D02*
X92077380Y-60635333D01*
X92077380Y-60635333D02*
X92125000Y-60540095D01*
X92125000Y-60540095D02*
X92220238Y-60444857D01*
X92220238Y-60444857D02*
X92410714Y-60397238D01*
X92410714Y-60397238D02*
X92744047Y-60397238D01*
X92744047Y-60397238D02*
X92934523Y-60444857D01*
X92934523Y-60444857D02*
X93029761Y-60540095D01*
X93029761Y-60540095D02*
X93077380Y-60635333D01*
X93077380Y-60635333D02*
X93077380Y-60825809D01*
X93077380Y-60825809D02*
X93029761Y-60921047D01*
X93029761Y-60921047D02*
X92934523Y-61016285D01*
X92934523Y-61016285D02*
X92744047Y-61063904D01*
X92744047Y-61063904D02*
X92410714Y-61063904D01*
X92410714Y-61063904D02*
X92220238Y-61016285D01*
X92220238Y-61016285D02*
X92125000Y-60921047D01*
X92125000Y-60921047D02*
X92077380Y-60825809D01*
X93077380Y-59397238D02*
X92601190Y-59730571D01*
X93077380Y-59968666D02*
X92077380Y-59968666D01*
X92077380Y-59968666D02*
X92077380Y-59587714D01*
X92077380Y-59587714D02*
X92125000Y-59492476D01*
X92125000Y-59492476D02*
X92172619Y-59444857D01*
X92172619Y-59444857D02*
X92267857Y-59397238D01*
X92267857Y-59397238D02*
X92410714Y-59397238D01*
X92410714Y-59397238D02*
X92505952Y-59444857D01*
X92505952Y-59444857D02*
X92553571Y-59492476D01*
X92553571Y-59492476D02*
X92601190Y-59587714D01*
X92601190Y-59587714D02*
X92601190Y-59968666D01*
X93077380Y-58444857D02*
X93077380Y-59016285D01*
X93077380Y-58730571D02*
X92077380Y-58730571D01*
X92077380Y-58730571D02*
X92220238Y-58825809D01*
X92220238Y-58825809D02*
X92315476Y-58921047D01*
X92315476Y-58921047D02*
X92363095Y-59016285D01*
%TO.C,R17*%
X78351142Y-65645380D02*
X78017809Y-65169190D01*
X77779714Y-65645380D02*
X77779714Y-64645380D01*
X77779714Y-64645380D02*
X78160666Y-64645380D01*
X78160666Y-64645380D02*
X78255904Y-64693000D01*
X78255904Y-64693000D02*
X78303523Y-64740619D01*
X78303523Y-64740619D02*
X78351142Y-64835857D01*
X78351142Y-64835857D02*
X78351142Y-64978714D01*
X78351142Y-64978714D02*
X78303523Y-65073952D01*
X78303523Y-65073952D02*
X78255904Y-65121571D01*
X78255904Y-65121571D02*
X78160666Y-65169190D01*
X78160666Y-65169190D02*
X77779714Y-65169190D01*
X79303523Y-65645380D02*
X78732095Y-65645380D01*
X79017809Y-65645380D02*
X79017809Y-64645380D01*
X79017809Y-64645380D02*
X78922571Y-64788238D01*
X78922571Y-64788238D02*
X78827333Y-64883476D01*
X78827333Y-64883476D02*
X78732095Y-64931095D01*
X79636857Y-64645380D02*
X80303523Y-64645380D01*
X80303523Y-64645380D02*
X79874952Y-65645380D01*
%TO.C,Q2*%
X87280761Y-56596619D02*
X87185523Y-56549000D01*
X87185523Y-56549000D02*
X87090285Y-56453761D01*
X87090285Y-56453761D02*
X86947428Y-56310904D01*
X86947428Y-56310904D02*
X86852190Y-56263285D01*
X86852190Y-56263285D02*
X86756952Y-56263285D01*
X86804571Y-56501380D02*
X86709333Y-56453761D01*
X86709333Y-56453761D02*
X86614095Y-56358523D01*
X86614095Y-56358523D02*
X86566476Y-56168047D01*
X86566476Y-56168047D02*
X86566476Y-55834714D01*
X86566476Y-55834714D02*
X86614095Y-55644238D01*
X86614095Y-55644238D02*
X86709333Y-55549000D01*
X86709333Y-55549000D02*
X86804571Y-55501380D01*
X86804571Y-55501380D02*
X86995047Y-55501380D01*
X86995047Y-55501380D02*
X87090285Y-55549000D01*
X87090285Y-55549000D02*
X87185523Y-55644238D01*
X87185523Y-55644238D02*
X87233142Y-55834714D01*
X87233142Y-55834714D02*
X87233142Y-56168047D01*
X87233142Y-56168047D02*
X87185523Y-56358523D01*
X87185523Y-56358523D02*
X87090285Y-56453761D01*
X87090285Y-56453761D02*
X86995047Y-56501380D01*
X86995047Y-56501380D02*
X86804571Y-56501380D01*
X87614095Y-55596619D02*
X87661714Y-55549000D01*
X87661714Y-55549000D02*
X87756952Y-55501380D01*
X87756952Y-55501380D02*
X87995047Y-55501380D01*
X87995047Y-55501380D02*
X88090285Y-55549000D01*
X88090285Y-55549000D02*
X88137904Y-55596619D01*
X88137904Y-55596619D02*
X88185523Y-55691857D01*
X88185523Y-55691857D02*
X88185523Y-55787095D01*
X88185523Y-55787095D02*
X88137904Y-55929952D01*
X88137904Y-55929952D02*
X87566476Y-56501380D01*
X87566476Y-56501380D02*
X88185523Y-56501380D01*
%TO.C,R14*%
X48379142Y-49389380D02*
X48045809Y-48913190D01*
X47807714Y-49389380D02*
X47807714Y-48389380D01*
X47807714Y-48389380D02*
X48188666Y-48389380D01*
X48188666Y-48389380D02*
X48283904Y-48437000D01*
X48283904Y-48437000D02*
X48331523Y-48484619D01*
X48331523Y-48484619D02*
X48379142Y-48579857D01*
X48379142Y-48579857D02*
X48379142Y-48722714D01*
X48379142Y-48722714D02*
X48331523Y-48817952D01*
X48331523Y-48817952D02*
X48283904Y-48865571D01*
X48283904Y-48865571D02*
X48188666Y-48913190D01*
X48188666Y-48913190D02*
X47807714Y-48913190D01*
X49331523Y-49389380D02*
X48760095Y-49389380D01*
X49045809Y-49389380D02*
X49045809Y-48389380D01*
X49045809Y-48389380D02*
X48950571Y-48532238D01*
X48950571Y-48532238D02*
X48855333Y-48627476D01*
X48855333Y-48627476D02*
X48760095Y-48675095D01*
X50188666Y-48722714D02*
X50188666Y-49389380D01*
X49950571Y-48341761D02*
X49712476Y-49056047D01*
X49712476Y-49056047D02*
X50331523Y-49056047D01*
%TO.C,R8*%
X48982333Y-54215380D02*
X48649000Y-53739190D01*
X48410905Y-54215380D02*
X48410905Y-53215380D01*
X48410905Y-53215380D02*
X48791857Y-53215380D01*
X48791857Y-53215380D02*
X48887095Y-53263000D01*
X48887095Y-53263000D02*
X48934714Y-53310619D01*
X48934714Y-53310619D02*
X48982333Y-53405857D01*
X48982333Y-53405857D02*
X48982333Y-53548714D01*
X48982333Y-53548714D02*
X48934714Y-53643952D01*
X48934714Y-53643952D02*
X48887095Y-53691571D01*
X48887095Y-53691571D02*
X48791857Y-53739190D01*
X48791857Y-53739190D02*
X48410905Y-53739190D01*
X49553762Y-53643952D02*
X49458524Y-53596333D01*
X49458524Y-53596333D02*
X49410905Y-53548714D01*
X49410905Y-53548714D02*
X49363286Y-53453476D01*
X49363286Y-53453476D02*
X49363286Y-53405857D01*
X49363286Y-53405857D02*
X49410905Y-53310619D01*
X49410905Y-53310619D02*
X49458524Y-53263000D01*
X49458524Y-53263000D02*
X49553762Y-53215380D01*
X49553762Y-53215380D02*
X49744238Y-53215380D01*
X49744238Y-53215380D02*
X49839476Y-53263000D01*
X49839476Y-53263000D02*
X49887095Y-53310619D01*
X49887095Y-53310619D02*
X49934714Y-53405857D01*
X49934714Y-53405857D02*
X49934714Y-53453476D01*
X49934714Y-53453476D02*
X49887095Y-53548714D01*
X49887095Y-53548714D02*
X49839476Y-53596333D01*
X49839476Y-53596333D02*
X49744238Y-53643952D01*
X49744238Y-53643952D02*
X49553762Y-53643952D01*
X49553762Y-53643952D02*
X49458524Y-53691571D01*
X49458524Y-53691571D02*
X49410905Y-53739190D01*
X49410905Y-53739190D02*
X49363286Y-53834428D01*
X49363286Y-53834428D02*
X49363286Y-54024904D01*
X49363286Y-54024904D02*
X49410905Y-54120142D01*
X49410905Y-54120142D02*
X49458524Y-54167761D01*
X49458524Y-54167761D02*
X49553762Y-54215380D01*
X49553762Y-54215380D02*
X49744238Y-54215380D01*
X49744238Y-54215380D02*
X49839476Y-54167761D01*
X49839476Y-54167761D02*
X49887095Y-54120142D01*
X49887095Y-54120142D02*
X49934714Y-54024904D01*
X49934714Y-54024904D02*
X49934714Y-53834428D01*
X49934714Y-53834428D02*
X49887095Y-53739190D01*
X49887095Y-53739190D02*
X49839476Y-53691571D01*
X49839476Y-53691571D02*
X49744238Y-53643952D01*
%TO.C,Q1*%
X83343761Y-64724619D02*
X83248523Y-64677000D01*
X83248523Y-64677000D02*
X83153285Y-64581761D01*
X83153285Y-64581761D02*
X83010428Y-64438904D01*
X83010428Y-64438904D02*
X82915190Y-64391285D01*
X82915190Y-64391285D02*
X82819952Y-64391285D01*
X82867571Y-64629380D02*
X82772333Y-64581761D01*
X82772333Y-64581761D02*
X82677095Y-64486523D01*
X82677095Y-64486523D02*
X82629476Y-64296047D01*
X82629476Y-64296047D02*
X82629476Y-63962714D01*
X82629476Y-63962714D02*
X82677095Y-63772238D01*
X82677095Y-63772238D02*
X82772333Y-63677000D01*
X82772333Y-63677000D02*
X82867571Y-63629380D01*
X82867571Y-63629380D02*
X83058047Y-63629380D01*
X83058047Y-63629380D02*
X83153285Y-63677000D01*
X83153285Y-63677000D02*
X83248523Y-63772238D01*
X83248523Y-63772238D02*
X83296142Y-63962714D01*
X83296142Y-63962714D02*
X83296142Y-64296047D01*
X83296142Y-64296047D02*
X83248523Y-64486523D01*
X83248523Y-64486523D02*
X83153285Y-64581761D01*
X83153285Y-64581761D02*
X83058047Y-64629380D01*
X83058047Y-64629380D02*
X82867571Y-64629380D01*
X84248523Y-64629380D02*
X83677095Y-64629380D01*
X83962809Y-64629380D02*
X83962809Y-63629380D01*
X83962809Y-63629380D02*
X83867571Y-63772238D01*
X83867571Y-63772238D02*
X83772333Y-63867476D01*
X83772333Y-63867476D02*
X83677095Y-63915095D01*
%TO.C,LED2*%
X86219380Y-50903047D02*
X86219380Y-51379237D01*
X86219380Y-51379237D02*
X85219380Y-51379237D01*
X85695571Y-50569713D02*
X85695571Y-50236380D01*
X86219380Y-50093523D02*
X86219380Y-50569713D01*
X86219380Y-50569713D02*
X85219380Y-50569713D01*
X85219380Y-50569713D02*
X85219380Y-50093523D01*
X86219380Y-49664951D02*
X85219380Y-49664951D01*
X85219380Y-49664951D02*
X85219380Y-49426856D01*
X85219380Y-49426856D02*
X85267000Y-49283999D01*
X85267000Y-49283999D02*
X85362238Y-49188761D01*
X85362238Y-49188761D02*
X85457476Y-49141142D01*
X85457476Y-49141142D02*
X85647952Y-49093523D01*
X85647952Y-49093523D02*
X85790809Y-49093523D01*
X85790809Y-49093523D02*
X85981285Y-49141142D01*
X85981285Y-49141142D02*
X86076523Y-49188761D01*
X86076523Y-49188761D02*
X86171761Y-49283999D01*
X86171761Y-49283999D02*
X86219380Y-49426856D01*
X86219380Y-49426856D02*
X86219380Y-49664951D01*
X85314619Y-48712570D02*
X85267000Y-48664951D01*
X85267000Y-48664951D02*
X85219380Y-48569713D01*
X85219380Y-48569713D02*
X85219380Y-48331618D01*
X85219380Y-48331618D02*
X85267000Y-48236380D01*
X85267000Y-48236380D02*
X85314619Y-48188761D01*
X85314619Y-48188761D02*
X85409857Y-48141142D01*
X85409857Y-48141142D02*
X85505095Y-48141142D01*
X85505095Y-48141142D02*
X85647952Y-48188761D01*
X85647952Y-48188761D02*
X86219380Y-48760189D01*
X86219380Y-48760189D02*
X86219380Y-48141142D01*
%TO.C,R7*%
X79589333Y-53199380D02*
X79256000Y-52723190D01*
X79017905Y-53199380D02*
X79017905Y-52199380D01*
X79017905Y-52199380D02*
X79398857Y-52199380D01*
X79398857Y-52199380D02*
X79494095Y-52247000D01*
X79494095Y-52247000D02*
X79541714Y-52294619D01*
X79541714Y-52294619D02*
X79589333Y-52389857D01*
X79589333Y-52389857D02*
X79589333Y-52532714D01*
X79589333Y-52532714D02*
X79541714Y-52627952D01*
X79541714Y-52627952D02*
X79494095Y-52675571D01*
X79494095Y-52675571D02*
X79398857Y-52723190D01*
X79398857Y-52723190D02*
X79017905Y-52723190D01*
X79922667Y-52199380D02*
X80589333Y-52199380D01*
X80589333Y-52199380D02*
X80160762Y-53199380D01*
%TO.C,D3*%
X48283905Y-51675380D02*
X48283905Y-50675380D01*
X48283905Y-50675380D02*
X48522000Y-50675380D01*
X48522000Y-50675380D02*
X48664857Y-50723000D01*
X48664857Y-50723000D02*
X48760095Y-50818238D01*
X48760095Y-50818238D02*
X48807714Y-50913476D01*
X48807714Y-50913476D02*
X48855333Y-51103952D01*
X48855333Y-51103952D02*
X48855333Y-51246809D01*
X48855333Y-51246809D02*
X48807714Y-51437285D01*
X48807714Y-51437285D02*
X48760095Y-51532523D01*
X48760095Y-51532523D02*
X48664857Y-51627761D01*
X48664857Y-51627761D02*
X48522000Y-51675380D01*
X48522000Y-51675380D02*
X48283905Y-51675380D01*
X49188667Y-50675380D02*
X49807714Y-50675380D01*
X49807714Y-50675380D02*
X49474381Y-51056333D01*
X49474381Y-51056333D02*
X49617238Y-51056333D01*
X49617238Y-51056333D02*
X49712476Y-51103952D01*
X49712476Y-51103952D02*
X49760095Y-51151571D01*
X49760095Y-51151571D02*
X49807714Y-51246809D01*
X49807714Y-51246809D02*
X49807714Y-51484904D01*
X49807714Y-51484904D02*
X49760095Y-51580142D01*
X49760095Y-51580142D02*
X49712476Y-51627761D01*
X49712476Y-51627761D02*
X49617238Y-51675380D01*
X49617238Y-51675380D02*
X49331524Y-51675380D01*
X49331524Y-51675380D02*
X49236286Y-51627761D01*
X49236286Y-51627761D02*
X49188667Y-51580142D01*
%TO.C,C1*%
X49363333Y-40658142D02*
X49315714Y-40705761D01*
X49315714Y-40705761D02*
X49172857Y-40753380D01*
X49172857Y-40753380D02*
X49077619Y-40753380D01*
X49077619Y-40753380D02*
X48934762Y-40705761D01*
X48934762Y-40705761D02*
X48839524Y-40610523D01*
X48839524Y-40610523D02*
X48791905Y-40515285D01*
X48791905Y-40515285D02*
X48744286Y-40324809D01*
X48744286Y-40324809D02*
X48744286Y-40181952D01*
X48744286Y-40181952D02*
X48791905Y-39991476D01*
X48791905Y-39991476D02*
X48839524Y-39896238D01*
X48839524Y-39896238D02*
X48934762Y-39801000D01*
X48934762Y-39801000D02*
X49077619Y-39753380D01*
X49077619Y-39753380D02*
X49172857Y-39753380D01*
X49172857Y-39753380D02*
X49315714Y-39801000D01*
X49315714Y-39801000D02*
X49363333Y-39848619D01*
X50315714Y-40753380D02*
X49744286Y-40753380D01*
X50030000Y-40753380D02*
X50030000Y-39753380D01*
X50030000Y-39753380D02*
X49934762Y-39896238D01*
X49934762Y-39896238D02*
X49839524Y-39991476D01*
X49839524Y-39991476D02*
X49744286Y-40039095D01*
%TO.C,R4*%
X89495333Y-56247380D02*
X89162000Y-55771190D01*
X88923905Y-56247380D02*
X88923905Y-55247380D01*
X88923905Y-55247380D02*
X89304857Y-55247380D01*
X89304857Y-55247380D02*
X89400095Y-55295000D01*
X89400095Y-55295000D02*
X89447714Y-55342619D01*
X89447714Y-55342619D02*
X89495333Y-55437857D01*
X89495333Y-55437857D02*
X89495333Y-55580714D01*
X89495333Y-55580714D02*
X89447714Y-55675952D01*
X89447714Y-55675952D02*
X89400095Y-55723571D01*
X89400095Y-55723571D02*
X89304857Y-55771190D01*
X89304857Y-55771190D02*
X88923905Y-55771190D01*
X90352476Y-55580714D02*
X90352476Y-56247380D01*
X90114381Y-55199761D02*
X89876286Y-55914047D01*
X89876286Y-55914047D02*
X90495333Y-55914047D01*
%TO.C,R11*%
X48633142Y-46595380D02*
X48299809Y-46119190D01*
X48061714Y-46595380D02*
X48061714Y-45595380D01*
X48061714Y-45595380D02*
X48442666Y-45595380D01*
X48442666Y-45595380D02*
X48537904Y-45643000D01*
X48537904Y-45643000D02*
X48585523Y-45690619D01*
X48585523Y-45690619D02*
X48633142Y-45785857D01*
X48633142Y-45785857D02*
X48633142Y-45928714D01*
X48633142Y-45928714D02*
X48585523Y-46023952D01*
X48585523Y-46023952D02*
X48537904Y-46071571D01*
X48537904Y-46071571D02*
X48442666Y-46119190D01*
X48442666Y-46119190D02*
X48061714Y-46119190D01*
X49585523Y-46595380D02*
X49014095Y-46595380D01*
X49299809Y-46595380D02*
X49299809Y-45595380D01*
X49299809Y-45595380D02*
X49204571Y-45738238D01*
X49204571Y-45738238D02*
X49109333Y-45833476D01*
X49109333Y-45833476D02*
X49014095Y-45881095D01*
X50537904Y-46595380D02*
X49966476Y-46595380D01*
X50252190Y-46595380D02*
X50252190Y-45595380D01*
X50252190Y-45595380D02*
X50156952Y-45738238D01*
X50156952Y-45738238D02*
X50061714Y-45833476D01*
X50061714Y-45833476D02*
X49966476Y-45881095D01*
%TO.C,Q3*%
X63150761Y-63962619D02*
X63055523Y-63915000D01*
X63055523Y-63915000D02*
X62960285Y-63819761D01*
X62960285Y-63819761D02*
X62817428Y-63676904D01*
X62817428Y-63676904D02*
X62722190Y-63629285D01*
X62722190Y-63629285D02*
X62626952Y-63629285D01*
X62674571Y-63867380D02*
X62579333Y-63819761D01*
X62579333Y-63819761D02*
X62484095Y-63724523D01*
X62484095Y-63724523D02*
X62436476Y-63534047D01*
X62436476Y-63534047D02*
X62436476Y-63200714D01*
X62436476Y-63200714D02*
X62484095Y-63010238D01*
X62484095Y-63010238D02*
X62579333Y-62915000D01*
X62579333Y-62915000D02*
X62674571Y-62867380D01*
X62674571Y-62867380D02*
X62865047Y-62867380D01*
X62865047Y-62867380D02*
X62960285Y-62915000D01*
X62960285Y-62915000D02*
X63055523Y-63010238D01*
X63055523Y-63010238D02*
X63103142Y-63200714D01*
X63103142Y-63200714D02*
X63103142Y-63534047D01*
X63103142Y-63534047D02*
X63055523Y-63724523D01*
X63055523Y-63724523D02*
X62960285Y-63819761D01*
X62960285Y-63819761D02*
X62865047Y-63867380D01*
X62865047Y-63867380D02*
X62674571Y-63867380D01*
X63436476Y-62867380D02*
X64055523Y-62867380D01*
X64055523Y-62867380D02*
X63722190Y-63248333D01*
X63722190Y-63248333D02*
X63865047Y-63248333D01*
X63865047Y-63248333D02*
X63960285Y-63295952D01*
X63960285Y-63295952D02*
X64007904Y-63343571D01*
X64007904Y-63343571D02*
X64055523Y-63438809D01*
X64055523Y-63438809D02*
X64055523Y-63676904D01*
X64055523Y-63676904D02*
X64007904Y-63772142D01*
X64007904Y-63772142D02*
X63960285Y-63819761D01*
X63960285Y-63819761D02*
X63865047Y-63867380D01*
X63865047Y-63867380D02*
X63579333Y-63867380D01*
X63579333Y-63867380D02*
X63484095Y-63819761D01*
X63484095Y-63819761D02*
X63436476Y-63772142D01*
%TO.C,SW2*%
X77914667Y-43499761D02*
X78057524Y-43547380D01*
X78057524Y-43547380D02*
X78295619Y-43547380D01*
X78295619Y-43547380D02*
X78390857Y-43499761D01*
X78390857Y-43499761D02*
X78438476Y-43452142D01*
X78438476Y-43452142D02*
X78486095Y-43356904D01*
X78486095Y-43356904D02*
X78486095Y-43261666D01*
X78486095Y-43261666D02*
X78438476Y-43166428D01*
X78438476Y-43166428D02*
X78390857Y-43118809D01*
X78390857Y-43118809D02*
X78295619Y-43071190D01*
X78295619Y-43071190D02*
X78105143Y-43023571D01*
X78105143Y-43023571D02*
X78009905Y-42975952D01*
X78009905Y-42975952D02*
X77962286Y-42928333D01*
X77962286Y-42928333D02*
X77914667Y-42833095D01*
X77914667Y-42833095D02*
X77914667Y-42737857D01*
X77914667Y-42737857D02*
X77962286Y-42642619D01*
X77962286Y-42642619D02*
X78009905Y-42595000D01*
X78009905Y-42595000D02*
X78105143Y-42547380D01*
X78105143Y-42547380D02*
X78343238Y-42547380D01*
X78343238Y-42547380D02*
X78486095Y-42595000D01*
X78819429Y-42547380D02*
X79057524Y-43547380D01*
X79057524Y-43547380D02*
X79248000Y-42833095D01*
X79248000Y-42833095D02*
X79438476Y-43547380D01*
X79438476Y-43547380D02*
X79676572Y-42547380D01*
X80009905Y-42642619D02*
X80057524Y-42595000D01*
X80057524Y-42595000D02*
X80152762Y-42547380D01*
X80152762Y-42547380D02*
X80390857Y-42547380D01*
X80390857Y-42547380D02*
X80486095Y-42595000D01*
X80486095Y-42595000D02*
X80533714Y-42642619D01*
X80533714Y-42642619D02*
X80581333Y-42737857D01*
X80581333Y-42737857D02*
X80581333Y-42833095D01*
X80581333Y-42833095D02*
X80533714Y-42975952D01*
X80533714Y-42975952D02*
X79962286Y-43547380D01*
X79962286Y-43547380D02*
X80581333Y-43547380D01*
%TO.C,RESET1*%
X74688428Y-79690380D02*
X74355095Y-79214190D01*
X74117000Y-79690380D02*
X74117000Y-78690380D01*
X74117000Y-78690380D02*
X74497952Y-78690380D01*
X74497952Y-78690380D02*
X74593190Y-78738000D01*
X74593190Y-78738000D02*
X74640809Y-78785619D01*
X74640809Y-78785619D02*
X74688428Y-78880857D01*
X74688428Y-78880857D02*
X74688428Y-79023714D01*
X74688428Y-79023714D02*
X74640809Y-79118952D01*
X74640809Y-79118952D02*
X74593190Y-79166571D01*
X74593190Y-79166571D02*
X74497952Y-79214190D01*
X74497952Y-79214190D02*
X74117000Y-79214190D01*
X75117000Y-79166571D02*
X75450333Y-79166571D01*
X75593190Y-79690380D02*
X75117000Y-79690380D01*
X75117000Y-79690380D02*
X75117000Y-78690380D01*
X75117000Y-78690380D02*
X75593190Y-78690380D01*
X75974143Y-79642761D02*
X76117000Y-79690380D01*
X76117000Y-79690380D02*
X76355095Y-79690380D01*
X76355095Y-79690380D02*
X76450333Y-79642761D01*
X76450333Y-79642761D02*
X76497952Y-79595142D01*
X76497952Y-79595142D02*
X76545571Y-79499904D01*
X76545571Y-79499904D02*
X76545571Y-79404666D01*
X76545571Y-79404666D02*
X76497952Y-79309428D01*
X76497952Y-79309428D02*
X76450333Y-79261809D01*
X76450333Y-79261809D02*
X76355095Y-79214190D01*
X76355095Y-79214190D02*
X76164619Y-79166571D01*
X76164619Y-79166571D02*
X76069381Y-79118952D01*
X76069381Y-79118952D02*
X76021762Y-79071333D01*
X76021762Y-79071333D02*
X75974143Y-78976095D01*
X75974143Y-78976095D02*
X75974143Y-78880857D01*
X75974143Y-78880857D02*
X76021762Y-78785619D01*
X76021762Y-78785619D02*
X76069381Y-78738000D01*
X76069381Y-78738000D02*
X76164619Y-78690380D01*
X76164619Y-78690380D02*
X76402714Y-78690380D01*
X76402714Y-78690380D02*
X76545571Y-78738000D01*
X76974143Y-79166571D02*
X77307476Y-79166571D01*
X77450333Y-79690380D02*
X76974143Y-79690380D01*
X76974143Y-79690380D02*
X76974143Y-78690380D01*
X76974143Y-78690380D02*
X77450333Y-78690380D01*
X77736048Y-78690380D02*
X78307476Y-78690380D01*
X78021762Y-79690380D02*
X78021762Y-78690380D01*
X79164619Y-79690380D02*
X78593191Y-79690380D01*
X78878905Y-79690380D02*
X78878905Y-78690380D01*
X78878905Y-78690380D02*
X78783667Y-78833238D01*
X78783667Y-78833238D02*
X78688429Y-78928476D01*
X78688429Y-78928476D02*
X78593191Y-78976095D01*
%TO.C,Barrel_Jack1*%
X29410713Y-84943571D02*
X29553570Y-84991190D01*
X29553570Y-84991190D02*
X29601189Y-85038809D01*
X29601189Y-85038809D02*
X29648808Y-85134047D01*
X29648808Y-85134047D02*
X29648808Y-85276904D01*
X29648808Y-85276904D02*
X29601189Y-85372142D01*
X29601189Y-85372142D02*
X29553570Y-85419761D01*
X29553570Y-85419761D02*
X29458332Y-85467380D01*
X29458332Y-85467380D02*
X29077380Y-85467380D01*
X29077380Y-85467380D02*
X29077380Y-84467380D01*
X29077380Y-84467380D02*
X29410713Y-84467380D01*
X29410713Y-84467380D02*
X29505951Y-84515000D01*
X29505951Y-84515000D02*
X29553570Y-84562619D01*
X29553570Y-84562619D02*
X29601189Y-84657857D01*
X29601189Y-84657857D02*
X29601189Y-84753095D01*
X29601189Y-84753095D02*
X29553570Y-84848333D01*
X29553570Y-84848333D02*
X29505951Y-84895952D01*
X29505951Y-84895952D02*
X29410713Y-84943571D01*
X29410713Y-84943571D02*
X29077380Y-84943571D01*
X30505951Y-85467380D02*
X30505951Y-84943571D01*
X30505951Y-84943571D02*
X30458332Y-84848333D01*
X30458332Y-84848333D02*
X30363094Y-84800714D01*
X30363094Y-84800714D02*
X30172618Y-84800714D01*
X30172618Y-84800714D02*
X30077380Y-84848333D01*
X30505951Y-85419761D02*
X30410713Y-85467380D01*
X30410713Y-85467380D02*
X30172618Y-85467380D01*
X30172618Y-85467380D02*
X30077380Y-85419761D01*
X30077380Y-85419761D02*
X30029761Y-85324523D01*
X30029761Y-85324523D02*
X30029761Y-85229285D01*
X30029761Y-85229285D02*
X30077380Y-85134047D01*
X30077380Y-85134047D02*
X30172618Y-85086428D01*
X30172618Y-85086428D02*
X30410713Y-85086428D01*
X30410713Y-85086428D02*
X30505951Y-85038809D01*
X30982142Y-85467380D02*
X30982142Y-84800714D01*
X30982142Y-84991190D02*
X31029761Y-84895952D01*
X31029761Y-84895952D02*
X31077380Y-84848333D01*
X31077380Y-84848333D02*
X31172618Y-84800714D01*
X31172618Y-84800714D02*
X31267856Y-84800714D01*
X31601190Y-85467380D02*
X31601190Y-84800714D01*
X31601190Y-84991190D02*
X31648809Y-84895952D01*
X31648809Y-84895952D02*
X31696428Y-84848333D01*
X31696428Y-84848333D02*
X31791666Y-84800714D01*
X31791666Y-84800714D02*
X31886904Y-84800714D01*
X32601190Y-85419761D02*
X32505952Y-85467380D01*
X32505952Y-85467380D02*
X32315476Y-85467380D01*
X32315476Y-85467380D02*
X32220238Y-85419761D01*
X32220238Y-85419761D02*
X32172619Y-85324523D01*
X32172619Y-85324523D02*
X32172619Y-84943571D01*
X32172619Y-84943571D02*
X32220238Y-84848333D01*
X32220238Y-84848333D02*
X32315476Y-84800714D01*
X32315476Y-84800714D02*
X32505952Y-84800714D01*
X32505952Y-84800714D02*
X32601190Y-84848333D01*
X32601190Y-84848333D02*
X32648809Y-84943571D01*
X32648809Y-84943571D02*
X32648809Y-85038809D01*
X32648809Y-85038809D02*
X32172619Y-85134047D01*
X33220238Y-85467380D02*
X33125000Y-85419761D01*
X33125000Y-85419761D02*
X33077381Y-85324523D01*
X33077381Y-85324523D02*
X33077381Y-84467380D01*
X33363096Y-85562619D02*
X34125000Y-85562619D01*
X34648810Y-84467380D02*
X34648810Y-85181666D01*
X34648810Y-85181666D02*
X34601191Y-85324523D01*
X34601191Y-85324523D02*
X34505953Y-85419761D01*
X34505953Y-85419761D02*
X34363096Y-85467380D01*
X34363096Y-85467380D02*
X34267858Y-85467380D01*
X35553572Y-85467380D02*
X35553572Y-84943571D01*
X35553572Y-84943571D02*
X35505953Y-84848333D01*
X35505953Y-84848333D02*
X35410715Y-84800714D01*
X35410715Y-84800714D02*
X35220239Y-84800714D01*
X35220239Y-84800714D02*
X35125001Y-84848333D01*
X35553572Y-85419761D02*
X35458334Y-85467380D01*
X35458334Y-85467380D02*
X35220239Y-85467380D01*
X35220239Y-85467380D02*
X35125001Y-85419761D01*
X35125001Y-85419761D02*
X35077382Y-85324523D01*
X35077382Y-85324523D02*
X35077382Y-85229285D01*
X35077382Y-85229285D02*
X35125001Y-85134047D01*
X35125001Y-85134047D02*
X35220239Y-85086428D01*
X35220239Y-85086428D02*
X35458334Y-85086428D01*
X35458334Y-85086428D02*
X35553572Y-85038809D01*
X36458334Y-85419761D02*
X36363096Y-85467380D01*
X36363096Y-85467380D02*
X36172620Y-85467380D01*
X36172620Y-85467380D02*
X36077382Y-85419761D01*
X36077382Y-85419761D02*
X36029763Y-85372142D01*
X36029763Y-85372142D02*
X35982144Y-85276904D01*
X35982144Y-85276904D02*
X35982144Y-84991190D01*
X35982144Y-84991190D02*
X36029763Y-84895952D01*
X36029763Y-84895952D02*
X36077382Y-84848333D01*
X36077382Y-84848333D02*
X36172620Y-84800714D01*
X36172620Y-84800714D02*
X36363096Y-84800714D01*
X36363096Y-84800714D02*
X36458334Y-84848333D01*
X36886906Y-85467380D02*
X36886906Y-84467380D01*
X36982144Y-85086428D02*
X37267858Y-85467380D01*
X37267858Y-84800714D02*
X36886906Y-85181666D01*
X38220239Y-85467380D02*
X37648811Y-85467380D01*
X37934525Y-85467380D02*
X37934525Y-84467380D01*
X37934525Y-84467380D02*
X37839287Y-84610238D01*
X37839287Y-84610238D02*
X37744049Y-84705476D01*
X37744049Y-84705476D02*
X37648811Y-84753095D01*
%TO.C,D2*%
X75461905Y-65645380D02*
X75461905Y-64645380D01*
X75461905Y-64645380D02*
X75700000Y-64645380D01*
X75700000Y-64645380D02*
X75842857Y-64693000D01*
X75842857Y-64693000D02*
X75938095Y-64788238D01*
X75938095Y-64788238D02*
X75985714Y-64883476D01*
X75985714Y-64883476D02*
X76033333Y-65073952D01*
X76033333Y-65073952D02*
X76033333Y-65216809D01*
X76033333Y-65216809D02*
X75985714Y-65407285D01*
X75985714Y-65407285D02*
X75938095Y-65502523D01*
X75938095Y-65502523D02*
X75842857Y-65597761D01*
X75842857Y-65597761D02*
X75700000Y-65645380D01*
X75700000Y-65645380D02*
X75461905Y-65645380D01*
X76414286Y-64740619D02*
X76461905Y-64693000D01*
X76461905Y-64693000D02*
X76557143Y-64645380D01*
X76557143Y-64645380D02*
X76795238Y-64645380D01*
X76795238Y-64645380D02*
X76890476Y-64693000D01*
X76890476Y-64693000D02*
X76938095Y-64740619D01*
X76938095Y-64740619D02*
X76985714Y-64835857D01*
X76985714Y-64835857D02*
X76985714Y-64931095D01*
X76985714Y-64931095D02*
X76938095Y-65073952D01*
X76938095Y-65073952D02*
X76366667Y-65645380D01*
X76366667Y-65645380D02*
X76985714Y-65645380D01*
%TO.C,C4*%
X29805333Y-45484142D02*
X29757714Y-45531761D01*
X29757714Y-45531761D02*
X29614857Y-45579380D01*
X29614857Y-45579380D02*
X29519619Y-45579380D01*
X29519619Y-45579380D02*
X29376762Y-45531761D01*
X29376762Y-45531761D02*
X29281524Y-45436523D01*
X29281524Y-45436523D02*
X29233905Y-45341285D01*
X29233905Y-45341285D02*
X29186286Y-45150809D01*
X29186286Y-45150809D02*
X29186286Y-45007952D01*
X29186286Y-45007952D02*
X29233905Y-44817476D01*
X29233905Y-44817476D02*
X29281524Y-44722238D01*
X29281524Y-44722238D02*
X29376762Y-44627000D01*
X29376762Y-44627000D02*
X29519619Y-44579380D01*
X29519619Y-44579380D02*
X29614857Y-44579380D01*
X29614857Y-44579380D02*
X29757714Y-44627000D01*
X29757714Y-44627000D02*
X29805333Y-44674619D01*
X30662476Y-44912714D02*
X30662476Y-45579380D01*
X30424381Y-44531761D02*
X30186286Y-45246047D01*
X30186286Y-45246047D02*
X30805333Y-45246047D01*
%TO.C,R13*%
X72763142Y-65137380D02*
X72429809Y-64661190D01*
X72191714Y-65137380D02*
X72191714Y-64137380D01*
X72191714Y-64137380D02*
X72572666Y-64137380D01*
X72572666Y-64137380D02*
X72667904Y-64185000D01*
X72667904Y-64185000D02*
X72715523Y-64232619D01*
X72715523Y-64232619D02*
X72763142Y-64327857D01*
X72763142Y-64327857D02*
X72763142Y-64470714D01*
X72763142Y-64470714D02*
X72715523Y-64565952D01*
X72715523Y-64565952D02*
X72667904Y-64613571D01*
X72667904Y-64613571D02*
X72572666Y-64661190D01*
X72572666Y-64661190D02*
X72191714Y-64661190D01*
X73715523Y-65137380D02*
X73144095Y-65137380D01*
X73429809Y-65137380D02*
X73429809Y-64137380D01*
X73429809Y-64137380D02*
X73334571Y-64280238D01*
X73334571Y-64280238D02*
X73239333Y-64375476D01*
X73239333Y-64375476D02*
X73144095Y-64423095D01*
X74048857Y-64137380D02*
X74667904Y-64137380D01*
X74667904Y-64137380D02*
X74334571Y-64518333D01*
X74334571Y-64518333D02*
X74477428Y-64518333D01*
X74477428Y-64518333D02*
X74572666Y-64565952D01*
X74572666Y-64565952D02*
X74620285Y-64613571D01*
X74620285Y-64613571D02*
X74667904Y-64708809D01*
X74667904Y-64708809D02*
X74667904Y-64946904D01*
X74667904Y-64946904D02*
X74620285Y-65042142D01*
X74620285Y-65042142D02*
X74572666Y-65089761D01*
X74572666Y-65089761D02*
X74477428Y-65137380D01*
X74477428Y-65137380D02*
X74191714Y-65137380D01*
X74191714Y-65137380D02*
X74096476Y-65089761D01*
X74096476Y-65089761D02*
X74048857Y-65042142D01*
%TO.C,D1*%
X65595905Y-62957380D02*
X65595905Y-61957380D01*
X65595905Y-61957380D02*
X65834000Y-61957380D01*
X65834000Y-61957380D02*
X65976857Y-62005000D01*
X65976857Y-62005000D02*
X66072095Y-62100238D01*
X66072095Y-62100238D02*
X66119714Y-62195476D01*
X66119714Y-62195476D02*
X66167333Y-62385952D01*
X66167333Y-62385952D02*
X66167333Y-62528809D01*
X66167333Y-62528809D02*
X66119714Y-62719285D01*
X66119714Y-62719285D02*
X66072095Y-62814523D01*
X66072095Y-62814523D02*
X65976857Y-62909761D01*
X65976857Y-62909761D02*
X65834000Y-62957380D01*
X65834000Y-62957380D02*
X65595905Y-62957380D01*
X67119714Y-62957380D02*
X66548286Y-62957380D01*
X66834000Y-62957380D02*
X66834000Y-61957380D01*
X66834000Y-61957380D02*
X66738762Y-62100238D01*
X66738762Y-62100238D02*
X66643524Y-62195476D01*
X66643524Y-62195476D02*
X66548286Y-62243095D01*
%TO.C,R16*%
X76447714Y-56935904D02*
X76181047Y-56554952D01*
X75990571Y-56935904D02*
X75990571Y-56135904D01*
X75990571Y-56135904D02*
X76295333Y-56135904D01*
X76295333Y-56135904D02*
X76371523Y-56174000D01*
X76371523Y-56174000D02*
X76409618Y-56212095D01*
X76409618Y-56212095D02*
X76447714Y-56288285D01*
X76447714Y-56288285D02*
X76447714Y-56402571D01*
X76447714Y-56402571D02*
X76409618Y-56478761D01*
X76409618Y-56478761D02*
X76371523Y-56516857D01*
X76371523Y-56516857D02*
X76295333Y-56554952D01*
X76295333Y-56554952D02*
X75990571Y-56554952D01*
X77209618Y-56935904D02*
X76752475Y-56935904D01*
X76981047Y-56935904D02*
X76981047Y-56135904D01*
X76981047Y-56135904D02*
X76904856Y-56250190D01*
X76904856Y-56250190D02*
X76828666Y-56326380D01*
X76828666Y-56326380D02*
X76752475Y-56364476D01*
X77895333Y-56135904D02*
X77742952Y-56135904D01*
X77742952Y-56135904D02*
X77666761Y-56174000D01*
X77666761Y-56174000D02*
X77628666Y-56212095D01*
X77628666Y-56212095D02*
X77552476Y-56326380D01*
X77552476Y-56326380D02*
X77514380Y-56478761D01*
X77514380Y-56478761D02*
X77514380Y-56783523D01*
X77514380Y-56783523D02*
X77552476Y-56859714D01*
X77552476Y-56859714D02*
X77590571Y-56897809D01*
X77590571Y-56897809D02*
X77666761Y-56935904D01*
X77666761Y-56935904D02*
X77819142Y-56935904D01*
X77819142Y-56935904D02*
X77895333Y-56897809D01*
X77895333Y-56897809D02*
X77933428Y-56859714D01*
X77933428Y-56859714D02*
X77971523Y-56783523D01*
X77971523Y-56783523D02*
X77971523Y-56593047D01*
X77971523Y-56593047D02*
X77933428Y-56516857D01*
X77933428Y-56516857D02*
X77895333Y-56478761D01*
X77895333Y-56478761D02*
X77819142Y-56440666D01*
X77819142Y-56440666D02*
X77666761Y-56440666D01*
X77666761Y-56440666D02*
X77590571Y-56478761D01*
X77590571Y-56478761D02*
X77552476Y-56516857D01*
X77552476Y-56516857D02*
X77514380Y-56593047D01*
%TO.C,LED3*%
X86219380Y-55475047D02*
X86219380Y-55951237D01*
X86219380Y-55951237D02*
X85219380Y-55951237D01*
X85695571Y-55141713D02*
X85695571Y-54808380D01*
X86219380Y-54665523D02*
X86219380Y-55141713D01*
X86219380Y-55141713D02*
X85219380Y-55141713D01*
X85219380Y-55141713D02*
X85219380Y-54665523D01*
X86219380Y-54236951D02*
X85219380Y-54236951D01*
X85219380Y-54236951D02*
X85219380Y-53998856D01*
X85219380Y-53998856D02*
X85267000Y-53855999D01*
X85267000Y-53855999D02*
X85362238Y-53760761D01*
X85362238Y-53760761D02*
X85457476Y-53713142D01*
X85457476Y-53713142D02*
X85647952Y-53665523D01*
X85647952Y-53665523D02*
X85790809Y-53665523D01*
X85790809Y-53665523D02*
X85981285Y-53713142D01*
X85981285Y-53713142D02*
X86076523Y-53760761D01*
X86076523Y-53760761D02*
X86171761Y-53855999D01*
X86171761Y-53855999D02*
X86219380Y-53998856D01*
X86219380Y-53998856D02*
X86219380Y-54236951D01*
X85219380Y-53332189D02*
X85219380Y-52713142D01*
X85219380Y-52713142D02*
X85600333Y-53046475D01*
X85600333Y-53046475D02*
X85600333Y-52903618D01*
X85600333Y-52903618D02*
X85647952Y-52808380D01*
X85647952Y-52808380D02*
X85695571Y-52760761D01*
X85695571Y-52760761D02*
X85790809Y-52713142D01*
X85790809Y-52713142D02*
X86028904Y-52713142D01*
X86028904Y-52713142D02*
X86124142Y-52760761D01*
X86124142Y-52760761D02*
X86171761Y-52808380D01*
X86171761Y-52808380D02*
X86219380Y-52903618D01*
X86219380Y-52903618D02*
X86219380Y-53189332D01*
X86219380Y-53189332D02*
X86171761Y-53284570D01*
X86171761Y-53284570D02*
X86124142Y-53332189D01*
%TO.C,R12*%
X81653142Y-45071380D02*
X81319809Y-44595190D01*
X81081714Y-45071380D02*
X81081714Y-44071380D01*
X81081714Y-44071380D02*
X81462666Y-44071380D01*
X81462666Y-44071380D02*
X81557904Y-44119000D01*
X81557904Y-44119000D02*
X81605523Y-44166619D01*
X81605523Y-44166619D02*
X81653142Y-44261857D01*
X81653142Y-44261857D02*
X81653142Y-44404714D01*
X81653142Y-44404714D02*
X81605523Y-44499952D01*
X81605523Y-44499952D02*
X81557904Y-44547571D01*
X81557904Y-44547571D02*
X81462666Y-44595190D01*
X81462666Y-44595190D02*
X81081714Y-44595190D01*
X82605523Y-45071380D02*
X82034095Y-45071380D01*
X82319809Y-45071380D02*
X82319809Y-44071380D01*
X82319809Y-44071380D02*
X82224571Y-44214238D01*
X82224571Y-44214238D02*
X82129333Y-44309476D01*
X82129333Y-44309476D02*
X82034095Y-44357095D01*
X82986476Y-44166619D02*
X83034095Y-44119000D01*
X83034095Y-44119000D02*
X83129333Y-44071380D01*
X83129333Y-44071380D02*
X83367428Y-44071380D01*
X83367428Y-44071380D02*
X83462666Y-44119000D01*
X83462666Y-44119000D02*
X83510285Y-44166619D01*
X83510285Y-44166619D02*
X83557904Y-44261857D01*
X83557904Y-44261857D02*
X83557904Y-44357095D01*
X83557904Y-44357095D02*
X83510285Y-44499952D01*
X83510285Y-44499952D02*
X82938857Y-45071380D01*
X82938857Y-45071380D02*
X83557904Y-45071380D01*
%TO.C,C3*%
X32091333Y-45462642D02*
X32043714Y-45510261D01*
X32043714Y-45510261D02*
X31900857Y-45557880D01*
X31900857Y-45557880D02*
X31805619Y-45557880D01*
X31805619Y-45557880D02*
X31662762Y-45510261D01*
X31662762Y-45510261D02*
X31567524Y-45415023D01*
X31567524Y-45415023D02*
X31519905Y-45319785D01*
X31519905Y-45319785D02*
X31472286Y-45129309D01*
X31472286Y-45129309D02*
X31472286Y-44986452D01*
X31472286Y-44986452D02*
X31519905Y-44795976D01*
X31519905Y-44795976D02*
X31567524Y-44700738D01*
X31567524Y-44700738D02*
X31662762Y-44605500D01*
X31662762Y-44605500D02*
X31805619Y-44557880D01*
X31805619Y-44557880D02*
X31900857Y-44557880D01*
X31900857Y-44557880D02*
X32043714Y-44605500D01*
X32043714Y-44605500D02*
X32091333Y-44653119D01*
X32424667Y-44557880D02*
X33043714Y-44557880D01*
X33043714Y-44557880D02*
X32710381Y-44938833D01*
X32710381Y-44938833D02*
X32853238Y-44938833D01*
X32853238Y-44938833D02*
X32948476Y-44986452D01*
X32948476Y-44986452D02*
X32996095Y-45034071D01*
X32996095Y-45034071D02*
X33043714Y-45129309D01*
X33043714Y-45129309D02*
X33043714Y-45367404D01*
X33043714Y-45367404D02*
X32996095Y-45462642D01*
X32996095Y-45462642D02*
X32948476Y-45510261D01*
X32948476Y-45510261D02*
X32853238Y-45557880D01*
X32853238Y-45557880D02*
X32567524Y-45557880D01*
X32567524Y-45557880D02*
X32472286Y-45510261D01*
X32472286Y-45510261D02*
X32424667Y-45462642D01*
D12*
%TO.C,U1*%
X54157000Y-57538000D02*
X48957000Y-57538000D01*
X54157000Y-62838000D02*
X54157000Y-57538000D01*
X48957000Y-62838000D02*
X54157000Y-62838000D01*
X48957000Y-57538000D02*
X48957000Y-59188000D01*
X48957000Y-61188000D02*
X48957000Y-62838000D01*
X48957000Y-61188000D02*
G75*
G03*
X48957000Y-59188000I0J1000000D01*
G01*
%TO.C,ESP32*%
X55815000Y-32825000D02*
X55815000Y-39240000D01*
X55815000Y-32825000D02*
X74055000Y-32825000D01*
X55815000Y-39240000D02*
X55435000Y-39240000D01*
X55815000Y-57785000D02*
X55815000Y-58565000D01*
X55815000Y-58565000D02*
X56815000Y-58565000D01*
X74055000Y-32825000D02*
X74055000Y-39240000D01*
X74055000Y-57785000D02*
X74055000Y-58565000D01*
X74055000Y-58565000D02*
X73055000Y-58565000D01*
%TO.C,C2*%
X45331748Y-46890000D02*
X45854252Y-46890000D01*
X45331748Y-48360000D02*
X45854252Y-48360000D01*
%TO.C,UMP1584*%
X46482000Y-50006000D02*
X29718000Y-50006000D01*
X29718000Y-50006000D02*
X29718000Y-72104000D01*
X29718000Y-72104000D02*
X46482000Y-72104000D01*
X46482000Y-72104000D02*
X46482000Y-50006000D01*
%TO.C,PLO1*%
X34690000Y-47661000D02*
X34690000Y-41651000D01*
X41510000Y-45411000D02*
X41510000Y-41651000D01*
X34690000Y-41651000D02*
X35950000Y-41651000D01*
X41510000Y-41651000D02*
X40250000Y-41651000D01*
%TO.C,LED1*%
X90719000Y-54322000D02*
X90719000Y-54166000D01*
X90719000Y-52006000D02*
X90719000Y-51850000D01*
X87486666Y-54164608D02*
G75*
G03*
X90718999Y-54321515I1672334J1078608D01*
G01*
X88117871Y-54165836D02*
G75*
G03*
X90199960Y-54165999I1041129J1079836D01*
G01*
X90199960Y-52006001D02*
G75*
G03*
X88117871Y-52006164I-1040960J-1079999D01*
G01*
X90718999Y-51850485D02*
G75*
G03*
X87486666Y-52007392I-1559999J-1235515D01*
G01*
%TO.C,R1*%
X81830936Y-59463000D02*
X82285064Y-59463000D01*
X81830936Y-60933000D02*
X82285064Y-60933000D01*
%TO.C,Kroonsteen1*%
X80518000Y-88138000D02*
X65278000Y-88138000D01*
X80518000Y-81788000D02*
X65278000Y-81788000D01*
X80518000Y-80518000D02*
X80518000Y-88138000D01*
X80518000Y-80518000D02*
X65278000Y-80518000D01*
X65278000Y-80518000D02*
X65278000Y-88138000D01*
%TO.C,R15*%
X84592936Y-44985000D02*
X85047064Y-44985000D01*
X84592936Y-46455000D02*
X85047064Y-46455000D01*
%TO.C,J2*%
X87570000Y-39850000D02*
X88900000Y-39850000D01*
X87570000Y-41180000D02*
X87570000Y-39850000D01*
X87570000Y-42450000D02*
X87570000Y-50130000D01*
X87570000Y-42450000D02*
X90230000Y-42450000D01*
X87570000Y-50130000D02*
X90230000Y-50130000D01*
X90230000Y-42450000D02*
X90230000Y-50130000D01*
%TO.C,R9*%
X60679000Y-65320936D02*
X60679000Y-65775064D01*
X59209000Y-65320936D02*
X59209000Y-65775064D01*
%TO.C,SW1*%
X51600000Y-43860000D02*
X49750000Y-43860000D01*
X49750000Y-44510000D02*
X49750000Y-43860000D01*
X49750000Y-44510000D02*
X44230000Y-44510000D01*
X49750000Y-43119000D02*
X49750000Y-41850000D01*
X49750000Y-41850000D02*
X44230000Y-41850000D01*
X44230000Y-44510000D02*
X44230000Y-43241000D01*
X44230000Y-43119000D02*
X44230000Y-41850000D01*
%TO.C,R2*%
X86133000Y-67791064D02*
X86133000Y-67336936D01*
X87603000Y-67791064D02*
X87603000Y-67336936D01*
%TO.C,Relais1*%
X63126000Y-68270000D02*
X56526000Y-68270000D01*
X63126000Y-68270000D02*
X63126000Y-88070000D01*
X54126000Y-68270000D02*
X47526000Y-68270000D01*
X55276000Y-72320000D02*
X55276000Y-71520000D01*
X55276000Y-72320000D02*
X51676000Y-72320000D01*
X49276000Y-73220000D02*
X49276000Y-75720000D01*
X57076000Y-73720000D02*
X57076000Y-77720000D01*
X53476000Y-73720000D02*
X57076000Y-73720000D01*
X61276000Y-75720000D02*
X61276000Y-73220000D01*
X61276000Y-75720000D02*
X57076000Y-75720000D01*
X53476000Y-75720000D02*
X49276000Y-75720000D01*
X57076000Y-77720000D02*
X53476000Y-77720000D01*
X53476000Y-77720000D02*
X57076000Y-73720000D01*
X53476000Y-77720000D02*
X53476000Y-73720000D01*
X55276000Y-79120000D02*
X51676000Y-79120000D01*
X55276000Y-79120000D02*
X55276000Y-80620000D01*
X51676000Y-79120000D02*
X51676000Y-72320000D01*
X55276000Y-80620000D02*
X57776000Y-85220000D01*
X59526000Y-83820000D02*
X57026000Y-83820000D01*
X51126000Y-83820000D02*
X53576000Y-83820000D01*
X63126000Y-88070000D02*
X47526000Y-88070000D01*
X47526000Y-88070000D02*
X47526000Y-68270000D01*
%TO.C,R5*%
X76734936Y-47017000D02*
X77189064Y-47017000D01*
X76734936Y-48487000D02*
X77189064Y-48487000D01*
%TO.C,START1*%
X67830000Y-77160000D02*
X69330000Y-77160000D01*
X71830000Y-75910000D02*
X71830000Y-71410000D01*
X65330000Y-71410000D02*
X65330000Y-75910000D01*
X69330000Y-70160000D02*
X67830000Y-70160000D01*
%TO.C,R3*%
X81830936Y-57431000D02*
X82285064Y-57431000D01*
X81830936Y-58901000D02*
X82285064Y-58901000D01*
%TO.C,R6*%
X76734936Y-49557000D02*
X77189064Y-49557000D01*
X76734936Y-51027000D02*
X77189064Y-51027000D01*
%TO.C,ULTRASONIC-SENSOR1*%
X91246000Y-71434000D02*
X89916000Y-71434000D01*
X91246000Y-70104000D02*
X91246000Y-71434000D01*
X91246000Y-68834000D02*
X91246000Y-61154000D01*
X91246000Y-68834000D02*
X88586000Y-68834000D01*
X91246000Y-61154000D02*
X88586000Y-61154000D01*
X88586000Y-68834000D02*
X88586000Y-61154000D01*
%TO.C,R17*%
X78005000Y-62727064D02*
X78005000Y-62272936D01*
X79475000Y-62727064D02*
X79475000Y-62272936D01*
%TO.C,Q2*%
X87744500Y-58674000D02*
X87744500Y-56999000D01*
X87744500Y-58674000D02*
X87744500Y-59324000D01*
X84624500Y-58674000D02*
X84624500Y-58024000D01*
X84624500Y-58674000D02*
X84624500Y-59324000D01*
%TO.C,R14*%
X52096936Y-48160000D02*
X52551064Y-48160000D01*
X52096936Y-49630000D02*
X52551064Y-49630000D01*
%TO.C,R8*%
X51842936Y-53113000D02*
X52297064Y-53113000D01*
X51842936Y-54583000D02*
X52297064Y-54583000D01*
%TO.C,Q1*%
X87666000Y-62816500D02*
X87666000Y-61141500D01*
X87666000Y-62816500D02*
X87666000Y-63466500D01*
X84546000Y-62816500D02*
X84546000Y-62166500D01*
X84546000Y-62816500D02*
X84546000Y-63466500D01*
%TO.C,LED2*%
X84110000Y-51020000D02*
X84110000Y-50864000D01*
X84110000Y-48704000D02*
X84110000Y-48548000D01*
X80877666Y-50862608D02*
G75*
G03*
X84109999Y-51019515I1672334J1078608D01*
G01*
X81508871Y-50863836D02*
G75*
G03*
X83590960Y-50863999I1041129J1079836D01*
G01*
X83590960Y-48704001D02*
G75*
G03*
X81508871Y-48704164I-1040960J-1079999D01*
G01*
X84109999Y-48548485D02*
G75*
G03*
X80877666Y-48705392I-1559999J-1235515D01*
G01*
%TO.C,R7*%
X76734936Y-51843000D02*
X77189064Y-51843000D01*
X76734936Y-53313000D02*
X77189064Y-53313000D01*
%TO.C,D3*%
X50337000Y-50348000D02*
X50337000Y-52268000D01*
X50337000Y-52268000D02*
X53197000Y-52268000D01*
X53197000Y-50348000D02*
X50337000Y-50348000D01*
%TO.C,C1*%
X52563752Y-41121000D02*
X52041248Y-41121000D01*
X52563752Y-39651000D02*
X52041248Y-39651000D01*
%TO.C,R4*%
X88673000Y-58647064D02*
X88673000Y-58192936D01*
X90143000Y-58647064D02*
X90143000Y-58192936D01*
%TO.C,R11*%
X52207936Y-45239000D02*
X52662064Y-45239000D01*
X52207936Y-46709000D02*
X52662064Y-46709000D01*
%TO.C,Q3*%
X63324500Y-64226000D02*
X61649500Y-64226000D01*
X63324500Y-64226000D02*
X63974500Y-64226000D01*
X63324500Y-67346000D02*
X62674500Y-67346000D01*
X63324500Y-67346000D02*
X63974500Y-67346000D01*
%TO.C,SW2*%
X76162000Y-39960000D02*
X78012000Y-39960000D01*
X78012000Y-39310000D02*
X78012000Y-39960000D01*
X78012000Y-39310000D02*
X83532000Y-39310000D01*
X78012000Y-40701000D02*
X78012000Y-41970000D01*
X78012000Y-41970000D02*
X83532000Y-41970000D01*
X83532000Y-39310000D02*
X83532000Y-40579000D01*
X83532000Y-40701000D02*
X83532000Y-41970000D01*
%TO.C,RESET1*%
X75740000Y-77108000D02*
X77240000Y-77108000D01*
X79740000Y-75858000D02*
X79740000Y-71358000D01*
X73240000Y-71358000D02*
X73240000Y-75858000D01*
X77240000Y-70108000D02*
X75740000Y-70108000D01*
%TO.C,Barrel_Jack1*%
X43876000Y-73078000D02*
X42576000Y-73078000D01*
X43576000Y-73378000D02*
X43576000Y-75378000D01*
X29076000Y-73378000D02*
X43576000Y-73378000D01*
X43876000Y-74778000D02*
X43876000Y-73078000D01*
X43576000Y-80578000D02*
X43576000Y-82578000D01*
X43576000Y-82578000D02*
X42276000Y-82578000D01*
X37676000Y-82578000D02*
X29076000Y-82578000D01*
X29076000Y-82578000D02*
X29076000Y-73378000D01*
%TO.C,D2*%
X75240000Y-64335000D02*
X77160000Y-64335000D01*
X77160000Y-64335000D02*
X77160000Y-61475000D01*
X75240000Y-61475000D02*
X75240000Y-64335000D01*
%TO.C,C4*%
X30707000Y-42156748D02*
X30707000Y-42679252D01*
X29237000Y-42156748D02*
X29237000Y-42679252D01*
%TO.C,R13*%
X72925000Y-62187064D02*
X72925000Y-61732936D01*
X74395000Y-62187064D02*
X74395000Y-61732936D01*
%TO.C,D1*%
X67725000Y-61666000D02*
X67725000Y-59746000D01*
X67725000Y-59746000D02*
X65040000Y-59746000D01*
X65040000Y-61666000D02*
X67725000Y-61666000D01*
%TO.C,R16*%
X77189064Y-55599000D02*
X76734936Y-55599000D01*
X77189064Y-54129000D02*
X76734936Y-54129000D01*
%TO.C,LED3*%
X84115000Y-55592000D02*
X84115000Y-55436000D01*
X84115000Y-53276000D02*
X84115000Y-53120000D01*
X80882666Y-55434608D02*
G75*
G03*
X84114999Y-55591515I1672334J1078608D01*
G01*
X81513871Y-55435836D02*
G75*
G03*
X83595960Y-55435999I1041129J1079836D01*
G01*
X83595960Y-53276001D02*
G75*
G03*
X81513871Y-53276164I-1040960J-1079999D01*
G01*
X84114999Y-53120485D02*
G75*
G03*
X80882666Y-53277392I-1559999J-1235515D01*
G01*
%TO.C,R12*%
X78512936Y-43985000D02*
X78967064Y-43985000D01*
X78512936Y-45455000D02*
X78967064Y-45455000D01*
%TO.C,C3*%
X31523000Y-42700752D02*
X31523000Y-42178248D01*
X32993000Y-42700752D02*
X32993000Y-42178248D01*
%TD*%
M02*
