%TF.GenerationSoftware,KiCad,Pcbnew,(7.0.0)*%
%TF.CreationDate,2023-04-20T20:46:08+02:00*%
%TF.ProjectId,pcb_morse,7063625f-6d6f-4727-9365-2e6b69636164,rev?*%
%TF.SameCoordinates,Original*%
%TF.FileFunction,Paste,Top*%
%TF.FilePolarity,Positive*%
%FSLAX46Y46*%
G04 Gerber Fmt 4.6, Leading zero omitted, Abs format (unit mm)*
G04 Created by KiCad (PCBNEW (7.0.0)) date 2023-04-20 20:46:08*
%MOMM*%
%LPD*%
G01*
G04 APERTURE LIST*
G04 Aperture macros list*
%AMRoundRect*
0 Rectangle with rounded corners*
0 $1 Rounding radius*
0 $2 $3 $4 $5 $6 $7 $8 $9 X,Y pos of 4 corners*
0 Add a 4 corners polygon primitive as box body*
4,1,4,$2,$3,$4,$5,$6,$7,$8,$9,$2,$3,0*
0 Add four circle primitives for the rounded corners*
1,1,$1+$1,$2,$3*
1,1,$1+$1,$4,$5*
1,1,$1+$1,$6,$7*
1,1,$1+$1,$8,$9*
0 Add four rect primitives between the rounded corners*
20,1,$1+$1,$2,$3,$4,$5,0*
20,1,$1+$1,$4,$5,$6,$7,0*
20,1,$1+$1,$6,$7,$8,$9,0*
20,1,$1+$1,$8,$9,$2,$3,0*%
G04 Aperture macros list end*
%ADD10R,1.500000X0.900000*%
%ADD11R,0.900000X1.500000*%
%ADD12R,1.050000X1.050000*%
%ADD13RoundRect,0.250000X-0.337500X-0.475000X0.337500X-0.475000X0.337500X0.475000X-0.337500X0.475000X0*%
%ADD14R,1.500000X2.000000*%
%ADD15R,3.800000X2.000000*%
%ADD16RoundRect,0.250000X-0.350000X-0.450000X0.350000X-0.450000X0.350000X0.450000X-0.350000X0.450000X0*%
%ADD17RoundRect,0.250000X-0.450000X0.350000X-0.450000X-0.350000X0.450000X-0.350000X0.450000X0.350000X0*%
%ADD18R,1.600000X0.760000*%
%ADD19RoundRect,0.250000X0.450000X-0.350000X0.450000X0.350000X-0.450000X0.350000X-0.450000X-0.350000X0*%
%ADD20RoundRect,0.150000X-0.150000X0.587500X-0.150000X-0.587500X0.150000X-0.587500X0.150000X0.587500X0*%
%ADD21RoundRect,0.250000X-0.325000X-0.450000X0.325000X-0.450000X0.325000X0.450000X-0.325000X0.450000X0*%
%ADD22RoundRect,0.250000X0.337500X0.475000X-0.337500X0.475000X-0.337500X-0.475000X0.337500X-0.475000X0*%
%ADD23RoundRect,0.150000X-0.587500X-0.150000X0.587500X-0.150000X0.587500X0.150000X-0.587500X0.150000X0*%
%ADD24RoundRect,0.250000X0.450000X-0.325000X0.450000X0.325000X-0.450000X0.325000X-0.450000X-0.325000X0*%
%ADD25RoundRect,0.250000X-0.475000X0.337500X-0.475000X-0.337500X0.475000X-0.337500X0.475000X0.337500X0*%
%ADD26RoundRect,0.243750X0.243750X0.456250X-0.243750X0.456250X-0.243750X-0.456250X0.243750X-0.456250X0*%
%ADD27RoundRect,0.250000X0.350000X0.450000X-0.350000X0.450000X-0.350000X-0.450000X0.350000X-0.450000X0*%
%ADD28RoundRect,0.250000X0.475000X-0.337500X0.475000X0.337500X-0.475000X0.337500X-0.475000X-0.337500X0*%
G04 APERTURE END LIST*
D10*
%TO.C,ESP32*%
X56184999Y-40434999D03*
X56184999Y-41704999D03*
X56184999Y-42974999D03*
X56184999Y-44244999D03*
X56184999Y-45514999D03*
X56184999Y-46784999D03*
X56184999Y-48054999D03*
X56184999Y-49324999D03*
X56184999Y-50594999D03*
X56184999Y-51864999D03*
X56184999Y-53134999D03*
X56184999Y-54404999D03*
X56184999Y-55674999D03*
X56184999Y-56944999D03*
D11*
X59224999Y-58194999D03*
X60494999Y-58194999D03*
X61764999Y-58194999D03*
X63034999Y-58194999D03*
X64304999Y-58194999D03*
X65574999Y-58194999D03*
X66844999Y-58194999D03*
X68114999Y-58194999D03*
X69384999Y-58194999D03*
X70654999Y-58194999D03*
D10*
X73684999Y-56944999D03*
X73684999Y-55674999D03*
X73684999Y-54404999D03*
X73684999Y-53134999D03*
X73684999Y-51864999D03*
X73684999Y-50594999D03*
X73684999Y-49324999D03*
X73684999Y-48054999D03*
X73684999Y-46784999D03*
X73684999Y-45514999D03*
X73684999Y-44244999D03*
X73684999Y-42974999D03*
X73684999Y-41704999D03*
X73684999Y-40434999D03*
D12*
X62729999Y-46249999D03*
X62729999Y-47774999D03*
X62729999Y-49299999D03*
X64254999Y-46249999D03*
X64254999Y-47774999D03*
X64254999Y-49299999D03*
X65779999Y-46249999D03*
X65779999Y-47774999D03*
X65779999Y-49299999D03*
%TD*%
D13*
%TO.C,C2*%
X44555500Y-47625000D03*
X46630500Y-47625000D03*
%TD*%
D14*
%TO.C,PLO1*%
X35799999Y-46710999D03*
X38099999Y-46710999D03*
D15*
X38099999Y-40410999D03*
D14*
X40399999Y-46710999D03*
%TD*%
D16*
%TO.C,R1*%
X81058000Y-60198000D03*
X83058000Y-60198000D03*
%TD*%
%TO.C,R15*%
X83820000Y-45720000D03*
X85820000Y-45720000D03*
%TD*%
D17*
%TO.C,R9*%
X59944000Y-64548000D03*
X59944000Y-66548000D03*
%TD*%
D18*
%TO.C,SW1*%
X50799999Y-43179999D03*
X43179999Y-43179999D03*
%TD*%
D19*
%TO.C,R2*%
X86868000Y-68564000D03*
X86868000Y-66564000D03*
%TD*%
D16*
%TO.C,R5*%
X75962000Y-47752000D03*
X77962000Y-47752000D03*
%TD*%
%TO.C,R3*%
X81058000Y-58166000D03*
X83058000Y-58166000D03*
%TD*%
%TO.C,R6*%
X75962000Y-50292000D03*
X77962000Y-50292000D03*
%TD*%
D19*
%TO.C,R17*%
X78740000Y-63500000D03*
X78740000Y-61500000D03*
%TD*%
D20*
%TO.C,Q2*%
X87134500Y-57736500D03*
X85234500Y-57736500D03*
X86184500Y-59611500D03*
%TD*%
D16*
%TO.C,R14*%
X51324000Y-48895000D03*
X53324000Y-48895000D03*
%TD*%
%TO.C,R8*%
X51070000Y-53848000D03*
X53070000Y-53848000D03*
%TD*%
D20*
%TO.C,Q1*%
X87056000Y-61879000D03*
X85156000Y-61879000D03*
X86106000Y-63754000D03*
%TD*%
D16*
%TO.C,R7*%
X75962000Y-52578000D03*
X77962000Y-52578000D03*
%TD*%
D21*
%TO.C,D3*%
X51172000Y-51308000D03*
X53222000Y-51308000D03*
%TD*%
D22*
%TO.C,C1*%
X53340000Y-40386000D03*
X51265000Y-40386000D03*
%TD*%
D19*
%TO.C,R4*%
X89408000Y-59420000D03*
X89408000Y-57420000D03*
%TD*%
D16*
%TO.C,R11*%
X51435000Y-45974000D03*
X53435000Y-45974000D03*
%TD*%
D23*
%TO.C,Q3*%
X62387000Y-64836000D03*
X62387000Y-66736000D03*
X64262000Y-65786000D03*
%TD*%
D18*
%TO.C,SW2*%
X76961999Y-40639999D03*
X84581999Y-40639999D03*
%TD*%
D24*
%TO.C,D2*%
X76200000Y-63500000D03*
X76200000Y-61450000D03*
%TD*%
D25*
%TO.C,C4*%
X29972000Y-41380500D03*
X29972000Y-43455500D03*
%TD*%
D19*
%TO.C,R13*%
X73660000Y-62960000D03*
X73660000Y-60960000D03*
%TD*%
D26*
%TO.C,D1*%
X66977500Y-60706000D03*
X65102500Y-60706000D03*
%TD*%
D27*
%TO.C,R16*%
X77962000Y-54864000D03*
X75962000Y-54864000D03*
%TD*%
D16*
%TO.C,R12*%
X77740000Y-44720000D03*
X79740000Y-44720000D03*
%TD*%
D28*
%TO.C,C3*%
X32258000Y-43477000D03*
X32258000Y-41402000D03*
%TD*%
M02*
