%TF.GenerationSoftware,KiCad,Pcbnew,7.0.1*%
%TF.CreationDate,2023-03-21T16:37:51+01:00*%
%TF.ProjectId,pcb_morse,7063625f-6d6f-4727-9365-2e6b69636164,rev?*%
%TF.SameCoordinates,Original*%
%TF.FileFunction,Paste,Top*%
%TF.FilePolarity,Positive*%
%FSLAX46Y46*%
G04 Gerber Fmt 4.6, Leading zero omitted, Abs format (unit mm)*
G04 Created by KiCad (PCBNEW 7.0.1) date 2023-03-21 16:37:51*
%MOMM*%
%LPD*%
G01*
G04 APERTURE LIST*
G04 Aperture macros list*
%AMRoundRect*
0 Rectangle with rounded corners*
0 $1 Rounding radius*
0 $2 $3 $4 $5 $6 $7 $8 $9 X,Y pos of 4 corners*
0 Add a 4 corners polygon primitive as box body*
4,1,4,$2,$3,$4,$5,$6,$7,$8,$9,$2,$3,0*
0 Add four circle primitives for the rounded corners*
1,1,$1+$1,$2,$3*
1,1,$1+$1,$4,$5*
1,1,$1+$1,$6,$7*
1,1,$1+$1,$8,$9*
0 Add four rect primitives between the rounded corners*
20,1,$1+$1,$2,$3,$4,$5,0*
20,1,$1+$1,$4,$5,$6,$7,0*
20,1,$1+$1,$6,$7,$8,$9,0*
20,1,$1+$1,$8,$9,$2,$3,0*%
G04 Aperture macros list end*
%ADD10R,1.500000X0.900000*%
%ADD11R,0.900000X1.500000*%
%ADD12R,1.050000X1.050000*%
%ADD13RoundRect,0.250000X-0.337500X-0.475000X0.337500X-0.475000X0.337500X0.475000X-0.337500X0.475000X0*%
%ADD14R,1.500000X2.000000*%
%ADD15R,3.800000X2.000000*%
%ADD16RoundRect,0.250000X-0.350000X-0.450000X0.350000X-0.450000X0.350000X0.450000X-0.350000X0.450000X0*%
%ADD17RoundRect,0.250000X-0.450000X0.350000X-0.450000X-0.350000X0.450000X-0.350000X0.450000X0.350000X0*%
%ADD18R,1.600000X0.760000*%
%ADD19RoundRect,0.250000X0.450000X-0.350000X0.450000X0.350000X-0.450000X0.350000X-0.450000X-0.350000X0*%
%ADD20RoundRect,0.150000X-0.150000X0.587500X-0.150000X-0.587500X0.150000X-0.587500X0.150000X0.587500X0*%
%ADD21RoundRect,0.250000X-0.325000X-0.450000X0.325000X-0.450000X0.325000X0.450000X-0.325000X0.450000X0*%
%ADD22RoundRect,0.250000X0.337500X0.475000X-0.337500X0.475000X-0.337500X-0.475000X0.337500X-0.475000X0*%
%ADD23RoundRect,0.150000X-0.587500X-0.150000X0.587500X-0.150000X0.587500X0.150000X-0.587500X0.150000X0*%
%ADD24RoundRect,0.250000X0.450000X-0.325000X0.450000X0.325000X-0.450000X0.325000X-0.450000X-0.325000X0*%
%ADD25RoundRect,0.250000X-0.475000X0.337500X-0.475000X-0.337500X0.475000X-0.337500X0.475000X0.337500X0*%
%ADD26RoundRect,0.243750X0.243750X0.456250X-0.243750X0.456250X-0.243750X-0.456250X0.243750X-0.456250X0*%
%ADD27RoundRect,0.250000X0.350000X0.450000X-0.350000X0.450000X-0.350000X-0.450000X0.350000X-0.450000X0*%
%ADD28RoundRect,0.250000X0.475000X-0.337500X0.475000X0.337500X-0.475000X0.337500X-0.475000X-0.337500X0*%
G04 APERTURE END LIST*
D10*
%TO.C,ESP32*%
X56185000Y-40435000D03*
X56185000Y-41705000D03*
X56185000Y-42975000D03*
X56185000Y-44245000D03*
X56185000Y-45515000D03*
X56185000Y-46785000D03*
X56185000Y-48055000D03*
X56185000Y-49325000D03*
X56185000Y-50595000D03*
X56185000Y-51865000D03*
X56185000Y-53135000D03*
X56185000Y-54405000D03*
X56185000Y-55675000D03*
X56185000Y-56945000D03*
D11*
X59225000Y-58195000D03*
X60495000Y-58195000D03*
X61765000Y-58195000D03*
X63035000Y-58195000D03*
X64305000Y-58195000D03*
X65575000Y-58195000D03*
X66845000Y-58195000D03*
X68115000Y-58195000D03*
X69385000Y-58195000D03*
X70655000Y-58195000D03*
D10*
X73685000Y-56945000D03*
X73685000Y-55675000D03*
X73685000Y-54405000D03*
X73685000Y-53135000D03*
X73685000Y-51865000D03*
X73685000Y-50595000D03*
X73685000Y-49325000D03*
X73685000Y-48055000D03*
X73685000Y-46785000D03*
X73685000Y-45515000D03*
X73685000Y-44245000D03*
X73685000Y-42975000D03*
X73685000Y-41705000D03*
X73685000Y-40435000D03*
D12*
X62730000Y-46250000D03*
X62730000Y-47775000D03*
X62730000Y-49300000D03*
X64255000Y-46250000D03*
X64255000Y-47775000D03*
X64255000Y-49300000D03*
X65780000Y-46250000D03*
X65780000Y-47775000D03*
X65780000Y-49300000D03*
%TD*%
D13*
%TO.C,C2*%
X44555500Y-47625000D03*
X46630500Y-47625000D03*
%TD*%
D14*
%TO.C,PLO1*%
X35800000Y-46711000D03*
X38100000Y-46711000D03*
D15*
X38100000Y-40411000D03*
D14*
X40400000Y-46711000D03*
%TD*%
D16*
%TO.C,R1*%
X81058000Y-60198000D03*
X83058000Y-60198000D03*
%TD*%
%TO.C,R15*%
X83820000Y-45720000D03*
X85820000Y-45720000D03*
%TD*%
D17*
%TO.C,R9*%
X48006000Y-57166000D03*
X48006000Y-59166000D03*
%TD*%
D18*
%TO.C,SW1*%
X50800000Y-43180000D03*
X43180000Y-43180000D03*
%TD*%
D19*
%TO.C,R2*%
X86868000Y-68564000D03*
X86868000Y-66564000D03*
%TD*%
D16*
%TO.C,R5*%
X75962000Y-47752000D03*
X77962000Y-47752000D03*
%TD*%
%TO.C,R3*%
X81058000Y-58166000D03*
X83058000Y-58166000D03*
%TD*%
%TO.C,R6*%
X75962000Y-50292000D03*
X77962000Y-50292000D03*
%TD*%
D19*
%TO.C,R17*%
X78740000Y-63500000D03*
X78740000Y-61500000D03*
%TD*%
D20*
%TO.C,Q2*%
X87134500Y-57736500D03*
X85234500Y-57736500D03*
X86184500Y-59611500D03*
%TD*%
D16*
%TO.C,R14*%
X51324000Y-48895000D03*
X53324000Y-48895000D03*
%TD*%
%TO.C,R8*%
X50943000Y-54356000D03*
X52943000Y-54356000D03*
%TD*%
D20*
%TO.C,Q1*%
X87056000Y-61879000D03*
X85156000Y-61879000D03*
X86106000Y-63754000D03*
%TD*%
D16*
%TO.C,R7*%
X75962000Y-52578000D03*
X77962000Y-52578000D03*
%TD*%
D21*
%TO.C,D3*%
X51172000Y-51308000D03*
X53222000Y-51308000D03*
%TD*%
D22*
%TO.C,C1*%
X53340000Y-40386000D03*
X51265000Y-40386000D03*
%TD*%
D19*
%TO.C,R4*%
X89408000Y-59420000D03*
X89408000Y-57420000D03*
%TD*%
D16*
%TO.C,R11*%
X51435000Y-45974000D03*
X53435000Y-45974000D03*
%TD*%
D23*
%TO.C,Q3*%
X51211000Y-57216000D03*
X51211000Y-59116000D03*
X53086000Y-58166000D03*
%TD*%
D24*
%TO.C,D2*%
X76200000Y-63500000D03*
X76200000Y-61450000D03*
%TD*%
D25*
%TO.C,C4*%
X29972000Y-41380500D03*
X29972000Y-43455500D03*
%TD*%
D19*
%TO.C,R13*%
X73660000Y-62960000D03*
X73660000Y-60960000D03*
%TD*%
D16*
%TO.C,R10*%
X68750000Y-60575000D03*
X70750000Y-60575000D03*
%TD*%
D26*
%TO.C,D1*%
X66937500Y-60600000D03*
X65062500Y-60600000D03*
%TD*%
D27*
%TO.C,R16*%
X77962000Y-54864000D03*
X75962000Y-54864000D03*
%TD*%
D16*
%TO.C,R12*%
X77740000Y-44720000D03*
X79740000Y-44720000D03*
%TD*%
D28*
%TO.C,C3*%
X32258000Y-43477000D03*
X32258000Y-41402000D03*
%TD*%
M02*
