%TF.GenerationSoftware,KiCad,Pcbnew,7.0.1*%
%TF.CreationDate,2023-03-21T16:37:50+01:00*%
%TF.ProjectId,pcb_morse,7063625f-6d6f-4727-9365-2e6b69636164,rev?*%
%TF.SameCoordinates,Original*%
%TF.FileFunction,Copper,L1,Top*%
%TF.FilePolarity,Positive*%
%FSLAX46Y46*%
G04 Gerber Fmt 4.6, Leading zero omitted, Abs format (unit mm)*
G04 Created by KiCad (PCBNEW 7.0.1) date 2023-03-21 16:37:50*
%MOMM*%
%LPD*%
G01*
G04 APERTURE LIST*
G04 Aperture macros list*
%AMRoundRect*
0 Rectangle with rounded corners*
0 $1 Rounding radius*
0 $2 $3 $4 $5 $6 $7 $8 $9 X,Y pos of 4 corners*
0 Add a 4 corners polygon primitive as box body*
4,1,4,$2,$3,$4,$5,$6,$7,$8,$9,$2,$3,0*
0 Add four circle primitives for the rounded corners*
1,1,$1+$1,$2,$3*
1,1,$1+$1,$4,$5*
1,1,$1+$1,$6,$7*
1,1,$1+$1,$8,$9*
0 Add four rect primitives between the rounded corners*
20,1,$1+$1,$2,$3,$4,$5,0*
20,1,$1+$1,$4,$5,$6,$7,0*
20,1,$1+$1,$6,$7,$8,$9,0*
20,1,$1+$1,$8,$9,$2,$3,0*%
G04 Aperture macros list end*
%TA.AperFunction,SMDPad,CuDef*%
%ADD10R,1.500000X0.900000*%
%TD*%
%TA.AperFunction,SMDPad,CuDef*%
%ADD11R,0.900000X1.500000*%
%TD*%
%TA.AperFunction,SMDPad,CuDef*%
%ADD12R,1.050000X1.050000*%
%TD*%
%TA.AperFunction,HeatsinkPad*%
%ADD13C,0.600000*%
%TD*%
%TA.AperFunction,SMDPad,CuDef*%
%ADD14R,4.200000X4.200000*%
%TD*%
%TA.AperFunction,SMDPad,CuDef*%
%ADD15RoundRect,0.250000X-0.337500X-0.475000X0.337500X-0.475000X0.337500X0.475000X-0.337500X0.475000X0*%
%TD*%
%TA.AperFunction,ComponentPad*%
%ADD16C,2.032000*%
%TD*%
%TA.AperFunction,SMDPad,CuDef*%
%ADD17R,1.500000X2.000000*%
%TD*%
%TA.AperFunction,SMDPad,CuDef*%
%ADD18R,3.800000X2.000000*%
%TD*%
%TA.AperFunction,ComponentPad*%
%ADD19R,1.800000X1.800000*%
%TD*%
%TA.AperFunction,ComponentPad*%
%ADD20C,1.800000*%
%TD*%
%TA.AperFunction,SMDPad,CuDef*%
%ADD21RoundRect,0.250000X-0.350000X-0.450000X0.350000X-0.450000X0.350000X0.450000X-0.350000X0.450000X0*%
%TD*%
%TA.AperFunction,ComponentPad*%
%ADD22R,3.000000X3.000000*%
%TD*%
%TA.AperFunction,ComponentPad*%
%ADD23C,3.000000*%
%TD*%
%TA.AperFunction,ComponentPad*%
%ADD24R,1.350000X1.350000*%
%TD*%
%TA.AperFunction,ComponentPad*%
%ADD25O,1.350000X1.350000*%
%TD*%
%TA.AperFunction,SMDPad,CuDef*%
%ADD26RoundRect,0.250000X-0.450000X0.350000X-0.450000X-0.350000X0.450000X-0.350000X0.450000X0.350000X0*%
%TD*%
%TA.AperFunction,SMDPad,CuDef*%
%ADD27R,1.600000X0.760000*%
%TD*%
%TA.AperFunction,SMDPad,CuDef*%
%ADD28RoundRect,0.250000X0.450000X-0.350000X0.450000X0.350000X-0.450000X0.350000X-0.450000X-0.350000X0*%
%TD*%
%TA.AperFunction,ComponentPad*%
%ADD29C,2.500000*%
%TD*%
%TA.AperFunction,ComponentPad*%
%ADD30C,2.000000*%
%TD*%
%TA.AperFunction,SMDPad,CuDef*%
%ADD31RoundRect,0.150000X-0.150000X0.587500X-0.150000X-0.587500X0.150000X-0.587500X0.150000X0.587500X0*%
%TD*%
%TA.AperFunction,SMDPad,CuDef*%
%ADD32RoundRect,0.250000X-0.325000X-0.450000X0.325000X-0.450000X0.325000X0.450000X-0.325000X0.450000X0*%
%TD*%
%TA.AperFunction,SMDPad,CuDef*%
%ADD33RoundRect,0.250000X0.337500X0.475000X-0.337500X0.475000X-0.337500X-0.475000X0.337500X-0.475000X0*%
%TD*%
%TA.AperFunction,SMDPad,CuDef*%
%ADD34RoundRect,0.150000X-0.587500X-0.150000X0.587500X-0.150000X0.587500X0.150000X-0.587500X0.150000X0*%
%TD*%
%TA.AperFunction,ComponentPad*%
%ADD35R,2.000000X4.600000*%
%TD*%
%TA.AperFunction,ComponentPad*%
%ADD36O,2.000000X4.200000*%
%TD*%
%TA.AperFunction,ComponentPad*%
%ADD37O,4.200000X2.000000*%
%TD*%
%TA.AperFunction,SMDPad,CuDef*%
%ADD38RoundRect,0.250000X0.450000X-0.325000X0.450000X0.325000X-0.450000X0.325000X-0.450000X-0.325000X0*%
%TD*%
%TA.AperFunction,SMDPad,CuDef*%
%ADD39RoundRect,0.250000X-0.475000X0.337500X-0.475000X-0.337500X0.475000X-0.337500X0.475000X0.337500X0*%
%TD*%
%TA.AperFunction,SMDPad,CuDef*%
%ADD40RoundRect,0.243750X0.243750X0.456250X-0.243750X0.456250X-0.243750X-0.456250X0.243750X-0.456250X0*%
%TD*%
%TA.AperFunction,SMDPad,CuDef*%
%ADD41RoundRect,0.250000X0.350000X0.450000X-0.350000X0.450000X-0.350000X-0.450000X0.350000X-0.450000X0*%
%TD*%
%TA.AperFunction,SMDPad,CuDef*%
%ADD42RoundRect,0.250000X0.475000X-0.337500X0.475000X0.337500X-0.475000X0.337500X-0.475000X-0.337500X0*%
%TD*%
%TA.AperFunction,ViaPad*%
%ADD43C,0.800000*%
%TD*%
%TA.AperFunction,Conductor*%
%ADD44C,0.500000*%
%TD*%
%TA.AperFunction,Conductor*%
%ADD45C,0.600000*%
%TD*%
%TA.AperFunction,Conductor*%
%ADD46C,0.400000*%
%TD*%
%TA.AperFunction,Conductor*%
%ADD47C,0.250000*%
%TD*%
G04 APERTURE END LIST*
D10*
%TO.P,ESP32,1,GND*%
%TO.N,GND*%
X56185000Y-40435000D03*
%TO.P,ESP32,2,VDD*%
%TO.N,+3.3V*%
X56185000Y-41705000D03*
%TO.P,ESP32,3,EN*%
%TO.N,/EN*%
X56185000Y-42975000D03*
%TO.P,ESP32,4,SENSOR_VP*%
%TO.N,unconnected-(ESP32-SENSOR_VP-Pad4)*%
X56185000Y-44245000D03*
%TO.P,ESP32,5,SENSOR_VN*%
%TO.N,unconnected-(ESP32-SENSOR_VN-Pad5)*%
X56185000Y-45515000D03*
%TO.P,ESP32,6,IO34*%
%TO.N,unconnected-(ESP32-IO34-Pad6)*%
X56185000Y-46785000D03*
%TO.P,ESP32,7,IO35*%
%TO.N,unconnected-(ESP32-IO35-Pad7)*%
X56185000Y-48055000D03*
%TO.P,ESP32,8,IO32*%
%TO.N,GPIO32*%
X56185000Y-49325000D03*
%TO.P,ESP32,9,IO33*%
%TO.N,unconnected-(ESP32-IO33-Pad9)*%
X56185000Y-50595000D03*
%TO.P,ESP32,10,IO25*%
%TO.N,unconnected-(ESP32-IO25-Pad10)*%
X56185000Y-51865000D03*
%TO.P,ESP32,11,IO26*%
%TO.N,unconnected-(ESP32-IO26-Pad11)*%
X56185000Y-53135000D03*
%TO.P,ESP32,12,IO27*%
%TO.N,unconnected-(ESP32-IO27-Pad12)*%
X56185000Y-54405000D03*
%TO.P,ESP32,13,IO14*%
%TO.N,unconnected-(ESP32-IO14-Pad13)*%
X56185000Y-55675000D03*
%TO.P,ESP32,14,IO12*%
%TO.N,unconnected-(ESP32-IO12-Pad14)*%
X56185000Y-56945000D03*
D11*
%TO.P,ESP32,15,GND*%
%TO.N,GND*%
X59225000Y-58195000D03*
%TO.P,ESP32,16,IO13*%
%TO.N,unconnected-(ESP32-IO13-Pad16)*%
X60495000Y-58195000D03*
%TO.P,ESP32,17,SHD/SD2*%
%TO.N,unconnected-(ESP32-SHD{slash}SD2-Pad17)*%
X61765000Y-58195000D03*
%TO.P,ESP32,18,SWP/SD3*%
%TO.N,unconnected-(ESP32-SWP{slash}SD3-Pad18)*%
X63035000Y-58195000D03*
%TO.P,ESP32,19,SCS/CMD*%
%TO.N,unconnected-(ESP32-SCS{slash}CMD-Pad19)*%
X64305000Y-58195000D03*
%TO.P,ESP32,20,SCK/CLK*%
%TO.N,unconnected-(ESP32-SCK{slash}CLK-Pad20)*%
X65575000Y-58195000D03*
%TO.P,ESP32,21,SDO/SD0*%
%TO.N,unconnected-(ESP32-SDO{slash}SD0-Pad21)*%
X66845000Y-58195000D03*
%TO.P,ESP32,22,SDI/SD1*%
%TO.N,unconnected-(ESP32-SDI{slash}SD1-Pad22)*%
X68115000Y-58195000D03*
%TO.P,ESP32,23,IO15*%
%TO.N,unconnected-(ESP32-IO15-Pad23)*%
X69385000Y-58195000D03*
%TO.P,ESP32,24,IO2*%
%TO.N,GPIO2*%
X70655000Y-58195000D03*
D10*
%TO.P,ESP32,25,IO0*%
%TO.N,GPIO0*%
X73685000Y-56945000D03*
%TO.P,ESP32,26,IO4*%
%TO.N,GPIO4*%
X73685000Y-55675000D03*
%TO.P,ESP32,27,IO16*%
%TO.N,GPIO16*%
X73685000Y-54405000D03*
%TO.P,ESP32,28,IO17*%
%TO.N,GPIO17*%
X73685000Y-53135000D03*
%TO.P,ESP32,29,IO5*%
%TO.N,GPIO5*%
X73685000Y-51865000D03*
%TO.P,ESP32,30,IO18*%
%TO.N,GPIO18*%
X73685000Y-50595000D03*
%TO.P,ESP32,31,IO19*%
%TO.N,GPIO19*%
X73685000Y-49325000D03*
%TO.P,ESP32,32,NC*%
%TO.N,unconnected-(ESP32-NC-Pad32)*%
X73685000Y-48055000D03*
%TO.P,ESP32,33,IO21*%
%TO.N,unconnected-(ESP32-IO21-Pad33)*%
X73685000Y-46785000D03*
%TO.P,ESP32,34,RXD0/IO3*%
%TO.N,RX0*%
X73685000Y-45515000D03*
%TO.P,ESP32,35,TXD0/IO1*%
%TO.N,TX0*%
X73685000Y-44245000D03*
%TO.P,ESP32,36,IO22*%
%TO.N,unconnected-(ESP32-IO22-Pad36)*%
X73685000Y-42975000D03*
%TO.P,ESP32,37,IO23*%
%TO.N,unconnected-(ESP32-IO23-Pad37)*%
X73685000Y-41705000D03*
%TO.P,ESP32,38,GND*%
%TO.N,GND*%
X73685000Y-40435000D03*
D12*
%TO.P,ESP32,39,GND*%
X62730000Y-46250000D03*
D13*
X62730000Y-47012500D03*
D12*
X62730000Y-47775000D03*
D13*
X62730000Y-48537500D03*
D12*
X62730000Y-49300000D03*
D13*
X63492500Y-46250000D03*
X63492500Y-47775000D03*
X63492500Y-49300000D03*
D12*
X64255000Y-46250000D03*
D13*
X64255000Y-47012500D03*
D12*
X64255000Y-47775000D03*
D14*
X64255000Y-47775000D03*
D13*
X64255000Y-48537500D03*
D12*
X64255000Y-49300000D03*
D13*
X65017500Y-46250000D03*
X65017500Y-47775000D03*
X65017500Y-49300000D03*
D12*
X65780000Y-46250000D03*
D13*
X65780000Y-47012500D03*
D12*
X65780000Y-47775000D03*
D13*
X65780000Y-48537500D03*
D12*
X65780000Y-49300000D03*
%TD*%
D15*
%TO.P,C2,1*%
%TO.N,VDD*%
X44555500Y-47625000D03*
%TO.P,C2,2*%
%TO.N,GND*%
X46630500Y-47625000D03*
%TD*%
D16*
%TO.P,UMP1584,1,IN-*%
%TO.N,Net-(Barrel_Jack1-Pad2)*%
X31623000Y-70326000D03*
%TO.P,UMP1584,2,IN-*%
X34163000Y-70326000D03*
%TO.P,UMP1584,3,IN+*%
%TO.N,+12V*%
X42291000Y-70326000D03*
%TO.P,UMP1584,4,IN+*%
X44831000Y-70326000D03*
%TO.P,UMP1584,5,OUT+*%
%TO.N,VDD*%
X44831000Y-51784000D03*
%TO.P,UMP1584,6,OUT+*%
X42291000Y-51784000D03*
%TO.P,UMP1584,7,OUT-*%
%TO.N,GND*%
X34163000Y-51784000D03*
%TO.P,UMP1584,8,OUT-*%
X31623000Y-51784000D03*
%TD*%
D17*
%TO.P,PLO1,1,GND*%
%TO.N,GND*%
X35800000Y-46711000D03*
%TO.P,PLO1,2,VO*%
%TO.N,+3.3V*%
X38100000Y-46711000D03*
D18*
X38100000Y-40411000D03*
D17*
%TO.P,PLO1,3,VI*%
%TO.N,VDD*%
X40400000Y-46711000D03*
%TD*%
D19*
%TO.P,LED1,1,K*%
%TO.N,GND*%
X90424000Y-51562000D03*
D20*
%TO.P,LED1,2,A*%
%TO.N,Net-(LED1-A)*%
X87884000Y-51562000D03*
%TD*%
D21*
%TO.P,R1,1*%
%TO.N,+3.3V*%
X81058000Y-60198000D03*
%TO.P,R1,2*%
%TO.N,GPIO16*%
X83058000Y-60198000D03*
%TD*%
D22*
%TO.P,Kroonsteen1,1,Pin_1*%
%TO.N,Net-(Kroonsteen1-Pin_1)*%
X60960000Y-86360000D03*
D23*
%TO.P,Kroonsteen1,2,Pin_2*%
%TO.N,Net-(Kroonsteen1-Pin_2)*%
X55880000Y-86360000D03*
%TO.P,Kroonsteen1,3,Pin_3*%
%TO.N,Net-(Kroonsteen1-Pin_3)*%
X50800000Y-86360000D03*
%TD*%
D21*
%TO.P,R15,1*%
%TO.N,+3.3V*%
X83820000Y-45720000D03*
%TO.P,R15,2*%
%TO.N,TX0*%
X85820000Y-45720000D03*
%TD*%
D24*
%TO.P,J2,1,Pin_1*%
%TO.N,+3.3V*%
X88900000Y-41180000D03*
D25*
%TO.P,J2,2,Pin_2*%
%TO.N,RX0*%
X88900000Y-43180000D03*
%TO.P,J2,3,Pin_3*%
%TO.N,TX0*%
X88900000Y-45180000D03*
%TO.P,J2,4,Pin_4*%
%TO.N,GND*%
X88900000Y-47180000D03*
%TD*%
D26*
%TO.P,R9,1*%
%TO.N,+12V*%
X48006000Y-57166000D03*
%TO.P,R9,2*%
%TO.N,GND*%
X48006000Y-59166000D03*
%TD*%
D27*
%TO.P,SW1,1,1*%
%TO.N,/EN*%
X50800000Y-43180000D03*
%TO.P,SW1,2,2*%
%TO.N,GND*%
X43180000Y-43180000D03*
%TD*%
D28*
%TO.P,R2,1*%
%TO.N,VDD*%
X86868000Y-68564000D03*
%TO.P,R2,2*%
%TO.N,GPIO16-5V*%
X86868000Y-66564000D03*
%TD*%
D23*
%TO.P,Relais1,1*%
%TO.N,Net-(Kroonsteen1-Pin_3)*%
X55880000Y-62620000D03*
D29*
%TO.P,Relais1,2*%
%TO.N,GND*%
X49830000Y-64570000D03*
D23*
%TO.P,Relais1,3*%
%TO.N,Net-(Kroonsteen1-Pin_2)*%
X49830000Y-76770000D03*
%TO.P,Relais1,4*%
%TO.N,Net-(Kroonsteen1-Pin_1)*%
X61880000Y-76820000D03*
D29*
%TO.P,Relais1,5*%
%TO.N,Net-(D1-K)*%
X61830000Y-64570000D03*
%TD*%
D21*
%TO.P,R5,1*%
%TO.N,GPIO19*%
X75962000Y-47752000D03*
%TO.P,R5,2*%
%TO.N,Net-(LED1-A)*%
X77962000Y-47752000D03*
%TD*%
D30*
%TO.P,START1,1,1A*%
%TO.N,+3.3V*%
X66330000Y-76910000D03*
X66330000Y-70410000D03*
%TO.P,START1,2,2B*%
%TO.N,GPIO2*%
X70830000Y-76910000D03*
X70830000Y-70410000D03*
%TD*%
D21*
%TO.P,R3,1*%
%TO.N,+3.3V*%
X81058000Y-58166000D03*
%TO.P,R3,2*%
%TO.N,GPIO17*%
X83058000Y-58166000D03*
%TD*%
%TO.P,R6,1*%
%TO.N,GPIO18*%
X75962000Y-50292000D03*
%TO.P,R6,2*%
%TO.N,Net-(LED2-A)*%
X77962000Y-50292000D03*
%TD*%
D24*
%TO.P,ULTRASONIC-SENSOR1,1,Pin_1*%
%TO.N,GND*%
X89662000Y-68008000D03*
D25*
%TO.P,ULTRASONIC-SENSOR1,2,Pin_2*%
%TO.N,GPIO16-5V*%
X89662000Y-66008000D03*
%TO.P,ULTRASONIC-SENSOR1,3,Pin_3*%
%TO.N,GPIO17-5V*%
X89662000Y-64008000D03*
%TO.P,ULTRASONIC-SENSOR1,4,Pin_4*%
%TO.N,VDD*%
X89662000Y-62008000D03*
%TD*%
D28*
%TO.P,R17,1*%
%TO.N,Net-(D2-K)*%
X78740000Y-63500000D03*
%TO.P,R17,2*%
%TO.N,GND*%
X78740000Y-61500000D03*
%TD*%
D31*
%TO.P,Q2,1,G*%
%TO.N,+3.3V*%
X87134500Y-57736500D03*
%TO.P,Q2,2,S*%
%TO.N,GPIO17*%
X85234500Y-57736500D03*
%TO.P,Q2,3,D*%
%TO.N,GPIO17-5V*%
X86184500Y-59611500D03*
%TD*%
D21*
%TO.P,R14,1*%
%TO.N,+3.3V*%
X51324000Y-48895000D03*
%TO.P,R14,2*%
%TO.N,Net-(D3-A)*%
X53324000Y-48895000D03*
%TD*%
%TO.P,R8,1*%
%TO.N,Net-(Q3-B)*%
X50943000Y-54356000D03*
%TO.P,R8,2*%
%TO.N,GPIO32*%
X52943000Y-54356000D03*
%TD*%
D31*
%TO.P,Q1,1,G*%
%TO.N,+3.3V*%
X87056000Y-61879000D03*
%TO.P,Q1,2,S*%
%TO.N,GPIO16*%
X85156000Y-61879000D03*
%TO.P,Q1,3,D*%
%TO.N,GPIO16-5V*%
X86106000Y-63754000D03*
%TD*%
D19*
%TO.P,LED2,1,K*%
%TO.N,GND*%
X83820000Y-49784000D03*
D20*
%TO.P,LED2,2,A*%
%TO.N,Net-(LED2-A)*%
X81280000Y-49784000D03*
%TD*%
D21*
%TO.P,R7,1*%
%TO.N,GPIO5*%
X75962000Y-52578000D03*
%TO.P,R7,2*%
%TO.N,Net-(LED3-A)*%
X77962000Y-52578000D03*
%TD*%
D32*
%TO.P,D3,1,K*%
%TO.N,GND*%
X51172000Y-51308000D03*
%TO.P,D3,2,A*%
%TO.N,Net-(D3-A)*%
X53222000Y-51308000D03*
%TD*%
D33*
%TO.P,C1,1*%
%TO.N,+3.3V*%
X53340000Y-40386000D03*
%TO.P,C1,2*%
%TO.N,GND*%
X51265000Y-40386000D03*
%TD*%
D28*
%TO.P,R4,1*%
%TO.N,VDD*%
X89408000Y-59420000D03*
%TO.P,R4,2*%
%TO.N,GPIO17-5V*%
X89408000Y-57420000D03*
%TD*%
D21*
%TO.P,R11,1*%
%TO.N,+3.3V*%
X51435000Y-45974000D03*
%TO.P,R11,2*%
%TO.N,/EN*%
X53435000Y-45974000D03*
%TD*%
D34*
%TO.P,Q3,1,B*%
%TO.N,Net-(Q3-B)*%
X51211000Y-57216000D03*
%TO.P,Q3,2,E*%
%TO.N,+12V*%
X51211000Y-59116000D03*
%TO.P,Q3,3,C*%
%TO.N,Net-(D1-K)*%
X53086000Y-58166000D03*
%TD*%
D30*
%TO.P,RESET1,1,1A*%
%TO.N,+3.3V*%
X74240000Y-76858000D03*
X74240000Y-70358000D03*
%TO.P,RESET1,2,2B*%
%TO.N,GPIO4*%
X78740000Y-76858000D03*
X78740000Y-70358000D03*
%TD*%
D35*
%TO.P,Barrel_Jack1,1*%
%TO.N,+12V*%
X42876000Y-77978000D03*
D36*
%TO.P,Barrel_Jack1,2*%
%TO.N,Net-(Barrel_Jack1-Pad2)*%
X36576000Y-77978000D03*
D37*
%TO.P,Barrel_Jack1,3*%
%TO.N,N/C*%
X39976000Y-82778000D03*
%TD*%
D38*
%TO.P,D2,1,K*%
%TO.N,Net-(D2-K)*%
X76200000Y-63500000D03*
%TO.P,D2,2,A*%
%TO.N,GPIO2*%
X76200000Y-61450000D03*
%TD*%
D39*
%TO.P,C4,1*%
%TO.N,+3.3V*%
X29972000Y-41380500D03*
%TO.P,C4,2*%
%TO.N,GND*%
X29972000Y-43455500D03*
%TD*%
D28*
%TO.P,R13,1*%
%TO.N,GND*%
X73660000Y-62960000D03*
%TO.P,R13,2*%
%TO.N,GPIO2*%
X73660000Y-60960000D03*
%TD*%
D21*
%TO.P,R10,1*%
%TO.N,Net-(D1-K)*%
X68750000Y-60575000D03*
%TO.P,R10,2*%
%TO.N,GND*%
X70750000Y-60575000D03*
%TD*%
D40*
%TO.P,D1,1,K*%
%TO.N,Net-(D1-K)*%
X66937500Y-60600000D03*
%TO.P,D1,2,A*%
%TO.N,GND*%
X65062500Y-60600000D03*
%TD*%
D41*
%TO.P,R16,1*%
%TO.N,+3.3V*%
X77962000Y-54864000D03*
%TO.P,R16,2*%
%TO.N,GPIO5*%
X75962000Y-54864000D03*
%TD*%
D19*
%TO.P,LED3,1,K*%
%TO.N,GND*%
X83825000Y-54356000D03*
D20*
%TO.P,LED3,2,A*%
%TO.N,Net-(LED3-A)*%
X81285000Y-54356000D03*
%TD*%
D21*
%TO.P,R12,1*%
%TO.N,+3.3V*%
X77740000Y-44720000D03*
%TO.P,R12,2*%
%TO.N,GPIO0*%
X79740000Y-44720000D03*
%TD*%
D42*
%TO.P,C3,1*%
%TO.N,GND*%
X32258000Y-43477000D03*
%TO.P,C3,2*%
%TO.N,+3.3V*%
X32258000Y-41402000D03*
%TD*%
D43*
%TO.N,+3.3V*%
X53340000Y-40640000D03*
X87122000Y-61976000D03*
X76200000Y-43180000D03*
X83820000Y-45720000D03*
X87122000Y-57658000D03*
X82042000Y-62484000D03*
%TO.N,GND*%
X30734000Y-46990000D03*
X78740000Y-61500000D03*
X80518000Y-73660000D03*
X77978000Y-57404000D03*
X81534000Y-43434000D03*
X33909000Y-86995000D03*
X55626000Y-76962000D03*
X40640000Y-60960000D03*
X73787000Y-40513000D03*
X70866000Y-49530000D03*
X76200000Y-68580000D03*
X73660000Y-62960000D03*
X31242000Y-36322000D03*
X78486000Y-86106000D03*
X30734000Y-60960000D03*
X30734000Y-66040000D03*
X63500000Y-53848000D03*
X40640000Y-66040000D03*
X63300000Y-60300000D03*
X43053000Y-45974000D03*
X63500000Y-40640000D03*
X86868000Y-74676000D03*
X46482000Y-40513000D03*
X69088000Y-86106000D03*
X55372000Y-68072000D03*
X87122000Y-81280000D03*
X40640000Y-55880000D03*
X30734000Y-55880000D03*
X40640000Y-88900000D03*
X51172000Y-51308000D03*
%TO.N,VDD*%
X86868000Y-68580000D03*
%TO.N,TX0*%
X73685000Y-44245000D03*
%TO.N,GPIO16*%
X83058000Y-60198000D03*
X73660000Y-54356000D03*
%TO.N,GPIO17*%
X73660000Y-53086000D03*
X83058000Y-58166000D03*
%TD*%
D44*
%TO.N,+3.3V*%
X51435000Y-45974000D02*
X51435000Y-48784000D01*
X74240000Y-70358000D02*
X74240000Y-76858000D01*
X77962000Y-55070000D02*
X81058000Y-58166000D01*
X46228000Y-45085000D02*
X49403000Y-41910000D01*
D45*
X67830000Y-78410000D02*
X72688000Y-78410000D01*
X67830000Y-78410000D02*
X66330000Y-76910000D01*
D44*
X54659000Y-41705000D02*
X56185000Y-41705000D01*
X41148000Y-45085000D02*
X45212000Y-45085000D01*
D45*
X72688000Y-78410000D02*
X74240000Y-76858000D01*
D44*
X77962000Y-54864000D02*
X77962000Y-55070000D01*
X51435000Y-48784000D02*
X51324000Y-48895000D01*
X82042000Y-62484000D02*
X82042000Y-61182000D01*
X51340000Y-45879000D02*
X51435000Y-45974000D01*
X51308000Y-45974000D02*
X51435000Y-45974000D01*
X53340000Y-40386000D02*
X54659000Y-41705000D01*
X33324000Y-41380500D02*
X34293500Y-40411000D01*
D45*
X82042000Y-75677321D02*
X82042000Y-62484000D01*
D44*
X45212000Y-45085000D02*
X46228000Y-45085000D01*
D45*
X79361321Y-78358000D02*
X82042000Y-75677321D01*
D44*
X66330000Y-76910000D02*
X66330000Y-70410000D01*
X49403000Y-41910000D02*
X52070000Y-41910000D01*
X77740000Y-44720000D02*
X76200000Y-43180000D01*
X38100000Y-42037000D02*
X38100000Y-46711000D01*
D45*
X74240000Y-76858000D02*
X75740000Y-78358000D01*
D44*
X52070000Y-41910000D02*
X53340000Y-40640000D01*
X82042000Y-61182000D02*
X81058000Y-60198000D01*
X32131000Y-41380500D02*
X33324000Y-41380500D01*
X32236500Y-41380500D02*
X32258000Y-41402000D01*
X81058000Y-58166000D02*
X81058000Y-60198000D01*
X50419000Y-45085000D02*
X51308000Y-45974000D01*
X45212000Y-45085000D02*
X50419000Y-45085000D01*
X38100000Y-40411000D02*
X38100000Y-42037000D01*
X38100000Y-40411000D02*
X34293500Y-40411000D01*
D45*
X75740000Y-78358000D02*
X79361321Y-78358000D01*
D44*
X29972000Y-41380500D02*
X32236500Y-41380500D01*
X38100000Y-42037000D02*
X41148000Y-45085000D01*
D45*
%TO.N,GND*%
X65017500Y-46250000D02*
X65017500Y-47012500D01*
X63492500Y-47012500D02*
X64255000Y-47775000D01*
X83820000Y-50292000D02*
X85598000Y-52070000D01*
D46*
X65780000Y-48537500D02*
X65780000Y-49300000D01*
X65780000Y-47012500D02*
X65780000Y-46250000D01*
D45*
X65017500Y-47012500D02*
X64255000Y-47775000D01*
X83820000Y-49784000D02*
X83820000Y-50292000D01*
D46*
X63492500Y-49300000D02*
X62730000Y-49300000D01*
X65017500Y-46250000D02*
X65780000Y-46250000D01*
X65017500Y-49300000D02*
X65780000Y-49300000D01*
X63492500Y-46250000D02*
X62730000Y-46250000D01*
D45*
X63492500Y-46250000D02*
X63492500Y-47012500D01*
%TO.N,VDD*%
X89408000Y-61754000D02*
X89662000Y-62008000D01*
X89408000Y-59420000D02*
X89408000Y-61754000D01*
X42291000Y-49022000D02*
X43688000Y-47625000D01*
X42291000Y-48602000D02*
X40400000Y-46711000D01*
X42291000Y-51784000D02*
X44831000Y-51784000D01*
X42291000Y-49022000D02*
X42291000Y-48602000D01*
X43688000Y-47625000D02*
X44555500Y-47625000D01*
X42291000Y-51784000D02*
X42291000Y-49022000D01*
D47*
%TO.N,Net-(D1-K)*%
X53086000Y-58166000D02*
X54483000Y-59563000D01*
X66975000Y-63000000D02*
X66975000Y-60637500D01*
X66975000Y-60637500D02*
X66937500Y-60600000D01*
X54483000Y-59563000D02*
X56261000Y-59563000D01*
D46*
X57404000Y-60706000D02*
X61268000Y-64570000D01*
D47*
X65405000Y-64570000D02*
X66975000Y-63000000D01*
D46*
X61268000Y-64570000D02*
X61830000Y-64570000D01*
X56261000Y-59563000D02*
X57404000Y-60706000D01*
D47*
X68750000Y-60575000D02*
X66962500Y-60575000D01*
X66962500Y-60575000D02*
X66937500Y-60600000D01*
X61830000Y-64570000D02*
X65405000Y-64570000D01*
D46*
%TO.N,GPIO2*%
X73660000Y-60960000D02*
X70830000Y-63790000D01*
X70830000Y-70410000D02*
X70830000Y-76910000D01*
X75710000Y-60960000D02*
X76200000Y-61450000D01*
X70830000Y-63790000D02*
X70830000Y-70410000D01*
X70655000Y-58195000D02*
X70895000Y-58195000D01*
X70895000Y-58195000D02*
X73660000Y-60960000D01*
X73660000Y-60960000D02*
X75710000Y-60960000D01*
%TO.N,RX0*%
X73685000Y-45515000D02*
X73915000Y-45745000D01*
X73685000Y-45515000D02*
X74040000Y-45870000D01*
X83820000Y-43180000D02*
X88900000Y-43180000D01*
X74040000Y-45870000D02*
X81130000Y-45870000D01*
X81130000Y-45870000D02*
X83820000Y-43180000D01*
%TO.N,TX0*%
X86360000Y-45180000D02*
X88900000Y-45180000D01*
X85820000Y-45720000D02*
X86360000Y-45180000D01*
%TO.N,/EN*%
X55185000Y-42975000D02*
X56185000Y-42975000D01*
X53435000Y-45974000D02*
X53467000Y-45974000D01*
X56185000Y-42975000D02*
X51005000Y-42975000D01*
X51005000Y-42975000D02*
X50800000Y-43180000D01*
X54483000Y-43677000D02*
X55185000Y-42975000D01*
X53467000Y-45974000D02*
X54483000Y-44958000D01*
X54483000Y-44958000D02*
X54483000Y-43677000D01*
%TO.N,GPIO0*%
X68580000Y-43690000D02*
X68580000Y-52840000D01*
X77470000Y-40640000D02*
X77470000Y-42450000D01*
X71375000Y-40895000D02*
X68580000Y-43690000D01*
X72610000Y-39660000D02*
X71375000Y-40895000D01*
X72735000Y-39535000D02*
X71375000Y-40895000D01*
X77470000Y-40640000D02*
X76490000Y-39660000D01*
X76490000Y-39660000D02*
X76365000Y-39535000D01*
X77470000Y-42450000D02*
X79740000Y-44720000D01*
X68580000Y-52840000D02*
X72685000Y-56945000D01*
X76365000Y-39535000D02*
X72735000Y-39535000D01*
X72685000Y-56945000D02*
X73685000Y-56945000D01*
D47*
%TO.N,GPIO5*%
X75082500Y-51865000D02*
X76049500Y-52832000D01*
D46*
X74979000Y-51865000D02*
X73685000Y-51865000D01*
X75962000Y-52578000D02*
X75962000Y-54864000D01*
D47*
X74979000Y-51865000D02*
X75082500Y-51865000D01*
D46*
%TO.N,Net-(D2-K)*%
X76200000Y-63500000D02*
X78740000Y-63500000D01*
%TO.N,Net-(D3-A)*%
X53222000Y-48997000D02*
X53324000Y-48895000D01*
X53222000Y-51308000D02*
X53222000Y-48997000D01*
D45*
%TO.N,Net-(Barrel_Jack1-Pad2)*%
X34163000Y-75565000D02*
X36576000Y-77978000D01*
X34163000Y-70326000D02*
X34163000Y-75565000D01*
X31623000Y-70326000D02*
X34163000Y-70326000D01*
D47*
%TO.N,Net-(LED1-A)*%
X77874500Y-47752000D02*
X84074000Y-47752000D01*
X84074000Y-47752000D02*
X87884000Y-51562000D01*
%TO.N,Net-(LED2-A)*%
X78382500Y-49784000D02*
X81280000Y-49784000D01*
X77874500Y-50292000D02*
X78382500Y-49784000D01*
%TO.N,Net-(LED3-A)*%
X77874500Y-52832000D02*
X79761000Y-52832000D01*
X79761000Y-52832000D02*
X81285000Y-54356000D01*
D46*
%TO.N,GPIO16*%
X83058000Y-60198000D02*
X83475000Y-60198000D01*
X83475000Y-60198000D02*
X85156000Y-61879000D01*
%TO.N,GPIO16-5V*%
X87424000Y-66008000D02*
X86868000Y-66564000D01*
X89662000Y-66008000D02*
X87424000Y-66008000D01*
X86106000Y-63754000D02*
X86106000Y-65802000D01*
X86106000Y-65802000D02*
X86868000Y-66564000D01*
%TO.N,GPIO17*%
X84805000Y-58166000D02*
X85234500Y-57736500D01*
X83058000Y-58166000D02*
X84805000Y-58166000D01*
%TO.N,GPIO17-5V*%
X89408000Y-57420000D02*
X90737000Y-58749000D01*
X90737000Y-58749000D02*
X90737000Y-62933000D01*
X90737000Y-62933000D02*
X89662000Y-64008000D01*
X89408000Y-57420000D02*
X87216500Y-59611500D01*
X87216500Y-59611500D02*
X86184500Y-59611500D01*
D47*
%TO.N,Net-(Q3-B)*%
X51211000Y-57216000D02*
X51211000Y-54624000D01*
X51211000Y-54624000D02*
X50943000Y-54356000D01*
%TO.N,GPIO18*%
X73685000Y-50595000D02*
X75746500Y-50595000D01*
X75746500Y-50595000D02*
X76049500Y-50292000D01*
D46*
%TO.N,GPIO19*%
X74389000Y-49325000D02*
X75962000Y-47752000D01*
X73685000Y-49325000D02*
X74389000Y-49325000D01*
%TO.N,GPIO32*%
X54610000Y-49900000D02*
X55185000Y-49325000D01*
X54610000Y-52070000D02*
X54610000Y-51562000D01*
X52855500Y-53824500D02*
X54610000Y-52070000D01*
X55185000Y-49325000D02*
X56185000Y-49325000D01*
X54610000Y-51562000D02*
X54610000Y-49900000D01*
X52855500Y-54356000D02*
X52855500Y-53824500D01*
%TO.N,GPIO4*%
X80899000Y-61889000D02*
X80688500Y-61678500D01*
X78740000Y-76858000D02*
X78740000Y-70358000D01*
X80899000Y-68199000D02*
X78740000Y-70358000D01*
X80899000Y-61889000D02*
X80899000Y-68199000D01*
X74685000Y-55675000D02*
X80688500Y-61678500D01*
X73685000Y-55675000D02*
X74685000Y-55675000D01*
D45*
%TO.N,+12V*%
X42291000Y-70326000D02*
X42291000Y-77393000D01*
X42291000Y-70326000D02*
X44831000Y-70326000D01*
X42291000Y-77393000D02*
X42876000Y-77978000D01*
X48006000Y-57166000D02*
X49261000Y-57166000D01*
X49261000Y-57166000D02*
X51211000Y-59116000D01*
X47609000Y-57166000D02*
X44831000Y-59944000D01*
X48006000Y-57166000D02*
X47609000Y-57166000D01*
X44831000Y-70326000D02*
X44831000Y-59944000D01*
D46*
%TO.N,Net-(Kroonsteen1-Pin_3)*%
X55880000Y-62620000D02*
X48005000Y-70495000D01*
X45900000Y-72600000D02*
X45900000Y-81460000D01*
X48005000Y-70495000D02*
X45900000Y-72600000D01*
X45900000Y-81460000D02*
X50800000Y-86360000D01*
%TO.N,Net-(Kroonsteen1-Pin_2)*%
X49830000Y-78280000D02*
X55880000Y-84330000D01*
X55880000Y-84330000D02*
X55880000Y-86360000D01*
X49830000Y-76770000D02*
X49830000Y-78280000D01*
%TO.N,Net-(Kroonsteen1-Pin_1)*%
X60960000Y-77740000D02*
X61880000Y-76820000D01*
X60960000Y-86360000D02*
X60960000Y-77740000D01*
%TD*%
%TA.AperFunction,Conductor*%
%TO.N,GND*%
G36*
X40873000Y-30497113D02*
G01*
X40918387Y-30542500D01*
X40935000Y-30604500D01*
X40935000Y-38885000D01*
X72094980Y-38885000D01*
X72151275Y-38898515D01*
X72195298Y-38936115D01*
X72217453Y-38989602D01*
X72212911Y-39047318D01*
X72182661Y-39096681D01*
X70892191Y-40387151D01*
X68102290Y-43177051D01*
X68096838Y-43182183D01*
X68051819Y-43222067D01*
X68017655Y-43271562D01*
X68013218Y-43277592D01*
X67976121Y-43324942D01*
X67971963Y-43334183D01*
X67960939Y-43353728D01*
X67955182Y-43362068D01*
X67933853Y-43418305D01*
X67930989Y-43425219D01*
X67906303Y-43480070D01*
X67904475Y-43490047D01*
X67898454Y-43511648D01*
X67894859Y-43521128D01*
X67887609Y-43580827D01*
X67886483Y-43588226D01*
X67875641Y-43647391D01*
X67879274Y-43707434D01*
X67879500Y-43714921D01*
X67879500Y-52815079D01*
X67879274Y-52822566D01*
X67875641Y-52882607D01*
X67886483Y-52941771D01*
X67887610Y-52949172D01*
X67894860Y-53008873D01*
X67898450Y-53018339D01*
X67904475Y-53039952D01*
X67906303Y-53049929D01*
X67930991Y-53104783D01*
X67933856Y-53111701D01*
X67954450Y-53166000D01*
X67955182Y-53167930D01*
X67960941Y-53176273D01*
X67971961Y-53195813D01*
X67976120Y-53205054D01*
X68013216Y-53252405D01*
X68017654Y-53258436D01*
X68049925Y-53305189D01*
X68051817Y-53307929D01*
X68096847Y-53347822D01*
X68102283Y-53352940D01*
X72172058Y-57422715D01*
X72177178Y-57428153D01*
X72214024Y-57469744D01*
X72217072Y-57473184D01*
X72266573Y-57507352D01*
X72272591Y-57511780D01*
X72319944Y-57548878D01*
X72329180Y-57553034D01*
X72348731Y-57564062D01*
X72357066Y-57569816D01*
X72357068Y-57569816D01*
X72357070Y-57569818D01*
X72413326Y-57591152D01*
X72420220Y-57594009D01*
X72449171Y-57607039D01*
X72497546Y-57645803D01*
X72577454Y-57752546D01*
X72692669Y-57838796D01*
X72827517Y-57889091D01*
X72887127Y-57895500D01*
X74482872Y-57895499D01*
X74542483Y-57889091D01*
X74677331Y-57838796D01*
X74792546Y-57752546D01*
X74878796Y-57637331D01*
X74929091Y-57502483D01*
X74935500Y-57442873D01*
X74935499Y-57215516D01*
X74949014Y-57159224D01*
X74986613Y-57115200D01*
X75040101Y-57093045D01*
X75097817Y-57097587D01*
X75147180Y-57127837D01*
X77545741Y-59526398D01*
X78218204Y-60198860D01*
X78251485Y-60259262D01*
X78247350Y-60328103D01*
X78207078Y-60384087D01*
X78143126Y-60409899D01*
X78137304Y-60410493D01*
X77970877Y-60465642D01*
X77821654Y-60557683D01*
X77697683Y-60681654D01*
X77605642Y-60830876D01*
X77592111Y-60871712D01*
X77558972Y-60923396D01*
X77505102Y-60952847D01*
X77443707Y-60952847D01*
X77389837Y-60923395D01*
X77356699Y-60871711D01*
X77349339Y-60849500D01*
X77334814Y-60805666D01*
X77242712Y-60656344D01*
X77242711Y-60656342D01*
X77118657Y-60532288D01*
X76969334Y-60440186D01*
X76802797Y-60385000D01*
X76700009Y-60374500D01*
X76141304Y-60374500D01*
X76100852Y-60367716D01*
X76089200Y-60361374D01*
X76088784Y-60362300D01*
X76065813Y-60351961D01*
X76046273Y-60340941D01*
X76037930Y-60335182D01*
X76037927Y-60335181D01*
X76037926Y-60335180D01*
X75981701Y-60313856D01*
X75974783Y-60310991D01*
X75919929Y-60286303D01*
X75909952Y-60284475D01*
X75888339Y-60278450D01*
X75878873Y-60274860D01*
X75819172Y-60267610D01*
X75811771Y-60266483D01*
X75752607Y-60255641D01*
X75692566Y-60259274D01*
X75685079Y-60259500D01*
X74844798Y-60259500D01*
X74784366Y-60243777D01*
X74739259Y-60200596D01*
X74702711Y-60141342D01*
X74578657Y-60017288D01*
X74429334Y-59925186D01*
X74262797Y-59870000D01*
X74160009Y-59859500D01*
X73601518Y-59859500D01*
X73554065Y-59850061D01*
X73513837Y-59823181D01*
X71641818Y-57951161D01*
X71614938Y-57910933D01*
X71605499Y-57863480D01*
X71605499Y-57397130D01*
X71605449Y-57396666D01*
X71599091Y-57337517D01*
X71548796Y-57202669D01*
X71462546Y-57087454D01*
X71347331Y-57001204D01*
X71212483Y-56950909D01*
X71152873Y-56944500D01*
X71152869Y-56944500D01*
X70157130Y-56944500D01*
X70097516Y-56950909D01*
X70063331Y-56963659D01*
X70020000Y-56971476D01*
X69976668Y-56963658D01*
X69942486Y-56950909D01*
X69916935Y-56948162D01*
X69882873Y-56944500D01*
X69882869Y-56944500D01*
X68887130Y-56944500D01*
X68827516Y-56950909D01*
X68793331Y-56963659D01*
X68750000Y-56971476D01*
X68706668Y-56963658D01*
X68672486Y-56950909D01*
X68646935Y-56948162D01*
X68612873Y-56944500D01*
X68612869Y-56944500D01*
X67617130Y-56944500D01*
X67557516Y-56950909D01*
X67523331Y-56963659D01*
X67480000Y-56971476D01*
X67436668Y-56963658D01*
X67402486Y-56950909D01*
X67376935Y-56948162D01*
X67342873Y-56944500D01*
X67342869Y-56944500D01*
X66347130Y-56944500D01*
X66287516Y-56950909D01*
X66253331Y-56963659D01*
X66210000Y-56971476D01*
X66166668Y-56963658D01*
X66132486Y-56950909D01*
X66106935Y-56948162D01*
X66072873Y-56944500D01*
X66072869Y-56944500D01*
X65077130Y-56944500D01*
X65017516Y-56950909D01*
X64983331Y-56963659D01*
X64940000Y-56971476D01*
X64896668Y-56963658D01*
X64862486Y-56950909D01*
X64836935Y-56948162D01*
X64802873Y-56944500D01*
X64802869Y-56944500D01*
X63807130Y-56944500D01*
X63747516Y-56950909D01*
X63713331Y-56963659D01*
X63670000Y-56971476D01*
X63626668Y-56963658D01*
X63592486Y-56950909D01*
X63566935Y-56948162D01*
X63532873Y-56944500D01*
X63532869Y-56944500D01*
X62537130Y-56944500D01*
X62477516Y-56950909D01*
X62443331Y-56963659D01*
X62400000Y-56971476D01*
X62356668Y-56963658D01*
X62322486Y-56950909D01*
X62296935Y-56948162D01*
X62262873Y-56944500D01*
X62262869Y-56944500D01*
X61267130Y-56944500D01*
X61207516Y-56950909D01*
X61173331Y-56963659D01*
X61130000Y-56971476D01*
X61086668Y-56963658D01*
X61052486Y-56950909D01*
X61026935Y-56948162D01*
X60992873Y-56944500D01*
X60992869Y-56944500D01*
X59997130Y-56944500D01*
X59937514Y-56950909D01*
X59902617Y-56963925D01*
X59859284Y-56971743D01*
X59815952Y-56963925D01*
X59782377Y-56951402D01*
X59722824Y-56945000D01*
X59475000Y-56945000D01*
X59475000Y-59445000D01*
X59722824Y-59445000D01*
X59782376Y-59438597D01*
X59815949Y-59426075D01*
X59859284Y-59418256D01*
X59902618Y-59426074D01*
X59926953Y-59435151D01*
X59936192Y-59438597D01*
X59937517Y-59439091D01*
X59997127Y-59445500D01*
X60992872Y-59445499D01*
X61052483Y-59439091D01*
X61086665Y-59426341D01*
X61129999Y-59418523D01*
X61173332Y-59426340D01*
X61207517Y-59439091D01*
X61267127Y-59445500D01*
X62262872Y-59445499D01*
X62322483Y-59439091D01*
X62356665Y-59426341D01*
X62399999Y-59418523D01*
X62443332Y-59426340D01*
X62477517Y-59439091D01*
X62537127Y-59445500D01*
X63532872Y-59445499D01*
X63592483Y-59439091D01*
X63626665Y-59426341D01*
X63669999Y-59418523D01*
X63713332Y-59426340D01*
X63747517Y-59439091D01*
X63807127Y-59445500D01*
X64165818Y-59445499D01*
X64222110Y-59459014D01*
X64266134Y-59496613D01*
X64288289Y-59550100D01*
X64283748Y-59607816D01*
X64253499Y-59657179D01*
X64231369Y-59679308D01*
X64140094Y-59827289D01*
X64085406Y-59992326D01*
X64075000Y-60094192D01*
X64075000Y-60350000D01*
X65188500Y-60350000D01*
X65250500Y-60366613D01*
X65295887Y-60412000D01*
X65312500Y-60474000D01*
X65312500Y-61800000D01*
X65355808Y-61800000D01*
X65457673Y-61789593D01*
X65622710Y-61734905D01*
X65770692Y-61643629D01*
X65893626Y-61520695D01*
X65894161Y-61519829D01*
X65901960Y-61512361D01*
X65903880Y-61510442D01*
X65903921Y-61510483D01*
X65939266Y-61476644D01*
X65999698Y-61460917D01*
X66060133Y-61476637D01*
X66105242Y-61519818D01*
X66105972Y-61521002D01*
X66228994Y-61644024D01*
X66228996Y-61644025D01*
X66228997Y-61644026D01*
X66282639Y-61677113D01*
X66290597Y-61682021D01*
X66333777Y-61727128D01*
X66349500Y-61787560D01*
X66349500Y-62689547D01*
X66340061Y-62737000D01*
X66313181Y-62777228D01*
X65182228Y-63908181D01*
X65142000Y-63935061D01*
X65094547Y-63944500D01*
X63549541Y-63944500D01*
X63501375Y-63934763D01*
X63460773Y-63907081D01*
X63434115Y-63865807D01*
X63411568Y-63808357D01*
X63280386Y-63581143D01*
X63116805Y-63376019D01*
X63112008Y-63371568D01*
X62924485Y-63197571D01*
X62897246Y-63179000D01*
X62707704Y-63049772D01*
X62471323Y-62935937D01*
X62220615Y-62858604D01*
X61961182Y-62819500D01*
X61698818Y-62819500D01*
X61439385Y-62858604D01*
X61188677Y-62935937D01*
X60952295Y-63049772D01*
X60910013Y-63078599D01*
X60857113Y-63098980D01*
X60800670Y-63093687D01*
X60752482Y-63063825D01*
X58538657Y-60850000D01*
X64075000Y-60850000D01*
X64075000Y-61105808D01*
X64085406Y-61207673D01*
X64140094Y-61372710D01*
X64231370Y-61520692D01*
X64354307Y-61643629D01*
X64502289Y-61734905D01*
X64667326Y-61789593D01*
X64769192Y-61800000D01*
X64812500Y-61800000D01*
X64812500Y-60850000D01*
X64075000Y-60850000D01*
X58538657Y-60850000D01*
X57869367Y-60180710D01*
X56726370Y-59037712D01*
X56681832Y-59002819D01*
X56626057Y-58959122D01*
X56470932Y-58889305D01*
X56303606Y-58858642D01*
X56133800Y-58868914D01*
X55971393Y-58919521D01*
X55971236Y-58919617D01*
X55969830Y-58920008D01*
X55957019Y-58924001D01*
X55956898Y-58923613D01*
X55907087Y-58937500D01*
X54793453Y-58937500D01*
X54746000Y-58928061D01*
X54705772Y-58901181D01*
X54350904Y-58546313D01*
X54318480Y-58489467D01*
X54319179Y-58445000D01*
X58275000Y-58445000D01*
X58275000Y-58992824D01*
X58281402Y-59052375D01*
X58331647Y-59187089D01*
X58417811Y-59302188D01*
X58532910Y-59388352D01*
X58667624Y-59438597D01*
X58727176Y-59445000D01*
X58975000Y-59445000D01*
X58975000Y-58445000D01*
X58275000Y-58445000D01*
X54319179Y-58445000D01*
X54319509Y-58424034D01*
X54321098Y-58418569D01*
X54324000Y-58381694D01*
X54324000Y-57950306D01*
X54323582Y-57945000D01*
X58275000Y-57945000D01*
X58975000Y-57945000D01*
X58975000Y-56945000D01*
X58727176Y-56945000D01*
X58667624Y-56951402D01*
X58532910Y-57001647D01*
X58417811Y-57087811D01*
X58331647Y-57202910D01*
X58281402Y-57337624D01*
X58275000Y-57397176D01*
X58275000Y-57945000D01*
X54323582Y-57945000D01*
X54321098Y-57913431D01*
X54275244Y-57755602D01*
X54191581Y-57614135D01*
X54075365Y-57497919D01*
X54033539Y-57473183D01*
X53933897Y-57414255D01*
X53776072Y-57368402D01*
X53753943Y-57366660D01*
X53739194Y-57365500D01*
X53739192Y-57365500D01*
X52573000Y-57365500D01*
X52511000Y-57348887D01*
X52465613Y-57303500D01*
X52449000Y-57241500D01*
X52449000Y-57000308D01*
X52449000Y-57000306D01*
X52446098Y-56963431D01*
X52432667Y-56917203D01*
X52400244Y-56805602D01*
X52350234Y-56721040D01*
X52316581Y-56664135D01*
X52200365Y-56547919D01*
X52092128Y-56483908D01*
X52058897Y-56464255D01*
X51925905Y-56425617D01*
X51879476Y-56400408D01*
X51847755Y-56358160D01*
X51836500Y-56306541D01*
X51836500Y-55410231D01*
X51850015Y-55353936D01*
X51887615Y-55309913D01*
X51941102Y-55287758D01*
X51998818Y-55292300D01*
X52048181Y-55322550D01*
X52124342Y-55398711D01*
X52124344Y-55398712D01*
X52273666Y-55490814D01*
X52382729Y-55526954D01*
X52440202Y-55545999D01*
X52450703Y-55547071D01*
X52542991Y-55556500D01*
X53343008Y-55556499D01*
X53445797Y-55545999D01*
X53612334Y-55490814D01*
X53761656Y-55398712D01*
X53885712Y-55274656D01*
X53977814Y-55125334D01*
X54032999Y-54958797D01*
X54043500Y-54856009D01*
X54043499Y-53855992D01*
X54032999Y-53753203D01*
X54028297Y-53739016D01*
X54025346Y-53671417D01*
X54058321Y-53612334D01*
X54722821Y-52947834D01*
X54772182Y-52917586D01*
X54829898Y-52913044D01*
X54883385Y-52935199D01*
X54920985Y-52979222D01*
X54934500Y-53035517D01*
X54934500Y-53632869D01*
X54940909Y-53692485D01*
X54953658Y-53726666D01*
X54961476Y-53769997D01*
X54953659Y-53813328D01*
X54940909Y-53847513D01*
X54934500Y-53907130D01*
X54934500Y-54902869D01*
X54940909Y-54962485D01*
X54953658Y-54996667D01*
X54961476Y-55039999D01*
X54953659Y-55083330D01*
X54940909Y-55117515D01*
X54934500Y-55177130D01*
X54934500Y-56172869D01*
X54940909Y-56232485D01*
X54953658Y-56266666D01*
X54961476Y-56309997D01*
X54953659Y-56353328D01*
X54940909Y-56387513D01*
X54934500Y-56447130D01*
X54934500Y-57442869D01*
X54940909Y-57502484D01*
X54958213Y-57548877D01*
X54991204Y-57637331D01*
X55077454Y-57752546D01*
X55192669Y-57838796D01*
X55327517Y-57889091D01*
X55387127Y-57895500D01*
X56982872Y-57895499D01*
X57042483Y-57889091D01*
X57177331Y-57838796D01*
X57292546Y-57752546D01*
X57378796Y-57637331D01*
X57429091Y-57502483D01*
X57435500Y-57442873D01*
X57435499Y-56447128D01*
X57429091Y-56387517D01*
X57416340Y-56353331D01*
X57408523Y-56309999D01*
X57416342Y-56266665D01*
X57429090Y-56232485D01*
X57429089Y-56232485D01*
X57429091Y-56232483D01*
X57435500Y-56172873D01*
X57435499Y-55177128D01*
X57429091Y-55117517D01*
X57416340Y-55083330D01*
X57408523Y-55040000D01*
X57416342Y-54996665D01*
X57429090Y-54962485D01*
X57429089Y-54962485D01*
X57429091Y-54962483D01*
X57435500Y-54902873D01*
X57435499Y-53907128D01*
X57429091Y-53847517D01*
X57416340Y-53813331D01*
X57408523Y-53769999D01*
X57416342Y-53726665D01*
X57422517Y-53710108D01*
X57429091Y-53692483D01*
X57435500Y-53632873D01*
X57435499Y-52637128D01*
X57429091Y-52577517D01*
X57416340Y-52543330D01*
X57408523Y-52500000D01*
X57416342Y-52456665D01*
X57429090Y-52422485D01*
X57429089Y-52422485D01*
X57429091Y-52422483D01*
X57435500Y-52362873D01*
X57435499Y-51367128D01*
X57429091Y-51307517D01*
X57416340Y-51273331D01*
X57408523Y-51229999D01*
X57416342Y-51186665D01*
X57429090Y-51152485D01*
X57429089Y-51152485D01*
X57429091Y-51152483D01*
X57435500Y-51092873D01*
X57435499Y-50097128D01*
X57429091Y-50037517D01*
X57416340Y-50003330D01*
X57408523Y-49960000D01*
X57416342Y-49916665D01*
X57429090Y-49882485D01*
X57429089Y-49882485D01*
X57429091Y-49882483D01*
X57435500Y-49822873D01*
X57435499Y-48827128D01*
X57429091Y-48767517D01*
X57416340Y-48733330D01*
X57408523Y-48690000D01*
X57416342Y-48646665D01*
X57424355Y-48625181D01*
X57429091Y-48612483D01*
X57435500Y-48552873D01*
X57435499Y-48025000D01*
X61655000Y-48025000D01*
X61655000Y-49922824D01*
X61661402Y-49982375D01*
X61711647Y-50117089D01*
X61797811Y-50232188D01*
X61912910Y-50318352D01*
X62047624Y-50368597D01*
X62107176Y-50375000D01*
X64005000Y-50375000D01*
X64505000Y-50375000D01*
X66402824Y-50375000D01*
X66462375Y-50368597D01*
X66597089Y-50318352D01*
X66712188Y-50232188D01*
X66798352Y-50117089D01*
X66848597Y-49982375D01*
X66855000Y-49922824D01*
X66855000Y-48025000D01*
X66030000Y-48025000D01*
X66030000Y-48433947D01*
X66045872Y-48449819D01*
X66077966Y-48505406D01*
X66077966Y-48569594D01*
X66045872Y-48625181D01*
X66030000Y-48641052D01*
X66030000Y-49426000D01*
X66013387Y-49488000D01*
X65968000Y-49533387D01*
X65906000Y-49550000D01*
X65121052Y-49550000D01*
X65105181Y-49565872D01*
X65049594Y-49597966D01*
X64985406Y-49597966D01*
X64929819Y-49565872D01*
X64913947Y-49550000D01*
X64505000Y-49550000D01*
X64505000Y-50375000D01*
X64005000Y-50375000D01*
X64005000Y-49550000D01*
X63596052Y-49550000D01*
X63580181Y-49565872D01*
X63524594Y-49597966D01*
X63460406Y-49597966D01*
X63404819Y-49565872D01*
X63388947Y-49550000D01*
X62604000Y-49550000D01*
X62542000Y-49533387D01*
X62496613Y-49488000D01*
X62480000Y-49426000D01*
X62480000Y-48641054D01*
X62479999Y-48641052D01*
X62464128Y-48625181D01*
X62432034Y-48569594D01*
X62432034Y-48537500D01*
X63083553Y-48537500D01*
X63492500Y-48946447D01*
X63901447Y-48537500D01*
X64608553Y-48537500D01*
X65017500Y-48946447D01*
X65426447Y-48537500D01*
X65017500Y-48128553D01*
X64608553Y-48537500D01*
X63901447Y-48537500D01*
X63492500Y-48128553D01*
X63083553Y-48537500D01*
X62432034Y-48537500D01*
X62432034Y-48505406D01*
X62464128Y-48449819D01*
X62479999Y-48433947D01*
X62480000Y-48433947D01*
X62480000Y-48025000D01*
X61655000Y-48025000D01*
X57435499Y-48025000D01*
X57435499Y-47557128D01*
X57432045Y-47525000D01*
X61655000Y-47525000D01*
X62480000Y-47525000D01*
X62480000Y-47116054D01*
X62479999Y-47116052D01*
X62464128Y-47100181D01*
X62432034Y-47044594D01*
X62432034Y-47012500D01*
X63083553Y-47012500D01*
X63492500Y-47421447D01*
X63901447Y-47012500D01*
X64608553Y-47012500D01*
X65017500Y-47421447D01*
X65426447Y-47012500D01*
X65017500Y-46603553D01*
X64608553Y-47012500D01*
X63901447Y-47012500D01*
X63492500Y-46603553D01*
X63083553Y-47012500D01*
X62432034Y-47012500D01*
X62432034Y-46980406D01*
X62464128Y-46924819D01*
X62479999Y-46908947D01*
X62480000Y-46908947D01*
X62480000Y-46124000D01*
X62496613Y-46062000D01*
X62542000Y-46016613D01*
X62604000Y-46000000D01*
X63388947Y-46000000D01*
X63388947Y-45999999D01*
X63404819Y-45984128D01*
X63460406Y-45952034D01*
X63524594Y-45952034D01*
X63580181Y-45984128D01*
X63596053Y-46000000D01*
X64005000Y-46000000D01*
X64005000Y-45175000D01*
X64505000Y-45175000D01*
X64505000Y-46000000D01*
X64913947Y-46000000D01*
X64913947Y-45999999D01*
X64929819Y-45984128D01*
X64985406Y-45952034D01*
X65049594Y-45952034D01*
X65105181Y-45984128D01*
X65121053Y-46000000D01*
X65906000Y-46000000D01*
X65968000Y-46016613D01*
X66013387Y-46062000D01*
X66030000Y-46124000D01*
X66030000Y-46908947D01*
X66045872Y-46924819D01*
X66077966Y-46980406D01*
X66077966Y-47044594D01*
X66045872Y-47100181D01*
X66030000Y-47116052D01*
X66030000Y-47525000D01*
X66855000Y-47525000D01*
X66855000Y-45627176D01*
X66848597Y-45567624D01*
X66798352Y-45432910D01*
X66712188Y-45317811D01*
X66597089Y-45231647D01*
X66462375Y-45181402D01*
X66402824Y-45175000D01*
X64505000Y-45175000D01*
X64005000Y-45175000D01*
X62107176Y-45175000D01*
X62047624Y-45181402D01*
X61912910Y-45231647D01*
X61797811Y-45317811D01*
X61711647Y-45432910D01*
X61661402Y-45567624D01*
X61655000Y-45627176D01*
X61655000Y-47525000D01*
X57432045Y-47525000D01*
X57429091Y-47497517D01*
X57416340Y-47463330D01*
X57408523Y-47420000D01*
X57416342Y-47376665D01*
X57429090Y-47342485D01*
X57429089Y-47342485D01*
X57429091Y-47342483D01*
X57435500Y-47282873D01*
X57435499Y-46287128D01*
X57429091Y-46227517D01*
X57416340Y-46193331D01*
X57408523Y-46149999D01*
X57416342Y-46106665D01*
X57429090Y-46072485D01*
X57429089Y-46072485D01*
X57429091Y-46072483D01*
X57435500Y-46012873D01*
X57435499Y-45017128D01*
X57429091Y-44957517D01*
X57416340Y-44923330D01*
X57408523Y-44880000D01*
X57416342Y-44836665D01*
X57429090Y-44802485D01*
X57429089Y-44802485D01*
X57429091Y-44802483D01*
X57435500Y-44742873D01*
X57435499Y-43747128D01*
X57429091Y-43687517D01*
X57416340Y-43653330D01*
X57408523Y-43610000D01*
X57416342Y-43566665D01*
X57419223Y-43558939D01*
X57429091Y-43532483D01*
X57435500Y-43472873D01*
X57435499Y-42477128D01*
X57429091Y-42417517D01*
X57416340Y-42383331D01*
X57408523Y-42339999D01*
X57416342Y-42296665D01*
X57429090Y-42262485D01*
X57429089Y-42262485D01*
X57429091Y-42262483D01*
X57435500Y-42202873D01*
X57435499Y-41207128D01*
X57429091Y-41147517D01*
X57423315Y-41132032D01*
X57416075Y-41112619D01*
X57408256Y-41069284D01*
X57416075Y-41025949D01*
X57428597Y-40992376D01*
X57435000Y-40932824D01*
X57435000Y-40685000D01*
X54935000Y-40685000D01*
X54905364Y-40714636D01*
X54849776Y-40746729D01*
X54785589Y-40746729D01*
X54730002Y-40714635D01*
X54683754Y-40668387D01*
X54464318Y-40448950D01*
X54437438Y-40408722D01*
X54427999Y-40361269D01*
X54427999Y-40185000D01*
X54935000Y-40185000D01*
X55935000Y-40185000D01*
X55935000Y-39485000D01*
X56435000Y-39485000D01*
X56435000Y-40185000D01*
X57435000Y-40185000D01*
X57435000Y-39937176D01*
X57428597Y-39877624D01*
X57378352Y-39742910D01*
X57292188Y-39627811D01*
X57177089Y-39541647D01*
X57042375Y-39491402D01*
X56982824Y-39485000D01*
X56435000Y-39485000D01*
X55935000Y-39485000D01*
X55387176Y-39485000D01*
X55327624Y-39491402D01*
X55192910Y-39541647D01*
X55077811Y-39627811D01*
X54991647Y-39742910D01*
X54941402Y-39877624D01*
X54935000Y-39937176D01*
X54935000Y-40185000D01*
X54427999Y-40185000D01*
X54427999Y-39860991D01*
X54417499Y-39758203D01*
X54409836Y-39735077D01*
X54362314Y-39591666D01*
X54270212Y-39442344D01*
X54270211Y-39442342D01*
X54146157Y-39318288D01*
X53996834Y-39226186D01*
X53830297Y-39171000D01*
X53727509Y-39160500D01*
X52952491Y-39160500D01*
X52849703Y-39171000D01*
X52683165Y-39226186D01*
X52533842Y-39318288D01*
X52409786Y-39442344D01*
X52407742Y-39445659D01*
X52362635Y-39488837D01*
X52302204Y-39504558D01*
X52241774Y-39488835D01*
X52196668Y-39445656D01*
X52194816Y-39442654D01*
X52070845Y-39318683D01*
X51921622Y-39226642D01*
X51755196Y-39171493D01*
X51652479Y-39161000D01*
X51515000Y-39161000D01*
X51515000Y-40512000D01*
X51498387Y-40574000D01*
X51453000Y-40619387D01*
X51391000Y-40636000D01*
X50177501Y-40636000D01*
X50177501Y-40910979D01*
X50188934Y-41022899D01*
X50176920Y-41090075D01*
X50131184Y-41140722D01*
X50065576Y-41159500D01*
X49466706Y-41159500D01*
X49448736Y-41158191D01*
X49434853Y-41156157D01*
X49424977Y-41154711D01*
X49424976Y-41154711D01*
X49375631Y-41159028D01*
X49364824Y-41159500D01*
X49359291Y-41159500D01*
X49328501Y-41163098D01*
X49324917Y-41163464D01*
X49248961Y-41170109D01*
X49229921Y-41174330D01*
X49158232Y-41200421D01*
X49154831Y-41201603D01*
X49082479Y-41225579D01*
X49064925Y-41234077D01*
X49001228Y-41275970D01*
X48998190Y-41277905D01*
X48933281Y-41317943D01*
X48918164Y-41330256D01*
X48865848Y-41385708D01*
X48863336Y-41388294D01*
X45953451Y-44298181D01*
X45913223Y-44325061D01*
X45865770Y-44334500D01*
X45299721Y-44334500D01*
X41510229Y-44334500D01*
X41462776Y-44325061D01*
X41422548Y-44298181D01*
X40554368Y-43430000D01*
X41880000Y-43430000D01*
X41880000Y-43607824D01*
X41886402Y-43667375D01*
X41936647Y-43802089D01*
X42022811Y-43917188D01*
X42137910Y-44003352D01*
X42272624Y-44053597D01*
X42332176Y-44060000D01*
X42930000Y-44060000D01*
X42930000Y-43430000D01*
X43430000Y-43430000D01*
X43430000Y-44060000D01*
X44027824Y-44060000D01*
X44087375Y-44053597D01*
X44222089Y-44003352D01*
X44337188Y-43917188D01*
X44423352Y-43802089D01*
X44473597Y-43667375D01*
X44480000Y-43607824D01*
X44480000Y-43430000D01*
X43430000Y-43430000D01*
X42930000Y-43430000D01*
X41880000Y-43430000D01*
X40554368Y-43430000D01*
X40054368Y-42930000D01*
X41880000Y-42930000D01*
X42930000Y-42930000D01*
X42930000Y-42300000D01*
X43430000Y-42300000D01*
X43430000Y-42930000D01*
X44480000Y-42930000D01*
X44480000Y-42752176D01*
X44473597Y-42692624D01*
X44423352Y-42557910D01*
X44337188Y-42442811D01*
X44222089Y-42356647D01*
X44087375Y-42306402D01*
X44027824Y-42300000D01*
X43430000Y-42300000D01*
X42930000Y-42300000D01*
X42332176Y-42300000D01*
X42272624Y-42306402D01*
X42137910Y-42356647D01*
X42022811Y-42442811D01*
X41936647Y-42557910D01*
X41886402Y-42692624D01*
X41880000Y-42752176D01*
X41880000Y-42930000D01*
X40054368Y-42930000D01*
X39247548Y-42123180D01*
X39217298Y-42073817D01*
X39212756Y-42016101D01*
X39234911Y-41962614D01*
X39278934Y-41925014D01*
X39335229Y-41911499D01*
X40047870Y-41911499D01*
X40047872Y-41911499D01*
X40107483Y-41905091D01*
X40242331Y-41854796D01*
X40357546Y-41768546D01*
X40443796Y-41653331D01*
X40494091Y-41518483D01*
X40500500Y-41458873D01*
X40500499Y-40136000D01*
X50177500Y-40136000D01*
X51015000Y-40136000D01*
X51015000Y-39161001D01*
X50877521Y-39161001D01*
X50774804Y-39171493D01*
X50608377Y-39226642D01*
X50459154Y-39318683D01*
X50335183Y-39442654D01*
X50243142Y-39591877D01*
X50187993Y-39758303D01*
X50177500Y-39861021D01*
X50177500Y-40136000D01*
X40500499Y-40136000D01*
X40500499Y-39363128D01*
X40494091Y-39303517D01*
X40443796Y-39168669D01*
X40357546Y-39053454D01*
X40242331Y-38967204D01*
X40107483Y-38916909D01*
X40047873Y-38910500D01*
X40047869Y-38910500D01*
X36152130Y-38910500D01*
X36092515Y-38916909D01*
X35957669Y-38967204D01*
X35842454Y-39053454D01*
X35756204Y-39168668D01*
X35705909Y-39303516D01*
X35699500Y-39363131D01*
X35699500Y-39536500D01*
X35682887Y-39598500D01*
X35637500Y-39643887D01*
X35575500Y-39660500D01*
X34357206Y-39660500D01*
X34339236Y-39659191D01*
X34325353Y-39657157D01*
X34315477Y-39655711D01*
X34315476Y-39655711D01*
X34266131Y-39660028D01*
X34255324Y-39660500D01*
X34249791Y-39660500D01*
X34219001Y-39664098D01*
X34215417Y-39664464D01*
X34139461Y-39671109D01*
X34120421Y-39675330D01*
X34048732Y-39701421D01*
X34045331Y-39702603D01*
X33972979Y-39726579D01*
X33955425Y-39735077D01*
X33891728Y-39776970D01*
X33888690Y-39778905D01*
X33823781Y-39818943D01*
X33808664Y-39831256D01*
X33756348Y-39886708D01*
X33753836Y-39889294D01*
X33252236Y-40390894D01*
X33205834Y-40420140D01*
X33151356Y-40426509D01*
X33099460Y-40408753D01*
X33070505Y-40390894D01*
X33052334Y-40379686D01*
X33010883Y-40365950D01*
X32885797Y-40324500D01*
X32783009Y-40314000D01*
X31732991Y-40314000D01*
X31630203Y-40324500D01*
X31463665Y-40379686D01*
X31314342Y-40471788D01*
X31213431Y-40572700D01*
X31157844Y-40604794D01*
X31093656Y-40604794D01*
X31038069Y-40572700D01*
X30915657Y-40450288D01*
X30766334Y-40358186D01*
X30599797Y-40303000D01*
X30497009Y-40292500D01*
X29446991Y-40292500D01*
X29344203Y-40303000D01*
X29177665Y-40358186D01*
X29028342Y-40450288D01*
X28904288Y-40574342D01*
X28812186Y-40723665D01*
X28757000Y-40890202D01*
X28746500Y-40992990D01*
X28746500Y-41768008D01*
X28757000Y-41870796D01*
X28812186Y-42037334D01*
X28904288Y-42186657D01*
X29028340Y-42310709D01*
X29028342Y-42310710D01*
X29028344Y-42310712D01*
X29031652Y-42312752D01*
X29074834Y-42357857D01*
X29090559Y-42418289D01*
X29074838Y-42478721D01*
X29031659Y-42523830D01*
X29028654Y-42525683D01*
X28904683Y-42649654D01*
X28812642Y-42798877D01*
X28757493Y-42965303D01*
X28747000Y-43068021D01*
X28747000Y-43205500D01*
X31164138Y-43205500D01*
X31211591Y-43214939D01*
X31229641Y-43227000D01*
X33482999Y-43227000D01*
X33482999Y-43089521D01*
X33472506Y-42986804D01*
X33417357Y-42820377D01*
X33325316Y-42671154D01*
X33201344Y-42547182D01*
X33198343Y-42545331D01*
X33155161Y-42500223D01*
X33139440Y-42439789D01*
X33155166Y-42379356D01*
X33198347Y-42334252D01*
X33201656Y-42332212D01*
X33325712Y-42208156D01*
X33341553Y-42182472D01*
X33381992Y-42142033D01*
X33436285Y-42124043D01*
X33446149Y-42123180D01*
X33476797Y-42120499D01*
X33476798Y-42120498D01*
X33478051Y-42120389D01*
X33497062Y-42116174D01*
X33498250Y-42115741D01*
X33498255Y-42115741D01*
X33568820Y-42090057D01*
X33572095Y-42088919D01*
X33643334Y-42065314D01*
X33643336Y-42065312D01*
X33644536Y-42064915D01*
X33662063Y-42056429D01*
X33663112Y-42055738D01*
X33663117Y-42055737D01*
X33725806Y-42014505D01*
X33728798Y-42012599D01*
X33792656Y-41973212D01*
X33792656Y-41973211D01*
X33793729Y-41972550D01*
X33808824Y-41960253D01*
X33809692Y-41959332D01*
X33809696Y-41959330D01*
X33861184Y-41904754D01*
X33863629Y-41902237D01*
X34568048Y-41197819D01*
X34608277Y-41170939D01*
X34655730Y-41161500D01*
X35575501Y-41161500D01*
X35637501Y-41178113D01*
X35682888Y-41223500D01*
X35699501Y-41285500D01*
X35699501Y-41458872D01*
X35705909Y-41518483D01*
X35756204Y-41653331D01*
X35842454Y-41768546D01*
X35957669Y-41854796D01*
X36092517Y-41905091D01*
X36152127Y-41911500D01*
X37222029Y-41911500D01*
X37280880Y-41926355D01*
X37325630Y-41967361D01*
X37345557Y-42024693D01*
X37349028Y-42064369D01*
X37349500Y-42075176D01*
X37349500Y-45094024D01*
X37335031Y-45152153D01*
X37295001Y-45196716D01*
X37256822Y-45210696D01*
X37257110Y-45211466D01*
X37107667Y-45267204D01*
X37023892Y-45329918D01*
X36975940Y-45351817D01*
X36923223Y-45351817D01*
X36875271Y-45329918D01*
X36792088Y-45267647D01*
X36657375Y-45217402D01*
X36597824Y-45211000D01*
X36050000Y-45211000D01*
X36050000Y-48211000D01*
X36597824Y-48211000D01*
X36657375Y-48204597D01*
X36792089Y-48154352D01*
X36875270Y-48092082D01*
X36923223Y-48070182D01*
X36975940Y-48070182D01*
X37023892Y-48092080D01*
X37107669Y-48154796D01*
X37242517Y-48205091D01*
X37302127Y-48211500D01*
X38897872Y-48211499D01*
X38957483Y-48205091D01*
X39092331Y-48154796D01*
X39175689Y-48092393D01*
X39223642Y-48070494D01*
X39276358Y-48070494D01*
X39324310Y-48092393D01*
X39407669Y-48154796D01*
X39542517Y-48205091D01*
X39602127Y-48211500D01*
X40717059Y-48211499D01*
X40764512Y-48220938D01*
X40804740Y-48247818D01*
X41454181Y-48897259D01*
X41481061Y-48937487D01*
X41490500Y-48984940D01*
X41490500Y-50426511D01*
X41474690Y-50487100D01*
X41431290Y-50532238D01*
X41396869Y-50553331D01*
X41215357Y-50708357D01*
X41060334Y-50889864D01*
X40935609Y-51093398D01*
X40844262Y-51313926D01*
X40788539Y-51546032D01*
X40787282Y-51562000D01*
X40769811Y-51784000D01*
X40771752Y-51808665D01*
X40788539Y-52021967D01*
X40844262Y-52254073D01*
X40935517Y-52474379D01*
X40935611Y-52474605D01*
X41060332Y-52678132D01*
X41060334Y-52678135D01*
X41115290Y-52742480D01*
X41215357Y-52859643D01*
X41303822Y-52935199D01*
X41394501Y-53012647D01*
X41396868Y-53014668D01*
X41600395Y-53139389D01*
X41625201Y-53149664D01*
X41820926Y-53230737D01*
X41894254Y-53248341D01*
X42053034Y-53286461D01*
X42291000Y-53305189D01*
X42528966Y-53286461D01*
X42761073Y-53230737D01*
X42981605Y-53139389D01*
X43185132Y-53014668D01*
X43366643Y-52859643D01*
X43466712Y-52742476D01*
X43509085Y-52710401D01*
X43560998Y-52699011D01*
X43612912Y-52710401D01*
X43655289Y-52742479D01*
X43655290Y-52742480D01*
X43755357Y-52859643D01*
X43843822Y-52935199D01*
X43934501Y-53012647D01*
X43936868Y-53014668D01*
X44140395Y-53139389D01*
X44165201Y-53149664D01*
X44360926Y-53230737D01*
X44434254Y-53248341D01*
X44593034Y-53286461D01*
X44831000Y-53305189D01*
X45068966Y-53286461D01*
X45301073Y-53230737D01*
X45521605Y-53139389D01*
X45725132Y-53014668D01*
X45906643Y-52859643D01*
X46061668Y-52678132D01*
X46186389Y-52474605D01*
X46277737Y-52254073D01*
X46333461Y-52021966D01*
X46352189Y-51784000D01*
X46334403Y-51558000D01*
X50097001Y-51558000D01*
X50097001Y-51807979D01*
X50107493Y-51910695D01*
X50162642Y-52077122D01*
X50254683Y-52226345D01*
X50378654Y-52350316D01*
X50527877Y-52442357D01*
X50694303Y-52497506D01*
X50797021Y-52508000D01*
X50922000Y-52508000D01*
X50922000Y-51558000D01*
X50097001Y-51558000D01*
X46334403Y-51558000D01*
X46333461Y-51546034D01*
X46290510Y-51367130D01*
X46277737Y-51313926D01*
X46208302Y-51146297D01*
X46186389Y-51093395D01*
X46061668Y-50889868D01*
X45906643Y-50708357D01*
X45796371Y-50614176D01*
X45725135Y-50553334D01*
X45725130Y-50553331D01*
X45521605Y-50428611D01*
X45521602Y-50428610D01*
X45521601Y-50428609D01*
X45301073Y-50337262D01*
X45068967Y-50281539D01*
X44831000Y-50262811D01*
X44593032Y-50281539D01*
X44360926Y-50337262D01*
X44140398Y-50428609D01*
X43936864Y-50553334D01*
X43755356Y-50708357D01*
X43655289Y-50825520D01*
X43612912Y-50857598D01*
X43560998Y-50868988D01*
X43509085Y-50857598D01*
X43466710Y-50825521D01*
X43366643Y-50708357D01*
X43185132Y-50553332D01*
X43150710Y-50532238D01*
X43107310Y-50487100D01*
X43091500Y-50426511D01*
X43091500Y-49404940D01*
X43100939Y-49357487D01*
X43127819Y-49317259D01*
X43195790Y-49249288D01*
X43681885Y-48763191D01*
X43728285Y-48733947D01*
X43782764Y-48727579D01*
X43834660Y-48745335D01*
X43855526Y-48758205D01*
X43898666Y-48784814D01*
X44010016Y-48821712D01*
X44065202Y-48839999D01*
X44075702Y-48841071D01*
X44167991Y-48850500D01*
X44943008Y-48850499D01*
X45045797Y-48839999D01*
X45212334Y-48784814D01*
X45361656Y-48692712D01*
X45485712Y-48568656D01*
X45487752Y-48565347D01*
X45532856Y-48522166D01*
X45593289Y-48506440D01*
X45653723Y-48522161D01*
X45698831Y-48565343D01*
X45700682Y-48568344D01*
X45824654Y-48692316D01*
X45973877Y-48784357D01*
X46140303Y-48839506D01*
X46243021Y-48850000D01*
X46380500Y-48850000D01*
X46380500Y-47875000D01*
X46880500Y-47875000D01*
X46880500Y-48849999D01*
X47017979Y-48849999D01*
X47120695Y-48839506D01*
X47287122Y-48784357D01*
X47436345Y-48692316D01*
X47560316Y-48568345D01*
X47652357Y-48419122D01*
X47707506Y-48252696D01*
X47718000Y-48149979D01*
X47718000Y-47875000D01*
X46880500Y-47875000D01*
X46380500Y-47875000D01*
X46380500Y-46400001D01*
X46243021Y-46400001D01*
X46140304Y-46410493D01*
X45973877Y-46465642D01*
X45824654Y-46557683D01*
X45700683Y-46681654D01*
X45698830Y-46684659D01*
X45653721Y-46727838D01*
X45593289Y-46743559D01*
X45532857Y-46727834D01*
X45487752Y-46684652D01*
X45485903Y-46681654D01*
X45485712Y-46681344D01*
X45485710Y-46681342D01*
X45485709Y-46681340D01*
X45361657Y-46557288D01*
X45212334Y-46465186D01*
X45045797Y-46410000D01*
X44947904Y-46400000D01*
X46880500Y-46400000D01*
X46880500Y-47375000D01*
X47717999Y-47375000D01*
X47717999Y-47100021D01*
X47707506Y-46997304D01*
X47652357Y-46830877D01*
X47560316Y-46681654D01*
X47436345Y-46557683D01*
X47287122Y-46465642D01*
X47120696Y-46410493D01*
X47017979Y-46400000D01*
X46880500Y-46400000D01*
X44947904Y-46400000D01*
X44943009Y-46399500D01*
X44167991Y-46399500D01*
X44065203Y-46410000D01*
X43898665Y-46465186D01*
X43749342Y-46557288D01*
X43625289Y-46681341D01*
X43555943Y-46793770D01*
X43528119Y-46825298D01*
X43491358Y-46845715D01*
X43472613Y-46852274D01*
X43459255Y-46856122D01*
X43421938Y-46864640D01*
X43387459Y-46881244D01*
X43374618Y-46886563D01*
X43338479Y-46899209D01*
X43306064Y-46919577D01*
X43293897Y-46926301D01*
X43259414Y-46942907D01*
X43229487Y-46966773D01*
X43218152Y-46974815D01*
X43185740Y-46995181D01*
X43136306Y-47044615D01*
X42588681Y-47592241D01*
X42533094Y-47624335D01*
X42468906Y-47624335D01*
X42413319Y-47592241D01*
X41686818Y-46865740D01*
X41659938Y-46825512D01*
X41650499Y-46778059D01*
X41650499Y-45959500D01*
X41667112Y-45897500D01*
X41712499Y-45852113D01*
X41774499Y-45835500D01*
X45124279Y-45835500D01*
X45255709Y-45835500D01*
X46164294Y-45835500D01*
X46182264Y-45836809D01*
X46186320Y-45837402D01*
X46206023Y-45840289D01*
X46255368Y-45835972D01*
X46266176Y-45835500D01*
X46271709Y-45835500D01*
X50056770Y-45835500D01*
X50104223Y-45844939D01*
X50144451Y-45871819D01*
X50298181Y-46025549D01*
X50325061Y-46065777D01*
X50334500Y-46113230D01*
X50334500Y-46474008D01*
X50345000Y-46576796D01*
X50400186Y-46743334D01*
X50492288Y-46892657D01*
X50616342Y-47016711D01*
X50625596Y-47022419D01*
X50668777Y-47067526D01*
X50684500Y-47127958D01*
X50684500Y-47672577D01*
X50668777Y-47733009D01*
X50625596Y-47778116D01*
X50505342Y-47852288D01*
X50381288Y-47976342D01*
X50289186Y-48125665D01*
X50234000Y-48292202D01*
X50223500Y-48394990D01*
X50223500Y-49395008D01*
X50234000Y-49497796D01*
X50289186Y-49664334D01*
X50381288Y-49813657D01*
X50505342Y-49937711D01*
X50536756Y-49957087D01*
X50579937Y-50002193D01*
X50595660Y-50062625D01*
X50579938Y-50123057D01*
X50536757Y-50168164D01*
X50378655Y-50265682D01*
X50254683Y-50389654D01*
X50162642Y-50538877D01*
X50107493Y-50705303D01*
X50097000Y-50808021D01*
X50097000Y-51058000D01*
X51298000Y-51058000D01*
X51360000Y-51074613D01*
X51405387Y-51120000D01*
X51422000Y-51182000D01*
X51422000Y-52507999D01*
X51546979Y-52507999D01*
X51649695Y-52497506D01*
X51816122Y-52442357D01*
X51965345Y-52350316D01*
X52089313Y-52226348D01*
X52091164Y-52223348D01*
X52136271Y-52180164D01*
X52196704Y-52164440D01*
X52257138Y-52180163D01*
X52302246Y-52223345D01*
X52304290Y-52226659D01*
X52428342Y-52350711D01*
X52448060Y-52362873D01*
X52577666Y-52442814D01*
X52672923Y-52474379D01*
X52744202Y-52497999D01*
X52754703Y-52499071D01*
X52846991Y-52508500D01*
X52881480Y-52508499D01*
X52937773Y-52522013D01*
X52981797Y-52559612D01*
X53003953Y-52613100D01*
X52999411Y-52670817D01*
X52969161Y-52720180D01*
X52563994Y-53125347D01*
X52529534Y-53149664D01*
X52488916Y-53161024D01*
X52440203Y-53166000D01*
X52273665Y-53221186D01*
X52124342Y-53313288D01*
X52030681Y-53406950D01*
X51975094Y-53439044D01*
X51910906Y-53439044D01*
X51855319Y-53406950D01*
X51761657Y-53313288D01*
X51612334Y-53221186D01*
X51445797Y-53166000D01*
X51343009Y-53155500D01*
X50542991Y-53155500D01*
X50440203Y-53166000D01*
X50273665Y-53221186D01*
X50124342Y-53313288D01*
X50000288Y-53437342D01*
X49908186Y-53586665D01*
X49853000Y-53753202D01*
X49842500Y-53855990D01*
X49842500Y-54856008D01*
X49853000Y-54958796D01*
X49908186Y-55125334D01*
X50000288Y-55274657D01*
X50124342Y-55398711D01*
X50124344Y-55398712D01*
X50273666Y-55490814D01*
X50382729Y-55526954D01*
X50440202Y-55545999D01*
X50459386Y-55547958D01*
X50474101Y-55549462D01*
X50530640Y-55569884D01*
X50570929Y-55614499D01*
X50585500Y-55672820D01*
X50585500Y-56306541D01*
X50574245Y-56358160D01*
X50542524Y-56400408D01*
X50496095Y-56425617D01*
X50363102Y-56464255D01*
X50221636Y-56547918D01*
X50094342Y-56675212D01*
X50094047Y-56674917D01*
X50068535Y-56701660D01*
X50015998Y-56721040D01*
X49960291Y-56715332D01*
X49912777Y-56685699D01*
X49763262Y-56536184D01*
X49730850Y-56515818D01*
X49719510Y-56507772D01*
X49711522Y-56501402D01*
X49689587Y-56483909D01*
X49689586Y-56483908D01*
X49655095Y-56467298D01*
X49642933Y-56460576D01*
X49621534Y-56447130D01*
X49610520Y-56440209D01*
X49574398Y-56427570D01*
X49561553Y-56422250D01*
X49527058Y-56405638D01*
X49489736Y-56397119D01*
X49476380Y-56393272D01*
X49440252Y-56380631D01*
X49402219Y-56376345D01*
X49388518Y-56374017D01*
X49351196Y-56365500D01*
X49351194Y-56365500D01*
X49305954Y-56365500D01*
X49118230Y-56365500D01*
X49070777Y-56356061D01*
X49030551Y-56329183D01*
X48924656Y-56223288D01*
X48924655Y-56223287D01*
X48924654Y-56223286D01*
X48775334Y-56131186D01*
X48608797Y-56076000D01*
X48506009Y-56065500D01*
X47505991Y-56065500D01*
X47403203Y-56076000D01*
X47236665Y-56131186D01*
X47087342Y-56223288D01*
X46963288Y-56347342D01*
X46871186Y-56496665D01*
X46816000Y-56663202D01*
X46805500Y-56765991D01*
X46805500Y-56786059D01*
X46796061Y-56833512D01*
X46769181Y-56873740D01*
X44201185Y-59441735D01*
X44180817Y-59474151D01*
X44172772Y-59485489D01*
X44148908Y-59515413D01*
X44132300Y-59549899D01*
X44125576Y-59562064D01*
X44105211Y-59594475D01*
X44092565Y-59630613D01*
X44087246Y-59643453D01*
X44070639Y-59677938D01*
X44062118Y-59715268D01*
X44058270Y-59728623D01*
X44045631Y-59764743D01*
X44041345Y-59802780D01*
X44039017Y-59816480D01*
X44030500Y-59853803D01*
X44030500Y-68968511D01*
X44014690Y-69029100D01*
X43971290Y-69074238D01*
X43936869Y-69095331D01*
X43755357Y-69250357D01*
X43655290Y-69367520D01*
X43612914Y-69399598D01*
X43561000Y-69410988D01*
X43509086Y-69399598D01*
X43466710Y-69367520D01*
X43410971Y-69302259D01*
X43366643Y-69250357D01*
X43211818Y-69118124D01*
X43185135Y-69095334D01*
X43176796Y-69090224D01*
X42981605Y-68970611D01*
X42981602Y-68970610D01*
X42981601Y-68970609D01*
X42761073Y-68879262D01*
X42528967Y-68823539D01*
X42291000Y-68804811D01*
X42053032Y-68823539D01*
X41820926Y-68879262D01*
X41600398Y-68970609D01*
X41396864Y-69095334D01*
X41215357Y-69250357D01*
X41060334Y-69431864D01*
X40935609Y-69635398D01*
X40844262Y-69855926D01*
X40788539Y-70088032D01*
X40769811Y-70325999D01*
X40788539Y-70563967D01*
X40844262Y-70796073D01*
X40913670Y-70963636D01*
X40935611Y-71016605D01*
X41006119Y-71131664D01*
X41060334Y-71220135D01*
X41121873Y-71292188D01*
X41215357Y-71401643D01*
X41396868Y-71556668D01*
X41427128Y-71575211D01*
X41431290Y-71577762D01*
X41474690Y-71622900D01*
X41490500Y-71683489D01*
X41490500Y-75316524D01*
X41484154Y-75355683D01*
X41465767Y-75390834D01*
X41432205Y-75435666D01*
X41381909Y-75570516D01*
X41380306Y-75585419D01*
X41376855Y-75617529D01*
X41375500Y-75630130D01*
X41375500Y-80325869D01*
X41381909Y-80385483D01*
X41432204Y-80520331D01*
X41518454Y-80635546D01*
X41633669Y-80721796D01*
X41768517Y-80772091D01*
X41828127Y-80778500D01*
X43923872Y-80778499D01*
X43983483Y-80772091D01*
X44118331Y-80721796D01*
X44233546Y-80635546D01*
X44319796Y-80520331D01*
X44370091Y-80385483D01*
X44376500Y-80325873D01*
X44376499Y-75630128D01*
X44370091Y-75570517D01*
X44319796Y-75435669D01*
X44233546Y-75320454D01*
X44118331Y-75234204D01*
X43983483Y-75183909D01*
X43923873Y-75177500D01*
X43923869Y-75177500D01*
X43215500Y-75177500D01*
X43153500Y-75160887D01*
X43108113Y-75115500D01*
X43091500Y-75053500D01*
X43091500Y-71683489D01*
X43107310Y-71622900D01*
X43150710Y-71577762D01*
X43152924Y-71576404D01*
X43185132Y-71556668D01*
X43366643Y-71401643D01*
X43466711Y-71284477D01*
X43509086Y-71252401D01*
X43561000Y-71241011D01*
X43612914Y-71252401D01*
X43655288Y-71284477D01*
X43755357Y-71401643D01*
X43936868Y-71556668D01*
X44140395Y-71681389D01*
X44174257Y-71695415D01*
X44360926Y-71772737D01*
X44434254Y-71790341D01*
X44593034Y-71828461D01*
X44831000Y-71847189D01*
X45068966Y-71828461D01*
X45301073Y-71772737D01*
X45468641Y-71703327D01*
X45535487Y-71695415D01*
X45596621Y-71723598D01*
X45634021Y-71779570D01*
X45636664Y-71846836D01*
X45603771Y-71905570D01*
X45422290Y-72087051D01*
X45416838Y-72092183D01*
X45371816Y-72132070D01*
X45337649Y-72181568D01*
X45333213Y-72187597D01*
X45296121Y-72234942D01*
X45291961Y-72244186D01*
X45280941Y-72263725D01*
X45275182Y-72272069D01*
X45253853Y-72328305D01*
X45250989Y-72335219D01*
X45226303Y-72390070D01*
X45224475Y-72400047D01*
X45218454Y-72421648D01*
X45214859Y-72431128D01*
X45207609Y-72490827D01*
X45206483Y-72498226D01*
X45195641Y-72557391D01*
X45199274Y-72617434D01*
X45199500Y-72624921D01*
X45199500Y-81435079D01*
X45199274Y-81442566D01*
X45195641Y-81502607D01*
X45206483Y-81561771D01*
X45207610Y-81569172D01*
X45214860Y-81628873D01*
X45218450Y-81638339D01*
X45224475Y-81659952D01*
X45226303Y-81669929D01*
X45250991Y-81724783D01*
X45253856Y-81731701D01*
X45275180Y-81787926D01*
X45275182Y-81787930D01*
X45280941Y-81796273D01*
X45291961Y-81815813D01*
X45296120Y-81825054D01*
X45333216Y-81872405D01*
X45337651Y-81878432D01*
X45371817Y-81927929D01*
X45416847Y-81967822D01*
X45422283Y-81972940D01*
X48919432Y-85470089D01*
X48952917Y-85531412D01*
X48947933Y-85601103D01*
X48875630Y-85794955D01*
X48814804Y-86074570D01*
X48794389Y-86360000D01*
X48814804Y-86645429D01*
X48875629Y-86925041D01*
X48975634Y-87193163D01*
X49112772Y-87444313D01*
X49198517Y-87558855D01*
X49284261Y-87673395D01*
X49486605Y-87875739D01*
X49609161Y-87967483D01*
X49715686Y-88047227D01*
X49816600Y-88102330D01*
X49966839Y-88184367D01*
X50234954Y-88284369D01*
X50234957Y-88284369D01*
X50234958Y-88284370D01*
X50287217Y-88295738D01*
X50514572Y-88345196D01*
X50800000Y-88365610D01*
X51085428Y-88345196D01*
X51365046Y-88284369D01*
X51633161Y-88184367D01*
X51884315Y-88047226D01*
X52113395Y-87875739D01*
X52315739Y-87673395D01*
X52487226Y-87444315D01*
X52624367Y-87193161D01*
X52724369Y-86925046D01*
X52785196Y-86645428D01*
X52805610Y-86360000D01*
X52785196Y-86074572D01*
X52724369Y-85794954D01*
X52624367Y-85526839D01*
X52487226Y-85275685D01*
X52315739Y-85046605D01*
X52113395Y-84844261D01*
X51990837Y-84752515D01*
X51884313Y-84672772D01*
X51633163Y-84535634D01*
X51633162Y-84535633D01*
X51633161Y-84535633D01*
X51365046Y-84435631D01*
X51365041Y-84435629D01*
X51085429Y-84374804D01*
X50800000Y-84354389D01*
X50514570Y-84374804D01*
X50234955Y-84435630D01*
X50041103Y-84507933D01*
X49971412Y-84512917D01*
X49910089Y-84479432D01*
X46636819Y-81206162D01*
X46609939Y-81165934D01*
X46600500Y-81118481D01*
X46600500Y-76770000D01*
X47824389Y-76770000D01*
X47844804Y-77055429D01*
X47905629Y-77335041D01*
X47922932Y-77381431D01*
X47978926Y-77531558D01*
X48005634Y-77603163D01*
X48142772Y-77854313D01*
X48180204Y-77904316D01*
X48314261Y-78083395D01*
X48516605Y-78285739D01*
X48656309Y-78390320D01*
X48745686Y-78457227D01*
X48865479Y-78522639D01*
X48996839Y-78594367D01*
X49228256Y-78680681D01*
X49261127Y-78699043D01*
X49286972Y-78726423D01*
X49301815Y-78747927D01*
X49301816Y-78747928D01*
X49301817Y-78747929D01*
X49346847Y-78787822D01*
X49352283Y-78792940D01*
X54960846Y-84401503D01*
X54990819Y-84450025D01*
X54995903Y-84506831D01*
X54975021Y-84559904D01*
X54932592Y-84598016D01*
X54795687Y-84672772D01*
X54566602Y-84844263D01*
X54364263Y-85046602D01*
X54192772Y-85275686D01*
X54055634Y-85526836D01*
X53955629Y-85794958D01*
X53894804Y-86074570D01*
X53874389Y-86360000D01*
X53894804Y-86645429D01*
X53955629Y-86925041D01*
X54055634Y-87193163D01*
X54192772Y-87444313D01*
X54278517Y-87558855D01*
X54364261Y-87673395D01*
X54566605Y-87875739D01*
X54689161Y-87967483D01*
X54795686Y-88047227D01*
X54896600Y-88102330D01*
X55046839Y-88184367D01*
X55314954Y-88284369D01*
X55314957Y-88284369D01*
X55314958Y-88284370D01*
X55367217Y-88295738D01*
X55594572Y-88345196D01*
X55880000Y-88365610D01*
X56165428Y-88345196D01*
X56445046Y-88284369D01*
X56713161Y-88184367D01*
X56964315Y-88047226D01*
X57150474Y-87907869D01*
X58959500Y-87907869D01*
X58965909Y-87967483D01*
X59016204Y-88102331D01*
X59102454Y-88217546D01*
X59217669Y-88303796D01*
X59352517Y-88354091D01*
X59412127Y-88360500D01*
X62507872Y-88360499D01*
X62567483Y-88354091D01*
X62702331Y-88303796D01*
X62817546Y-88217546D01*
X62903796Y-88102331D01*
X62954091Y-87967483D01*
X62960500Y-87907873D01*
X62960499Y-84812128D01*
X62954091Y-84752517D01*
X62903796Y-84617669D01*
X62817546Y-84502454D01*
X62702331Y-84416204D01*
X62567483Y-84365909D01*
X62507873Y-84359500D01*
X62507869Y-84359500D01*
X61784500Y-84359500D01*
X61722500Y-84342887D01*
X61677113Y-84297500D01*
X61660500Y-84235500D01*
X61660500Y-78943097D01*
X61678619Y-78878559D01*
X61727680Y-78832882D01*
X61793346Y-78819413D01*
X61879999Y-78825610D01*
X61879999Y-78825609D01*
X61880000Y-78825610D01*
X62165428Y-78805196D01*
X62445046Y-78744369D01*
X62713161Y-78644367D01*
X62964315Y-78507226D01*
X63193395Y-78335739D01*
X63395739Y-78133395D01*
X63567226Y-77904315D01*
X63704367Y-77653161D01*
X63804369Y-77385046D01*
X63865196Y-77105428D01*
X63885610Y-76820000D01*
X63865196Y-76534572D01*
X63804369Y-76254954D01*
X63704367Y-75986839D01*
X63633237Y-75856575D01*
X63567227Y-75735686D01*
X63499477Y-75645183D01*
X63395739Y-75506605D01*
X63193395Y-75304261D01*
X63078855Y-75218517D01*
X62964313Y-75132772D01*
X62713163Y-74995634D01*
X62713162Y-74995633D01*
X62713161Y-74995633D01*
X62445046Y-74895631D01*
X62445041Y-74895629D01*
X62165429Y-74834804D01*
X61880000Y-74814389D01*
X61594570Y-74834804D01*
X61314958Y-74895629D01*
X61046836Y-74995634D01*
X60795686Y-75132772D01*
X60566602Y-75304263D01*
X60364263Y-75506602D01*
X60192772Y-75735686D01*
X60055634Y-75986836D01*
X59955629Y-76254958D01*
X59894804Y-76534570D01*
X59874389Y-76820000D01*
X59894804Y-77105429D01*
X59955629Y-77385041D01*
X59974520Y-77435690D01*
X60040835Y-77613487D01*
X60055634Y-77653163D01*
X60192774Y-77904316D01*
X60234767Y-77960412D01*
X60253154Y-77995563D01*
X60259500Y-78034722D01*
X60259500Y-84235501D01*
X60242887Y-84297501D01*
X60197500Y-84342888D01*
X60135500Y-84359501D01*
X59412128Y-84359501D01*
X59382322Y-84362704D01*
X59352515Y-84365909D01*
X59217669Y-84416204D01*
X59102454Y-84502454D01*
X59016204Y-84617668D01*
X58965909Y-84752516D01*
X58959500Y-84812130D01*
X58959500Y-87907869D01*
X57150474Y-87907869D01*
X57193395Y-87875739D01*
X57395739Y-87673395D01*
X57567226Y-87444315D01*
X57704367Y-87193161D01*
X57804369Y-86925046D01*
X57865196Y-86645428D01*
X57885610Y-86360000D01*
X57865196Y-86074572D01*
X57804369Y-85794954D01*
X57704367Y-85526839D01*
X57567226Y-85275685D01*
X57395739Y-85046605D01*
X57193395Y-84844261D01*
X57070837Y-84752515D01*
X56964313Y-84672772D01*
X56713159Y-84535632D01*
X56661165Y-84516239D01*
X56618930Y-84489800D01*
X56590512Y-84448870D01*
X56580500Y-84400058D01*
X56580500Y-84354921D01*
X56580726Y-84347434D01*
X56581001Y-84342887D01*
X56584358Y-84287394D01*
X56573507Y-84228185D01*
X56572390Y-84220840D01*
X56565140Y-84161128D01*
X56561546Y-84151651D01*
X56555521Y-84130034D01*
X56553695Y-84120068D01*
X56529009Y-84065218D01*
X56526151Y-84058322D01*
X56504818Y-84002070D01*
X56499061Y-83993730D01*
X56488035Y-83974181D01*
X56484426Y-83966162D01*
X56483878Y-83964943D01*
X56483877Y-83964942D01*
X56483877Y-83964941D01*
X56446785Y-83917597D01*
X56442355Y-83911577D01*
X56408183Y-83862071D01*
X56363153Y-83822178D01*
X56357715Y-83817058D01*
X51063296Y-78522639D01*
X51034795Y-78478291D01*
X51027293Y-78426111D01*
X51042145Y-78375530D01*
X51076665Y-78335691D01*
X51143395Y-78285739D01*
X51345739Y-78083395D01*
X51517226Y-77854315D01*
X51654367Y-77603161D01*
X51754369Y-77335046D01*
X51815196Y-77055428D01*
X51835610Y-76770000D01*
X51815196Y-76484572D01*
X51754369Y-76204954D01*
X51654367Y-75936839D01*
X51585993Y-75811621D01*
X51517227Y-75685686D01*
X51474354Y-75628415D01*
X51345739Y-75456605D01*
X51143395Y-75254261D01*
X51018662Y-75160887D01*
X50914313Y-75082772D01*
X50663163Y-74945634D01*
X50663162Y-74945633D01*
X50663161Y-74945633D01*
X50395046Y-74845631D01*
X50395041Y-74845629D01*
X50115429Y-74784804D01*
X49829999Y-74764389D01*
X49544570Y-74784804D01*
X49264958Y-74845629D01*
X48996836Y-74945634D01*
X48745686Y-75082772D01*
X48516602Y-75254263D01*
X48314263Y-75456602D01*
X48142772Y-75685686D01*
X48005634Y-75936836D01*
X47905629Y-76204958D01*
X47844804Y-76484570D01*
X47824389Y-76770000D01*
X46600500Y-76770000D01*
X46600500Y-72941519D01*
X46609939Y-72894066D01*
X46636819Y-72853838D01*
X46933266Y-72557391D01*
X48459572Y-71031082D01*
X48459576Y-71031080D01*
X48470364Y-71020291D01*
X48470367Y-71020290D01*
X54990090Y-64500565D01*
X55051411Y-64467082D01*
X55121102Y-64472066D01*
X55197517Y-64500567D01*
X55314954Y-64544369D01*
X55594572Y-64605196D01*
X55880000Y-64625610D01*
X56165428Y-64605196D01*
X56445046Y-64544369D01*
X56713161Y-64444367D01*
X56964315Y-64307226D01*
X57193395Y-64135739D01*
X57395739Y-63933395D01*
X57567226Y-63704315D01*
X57704367Y-63453161D01*
X57804369Y-63185046D01*
X57865196Y-62905428D01*
X57885610Y-62620000D01*
X57875300Y-62475848D01*
X57885465Y-62417108D01*
X57921869Y-62369899D01*
X57976097Y-62345134D01*
X58035614Y-62348537D01*
X58086665Y-62379322D01*
X60048503Y-64341160D01*
X60077077Y-64385705D01*
X60084475Y-64438107D01*
X60074591Y-64569999D01*
X60094197Y-64831627D01*
X60152580Y-65087418D01*
X60248431Y-65331641D01*
X60324559Y-65463500D01*
X60379614Y-65558857D01*
X60543195Y-65763981D01*
X60543197Y-65763983D01*
X60543198Y-65763984D01*
X60735514Y-65942428D01*
X60735520Y-65942432D01*
X60735521Y-65942433D01*
X60952296Y-66090228D01*
X61188677Y-66204063D01*
X61439385Y-66281396D01*
X61698818Y-66320500D01*
X61961182Y-66320500D01*
X62220615Y-66281396D01*
X62471323Y-66204063D01*
X62707704Y-66090228D01*
X62924479Y-65942433D01*
X62924482Y-65942429D01*
X62924485Y-65942428D01*
X63009792Y-65863273D01*
X63116805Y-65763981D01*
X63280386Y-65558857D01*
X63411568Y-65331643D01*
X63434115Y-65274192D01*
X63460773Y-65232919D01*
X63501375Y-65205237D01*
X63549541Y-65195500D01*
X65322256Y-65195500D01*
X65342762Y-65197764D01*
X65345665Y-65197672D01*
X65345667Y-65197673D01*
X65412872Y-65195561D01*
X65416768Y-65195500D01*
X65444349Y-65195500D01*
X65444350Y-65195500D01*
X65448319Y-65194998D01*
X65459965Y-65194080D01*
X65503627Y-65192709D01*
X65522859Y-65187120D01*
X65541918Y-65183174D01*
X65548196Y-65182381D01*
X65561792Y-65180664D01*
X65602407Y-65164582D01*
X65613444Y-65160803D01*
X65655390Y-65148618D01*
X65672629Y-65138422D01*
X65690102Y-65129862D01*
X65708732Y-65122486D01*
X65744064Y-65096814D01*
X65753830Y-65090400D01*
X65791418Y-65068171D01*
X65791417Y-65068171D01*
X65791420Y-65068170D01*
X65805585Y-65054004D01*
X65820373Y-65041373D01*
X65836587Y-65029594D01*
X65864438Y-64995926D01*
X65872279Y-64987309D01*
X67358788Y-63500800D01*
X67374885Y-63487906D01*
X67376873Y-63485787D01*
X67376877Y-63485786D01*
X67422948Y-63436723D01*
X67425566Y-63434023D01*
X67445120Y-63414471D01*
X67447581Y-63411298D01*
X67455156Y-63402427D01*
X67485062Y-63370582D01*
X67494717Y-63353018D01*
X67505394Y-63336764D01*
X67517673Y-63320936D01*
X67535018Y-63280852D01*
X67540160Y-63270356D01*
X67540761Y-63269263D01*
X67561197Y-63232092D01*
X67566179Y-63212684D01*
X67572481Y-63194280D01*
X67580437Y-63175896D01*
X67587269Y-63132752D01*
X67589633Y-63121338D01*
X67600500Y-63079019D01*
X67600500Y-63058984D01*
X67602027Y-63039585D01*
X67602205Y-63038461D01*
X67605160Y-63019804D01*
X67601050Y-62976325D01*
X67600500Y-62964656D01*
X67600500Y-61740891D01*
X67609939Y-61693438D01*
X67636819Y-61653210D01*
X67714149Y-61575880D01*
X67769736Y-61543786D01*
X67833924Y-61543786D01*
X67889511Y-61575880D01*
X67931342Y-61617711D01*
X67973362Y-61643629D01*
X68080666Y-61709814D01*
X68174450Y-61740891D01*
X68247202Y-61764999D01*
X68257703Y-61766071D01*
X68349991Y-61775500D01*
X69150008Y-61775499D01*
X69252797Y-61764999D01*
X69419334Y-61709814D01*
X69568656Y-61617712D01*
X69662673Y-61523694D01*
X69718259Y-61491602D01*
X69782446Y-61491602D01*
X69838034Y-61523696D01*
X69931654Y-61617316D01*
X70080877Y-61709357D01*
X70247303Y-61764506D01*
X70350021Y-61775000D01*
X70500000Y-61775000D01*
X70500000Y-60825000D01*
X71000000Y-60825000D01*
X71000000Y-61774999D01*
X71149979Y-61774999D01*
X71252695Y-61764506D01*
X71419122Y-61709357D01*
X71568345Y-61617316D01*
X71692316Y-61493345D01*
X71784357Y-61344122D01*
X71839506Y-61177696D01*
X71850000Y-61074979D01*
X71850000Y-60825000D01*
X71000000Y-60825000D01*
X70500000Y-60825000D01*
X70500000Y-60449000D01*
X70516613Y-60387000D01*
X70562000Y-60341613D01*
X70624000Y-60325000D01*
X71849998Y-60325000D01*
X71854489Y-60320509D01*
X71910076Y-60288414D01*
X71974264Y-60288414D01*
X72029852Y-60320508D01*
X72423181Y-60713837D01*
X72450061Y-60754065D01*
X72459500Y-60801518D01*
X72459500Y-61118480D01*
X72450061Y-61165933D01*
X72423181Y-61206161D01*
X70352290Y-63277051D01*
X70346838Y-63282183D01*
X70301816Y-63322070D01*
X70267649Y-63371568D01*
X70263213Y-63377597D01*
X70226121Y-63424942D01*
X70221961Y-63434186D01*
X70210941Y-63453725D01*
X70205182Y-63462069D01*
X70183853Y-63518305D01*
X70180989Y-63525219D01*
X70156303Y-63580070D01*
X70154475Y-63590047D01*
X70148454Y-63611648D01*
X70144859Y-63621128D01*
X70137609Y-63680827D01*
X70136483Y-63688226D01*
X70125641Y-63747391D01*
X70129274Y-63807434D01*
X70129500Y-63814921D01*
X70129500Y-69009069D01*
X70112023Y-69072543D01*
X70064519Y-69118122D01*
X70023922Y-69140092D01*
X70006485Y-69149529D01*
X69810259Y-69302259D01*
X69810256Y-69302261D01*
X69810256Y-69302262D01*
X69641836Y-69485215D01*
X69596499Y-69554607D01*
X69505825Y-69693395D01*
X69434533Y-69855926D01*
X69405937Y-69921119D01*
X69363669Y-70088032D01*
X69344891Y-70162183D01*
X69324356Y-70409999D01*
X69344891Y-70657816D01*
X69344891Y-70657819D01*
X69344892Y-70657821D01*
X69405937Y-70898881D01*
X69434341Y-70963636D01*
X69505825Y-71126604D01*
X69505827Y-71126607D01*
X69641836Y-71334785D01*
X69810256Y-71517738D01*
X69810259Y-71517740D01*
X70006485Y-71670470D01*
X70006487Y-71670471D01*
X70006491Y-71670474D01*
X70064519Y-71701877D01*
X70112023Y-71747457D01*
X70129500Y-71810931D01*
X70129500Y-75509069D01*
X70112023Y-75572543D01*
X70064519Y-75618122D01*
X70042332Y-75630130D01*
X70006485Y-75649529D01*
X69810259Y-75802259D01*
X69810256Y-75802261D01*
X69810256Y-75802262D01*
X69641836Y-75985215D01*
X69616817Y-76023510D01*
X69505825Y-76193395D01*
X69415780Y-76398678D01*
X69405937Y-76421119D01*
X69377207Y-76534570D01*
X69344891Y-76662183D01*
X69324356Y-76910000D01*
X69344891Y-77157816D01*
X69344891Y-77157819D01*
X69344892Y-77157821D01*
X69351731Y-77184828D01*
X69405937Y-77398882D01*
X69422083Y-77435690D01*
X69432103Y-77495740D01*
X69412336Y-77553322D01*
X69367544Y-77594555D01*
X69308527Y-77609500D01*
X68212940Y-77609500D01*
X68165487Y-77600061D01*
X68125259Y-77573181D01*
X67843669Y-77291591D01*
X67811798Y-77236825D01*
X67811146Y-77173465D01*
X67815108Y-77157821D01*
X67835643Y-76910000D01*
X67815108Y-76662179D01*
X67754063Y-76421119D01*
X67654173Y-76193393D01*
X67518164Y-75985215D01*
X67349744Y-75802262D01*
X67284704Y-75751639D01*
X67153512Y-75649528D01*
X67153510Y-75649527D01*
X67153509Y-75649526D01*
X67145481Y-75645181D01*
X67097977Y-75599602D01*
X67080500Y-75536128D01*
X67080500Y-71783872D01*
X67097977Y-71720398D01*
X67145481Y-71674818D01*
X67153509Y-71670474D01*
X67349744Y-71517738D01*
X67518164Y-71334785D01*
X67654173Y-71126607D01*
X67754063Y-70898881D01*
X67815108Y-70657821D01*
X67835643Y-70410000D01*
X67815108Y-70162179D01*
X67754063Y-69921119D01*
X67654173Y-69693393D01*
X67518164Y-69485215D01*
X67349744Y-69302262D01*
X67283057Y-69250357D01*
X67153514Y-69149529D01*
X67153510Y-69149526D01*
X67153509Y-69149526D01*
X66934810Y-69031172D01*
X66934806Y-69031170D01*
X66934805Y-69031170D01*
X66699615Y-68950429D01*
X66454335Y-68909500D01*
X66205665Y-68909500D01*
X65960384Y-68950429D01*
X65725194Y-69031170D01*
X65506485Y-69149529D01*
X65310259Y-69302259D01*
X65310256Y-69302261D01*
X65310256Y-69302262D01*
X65141836Y-69485215D01*
X65096499Y-69554607D01*
X65005825Y-69693395D01*
X64934533Y-69855926D01*
X64905937Y-69921119D01*
X64863669Y-70088032D01*
X64844891Y-70162183D01*
X64824356Y-70409999D01*
X64844891Y-70657816D01*
X64844891Y-70657819D01*
X64844892Y-70657821D01*
X64905937Y-70898881D01*
X64934341Y-70963636D01*
X65005825Y-71126604D01*
X65005827Y-71126607D01*
X65141836Y-71334785D01*
X65310256Y-71517738D01*
X65506491Y-71670474D01*
X65514518Y-71674818D01*
X65562023Y-71720398D01*
X65579500Y-71783872D01*
X65579500Y-75536128D01*
X65562023Y-75599602D01*
X65514518Y-75645181D01*
X65508448Y-75648466D01*
X65506487Y-75649528D01*
X65310259Y-75802259D01*
X65310256Y-75802261D01*
X65310256Y-75802262D01*
X65141836Y-75985215D01*
X65116817Y-76023510D01*
X65005825Y-76193395D01*
X64915780Y-76398678D01*
X64905937Y-76421119D01*
X64877207Y-76534570D01*
X64844891Y-76662183D01*
X64824356Y-76910000D01*
X64844891Y-77157816D01*
X64844891Y-77157819D01*
X64844892Y-77157821D01*
X64905937Y-77398881D01*
X64948423Y-77495740D01*
X65005825Y-77626604D01*
X65005827Y-77626607D01*
X65141836Y-77834785D01*
X65310256Y-78017738D01*
X65310259Y-78017740D01*
X65506485Y-78170470D01*
X65506487Y-78170471D01*
X65506491Y-78170474D01*
X65725190Y-78288828D01*
X65960386Y-78369571D01*
X66205665Y-78410500D01*
X66454333Y-78410500D01*
X66454335Y-78410500D01*
X66600561Y-78386099D01*
X66658798Y-78390320D01*
X66708648Y-78420726D01*
X67200184Y-78912262D01*
X67275735Y-78987813D01*
X67327738Y-79039816D01*
X67360143Y-79060177D01*
X67371486Y-79068225D01*
X67401411Y-79092090D01*
X67401412Y-79092090D01*
X67401413Y-79092091D01*
X67435896Y-79108697D01*
X67448058Y-79115418D01*
X67480478Y-79135789D01*
X67516620Y-79148435D01*
X67529458Y-79153754D01*
X67563939Y-79170359D01*
X67598837Y-79178324D01*
X67601249Y-79178875D01*
X67614611Y-79182724D01*
X67650745Y-79195368D01*
X67688800Y-79199655D01*
X67702481Y-79201980D01*
X67725475Y-79207229D01*
X67739804Y-79210500D01*
X67739805Y-79210500D01*
X67785046Y-79210500D01*
X67920194Y-79210500D01*
X72597806Y-79210500D01*
X72732954Y-79210500D01*
X72778194Y-79210500D01*
X72778195Y-79210500D01*
X72789009Y-79208031D01*
X72815520Y-79201980D01*
X72829197Y-79199655D01*
X72867255Y-79195368D01*
X72903399Y-79182720D01*
X72916721Y-79178882D01*
X72954061Y-79170360D01*
X72988549Y-79153750D01*
X73001391Y-79148431D01*
X73037522Y-79135789D01*
X73069932Y-79115423D01*
X73082103Y-79108697D01*
X73116587Y-79092091D01*
X73146515Y-79068222D01*
X73157834Y-79060190D01*
X73190262Y-79039816D01*
X73317816Y-78912262D01*
X73317816Y-78912261D01*
X73861351Y-78368725D01*
X73911200Y-78338320D01*
X73969437Y-78334099D01*
X74115665Y-78358500D01*
X74364333Y-78358500D01*
X74364335Y-78358500D01*
X74510561Y-78334099D01*
X74568798Y-78338320D01*
X74618649Y-78368727D01*
X75110184Y-78860262D01*
X75193019Y-78943097D01*
X75237738Y-78987816D01*
X75270143Y-79008177D01*
X75281486Y-79016225D01*
X75311411Y-79040090D01*
X75311412Y-79040090D01*
X75311413Y-79040091D01*
X75345896Y-79056697D01*
X75358058Y-79063418D01*
X75390478Y-79083789D01*
X75426620Y-79096435D01*
X75439458Y-79101754D01*
X75473939Y-79118359D01*
X75508837Y-79126324D01*
X75511249Y-79126875D01*
X75524610Y-79130724D01*
X75539082Y-79135788D01*
X75560745Y-79143368D01*
X75598800Y-79147655D01*
X75612481Y-79149980D01*
X75628999Y-79153751D01*
X75649804Y-79158500D01*
X75649805Y-79158500D01*
X75695046Y-79158500D01*
X75830194Y-79158500D01*
X79271127Y-79158500D01*
X79406275Y-79158500D01*
X79451515Y-79158500D01*
X79451516Y-79158500D01*
X79462330Y-79156031D01*
X79488841Y-79149980D01*
X79502518Y-79147655D01*
X79540576Y-79143368D01*
X79576720Y-79130720D01*
X79590042Y-79126882D01*
X79627382Y-79118360D01*
X79661870Y-79101750D01*
X79674712Y-79096431D01*
X79710843Y-79083789D01*
X79743253Y-79063423D01*
X79755424Y-79056697D01*
X79789908Y-79040091D01*
X79819836Y-79016222D01*
X79831155Y-79008190D01*
X79863583Y-78987816D01*
X79991137Y-78860262D01*
X82639827Y-76211572D01*
X82671816Y-76179583D01*
X82692180Y-76147172D01*
X82700230Y-76135827D01*
X82724090Y-76105909D01*
X82724092Y-76105907D01*
X82740705Y-76071407D01*
X82747423Y-76059252D01*
X82767789Y-76026843D01*
X82780433Y-75990706D01*
X82785747Y-75977877D01*
X82802360Y-75943382D01*
X82810882Y-75906042D01*
X82814720Y-75892720D01*
X82827368Y-75856576D01*
X82831655Y-75818518D01*
X82833980Y-75804841D01*
X82842500Y-75767515D01*
X82842500Y-75587126D01*
X82842500Y-62931718D01*
X82859113Y-62869718D01*
X82869179Y-62852284D01*
X82927674Y-62672256D01*
X82947460Y-62484000D01*
X82927674Y-62295744D01*
X82897332Y-62202363D01*
X82869179Y-62115715D01*
X82809113Y-62011678D01*
X82792500Y-61949678D01*
X82792500Y-61522500D01*
X82809113Y-61460500D01*
X82854500Y-61415113D01*
X82916500Y-61398500D01*
X83458008Y-61398499D01*
X83458007Y-61398499D01*
X83560797Y-61387999D01*
X83573477Y-61383796D01*
X83641078Y-61380844D01*
X83700164Y-61413821D01*
X84319181Y-62032838D01*
X84346061Y-62073066D01*
X84355500Y-62120519D01*
X84355500Y-62532192D01*
X84358402Y-62569072D01*
X84404255Y-62726897D01*
X84449453Y-62803322D01*
X84487919Y-62868365D01*
X84604135Y-62984581D01*
X84715100Y-63050205D01*
X84745602Y-63068244D01*
X84903427Y-63114097D01*
X84903431Y-63114098D01*
X84940306Y-63117000D01*
X85181500Y-63117000D01*
X85243500Y-63133613D01*
X85288887Y-63179000D01*
X85305500Y-63241000D01*
X85305500Y-64407192D01*
X85308402Y-64444072D01*
X85354254Y-64601894D01*
X85354255Y-64601896D01*
X85354256Y-64601898D01*
X85388232Y-64659349D01*
X85405500Y-64722469D01*
X85405500Y-65777079D01*
X85405274Y-65784566D01*
X85401641Y-65844607D01*
X85412483Y-65903771D01*
X85413610Y-65911172D01*
X85420860Y-65970873D01*
X85424450Y-65980339D01*
X85430475Y-66001952D01*
X85432303Y-66011929D01*
X85456991Y-66066783D01*
X85459856Y-66073701D01*
X85481180Y-66129926D01*
X85481182Y-66129930D01*
X85486941Y-66138273D01*
X85497961Y-66157813D01*
X85502120Y-66167054D01*
X85539216Y-66214405D01*
X85543651Y-66220432D01*
X85577817Y-66269929D01*
X85622847Y-66309822D01*
X85628283Y-66314940D01*
X85631181Y-66317838D01*
X85658061Y-66358066D01*
X85667500Y-66405519D01*
X85667500Y-66964008D01*
X85678000Y-67066796D01*
X85733186Y-67233334D01*
X85825288Y-67382657D01*
X85918950Y-67476319D01*
X85951044Y-67531906D01*
X85951044Y-67596094D01*
X85918950Y-67651681D01*
X85825288Y-67745342D01*
X85733186Y-67894665D01*
X85678000Y-68061202D01*
X85667500Y-68163990D01*
X85667500Y-68964008D01*
X85678000Y-69066796D01*
X85733186Y-69233334D01*
X85825288Y-69382657D01*
X85949342Y-69506711D01*
X85949344Y-69506712D01*
X86098666Y-69598814D01*
X86209060Y-69635395D01*
X86265202Y-69653999D01*
X86275702Y-69655071D01*
X86367991Y-69664500D01*
X87368008Y-69664499D01*
X87470797Y-69653999D01*
X87637334Y-69598814D01*
X87786656Y-69506712D01*
X87910712Y-69382656D01*
X88002814Y-69233334D01*
X88057999Y-69066797D01*
X88068500Y-68964009D01*
X88068499Y-68258000D01*
X88487000Y-68258000D01*
X88487000Y-68730824D01*
X88493402Y-68790375D01*
X88543647Y-68925089D01*
X88629811Y-69040188D01*
X88744910Y-69126352D01*
X88879624Y-69176597D01*
X88939176Y-69183000D01*
X89412000Y-69183000D01*
X89412000Y-68258000D01*
X89912000Y-68258000D01*
X89912000Y-69183000D01*
X90384824Y-69183000D01*
X90444375Y-69176597D01*
X90579089Y-69126352D01*
X90694188Y-69040188D01*
X90780352Y-68925089D01*
X90830597Y-68790375D01*
X90837000Y-68730824D01*
X90837000Y-68258000D01*
X89912000Y-68258000D01*
X89412000Y-68258000D01*
X88487000Y-68258000D01*
X88068499Y-68258000D01*
X88068499Y-68163992D01*
X88057999Y-68061203D01*
X88002814Y-67894666D01*
X87910712Y-67745344D01*
X87910711Y-67745342D01*
X87817049Y-67651680D01*
X87784955Y-67596092D01*
X87784955Y-67531905D01*
X87817048Y-67476319D01*
X87910712Y-67382656D01*
X88002814Y-67233334D01*
X88057999Y-67066797D01*
X88068500Y-66964009D01*
X88068500Y-66832500D01*
X88085113Y-66770500D01*
X88130500Y-66725113D01*
X88192500Y-66708500D01*
X88614335Y-66708500D01*
X88673762Y-66723668D01*
X88718650Y-66765460D01*
X88738019Y-66823653D01*
X88727130Y-66884011D01*
X88688646Y-66931767D01*
X88629811Y-66975810D01*
X88543647Y-67090910D01*
X88493402Y-67225624D01*
X88487000Y-67285176D01*
X88487000Y-67758000D01*
X90837000Y-67758000D01*
X90837000Y-67285176D01*
X90830597Y-67225624D01*
X90780352Y-67090910D01*
X90694188Y-66975811D01*
X90608594Y-66911735D01*
X90568848Y-66861121D01*
X90559824Y-66797402D01*
X90583951Y-66737741D01*
X90665712Y-66629472D01*
X90762817Y-66434459D01*
X90762818Y-66434457D01*
X90822435Y-66224925D01*
X90827797Y-66167054D01*
X90842536Y-66008000D01*
X90822435Y-65791077D01*
X90822435Y-65791074D01*
X90762818Y-65581542D01*
X90665712Y-65386528D01*
X90534426Y-65212676D01*
X90410427Y-65099637D01*
X90374699Y-65041934D01*
X90374699Y-64974066D01*
X90410427Y-64916363D01*
X90534426Y-64803323D01*
X90595484Y-64722469D01*
X90665712Y-64629472D01*
X90762817Y-64434459D01*
X90767582Y-64417712D01*
X90822435Y-64224925D01*
X90842536Y-64008000D01*
X90839737Y-63977796D01*
X90831803Y-63892180D01*
X90838643Y-63838632D01*
X90867591Y-63793064D01*
X91214723Y-63445931D01*
X91220142Y-63440829D01*
X91265183Y-63400929D01*
X91299361Y-63351410D01*
X91303790Y-63345394D01*
X91340875Y-63298060D01*
X91340875Y-63298059D01*
X91340878Y-63298056D01*
X91345037Y-63288814D01*
X91356061Y-63269268D01*
X91361818Y-63260930D01*
X91383152Y-63204674D01*
X91385994Y-63197811D01*
X91410695Y-63142931D01*
X91412522Y-63132956D01*
X91418549Y-63111339D01*
X91422140Y-63101872D01*
X91429387Y-63042179D01*
X91430514Y-63034777D01*
X91435421Y-63008000D01*
X91441358Y-62975606D01*
X91437726Y-62915566D01*
X91437500Y-62908079D01*
X91437500Y-58773921D01*
X91437726Y-58766434D01*
X91437927Y-58763102D01*
X91441358Y-58706394D01*
X91430507Y-58647185D01*
X91429390Y-58639841D01*
X91422140Y-58580128D01*
X91418547Y-58570656D01*
X91412522Y-58549044D01*
X91410695Y-58539069D01*
X91386009Y-58484220D01*
X91383152Y-58477326D01*
X91361818Y-58421070D01*
X91361816Y-58421068D01*
X91361816Y-58421066D01*
X91356062Y-58412731D01*
X91345033Y-58393177D01*
X91344591Y-58392195D01*
X91340878Y-58383944D01*
X91303780Y-58336591D01*
X91299352Y-58330573D01*
X91265184Y-58281072D01*
X91265183Y-58281071D01*
X91220153Y-58241178D01*
X91214715Y-58236058D01*
X90644818Y-57666161D01*
X90617938Y-57625933D01*
X90608499Y-57578480D01*
X90608499Y-57019991D01*
X90597999Y-56917203D01*
X90597652Y-56916156D01*
X90542814Y-56750666D01*
X90450712Y-56601344D01*
X90450711Y-56601342D01*
X90326657Y-56477288D01*
X90177334Y-56385186D01*
X90010797Y-56330000D01*
X89908009Y-56319500D01*
X88907991Y-56319500D01*
X88805203Y-56330000D01*
X88638665Y-56385186D01*
X88489342Y-56477288D01*
X88365288Y-56601342D01*
X88273186Y-56750665D01*
X88218000Y-56917202D01*
X88207500Y-57019991D01*
X88207500Y-57301840D01*
X88188197Y-57368283D01*
X88136297Y-57414039D01*
X88067959Y-57424862D01*
X88004459Y-57397384D01*
X87965569Y-57340158D01*
X87945152Y-57277321D01*
X87947001Y-57276720D01*
X87935000Y-57231931D01*
X87935000Y-57083308D01*
X87935000Y-57083306D01*
X87932098Y-57046431D01*
X87924416Y-57019991D01*
X87886244Y-56888602D01*
X87804669Y-56750666D01*
X87802581Y-56747135D01*
X87686365Y-56630919D01*
X87580269Y-56568174D01*
X87544897Y-56547255D01*
X87387072Y-56501402D01*
X87364944Y-56499660D01*
X87350194Y-56498500D01*
X86918806Y-56498500D01*
X86906514Y-56499467D01*
X86881927Y-56501402D01*
X86724102Y-56547255D01*
X86582634Y-56630919D01*
X86466419Y-56747134D01*
X86382755Y-56888602D01*
X86336902Y-57046427D01*
X86334000Y-57083308D01*
X86334000Y-57188630D01*
X86317387Y-57250630D01*
X86294820Y-57289715D01*
X86276931Y-57344775D01*
X86238041Y-57402001D01*
X86174541Y-57429479D01*
X86106203Y-57418656D01*
X86054303Y-57372900D01*
X86035000Y-57306457D01*
X86035000Y-57083308D01*
X86035000Y-57083306D01*
X86032098Y-57046431D01*
X86024416Y-57019991D01*
X85986244Y-56888602D01*
X85904669Y-56750666D01*
X85902581Y-56747135D01*
X85786365Y-56630919D01*
X85680269Y-56568174D01*
X85644897Y-56547255D01*
X85487072Y-56501402D01*
X85464944Y-56499660D01*
X85450194Y-56498500D01*
X85018806Y-56498500D01*
X85006514Y-56499467D01*
X84981927Y-56501402D01*
X84824102Y-56547255D01*
X84682634Y-56630919D01*
X84566419Y-56747134D01*
X84482755Y-56888602D01*
X84436902Y-57046427D01*
X84434000Y-57083308D01*
X84434000Y-57341500D01*
X84417387Y-57403500D01*
X84372000Y-57448887D01*
X84310000Y-57465500D01*
X84204478Y-57465500D01*
X84144046Y-57449777D01*
X84098939Y-57406596D01*
X84000711Y-57247342D01*
X83876657Y-57123288D01*
X83727334Y-57031186D01*
X83560797Y-56976000D01*
X83458009Y-56965500D01*
X82657991Y-56965500D01*
X82555203Y-56976000D01*
X82388665Y-57031186D01*
X82239342Y-57123288D01*
X82145681Y-57216950D01*
X82090094Y-57249044D01*
X82025906Y-57249044D01*
X81970319Y-57216950D01*
X81876657Y-57123288D01*
X81727334Y-57031186D01*
X81560797Y-56976000D01*
X81458009Y-56965500D01*
X80970230Y-56965500D01*
X80922777Y-56956061D01*
X80882549Y-56929181D01*
X79098818Y-55145450D01*
X79071938Y-55105222D01*
X79062499Y-55057769D01*
X79062499Y-54363991D01*
X79051999Y-54261203D01*
X79051998Y-54261202D01*
X78996814Y-54094666D01*
X78904712Y-53945344D01*
X78904711Y-53945342D01*
X78770408Y-53811039D01*
X78772411Y-53809035D01*
X78745977Y-53781411D01*
X78730266Y-53720976D01*
X78746000Y-53660546D01*
X78772412Y-53632966D01*
X78770407Y-53630961D01*
X78814703Y-53586665D01*
X78904712Y-53496656D01*
X78904713Y-53496653D01*
X78907548Y-53493819D01*
X78947777Y-53466939D01*
X78995230Y-53457500D01*
X79450548Y-53457500D01*
X79498001Y-53466939D01*
X79538229Y-53493819D01*
X79903651Y-53859241D01*
X79935521Y-53914004D01*
X79936176Y-53977362D01*
X79898865Y-54124699D01*
X79879699Y-54355999D01*
X79898865Y-54587299D01*
X79898865Y-54587301D01*
X79898866Y-54587305D01*
X79955843Y-54812300D01*
X79955844Y-54812303D01*
X80036713Y-54996665D01*
X80049076Y-55024849D01*
X80176021Y-55219153D01*
X80333216Y-55389913D01*
X80516374Y-55532470D01*
X80720497Y-55642936D01*
X80807546Y-55672820D01*
X80940015Y-55718297D01*
X80940017Y-55718297D01*
X80940019Y-55718298D01*
X81168951Y-55756500D01*
X81401048Y-55756500D01*
X81401049Y-55756500D01*
X81629981Y-55718298D01*
X81849503Y-55642936D01*
X82053626Y-55532470D01*
X82236784Y-55389913D01*
X82245511Y-55380432D01*
X82298132Y-55346577D01*
X82360588Y-55342727D01*
X82416971Y-55369865D01*
X82452924Y-55421079D01*
X82481647Y-55498088D01*
X82567811Y-55613188D01*
X82682910Y-55699352D01*
X82817624Y-55749597D01*
X82877176Y-55756000D01*
X83575000Y-55756000D01*
X83575000Y-54606000D01*
X84075000Y-54606000D01*
X84075000Y-55756000D01*
X84772824Y-55756000D01*
X84832375Y-55749597D01*
X84967089Y-55699352D01*
X85082188Y-55613188D01*
X85168352Y-55498089D01*
X85218597Y-55363375D01*
X85225000Y-55303824D01*
X85225000Y-54606000D01*
X84075000Y-54606000D01*
X83575000Y-54606000D01*
X83575000Y-52956000D01*
X84075000Y-52956000D01*
X84075000Y-54106000D01*
X85225000Y-54106000D01*
X85225000Y-53408176D01*
X85218597Y-53348624D01*
X85168352Y-53213910D01*
X85082188Y-53098811D01*
X84967089Y-53012647D01*
X84832375Y-52962402D01*
X84772824Y-52956000D01*
X84075000Y-52956000D01*
X83575000Y-52956000D01*
X82877176Y-52956000D01*
X82817624Y-52962402D01*
X82682910Y-53012647D01*
X82567811Y-53098811D01*
X82481645Y-53213913D01*
X82452923Y-53290920D01*
X82416971Y-53342134D01*
X82360589Y-53369271D01*
X82298135Y-53365423D01*
X82245513Y-53331569D01*
X82236784Y-53322087D01*
X82053626Y-53179530D01*
X81849503Y-53069064D01*
X81849499Y-53069062D01*
X81849498Y-53069062D01*
X81629984Y-52993702D01*
X81458282Y-52965050D01*
X81401049Y-52955500D01*
X81168951Y-52955500D01*
X81092640Y-52968234D01*
X80940017Y-52993702D01*
X80914421Y-53002489D01*
X80846210Y-53006016D01*
X80786479Y-52972888D01*
X80261802Y-52448211D01*
X80248906Y-52432113D01*
X80197775Y-52384098D01*
X80194978Y-52381387D01*
X80175470Y-52361879D01*
X80172290Y-52359412D01*
X80163424Y-52351839D01*
X80131582Y-52321938D01*
X80114024Y-52312285D01*
X80097764Y-52301604D01*
X80081936Y-52289327D01*
X80041851Y-52271980D01*
X80031361Y-52266841D01*
X79993091Y-52245802D01*
X79973691Y-52240821D01*
X79955284Y-52234519D01*
X79936897Y-52226562D01*
X79893758Y-52219729D01*
X79882324Y-52217361D01*
X79840019Y-52206500D01*
X79819984Y-52206500D01*
X79800586Y-52204973D01*
X79793162Y-52203797D01*
X79780805Y-52201840D01*
X79780804Y-52201840D01*
X79747751Y-52204964D01*
X79737325Y-52205950D01*
X79725656Y-52206500D01*
X79186499Y-52206500D01*
X79124499Y-52189887D01*
X79079112Y-52144500D01*
X79062499Y-52082500D01*
X79062499Y-52077991D01*
X79051999Y-51975203D01*
X79030623Y-51910695D01*
X78996814Y-51808666D01*
X78904712Y-51659344D01*
X78904711Y-51659342D01*
X78770408Y-51525039D01*
X78772412Y-51523034D01*
X78745989Y-51495432D01*
X78730266Y-51435000D01*
X78745989Y-51374568D01*
X78772412Y-51346965D01*
X78770408Y-51344961D01*
X78904711Y-51210657D01*
X78919509Y-51186666D01*
X78996814Y-51061334D01*
X79051999Y-50894797D01*
X79062500Y-50792009D01*
X79062500Y-50533500D01*
X79079113Y-50471500D01*
X79124500Y-50426113D01*
X79186500Y-50409500D01*
X79948650Y-50409500D01*
X80007668Y-50424445D01*
X80052457Y-50465677D01*
X80171021Y-50647153D01*
X80328216Y-50817913D01*
X80511374Y-50960470D01*
X80715497Y-51070936D01*
X80781579Y-51093622D01*
X80935015Y-51146297D01*
X80935017Y-51146297D01*
X80935019Y-51146298D01*
X81163951Y-51184500D01*
X81396048Y-51184500D01*
X81396049Y-51184500D01*
X81624981Y-51146298D01*
X81844503Y-51070936D01*
X82048626Y-50960470D01*
X82231784Y-50817913D01*
X82240511Y-50808432D01*
X82293132Y-50774577D01*
X82355588Y-50770727D01*
X82411971Y-50797865D01*
X82447924Y-50849079D01*
X82476647Y-50926088D01*
X82562811Y-51041188D01*
X82677910Y-51127352D01*
X82812624Y-51177597D01*
X82872176Y-51184000D01*
X83570000Y-51184000D01*
X83570000Y-49658000D01*
X83586613Y-49596000D01*
X83632000Y-49550613D01*
X83694000Y-49534000D01*
X83946000Y-49534000D01*
X84008000Y-49550613D01*
X84053387Y-49596000D01*
X84070000Y-49658000D01*
X84070000Y-51184000D01*
X84767824Y-51184000D01*
X84827375Y-51177597D01*
X84962089Y-51127352D01*
X85077188Y-51041188D01*
X85163352Y-50926089D01*
X85213597Y-50791375D01*
X85220000Y-50731824D01*
X85220000Y-50081952D01*
X85233515Y-50025657D01*
X85271115Y-49981634D01*
X85324602Y-49959479D01*
X85382318Y-49964021D01*
X85431681Y-49994271D01*
X86502651Y-51065241D01*
X86534521Y-51120004D01*
X86535175Y-51183361D01*
X86503736Y-51307517D01*
X86497865Y-51330699D01*
X86478699Y-51561999D01*
X86497865Y-51793299D01*
X86497865Y-51793301D01*
X86497866Y-51793305D01*
X86554843Y-52018300D01*
X86554844Y-52018303D01*
X86580645Y-52077122D01*
X86648076Y-52230849D01*
X86775021Y-52425153D01*
X86932216Y-52595913D01*
X87115374Y-52738470D01*
X87319497Y-52848936D01*
X87417574Y-52882606D01*
X87539015Y-52924297D01*
X87539017Y-52924297D01*
X87539019Y-52924298D01*
X87767951Y-52962500D01*
X88000048Y-52962500D01*
X88000049Y-52962500D01*
X88228981Y-52924298D01*
X88448503Y-52848936D01*
X88652626Y-52738470D01*
X88835784Y-52595913D01*
X88844511Y-52586432D01*
X88897132Y-52552577D01*
X88959588Y-52548727D01*
X89015971Y-52575865D01*
X89051924Y-52627079D01*
X89080647Y-52704088D01*
X89166811Y-52819188D01*
X89281910Y-52905352D01*
X89416624Y-52955597D01*
X89476176Y-52962000D01*
X90174000Y-52962000D01*
X90174000Y-51812000D01*
X90674000Y-51812000D01*
X90674000Y-52962000D01*
X91371824Y-52962000D01*
X91431375Y-52955597D01*
X91566089Y-52905352D01*
X91681188Y-52819188D01*
X91767352Y-52704089D01*
X91817597Y-52569375D01*
X91824000Y-52509824D01*
X91824000Y-51812000D01*
X90674000Y-51812000D01*
X90174000Y-51812000D01*
X90174000Y-50162000D01*
X90674000Y-50162000D01*
X90674000Y-51312000D01*
X91824000Y-51312000D01*
X91824000Y-50614176D01*
X91817597Y-50554624D01*
X91767352Y-50419910D01*
X91681188Y-50304811D01*
X91566089Y-50218647D01*
X91431375Y-50168402D01*
X91371824Y-50162000D01*
X90674000Y-50162000D01*
X90174000Y-50162000D01*
X89476176Y-50162000D01*
X89416624Y-50168402D01*
X89281910Y-50218647D01*
X89166811Y-50304811D01*
X89080645Y-50419913D01*
X89051923Y-50496920D01*
X89015971Y-50548134D01*
X88959589Y-50575271D01*
X88897135Y-50571423D01*
X88844513Y-50537569D01*
X88835784Y-50528087D01*
X88652626Y-50385530D01*
X88448503Y-50275064D01*
X88448499Y-50275062D01*
X88448498Y-50275062D01*
X88228984Y-50199702D01*
X88039984Y-50168164D01*
X88000049Y-50161500D01*
X87767951Y-50161500D01*
X87729795Y-50167867D01*
X87539014Y-50199702D01*
X87513419Y-50208489D01*
X87445208Y-50212016D01*
X87385478Y-50178888D01*
X86002071Y-48795481D01*
X84636591Y-47430000D01*
X87749495Y-47430000D01*
X87799651Y-47606278D01*
X87896712Y-47801205D01*
X88027944Y-47974985D01*
X88188868Y-48121685D01*
X88374012Y-48236322D01*
X88577069Y-48314986D01*
X88650000Y-48328620D01*
X88650000Y-47430000D01*
X89150000Y-47430000D01*
X89150000Y-48328620D01*
X89222930Y-48314986D01*
X89425987Y-48236322D01*
X89611131Y-48121685D01*
X89772055Y-47974985D01*
X89903287Y-47801205D01*
X90000348Y-47606278D01*
X90050505Y-47430000D01*
X89150000Y-47430000D01*
X88650000Y-47430000D01*
X87749495Y-47430000D01*
X84636591Y-47430000D01*
X84574802Y-47368211D01*
X84561906Y-47352113D01*
X84510775Y-47304098D01*
X84507978Y-47301387D01*
X84488470Y-47281879D01*
X84485290Y-47279412D01*
X84476424Y-47271839D01*
X84444582Y-47241938D01*
X84427024Y-47232285D01*
X84410764Y-47221604D01*
X84394936Y-47209327D01*
X84354851Y-47191980D01*
X84344361Y-47186841D01*
X84306091Y-47165802D01*
X84286691Y-47160821D01*
X84268282Y-47154518D01*
X84257934Y-47150040D01*
X84207434Y-47109904D01*
X84183928Y-47049830D01*
X84193779Y-46986079D01*
X84234321Y-46935902D01*
X84294579Y-46912881D01*
X84322797Y-46909999D01*
X84489334Y-46854814D01*
X84638656Y-46762712D01*
X84732320Y-46669047D01*
X84787906Y-46636955D01*
X84852094Y-46636955D01*
X84907679Y-46669047D01*
X84966466Y-46727834D01*
X85001345Y-46762713D01*
X85032908Y-46782181D01*
X85150666Y-46854814D01*
X85246478Y-46886563D01*
X85317202Y-46909999D01*
X85327703Y-46911071D01*
X85419991Y-46920500D01*
X86220008Y-46920499D01*
X86322797Y-46909999D01*
X86489334Y-46854814D01*
X86638656Y-46762712D01*
X86762712Y-46638656D01*
X86854814Y-46489334D01*
X86909999Y-46322797D01*
X86920500Y-46220009D01*
X86920500Y-46004500D01*
X86937113Y-45942500D01*
X86982500Y-45897113D01*
X87044500Y-45880500D01*
X87894222Y-45880500D01*
X87949494Y-45893500D01*
X87993176Y-45929773D01*
X88027573Y-45975323D01*
X88151944Y-46088701D01*
X88187672Y-46146404D01*
X88187672Y-46214272D01*
X88151944Y-46271975D01*
X88027944Y-46385014D01*
X87896712Y-46558794D01*
X87799651Y-46753721D01*
X87749494Y-46929999D01*
X87749495Y-46930000D01*
X90050505Y-46930000D01*
X90050505Y-46929999D01*
X90000348Y-46753721D01*
X89903287Y-46558794D01*
X89772057Y-46385018D01*
X89648055Y-46271976D01*
X89612327Y-46214272D01*
X89612327Y-46146404D01*
X89648052Y-46088704D01*
X89772427Y-45975322D01*
X89903712Y-45801472D01*
X90000817Y-45606459D01*
X90001624Y-45603624D01*
X90060435Y-45396925D01*
X90072455Y-45267204D01*
X90080536Y-45180000D01*
X90060435Y-44963077D01*
X90060435Y-44963074D01*
X90000818Y-44753542D01*
X89903712Y-44558528D01*
X89772426Y-44384676D01*
X89648427Y-44271637D01*
X89612699Y-44213934D01*
X89612699Y-44146066D01*
X89648427Y-44088363D01*
X89772426Y-43975323D01*
X89794800Y-43945695D01*
X89903712Y-43801472D01*
X90000817Y-43606459D01*
X90006870Y-43585186D01*
X90060435Y-43396925D01*
X90067105Y-43324942D01*
X90080536Y-43180000D01*
X90065149Y-43013948D01*
X90060435Y-42963074D01*
X90000818Y-42753542D01*
X89903712Y-42558528D01*
X89822252Y-42450657D01*
X89798125Y-42390996D01*
X89807150Y-42327277D01*
X89846894Y-42276664D01*
X89932546Y-42212546D01*
X90018796Y-42097331D01*
X90069091Y-41962483D01*
X90075500Y-41902873D01*
X90075499Y-40457128D01*
X90069091Y-40397517D01*
X90018796Y-40262669D01*
X89932546Y-40147454D01*
X89817331Y-40061204D01*
X89682483Y-40010909D01*
X89622873Y-40004500D01*
X89622869Y-40004500D01*
X88177130Y-40004500D01*
X88117515Y-40010909D01*
X87982669Y-40061204D01*
X87867454Y-40147454D01*
X87781204Y-40262668D01*
X87730909Y-40397515D01*
X87730909Y-40397517D01*
X87725236Y-40450288D01*
X87724500Y-40457130D01*
X87724500Y-41902869D01*
X87730909Y-41962484D01*
X87738311Y-41982329D01*
X87781204Y-42097331D01*
X87860210Y-42202869D01*
X87867454Y-42212546D01*
X87925812Y-42256233D01*
X87964296Y-42303989D01*
X87975185Y-42364347D01*
X87955816Y-42422540D01*
X87910928Y-42464332D01*
X87851501Y-42479500D01*
X83844909Y-42479500D01*
X83837422Y-42479274D01*
X83777391Y-42475642D01*
X83718242Y-42486481D01*
X83710843Y-42487608D01*
X83651122Y-42494860D01*
X83641641Y-42498456D01*
X83620036Y-42504479D01*
X83610069Y-42506305D01*
X83555234Y-42530984D01*
X83548318Y-42533848D01*
X83492069Y-42555181D01*
X83483725Y-42560941D01*
X83464183Y-42571963D01*
X83454946Y-42576120D01*
X83407604Y-42613210D01*
X83401573Y-42617647D01*
X83352071Y-42651815D01*
X83312177Y-42696846D01*
X83307044Y-42702298D01*
X81052180Y-44957162D01*
X81002817Y-44987412D01*
X80945101Y-44991954D01*
X80891614Y-44969799D01*
X80854014Y-44925776D01*
X80840499Y-44869481D01*
X80840499Y-44219991D01*
X80829999Y-44117203D01*
X80821626Y-44091935D01*
X80774814Y-43950666D01*
X80682791Y-43801472D01*
X80682711Y-43801342D01*
X80558657Y-43677288D01*
X80409334Y-43585186D01*
X80242797Y-43530000D01*
X80140009Y-43519500D01*
X79581519Y-43519500D01*
X79534066Y-43510061D01*
X79493838Y-43483181D01*
X78206819Y-42196162D01*
X78179939Y-42155934D01*
X78170500Y-42108481D01*
X78170500Y-40664910D01*
X78170726Y-40657423D01*
X78170793Y-40656303D01*
X78174357Y-40597394D01*
X78163509Y-40538201D01*
X78162392Y-40530856D01*
X78155140Y-40471128D01*
X78155139Y-40471125D01*
X78151546Y-40461650D01*
X78145519Y-40440029D01*
X78143694Y-40430068D01*
X78119012Y-40375228D01*
X78116151Y-40368322D01*
X78094818Y-40312070D01*
X78089058Y-40303726D01*
X78078030Y-40284172D01*
X78073877Y-40274943D01*
X78050370Y-40244939D01*
X78036788Y-40227602D01*
X78032349Y-40221569D01*
X77998184Y-40172072D01*
X77998183Y-40172071D01*
X77953153Y-40132178D01*
X77947715Y-40127058D01*
X76917338Y-39096681D01*
X76887088Y-39047318D01*
X76882546Y-38989602D01*
X76904701Y-38936115D01*
X76948724Y-38898515D01*
X77005019Y-38885000D01*
X88935000Y-38885000D01*
X88935000Y-32342061D01*
X90715359Y-32342061D01*
X90735635Y-32586749D01*
X90735635Y-32586752D01*
X90735636Y-32586754D01*
X90795910Y-32824772D01*
X90894539Y-33049623D01*
X91028832Y-33255174D01*
X91195126Y-33435818D01*
X91195129Y-33435821D01*
X91388881Y-33586624D01*
X91388885Y-33586626D01*
X91604824Y-33703486D01*
X91662880Y-33723417D01*
X91837048Y-33783210D01*
X92079234Y-33823623D01*
X92324766Y-33823623D01*
X92566951Y-33783210D01*
X92683062Y-33743348D01*
X92799176Y-33703486D01*
X93015115Y-33586626D01*
X93021653Y-33581538D01*
X93208870Y-33435821D01*
X93208869Y-33435821D01*
X93208874Y-33435818D01*
X93375168Y-33255174D01*
X93509461Y-33049623D01*
X93608090Y-32824772D01*
X93668364Y-32586754D01*
X93688640Y-32342061D01*
X93668364Y-32097368D01*
X93608090Y-31859350D01*
X93509461Y-31634499D01*
X93375168Y-31428948D01*
X93208874Y-31248304D01*
X93208872Y-31248303D01*
X93208870Y-31248300D01*
X93015118Y-31097497D01*
X92799174Y-30980635D01*
X92566951Y-30900911D01*
X92324766Y-30860499D01*
X92079234Y-30860499D01*
X91837048Y-30900911D01*
X91604825Y-30980635D01*
X91388881Y-31097497D01*
X91195129Y-31248300D01*
X91028831Y-31428949D01*
X90894539Y-31634498D01*
X90894539Y-31634499D01*
X90795910Y-31859350D01*
X90767797Y-31970368D01*
X90735635Y-32097372D01*
X90715359Y-32342061D01*
X88935000Y-32342061D01*
X88935000Y-30604500D01*
X88951613Y-30542500D01*
X88997000Y-30497113D01*
X89059000Y-30480500D01*
X93855500Y-30480500D01*
X93917500Y-30497113D01*
X93962887Y-30542500D01*
X93979500Y-30604500D01*
X93979500Y-89655918D01*
X93977915Y-89662000D01*
X93979500Y-89668082D01*
X93979500Y-91315500D01*
X93962887Y-91377500D01*
X93917500Y-91422887D01*
X93855500Y-91439500D01*
X28572500Y-91439500D01*
X28510500Y-91422887D01*
X28465113Y-91377500D01*
X28448500Y-91315500D01*
X28448500Y-89619061D01*
X28782298Y-89619061D01*
X28802574Y-89863749D01*
X28802574Y-89863752D01*
X28802575Y-89863754D01*
X28862849Y-90101772D01*
X28961478Y-90326623D01*
X29095771Y-90532174D01*
X29262065Y-90712818D01*
X29262068Y-90712821D01*
X29455820Y-90863624D01*
X29455824Y-90863626D01*
X29671763Y-90980486D01*
X29729819Y-91000417D01*
X29903987Y-91060210D01*
X30146173Y-91100623D01*
X30391705Y-91100623D01*
X30633890Y-91060210D01*
X30757252Y-91017859D01*
X30866115Y-90980486D01*
X31082054Y-90863626D01*
X31088592Y-90858538D01*
X31275809Y-90712821D01*
X31275808Y-90712821D01*
X31275813Y-90712818D01*
X31442107Y-90532174D01*
X31576400Y-90326623D01*
X31675029Y-90101772D01*
X31735303Y-89863754D01*
X31752021Y-89662000D01*
X90758298Y-89662000D01*
X90778574Y-89906688D01*
X90778574Y-89906691D01*
X90778575Y-89906693D01*
X90838849Y-90144711D01*
X90937478Y-90369562D01*
X91071771Y-90575113D01*
X91238065Y-90755757D01*
X91238068Y-90755760D01*
X91431820Y-90906563D01*
X91431824Y-90906565D01*
X91647763Y-91023425D01*
X91705819Y-91043356D01*
X91879987Y-91103149D01*
X92122173Y-91143562D01*
X92367705Y-91143562D01*
X92609890Y-91103149D01*
X92752127Y-91054318D01*
X92842115Y-91023425D01*
X93058054Y-90906565D01*
X93064592Y-90901477D01*
X93251809Y-90755760D01*
X93251808Y-90755760D01*
X93251813Y-90755757D01*
X93418107Y-90575113D01*
X93552400Y-90369562D01*
X93651029Y-90144711D01*
X93711303Y-89906693D01*
X93731579Y-89662000D01*
X93711303Y-89417307D01*
X93651029Y-89179289D01*
X93552400Y-88954438D01*
X93418107Y-88748887D01*
X93251813Y-88568243D01*
X93251811Y-88568242D01*
X93251809Y-88568239D01*
X93058057Y-88417436D01*
X92842113Y-88300574D01*
X92609890Y-88220850D01*
X92367705Y-88180438D01*
X92122173Y-88180438D01*
X91879987Y-88220850D01*
X91647764Y-88300574D01*
X91431820Y-88417436D01*
X91238068Y-88568239D01*
X91071770Y-88748888D01*
X90937478Y-88954437D01*
X90937478Y-88954438D01*
X90838849Y-89179289D01*
X90789449Y-89374368D01*
X90778574Y-89417311D01*
X90758298Y-89662000D01*
X31752021Y-89662000D01*
X31755579Y-89619061D01*
X31735303Y-89374368D01*
X31675029Y-89136350D01*
X31576400Y-88911499D01*
X31442107Y-88705948D01*
X31275813Y-88525304D01*
X31275811Y-88525303D01*
X31275809Y-88525300D01*
X31082057Y-88374497D01*
X30866113Y-88257635D01*
X30633890Y-88177911D01*
X30391705Y-88137499D01*
X30146173Y-88137499D01*
X29903987Y-88177911D01*
X29671764Y-88257635D01*
X29455820Y-88374497D01*
X29262068Y-88525300D01*
X29095770Y-88705949D01*
X28961478Y-88911498D01*
X28884410Y-89087194D01*
X28862849Y-89136350D01*
X28851476Y-89181262D01*
X28802574Y-89374372D01*
X28782298Y-89619061D01*
X28448500Y-89619061D01*
X28448500Y-82902335D01*
X37375500Y-82902335D01*
X37416429Y-83147614D01*
X37497172Y-83382810D01*
X37615526Y-83601509D01*
X37615529Y-83601514D01*
X37751036Y-83775612D01*
X37768262Y-83797744D01*
X37951215Y-83966164D01*
X38159393Y-84102173D01*
X38387119Y-84202063D01*
X38628179Y-84263108D01*
X38702480Y-84269264D01*
X38813927Y-84278500D01*
X38813933Y-84278500D01*
X41138067Y-84278500D01*
X41138073Y-84278500D01*
X41239387Y-84270104D01*
X41323821Y-84263108D01*
X41564881Y-84202063D01*
X41792607Y-84102173D01*
X42000785Y-83966164D01*
X42183738Y-83797744D01*
X42336474Y-83601509D01*
X42454828Y-83382810D01*
X42535571Y-83147614D01*
X42576500Y-82902335D01*
X42576500Y-82653665D01*
X42535571Y-82408386D01*
X42454828Y-82173190D01*
X42336474Y-81954491D01*
X42336471Y-81954487D01*
X42336470Y-81954485D01*
X42183740Y-81758259D01*
X42183738Y-81758256D01*
X42000785Y-81589836D01*
X41792607Y-81453827D01*
X41792604Y-81453825D01*
X41667523Y-81398960D01*
X41564881Y-81353937D01*
X41323821Y-81292892D01*
X41323819Y-81292891D01*
X41323816Y-81292891D01*
X41138073Y-81277500D01*
X41138067Y-81277500D01*
X38813933Y-81277500D01*
X38813927Y-81277500D01*
X38628183Y-81292891D01*
X38628179Y-81292891D01*
X38628179Y-81292892D01*
X38387119Y-81353937D01*
X38387116Y-81353938D01*
X38387117Y-81353938D01*
X38159395Y-81453825D01*
X38084729Y-81502607D01*
X37951215Y-81589836D01*
X37797109Y-81731701D01*
X37768259Y-81758259D01*
X37615529Y-81954485D01*
X37497170Y-82173194D01*
X37416429Y-82408384D01*
X37416429Y-82408386D01*
X37375500Y-82653665D01*
X37375500Y-82902335D01*
X28448500Y-82902335D01*
X28448500Y-70325999D01*
X30101811Y-70325999D01*
X30120539Y-70563967D01*
X30176262Y-70796073D01*
X30245670Y-70963636D01*
X30267611Y-71016605D01*
X30338119Y-71131664D01*
X30392334Y-71220135D01*
X30453873Y-71292188D01*
X30547357Y-71401643D01*
X30728868Y-71556668D01*
X30932395Y-71681389D01*
X30966257Y-71695415D01*
X31152926Y-71772737D01*
X31226254Y-71790341D01*
X31385034Y-71828461D01*
X31623000Y-71847189D01*
X31860966Y-71828461D01*
X32093073Y-71772737D01*
X32313605Y-71681389D01*
X32517132Y-71556668D01*
X32698643Y-71401643D01*
X32798711Y-71284477D01*
X32841086Y-71252401D01*
X32893000Y-71241011D01*
X32944914Y-71252401D01*
X32987288Y-71284477D01*
X33087357Y-71401643D01*
X33268868Y-71556668D01*
X33299128Y-71575211D01*
X33303290Y-71577762D01*
X33346690Y-71622900D01*
X33362500Y-71683489D01*
X33362500Y-75655196D01*
X33371017Y-75692518D01*
X33373345Y-75706219D01*
X33377631Y-75744252D01*
X33390272Y-75780380D01*
X33394119Y-75793736D01*
X33402638Y-75831058D01*
X33419250Y-75865553D01*
X33424570Y-75878398D01*
X33437209Y-75914520D01*
X33447770Y-75931327D01*
X33457576Y-75946933D01*
X33464298Y-75959095D01*
X33480908Y-75993586D01*
X33504772Y-76023510D01*
X33512818Y-76034850D01*
X33533184Y-76067262D01*
X35039181Y-77573259D01*
X35066061Y-77613487D01*
X35075500Y-77660940D01*
X35075500Y-79140073D01*
X35090891Y-79325816D01*
X35090891Y-79325819D01*
X35090892Y-79325821D01*
X35151937Y-79566881D01*
X35196960Y-79669523D01*
X35251825Y-79794604D01*
X35251827Y-79794607D01*
X35387836Y-80002785D01*
X35556256Y-80185738D01*
X35556259Y-80185740D01*
X35752485Y-80338470D01*
X35752487Y-80338471D01*
X35752491Y-80338474D01*
X35971190Y-80456828D01*
X36206386Y-80537571D01*
X36451665Y-80578500D01*
X36700335Y-80578500D01*
X36945614Y-80537571D01*
X37180810Y-80456828D01*
X37399509Y-80338474D01*
X37595744Y-80185738D01*
X37764164Y-80002785D01*
X37900173Y-79794607D01*
X38000063Y-79566881D01*
X38061108Y-79325821D01*
X38072965Y-79182727D01*
X38076500Y-79140073D01*
X38076500Y-76815927D01*
X38063760Y-76662183D01*
X38061108Y-76630179D01*
X38000063Y-76389119D01*
X37900173Y-76161393D01*
X37764164Y-75953215D01*
X37595744Y-75770262D01*
X37513462Y-75706219D01*
X37399514Y-75617529D01*
X37399510Y-75617526D01*
X37399509Y-75617526D01*
X37180810Y-75499172D01*
X37180806Y-75499170D01*
X37180805Y-75499170D01*
X36945615Y-75418429D01*
X36700335Y-75377500D01*
X36451665Y-75377500D01*
X36206384Y-75418429D01*
X35971194Y-75499170D01*
X35971190Y-75499171D01*
X35971190Y-75499172D01*
X35902901Y-75536128D01*
X35752489Y-75617527D01*
X35611225Y-75727477D01*
X35557156Y-75751639D01*
X35498047Y-75747969D01*
X35447382Y-75717304D01*
X34999819Y-75269741D01*
X34972939Y-75229513D01*
X34963500Y-75182060D01*
X34963500Y-71683489D01*
X34979310Y-71622900D01*
X35022710Y-71577762D01*
X35024924Y-71576404D01*
X35057132Y-71556668D01*
X35238643Y-71401643D01*
X35393668Y-71220132D01*
X35518389Y-71016605D01*
X35609737Y-70796073D01*
X35665461Y-70563966D01*
X35684189Y-70326000D01*
X35665461Y-70088034D01*
X35609737Y-69855927D01*
X35518389Y-69635395D01*
X35393668Y-69431868D01*
X35238643Y-69250357D01*
X35083818Y-69118124D01*
X35057135Y-69095334D01*
X35048796Y-69090224D01*
X34853605Y-68970611D01*
X34853602Y-68970610D01*
X34853601Y-68970609D01*
X34633073Y-68879262D01*
X34400967Y-68823539D01*
X34163000Y-68804811D01*
X33925032Y-68823539D01*
X33692926Y-68879262D01*
X33472398Y-68970609D01*
X33268864Y-69095334D01*
X33087357Y-69250357D01*
X32987290Y-69367520D01*
X32944914Y-69399598D01*
X32893000Y-69410988D01*
X32841086Y-69399598D01*
X32798710Y-69367520D01*
X32742971Y-69302259D01*
X32698643Y-69250357D01*
X32543818Y-69118124D01*
X32517135Y-69095334D01*
X32508796Y-69090224D01*
X32313605Y-68970611D01*
X32313602Y-68970610D01*
X32313601Y-68970609D01*
X32093073Y-68879262D01*
X31860967Y-68823539D01*
X31623000Y-68804811D01*
X31385032Y-68823539D01*
X31152926Y-68879262D01*
X30932398Y-68970609D01*
X30728864Y-69095334D01*
X30547357Y-69250357D01*
X30392334Y-69431864D01*
X30267609Y-69635398D01*
X30176262Y-69855926D01*
X30120539Y-70088032D01*
X30101811Y-70325999D01*
X28448500Y-70325999D01*
X28448500Y-53020769D01*
X30739782Y-53020769D01*
X30932620Y-53138941D01*
X31153081Y-53230260D01*
X31385110Y-53285965D01*
X31623000Y-53304687D01*
X31860889Y-53285965D01*
X32092918Y-53230260D01*
X32313379Y-53138942D01*
X32506215Y-53020770D01*
X32506216Y-53020769D01*
X33279782Y-53020769D01*
X33472620Y-53138941D01*
X33693081Y-53230260D01*
X33925110Y-53285965D01*
X34163000Y-53304687D01*
X34400889Y-53285965D01*
X34632918Y-53230260D01*
X34853379Y-53138942D01*
X35046215Y-53020770D01*
X35046216Y-53020769D01*
X34163001Y-52137553D01*
X34163000Y-52137553D01*
X33279782Y-53020769D01*
X32506216Y-53020769D01*
X31623001Y-52137553D01*
X31623000Y-52137553D01*
X30739782Y-53020769D01*
X28448500Y-53020769D01*
X28448500Y-51783999D01*
X30102312Y-51783999D01*
X30121034Y-52021889D01*
X30176739Y-52253918D01*
X30268058Y-52474379D01*
X30386229Y-52667216D01*
X31269446Y-51784001D01*
X31976553Y-51784001D01*
X32859769Y-52667215D01*
X32878426Y-52665007D01*
X32907576Y-52665008D01*
X32926229Y-52667216D01*
X33809446Y-51784001D01*
X34516553Y-51784001D01*
X35399769Y-52667216D01*
X35399770Y-52667215D01*
X35517942Y-52474379D01*
X35609260Y-52253918D01*
X35664965Y-52021889D01*
X35683687Y-51783999D01*
X35664965Y-51546110D01*
X35609260Y-51314081D01*
X35517941Y-51093620D01*
X35399769Y-50900782D01*
X34516553Y-51784000D01*
X34516553Y-51784001D01*
X33809446Y-51784001D01*
X33809446Y-51784000D01*
X32926229Y-50900783D01*
X32907571Y-50902991D01*
X32878423Y-50902990D01*
X32859769Y-50900782D01*
X31976553Y-51784000D01*
X31976553Y-51784001D01*
X31269446Y-51784001D01*
X31269446Y-51784000D01*
X30386229Y-50900782D01*
X30268055Y-51093622D01*
X30176740Y-51314078D01*
X30121034Y-51546110D01*
X30102312Y-51783999D01*
X28448500Y-51783999D01*
X28448500Y-50547229D01*
X30739782Y-50547229D01*
X31623000Y-51430446D01*
X31623001Y-51430446D01*
X32506216Y-50547229D01*
X33279782Y-50547229D01*
X34163000Y-51430446D01*
X34163001Y-51430446D01*
X35046216Y-50547229D01*
X34853379Y-50429058D01*
X34632918Y-50337739D01*
X34400889Y-50282034D01*
X34163000Y-50263312D01*
X33925110Y-50282034D01*
X33693078Y-50337740D01*
X33472622Y-50429055D01*
X33279782Y-50547229D01*
X32506216Y-50547229D01*
X32313379Y-50429058D01*
X32092918Y-50337739D01*
X31860889Y-50282034D01*
X31623000Y-50263312D01*
X31385110Y-50282034D01*
X31153078Y-50337740D01*
X30932622Y-50429055D01*
X30739782Y-50547229D01*
X28448500Y-50547229D01*
X28448500Y-46961000D01*
X34550000Y-46961000D01*
X34550000Y-47758824D01*
X34556402Y-47818375D01*
X34606647Y-47953089D01*
X34692811Y-48068188D01*
X34807910Y-48154352D01*
X34942624Y-48204597D01*
X35002176Y-48211000D01*
X35550000Y-48211000D01*
X35550000Y-46961000D01*
X34550000Y-46961000D01*
X28448500Y-46961000D01*
X28448500Y-46461000D01*
X34550000Y-46461000D01*
X35550000Y-46461000D01*
X35550000Y-45211000D01*
X35002176Y-45211000D01*
X34942624Y-45217402D01*
X34807910Y-45267647D01*
X34692811Y-45353811D01*
X34606647Y-45468910D01*
X34556402Y-45603624D01*
X34550000Y-45663176D01*
X34550000Y-46461000D01*
X28448500Y-46461000D01*
X28448500Y-43705500D01*
X28747001Y-43705500D01*
X28747001Y-43842979D01*
X28757493Y-43945695D01*
X28812642Y-44112122D01*
X28904683Y-44261345D01*
X29028654Y-44385316D01*
X29177877Y-44477357D01*
X29344303Y-44532506D01*
X29447021Y-44543000D01*
X29722000Y-44543000D01*
X29722000Y-43705500D01*
X30222000Y-43705500D01*
X30222000Y-44542999D01*
X30496979Y-44542999D01*
X30599695Y-44532506D01*
X30766122Y-44477357D01*
X30915344Y-44385316D01*
X31016567Y-44284093D01*
X31072155Y-44251998D01*
X31136342Y-44251998D01*
X31191930Y-44284092D01*
X31314654Y-44406816D01*
X31463877Y-44498857D01*
X31630303Y-44554006D01*
X31733021Y-44564500D01*
X32008000Y-44564500D01*
X32008000Y-43727000D01*
X32508000Y-43727000D01*
X32508000Y-44564499D01*
X32782979Y-44564499D01*
X32885695Y-44554006D01*
X33052122Y-44498857D01*
X33201345Y-44406816D01*
X33325316Y-44282845D01*
X33417357Y-44133622D01*
X33472506Y-43967196D01*
X33483000Y-43864479D01*
X33483000Y-43727000D01*
X32508000Y-43727000D01*
X32008000Y-43727000D01*
X31065862Y-43727000D01*
X31018409Y-43717561D01*
X31000359Y-43705500D01*
X30222000Y-43705500D01*
X29722000Y-43705500D01*
X28747001Y-43705500D01*
X28448500Y-43705500D01*
X28448500Y-32215061D01*
X28739359Y-32215061D01*
X28759635Y-32459749D01*
X28759635Y-32459752D01*
X28759636Y-32459754D01*
X28819910Y-32697772D01*
X28918539Y-32922623D01*
X29052832Y-33128174D01*
X29219126Y-33308818D01*
X29219129Y-33308821D01*
X29412881Y-33459624D01*
X29412885Y-33459626D01*
X29628824Y-33576486D01*
X29658355Y-33586624D01*
X29861048Y-33656210D01*
X30103234Y-33696623D01*
X30348766Y-33696623D01*
X30590951Y-33656210D01*
X30707062Y-33616348D01*
X30823176Y-33576486D01*
X31039115Y-33459626D01*
X31045653Y-33454538D01*
X31232870Y-33308821D01*
X31232869Y-33308821D01*
X31232874Y-33308818D01*
X31399168Y-33128174D01*
X31533461Y-32922623D01*
X31632090Y-32697772D01*
X31692364Y-32459754D01*
X31712640Y-32215061D01*
X31692364Y-31970368D01*
X31632090Y-31732350D01*
X31533461Y-31507499D01*
X31399168Y-31301948D01*
X31232874Y-31121304D01*
X31232872Y-31121303D01*
X31232870Y-31121300D01*
X31039118Y-30970497D01*
X30823174Y-30853635D01*
X30590951Y-30773911D01*
X30348766Y-30733499D01*
X30103234Y-30733499D01*
X29861048Y-30773911D01*
X29628825Y-30853635D01*
X29412881Y-30970497D01*
X29219129Y-31121300D01*
X29052831Y-31301949D01*
X28918539Y-31507498D01*
X28861563Y-31637391D01*
X28819910Y-31732350D01*
X28787250Y-31861323D01*
X28759635Y-31970372D01*
X28739359Y-32215061D01*
X28448500Y-32215061D01*
X28448500Y-30604500D01*
X28465113Y-30542500D01*
X28510500Y-30497113D01*
X28572500Y-30480500D01*
X40811000Y-30480500D01*
X40873000Y-30497113D01*
G37*
%TD.AperFunction*%
%TA.AperFunction,Conductor*%
G36*
X80040840Y-62043731D02*
G01*
X80094689Y-62075345D01*
X80145768Y-62126424D01*
X80145769Y-62126426D01*
X80162181Y-62142838D01*
X80189061Y-62183066D01*
X80198500Y-62230519D01*
X80198500Y-67857481D01*
X80189061Y-67904934D01*
X80162181Y-67945162D01*
X79238269Y-68869072D01*
X79178541Y-68902199D01*
X79119907Y-68899168D01*
X79119749Y-68900120D01*
X79111420Y-68898730D01*
X79110332Y-68898674D01*
X79109621Y-68898430D01*
X78864335Y-68857500D01*
X78615665Y-68857500D01*
X78370384Y-68898429D01*
X78135194Y-68979170D01*
X77916485Y-69097529D01*
X77720259Y-69250259D01*
X77720256Y-69250261D01*
X77720256Y-69250262D01*
X77551836Y-69433215D01*
X77517863Y-69485215D01*
X77415825Y-69641395D01*
X77325780Y-69846678D01*
X77315937Y-69869119D01*
X77302769Y-69921119D01*
X77254891Y-70110183D01*
X77234356Y-70358000D01*
X77254891Y-70605816D01*
X77254891Y-70605819D01*
X77254892Y-70605821D01*
X77315937Y-70846881D01*
X77338747Y-70898882D01*
X77415825Y-71074604D01*
X77415827Y-71074607D01*
X77551836Y-71282785D01*
X77720256Y-71465738D01*
X77720259Y-71465740D01*
X77916485Y-71618470D01*
X77916487Y-71618471D01*
X77916491Y-71618474D01*
X77974519Y-71649877D01*
X78022023Y-71695457D01*
X78039500Y-71758931D01*
X78039500Y-75457069D01*
X78022023Y-75520543D01*
X77974519Y-75566122D01*
X77962656Y-75572543D01*
X77916485Y-75597529D01*
X77720259Y-75750259D01*
X77720256Y-75750261D01*
X77720256Y-75750262D01*
X77551836Y-75933215D01*
X77517863Y-75985215D01*
X77415825Y-76141395D01*
X77351632Y-76287742D01*
X77315937Y-76369119D01*
X77254892Y-76610179D01*
X77254891Y-76610183D01*
X77234356Y-76858000D01*
X77254891Y-77105816D01*
X77315937Y-77346882D01*
X77332083Y-77383690D01*
X77342103Y-77443740D01*
X77322336Y-77501322D01*
X77277544Y-77542555D01*
X77218527Y-77557500D01*
X76122940Y-77557500D01*
X76075487Y-77548061D01*
X76035259Y-77521181D01*
X75753669Y-77239591D01*
X75721798Y-77184825D01*
X75721146Y-77121465D01*
X75725108Y-77105821D01*
X75745643Y-76858000D01*
X75725108Y-76610179D01*
X75664063Y-76369119D01*
X75564173Y-76141393D01*
X75428164Y-75933215D01*
X75259744Y-75750262D01*
X75176776Y-75685685D01*
X75063512Y-75597528D01*
X75063510Y-75597527D01*
X75063509Y-75597526D01*
X75055481Y-75593181D01*
X75007977Y-75547602D01*
X74990500Y-75484128D01*
X74990500Y-71731872D01*
X75007977Y-71668398D01*
X75055481Y-71622818D01*
X75063509Y-71618474D01*
X75259744Y-71465738D01*
X75428164Y-71282785D01*
X75564173Y-71074607D01*
X75664063Y-70846881D01*
X75725108Y-70605821D01*
X75745643Y-70358000D01*
X75725108Y-70110179D01*
X75664063Y-69869119D01*
X75564173Y-69641393D01*
X75428164Y-69433215D01*
X75259744Y-69250262D01*
X75173326Y-69183000D01*
X75063514Y-69097529D01*
X75063510Y-69097526D01*
X75063509Y-69097526D01*
X74844810Y-68979172D01*
X74844806Y-68979170D01*
X74844805Y-68979170D01*
X74609615Y-68898429D01*
X74364335Y-68857500D01*
X74115665Y-68857500D01*
X73870384Y-68898429D01*
X73635194Y-68979170D01*
X73416485Y-69097529D01*
X73220259Y-69250259D01*
X73220256Y-69250261D01*
X73220256Y-69250262D01*
X73051836Y-69433215D01*
X73017863Y-69485215D01*
X72915825Y-69641395D01*
X72825780Y-69846678D01*
X72815937Y-69869119D01*
X72802769Y-69921119D01*
X72754891Y-70110183D01*
X72734356Y-70358000D01*
X72754891Y-70605816D01*
X72754891Y-70605819D01*
X72754892Y-70605821D01*
X72815937Y-70846881D01*
X72838747Y-70898882D01*
X72915825Y-71074604D01*
X72915827Y-71074607D01*
X73051836Y-71282785D01*
X73220256Y-71465738D01*
X73416491Y-71618474D01*
X73424518Y-71622818D01*
X73472023Y-71668398D01*
X73489500Y-71731872D01*
X73489500Y-75484128D01*
X73472023Y-75547602D01*
X73424518Y-75593181D01*
X73418448Y-75596466D01*
X73416487Y-75597528D01*
X73220259Y-75750259D01*
X73220256Y-75750261D01*
X73220256Y-75750262D01*
X73051836Y-75933215D01*
X73017863Y-75985215D01*
X72915825Y-76141395D01*
X72851632Y-76287742D01*
X72815937Y-76369119D01*
X72754892Y-76610179D01*
X72754891Y-76610183D01*
X72734356Y-76858000D01*
X72754891Y-77105816D01*
X72758855Y-77121470D01*
X72758200Y-77184828D01*
X72726330Y-77239591D01*
X72466368Y-77499553D01*
X72411110Y-77531558D01*
X72347254Y-77531822D01*
X72291733Y-77500275D01*
X72259273Y-77445284D01*
X72258481Y-77381434D01*
X72315108Y-77157821D01*
X72335643Y-76910000D01*
X72315108Y-76662179D01*
X72254063Y-76421119D01*
X72154173Y-76193393D01*
X72018164Y-75985215D01*
X71849744Y-75802262D01*
X71821630Y-75780380D01*
X71653514Y-75649529D01*
X71653510Y-75649526D01*
X71653509Y-75649526D01*
X71595480Y-75618122D01*
X71547977Y-75572543D01*
X71530500Y-75509069D01*
X71530500Y-71810931D01*
X71547977Y-71747457D01*
X71595480Y-71701877D01*
X71653509Y-71670474D01*
X71849744Y-71517738D01*
X72018164Y-71334785D01*
X72154173Y-71126607D01*
X72254063Y-70898881D01*
X72315108Y-70657821D01*
X72335643Y-70410000D01*
X72315108Y-70162179D01*
X72254063Y-69921119D01*
X72154173Y-69693393D01*
X72018164Y-69485215D01*
X71849744Y-69302262D01*
X71783057Y-69250357D01*
X71653514Y-69149529D01*
X71653510Y-69149526D01*
X71653509Y-69149526D01*
X71595480Y-69118122D01*
X71547977Y-69072543D01*
X71530500Y-69009069D01*
X71530500Y-64131519D01*
X71539939Y-64084066D01*
X71566819Y-64043838D01*
X71677262Y-63933395D01*
X72256084Y-63354571D01*
X72316481Y-63321294D01*
X72385322Y-63325429D01*
X72441306Y-63365701D01*
X72467118Y-63429653D01*
X72470493Y-63462695D01*
X72525642Y-63629122D01*
X72617683Y-63778345D01*
X72741654Y-63902316D01*
X72890877Y-63994357D01*
X73057303Y-64049506D01*
X73160021Y-64060000D01*
X73410000Y-64060000D01*
X73410000Y-62834000D01*
X73426613Y-62772000D01*
X73472000Y-62726613D01*
X73534000Y-62710000D01*
X73786000Y-62710000D01*
X73848000Y-62726613D01*
X73893387Y-62772000D01*
X73910000Y-62834000D01*
X73910000Y-64059999D01*
X74159979Y-64059999D01*
X74262695Y-64049506D01*
X74429122Y-63994357D01*
X74578345Y-63902316D01*
X74702316Y-63778345D01*
X74769961Y-63668674D01*
X74816014Y-63624970D01*
X74877663Y-63609789D01*
X74938744Y-63627111D01*
X74983246Y-63672395D01*
X74999500Y-63733769D01*
X74999500Y-63875008D01*
X75010000Y-63977796D01*
X75065186Y-64144334D01*
X75157288Y-64293657D01*
X75281342Y-64417711D01*
X75281344Y-64417712D01*
X75430666Y-64509814D01*
X75534946Y-64544369D01*
X75597202Y-64564999D01*
X75607702Y-64566071D01*
X75699991Y-64575500D01*
X76700008Y-64575499D01*
X76802797Y-64564999D01*
X76969334Y-64509814D01*
X77118656Y-64417712D01*
X77242712Y-64293656D01*
X77263838Y-64259404D01*
X77308946Y-64216223D01*
X77369378Y-64200500D01*
X77555202Y-64200500D01*
X77615634Y-64216223D01*
X77660741Y-64259404D01*
X77697288Y-64318657D01*
X77821342Y-64442711D01*
X77824024Y-64444365D01*
X77970666Y-64534814D01*
X78061758Y-64564999D01*
X78137202Y-64589999D01*
X78147702Y-64591071D01*
X78239991Y-64600500D01*
X79240008Y-64600499D01*
X79342797Y-64589999D01*
X79509334Y-64534814D01*
X79658656Y-64442712D01*
X79782712Y-64318656D01*
X79874814Y-64169334D01*
X79929999Y-64002797D01*
X79940500Y-63900009D01*
X79940499Y-63099992D01*
X79938356Y-63079018D01*
X79929999Y-62997203D01*
X79919214Y-62964656D01*
X79874814Y-62830666D01*
X79782712Y-62681344D01*
X79688693Y-62587325D01*
X79656601Y-62531740D01*
X79656601Y-62467552D01*
X79688696Y-62411964D01*
X79782316Y-62318344D01*
X79874358Y-62169121D01*
X79889302Y-62124023D01*
X79923235Y-62071604D01*
X79978412Y-62042368D01*
X80040840Y-62043731D01*
G37*
%TD.AperFunction*%
%TA.AperFunction,Conductor*%
G36*
X81190385Y-69046201D02*
G01*
X81227985Y-69090224D01*
X81241500Y-69146519D01*
X81241500Y-75294381D01*
X81232061Y-75341834D01*
X81205181Y-75382062D01*
X80308879Y-76278362D01*
X80257806Y-76309154D01*
X80198265Y-76312542D01*
X80144028Y-76287742D01*
X80107642Y-76240491D01*
X80064174Y-76141395D01*
X80064097Y-76141277D01*
X79928164Y-75933215D01*
X79759744Y-75750262D01*
X79676776Y-75685685D01*
X79563514Y-75597529D01*
X79563510Y-75597526D01*
X79563509Y-75597526D01*
X79505480Y-75566122D01*
X79457977Y-75520543D01*
X79440500Y-75457069D01*
X79440500Y-71758931D01*
X79457977Y-71695457D01*
X79505480Y-71649877D01*
X79563509Y-71618474D01*
X79759744Y-71465738D01*
X79928164Y-71282785D01*
X80064173Y-71074607D01*
X80164063Y-70846881D01*
X80225108Y-70605821D01*
X80245643Y-70358000D01*
X80225108Y-70110179D01*
X80192567Y-69981683D01*
X80193223Y-69918325D01*
X80225091Y-69863564D01*
X81029818Y-69058838D01*
X81079182Y-69028588D01*
X81136898Y-69024046D01*
X81190385Y-69046201D01*
G37*
%TD.AperFunction*%
%TA.AperFunction,Conductor*%
G36*
X49352003Y-58389081D02*
G01*
X49936681Y-58973759D01*
X49963561Y-59013987D01*
X49973000Y-59061440D01*
X49973000Y-59331692D01*
X49975902Y-59368572D01*
X50021755Y-59526397D01*
X50099099Y-59657179D01*
X50105419Y-59667865D01*
X50221635Y-59784081D01*
X50294696Y-59827289D01*
X50363102Y-59867744D01*
X50520927Y-59913597D01*
X50520931Y-59913598D01*
X50557806Y-59916500D01*
X51120805Y-59916500D01*
X51864192Y-59916500D01*
X51864194Y-59916500D01*
X51901069Y-59913598D01*
X52058898Y-59867744D01*
X52200365Y-59784081D01*
X52316581Y-59667865D01*
X52400244Y-59526398D01*
X52446098Y-59368569D01*
X52449000Y-59331694D01*
X52449000Y-59090500D01*
X52465613Y-59028500D01*
X52511000Y-58983113D01*
X52573000Y-58966500D01*
X52950548Y-58966500D01*
X52998001Y-58975939D01*
X53038228Y-59002818D01*
X53515453Y-59480044D01*
X53982196Y-59946787D01*
X53995096Y-59962888D01*
X54046223Y-60010900D01*
X54049019Y-60013610D01*
X54068529Y-60033120D01*
X54071711Y-60035588D01*
X54080571Y-60043155D01*
X54112418Y-60073062D01*
X54129970Y-60082711D01*
X54146238Y-60093397D01*
X54150847Y-60096972D01*
X54162064Y-60105673D01*
X54202146Y-60123017D01*
X54212633Y-60128155D01*
X54250907Y-60149197D01*
X54259410Y-60151379D01*
X54270308Y-60154178D01*
X54288713Y-60160478D01*
X54307104Y-60168437D01*
X54350250Y-60175270D01*
X54361668Y-60177635D01*
X54403981Y-60188500D01*
X54424016Y-60188500D01*
X54443415Y-60190027D01*
X54463196Y-60193160D01*
X54506674Y-60189050D01*
X54518344Y-60188500D01*
X55844481Y-60188500D01*
X55891934Y-60197939D01*
X55932162Y-60224819D01*
X56120677Y-60413334D01*
X56151462Y-60464385D01*
X56154866Y-60523902D01*
X56130101Y-60578130D01*
X56082892Y-60614533D01*
X56024150Y-60624699D01*
X55880000Y-60614389D01*
X55594570Y-60634804D01*
X55314958Y-60695629D01*
X55046836Y-60795634D01*
X54795686Y-60932772D01*
X54566602Y-61104263D01*
X54364263Y-61306602D01*
X54192772Y-61535686D01*
X54055634Y-61786836D01*
X53955629Y-62054958D01*
X53894804Y-62334570D01*
X53874389Y-62619999D01*
X53894804Y-62905429D01*
X53955629Y-63185041D01*
X53960376Y-63197769D01*
X54026860Y-63376019D01*
X54027933Y-63378894D01*
X54032917Y-63448586D01*
X53999432Y-63509909D01*
X47479710Y-70029633D01*
X47479706Y-70029637D01*
X46410570Y-71098771D01*
X46351836Y-71131664D01*
X46284570Y-71129021D01*
X46228598Y-71091621D01*
X46200415Y-71030487D01*
X46208327Y-70963641D01*
X46277737Y-70796073D01*
X46333461Y-70563966D01*
X46352189Y-70326000D01*
X46333461Y-70088034D01*
X46277737Y-69855927D01*
X46186389Y-69635395D01*
X46061668Y-69431868D01*
X45906643Y-69250357D01*
X45725132Y-69095332D01*
X45690710Y-69074238D01*
X45647310Y-69029100D01*
X45631500Y-68968511D01*
X45631500Y-65972720D01*
X48780831Y-65972720D01*
X48952546Y-66089793D01*
X49188860Y-66203596D01*
X49439496Y-66280908D01*
X49698856Y-66320000D01*
X49961144Y-66320000D01*
X50220503Y-66280908D01*
X50471139Y-66203596D01*
X50707456Y-66089792D01*
X50879167Y-65972720D01*
X49830001Y-64923553D01*
X49830000Y-64923553D01*
X48780831Y-65972720D01*
X45631500Y-65972720D01*
X45631500Y-64570000D01*
X48075092Y-64570000D01*
X48094693Y-64831552D01*
X48153059Y-65087270D01*
X48248882Y-65331424D01*
X48380027Y-65558573D01*
X48427873Y-65618571D01*
X49476445Y-64570000D01*
X50183553Y-64570000D01*
X51232124Y-65618571D01*
X51279972Y-65558572D01*
X51411117Y-65331423D01*
X51506940Y-65087270D01*
X51565306Y-64831552D01*
X51584907Y-64570000D01*
X51565306Y-64308447D01*
X51506940Y-64052729D01*
X51411117Y-63808575D01*
X51279972Y-63581426D01*
X51232125Y-63521427D01*
X50183553Y-64570000D01*
X49476445Y-64570000D01*
X49476446Y-64569999D01*
X49476446Y-64569998D01*
X48427874Y-63521428D01*
X48380026Y-63581428D01*
X48248882Y-63808576D01*
X48153059Y-64052729D01*
X48094693Y-64308447D01*
X48075092Y-64570000D01*
X45631500Y-64570000D01*
X45631500Y-63167278D01*
X48780832Y-63167278D01*
X49830000Y-64216446D01*
X49830001Y-64216446D01*
X50879167Y-63167278D01*
X50707451Y-63050205D01*
X50471139Y-62936403D01*
X50220503Y-62859091D01*
X49961144Y-62820000D01*
X49698856Y-62820000D01*
X49439496Y-62859091D01*
X49188860Y-62936403D01*
X48952545Y-63050206D01*
X48780832Y-63167278D01*
X45631500Y-63167278D01*
X45631500Y-60326940D01*
X45640939Y-60279487D01*
X45667819Y-60239259D01*
X45819664Y-60087414D01*
X46594325Y-59312752D01*
X46643682Y-59282506D01*
X46701397Y-59277964D01*
X46754885Y-59300119D01*
X46792485Y-59344142D01*
X46806000Y-59400436D01*
X46806000Y-59565978D01*
X46816493Y-59668695D01*
X46871642Y-59835122D01*
X46963683Y-59984345D01*
X47087654Y-60108316D01*
X47236877Y-60200357D01*
X47403303Y-60255506D01*
X47506021Y-60266000D01*
X47756000Y-60266000D01*
X47756000Y-59416000D01*
X48256000Y-59416000D01*
X48256000Y-60265999D01*
X48505979Y-60265999D01*
X48608695Y-60255506D01*
X48775122Y-60200357D01*
X48924345Y-60108316D01*
X49048316Y-59984345D01*
X49140357Y-59835122D01*
X49195506Y-59668696D01*
X49206000Y-59565979D01*
X49206000Y-59416000D01*
X48256000Y-59416000D01*
X47756000Y-59416000D01*
X47756000Y-59040000D01*
X47772613Y-58978000D01*
X47818000Y-58932613D01*
X47880000Y-58916000D01*
X49205999Y-58916000D01*
X49205999Y-58766021D01*
X49195506Y-58663304D01*
X49146616Y-58515766D01*
X49143184Y-58450276D01*
X49173634Y-58392195D01*
X49229450Y-58357767D01*
X49295020Y-58356622D01*
X49352003Y-58389081D01*
G37*
%TD.AperFunction*%
%TA.AperFunction,Conductor*%
G36*
X77049679Y-55813047D02*
G01*
X77143344Y-55906712D01*
X77143345Y-55906713D01*
X77218004Y-55952762D01*
X77292666Y-55998814D01*
X77404016Y-56035712D01*
X77459202Y-56053999D01*
X77468729Y-56054972D01*
X77561991Y-56064500D01*
X77843769Y-56064499D01*
X77891222Y-56073938D01*
X77931450Y-56100818D01*
X79921181Y-58090548D01*
X79948061Y-58130776D01*
X79957500Y-58178229D01*
X79957500Y-58666008D01*
X79968000Y-58768796D01*
X80023186Y-58935334D01*
X80115287Y-59084656D01*
X80124948Y-59094316D01*
X80157043Y-59149902D01*
X80157045Y-59214090D01*
X80124952Y-59269678D01*
X80115289Y-59279341D01*
X80023186Y-59428665D01*
X79968000Y-59595202D01*
X79960027Y-59673253D01*
X79934216Y-59737205D01*
X79878231Y-59777477D01*
X79809391Y-59781612D01*
X79748988Y-59748331D01*
X76276837Y-56276180D01*
X76246587Y-56226817D01*
X76242045Y-56169101D01*
X76264200Y-56115614D01*
X76308223Y-56078014D01*
X76355870Y-56066575D01*
X76355724Y-56065141D01*
X76404639Y-56060144D01*
X76464797Y-56053999D01*
X76631334Y-55998814D01*
X76780656Y-55906712D01*
X76874320Y-55813047D01*
X76929906Y-55780955D01*
X76994094Y-55780955D01*
X77049679Y-55813047D01*
G37*
%TD.AperFunction*%
%TA.AperFunction,Conductor*%
G36*
X72357122Y-40997050D02*
G01*
X72413036Y-41032977D01*
X72442366Y-41092616D01*
X72439018Y-41131649D01*
X72442574Y-41132032D01*
X72440909Y-41147516D01*
X72440909Y-41147517D01*
X72437620Y-41178113D01*
X72434500Y-41207130D01*
X72434500Y-42202869D01*
X72440909Y-42262485D01*
X72453658Y-42296666D01*
X72461476Y-42339997D01*
X72453659Y-42383328D01*
X72440909Y-42417513D01*
X72434500Y-42477130D01*
X72434500Y-43472869D01*
X72440909Y-43532485D01*
X72453658Y-43566667D01*
X72461476Y-43609999D01*
X72453659Y-43653330D01*
X72440909Y-43687515D01*
X72434500Y-43747130D01*
X72434500Y-44742869D01*
X72440909Y-44802485D01*
X72453658Y-44836667D01*
X72461476Y-44879999D01*
X72453659Y-44923330D01*
X72440909Y-44957515D01*
X72440311Y-44963077D01*
X72436469Y-44998819D01*
X72434500Y-45017130D01*
X72434500Y-46012869D01*
X72440909Y-46072485D01*
X72453658Y-46106666D01*
X72461476Y-46149997D01*
X72453659Y-46193328D01*
X72440909Y-46227513D01*
X72434500Y-46287130D01*
X72434500Y-47282869D01*
X72440909Y-47342485D01*
X72453658Y-47376667D01*
X72461476Y-47419999D01*
X72453659Y-47463330D01*
X72440909Y-47497515D01*
X72434500Y-47557130D01*
X72434500Y-48552869D01*
X72440909Y-48612485D01*
X72453658Y-48646667D01*
X72461476Y-48689999D01*
X72453659Y-48733330D01*
X72440909Y-48767515D01*
X72434500Y-48827130D01*
X72434500Y-49822869D01*
X72440909Y-49882485D01*
X72453658Y-49916667D01*
X72461476Y-49959999D01*
X72453659Y-50003330D01*
X72440909Y-50037515D01*
X72434500Y-50097130D01*
X72434500Y-51092869D01*
X72440909Y-51152485D01*
X72453658Y-51186666D01*
X72461476Y-51229997D01*
X72453659Y-51273328D01*
X72440909Y-51307513D01*
X72434500Y-51367130D01*
X72434500Y-52362869D01*
X72440909Y-52422485D01*
X72453658Y-52456667D01*
X72461476Y-52499999D01*
X72453659Y-52543330D01*
X72440909Y-52577515D01*
X72439950Y-52586434D01*
X72435581Y-52627079D01*
X72434500Y-52637130D01*
X72434500Y-53632869D01*
X72440909Y-53692485D01*
X72453658Y-53726666D01*
X72461476Y-53769997D01*
X72453659Y-53813328D01*
X72440909Y-53847513D01*
X72434500Y-53907130D01*
X72434500Y-54902869D01*
X72440909Y-54962485D01*
X72453658Y-54996667D01*
X72461476Y-55039999D01*
X72453659Y-55083330D01*
X72440909Y-55117515D01*
X72434500Y-55177131D01*
X72434500Y-55404481D01*
X72420985Y-55460776D01*
X72383385Y-55504799D01*
X72329898Y-55526954D01*
X72272182Y-55522412D01*
X72222819Y-55492162D01*
X69316819Y-52586162D01*
X69289939Y-52545934D01*
X69280500Y-52498481D01*
X69280500Y-44031519D01*
X69289939Y-43984066D01*
X69316819Y-43943838D01*
X71958870Y-41301787D01*
X71958872Y-41301783D01*
X72232820Y-41027835D01*
X72290688Y-40995155D01*
X72357122Y-40997050D01*
G37*
%TD.AperFunction*%
%TA.AperFunction,Conductor*%
G36*
X76070934Y-40244939D02*
G01*
X76111162Y-40271819D01*
X76733181Y-40893838D01*
X76760061Y-40934066D01*
X76769500Y-40981519D01*
X76769500Y-42256895D01*
X76754473Y-42316063D01*
X76713035Y-42360890D01*
X76655228Y-42380513D01*
X76595064Y-42370174D01*
X76479802Y-42318855D01*
X76294648Y-42279500D01*
X76294646Y-42279500D01*
X76105354Y-42279500D01*
X76105352Y-42279500D01*
X75920197Y-42318855D01*
X75747269Y-42395848D01*
X75594129Y-42507110D01*
X75467466Y-42647783D01*
X75372820Y-42811715D01*
X75314326Y-42991742D01*
X75314325Y-42991744D01*
X75314326Y-42991744D01*
X75294540Y-43180000D01*
X75297220Y-43205500D01*
X75314326Y-43368257D01*
X75372820Y-43548284D01*
X75467466Y-43712216D01*
X75594129Y-43852889D01*
X75747269Y-43964151D01*
X75920193Y-44041143D01*
X75920196Y-44041143D01*
X75920197Y-44041144D01*
X75985333Y-44054988D01*
X76018714Y-44067303D01*
X76047228Y-44088596D01*
X76603181Y-44644549D01*
X76630061Y-44684777D01*
X76639500Y-44732230D01*
X76639500Y-44923334D01*
X76639501Y-45045500D01*
X76622888Y-45107500D01*
X76577501Y-45152887D01*
X76515501Y-45169500D01*
X75059499Y-45169500D01*
X74997499Y-45152887D01*
X74952112Y-45107500D01*
X74935499Y-45045500D01*
X74935499Y-45017130D01*
X74935499Y-45017127D01*
X74929091Y-44957517D01*
X74916340Y-44923330D01*
X74908523Y-44880000D01*
X74916342Y-44836665D01*
X74929090Y-44802485D01*
X74929089Y-44802485D01*
X74929091Y-44802483D01*
X74935500Y-44742873D01*
X74935499Y-43747128D01*
X74929091Y-43687517D01*
X74916340Y-43653330D01*
X74908523Y-43610000D01*
X74916342Y-43566665D01*
X74919223Y-43558939D01*
X74929091Y-43532483D01*
X74935500Y-43472873D01*
X74935499Y-42477128D01*
X74929091Y-42417517D01*
X74916340Y-42383331D01*
X74908523Y-42339999D01*
X74916342Y-42296665D01*
X74929090Y-42262485D01*
X74929089Y-42262485D01*
X74929091Y-42262483D01*
X74935500Y-42202873D01*
X74935499Y-41207128D01*
X74929091Y-41147517D01*
X74923315Y-41132032D01*
X74916075Y-41112619D01*
X74908256Y-41069284D01*
X74916075Y-41025949D01*
X74928597Y-40992376D01*
X74935000Y-40932824D01*
X74935000Y-40685000D01*
X73559000Y-40685000D01*
X73497000Y-40668387D01*
X73451613Y-40623000D01*
X73435000Y-40561000D01*
X73435000Y-40359500D01*
X73451613Y-40297500D01*
X73497000Y-40252113D01*
X73559000Y-40235500D01*
X76023481Y-40235500D01*
X76070934Y-40244939D01*
G37*
%TD.AperFunction*%
%TD*%
M02*
