%TF.GenerationSoftware,KiCad,Pcbnew,(7.0.0)*%
%TF.CreationDate,2023-04-20T20:46:09+02:00*%
%TF.ProjectId,pcb_morse,7063625f-6d6f-4727-9365-2e6b69636164,rev?*%
%TF.SameCoordinates,Original*%
%TF.FileFunction,Legend,Bot*%
%TF.FilePolarity,Positive*%
%FSLAX46Y46*%
G04 Gerber Fmt 4.6, Leading zero omitted, Abs format (unit mm)*
G04 Created by KiCad (PCBNEW (7.0.0)) date 2023-04-20 20:46:09*
%MOMM*%
%LPD*%
G01*
G04 APERTURE LIST*
%ADD10C,0.200000*%
G04 APERTURE END LIST*
D10*
X89461904Y-90207380D02*
X89461904Y-89207380D01*
X89461904Y-89207380D02*
X89128571Y-89921666D01*
X89128571Y-89921666D02*
X88795238Y-89207380D01*
X88795238Y-89207380D02*
X88795238Y-90207380D01*
X88176190Y-90207380D02*
X88271428Y-90159761D01*
X88271428Y-90159761D02*
X88319047Y-90112142D01*
X88319047Y-90112142D02*
X88366666Y-90016904D01*
X88366666Y-90016904D02*
X88366666Y-89731190D01*
X88366666Y-89731190D02*
X88319047Y-89635952D01*
X88319047Y-89635952D02*
X88271428Y-89588333D01*
X88271428Y-89588333D02*
X88176190Y-89540714D01*
X88176190Y-89540714D02*
X88033333Y-89540714D01*
X88033333Y-89540714D02*
X87938095Y-89588333D01*
X87938095Y-89588333D02*
X87890476Y-89635952D01*
X87890476Y-89635952D02*
X87842857Y-89731190D01*
X87842857Y-89731190D02*
X87842857Y-90016904D01*
X87842857Y-90016904D02*
X87890476Y-90112142D01*
X87890476Y-90112142D02*
X87938095Y-90159761D01*
X87938095Y-90159761D02*
X88033333Y-90207380D01*
X88033333Y-90207380D02*
X88176190Y-90207380D01*
X87414285Y-90207380D02*
X87414285Y-89540714D01*
X87414285Y-89731190D02*
X87366666Y-89635952D01*
X87366666Y-89635952D02*
X87319047Y-89588333D01*
X87319047Y-89588333D02*
X87223809Y-89540714D01*
X87223809Y-89540714D02*
X87128571Y-89540714D01*
X86842856Y-90159761D02*
X86747618Y-90207380D01*
X86747618Y-90207380D02*
X86557142Y-90207380D01*
X86557142Y-90207380D02*
X86461904Y-90159761D01*
X86461904Y-90159761D02*
X86414285Y-90064523D01*
X86414285Y-90064523D02*
X86414285Y-90016904D01*
X86414285Y-90016904D02*
X86461904Y-89921666D01*
X86461904Y-89921666D02*
X86557142Y-89874047D01*
X86557142Y-89874047D02*
X86699999Y-89874047D01*
X86699999Y-89874047D02*
X86795237Y-89826428D01*
X86795237Y-89826428D02*
X86842856Y-89731190D01*
X86842856Y-89731190D02*
X86842856Y-89683571D01*
X86842856Y-89683571D02*
X86795237Y-89588333D01*
X86795237Y-89588333D02*
X86699999Y-89540714D01*
X86699999Y-89540714D02*
X86557142Y-89540714D01*
X86557142Y-89540714D02*
X86461904Y-89588333D01*
X85604761Y-90159761D02*
X85699999Y-90207380D01*
X85699999Y-90207380D02*
X85890475Y-90207380D01*
X85890475Y-90207380D02*
X85985713Y-90159761D01*
X85985713Y-90159761D02*
X86033332Y-90064523D01*
X86033332Y-90064523D02*
X86033332Y-89683571D01*
X86033332Y-89683571D02*
X85985713Y-89588333D01*
X85985713Y-89588333D02*
X85890475Y-89540714D01*
X85890475Y-89540714D02*
X85699999Y-89540714D01*
X85699999Y-89540714D02*
X85604761Y-89588333D01*
X85604761Y-89588333D02*
X85557142Y-89683571D01*
X85557142Y-89683571D02*
X85557142Y-89778809D01*
X85557142Y-89778809D02*
X86033332Y-89874047D01*
X83957142Y-90112142D02*
X84004761Y-90159761D01*
X84004761Y-90159761D02*
X84147618Y-90207380D01*
X84147618Y-90207380D02*
X84242856Y-90207380D01*
X84242856Y-90207380D02*
X84385713Y-90159761D01*
X84385713Y-90159761D02*
X84480951Y-90064523D01*
X84480951Y-90064523D02*
X84528570Y-89969285D01*
X84528570Y-89969285D02*
X84576189Y-89778809D01*
X84576189Y-89778809D02*
X84576189Y-89635952D01*
X84576189Y-89635952D02*
X84528570Y-89445476D01*
X84528570Y-89445476D02*
X84480951Y-89350238D01*
X84480951Y-89350238D02*
X84385713Y-89255000D01*
X84385713Y-89255000D02*
X84242856Y-89207380D01*
X84242856Y-89207380D02*
X84147618Y-89207380D01*
X84147618Y-89207380D02*
X84004761Y-89255000D01*
X84004761Y-89255000D02*
X83957142Y-89302619D01*
X83385713Y-90207380D02*
X83480951Y-90159761D01*
X83480951Y-90159761D02*
X83528570Y-90112142D01*
X83528570Y-90112142D02*
X83576189Y-90016904D01*
X83576189Y-90016904D02*
X83576189Y-89731190D01*
X83576189Y-89731190D02*
X83528570Y-89635952D01*
X83528570Y-89635952D02*
X83480951Y-89588333D01*
X83480951Y-89588333D02*
X83385713Y-89540714D01*
X83385713Y-89540714D02*
X83242856Y-89540714D01*
X83242856Y-89540714D02*
X83147618Y-89588333D01*
X83147618Y-89588333D02*
X83099999Y-89635952D01*
X83099999Y-89635952D02*
X83052380Y-89731190D01*
X83052380Y-89731190D02*
X83052380Y-90016904D01*
X83052380Y-90016904D02*
X83099999Y-90112142D01*
X83099999Y-90112142D02*
X83147618Y-90159761D01*
X83147618Y-90159761D02*
X83242856Y-90207380D01*
X83242856Y-90207380D02*
X83385713Y-90207380D01*
X82195237Y-90207380D02*
X82195237Y-89207380D01*
X82195237Y-90159761D02*
X82290475Y-90207380D01*
X82290475Y-90207380D02*
X82480951Y-90207380D01*
X82480951Y-90207380D02*
X82576189Y-90159761D01*
X82576189Y-90159761D02*
X82623808Y-90112142D01*
X82623808Y-90112142D02*
X82671427Y-90016904D01*
X82671427Y-90016904D02*
X82671427Y-89731190D01*
X82671427Y-89731190D02*
X82623808Y-89635952D01*
X82623808Y-89635952D02*
X82576189Y-89588333D01*
X82576189Y-89588333D02*
X82480951Y-89540714D01*
X82480951Y-89540714D02*
X82290475Y-89540714D01*
X82290475Y-89540714D02*
X82195237Y-89588333D01*
X81338094Y-90159761D02*
X81433332Y-90207380D01*
X81433332Y-90207380D02*
X81623808Y-90207380D01*
X81623808Y-90207380D02*
X81719046Y-90159761D01*
X81719046Y-90159761D02*
X81766665Y-90064523D01*
X81766665Y-90064523D02*
X81766665Y-89683571D01*
X81766665Y-89683571D02*
X81719046Y-89588333D01*
X81719046Y-89588333D02*
X81623808Y-89540714D01*
X81623808Y-89540714D02*
X81433332Y-89540714D01*
X81433332Y-89540714D02*
X81338094Y-89588333D01*
X81338094Y-89588333D02*
X81290475Y-89683571D01*
X81290475Y-89683571D02*
X81290475Y-89778809D01*
X81290475Y-89778809D02*
X81766665Y-89874047D01*
X88938095Y-83990000D02*
X89033333Y-83942380D01*
X89033333Y-83942380D02*
X89176190Y-83942380D01*
X89176190Y-83942380D02*
X89319047Y-83990000D01*
X89319047Y-83990000D02*
X89414285Y-84085238D01*
X89414285Y-84085238D02*
X89461904Y-84180476D01*
X89461904Y-84180476D02*
X89509523Y-84370952D01*
X89509523Y-84370952D02*
X89509523Y-84513809D01*
X89509523Y-84513809D02*
X89461904Y-84704285D01*
X89461904Y-84704285D02*
X89414285Y-84799523D01*
X89414285Y-84799523D02*
X89319047Y-84894761D01*
X89319047Y-84894761D02*
X89176190Y-84942380D01*
X89176190Y-84942380D02*
X89080952Y-84942380D01*
X89080952Y-84942380D02*
X88938095Y-84894761D01*
X88938095Y-84894761D02*
X88890476Y-84847142D01*
X88890476Y-84847142D02*
X88890476Y-84513809D01*
X88890476Y-84513809D02*
X89080952Y-84513809D01*
X88461904Y-84942380D02*
X88461904Y-83942380D01*
X88033333Y-84942380D02*
X88033333Y-84418571D01*
X88033333Y-84418571D02*
X88080952Y-84323333D01*
X88080952Y-84323333D02*
X88176190Y-84275714D01*
X88176190Y-84275714D02*
X88319047Y-84275714D01*
X88319047Y-84275714D02*
X88414285Y-84323333D01*
X88414285Y-84323333D02*
X88461904Y-84370952D01*
X87176190Y-84894761D02*
X87271428Y-84942380D01*
X87271428Y-84942380D02*
X87461904Y-84942380D01*
X87461904Y-84942380D02*
X87557142Y-84894761D01*
X87557142Y-84894761D02*
X87604761Y-84799523D01*
X87604761Y-84799523D02*
X87604761Y-84418571D01*
X87604761Y-84418571D02*
X87557142Y-84323333D01*
X87557142Y-84323333D02*
X87461904Y-84275714D01*
X87461904Y-84275714D02*
X87271428Y-84275714D01*
X87271428Y-84275714D02*
X87176190Y-84323333D01*
X87176190Y-84323333D02*
X87128571Y-84418571D01*
X87128571Y-84418571D02*
X87128571Y-84513809D01*
X87128571Y-84513809D02*
X87604761Y-84609047D01*
X86795237Y-84275714D02*
X86557142Y-84942380D01*
X86319047Y-84275714D02*
X86557142Y-84942380D01*
X86557142Y-84942380D02*
X86652380Y-85180476D01*
X86652380Y-85180476D02*
X86699999Y-85228095D01*
X86699999Y-85228095D02*
X86795237Y-85275714D01*
X85985713Y-84894761D02*
X85890475Y-84942380D01*
X85890475Y-84942380D02*
X85699999Y-84942380D01*
X85699999Y-84942380D02*
X85604761Y-84894761D01*
X85604761Y-84894761D02*
X85557142Y-84799523D01*
X85557142Y-84799523D02*
X85557142Y-84751904D01*
X85557142Y-84751904D02*
X85604761Y-84656666D01*
X85604761Y-84656666D02*
X85699999Y-84609047D01*
X85699999Y-84609047D02*
X85842856Y-84609047D01*
X85842856Y-84609047D02*
X85938094Y-84561428D01*
X85938094Y-84561428D02*
X85985713Y-84466190D01*
X85985713Y-84466190D02*
X85985713Y-84418571D01*
X85985713Y-84418571D02*
X85938094Y-84323333D01*
X85938094Y-84323333D02*
X85842856Y-84275714D01*
X85842856Y-84275714D02*
X85699999Y-84275714D01*
X85699999Y-84275714D02*
X85604761Y-84323333D01*
X84747618Y-84894761D02*
X84842856Y-84942380D01*
X84842856Y-84942380D02*
X85033332Y-84942380D01*
X85033332Y-84942380D02*
X85128570Y-84894761D01*
X85128570Y-84894761D02*
X85176189Y-84799523D01*
X85176189Y-84799523D02*
X85176189Y-84418571D01*
X85176189Y-84418571D02*
X85128570Y-84323333D01*
X85128570Y-84323333D02*
X85033332Y-84275714D01*
X85033332Y-84275714D02*
X84842856Y-84275714D01*
X84842856Y-84275714D02*
X84747618Y-84323333D01*
X84747618Y-84323333D02*
X84699999Y-84418571D01*
X84699999Y-84418571D02*
X84699999Y-84513809D01*
X84699999Y-84513809D02*
X85176189Y-84609047D01*
X84271427Y-84275714D02*
X84271427Y-84942380D01*
X84271427Y-84370952D02*
X84223808Y-84323333D01*
X84223808Y-84323333D02*
X84128570Y-84275714D01*
X84128570Y-84275714D02*
X83985713Y-84275714D01*
X83985713Y-84275714D02*
X83890475Y-84323333D01*
X83890475Y-84323333D02*
X83842856Y-84418571D01*
X83842856Y-84418571D02*
X83842856Y-84942380D01*
X83414284Y-84894761D02*
X83319046Y-84942380D01*
X83319046Y-84942380D02*
X83128570Y-84942380D01*
X83128570Y-84942380D02*
X83033332Y-84894761D01*
X83033332Y-84894761D02*
X82985713Y-84799523D01*
X82985713Y-84799523D02*
X82985713Y-84751904D01*
X82985713Y-84751904D02*
X83033332Y-84656666D01*
X83033332Y-84656666D02*
X83128570Y-84609047D01*
X83128570Y-84609047D02*
X83271427Y-84609047D01*
X83271427Y-84609047D02*
X83366665Y-84561428D01*
X83366665Y-84561428D02*
X83414284Y-84466190D01*
X83414284Y-84466190D02*
X83414284Y-84418571D01*
X83414284Y-84418571D02*
X83366665Y-84323333D01*
X83366665Y-84323333D02*
X83271427Y-84275714D01*
X83271427Y-84275714D02*
X83128570Y-84275714D01*
X83128570Y-84275714D02*
X83033332Y-84323333D01*
X81671427Y-83942380D02*
X81671427Y-84656666D01*
X81671427Y-84656666D02*
X81719046Y-84799523D01*
X81719046Y-84799523D02*
X81814284Y-84894761D01*
X81814284Y-84894761D02*
X81957141Y-84942380D01*
X81957141Y-84942380D02*
X82052379Y-84942380D01*
X81052379Y-84942380D02*
X81147617Y-84894761D01*
X81147617Y-84894761D02*
X81195236Y-84847142D01*
X81195236Y-84847142D02*
X81242855Y-84751904D01*
X81242855Y-84751904D02*
X81242855Y-84466190D01*
X81242855Y-84466190D02*
X81195236Y-84370952D01*
X81195236Y-84370952D02*
X81147617Y-84323333D01*
X81147617Y-84323333D02*
X81052379Y-84275714D01*
X81052379Y-84275714D02*
X80909522Y-84275714D01*
X80909522Y-84275714D02*
X80814284Y-84323333D01*
X80814284Y-84323333D02*
X80766665Y-84370952D01*
X80766665Y-84370952D02*
X80719046Y-84466190D01*
X80719046Y-84466190D02*
X80719046Y-84751904D01*
X80719046Y-84751904D02*
X80766665Y-84847142D01*
X80766665Y-84847142D02*
X80814284Y-84894761D01*
X80814284Y-84894761D02*
X80909522Y-84942380D01*
X80909522Y-84942380D02*
X81052379Y-84942380D01*
X80290474Y-84275714D02*
X80290474Y-84942380D01*
X80290474Y-84370952D02*
X80242855Y-84323333D01*
X80242855Y-84323333D02*
X80147617Y-84275714D01*
X80147617Y-84275714D02*
X80004760Y-84275714D01*
X80004760Y-84275714D02*
X79909522Y-84323333D01*
X79909522Y-84323333D02*
X79861903Y-84418571D01*
X79861903Y-84418571D02*
X79861903Y-84942380D01*
X78957141Y-84942380D02*
X78957141Y-84418571D01*
X78957141Y-84418571D02*
X79004760Y-84323333D01*
X79004760Y-84323333D02*
X79099998Y-84275714D01*
X79099998Y-84275714D02*
X79290474Y-84275714D01*
X79290474Y-84275714D02*
X79385712Y-84323333D01*
X78957141Y-84894761D02*
X79052379Y-84942380D01*
X79052379Y-84942380D02*
X79290474Y-84942380D01*
X79290474Y-84942380D02*
X79385712Y-84894761D01*
X79385712Y-84894761D02*
X79433331Y-84799523D01*
X79433331Y-84799523D02*
X79433331Y-84704285D01*
X79433331Y-84704285D02*
X79385712Y-84609047D01*
X79385712Y-84609047D02*
X79290474Y-84561428D01*
X79290474Y-84561428D02*
X79052379Y-84561428D01*
X79052379Y-84561428D02*
X78957141Y-84513809D01*
X78623807Y-84275714D02*
X78242855Y-84275714D01*
X78480950Y-83942380D02*
X78480950Y-84799523D01*
X78480950Y-84799523D02*
X78433331Y-84894761D01*
X78433331Y-84894761D02*
X78338093Y-84942380D01*
X78338093Y-84942380D02*
X78242855Y-84942380D01*
X77909521Y-84942380D02*
X77909521Y-83942380D01*
X77480950Y-84942380D02*
X77480950Y-84418571D01*
X77480950Y-84418571D02*
X77528569Y-84323333D01*
X77528569Y-84323333D02*
X77623807Y-84275714D01*
X77623807Y-84275714D02*
X77766664Y-84275714D01*
X77766664Y-84275714D02*
X77861902Y-84323333D01*
X77861902Y-84323333D02*
X77909521Y-84370952D01*
X76576188Y-84942380D02*
X76576188Y-84418571D01*
X76576188Y-84418571D02*
X76623807Y-84323333D01*
X76623807Y-84323333D02*
X76719045Y-84275714D01*
X76719045Y-84275714D02*
X76909521Y-84275714D01*
X76909521Y-84275714D02*
X77004759Y-84323333D01*
X76576188Y-84894761D02*
X76671426Y-84942380D01*
X76671426Y-84942380D02*
X76909521Y-84942380D01*
X76909521Y-84942380D02*
X77004759Y-84894761D01*
X77004759Y-84894761D02*
X77052378Y-84799523D01*
X77052378Y-84799523D02*
X77052378Y-84704285D01*
X77052378Y-84704285D02*
X77004759Y-84609047D01*
X77004759Y-84609047D02*
X76909521Y-84561428D01*
X76909521Y-84561428D02*
X76671426Y-84561428D01*
X76671426Y-84561428D02*
X76576188Y-84513809D01*
X76099997Y-84275714D02*
X76099997Y-84942380D01*
X76099997Y-84370952D02*
X76052378Y-84323333D01*
X76052378Y-84323333D02*
X75957140Y-84275714D01*
X75957140Y-84275714D02*
X75814283Y-84275714D01*
X75814283Y-84275714D02*
X75719045Y-84323333D01*
X75719045Y-84323333D02*
X75671426Y-84418571D01*
X75671426Y-84418571D02*
X75671426Y-84942380D01*
X88652380Y-86562380D02*
X88700000Y-86562380D01*
X88700000Y-86562380D02*
X88795238Y-86514761D01*
X88795238Y-86514761D02*
X88938095Y-86371904D01*
X88938095Y-86371904D02*
X89176190Y-86086190D01*
X89176190Y-86086190D02*
X89271428Y-85943333D01*
X89271428Y-85943333D02*
X89319047Y-85800476D01*
X89319047Y-85800476D02*
X89319047Y-85705238D01*
X89319047Y-85705238D02*
X89271428Y-85610000D01*
X89271428Y-85610000D02*
X89176190Y-85562380D01*
X89176190Y-85562380D02*
X89128571Y-85562380D01*
X89128571Y-85562380D02*
X89033333Y-85610000D01*
X89033333Y-85610000D02*
X88985714Y-85705238D01*
X88985714Y-85705238D02*
X88985714Y-85752857D01*
X88985714Y-85752857D02*
X89033333Y-85848095D01*
X89033333Y-85848095D02*
X89080952Y-85895714D01*
X89080952Y-85895714D02*
X89366666Y-86086190D01*
X89366666Y-86086190D02*
X89414285Y-86133809D01*
X89414285Y-86133809D02*
X89461904Y-86229047D01*
X89461904Y-86229047D02*
X89461904Y-86371904D01*
X89461904Y-86371904D02*
X89414285Y-86467142D01*
X89414285Y-86467142D02*
X89366666Y-86514761D01*
X89366666Y-86514761D02*
X89271428Y-86562380D01*
X89271428Y-86562380D02*
X89128571Y-86562380D01*
X89128571Y-86562380D02*
X89033333Y-86514761D01*
X89033333Y-86514761D02*
X88985714Y-86467142D01*
X88985714Y-86467142D02*
X88842857Y-86276666D01*
X88842857Y-86276666D02*
X88795238Y-86133809D01*
X88795238Y-86133809D02*
X88795238Y-86038571D01*
X89461904Y-88182380D02*
X89461904Y-87182380D01*
X89461904Y-87182380D02*
X89128571Y-87896666D01*
X89128571Y-87896666D02*
X88795238Y-87182380D01*
X88795238Y-87182380D02*
X88795238Y-88182380D01*
X88176190Y-88182380D02*
X88271428Y-88134761D01*
X88271428Y-88134761D02*
X88319047Y-88087142D01*
X88319047Y-88087142D02*
X88366666Y-87991904D01*
X88366666Y-87991904D02*
X88366666Y-87706190D01*
X88366666Y-87706190D02*
X88319047Y-87610952D01*
X88319047Y-87610952D02*
X88271428Y-87563333D01*
X88271428Y-87563333D02*
X88176190Y-87515714D01*
X88176190Y-87515714D02*
X88033333Y-87515714D01*
X88033333Y-87515714D02*
X87938095Y-87563333D01*
X87938095Y-87563333D02*
X87890476Y-87610952D01*
X87890476Y-87610952D02*
X87842857Y-87706190D01*
X87842857Y-87706190D02*
X87842857Y-87991904D01*
X87842857Y-87991904D02*
X87890476Y-88087142D01*
X87890476Y-88087142D02*
X87938095Y-88134761D01*
X87938095Y-88134761D02*
X88033333Y-88182380D01*
X88033333Y-88182380D02*
X88176190Y-88182380D01*
X87414285Y-88182380D02*
X87414285Y-87515714D01*
X87414285Y-87706190D02*
X87366666Y-87610952D01*
X87366666Y-87610952D02*
X87319047Y-87563333D01*
X87319047Y-87563333D02*
X87223809Y-87515714D01*
X87223809Y-87515714D02*
X87128571Y-87515714D01*
X86938094Y-87515714D02*
X86557142Y-87515714D01*
X86795237Y-87182380D02*
X86795237Y-88039523D01*
X86795237Y-88039523D02*
X86747618Y-88134761D01*
X86747618Y-88134761D02*
X86652380Y-88182380D01*
X86652380Y-88182380D02*
X86557142Y-88182380D01*
X86223808Y-88182380D02*
X86223808Y-87515714D01*
X86223808Y-87182380D02*
X86271427Y-87230000D01*
X86271427Y-87230000D02*
X86223808Y-87277619D01*
X86223808Y-87277619D02*
X86176189Y-87230000D01*
X86176189Y-87230000D02*
X86223808Y-87182380D01*
X86223808Y-87182380D02*
X86223808Y-87277619D01*
X85366666Y-88134761D02*
X85461904Y-88182380D01*
X85461904Y-88182380D02*
X85652380Y-88182380D01*
X85652380Y-88182380D02*
X85747618Y-88134761D01*
X85747618Y-88134761D02*
X85795237Y-88039523D01*
X85795237Y-88039523D02*
X85795237Y-87658571D01*
X85795237Y-87658571D02*
X85747618Y-87563333D01*
X85747618Y-87563333D02*
X85652380Y-87515714D01*
X85652380Y-87515714D02*
X85461904Y-87515714D01*
X85461904Y-87515714D02*
X85366666Y-87563333D01*
X85366666Y-87563333D02*
X85319047Y-87658571D01*
X85319047Y-87658571D02*
X85319047Y-87753809D01*
X85319047Y-87753809D02*
X85795237Y-87849047D01*
X84890475Y-88182380D02*
X84890475Y-87515714D01*
X84890475Y-87706190D02*
X84842856Y-87610952D01*
X84842856Y-87610952D02*
X84795237Y-87563333D01*
X84795237Y-87563333D02*
X84699999Y-87515714D01*
X84699999Y-87515714D02*
X84604761Y-87515714D01*
X83671427Y-88182380D02*
X83671427Y-87182380D01*
X83671427Y-87182380D02*
X83338094Y-87896666D01*
X83338094Y-87896666D02*
X83004761Y-87182380D01*
X83004761Y-87182380D02*
X83004761Y-88182380D01*
X82099999Y-88182380D02*
X82099999Y-87658571D01*
X82099999Y-87658571D02*
X82147618Y-87563333D01*
X82147618Y-87563333D02*
X82242856Y-87515714D01*
X82242856Y-87515714D02*
X82433332Y-87515714D01*
X82433332Y-87515714D02*
X82528570Y-87563333D01*
X82099999Y-88134761D02*
X82195237Y-88182380D01*
X82195237Y-88182380D02*
X82433332Y-88182380D01*
X82433332Y-88182380D02*
X82528570Y-88134761D01*
X82528570Y-88134761D02*
X82576189Y-88039523D01*
X82576189Y-88039523D02*
X82576189Y-87944285D01*
X82576189Y-87944285D02*
X82528570Y-87849047D01*
X82528570Y-87849047D02*
X82433332Y-87801428D01*
X82433332Y-87801428D02*
X82195237Y-87801428D01*
X82195237Y-87801428D02*
X82099999Y-87753809D01*
X81766665Y-87515714D02*
X81385713Y-87515714D01*
X81623808Y-87182380D02*
X81623808Y-88039523D01*
X81623808Y-88039523D02*
X81576189Y-88134761D01*
X81576189Y-88134761D02*
X81480951Y-88182380D01*
X81480951Y-88182380D02*
X81385713Y-88182380D01*
X81099998Y-88134761D02*
X81004760Y-88182380D01*
X81004760Y-88182380D02*
X80814284Y-88182380D01*
X80814284Y-88182380D02*
X80719046Y-88134761D01*
X80719046Y-88134761D02*
X80671427Y-88039523D01*
X80671427Y-88039523D02*
X80671427Y-87991904D01*
X80671427Y-87991904D02*
X80719046Y-87896666D01*
X80719046Y-87896666D02*
X80814284Y-87849047D01*
X80814284Y-87849047D02*
X80957141Y-87849047D01*
X80957141Y-87849047D02*
X81052379Y-87801428D01*
X81052379Y-87801428D02*
X81099998Y-87706190D01*
X81099998Y-87706190D02*
X81099998Y-87658571D01*
X81099998Y-87658571D02*
X81052379Y-87563333D01*
X81052379Y-87563333D02*
X80957141Y-87515714D01*
X80957141Y-87515714D02*
X80814284Y-87515714D01*
X80814284Y-87515714D02*
X80719046Y-87563333D01*
M02*
