%TF.GenerationSoftware,KiCad,Pcbnew,(7.0.0)*%
%TF.CreationDate,2023-04-20T20:46:09+02:00*%
%TF.ProjectId,pcb_morse,7063625f-6d6f-4727-9365-2e6b69636164,rev?*%
%TF.SameCoordinates,Original*%
%TF.FileFunction,Soldermask,Bot*%
%TF.FilePolarity,Negative*%
%FSLAX46Y46*%
G04 Gerber Fmt 4.6, Leading zero omitted, Abs format (unit mm)*
G04 Created by KiCad (PCBNEW (7.0.0)) date 2023-04-20 20:46:09*
%MOMM*%
%LPD*%
G01*
G04 APERTURE LIST*
%ADD10R,1.600000X1.600000*%
%ADD11O,1.600000X1.600000*%
%ADD12C,2.032000*%
%ADD13R,1.800000X1.800000*%
%ADD14C,1.800000*%
%ADD15R,3.000000X3.000000*%
%ADD16C,3.000000*%
%ADD17R,1.700000X1.700000*%
%ADD18O,1.700000X1.700000*%
%ADD19C,2.500000*%
%ADD20C,2.000000*%
%ADD21R,2.000000X4.600000*%
%ADD22O,2.000000X4.200000*%
%ADD23O,4.200000X2.000000*%
G04 APERTURE END LIST*
D10*
%TO.C,U1*%
X50286999Y-63997999D03*
D11*
X52826999Y-63997999D03*
X52826999Y-56377999D03*
X50286999Y-56377999D03*
%TD*%
D12*
%TO.C,UMP1584*%
X31623000Y-70326000D03*
X34163000Y-70326000D03*
X42291000Y-70326000D03*
X44831000Y-70326000D03*
X44831000Y-51784000D03*
X42291000Y-51784000D03*
X34163000Y-51784000D03*
X31623000Y-51784000D03*
%TD*%
D13*
%TO.C,LED1*%
X90428999Y-53085999D03*
D14*
X87889000Y-53086000D03*
%TD*%
D15*
%TO.C,Kroonsteen1*%
X77977999Y-84327999D03*
D16*
X72898000Y-84328000D03*
X67818000Y-84328000D03*
%TD*%
D17*
%TO.C,J2*%
X88899999Y-41179999D03*
D18*
X88899999Y-43719999D03*
X88899999Y-46259999D03*
X88899999Y-48799999D03*
%TD*%
D16*
%TO.C,Relais1*%
X55326000Y-69670000D03*
D19*
X49276000Y-71620000D03*
D16*
X49276000Y-83820000D03*
X61326000Y-83870000D03*
D19*
X61276000Y-71620000D03*
%TD*%
D20*
%TO.C,START1*%
X66330000Y-76910000D03*
X66330000Y-70410000D03*
X70830000Y-76910000D03*
X70830000Y-70410000D03*
%TD*%
D17*
%TO.C,ULTRASONIC-SENSOR1*%
X89915999Y-70103999D03*
D18*
X89915999Y-67563999D03*
X89915999Y-65023999D03*
X89915999Y-62483999D03*
%TD*%
D13*
%TO.C,LED2*%
X83819999Y-49783999D03*
D14*
X81280000Y-49784000D03*
%TD*%
D20*
%TO.C,RESET1*%
X74240000Y-76858000D03*
X74240000Y-70358000D03*
X78740000Y-76858000D03*
X78740000Y-70358000D03*
%TD*%
D21*
%TO.C,Barrel_Jack1*%
X42875999Y-77977999D03*
D22*
X36575999Y-77977999D03*
D23*
X39975999Y-82777999D03*
%TD*%
D13*
%TO.C,LED3*%
X83824999Y-54355999D03*
D14*
X81285000Y-54356000D03*
%TD*%
M02*
