%TF.GenerationSoftware,KiCad,Pcbnew,7.0.1*%
%TF.CreationDate,2023-03-21T17:25:17+01:00*%
%TF.ProjectId,PCB_uitlezen_gsm,5043425f-7569-4746-9c65-7a656e5f6773,rev?*%
%TF.SameCoordinates,Original*%
%TF.FileFunction,Legend,Bot*%
%TF.FilePolarity,Positive*%
%FSLAX46Y46*%
G04 Gerber Fmt 4.6, Leading zero omitted, Abs format (unit mm)*
G04 Created by KiCad (PCBNEW 7.0.1) date 2023-03-21 17:25:17*
%MOMM*%
%LPD*%
G01*
G04 APERTURE LIST*
%ADD10C,0.200000*%
G04 APERTURE END LIST*
D10*
X93233904Y-88031619D02*
X93233904Y-88841142D01*
X93233904Y-88841142D02*
X93186285Y-88936380D01*
X93186285Y-88936380D02*
X93138666Y-88984000D01*
X93138666Y-88984000D02*
X93043428Y-89031619D01*
X93043428Y-89031619D02*
X92852952Y-89031619D01*
X92852952Y-89031619D02*
X92757714Y-88984000D01*
X92757714Y-88984000D02*
X92710095Y-88936380D01*
X92710095Y-88936380D02*
X92662476Y-88841142D01*
X92662476Y-88841142D02*
X92662476Y-88031619D01*
X92186285Y-89031619D02*
X92186285Y-88364952D01*
X92186285Y-88031619D02*
X92233904Y-88079238D01*
X92233904Y-88079238D02*
X92186285Y-88126857D01*
X92186285Y-88126857D02*
X92138666Y-88079238D01*
X92138666Y-88079238D02*
X92186285Y-88031619D01*
X92186285Y-88031619D02*
X92186285Y-88126857D01*
X91852952Y-88364952D02*
X91472000Y-88364952D01*
X91710095Y-88031619D02*
X91710095Y-88888761D01*
X91710095Y-88888761D02*
X91662476Y-88984000D01*
X91662476Y-88984000D02*
X91567238Y-89031619D01*
X91567238Y-89031619D02*
X91472000Y-89031619D01*
X90995809Y-89031619D02*
X91091047Y-88984000D01*
X91091047Y-88984000D02*
X91138666Y-88888761D01*
X91138666Y-88888761D02*
X91138666Y-88031619D01*
X90233904Y-88984000D02*
X90329142Y-89031619D01*
X90329142Y-89031619D02*
X90519618Y-89031619D01*
X90519618Y-89031619D02*
X90614856Y-88984000D01*
X90614856Y-88984000D02*
X90662475Y-88888761D01*
X90662475Y-88888761D02*
X90662475Y-88507809D01*
X90662475Y-88507809D02*
X90614856Y-88412571D01*
X90614856Y-88412571D02*
X90519618Y-88364952D01*
X90519618Y-88364952D02*
X90329142Y-88364952D01*
X90329142Y-88364952D02*
X90233904Y-88412571D01*
X90233904Y-88412571D02*
X90186285Y-88507809D01*
X90186285Y-88507809D02*
X90186285Y-88603047D01*
X90186285Y-88603047D02*
X90662475Y-88698285D01*
X89852951Y-88364952D02*
X89329142Y-88364952D01*
X89329142Y-88364952D02*
X89852951Y-89031619D01*
X89852951Y-89031619D02*
X89329142Y-89031619D01*
X88567237Y-88984000D02*
X88662475Y-89031619D01*
X88662475Y-89031619D02*
X88852951Y-89031619D01*
X88852951Y-89031619D02*
X88948189Y-88984000D01*
X88948189Y-88984000D02*
X88995808Y-88888761D01*
X88995808Y-88888761D02*
X88995808Y-88507809D01*
X88995808Y-88507809D02*
X88948189Y-88412571D01*
X88948189Y-88412571D02*
X88852951Y-88364952D01*
X88852951Y-88364952D02*
X88662475Y-88364952D01*
X88662475Y-88364952D02*
X88567237Y-88412571D01*
X88567237Y-88412571D02*
X88519618Y-88507809D01*
X88519618Y-88507809D02*
X88519618Y-88603047D01*
X88519618Y-88603047D02*
X88995808Y-88698285D01*
X88091046Y-88364952D02*
X88091046Y-89031619D01*
X88091046Y-88460190D02*
X88043427Y-88412571D01*
X88043427Y-88412571D02*
X87948189Y-88364952D01*
X87948189Y-88364952D02*
X87805332Y-88364952D01*
X87805332Y-88364952D02*
X87710094Y-88412571D01*
X87710094Y-88412571D02*
X87662475Y-88507809D01*
X87662475Y-88507809D02*
X87662475Y-89031619D01*
X85995808Y-88364952D02*
X85995808Y-89174476D01*
X85995808Y-89174476D02*
X86043427Y-89269714D01*
X86043427Y-89269714D02*
X86091046Y-89317333D01*
X86091046Y-89317333D02*
X86186284Y-89364952D01*
X86186284Y-89364952D02*
X86329141Y-89364952D01*
X86329141Y-89364952D02*
X86424379Y-89317333D01*
X85995808Y-88984000D02*
X86091046Y-89031619D01*
X86091046Y-89031619D02*
X86281522Y-89031619D01*
X86281522Y-89031619D02*
X86376760Y-88984000D01*
X86376760Y-88984000D02*
X86424379Y-88936380D01*
X86424379Y-88936380D02*
X86471998Y-88841142D01*
X86471998Y-88841142D02*
X86471998Y-88555428D01*
X86471998Y-88555428D02*
X86424379Y-88460190D01*
X86424379Y-88460190D02*
X86376760Y-88412571D01*
X86376760Y-88412571D02*
X86281522Y-88364952D01*
X86281522Y-88364952D02*
X86091046Y-88364952D01*
X86091046Y-88364952D02*
X85995808Y-88412571D01*
X85567236Y-88984000D02*
X85471998Y-89031619D01*
X85471998Y-89031619D02*
X85281522Y-89031619D01*
X85281522Y-89031619D02*
X85186284Y-88984000D01*
X85186284Y-88984000D02*
X85138665Y-88888761D01*
X85138665Y-88888761D02*
X85138665Y-88841142D01*
X85138665Y-88841142D02*
X85186284Y-88745904D01*
X85186284Y-88745904D02*
X85281522Y-88698285D01*
X85281522Y-88698285D02*
X85424379Y-88698285D01*
X85424379Y-88698285D02*
X85519617Y-88650666D01*
X85519617Y-88650666D02*
X85567236Y-88555428D01*
X85567236Y-88555428D02*
X85567236Y-88507809D01*
X85567236Y-88507809D02*
X85519617Y-88412571D01*
X85519617Y-88412571D02*
X85424379Y-88364952D01*
X85424379Y-88364952D02*
X85281522Y-88364952D01*
X85281522Y-88364952D02*
X85186284Y-88412571D01*
X84710093Y-89031619D02*
X84710093Y-88364952D01*
X84710093Y-88460190D02*
X84662474Y-88412571D01*
X84662474Y-88412571D02*
X84567236Y-88364952D01*
X84567236Y-88364952D02*
X84424379Y-88364952D01*
X84424379Y-88364952D02*
X84329141Y-88412571D01*
X84329141Y-88412571D02*
X84281522Y-88507809D01*
X84281522Y-88507809D02*
X84281522Y-89031619D01*
X84281522Y-88507809D02*
X84233903Y-88412571D01*
X84233903Y-88412571D02*
X84138665Y-88364952D01*
X84138665Y-88364952D02*
X83995808Y-88364952D01*
X83995808Y-88364952D02*
X83900569Y-88412571D01*
X83900569Y-88412571D02*
X83852950Y-88507809D01*
X83852950Y-88507809D02*
X83852950Y-89031619D01*
X83329141Y-88031619D02*
X83424379Y-88222095D01*
X82948189Y-88984000D02*
X82852951Y-89031619D01*
X82852951Y-89031619D02*
X82662475Y-89031619D01*
X82662475Y-89031619D02*
X82567237Y-88984000D01*
X82567237Y-88984000D02*
X82519618Y-88888761D01*
X82519618Y-88888761D02*
X82519618Y-88841142D01*
X82519618Y-88841142D02*
X82567237Y-88745904D01*
X82567237Y-88745904D02*
X82662475Y-88698285D01*
X82662475Y-88698285D02*
X82805332Y-88698285D01*
X82805332Y-88698285D02*
X82900570Y-88650666D01*
X82900570Y-88650666D02*
X82948189Y-88555428D01*
X82948189Y-88555428D02*
X82948189Y-88507809D01*
X82948189Y-88507809D02*
X82900570Y-88412571D01*
X82900570Y-88412571D02*
X82805332Y-88364952D01*
X82805332Y-88364952D02*
X82662475Y-88364952D01*
X82662475Y-88364952D02*
X82567237Y-88412571D01*
X92710095Y-81537238D02*
X92805333Y-81489619D01*
X92805333Y-81489619D02*
X92948190Y-81489619D01*
X92948190Y-81489619D02*
X93091047Y-81537238D01*
X93091047Y-81537238D02*
X93186285Y-81632476D01*
X93186285Y-81632476D02*
X93233904Y-81727714D01*
X93233904Y-81727714D02*
X93281523Y-81918190D01*
X93281523Y-81918190D02*
X93281523Y-82061047D01*
X93281523Y-82061047D02*
X93233904Y-82251523D01*
X93233904Y-82251523D02*
X93186285Y-82346761D01*
X93186285Y-82346761D02*
X93091047Y-82442000D01*
X93091047Y-82442000D02*
X92948190Y-82489619D01*
X92948190Y-82489619D02*
X92852952Y-82489619D01*
X92852952Y-82489619D02*
X92710095Y-82442000D01*
X92710095Y-82442000D02*
X92662476Y-82394380D01*
X92662476Y-82394380D02*
X92662476Y-82061047D01*
X92662476Y-82061047D02*
X92852952Y-82061047D01*
X92233904Y-82489619D02*
X92233904Y-81489619D01*
X91805333Y-82489619D02*
X91805333Y-81965809D01*
X91805333Y-81965809D02*
X91852952Y-81870571D01*
X91852952Y-81870571D02*
X91948190Y-81822952D01*
X91948190Y-81822952D02*
X92091047Y-81822952D01*
X92091047Y-81822952D02*
X92186285Y-81870571D01*
X92186285Y-81870571D02*
X92233904Y-81918190D01*
X90948190Y-82442000D02*
X91043428Y-82489619D01*
X91043428Y-82489619D02*
X91233904Y-82489619D01*
X91233904Y-82489619D02*
X91329142Y-82442000D01*
X91329142Y-82442000D02*
X91376761Y-82346761D01*
X91376761Y-82346761D02*
X91376761Y-81965809D01*
X91376761Y-81965809D02*
X91329142Y-81870571D01*
X91329142Y-81870571D02*
X91233904Y-81822952D01*
X91233904Y-81822952D02*
X91043428Y-81822952D01*
X91043428Y-81822952D02*
X90948190Y-81870571D01*
X90948190Y-81870571D02*
X90900571Y-81965809D01*
X90900571Y-81965809D02*
X90900571Y-82061047D01*
X90900571Y-82061047D02*
X91376761Y-82156285D01*
X90567237Y-81822952D02*
X90329142Y-82489619D01*
X90091047Y-81822952D02*
X90329142Y-82489619D01*
X90329142Y-82489619D02*
X90424380Y-82727714D01*
X90424380Y-82727714D02*
X90471999Y-82775333D01*
X90471999Y-82775333D02*
X90567237Y-82822952D01*
X89757713Y-82442000D02*
X89662475Y-82489619D01*
X89662475Y-82489619D02*
X89471999Y-82489619D01*
X89471999Y-82489619D02*
X89376761Y-82442000D01*
X89376761Y-82442000D02*
X89329142Y-82346761D01*
X89329142Y-82346761D02*
X89329142Y-82299142D01*
X89329142Y-82299142D02*
X89376761Y-82203904D01*
X89376761Y-82203904D02*
X89471999Y-82156285D01*
X89471999Y-82156285D02*
X89614856Y-82156285D01*
X89614856Y-82156285D02*
X89710094Y-82108666D01*
X89710094Y-82108666D02*
X89757713Y-82013428D01*
X89757713Y-82013428D02*
X89757713Y-81965809D01*
X89757713Y-81965809D02*
X89710094Y-81870571D01*
X89710094Y-81870571D02*
X89614856Y-81822952D01*
X89614856Y-81822952D02*
X89471999Y-81822952D01*
X89471999Y-81822952D02*
X89376761Y-81870571D01*
X88519618Y-82442000D02*
X88614856Y-82489619D01*
X88614856Y-82489619D02*
X88805332Y-82489619D01*
X88805332Y-82489619D02*
X88900570Y-82442000D01*
X88900570Y-82442000D02*
X88948189Y-82346761D01*
X88948189Y-82346761D02*
X88948189Y-81965809D01*
X88948189Y-81965809D02*
X88900570Y-81870571D01*
X88900570Y-81870571D02*
X88805332Y-81822952D01*
X88805332Y-81822952D02*
X88614856Y-81822952D01*
X88614856Y-81822952D02*
X88519618Y-81870571D01*
X88519618Y-81870571D02*
X88471999Y-81965809D01*
X88471999Y-81965809D02*
X88471999Y-82061047D01*
X88471999Y-82061047D02*
X88948189Y-82156285D01*
X88043427Y-81822952D02*
X88043427Y-82489619D01*
X88043427Y-81918190D02*
X87995808Y-81870571D01*
X87995808Y-81870571D02*
X87900570Y-81822952D01*
X87900570Y-81822952D02*
X87757713Y-81822952D01*
X87757713Y-81822952D02*
X87662475Y-81870571D01*
X87662475Y-81870571D02*
X87614856Y-81965809D01*
X87614856Y-81965809D02*
X87614856Y-82489619D01*
X87186284Y-82442000D02*
X87091046Y-82489619D01*
X87091046Y-82489619D02*
X86900570Y-82489619D01*
X86900570Y-82489619D02*
X86805332Y-82442000D01*
X86805332Y-82442000D02*
X86757713Y-82346761D01*
X86757713Y-82346761D02*
X86757713Y-82299142D01*
X86757713Y-82299142D02*
X86805332Y-82203904D01*
X86805332Y-82203904D02*
X86900570Y-82156285D01*
X86900570Y-82156285D02*
X87043427Y-82156285D01*
X87043427Y-82156285D02*
X87138665Y-82108666D01*
X87138665Y-82108666D02*
X87186284Y-82013428D01*
X87186284Y-82013428D02*
X87186284Y-81965809D01*
X87186284Y-81965809D02*
X87138665Y-81870571D01*
X87138665Y-81870571D02*
X87043427Y-81822952D01*
X87043427Y-81822952D02*
X86900570Y-81822952D01*
X86900570Y-81822952D02*
X86805332Y-81870571D01*
X85281522Y-81489619D02*
X85281522Y-82203904D01*
X85281522Y-82203904D02*
X85329141Y-82346761D01*
X85329141Y-82346761D02*
X85424379Y-82442000D01*
X85424379Y-82442000D02*
X85567236Y-82489619D01*
X85567236Y-82489619D02*
X85662474Y-82489619D01*
X84662474Y-82489619D02*
X84757712Y-82442000D01*
X84757712Y-82442000D02*
X84805331Y-82394380D01*
X84805331Y-82394380D02*
X84852950Y-82299142D01*
X84852950Y-82299142D02*
X84852950Y-82013428D01*
X84852950Y-82013428D02*
X84805331Y-81918190D01*
X84805331Y-81918190D02*
X84757712Y-81870571D01*
X84757712Y-81870571D02*
X84662474Y-81822952D01*
X84662474Y-81822952D02*
X84519617Y-81822952D01*
X84519617Y-81822952D02*
X84424379Y-81870571D01*
X84424379Y-81870571D02*
X84376760Y-81918190D01*
X84376760Y-81918190D02*
X84329141Y-82013428D01*
X84329141Y-82013428D02*
X84329141Y-82299142D01*
X84329141Y-82299142D02*
X84376760Y-82394380D01*
X84376760Y-82394380D02*
X84424379Y-82442000D01*
X84424379Y-82442000D02*
X84519617Y-82489619D01*
X84519617Y-82489619D02*
X84662474Y-82489619D01*
X83900569Y-81822952D02*
X83900569Y-82489619D01*
X83900569Y-81918190D02*
X83852950Y-81870571D01*
X83852950Y-81870571D02*
X83757712Y-81822952D01*
X83757712Y-81822952D02*
X83614855Y-81822952D01*
X83614855Y-81822952D02*
X83519617Y-81870571D01*
X83519617Y-81870571D02*
X83471998Y-81965809D01*
X83471998Y-81965809D02*
X83471998Y-82489619D01*
X82567236Y-82489619D02*
X82567236Y-81965809D01*
X82567236Y-81965809D02*
X82614855Y-81870571D01*
X82614855Y-81870571D02*
X82710093Y-81822952D01*
X82710093Y-81822952D02*
X82900569Y-81822952D01*
X82900569Y-81822952D02*
X82995807Y-81870571D01*
X82567236Y-82442000D02*
X82662474Y-82489619D01*
X82662474Y-82489619D02*
X82900569Y-82489619D01*
X82900569Y-82489619D02*
X82995807Y-82442000D01*
X82995807Y-82442000D02*
X83043426Y-82346761D01*
X83043426Y-82346761D02*
X83043426Y-82251523D01*
X83043426Y-82251523D02*
X82995807Y-82156285D01*
X82995807Y-82156285D02*
X82900569Y-82108666D01*
X82900569Y-82108666D02*
X82662474Y-82108666D01*
X82662474Y-82108666D02*
X82567236Y-82061047D01*
X82233902Y-81822952D02*
X81852950Y-81822952D01*
X82091045Y-81489619D02*
X82091045Y-82346761D01*
X82091045Y-82346761D02*
X82043426Y-82442000D01*
X82043426Y-82442000D02*
X81948188Y-82489619D01*
X81948188Y-82489619D02*
X81852950Y-82489619D01*
X81519616Y-82489619D02*
X81519616Y-81489619D01*
X81091045Y-82489619D02*
X81091045Y-81965809D01*
X81091045Y-81965809D02*
X81138664Y-81870571D01*
X81138664Y-81870571D02*
X81233902Y-81822952D01*
X81233902Y-81822952D02*
X81376759Y-81822952D01*
X81376759Y-81822952D02*
X81471997Y-81870571D01*
X81471997Y-81870571D02*
X81519616Y-81918190D01*
X80186283Y-82489619D02*
X80186283Y-81965809D01*
X80186283Y-81965809D02*
X80233902Y-81870571D01*
X80233902Y-81870571D02*
X80329140Y-81822952D01*
X80329140Y-81822952D02*
X80519616Y-81822952D01*
X80519616Y-81822952D02*
X80614854Y-81870571D01*
X80186283Y-82442000D02*
X80281521Y-82489619D01*
X80281521Y-82489619D02*
X80519616Y-82489619D01*
X80519616Y-82489619D02*
X80614854Y-82442000D01*
X80614854Y-82442000D02*
X80662473Y-82346761D01*
X80662473Y-82346761D02*
X80662473Y-82251523D01*
X80662473Y-82251523D02*
X80614854Y-82156285D01*
X80614854Y-82156285D02*
X80519616Y-82108666D01*
X80519616Y-82108666D02*
X80281521Y-82108666D01*
X80281521Y-82108666D02*
X80186283Y-82061047D01*
X79710092Y-81822952D02*
X79710092Y-82489619D01*
X79710092Y-81918190D02*
X79662473Y-81870571D01*
X79662473Y-81870571D02*
X79567235Y-81822952D01*
X79567235Y-81822952D02*
X79424378Y-81822952D01*
X79424378Y-81822952D02*
X79329140Y-81870571D01*
X79329140Y-81870571D02*
X79281521Y-81965809D01*
X79281521Y-81965809D02*
X79281521Y-82489619D01*
X92424380Y-84109619D02*
X92472000Y-84109619D01*
X92472000Y-84109619D02*
X92567238Y-84062000D01*
X92567238Y-84062000D02*
X92710095Y-83919142D01*
X92710095Y-83919142D02*
X92948190Y-83633428D01*
X92948190Y-83633428D02*
X93043428Y-83490571D01*
X93043428Y-83490571D02*
X93091047Y-83347714D01*
X93091047Y-83347714D02*
X93091047Y-83252476D01*
X93091047Y-83252476D02*
X93043428Y-83157238D01*
X93043428Y-83157238D02*
X92948190Y-83109619D01*
X92948190Y-83109619D02*
X92900571Y-83109619D01*
X92900571Y-83109619D02*
X92805333Y-83157238D01*
X92805333Y-83157238D02*
X92757714Y-83252476D01*
X92757714Y-83252476D02*
X92757714Y-83300095D01*
X92757714Y-83300095D02*
X92805333Y-83395333D01*
X92805333Y-83395333D02*
X92852952Y-83442952D01*
X92852952Y-83442952D02*
X93138666Y-83633428D01*
X93138666Y-83633428D02*
X93186285Y-83681047D01*
X93186285Y-83681047D02*
X93233904Y-83776285D01*
X93233904Y-83776285D02*
X93233904Y-83919142D01*
X93233904Y-83919142D02*
X93186285Y-84014380D01*
X93186285Y-84014380D02*
X93138666Y-84062000D01*
X93138666Y-84062000D02*
X93043428Y-84109619D01*
X93043428Y-84109619D02*
X92900571Y-84109619D01*
X92900571Y-84109619D02*
X92805333Y-84062000D01*
X92805333Y-84062000D02*
X92757714Y-84014380D01*
X92757714Y-84014380D02*
X92614857Y-83823904D01*
X92614857Y-83823904D02*
X92567238Y-83681047D01*
X92567238Y-83681047D02*
X92567238Y-83585809D01*
X93233904Y-85729619D02*
X93233904Y-84729619D01*
X93233904Y-84729619D02*
X92900571Y-85443904D01*
X92900571Y-85443904D02*
X92567238Y-84729619D01*
X92567238Y-84729619D02*
X92567238Y-85729619D01*
X91948190Y-85729619D02*
X92043428Y-85682000D01*
X92043428Y-85682000D02*
X92091047Y-85634380D01*
X92091047Y-85634380D02*
X92138666Y-85539142D01*
X92138666Y-85539142D02*
X92138666Y-85253428D01*
X92138666Y-85253428D02*
X92091047Y-85158190D01*
X92091047Y-85158190D02*
X92043428Y-85110571D01*
X92043428Y-85110571D02*
X91948190Y-85062952D01*
X91948190Y-85062952D02*
X91805333Y-85062952D01*
X91805333Y-85062952D02*
X91710095Y-85110571D01*
X91710095Y-85110571D02*
X91662476Y-85158190D01*
X91662476Y-85158190D02*
X91614857Y-85253428D01*
X91614857Y-85253428D02*
X91614857Y-85539142D01*
X91614857Y-85539142D02*
X91662476Y-85634380D01*
X91662476Y-85634380D02*
X91710095Y-85682000D01*
X91710095Y-85682000D02*
X91805333Y-85729619D01*
X91805333Y-85729619D02*
X91948190Y-85729619D01*
X91186285Y-85729619D02*
X91186285Y-85062952D01*
X91186285Y-85253428D02*
X91138666Y-85158190D01*
X91138666Y-85158190D02*
X91091047Y-85110571D01*
X91091047Y-85110571D02*
X90995809Y-85062952D01*
X90995809Y-85062952D02*
X90900571Y-85062952D01*
X90710094Y-85062952D02*
X90329142Y-85062952D01*
X90567237Y-84729619D02*
X90567237Y-85586761D01*
X90567237Y-85586761D02*
X90519618Y-85682000D01*
X90519618Y-85682000D02*
X90424380Y-85729619D01*
X90424380Y-85729619D02*
X90329142Y-85729619D01*
X89995808Y-85729619D02*
X89995808Y-85062952D01*
X89995808Y-84729619D02*
X90043427Y-84777238D01*
X90043427Y-84777238D02*
X89995808Y-84824857D01*
X89995808Y-84824857D02*
X89948189Y-84777238D01*
X89948189Y-84777238D02*
X89995808Y-84729619D01*
X89995808Y-84729619D02*
X89995808Y-84824857D01*
X89138666Y-85682000D02*
X89233904Y-85729619D01*
X89233904Y-85729619D02*
X89424380Y-85729619D01*
X89424380Y-85729619D02*
X89519618Y-85682000D01*
X89519618Y-85682000D02*
X89567237Y-85586761D01*
X89567237Y-85586761D02*
X89567237Y-85205809D01*
X89567237Y-85205809D02*
X89519618Y-85110571D01*
X89519618Y-85110571D02*
X89424380Y-85062952D01*
X89424380Y-85062952D02*
X89233904Y-85062952D01*
X89233904Y-85062952D02*
X89138666Y-85110571D01*
X89138666Y-85110571D02*
X89091047Y-85205809D01*
X89091047Y-85205809D02*
X89091047Y-85301047D01*
X89091047Y-85301047D02*
X89567237Y-85396285D01*
X88662475Y-85729619D02*
X88662475Y-85062952D01*
X88662475Y-85253428D02*
X88614856Y-85158190D01*
X88614856Y-85158190D02*
X88567237Y-85110571D01*
X88567237Y-85110571D02*
X88471999Y-85062952D01*
X88471999Y-85062952D02*
X88376761Y-85062952D01*
X87281522Y-85729619D02*
X87281522Y-84729619D01*
X87281522Y-84729619D02*
X86948189Y-85443904D01*
X86948189Y-85443904D02*
X86614856Y-84729619D01*
X86614856Y-84729619D02*
X86614856Y-85729619D01*
X85710094Y-85729619D02*
X85710094Y-85205809D01*
X85710094Y-85205809D02*
X85757713Y-85110571D01*
X85757713Y-85110571D02*
X85852951Y-85062952D01*
X85852951Y-85062952D02*
X86043427Y-85062952D01*
X86043427Y-85062952D02*
X86138665Y-85110571D01*
X85710094Y-85682000D02*
X85805332Y-85729619D01*
X85805332Y-85729619D02*
X86043427Y-85729619D01*
X86043427Y-85729619D02*
X86138665Y-85682000D01*
X86138665Y-85682000D02*
X86186284Y-85586761D01*
X86186284Y-85586761D02*
X86186284Y-85491523D01*
X86186284Y-85491523D02*
X86138665Y-85396285D01*
X86138665Y-85396285D02*
X86043427Y-85348666D01*
X86043427Y-85348666D02*
X85805332Y-85348666D01*
X85805332Y-85348666D02*
X85710094Y-85301047D01*
X85376760Y-85062952D02*
X84995808Y-85062952D01*
X85233903Y-84729619D02*
X85233903Y-85586761D01*
X85233903Y-85586761D02*
X85186284Y-85682000D01*
X85186284Y-85682000D02*
X85091046Y-85729619D01*
X85091046Y-85729619D02*
X84995808Y-85729619D01*
X84710093Y-85682000D02*
X84614855Y-85729619D01*
X84614855Y-85729619D02*
X84424379Y-85729619D01*
X84424379Y-85729619D02*
X84329141Y-85682000D01*
X84329141Y-85682000D02*
X84281522Y-85586761D01*
X84281522Y-85586761D02*
X84281522Y-85539142D01*
X84281522Y-85539142D02*
X84329141Y-85443904D01*
X84329141Y-85443904D02*
X84424379Y-85396285D01*
X84424379Y-85396285D02*
X84567236Y-85396285D01*
X84567236Y-85396285D02*
X84662474Y-85348666D01*
X84662474Y-85348666D02*
X84710093Y-85253428D01*
X84710093Y-85253428D02*
X84710093Y-85205809D01*
X84710093Y-85205809D02*
X84662474Y-85110571D01*
X84662474Y-85110571D02*
X84567236Y-85062952D01*
X84567236Y-85062952D02*
X84424379Y-85062952D01*
X84424379Y-85062952D02*
X84329141Y-85110571D01*
M02*
