M48
; DRILL file {KiCad 7.0.1} date Tue Mar 21 17:25:15 2023
; FORMAT={-:-/ absolute / inch / decimal}
; #@! TF.CreationDate,2023-03-21T17:25:15+01:00
; #@! TF.GenerationSoftware,Kicad,Pcbnew,7.0.1
; #@! TF.FileFunction,MixedPlating,1,2
FMAT,2
INCH
; #@! TA.AperFunction,Plated,PTH,ComponentDrill
T1C0.0118
; #@! TA.AperFunction,Plated,PTH,ViaDrill
T2C0.0157
; #@! TA.AperFunction,Plated,PTH,ComponentDrill
T3C0.0315
; #@! TA.AperFunction,Plated,PTH,ComponentDrill
T4C0.0394
; #@! TA.AperFunction,Plated,PTH,ComponentDrill
T5C0.0500
%
G90
G05
T1
X4.4923Y-3.3027
X4.4923Y-3.3627
X4.5223Y-3.2726
X4.5223Y-3.3327
X4.5223Y-3.3927
X4.5524Y-3.3027
X4.5524Y-3.3627
X4.5824Y-3.2726
X4.5824Y-3.3327
X4.5824Y-3.3927
X4.6124Y-3.3027
X4.6124Y-3.3627
T2
X3.19Y-3.66
X3.2Y-3.35
X3.24Y-4.12
X3.37Y-2.87
X3.6Y-3.62
X4.01Y-4.29
X4.04Y-3.03
X4.1Y-3.37
X4.15Y-3.6
X4.15Y-3.66
X4.34Y-4.05
X4.355Y-3.73
X4.37Y-3.315
X4.4Y-3.82
X4.4Y-4.2
X4.54Y-3.02
X4.62Y-3.595
X4.64Y-3.9
X4.69Y-3.09
X4.81Y-4.09
X4.82Y-3.22
X4.89Y-3.88
X4.92Y-3.24
X4.93Y-3.65
X4.99Y-4.12
X5.0Y-3.16
X5.0Y-3.42
X5.05Y-4.3
X5.12Y-3.5
X5.13Y-3.08
X5.19Y-3.97
X5.4Y-3.11
X5.55Y-3.91
T3
X3.9276Y-4.36
X4.0063Y-4.36
X4.085Y-4.36
X4.1638Y-4.36
X4.2425Y-4.36
X4.3213Y-4.36
X4.4Y-4.36
X4.4787Y-4.36
X4.5575Y-4.36
X4.8575Y-4.24
X4.8576Y-4.37
X4.9363Y-4.24
X4.9363Y-4.37
X5.015Y-4.24
X5.015Y-4.37
X5.0937Y-4.24
X5.0938Y-4.37
X5.1725Y-4.24
X5.1725Y-4.37
X5.2512Y-4.24
X5.2513Y-4.37
X5.33Y-4.24
X5.33Y-4.37
X5.4087Y-4.24
X5.4087Y-4.37
X5.46Y-3.0913
X5.46Y-3.17
X5.46Y-3.2487
X5.46Y-3.3275
X5.4874Y-4.24
X5.4875Y-4.37
T5
X3.205Y-3.0987
X3.205Y-3.8287
X3.305Y-3.0987
X3.305Y-3.8287
X3.625Y-3.0987
X3.625Y-3.8287
X3.725Y-3.0987
X3.725Y-3.8287
T4
G00X3.442Y-4.0667
M15
G01X3.442Y-4.1533
M16
G05
G00X3.6191Y-4.299
M15
G01X3.5325Y-4.299
M16
G05
G00X3.69Y-4.0588
M15
G01X3.69Y-4.1612
M16
G05
T0
M30
