%TF.GenerationSoftware,KiCad,Pcbnew,7.0.1*%
%TF.CreationDate,2023-03-21T17:25:17+01:00*%
%TF.ProjectId,PCB_uitlezen_gsm,5043425f-7569-4746-9c65-7a656e5f6773,rev?*%
%TF.SameCoordinates,Original*%
%TF.FileFunction,Soldermask,Top*%
%TF.FilePolarity,Negative*%
%FSLAX46Y46*%
G04 Gerber Fmt 4.6, Leading zero omitted, Abs format (unit mm)*
G04 Created by KiCad (PCBNEW 7.0.1) date 2023-03-21 17:25:17*
%MOMM*%
%LPD*%
G01*
G04 APERTURE LIST*
G04 Aperture macros list*
%AMRoundRect*
0 Rectangle with rounded corners*
0 $1 Rounding radius*
0 $2 $3 $4 $5 $6 $7 $8 $9 X,Y pos of 4 corners*
0 Add a 4 corners polygon primitive as box body*
4,1,4,$2,$3,$4,$5,$6,$7,$8,$9,$2,$3,0*
0 Add four circle primitives for the rounded corners*
1,1,$1+$1,$2,$3*
1,1,$1+$1,$4,$5*
1,1,$1+$1,$6,$7*
1,1,$1+$1,$8,$9*
0 Add four rect primitives between the rounded corners*
20,1,$1+$1,$2,$3,$4,$5,0*
20,1,$1+$1,$4,$5,$6,$7,0*
20,1,$1+$1,$6,$7,$8,$9,0*
20,1,$1+$1,$8,$9,$2,$3,0*%
G04 Aperture macros list end*
%ADD10RoundRect,0.250000X0.350000X0.450000X-0.350000X0.450000X-0.350000X-0.450000X0.350000X-0.450000X0*%
%ADD11RoundRect,0.250000X-0.350000X-0.450000X0.350000X-0.450000X0.350000X0.450000X-0.350000X0.450000X0*%
%ADD12RoundRect,0.250000X0.325000X0.450000X-0.325000X0.450000X-0.325000X-0.450000X0.325000X-0.450000X0*%
%ADD13RoundRect,0.250000X0.337500X0.475000X-0.337500X0.475000X-0.337500X-0.475000X0.337500X-0.475000X0*%
%ADD14R,1.350000X1.350000*%
%ADD15O,1.350000X1.350000*%
%ADD16RoundRect,0.250000X-0.450000X0.350000X-0.450000X-0.350000X0.450000X-0.350000X0.450000X0.350000X0*%
%ADD17C,2.032000*%
%ADD18RoundRect,0.250000X-0.475000X0.337500X-0.475000X-0.337500X0.475000X-0.337500X0.475000X0.337500X0*%
%ADD19R,1.500000X2.000000*%
%ADD20R,3.800000X2.000000*%
%ADD21R,1.600000X0.760000*%
%ADD22R,2.000000X4.600000*%
%ADD23O,2.000000X4.200000*%
%ADD24O,4.200000X2.000000*%
%ADD25RoundRect,0.250000X0.475000X-0.337500X0.475000X0.337500X-0.475000X0.337500X-0.475000X-0.337500X0*%
%ADD26R,1.500000X0.900000*%
%ADD27R,0.900000X1.500000*%
%ADD28C,0.600000*%
%ADD29R,4.200000X4.200000*%
G04 APERTURE END LIST*
D10*
%TO.C,R7*%
X124190000Y-103886000D03*
X122190000Y-103886000D03*
%TD*%
%TO.C,R6*%
X130032000Y-88900000D03*
X128032000Y-88900000D03*
%TD*%
%TO.C,R3*%
X124190000Y-98552000D03*
X122190000Y-98552000D03*
%TD*%
D11*
%TO.C,R1*%
X98568000Y-79756000D03*
X100568000Y-79756000D03*
%TD*%
D12*
%TO.C,D1*%
X124215000Y-101092000D03*
X122165000Y-101092000D03*
%TD*%
D13*
%TO.C,C1*%
X104669500Y-76962000D03*
X102594500Y-76962000D03*
%TD*%
%TO.C,C2*%
X100097500Y-85852000D03*
X98022500Y-85852000D03*
%TD*%
D14*
%TO.C,SCHERM3*%
X115760000Y-110744000D03*
D15*
X113760000Y-110744000D03*
X111760000Y-110744000D03*
X109760000Y-110744000D03*
X107760000Y-110744000D03*
X105760000Y-110744000D03*
X103760000Y-110744000D03*
X101760000Y-110744000D03*
X99760000Y-110744000D03*
%TD*%
D16*
%TO.C,R5*%
X135382000Y-78010000D03*
X135382000Y-80010000D03*
%TD*%
D10*
%TO.C,R2*%
X129778000Y-96012000D03*
X127778000Y-96012000D03*
%TD*%
D17*
%TO.C,U2*%
X81407000Y-97250000D03*
X83947000Y-97250000D03*
X92075000Y-97250000D03*
X94615000Y-97250000D03*
X94615000Y-78708000D03*
X92075000Y-78708000D03*
X83947000Y-78708000D03*
X81407000Y-78708000D03*
%TD*%
D14*
%TO.C,SCHERM1*%
X139381000Y-107696000D03*
D15*
X137381000Y-107696000D03*
X135381000Y-107696000D03*
X133381000Y-107696000D03*
X131381000Y-107696000D03*
X129381000Y-107696000D03*
X127381000Y-107696000D03*
X125381000Y-107696000D03*
X123381000Y-107696000D03*
%TD*%
D14*
%TO.C,J1*%
X138684000Y-84518000D03*
D15*
X138684000Y-82518000D03*
X138684000Y-80518000D03*
X138684000Y-78518000D03*
%TD*%
D18*
%TO.C,C4*%
X98806000Y-97514500D03*
X98806000Y-99589500D03*
%TD*%
D10*
%TO.C,R4*%
X129778000Y-98298000D03*
X127778000Y-98298000D03*
%TD*%
D19*
%TO.C,U3*%
X103392000Y-88646000D03*
X101092000Y-88646000D03*
D20*
X101092000Y-94946000D03*
D19*
X98792000Y-88646000D03*
%TD*%
D21*
%TO.C,SW2*%
X128270000Y-92456000D03*
X135890000Y-92456000D03*
%TD*%
D22*
%TO.C,J2*%
X93726000Y-104394000D03*
D23*
X87426000Y-104394000D03*
D24*
X90826000Y-109194000D03*
%TD*%
D25*
%TO.C,C3*%
X101346000Y-99568000D03*
X101346000Y-97493000D03*
%TD*%
D26*
%TO.C,U1*%
X107560000Y-77310000D03*
X107560000Y-78580000D03*
X107560000Y-79850000D03*
X107560000Y-81120000D03*
X107560000Y-82390000D03*
X107560000Y-83660000D03*
X107560000Y-84930000D03*
X107560000Y-86200000D03*
X107560000Y-87470000D03*
X107560000Y-88740000D03*
X107560000Y-90010000D03*
X107560000Y-91280000D03*
X107560000Y-92550000D03*
X107560000Y-93820000D03*
D27*
X110600000Y-95070000D03*
X111870000Y-95070000D03*
X113140000Y-95070000D03*
X114410000Y-95070000D03*
X115680000Y-95070000D03*
X116950000Y-95070000D03*
X118220000Y-95070000D03*
X119490000Y-95070000D03*
X120760000Y-95070000D03*
X122030000Y-95070000D03*
D26*
X125060000Y-93820000D03*
X125060000Y-92550000D03*
X125060000Y-91280000D03*
X125060000Y-90010000D03*
X125060000Y-88740000D03*
X125060000Y-87470000D03*
X125060000Y-86200000D03*
X125060000Y-84930000D03*
X125060000Y-83660000D03*
X125060000Y-82390000D03*
X125060000Y-81120000D03*
X125060000Y-79850000D03*
X125060000Y-78580000D03*
X125060000Y-77310000D03*
D28*
X114105000Y-83887500D03*
X114105000Y-85412500D03*
X114867500Y-83125000D03*
X114867500Y-84650000D03*
X114867500Y-86175000D03*
X115630000Y-83887500D03*
D29*
X115630000Y-84650000D03*
D28*
X115630000Y-85412500D03*
X116392500Y-83125000D03*
X116392500Y-84650000D03*
X116392500Y-86175000D03*
X117155000Y-83887500D03*
X117155000Y-85412500D03*
%TD*%
D14*
%TO.C,SCHERM2*%
X139382000Y-110998000D03*
D15*
X137382000Y-110998000D03*
X135382000Y-110998000D03*
X133382000Y-110998000D03*
X131382000Y-110998000D03*
X129382000Y-110998000D03*
X127382000Y-110998000D03*
X125382000Y-110998000D03*
X123382000Y-110998000D03*
%TD*%
D12*
%TO.C,D2*%
X129803000Y-100838000D03*
X127753000Y-100838000D03*
%TD*%
D21*
%TO.C,SW1*%
X105156000Y-82804000D03*
X97536000Y-82804000D03*
%TD*%
M02*
