%TF.GenerationSoftware,KiCad,Pcbnew,(7.0.0)*%
%TF.CreationDate,2023-04-20T18:18:11+02:00*%
%TF.ProjectId,PCB_uitlezen_gsm,5043425f-7569-4746-9c65-7a656e5f6773,rev?*%
%TF.SameCoordinates,Original*%
%TF.FileFunction,Paste,Top*%
%TF.FilePolarity,Positive*%
%FSLAX46Y46*%
G04 Gerber Fmt 4.6, Leading zero omitted, Abs format (unit mm)*
G04 Created by KiCad (PCBNEW (7.0.0)) date 2023-04-20 18:18:11*
%MOMM*%
%LPD*%
G01*
G04 APERTURE LIST*
G04 Aperture macros list*
%AMRoundRect*
0 Rectangle with rounded corners*
0 $1 Rounding radius*
0 $2 $3 $4 $5 $6 $7 $8 $9 X,Y pos of 4 corners*
0 Add a 4 corners polygon primitive as box body*
4,1,4,$2,$3,$4,$5,$6,$7,$8,$9,$2,$3,0*
0 Add four circle primitives for the rounded corners*
1,1,$1+$1,$2,$3*
1,1,$1+$1,$4,$5*
1,1,$1+$1,$6,$7*
1,1,$1+$1,$8,$9*
0 Add four rect primitives between the rounded corners*
20,1,$1+$1,$2,$3,$4,$5,0*
20,1,$1+$1,$4,$5,$6,$7,0*
20,1,$1+$1,$6,$7,$8,$9,0*
20,1,$1+$1,$8,$9,$2,$3,0*%
G04 Aperture macros list end*
%ADD10RoundRect,0.250000X0.350000X0.450000X-0.350000X0.450000X-0.350000X-0.450000X0.350000X-0.450000X0*%
%ADD11RoundRect,0.250000X-0.350000X-0.450000X0.350000X-0.450000X0.350000X0.450000X-0.350000X0.450000X0*%
%ADD12RoundRect,0.250000X0.325000X0.450000X-0.325000X0.450000X-0.325000X-0.450000X0.325000X-0.450000X0*%
%ADD13RoundRect,0.250000X0.337500X0.475000X-0.337500X0.475000X-0.337500X-0.475000X0.337500X-0.475000X0*%
%ADD14RoundRect,0.250000X-0.450000X0.350000X-0.450000X-0.350000X0.450000X-0.350000X0.450000X0.350000X0*%
%ADD15RoundRect,0.250000X-0.475000X0.337500X-0.475000X-0.337500X0.475000X-0.337500X0.475000X0.337500X0*%
%ADD16R,1.500000X2.000000*%
%ADD17R,3.800000X2.000000*%
%ADD18R,1.600000X0.760000*%
%ADD19RoundRect,0.250000X0.475000X-0.337500X0.475000X0.337500X-0.475000X0.337500X-0.475000X-0.337500X0*%
%ADD20R,1.500000X0.900000*%
%ADD21R,0.900000X1.500000*%
%ADD22R,1.050000X1.050000*%
G04 APERTURE END LIST*
D10*
%TO.C,R7*%
X124190000Y-103886000D03*
X122190000Y-103886000D03*
%TD*%
%TO.C,R6*%
X130032000Y-88900000D03*
X128032000Y-88900000D03*
%TD*%
%TO.C,R3*%
X124190000Y-98552000D03*
X122190000Y-98552000D03*
%TD*%
D11*
%TO.C,R1*%
X98568000Y-79756000D03*
X100568000Y-79756000D03*
%TD*%
D12*
%TO.C,D1*%
X124215000Y-101092000D03*
X122165000Y-101092000D03*
%TD*%
D13*
%TO.C,C1*%
X104669500Y-76962000D03*
X102594500Y-76962000D03*
%TD*%
%TO.C,C2*%
X100097500Y-85852000D03*
X98022500Y-85852000D03*
%TD*%
D14*
%TO.C,R5*%
X135382000Y-78010000D03*
X135382000Y-80010000D03*
%TD*%
D10*
%TO.C,R2*%
X129778000Y-96012000D03*
X127778000Y-96012000D03*
%TD*%
D15*
%TO.C,C4*%
X98806000Y-97514500D03*
X98806000Y-99589500D03*
%TD*%
D10*
%TO.C,R4*%
X129778000Y-98298000D03*
X127778000Y-98298000D03*
%TD*%
D16*
%TO.C,U3*%
X103391999Y-88645999D03*
X101091999Y-88645999D03*
D17*
X101091999Y-94945999D03*
D16*
X98791999Y-88645999D03*
%TD*%
D18*
%TO.C,SW2*%
X128269999Y-92455999D03*
X135889999Y-92455999D03*
%TD*%
D19*
%TO.C,C3*%
X101346000Y-99568000D03*
X101346000Y-97493000D03*
%TD*%
D20*
%TO.C,U1*%
X107559999Y-77309999D03*
X107559999Y-78579999D03*
X107559999Y-79849999D03*
X107559999Y-81119999D03*
X107559999Y-82389999D03*
X107559999Y-83659999D03*
X107559999Y-84929999D03*
X107559999Y-86199999D03*
X107559999Y-87469999D03*
X107559999Y-88739999D03*
X107559999Y-90009999D03*
X107559999Y-91279999D03*
X107559999Y-92549999D03*
X107559999Y-93819999D03*
D21*
X110599999Y-95069999D03*
X111869999Y-95069999D03*
X113139999Y-95069999D03*
X114409999Y-95069999D03*
X115679999Y-95069999D03*
X116949999Y-95069999D03*
X118219999Y-95069999D03*
X119489999Y-95069999D03*
X120759999Y-95069999D03*
X122029999Y-95069999D03*
D20*
X125059999Y-93819999D03*
X125059999Y-92549999D03*
X125059999Y-91279999D03*
X125059999Y-90009999D03*
X125059999Y-88739999D03*
X125059999Y-87469999D03*
X125059999Y-86199999D03*
X125059999Y-84929999D03*
X125059999Y-83659999D03*
X125059999Y-82389999D03*
X125059999Y-81119999D03*
X125059999Y-79849999D03*
X125059999Y-78579999D03*
X125059999Y-77309999D03*
D22*
X114104999Y-83124999D03*
X114104999Y-84649999D03*
X114104999Y-86174999D03*
X115629999Y-83124999D03*
X115629999Y-84649999D03*
X115629999Y-86174999D03*
X117154999Y-83124999D03*
X117154999Y-84649999D03*
X117154999Y-86174999D03*
%TD*%
D12*
%TO.C,D2*%
X129803000Y-100838000D03*
X127753000Y-100838000D03*
%TD*%
D18*
%TO.C,SW1*%
X105155999Y-82803999D03*
X97535999Y-82803999D03*
%TD*%
M02*
