M48
; DRILL file {KiCad (7.0.0)} date Thu Apr 20 18:17:59 2023
; FORMAT={-:-/ absolute / inch / decimal}
; #@! TF.CreationDate,2023-04-20T18:17:59+02:00
; #@! TF.GenerationSoftware,Kicad,Pcbnew,(7.0.0)
; #@! TF.FileFunction,MixedPlating,1,2
FMAT,2
INCH
; #@! TA.AperFunction,Plated,PTH,ComponentDrill
T1C0.0118
; #@! TA.AperFunction,Plated,PTH,ViaDrill
T2C0.0157
; #@! TA.AperFunction,Plated,PTH,ComponentDrill
T3C0.0394
; #@! TA.AperFunction,Plated,PTH,ComponentDrill
T4C0.0500
%
G90
G05
T1
X4.4923Y-3.3027
X4.4923Y-3.3627
X4.5223Y-3.2726
X4.5223Y-3.3327
X4.5223Y-3.3927
X4.5524Y-3.3027
X4.5524Y-3.3627
X4.5824Y-3.2726
X4.5824Y-3.3327
X4.5824Y-3.3927
X4.6124Y-3.3027
X4.6124Y-3.3627
T2
X3.19Y-3.66
X3.2Y-3.35
X3.24Y-4.12
X3.37Y-2.87
X3.6Y-3.62
X3.86Y-4.28
X3.89Y-3.93
X4.04Y-3.03
X4.1Y-3.37
X4.15Y-3.6
X4.15Y-3.66
X4.34Y-4.05
X4.355Y-3.73
X4.37Y-3.315
X4.4Y-3.82
X4.4Y-4.2
X4.54Y-3.02
X4.62Y-3.595
X4.64Y-3.9
X4.69Y-3.09
X4.81Y-4.09
X4.82Y-3.22
X4.84Y-4.29
X4.89Y-3.88
X4.92Y-3.24
X4.93Y-3.65
X4.99Y-4.12
X5.0Y-3.16
X5.0Y-3.42
X5.12Y-3.5
X5.13Y-3.08
X5.19Y-3.97
X5.33Y-3.15
X5.66Y-3.81
T3
X3.76Y-4.4
X3.86Y-4.4
X3.96Y-4.4
X4.06Y-4.4
X4.16Y-4.4
X4.26Y-4.4
X4.36Y-4.4
X4.46Y-4.4
X4.56Y-4.4
X4.74Y-4.23
X4.75Y-4.4
X4.84Y-4.23
X4.85Y-4.4
X4.94Y-4.23
X4.95Y-4.4
X5.04Y-4.23
X5.05Y-4.4
X5.14Y-4.23
X5.15Y-4.4
X5.24Y-4.23
X5.25Y-4.4
X5.34Y-4.23
X5.35Y-4.4
X5.44Y-4.23
X5.45Y-4.4
X5.46Y-3.1096
X5.46Y-3.2096
X5.46Y-3.3096
X5.46Y-3.4096
X5.54Y-4.23
X5.55Y-4.4
T4
X3.205Y-3.0987
X3.205Y-3.8287
X3.305Y-3.0987
X3.305Y-3.8287
X3.625Y-3.0987
X3.625Y-3.8287
X3.725Y-3.0987
X3.725Y-3.8287
T3
G00X3.372Y-4.0667
M15
G01X3.372Y-4.1533
M16
G05
G00X3.5491Y-4.299
M15
G01X3.4625Y-4.299
M16
G05
G00X3.62Y-4.0588
M15
G01X3.62Y-4.1612
M16
G05
T0
M30
