%TF.GenerationSoftware,KiCad,Pcbnew,(7.0.0)*%
%TF.CreationDate,2023-04-20T18:18:11+02:00*%
%TF.ProjectId,PCB_uitlezen_gsm,5043425f-7569-4746-9c65-7a656e5f6773,rev?*%
%TF.SameCoordinates,Original*%
%TF.FileFunction,Legend,Bot*%
%TF.FilePolarity,Positive*%
%FSLAX46Y46*%
G04 Gerber Fmt 4.6, Leading zero omitted, Abs format (unit mm)*
G04 Created by KiCad (PCBNEW (7.0.0)) date 2023-04-20 18:18:11*
%MOMM*%
%LPD*%
G01*
G04 APERTURE LIST*
%ADD10C,0.200000*%
G04 APERTURE END LIST*
D10*
X93233904Y-87936380D02*
X93233904Y-88745904D01*
X93233904Y-88745904D02*
X93186285Y-88841142D01*
X93186285Y-88841142D02*
X93138666Y-88888761D01*
X93138666Y-88888761D02*
X93043428Y-88936380D01*
X93043428Y-88936380D02*
X92852952Y-88936380D01*
X92852952Y-88936380D02*
X92757714Y-88888761D01*
X92757714Y-88888761D02*
X92710095Y-88841142D01*
X92710095Y-88841142D02*
X92662476Y-88745904D01*
X92662476Y-88745904D02*
X92662476Y-87936380D01*
X92186285Y-88936380D02*
X92186285Y-88269714D01*
X92186285Y-87936380D02*
X92233904Y-87984000D01*
X92233904Y-87984000D02*
X92186285Y-88031619D01*
X92186285Y-88031619D02*
X92138666Y-87984000D01*
X92138666Y-87984000D02*
X92186285Y-87936380D01*
X92186285Y-87936380D02*
X92186285Y-88031619D01*
X91852952Y-88269714D02*
X91472000Y-88269714D01*
X91710095Y-87936380D02*
X91710095Y-88793523D01*
X91710095Y-88793523D02*
X91662476Y-88888761D01*
X91662476Y-88888761D02*
X91567238Y-88936380D01*
X91567238Y-88936380D02*
X91472000Y-88936380D01*
X90995809Y-88936380D02*
X91091047Y-88888761D01*
X91091047Y-88888761D02*
X91138666Y-88793523D01*
X91138666Y-88793523D02*
X91138666Y-87936380D01*
X90233904Y-88888761D02*
X90329142Y-88936380D01*
X90329142Y-88936380D02*
X90519618Y-88936380D01*
X90519618Y-88936380D02*
X90614856Y-88888761D01*
X90614856Y-88888761D02*
X90662475Y-88793523D01*
X90662475Y-88793523D02*
X90662475Y-88412571D01*
X90662475Y-88412571D02*
X90614856Y-88317333D01*
X90614856Y-88317333D02*
X90519618Y-88269714D01*
X90519618Y-88269714D02*
X90329142Y-88269714D01*
X90329142Y-88269714D02*
X90233904Y-88317333D01*
X90233904Y-88317333D02*
X90186285Y-88412571D01*
X90186285Y-88412571D02*
X90186285Y-88507809D01*
X90186285Y-88507809D02*
X90662475Y-88603047D01*
X89852951Y-88269714D02*
X89329142Y-88269714D01*
X89329142Y-88269714D02*
X89852951Y-88936380D01*
X89852951Y-88936380D02*
X89329142Y-88936380D01*
X88567237Y-88888761D02*
X88662475Y-88936380D01*
X88662475Y-88936380D02*
X88852951Y-88936380D01*
X88852951Y-88936380D02*
X88948189Y-88888761D01*
X88948189Y-88888761D02*
X88995808Y-88793523D01*
X88995808Y-88793523D02*
X88995808Y-88412571D01*
X88995808Y-88412571D02*
X88948189Y-88317333D01*
X88948189Y-88317333D02*
X88852951Y-88269714D01*
X88852951Y-88269714D02*
X88662475Y-88269714D01*
X88662475Y-88269714D02*
X88567237Y-88317333D01*
X88567237Y-88317333D02*
X88519618Y-88412571D01*
X88519618Y-88412571D02*
X88519618Y-88507809D01*
X88519618Y-88507809D02*
X88995808Y-88603047D01*
X88091046Y-88269714D02*
X88091046Y-88936380D01*
X88091046Y-88364952D02*
X88043427Y-88317333D01*
X88043427Y-88317333D02*
X87948189Y-88269714D01*
X87948189Y-88269714D02*
X87805332Y-88269714D01*
X87805332Y-88269714D02*
X87710094Y-88317333D01*
X87710094Y-88317333D02*
X87662475Y-88412571D01*
X87662475Y-88412571D02*
X87662475Y-88936380D01*
X86157713Y-88269714D02*
X86157713Y-89079238D01*
X86157713Y-89079238D02*
X86205332Y-89174476D01*
X86205332Y-89174476D02*
X86252951Y-89222095D01*
X86252951Y-89222095D02*
X86348189Y-89269714D01*
X86348189Y-89269714D02*
X86491046Y-89269714D01*
X86491046Y-89269714D02*
X86586284Y-89222095D01*
X86157713Y-88888761D02*
X86252951Y-88936380D01*
X86252951Y-88936380D02*
X86443427Y-88936380D01*
X86443427Y-88936380D02*
X86538665Y-88888761D01*
X86538665Y-88888761D02*
X86586284Y-88841142D01*
X86586284Y-88841142D02*
X86633903Y-88745904D01*
X86633903Y-88745904D02*
X86633903Y-88460190D01*
X86633903Y-88460190D02*
X86586284Y-88364952D01*
X86586284Y-88364952D02*
X86538665Y-88317333D01*
X86538665Y-88317333D02*
X86443427Y-88269714D01*
X86443427Y-88269714D02*
X86252951Y-88269714D01*
X86252951Y-88269714D02*
X86157713Y-88317333D01*
X85729141Y-88888761D02*
X85633903Y-88936380D01*
X85633903Y-88936380D02*
X85443427Y-88936380D01*
X85443427Y-88936380D02*
X85348189Y-88888761D01*
X85348189Y-88888761D02*
X85300570Y-88793523D01*
X85300570Y-88793523D02*
X85300570Y-88745904D01*
X85300570Y-88745904D02*
X85348189Y-88650666D01*
X85348189Y-88650666D02*
X85443427Y-88603047D01*
X85443427Y-88603047D02*
X85586284Y-88603047D01*
X85586284Y-88603047D02*
X85681522Y-88555428D01*
X85681522Y-88555428D02*
X85729141Y-88460190D01*
X85729141Y-88460190D02*
X85729141Y-88412571D01*
X85729141Y-88412571D02*
X85681522Y-88317333D01*
X85681522Y-88317333D02*
X85586284Y-88269714D01*
X85586284Y-88269714D02*
X85443427Y-88269714D01*
X85443427Y-88269714D02*
X85348189Y-88317333D01*
X84871998Y-88936380D02*
X84871998Y-88269714D01*
X84871998Y-88364952D02*
X84824379Y-88317333D01*
X84824379Y-88317333D02*
X84729141Y-88269714D01*
X84729141Y-88269714D02*
X84586284Y-88269714D01*
X84586284Y-88269714D02*
X84491046Y-88317333D01*
X84491046Y-88317333D02*
X84443427Y-88412571D01*
X84443427Y-88412571D02*
X84443427Y-88936380D01*
X84443427Y-88412571D02*
X84395808Y-88317333D01*
X84395808Y-88317333D02*
X84300570Y-88269714D01*
X84300570Y-88269714D02*
X84157713Y-88269714D01*
X84157713Y-88269714D02*
X84062474Y-88317333D01*
X84062474Y-88317333D02*
X84014855Y-88412571D01*
X84014855Y-88412571D02*
X84014855Y-88936380D01*
X83491046Y-87936380D02*
X83586284Y-88126857D01*
X83110094Y-88888761D02*
X83014856Y-88936380D01*
X83014856Y-88936380D02*
X82824380Y-88936380D01*
X82824380Y-88936380D02*
X82729142Y-88888761D01*
X82729142Y-88888761D02*
X82681523Y-88793523D01*
X82681523Y-88793523D02*
X82681523Y-88745904D01*
X82681523Y-88745904D02*
X82729142Y-88650666D01*
X82729142Y-88650666D02*
X82824380Y-88603047D01*
X82824380Y-88603047D02*
X82967237Y-88603047D01*
X82967237Y-88603047D02*
X83062475Y-88555428D01*
X83062475Y-88555428D02*
X83110094Y-88460190D01*
X83110094Y-88460190D02*
X83110094Y-88412571D01*
X83110094Y-88412571D02*
X83062475Y-88317333D01*
X83062475Y-88317333D02*
X82967237Y-88269714D01*
X82967237Y-88269714D02*
X82824380Y-88269714D01*
X82824380Y-88269714D02*
X82729142Y-88317333D01*
X92710095Y-81442000D02*
X92805333Y-81394380D01*
X92805333Y-81394380D02*
X92948190Y-81394380D01*
X92948190Y-81394380D02*
X93091047Y-81442000D01*
X93091047Y-81442000D02*
X93186285Y-81537238D01*
X93186285Y-81537238D02*
X93233904Y-81632476D01*
X93233904Y-81632476D02*
X93281523Y-81822952D01*
X93281523Y-81822952D02*
X93281523Y-81965809D01*
X93281523Y-81965809D02*
X93233904Y-82156285D01*
X93233904Y-82156285D02*
X93186285Y-82251523D01*
X93186285Y-82251523D02*
X93091047Y-82346761D01*
X93091047Y-82346761D02*
X92948190Y-82394380D01*
X92948190Y-82394380D02*
X92852952Y-82394380D01*
X92852952Y-82394380D02*
X92710095Y-82346761D01*
X92710095Y-82346761D02*
X92662476Y-82299142D01*
X92662476Y-82299142D02*
X92662476Y-81965809D01*
X92662476Y-81965809D02*
X92852952Y-81965809D01*
X92233904Y-82394380D02*
X92233904Y-81394380D01*
X91805333Y-82394380D02*
X91805333Y-81870571D01*
X91805333Y-81870571D02*
X91852952Y-81775333D01*
X91852952Y-81775333D02*
X91948190Y-81727714D01*
X91948190Y-81727714D02*
X92091047Y-81727714D01*
X92091047Y-81727714D02*
X92186285Y-81775333D01*
X92186285Y-81775333D02*
X92233904Y-81822952D01*
X90948190Y-82346761D02*
X91043428Y-82394380D01*
X91043428Y-82394380D02*
X91233904Y-82394380D01*
X91233904Y-82394380D02*
X91329142Y-82346761D01*
X91329142Y-82346761D02*
X91376761Y-82251523D01*
X91376761Y-82251523D02*
X91376761Y-81870571D01*
X91376761Y-81870571D02*
X91329142Y-81775333D01*
X91329142Y-81775333D02*
X91233904Y-81727714D01*
X91233904Y-81727714D02*
X91043428Y-81727714D01*
X91043428Y-81727714D02*
X90948190Y-81775333D01*
X90948190Y-81775333D02*
X90900571Y-81870571D01*
X90900571Y-81870571D02*
X90900571Y-81965809D01*
X90900571Y-81965809D02*
X91376761Y-82061047D01*
X90567237Y-81727714D02*
X90329142Y-82394380D01*
X90091047Y-81727714D02*
X90329142Y-82394380D01*
X90329142Y-82394380D02*
X90424380Y-82632476D01*
X90424380Y-82632476D02*
X90471999Y-82680095D01*
X90471999Y-82680095D02*
X90567237Y-82727714D01*
X89757713Y-82346761D02*
X89662475Y-82394380D01*
X89662475Y-82394380D02*
X89471999Y-82394380D01*
X89471999Y-82394380D02*
X89376761Y-82346761D01*
X89376761Y-82346761D02*
X89329142Y-82251523D01*
X89329142Y-82251523D02*
X89329142Y-82203904D01*
X89329142Y-82203904D02*
X89376761Y-82108666D01*
X89376761Y-82108666D02*
X89471999Y-82061047D01*
X89471999Y-82061047D02*
X89614856Y-82061047D01*
X89614856Y-82061047D02*
X89710094Y-82013428D01*
X89710094Y-82013428D02*
X89757713Y-81918190D01*
X89757713Y-81918190D02*
X89757713Y-81870571D01*
X89757713Y-81870571D02*
X89710094Y-81775333D01*
X89710094Y-81775333D02*
X89614856Y-81727714D01*
X89614856Y-81727714D02*
X89471999Y-81727714D01*
X89471999Y-81727714D02*
X89376761Y-81775333D01*
X88519618Y-82346761D02*
X88614856Y-82394380D01*
X88614856Y-82394380D02*
X88805332Y-82394380D01*
X88805332Y-82394380D02*
X88900570Y-82346761D01*
X88900570Y-82346761D02*
X88948189Y-82251523D01*
X88948189Y-82251523D02*
X88948189Y-81870571D01*
X88948189Y-81870571D02*
X88900570Y-81775333D01*
X88900570Y-81775333D02*
X88805332Y-81727714D01*
X88805332Y-81727714D02*
X88614856Y-81727714D01*
X88614856Y-81727714D02*
X88519618Y-81775333D01*
X88519618Y-81775333D02*
X88471999Y-81870571D01*
X88471999Y-81870571D02*
X88471999Y-81965809D01*
X88471999Y-81965809D02*
X88948189Y-82061047D01*
X88043427Y-81727714D02*
X88043427Y-82394380D01*
X88043427Y-81822952D02*
X87995808Y-81775333D01*
X87995808Y-81775333D02*
X87900570Y-81727714D01*
X87900570Y-81727714D02*
X87757713Y-81727714D01*
X87757713Y-81727714D02*
X87662475Y-81775333D01*
X87662475Y-81775333D02*
X87614856Y-81870571D01*
X87614856Y-81870571D02*
X87614856Y-82394380D01*
X87186284Y-82346761D02*
X87091046Y-82394380D01*
X87091046Y-82394380D02*
X86900570Y-82394380D01*
X86900570Y-82394380D02*
X86805332Y-82346761D01*
X86805332Y-82346761D02*
X86757713Y-82251523D01*
X86757713Y-82251523D02*
X86757713Y-82203904D01*
X86757713Y-82203904D02*
X86805332Y-82108666D01*
X86805332Y-82108666D02*
X86900570Y-82061047D01*
X86900570Y-82061047D02*
X87043427Y-82061047D01*
X87043427Y-82061047D02*
X87138665Y-82013428D01*
X87138665Y-82013428D02*
X87186284Y-81918190D01*
X87186284Y-81918190D02*
X87186284Y-81870571D01*
X87186284Y-81870571D02*
X87138665Y-81775333D01*
X87138665Y-81775333D02*
X87043427Y-81727714D01*
X87043427Y-81727714D02*
X86900570Y-81727714D01*
X86900570Y-81727714D02*
X86805332Y-81775333D01*
X85443427Y-81394380D02*
X85443427Y-82108666D01*
X85443427Y-82108666D02*
X85491046Y-82251523D01*
X85491046Y-82251523D02*
X85586284Y-82346761D01*
X85586284Y-82346761D02*
X85729141Y-82394380D01*
X85729141Y-82394380D02*
X85824379Y-82394380D01*
X84824379Y-82394380D02*
X84919617Y-82346761D01*
X84919617Y-82346761D02*
X84967236Y-82299142D01*
X84967236Y-82299142D02*
X85014855Y-82203904D01*
X85014855Y-82203904D02*
X85014855Y-81918190D01*
X85014855Y-81918190D02*
X84967236Y-81822952D01*
X84967236Y-81822952D02*
X84919617Y-81775333D01*
X84919617Y-81775333D02*
X84824379Y-81727714D01*
X84824379Y-81727714D02*
X84681522Y-81727714D01*
X84681522Y-81727714D02*
X84586284Y-81775333D01*
X84586284Y-81775333D02*
X84538665Y-81822952D01*
X84538665Y-81822952D02*
X84491046Y-81918190D01*
X84491046Y-81918190D02*
X84491046Y-82203904D01*
X84491046Y-82203904D02*
X84538665Y-82299142D01*
X84538665Y-82299142D02*
X84586284Y-82346761D01*
X84586284Y-82346761D02*
X84681522Y-82394380D01*
X84681522Y-82394380D02*
X84824379Y-82394380D01*
X84062474Y-81727714D02*
X84062474Y-82394380D01*
X84062474Y-81822952D02*
X84014855Y-81775333D01*
X84014855Y-81775333D02*
X83919617Y-81727714D01*
X83919617Y-81727714D02*
X83776760Y-81727714D01*
X83776760Y-81727714D02*
X83681522Y-81775333D01*
X83681522Y-81775333D02*
X83633903Y-81870571D01*
X83633903Y-81870571D02*
X83633903Y-82394380D01*
X82729141Y-82394380D02*
X82729141Y-81870571D01*
X82729141Y-81870571D02*
X82776760Y-81775333D01*
X82776760Y-81775333D02*
X82871998Y-81727714D01*
X82871998Y-81727714D02*
X83062474Y-81727714D01*
X83062474Y-81727714D02*
X83157712Y-81775333D01*
X82729141Y-82346761D02*
X82824379Y-82394380D01*
X82824379Y-82394380D02*
X83062474Y-82394380D01*
X83062474Y-82394380D02*
X83157712Y-82346761D01*
X83157712Y-82346761D02*
X83205331Y-82251523D01*
X83205331Y-82251523D02*
X83205331Y-82156285D01*
X83205331Y-82156285D02*
X83157712Y-82061047D01*
X83157712Y-82061047D02*
X83062474Y-82013428D01*
X83062474Y-82013428D02*
X82824379Y-82013428D01*
X82824379Y-82013428D02*
X82729141Y-81965809D01*
X82395807Y-81727714D02*
X82014855Y-81727714D01*
X82252950Y-81394380D02*
X82252950Y-82251523D01*
X82252950Y-82251523D02*
X82205331Y-82346761D01*
X82205331Y-82346761D02*
X82110093Y-82394380D01*
X82110093Y-82394380D02*
X82014855Y-82394380D01*
X81681521Y-82394380D02*
X81681521Y-81394380D01*
X81252950Y-82394380D02*
X81252950Y-81870571D01*
X81252950Y-81870571D02*
X81300569Y-81775333D01*
X81300569Y-81775333D02*
X81395807Y-81727714D01*
X81395807Y-81727714D02*
X81538664Y-81727714D01*
X81538664Y-81727714D02*
X81633902Y-81775333D01*
X81633902Y-81775333D02*
X81681521Y-81822952D01*
X80348188Y-82394380D02*
X80348188Y-81870571D01*
X80348188Y-81870571D02*
X80395807Y-81775333D01*
X80395807Y-81775333D02*
X80491045Y-81727714D01*
X80491045Y-81727714D02*
X80681521Y-81727714D01*
X80681521Y-81727714D02*
X80776759Y-81775333D01*
X80348188Y-82346761D02*
X80443426Y-82394380D01*
X80443426Y-82394380D02*
X80681521Y-82394380D01*
X80681521Y-82394380D02*
X80776759Y-82346761D01*
X80776759Y-82346761D02*
X80824378Y-82251523D01*
X80824378Y-82251523D02*
X80824378Y-82156285D01*
X80824378Y-82156285D02*
X80776759Y-82061047D01*
X80776759Y-82061047D02*
X80681521Y-82013428D01*
X80681521Y-82013428D02*
X80443426Y-82013428D01*
X80443426Y-82013428D02*
X80348188Y-81965809D01*
X79871997Y-81727714D02*
X79871997Y-82394380D01*
X79871997Y-81822952D02*
X79824378Y-81775333D01*
X79824378Y-81775333D02*
X79729140Y-81727714D01*
X79729140Y-81727714D02*
X79586283Y-81727714D01*
X79586283Y-81727714D02*
X79491045Y-81775333D01*
X79491045Y-81775333D02*
X79443426Y-81870571D01*
X79443426Y-81870571D02*
X79443426Y-82394380D01*
X92424380Y-84014380D02*
X92472000Y-84014380D01*
X92472000Y-84014380D02*
X92567238Y-83966761D01*
X92567238Y-83966761D02*
X92710095Y-83823904D01*
X92710095Y-83823904D02*
X92948190Y-83538190D01*
X92948190Y-83538190D02*
X93043428Y-83395333D01*
X93043428Y-83395333D02*
X93091047Y-83252476D01*
X93091047Y-83252476D02*
X93091047Y-83157238D01*
X93091047Y-83157238D02*
X93043428Y-83062000D01*
X93043428Y-83062000D02*
X92948190Y-83014380D01*
X92948190Y-83014380D02*
X92900571Y-83014380D01*
X92900571Y-83014380D02*
X92805333Y-83062000D01*
X92805333Y-83062000D02*
X92757714Y-83157238D01*
X92757714Y-83157238D02*
X92757714Y-83204857D01*
X92757714Y-83204857D02*
X92805333Y-83300095D01*
X92805333Y-83300095D02*
X92852952Y-83347714D01*
X92852952Y-83347714D02*
X93138666Y-83538190D01*
X93138666Y-83538190D02*
X93186285Y-83585809D01*
X93186285Y-83585809D02*
X93233904Y-83681047D01*
X93233904Y-83681047D02*
X93233904Y-83823904D01*
X93233904Y-83823904D02*
X93186285Y-83919142D01*
X93186285Y-83919142D02*
X93138666Y-83966761D01*
X93138666Y-83966761D02*
X93043428Y-84014380D01*
X93043428Y-84014380D02*
X92900571Y-84014380D01*
X92900571Y-84014380D02*
X92805333Y-83966761D01*
X92805333Y-83966761D02*
X92757714Y-83919142D01*
X92757714Y-83919142D02*
X92614857Y-83728666D01*
X92614857Y-83728666D02*
X92567238Y-83585809D01*
X92567238Y-83585809D02*
X92567238Y-83490571D01*
X93233904Y-85634380D02*
X93233904Y-84634380D01*
X93233904Y-84634380D02*
X92900571Y-85348666D01*
X92900571Y-85348666D02*
X92567238Y-84634380D01*
X92567238Y-84634380D02*
X92567238Y-85634380D01*
X91948190Y-85634380D02*
X92043428Y-85586761D01*
X92043428Y-85586761D02*
X92091047Y-85539142D01*
X92091047Y-85539142D02*
X92138666Y-85443904D01*
X92138666Y-85443904D02*
X92138666Y-85158190D01*
X92138666Y-85158190D02*
X92091047Y-85062952D01*
X92091047Y-85062952D02*
X92043428Y-85015333D01*
X92043428Y-85015333D02*
X91948190Y-84967714D01*
X91948190Y-84967714D02*
X91805333Y-84967714D01*
X91805333Y-84967714D02*
X91710095Y-85015333D01*
X91710095Y-85015333D02*
X91662476Y-85062952D01*
X91662476Y-85062952D02*
X91614857Y-85158190D01*
X91614857Y-85158190D02*
X91614857Y-85443904D01*
X91614857Y-85443904D02*
X91662476Y-85539142D01*
X91662476Y-85539142D02*
X91710095Y-85586761D01*
X91710095Y-85586761D02*
X91805333Y-85634380D01*
X91805333Y-85634380D02*
X91948190Y-85634380D01*
X91186285Y-85634380D02*
X91186285Y-84967714D01*
X91186285Y-85158190D02*
X91138666Y-85062952D01*
X91138666Y-85062952D02*
X91091047Y-85015333D01*
X91091047Y-85015333D02*
X90995809Y-84967714D01*
X90995809Y-84967714D02*
X90900571Y-84967714D01*
X90710094Y-84967714D02*
X90329142Y-84967714D01*
X90567237Y-84634380D02*
X90567237Y-85491523D01*
X90567237Y-85491523D02*
X90519618Y-85586761D01*
X90519618Y-85586761D02*
X90424380Y-85634380D01*
X90424380Y-85634380D02*
X90329142Y-85634380D01*
X89995808Y-85634380D02*
X89995808Y-84967714D01*
X89995808Y-84634380D02*
X90043427Y-84682000D01*
X90043427Y-84682000D02*
X89995808Y-84729619D01*
X89995808Y-84729619D02*
X89948189Y-84682000D01*
X89948189Y-84682000D02*
X89995808Y-84634380D01*
X89995808Y-84634380D02*
X89995808Y-84729619D01*
X89138666Y-85586761D02*
X89233904Y-85634380D01*
X89233904Y-85634380D02*
X89424380Y-85634380D01*
X89424380Y-85634380D02*
X89519618Y-85586761D01*
X89519618Y-85586761D02*
X89567237Y-85491523D01*
X89567237Y-85491523D02*
X89567237Y-85110571D01*
X89567237Y-85110571D02*
X89519618Y-85015333D01*
X89519618Y-85015333D02*
X89424380Y-84967714D01*
X89424380Y-84967714D02*
X89233904Y-84967714D01*
X89233904Y-84967714D02*
X89138666Y-85015333D01*
X89138666Y-85015333D02*
X89091047Y-85110571D01*
X89091047Y-85110571D02*
X89091047Y-85205809D01*
X89091047Y-85205809D02*
X89567237Y-85301047D01*
X88662475Y-85634380D02*
X88662475Y-84967714D01*
X88662475Y-85158190D02*
X88614856Y-85062952D01*
X88614856Y-85062952D02*
X88567237Y-85015333D01*
X88567237Y-85015333D02*
X88471999Y-84967714D01*
X88471999Y-84967714D02*
X88376761Y-84967714D01*
X87443427Y-85634380D02*
X87443427Y-84634380D01*
X87443427Y-84634380D02*
X87110094Y-85348666D01*
X87110094Y-85348666D02*
X86776761Y-84634380D01*
X86776761Y-84634380D02*
X86776761Y-85634380D01*
X85871999Y-85634380D02*
X85871999Y-85110571D01*
X85871999Y-85110571D02*
X85919618Y-85015333D01*
X85919618Y-85015333D02*
X86014856Y-84967714D01*
X86014856Y-84967714D02*
X86205332Y-84967714D01*
X86205332Y-84967714D02*
X86300570Y-85015333D01*
X85871999Y-85586761D02*
X85967237Y-85634380D01*
X85967237Y-85634380D02*
X86205332Y-85634380D01*
X86205332Y-85634380D02*
X86300570Y-85586761D01*
X86300570Y-85586761D02*
X86348189Y-85491523D01*
X86348189Y-85491523D02*
X86348189Y-85396285D01*
X86348189Y-85396285D02*
X86300570Y-85301047D01*
X86300570Y-85301047D02*
X86205332Y-85253428D01*
X86205332Y-85253428D02*
X85967237Y-85253428D01*
X85967237Y-85253428D02*
X85871999Y-85205809D01*
X85538665Y-84967714D02*
X85157713Y-84967714D01*
X85395808Y-84634380D02*
X85395808Y-85491523D01*
X85395808Y-85491523D02*
X85348189Y-85586761D01*
X85348189Y-85586761D02*
X85252951Y-85634380D01*
X85252951Y-85634380D02*
X85157713Y-85634380D01*
X84871998Y-85586761D02*
X84776760Y-85634380D01*
X84776760Y-85634380D02*
X84586284Y-85634380D01*
X84586284Y-85634380D02*
X84491046Y-85586761D01*
X84491046Y-85586761D02*
X84443427Y-85491523D01*
X84443427Y-85491523D02*
X84443427Y-85443904D01*
X84443427Y-85443904D02*
X84491046Y-85348666D01*
X84491046Y-85348666D02*
X84586284Y-85301047D01*
X84586284Y-85301047D02*
X84729141Y-85301047D01*
X84729141Y-85301047D02*
X84824379Y-85253428D01*
X84824379Y-85253428D02*
X84871998Y-85158190D01*
X84871998Y-85158190D02*
X84871998Y-85110571D01*
X84871998Y-85110571D02*
X84824379Y-85015333D01*
X84824379Y-85015333D02*
X84729141Y-84967714D01*
X84729141Y-84967714D02*
X84586284Y-84967714D01*
X84586284Y-84967714D02*
X84491046Y-85015333D01*
M02*
