%TF.GenerationSoftware,KiCad,Pcbnew,(7.0.0)*%
%TF.CreationDate,2023-04-20T18:18:11+02:00*%
%TF.ProjectId,PCB_uitlezen_gsm,5043425f-7569-4746-9c65-7a656e5f6773,rev?*%
%TF.SameCoordinates,Original*%
%TF.FileFunction,Copper,L1,Top*%
%TF.FilePolarity,Positive*%
%FSLAX46Y46*%
G04 Gerber Fmt 4.6, Leading zero omitted, Abs format (unit mm)*
G04 Created by KiCad (PCBNEW (7.0.0)) date 2023-04-20 18:18:11*
%MOMM*%
%LPD*%
G01*
G04 APERTURE LIST*
G04 Aperture macros list*
%AMRoundRect*
0 Rectangle with rounded corners*
0 $1 Rounding radius*
0 $2 $3 $4 $5 $6 $7 $8 $9 X,Y pos of 4 corners*
0 Add a 4 corners polygon primitive as box body*
4,1,4,$2,$3,$4,$5,$6,$7,$8,$9,$2,$3,0*
0 Add four circle primitives for the rounded corners*
1,1,$1+$1,$2,$3*
1,1,$1+$1,$4,$5*
1,1,$1+$1,$6,$7*
1,1,$1+$1,$8,$9*
0 Add four rect primitives between the rounded corners*
20,1,$1+$1,$2,$3,$4,$5,0*
20,1,$1+$1,$4,$5,$6,$7,0*
20,1,$1+$1,$6,$7,$8,$9,0*
20,1,$1+$1,$8,$9,$2,$3,0*%
G04 Aperture macros list end*
%TA.AperFunction,SMDPad,CuDef*%
%ADD10RoundRect,0.250000X0.350000X0.450000X-0.350000X0.450000X-0.350000X-0.450000X0.350000X-0.450000X0*%
%TD*%
%TA.AperFunction,SMDPad,CuDef*%
%ADD11RoundRect,0.250000X-0.350000X-0.450000X0.350000X-0.450000X0.350000X0.450000X-0.350000X0.450000X0*%
%TD*%
%TA.AperFunction,SMDPad,CuDef*%
%ADD12RoundRect,0.250000X0.325000X0.450000X-0.325000X0.450000X-0.325000X-0.450000X0.325000X-0.450000X0*%
%TD*%
%TA.AperFunction,SMDPad,CuDef*%
%ADD13RoundRect,0.250000X0.337500X0.475000X-0.337500X0.475000X-0.337500X-0.475000X0.337500X-0.475000X0*%
%TD*%
%TA.AperFunction,ComponentPad*%
%ADD14R,1.700000X1.700000*%
%TD*%
%TA.AperFunction,ComponentPad*%
%ADD15O,1.700000X1.700000*%
%TD*%
%TA.AperFunction,SMDPad,CuDef*%
%ADD16RoundRect,0.250000X-0.450000X0.350000X-0.450000X-0.350000X0.450000X-0.350000X0.450000X0.350000X0*%
%TD*%
%TA.AperFunction,ComponentPad*%
%ADD17C,2.032000*%
%TD*%
%TA.AperFunction,SMDPad,CuDef*%
%ADD18RoundRect,0.250000X-0.475000X0.337500X-0.475000X-0.337500X0.475000X-0.337500X0.475000X0.337500X0*%
%TD*%
%TA.AperFunction,SMDPad,CuDef*%
%ADD19R,1.500000X2.000000*%
%TD*%
%TA.AperFunction,SMDPad,CuDef*%
%ADD20R,3.800000X2.000000*%
%TD*%
%TA.AperFunction,SMDPad,CuDef*%
%ADD21R,1.600000X0.760000*%
%TD*%
%TA.AperFunction,ComponentPad*%
%ADD22R,2.000000X4.600000*%
%TD*%
%TA.AperFunction,ComponentPad*%
%ADD23O,2.000000X4.200000*%
%TD*%
%TA.AperFunction,ComponentPad*%
%ADD24O,4.200000X2.000000*%
%TD*%
%TA.AperFunction,SMDPad,CuDef*%
%ADD25RoundRect,0.250000X0.475000X-0.337500X0.475000X0.337500X-0.475000X0.337500X-0.475000X-0.337500X0*%
%TD*%
%TA.AperFunction,SMDPad,CuDef*%
%ADD26R,1.500000X0.900000*%
%TD*%
%TA.AperFunction,SMDPad,CuDef*%
%ADD27R,0.900000X1.500000*%
%TD*%
%TA.AperFunction,SMDPad,CuDef*%
%ADD28R,1.050000X1.050000*%
%TD*%
%TA.AperFunction,HeatsinkPad*%
%ADD29C,0.600000*%
%TD*%
%TA.AperFunction,SMDPad,CuDef*%
%ADD30R,4.200000X4.200000*%
%TD*%
%TA.AperFunction,ViaPad*%
%ADD31C,0.800000*%
%TD*%
%TA.AperFunction,Conductor*%
%ADD32C,0.400000*%
%TD*%
G04 APERTURE END LIST*
D10*
%TO.P,R7,1*%
%TO.N,Net-(D1-K)*%
X124190000Y-103886000D03*
%TO.P,R7,2*%
%TO.N,GND*%
X122190000Y-103886000D03*
%TD*%
%TO.P,R6,1*%
%TO.N,+3.3V*%
X130032000Y-88900000D03*
%TO.P,R6,2*%
%TO.N,GPIO5*%
X128032000Y-88900000D03*
%TD*%
%TO.P,R3,1*%
%TO.N,GND*%
X124190000Y-98552000D03*
%TO.P,R3,2*%
%TO.N,GPIO2*%
X122190000Y-98552000D03*
%TD*%
D11*
%TO.P,R1,1*%
%TO.N,+3.3V*%
X98568000Y-79756000D03*
%TO.P,R1,2*%
%TO.N,/EN*%
X100568000Y-79756000D03*
%TD*%
D12*
%TO.P,D1,1,K*%
%TO.N,Net-(D1-K)*%
X124215000Y-101092000D03*
%TO.P,D1,2,A*%
%TO.N,GPIO2*%
X122165000Y-101092000D03*
%TD*%
D13*
%TO.P,C1,1*%
%TO.N,+3.3V*%
X104669500Y-76962000D03*
%TO.P,C1,2*%
%TO.N,GND*%
X102594500Y-76962000D03*
%TD*%
%TO.P,C2,1*%
%TO.N,VDD*%
X100097500Y-85852000D03*
%TO.P,C2,2*%
%TO.N,GND*%
X98022500Y-85852000D03*
%TD*%
D14*
%TO.P,SCHERM3,1,Pin_1*%
%TO.N,unconnected-(SCHERM3-Pin_1-Pad1)*%
X115823999Y-111759999D03*
D15*
%TO.P,SCHERM3,2,Pin_2*%
%TO.N,+3.3V*%
X113283999Y-111759999D03*
%TO.P,SCHERM3,3,Pin_3*%
%TO.N,GPIO18*%
X110743999Y-111759999D03*
%TO.P,SCHERM3,4,Pin_4*%
%TO.N,GPIO23*%
X108203999Y-111759999D03*
%TO.P,SCHERM3,5,Pin_5*%
%TO.N,GPIO25*%
X105663999Y-111759999D03*
%TO.P,SCHERM3,6,Pin_6*%
%TO.N,GPIO26*%
X103123999Y-111759999D03*
%TO.P,SCHERM3,7,Pin_7*%
%TO.N,GPIO27*%
X100583999Y-111759999D03*
%TO.P,SCHERM3,8,Pin_8*%
%TO.N,GND*%
X98043999Y-111759999D03*
%TO.P,SCHERM3,9,Pin_9*%
%TO.N,+3.3V*%
X95503999Y-111759999D03*
%TD*%
D16*
%TO.P,R5,1*%
%TO.N,+3.3V*%
X135382000Y-78010000D03*
%TO.P,R5,2*%
%TO.N,TX0*%
X135382000Y-80010000D03*
%TD*%
D10*
%TO.P,R2,1*%
%TO.N,+3.3V*%
X129778000Y-96012000D03*
%TO.P,R2,2*%
%TO.N,GPIO0*%
X127778000Y-96012000D03*
%TD*%
D17*
%TO.P,U2,1,IN-*%
%TO.N,Net-(J2-Pad2)*%
X81407000Y-97250000D03*
%TO.P,U2,2,IN-*%
X83947000Y-97250000D03*
%TO.P,U2,3,IN+*%
%TO.N,Net-(J2-Pad1)*%
X92075000Y-97250000D03*
%TO.P,U2,4,IN+*%
X94615000Y-97250000D03*
%TO.P,U2,5,OUT+*%
%TO.N,VDD*%
X94615000Y-78708000D03*
%TO.P,U2,6,OUT+*%
X92075000Y-78708000D03*
%TO.P,U2,7,OUT-*%
%TO.N,GND*%
X83947000Y-78708000D03*
%TO.P,U2,8,OUT-*%
X81407000Y-78708000D03*
%TD*%
D14*
%TO.P,SCHERM1,1,Pin_1*%
%TO.N,unconnected-(SCHERM1-Pin_1-Pad1)*%
X140715999Y-107441999D03*
D15*
%TO.P,SCHERM1,2,Pin_2*%
%TO.N,+3.3V*%
X138175999Y-107441999D03*
%TO.P,SCHERM1,3,Pin_3*%
%TO.N,GPIO18*%
X135635999Y-107441999D03*
%TO.P,SCHERM1,4,Pin_4*%
%TO.N,GPIO23*%
X133095999Y-107441999D03*
%TO.P,SCHERM1,5,Pin_5*%
%TO.N,GPIO2*%
X130555999Y-107441999D03*
%TO.P,SCHERM1,6,Pin_6*%
%TO.N,GPIO4*%
X128015999Y-107441999D03*
%TO.P,SCHERM1,7,Pin_7*%
%TO.N,GPIO15*%
X125475999Y-107441999D03*
%TO.P,SCHERM1,8,Pin_8*%
%TO.N,GND*%
X122935999Y-107441999D03*
%TO.P,SCHERM1,9,Pin_9*%
%TO.N,+3.3V*%
X120395999Y-107441999D03*
%TD*%
D14*
%TO.P,J1,1,Pin_1*%
%TO.N,+3.3V*%
X138683999Y-86603999D03*
D15*
%TO.P,J1,2,Pin_2*%
%TO.N,RX0*%
X138683999Y-84063999D03*
%TO.P,J1,3,Pin_3*%
%TO.N,TX0*%
X138683999Y-81523999D03*
%TO.P,J1,4,Pin_4*%
%TO.N,GND*%
X138683999Y-78983999D03*
%TD*%
D18*
%TO.P,C4,1*%
%TO.N,+3.3V*%
X98806000Y-97514500D03*
%TO.P,C4,2*%
%TO.N,GND*%
X98806000Y-99589500D03*
%TD*%
D10*
%TO.P,R4,1*%
%TO.N,+3.3V*%
X129778000Y-98298000D03*
%TO.P,R4,2*%
%TO.N,Net-(D2-A)*%
X127778000Y-98298000D03*
%TD*%
D19*
%TO.P,U3,1,GND*%
%TO.N,GND*%
X103391999Y-88645999D03*
%TO.P,U3,2,VO*%
%TO.N,+3.3V*%
X101091999Y-88645999D03*
D20*
X101091999Y-94945999D03*
D19*
%TO.P,U3,3,VI*%
%TO.N,VDD*%
X98791999Y-88645999D03*
%TD*%
D21*
%TO.P,SW2,1,1*%
%TO.N,GPIO0*%
X128269999Y-92455999D03*
%TO.P,SW2,2,2*%
%TO.N,GND*%
X135889999Y-92455999D03*
%TD*%
D22*
%TO.P,J2,1*%
%TO.N,Net-(J2-Pad1)*%
X91947999Y-104393999D03*
D23*
%TO.P,J2,2*%
%TO.N,Net-(J2-Pad2)*%
X85647999Y-104393999D03*
D24*
%TO.P,J2,3*%
%TO.N,N/C*%
X89047999Y-109193999D03*
%TD*%
D25*
%TO.P,C3,1*%
%TO.N,GND*%
X101346000Y-99568000D03*
%TO.P,C3,2*%
%TO.N,+3.3V*%
X101346000Y-97493000D03*
%TD*%
D26*
%TO.P,U1,1,GND*%
%TO.N,GND*%
X107559999Y-77309999D03*
%TO.P,U1,2,VDD*%
%TO.N,+3.3V*%
X107559999Y-78579999D03*
%TO.P,U1,3,EN*%
%TO.N,/EN*%
X107559999Y-79849999D03*
%TO.P,U1,4,SENSOR_VP*%
%TO.N,unconnected-(U1-SENSOR_VP-Pad4)*%
X107559999Y-81119999D03*
%TO.P,U1,5,SENSOR_VN*%
%TO.N,unconnected-(U1-SENSOR_VN-Pad5)*%
X107559999Y-82389999D03*
%TO.P,U1,6,IO34*%
%TO.N,unconnected-(U1-IO34-Pad6)*%
X107559999Y-83659999D03*
%TO.P,U1,7,IO35*%
%TO.N,unconnected-(U1-IO35-Pad7)*%
X107559999Y-84929999D03*
%TO.P,U1,8,IO32*%
%TO.N,unconnected-(U1-IO32-Pad8)*%
X107559999Y-86199999D03*
%TO.P,U1,9,IO33*%
%TO.N,unconnected-(U1-IO33-Pad9)*%
X107559999Y-87469999D03*
%TO.P,U1,10,IO25*%
%TO.N,GPIO25*%
X107559999Y-88739999D03*
%TO.P,U1,11,IO26*%
%TO.N,GPIO26*%
X107559999Y-90009999D03*
%TO.P,U1,12,IO27*%
%TO.N,GPIO27*%
X107559999Y-91279999D03*
%TO.P,U1,13,IO14*%
%TO.N,GPIO14*%
X107559999Y-92549999D03*
%TO.P,U1,14,IO12*%
%TO.N,GPIO12*%
X107559999Y-93819999D03*
D27*
%TO.P,U1,15,GND*%
%TO.N,GND*%
X110599999Y-95069999D03*
%TO.P,U1,16,IO13*%
%TO.N,GPIO13*%
X111869999Y-95069999D03*
%TO.P,U1,17,SHD/SD2*%
%TO.N,unconnected-(U1-SHD{slash}SD2-Pad17)*%
X113139999Y-95069999D03*
%TO.P,U1,18,SWP/SD3*%
%TO.N,unconnected-(U1-SWP{slash}SD3-Pad18)*%
X114409999Y-95069999D03*
%TO.P,U1,19,SCS/CMD*%
%TO.N,unconnected-(U1-SCS{slash}CMD-Pad19)*%
X115679999Y-95069999D03*
%TO.P,U1,20,SCK/CLK*%
%TO.N,unconnected-(U1-SCK{slash}CLK-Pad20)*%
X116949999Y-95069999D03*
%TO.P,U1,21,SDO/SD0*%
%TO.N,unconnected-(U1-SDO{slash}SD0-Pad21)*%
X118219999Y-95069999D03*
%TO.P,U1,22,SDI/SD1*%
%TO.N,unconnected-(U1-SDI{slash}SD1-Pad22)*%
X119489999Y-95069999D03*
%TO.P,U1,23,IO15*%
%TO.N,GPIO15*%
X120759999Y-95069999D03*
%TO.P,U1,24,IO2*%
%TO.N,GPIO2*%
X122029999Y-95069999D03*
D26*
%TO.P,U1,25,IO0*%
%TO.N,GPIO0*%
X125059999Y-93819999D03*
%TO.P,U1,26,IO4*%
%TO.N,GPIO4*%
X125059999Y-92549999D03*
%TO.P,U1,27,IO16*%
%TO.N,unconnected-(U1-IO16-Pad27)*%
X125059999Y-91279999D03*
%TO.P,U1,28,IO17*%
%TO.N,unconnected-(U1-IO17-Pad28)*%
X125059999Y-90009999D03*
%TO.P,U1,29,IO5*%
%TO.N,GPIO5*%
X125059999Y-88739999D03*
%TO.P,U1,30,IO18*%
%TO.N,GPIO18*%
X125059999Y-87469999D03*
%TO.P,U1,31,IO19*%
%TO.N,unconnected-(U1-IO19-Pad31)*%
X125059999Y-86199999D03*
%TO.P,U1,32,NC*%
%TO.N,unconnected-(U1-NC-Pad32)*%
X125059999Y-84929999D03*
%TO.P,U1,33,IO21*%
%TO.N,unconnected-(U1-IO21-Pad33)*%
X125059999Y-83659999D03*
%TO.P,U1,34,RXD0/IO3*%
%TO.N,RX0*%
X125059999Y-82389999D03*
%TO.P,U1,35,TXD0/IO1*%
%TO.N,TX0*%
X125059999Y-81119999D03*
%TO.P,U1,36,IO22*%
%TO.N,unconnected-(U1-IO22-Pad36)*%
X125059999Y-79849999D03*
%TO.P,U1,37,IO23*%
%TO.N,GPIO23*%
X125059999Y-78579999D03*
%TO.P,U1,38,GND*%
%TO.N,GND*%
X125059999Y-77309999D03*
D28*
%TO.P,U1,39,GND*%
X114104999Y-83124999D03*
D29*
X114105000Y-83887500D03*
D28*
X114104999Y-84649999D03*
D29*
X114105000Y-85412500D03*
D28*
X114104999Y-86174999D03*
D29*
X114867500Y-83125000D03*
X114867500Y-84650000D03*
X114867500Y-86175000D03*
D28*
X115629999Y-83124999D03*
D29*
X115630000Y-83887500D03*
D28*
X115629999Y-84649999D03*
D30*
X115629999Y-84649999D03*
D29*
X115630000Y-85412500D03*
D28*
X115629999Y-86174999D03*
D29*
X116392500Y-83125000D03*
X116392500Y-84650000D03*
X116392500Y-86175000D03*
D28*
X117154999Y-83124999D03*
D29*
X117155000Y-83887500D03*
D28*
X117154999Y-84649999D03*
D29*
X117155000Y-85412500D03*
D28*
X117154999Y-86174999D03*
%TD*%
D14*
%TO.P,SCHERM2,1,Pin_1*%
%TO.N,unconnected-(SCHERM2-Pin_1-Pad1)*%
X140969999Y-111759999D03*
D15*
%TO.P,SCHERM2,2,Pin_2*%
%TO.N,+3.3V*%
X138429999Y-111759999D03*
%TO.P,SCHERM2,3,Pin_3*%
%TO.N,GPIO18*%
X135889999Y-111759999D03*
%TO.P,SCHERM2,4,Pin_4*%
%TO.N,GPIO23*%
X133349999Y-111759999D03*
%TO.P,SCHERM2,5,Pin_5*%
%TO.N,GPIO14*%
X130809999Y-111759999D03*
%TO.P,SCHERM2,6,Pin_6*%
%TO.N,GPIO12*%
X128269999Y-111759999D03*
%TO.P,SCHERM2,7,Pin_7*%
%TO.N,GPIO13*%
X125729999Y-111759999D03*
%TO.P,SCHERM2,8,Pin_8*%
%TO.N,GND*%
X123189999Y-111759999D03*
%TO.P,SCHERM2,9,Pin_9*%
%TO.N,+3.3V*%
X120649999Y-111759999D03*
%TD*%
D12*
%TO.P,D2,1,K*%
%TO.N,GND*%
X129803000Y-100838000D03*
%TO.P,D2,2,A*%
%TO.N,Net-(D2-A)*%
X127753000Y-100838000D03*
%TD*%
D21*
%TO.P,SW1,1,1*%
%TO.N,/EN*%
X105155999Y-82803999D03*
%TO.P,SW1,2,2*%
%TO.N,GND*%
X97535999Y-82803999D03*
%TD*%
D31*
%TO.N,+3.3V*%
X117856000Y-99060000D03*
X130048000Y-88900000D03*
X119126000Y-78486000D03*
%TO.N,GND*%
X124206000Y-98552000D03*
X110617000Y-94742000D03*
X115316000Y-76708000D03*
X143764000Y-96774000D03*
X131826000Y-100838000D03*
X122936000Y-108966000D03*
X98044000Y-108712000D03*
X117348000Y-91313000D03*
X104140000Y-85598000D03*
X81026000Y-92964000D03*
X82296000Y-104648000D03*
X122428000Y-81788000D03*
X130302000Y-78232000D03*
X122174000Y-103886000D03*
X102616000Y-76962000D03*
X111760000Y-106680000D03*
X126746000Y-104648000D03*
X81280000Y-85090000D03*
X98806000Y-99822000D03*
X91440000Y-91948000D03*
X85598000Y-72898000D03*
X110998000Y-84201000D03*
%TO.N,RX0*%
X124968000Y-82296000D03*
%TO.N,TX0*%
X135382000Y-80010000D03*
X127000000Y-80264000D03*
%TO.N,GPIO18*%
X127000000Y-86868000D03*
%TO.N,GPIO4*%
X125222000Y-92710000D03*
%TO.N,GPIO12*%
X110236000Y-102870000D03*
%TO.N,GPIO13*%
X111760000Y-97028000D03*
%TO.N,GPIO26*%
X105410000Y-91440000D03*
%TO.N,GPIO27*%
X105410000Y-92964000D03*
%TD*%
D32*
%TO.N,+3.3V*%
X138176000Y-107442000D02*
X138176000Y-87112000D01*
X117856000Y-99060000D02*
X117856000Y-104902000D01*
X101324500Y-97514500D02*
X101346000Y-97493000D01*
X130032000Y-95758000D02*
X130048000Y-88900000D01*
X101346000Y-97493000D02*
X101092000Y-97239000D01*
X135128000Y-115062000D02*
X138430000Y-111760000D01*
X100875000Y-94729000D02*
X100875000Y-88863000D01*
X97544000Y-113800000D02*
X112754000Y-113800000D01*
X116840000Y-78486000D02*
X116934000Y-78580000D01*
X101092000Y-94946000D02*
X100875000Y-94729000D01*
X116746000Y-78580000D02*
X116840000Y-78486000D01*
X121790000Y-78580000D02*
X123910000Y-76460000D01*
X116934000Y-78580000D02*
X121790000Y-78580000D01*
X104669500Y-76962000D02*
X102975500Y-78656000D01*
X101854000Y-87884000D02*
X101092000Y-88646000D01*
X98568000Y-80788000D02*
X101854000Y-84074000D01*
X95504000Y-111760000D02*
X97544000Y-113800000D01*
X123910000Y-76460000D02*
X133832000Y-76460000D01*
X113792000Y-113800000D02*
X112754000Y-113800000D01*
X133832000Y-76460000D02*
X135382000Y-78010000D01*
X113284000Y-113292000D02*
X113284000Y-111760000D01*
X95440000Y-100880500D02*
X95440000Y-110490000D01*
X104669500Y-76962000D02*
X106287500Y-78580000D01*
X106287500Y-78580000D02*
X107560000Y-78580000D01*
X120396000Y-111506000D02*
X120650000Y-111760000D01*
X102975500Y-78656000D02*
X99668000Y-78656000D01*
X113792000Y-113800000D02*
X113284000Y-113292000D01*
X120396000Y-107442000D02*
X120396000Y-111506000D01*
X95440000Y-110490000D02*
X95504000Y-110554000D01*
X138176000Y-87112000D02*
X138684000Y-86604000D01*
X98806000Y-97514500D02*
X101324500Y-97514500D01*
X98568000Y-79756000D02*
X98568000Y-80788000D01*
X101854000Y-84074000D02*
X101854000Y-87884000D01*
X95440000Y-110490000D02*
X95440000Y-110744000D01*
X98806000Y-97514500D02*
X95440000Y-100880500D01*
X113792000Y-113800000D02*
X115070000Y-113800000D01*
X101092000Y-97239000D02*
X101092000Y-94946000D01*
X129778000Y-96012000D02*
X129778000Y-98298000D01*
X117856000Y-104902000D02*
X120396000Y-107442000D01*
X129778000Y-96012000D02*
X130032000Y-95758000D01*
X138176000Y-111506000D02*
X138430000Y-111760000D01*
X95504000Y-110554000D02*
X95504000Y-111760000D01*
X130048000Y-88900000D02*
X130032000Y-88900000D01*
X116332000Y-115062000D02*
X135128000Y-115062000D01*
X99668000Y-78656000D02*
X98568000Y-79756000D01*
X100875000Y-88863000D02*
X101092000Y-88646000D01*
X115070000Y-113800000D02*
X116332000Y-115062000D01*
X107560000Y-78580000D02*
X116746000Y-78580000D01*
X138176000Y-107442000D02*
X138176000Y-111506000D01*
%TO.N,GND*%
X115630000Y-83887500D02*
X115630000Y-84650000D01*
X114867500Y-84650000D02*
X115630000Y-84650000D01*
X116392500Y-86175000D02*
X117155000Y-85412500D01*
X116392500Y-86175000D02*
X117155000Y-86175000D01*
X114105000Y-85412500D02*
X114105000Y-86175000D01*
X129778000Y-101067000D02*
X129803000Y-101092000D01*
X123382000Y-107697000D02*
X123381000Y-107696000D01*
X115630000Y-84650000D02*
X116392500Y-84650000D01*
X115630000Y-86175000D02*
X116392500Y-86175000D01*
X114105000Y-83125000D02*
X114867500Y-83125000D01*
X98044000Y-111760000D02*
X98044000Y-108712000D01*
X114867500Y-83125000D02*
X114105000Y-83887500D01*
X114105000Y-83125000D02*
X114105000Y-83887500D01*
X116392500Y-83125000D02*
X115630000Y-83125000D01*
X129380000Y-77310000D02*
X130302000Y-78232000D01*
X116392500Y-83125000D02*
X117155000Y-83125000D01*
X114867500Y-84650000D02*
X114105000Y-85412500D01*
X123190000Y-111760000D02*
X123190000Y-109220000D01*
X117155000Y-85412500D02*
X117155000Y-86175000D01*
X125060000Y-77310000D02*
X129380000Y-77310000D01*
X114105000Y-85412500D02*
X114867500Y-86175000D01*
X115630000Y-85412500D02*
X116392500Y-84650000D01*
X115630000Y-83125000D02*
X114867500Y-83125000D01*
X114867500Y-84650000D02*
X115630000Y-83887500D01*
X114867500Y-86175000D02*
X115630000Y-86175000D01*
X123190000Y-109220000D02*
X122936000Y-108966000D01*
X116392500Y-84650000D02*
X117155000Y-83887500D01*
X117155000Y-85412500D02*
X116392500Y-84650000D01*
X114105000Y-84650000D02*
X114105000Y-85412500D01*
X122936000Y-107442000D02*
X122936000Y-108966000D01*
X116392500Y-83125000D02*
X115630000Y-83887500D01*
X114105000Y-86175000D02*
X114867500Y-86175000D01*
X114867500Y-86175000D02*
X115630000Y-85412500D01*
X114867500Y-83125000D02*
X115630000Y-83887500D01*
X115630000Y-85412500D02*
X115630000Y-84650000D01*
%TO.N,VDD*%
X98792000Y-87157500D02*
X100097500Y-85852000D01*
X98792000Y-88646000D02*
X98792000Y-87157500D01*
X94615000Y-85471000D02*
X97790000Y-88646000D01*
X94615000Y-78708000D02*
X94615000Y-85471000D01*
X92075000Y-78708000D02*
X94615000Y-78708000D01*
X97790000Y-88646000D02*
X98792000Y-88646000D01*
%TO.N,Net-(D1-K)*%
X124215000Y-103861000D02*
X124190000Y-103886000D01*
X124215000Y-101092000D02*
X124215000Y-103861000D01*
%TO.N,GPIO2*%
X123010000Y-95070000D02*
X122030000Y-95070000D01*
X125984000Y-102362000D02*
X125984000Y-98044000D01*
X122165000Y-98577000D02*
X122190000Y-98552000D01*
X125984000Y-102362000D02*
X130556000Y-106934000D01*
X122165000Y-101092000D02*
X122165000Y-98577000D01*
X125984000Y-98044000D02*
X123010000Y-95070000D01*
X130556000Y-106934000D02*
X130556000Y-107442000D01*
X122190000Y-98552000D02*
X122030000Y-98392000D01*
X122030000Y-98392000D02*
X122030000Y-95070000D01*
%TO.N,Net-(D2-A)*%
X127778000Y-98298000D02*
X127778000Y-100813000D01*
X127778000Y-100813000D02*
X127753000Y-100838000D01*
%TO.N,TX0*%
X137170000Y-80010000D02*
X138684000Y-81524000D01*
X126144000Y-81120000D02*
X127000000Y-80264000D01*
X125060000Y-81120000D02*
X126144000Y-81120000D01*
X135382000Y-80010000D02*
X137170000Y-80010000D01*
%TO.N,Net-(J2-Pad1)*%
X92075000Y-97250000D02*
X94615000Y-97250000D01*
X92075000Y-97250000D02*
X92075000Y-104267000D01*
X92075000Y-104267000D02*
X91948000Y-104394000D01*
%TO.N,Net-(J2-Pad2)*%
X85648000Y-98951000D02*
X83947000Y-97250000D01*
X81407000Y-97250000D02*
X83947000Y-97250000D01*
X85648000Y-104394000D02*
X85648000Y-98951000D01*
%TO.N,/EN*%
X100662000Y-79850000D02*
X100568000Y-79756000D01*
X107560000Y-79850000D02*
X100662000Y-79850000D01*
X105156000Y-81104000D02*
X105156000Y-82804000D01*
X106410000Y-79850000D02*
X105156000Y-81104000D01*
%TO.N,GPIO0*%
X125586000Y-93820000D02*
X127778000Y-96012000D01*
X125060000Y-93820000D02*
X126906000Y-93820000D01*
X126906000Y-93820000D02*
X128270000Y-92456000D01*
X125060000Y-93820000D02*
X125586000Y-93820000D01*
%TO.N,GPIO5*%
X127872000Y-88740000D02*
X128032000Y-88900000D01*
X125060000Y-88740000D02*
X127872000Y-88740000D01*
%TO.N,GPIO18*%
X135382000Y-110998000D02*
X135382000Y-107697000D01*
X126398000Y-87470000D02*
X127000000Y-86868000D01*
X125060000Y-87470000D02*
X126398000Y-87470000D01*
X135382000Y-107697000D02*
X135381000Y-107696000D01*
%TO.N,GPIO23*%
X116586000Y-109669000D02*
X110295000Y-109669000D01*
X119126000Y-114046000D02*
X117074000Y-111994000D01*
X117074000Y-110157000D02*
X116586000Y-109669000D01*
X127729000Y-78580000D02*
X133381000Y-84232000D01*
X133382000Y-107697000D02*
X133382000Y-110998000D01*
X133381000Y-84232000D02*
X133381000Y-107696000D01*
X133381000Y-107696000D02*
X133382000Y-107697000D01*
X119126000Y-114046000D02*
X132588000Y-114046000D01*
X117074000Y-111994000D02*
X117074000Y-110157000D01*
X133350000Y-113284000D02*
X133350000Y-111760000D01*
X110295000Y-109669000D02*
X108204000Y-111760000D01*
X125060000Y-78580000D02*
X127729000Y-78580000D01*
X132588000Y-114046000D02*
X133350000Y-113284000D01*
%TO.N,GPIO15*%
X120396000Y-104648000D02*
X120396000Y-97291305D01*
X120396000Y-97291305D02*
X120760000Y-96927305D01*
X121412000Y-105664000D02*
X120396000Y-104648000D01*
X125476000Y-107442000D02*
X124460000Y-106426000D01*
X120760000Y-95070000D02*
X120760000Y-96927305D01*
X124460000Y-106426000D02*
X123698000Y-105664000D01*
X122936000Y-105664000D02*
X121412000Y-105664000D01*
X123698000Y-105664000D02*
X122936000Y-105664000D01*
%TO.N,GPIO14*%
X120152233Y-113030000D02*
X129540000Y-113030000D01*
X108710000Y-98810000D02*
X117726000Y-107826000D01*
X129540000Y-113030000D02*
X130810000Y-111760000D01*
X117726000Y-107826000D02*
X117889000Y-107989000D01*
X117889000Y-110766767D02*
X120152233Y-113030000D01*
X108710000Y-92550000D02*
X108710000Y-98810000D01*
X108679000Y-92550000D02*
X107560000Y-92550000D01*
X107560000Y-92550000D02*
X108710000Y-92550000D01*
X117889000Y-107989000D02*
X117889000Y-110766767D01*
%TO.N,GPIO12*%
X110236000Y-102870000D02*
X107560000Y-100194000D01*
X107560000Y-99822000D02*
X107560000Y-93820000D01*
X107560000Y-100194000D02*
X107560000Y-99822000D01*
%TO.N,GPIO13*%
X111870000Y-95070000D02*
X111870000Y-96918000D01*
%TO.N,GPIO25*%
X107560000Y-88740000D02*
X106560000Y-88740000D01*
X103632000Y-109728000D02*
X105664000Y-111760000D01*
X103632000Y-91668000D02*
X103632000Y-109728000D01*
X106560000Y-88740000D02*
X103632000Y-91668000D01*
%TO.N,GPIO26*%
X105410000Y-91440000D02*
X106840000Y-90010000D01*
X106840000Y-90010000D02*
X107560000Y-90010000D01*
%TO.N,GPIO27*%
X106830000Y-91280000D02*
X105410000Y-92700000D01*
X105410000Y-92700000D02*
X105410000Y-92964000D01*
X107560000Y-91280000D02*
X106830000Y-91280000D01*
%TD*%
%TA.AperFunction,Conductor*%
%TO.N,GND*%
G36*
X143193500Y-69105113D02*
G01*
X143238887Y-69150500D01*
X143255500Y-69212500D01*
X143255500Y-115699500D01*
X143238887Y-115761500D01*
X143193500Y-115806887D01*
X143131500Y-115823500D01*
X135655841Y-115823500D01*
X135595579Y-115807872D01*
X135550507Y-115764928D01*
X135531986Y-115705491D01*
X135544684Y-115644545D01*
X135585401Y-115597450D01*
X135585881Y-115597118D01*
X135595929Y-115590183D01*
X135635822Y-115545151D01*
X135640924Y-115539731D01*
X138058006Y-113122649D01*
X138113594Y-113090557D01*
X138177778Y-113090557D01*
X138194592Y-113095063D01*
X138430000Y-113115659D01*
X138665408Y-113095063D01*
X138893663Y-113033903D01*
X139107830Y-112934035D01*
X139301401Y-112798495D01*
X139423329Y-112676566D01*
X139476072Y-112645273D01*
X139537365Y-112643084D01*
X139592210Y-112670537D01*
X139627189Y-112720916D01*
X139676204Y-112852331D01*
X139681518Y-112859430D01*
X139681519Y-112859431D01*
X139737367Y-112934035D01*
X139762454Y-112967546D01*
X139877669Y-113053796D01*
X140012517Y-113104091D01*
X140072127Y-113110500D01*
X141867872Y-113110499D01*
X141927483Y-113104091D01*
X142062331Y-113053796D01*
X142177546Y-112967546D01*
X142263796Y-112852331D01*
X142314091Y-112717483D01*
X142320500Y-112657873D01*
X142320499Y-110862128D01*
X142314091Y-110802517D01*
X142263796Y-110667669D01*
X142177546Y-110552454D01*
X142134504Y-110520233D01*
X142069431Y-110471519D01*
X142069430Y-110471518D01*
X142062331Y-110466204D01*
X141952522Y-110425248D01*
X141934752Y-110418620D01*
X141934750Y-110418619D01*
X141927483Y-110415909D01*
X141919770Y-110415079D01*
X141919767Y-110415079D01*
X141871180Y-110409855D01*
X141871169Y-110409854D01*
X141867873Y-110409500D01*
X141864550Y-110409500D01*
X140075439Y-110409500D01*
X140075420Y-110409500D01*
X140072128Y-110409501D01*
X140068850Y-110409853D01*
X140068838Y-110409854D01*
X140020231Y-110415079D01*
X140020225Y-110415080D01*
X140012517Y-110415909D01*
X140005252Y-110418618D01*
X140005246Y-110418620D01*
X139885980Y-110463104D01*
X139885978Y-110463104D01*
X139877669Y-110466204D01*
X139870572Y-110471516D01*
X139870568Y-110471519D01*
X139769550Y-110547141D01*
X139769546Y-110547144D01*
X139762454Y-110552454D01*
X139757144Y-110559546D01*
X139757141Y-110559550D01*
X139681519Y-110660568D01*
X139681516Y-110660572D01*
X139676204Y-110667669D01*
X139671938Y-110679108D01*
X139627189Y-110799083D01*
X139592210Y-110849462D01*
X139537365Y-110876915D01*
X139476072Y-110874726D01*
X139423326Y-110843430D01*
X139305232Y-110725336D01*
X139305230Y-110725334D01*
X139301401Y-110721505D01*
X139296970Y-110718402D01*
X139296966Y-110718399D01*
X139112259Y-110589066D01*
X139112257Y-110589064D01*
X139107830Y-110585965D01*
X139102933Y-110583681D01*
X139102927Y-110583678D01*
X138948095Y-110511479D01*
X138895919Y-110465722D01*
X138876500Y-110399097D01*
X138876500Y-108664711D01*
X138890511Y-108607454D01*
X138929377Y-108563136D01*
X138960375Y-108541431D01*
X139047401Y-108480495D01*
X139169329Y-108358566D01*
X139222072Y-108327273D01*
X139283365Y-108325084D01*
X139338210Y-108352537D01*
X139373189Y-108402916D01*
X139422204Y-108534331D01*
X139427518Y-108541430D01*
X139427519Y-108541431D01*
X139483367Y-108616035D01*
X139508454Y-108649546D01*
X139623669Y-108735796D01*
X139758517Y-108786091D01*
X139818127Y-108792500D01*
X141613872Y-108792499D01*
X141673483Y-108786091D01*
X141808331Y-108735796D01*
X141923546Y-108649546D01*
X142009796Y-108534331D01*
X142060091Y-108399483D01*
X142066500Y-108339873D01*
X142066499Y-106544128D01*
X142060091Y-106484517D01*
X142009796Y-106349669D01*
X141923546Y-106234454D01*
X141915560Y-106228476D01*
X141815431Y-106153519D01*
X141815430Y-106153518D01*
X141808331Y-106148204D01*
X141701442Y-106108337D01*
X141680752Y-106100620D01*
X141680750Y-106100619D01*
X141673483Y-106097909D01*
X141665770Y-106097079D01*
X141665767Y-106097079D01*
X141617180Y-106091855D01*
X141617169Y-106091854D01*
X141613873Y-106091500D01*
X141610550Y-106091500D01*
X139821439Y-106091500D01*
X139821420Y-106091500D01*
X139818128Y-106091501D01*
X139814850Y-106091853D01*
X139814838Y-106091854D01*
X139766231Y-106097079D01*
X139766225Y-106097080D01*
X139758517Y-106097909D01*
X139751252Y-106100618D01*
X139751246Y-106100620D01*
X139631980Y-106145104D01*
X139631978Y-106145104D01*
X139623669Y-106148204D01*
X139616572Y-106153516D01*
X139616568Y-106153519D01*
X139515550Y-106229141D01*
X139515546Y-106229144D01*
X139508454Y-106234454D01*
X139503144Y-106241546D01*
X139503141Y-106241550D01*
X139427519Y-106342568D01*
X139427516Y-106342572D01*
X139422204Y-106349669D01*
X139419104Y-106357978D01*
X139419105Y-106357978D01*
X139373189Y-106481083D01*
X139338210Y-106531462D01*
X139283365Y-106558915D01*
X139222072Y-106556726D01*
X139169326Y-106525430D01*
X139051230Y-106407334D01*
X139047401Y-106403505D01*
X138929376Y-106320863D01*
X138890511Y-106276546D01*
X138876500Y-106219289D01*
X138876500Y-103378000D01*
X140590708Y-103378000D01*
X140610141Y-103587712D01*
X140611710Y-103593226D01*
X140666205Y-103784759D01*
X140666207Y-103784764D01*
X140667777Y-103790282D01*
X140761654Y-103978813D01*
X140765106Y-103983384D01*
X140885117Y-104142305D01*
X140885121Y-104142310D01*
X140888575Y-104146883D01*
X140892811Y-104150744D01*
X140892815Y-104150749D01*
X140999549Y-104248049D01*
X141044218Y-104288771D01*
X141223282Y-104399643D01*
X141419671Y-104475724D01*
X141626695Y-104514423D01*
X141831576Y-104514423D01*
X141837305Y-104514423D01*
X142044329Y-104475724D01*
X142240718Y-104399643D01*
X142419782Y-104288771D01*
X142575425Y-104146883D01*
X142702346Y-103978813D01*
X142796223Y-103790282D01*
X142853859Y-103587712D01*
X142873292Y-103378000D01*
X142853859Y-103168288D01*
X142796223Y-102965718D01*
X142702346Y-102777187D01*
X142633727Y-102686321D01*
X142578882Y-102613694D01*
X142578878Y-102613690D01*
X142575425Y-102609117D01*
X142571188Y-102605254D01*
X142571184Y-102605250D01*
X142424016Y-102471089D01*
X142424017Y-102471089D01*
X142419782Y-102467229D01*
X142414916Y-102464216D01*
X142414912Y-102464213D01*
X142245589Y-102359373D01*
X142245588Y-102359372D01*
X142240718Y-102356357D01*
X142235380Y-102354289D01*
X142235376Y-102354287D01*
X142049676Y-102282347D01*
X142049671Y-102282345D01*
X142044329Y-102280276D01*
X142038694Y-102279222D01*
X142038692Y-102279222D01*
X141842935Y-102242629D01*
X141842930Y-102242628D01*
X141837305Y-102241577D01*
X141626695Y-102241577D01*
X141621070Y-102242628D01*
X141621064Y-102242629D01*
X141425307Y-102279222D01*
X141425302Y-102279223D01*
X141419671Y-102280276D01*
X141414330Y-102282344D01*
X141414323Y-102282347D01*
X141228623Y-102354287D01*
X141228614Y-102354291D01*
X141223282Y-102356357D01*
X141218415Y-102359370D01*
X141218410Y-102359373D01*
X141049087Y-102464213D01*
X141049077Y-102464219D01*
X141044218Y-102467229D01*
X141039987Y-102471085D01*
X141039983Y-102471089D01*
X140892815Y-102605250D01*
X140892805Y-102605260D01*
X140888575Y-102609117D01*
X140885126Y-102613683D01*
X140885117Y-102613694D01*
X140765106Y-102772615D01*
X140765103Y-102772619D01*
X140761654Y-102777187D01*
X140759101Y-102782312D01*
X140759099Y-102782317D01*
X140670336Y-102960577D01*
X140670332Y-102960585D01*
X140667777Y-102965718D01*
X140666208Y-102971231D01*
X140666205Y-102971240D01*
X140622878Y-103123521D01*
X140610141Y-103168288D01*
X140590708Y-103378000D01*
X138876500Y-103378000D01*
X138876500Y-88078499D01*
X138893113Y-88016499D01*
X138938500Y-87971112D01*
X139000500Y-87954499D01*
X139578561Y-87954499D01*
X139581872Y-87954499D01*
X139641483Y-87948091D01*
X139776331Y-87897796D01*
X139891546Y-87811546D01*
X139977796Y-87696331D01*
X140028091Y-87561483D01*
X140034500Y-87501873D01*
X140034499Y-85706128D01*
X140028091Y-85646517D01*
X139977796Y-85511669D01*
X139891546Y-85396454D01*
X139802999Y-85330168D01*
X139783431Y-85315519D01*
X139783430Y-85315518D01*
X139776331Y-85310204D01*
X139706359Y-85284106D01*
X139644916Y-85261189D01*
X139594537Y-85226210D01*
X139567084Y-85171365D01*
X139569273Y-85110072D01*
X139600566Y-85057329D01*
X139722495Y-84935401D01*
X139858035Y-84741830D01*
X139957903Y-84527663D01*
X140019063Y-84299408D01*
X140039659Y-84064000D01*
X140019063Y-83828592D01*
X139970572Y-83647619D01*
X139959305Y-83605569D01*
X139959304Y-83605567D01*
X139957903Y-83600337D01*
X139858035Y-83386171D01*
X139722495Y-83192599D01*
X139555401Y-83025505D01*
X139550968Y-83022401D01*
X139550961Y-83022395D01*
X139369842Y-82895575D01*
X139330976Y-82851257D01*
X139316965Y-82794000D01*
X139330976Y-82736743D01*
X139369842Y-82692425D01*
X139550961Y-82565604D01*
X139550961Y-82565603D01*
X139555401Y-82562495D01*
X139722495Y-82395401D01*
X139858035Y-82201830D01*
X139957903Y-81987663D01*
X140019063Y-81759408D01*
X140039659Y-81524000D01*
X140019063Y-81288592D01*
X139957903Y-81060337D01*
X139858035Y-80846171D01*
X139722495Y-80652599D01*
X139555401Y-80485505D01*
X139550970Y-80482402D01*
X139550966Y-80482399D01*
X139369405Y-80355269D01*
X139330540Y-80310951D01*
X139316529Y-80253694D01*
X139330540Y-80196437D01*
X139369406Y-80152119D01*
X139550638Y-80025219D01*
X139558909Y-80018278D01*
X139718278Y-79858909D01*
X139725215Y-79850643D01*
X139854498Y-79666008D01*
X139859886Y-79656676D01*
X139955143Y-79452397D01*
X139958831Y-79442263D01*
X140010943Y-79247780D01*
X140011311Y-79236551D01*
X140000369Y-79234000D01*
X137367631Y-79234000D01*
X137355477Y-79236833D01*
X137323110Y-79279719D01*
X137274924Y-79304933D01*
X137227506Y-79306826D01*
X137227469Y-79307447D01*
X137221305Y-79307074D01*
X137220583Y-79307103D01*
X137219991Y-79306994D01*
X137219980Y-79306993D01*
X137212606Y-79305642D01*
X137205126Y-79306094D01*
X137205118Y-79306094D01*
X137152567Y-79309274D01*
X137145079Y-79309500D01*
X136566798Y-79309500D01*
X136506366Y-79293777D01*
X136461259Y-79250596D01*
X136428507Y-79197496D01*
X136428505Y-79197493D01*
X136424712Y-79191344D01*
X136331049Y-79097681D01*
X136298955Y-79042094D01*
X136298955Y-78977906D01*
X136331049Y-78922319D01*
X136331048Y-78922319D01*
X136424712Y-78828656D01*
X136484670Y-78731448D01*
X137356688Y-78731448D01*
X137367631Y-78734000D01*
X138417674Y-78734000D01*
X138430549Y-78730549D01*
X138434000Y-78717674D01*
X138934000Y-78717674D01*
X138937450Y-78730549D01*
X138950326Y-78734000D01*
X140000369Y-78734000D01*
X140011311Y-78731448D01*
X140010943Y-78720219D01*
X139958831Y-78525736D01*
X139955143Y-78515602D01*
X139859889Y-78311332D01*
X139854491Y-78301982D01*
X139725215Y-78117357D01*
X139718280Y-78109092D01*
X139558909Y-77949721D01*
X139550643Y-77942784D01*
X139366008Y-77813501D01*
X139356676Y-77808113D01*
X139152397Y-77712856D01*
X139142263Y-77709168D01*
X138947780Y-77657056D01*
X138936551Y-77656688D01*
X138934000Y-77667631D01*
X138934000Y-78717674D01*
X138434000Y-78717674D01*
X138434000Y-77667631D01*
X138431448Y-77656688D01*
X138420219Y-77657056D01*
X138225736Y-77709168D01*
X138215602Y-77712856D01*
X138011332Y-77808110D01*
X138001982Y-77813508D01*
X137817357Y-77942784D01*
X137809092Y-77949719D01*
X137649719Y-78109092D01*
X137642784Y-78117357D01*
X137513508Y-78301982D01*
X137508110Y-78311332D01*
X137412856Y-78515602D01*
X137409168Y-78525736D01*
X137357056Y-78720219D01*
X137356688Y-78731448D01*
X136484670Y-78731448D01*
X136516814Y-78679334D01*
X136571999Y-78512797D01*
X136582500Y-78410009D01*
X136582499Y-77609992D01*
X136571999Y-77507203D01*
X136516814Y-77340666D01*
X136437453Y-77212000D01*
X136428502Y-77197488D01*
X136428500Y-77197485D01*
X136424712Y-77191344D01*
X136300656Y-77067288D01*
X136294515Y-77063500D01*
X136294511Y-77063497D01*
X136157480Y-76978977D01*
X136151334Y-76975186D01*
X135984797Y-76920001D01*
X135978064Y-76919313D01*
X135978059Y-76919312D01*
X135885140Y-76909819D01*
X135885123Y-76909818D01*
X135882009Y-76909500D01*
X135878860Y-76909500D01*
X135323519Y-76909500D01*
X135276066Y-76900061D01*
X135235838Y-76873181D01*
X134344939Y-75982282D01*
X134339820Y-75976845D01*
X134330412Y-75966225D01*
X134303584Y-75916577D01*
X134301538Y-75860178D01*
X134324700Y-75808713D01*
X134368272Y-75772843D01*
X134423228Y-75760000D01*
X140293674Y-75760000D01*
X140310000Y-75760000D01*
X140310000Y-70612000D01*
X140590708Y-70612000D01*
X140610141Y-70821712D01*
X140611710Y-70827226D01*
X140666205Y-71018759D01*
X140666207Y-71018764D01*
X140667777Y-71024282D01*
X140761654Y-71212813D01*
X140765106Y-71217384D01*
X140885117Y-71376305D01*
X140885121Y-71376310D01*
X140888575Y-71380883D01*
X140892811Y-71384744D01*
X140892815Y-71384749D01*
X140999549Y-71482049D01*
X141044218Y-71522771D01*
X141223282Y-71633643D01*
X141419671Y-71709724D01*
X141626695Y-71748423D01*
X141831576Y-71748423D01*
X141837305Y-71748423D01*
X142044329Y-71709724D01*
X142240718Y-71633643D01*
X142419782Y-71522771D01*
X142575425Y-71380883D01*
X142702346Y-71212813D01*
X142796223Y-71024282D01*
X142853859Y-70821712D01*
X142873292Y-70612000D01*
X142853859Y-70402288D01*
X142796223Y-70199718D01*
X142702346Y-70011187D01*
X142652716Y-69945467D01*
X142578882Y-69847694D01*
X142578878Y-69847690D01*
X142575425Y-69843117D01*
X142571188Y-69839254D01*
X142571184Y-69839250D01*
X142424016Y-69705089D01*
X142424017Y-69705089D01*
X142419782Y-69701229D01*
X142414916Y-69698216D01*
X142414912Y-69698213D01*
X142245589Y-69593373D01*
X142245588Y-69593372D01*
X142240718Y-69590357D01*
X142235380Y-69588289D01*
X142235376Y-69588287D01*
X142049676Y-69516347D01*
X142049671Y-69516345D01*
X142044329Y-69514276D01*
X142038694Y-69513222D01*
X142038692Y-69513222D01*
X141842935Y-69476629D01*
X141842930Y-69476628D01*
X141837305Y-69475577D01*
X141626695Y-69475577D01*
X141621070Y-69476628D01*
X141621064Y-69476629D01*
X141425307Y-69513222D01*
X141425302Y-69513223D01*
X141419671Y-69514276D01*
X141414330Y-69516344D01*
X141414323Y-69516347D01*
X141228623Y-69588287D01*
X141228614Y-69588291D01*
X141223282Y-69590357D01*
X141218415Y-69593370D01*
X141218410Y-69593373D01*
X141049087Y-69698213D01*
X141049077Y-69698219D01*
X141044218Y-69701229D01*
X141039987Y-69705085D01*
X141039983Y-69705089D01*
X140892815Y-69839250D01*
X140892805Y-69839260D01*
X140888575Y-69843117D01*
X140885126Y-69847683D01*
X140885117Y-69847694D01*
X140765106Y-70006615D01*
X140765103Y-70006619D01*
X140761654Y-70011187D01*
X140759101Y-70016312D01*
X140759099Y-70016317D01*
X140670336Y-70194577D01*
X140670332Y-70194585D01*
X140667777Y-70199718D01*
X140666208Y-70205231D01*
X140666205Y-70205240D01*
X140611710Y-70396773D01*
X140610141Y-70402288D01*
X140590708Y-70612000D01*
X140310000Y-70612000D01*
X140310000Y-69212500D01*
X140326613Y-69150500D01*
X140372000Y-69105113D01*
X140434000Y-69088500D01*
X143131500Y-69088500D01*
X143193500Y-69105113D01*
G37*
%TD.AperFunction*%
%TA.AperFunction,Conductor*%
G36*
X92248000Y-69105113D02*
G01*
X92293387Y-69150500D01*
X92310000Y-69212500D01*
X92310000Y-75760000D01*
X101623977Y-75760000D01*
X101680272Y-75773515D01*
X101724295Y-75811115D01*
X101746450Y-75864602D01*
X101741908Y-75922318D01*
X101711658Y-75971681D01*
X101669794Y-76013544D01*
X101660890Y-76024805D01*
X101576432Y-76161733D01*
X101570370Y-76174732D01*
X101519624Y-76327874D01*
X101516805Y-76341041D01*
X101507319Y-76433890D01*
X101507000Y-76440168D01*
X101507000Y-76695674D01*
X101510450Y-76708549D01*
X101523326Y-76712000D01*
X102720500Y-76712000D01*
X102782500Y-76728613D01*
X102827887Y-76774000D01*
X102844500Y-76836000D01*
X102844500Y-77088000D01*
X102827887Y-77150000D01*
X102782500Y-77195387D01*
X102720500Y-77212000D01*
X101523327Y-77212000D01*
X101510451Y-77215450D01*
X101507001Y-77228326D01*
X101507001Y-77483829D01*
X101507321Y-77490111D01*
X101516805Y-77582959D01*
X101519623Y-77596122D01*
X101570370Y-77749267D01*
X101576435Y-77762273D01*
X101578984Y-77766406D01*
X101597415Y-77828798D01*
X101581721Y-77891933D01*
X101536223Y-77938434D01*
X101473444Y-77955500D01*
X99692921Y-77955500D01*
X99685433Y-77955274D01*
X99632881Y-77952094D01*
X99632873Y-77952094D01*
X99625394Y-77951642D01*
X99618018Y-77952993D01*
X99618011Y-77952994D01*
X99566228Y-77962483D01*
X99558828Y-77963610D01*
X99506569Y-77969956D01*
X99506565Y-77969956D01*
X99499128Y-77970860D01*
X99492119Y-77973517D01*
X99492114Y-77973519D01*
X99489643Y-77974456D01*
X99468053Y-77980474D01*
X99465449Y-77980951D01*
X99465438Y-77980954D01*
X99458069Y-77982305D01*
X99451237Y-77985379D01*
X99451233Y-77985381D01*
X99403212Y-78006993D01*
X99396296Y-78009857D01*
X99347082Y-78028522D01*
X99347077Y-78028524D01*
X99340070Y-78031182D01*
X99333907Y-78035435D01*
X99333897Y-78035441D01*
X99331727Y-78036940D01*
X99312185Y-78047962D01*
X99309783Y-78049043D01*
X99309780Y-78049044D01*
X99302943Y-78052122D01*
X99297043Y-78056743D01*
X99297035Y-78056749D01*
X99255597Y-78089213D01*
X99249568Y-78093649D01*
X99206248Y-78123551D01*
X99206236Y-78123560D01*
X99200071Y-78127817D01*
X99195102Y-78133425D01*
X99195096Y-78133431D01*
X99160184Y-78172838D01*
X99155051Y-78178290D01*
X98814160Y-78519181D01*
X98773932Y-78546061D01*
X98726479Y-78555500D01*
X98171141Y-78555500D01*
X98171121Y-78555500D01*
X98167992Y-78555501D01*
X98164860Y-78555820D01*
X98164858Y-78555821D01*
X98071938Y-78565312D01*
X98071928Y-78565313D01*
X98065203Y-78566001D01*
X98058781Y-78568128D01*
X98058776Y-78568130D01*
X97905521Y-78618914D01*
X97905517Y-78618915D01*
X97898666Y-78621186D01*
X97892522Y-78624975D01*
X97892519Y-78624977D01*
X97755488Y-78709497D01*
X97755480Y-78709503D01*
X97749344Y-78713288D01*
X97744242Y-78718389D01*
X97744238Y-78718393D01*
X97630393Y-78832238D01*
X97630389Y-78832242D01*
X97625288Y-78837344D01*
X97621503Y-78843480D01*
X97621497Y-78843488D01*
X97538589Y-78977906D01*
X97533186Y-78986666D01*
X97530915Y-78993517D01*
X97530914Y-78993521D01*
X97480891Y-79144481D01*
X97478001Y-79153203D01*
X97477313Y-79159933D01*
X97477312Y-79159940D01*
X97467819Y-79252859D01*
X97467818Y-79252877D01*
X97467500Y-79255991D01*
X97467500Y-79259138D01*
X97467500Y-79259139D01*
X97467500Y-80252859D01*
X97467500Y-80252878D01*
X97467501Y-80256008D01*
X97467820Y-80259140D01*
X97467821Y-80259141D01*
X97477312Y-80352061D01*
X97477313Y-80352069D01*
X97478001Y-80358797D01*
X97480129Y-80365219D01*
X97480130Y-80365223D01*
X97530914Y-80518478D01*
X97533186Y-80525334D01*
X97536977Y-80531480D01*
X97621497Y-80668511D01*
X97621500Y-80668515D01*
X97625288Y-80674656D01*
X97749344Y-80798712D01*
X97806178Y-80833767D01*
X97822104Y-80843590D01*
X97861438Y-80882268D01*
X97880103Y-80934178D01*
X97881954Y-80949418D01*
X97881955Y-80949424D01*
X97882860Y-80956872D01*
X97885519Y-80963885D01*
X97885521Y-80963891D01*
X97886450Y-80966340D01*
X97892475Y-80987952D01*
X97892951Y-80990551D01*
X97892954Y-80990560D01*
X97894305Y-80997932D01*
X97897382Y-81004769D01*
X97897383Y-81004772D01*
X97918991Y-81052784D01*
X97921857Y-81059702D01*
X97943182Y-81115930D01*
X97947442Y-81122102D01*
X97947445Y-81122107D01*
X97948937Y-81124268D01*
X97959959Y-81143810D01*
X97961039Y-81146210D01*
X97961044Y-81146219D01*
X97964122Y-81153057D01*
X97968745Y-81158958D01*
X97968747Y-81158961D01*
X98001216Y-81200404D01*
X98005636Y-81206410D01*
X98039817Y-81255929D01*
X98084847Y-81295822D01*
X98090282Y-81300939D01*
X98504493Y-81715150D01*
X98535537Y-81767047D01*
X98538342Y-81827456D01*
X98512243Y-81882008D01*
X98463446Y-81917728D01*
X98403558Y-81926121D01*
X98387116Y-81924353D01*
X98380518Y-81924000D01*
X97802326Y-81924000D01*
X97789450Y-81927450D01*
X97786000Y-81940326D01*
X97786000Y-82537674D01*
X97789450Y-82550549D01*
X97802326Y-82554000D01*
X98819674Y-82554000D01*
X98832549Y-82550549D01*
X98836000Y-82537674D01*
X98836000Y-82379482D01*
X98835646Y-82372879D01*
X98833879Y-82356447D01*
X98842270Y-82296557D01*
X98877989Y-82247758D01*
X98932541Y-82221657D01*
X98992950Y-82224462D01*
X99044849Y-82255506D01*
X101117181Y-84327838D01*
X101144061Y-84368066D01*
X101153500Y-84415519D01*
X101153500Y-84734770D01*
X101139985Y-84791065D01*
X101102385Y-84835088D01*
X101048898Y-84857243D01*
X100991182Y-84852701D01*
X100941819Y-84822451D01*
X100908761Y-84789393D01*
X100908760Y-84789392D01*
X100903656Y-84784288D01*
X100897515Y-84780500D01*
X100897511Y-84780497D01*
X100760480Y-84695977D01*
X100754334Y-84692186D01*
X100587797Y-84637001D01*
X100581064Y-84636313D01*
X100581059Y-84636312D01*
X100488140Y-84626819D01*
X100488123Y-84626818D01*
X100485009Y-84626500D01*
X100481860Y-84626500D01*
X99713141Y-84626500D01*
X99713121Y-84626500D01*
X99709992Y-84626501D01*
X99706860Y-84626820D01*
X99706858Y-84626821D01*
X99613938Y-84636312D01*
X99613928Y-84636313D01*
X99607203Y-84637001D01*
X99600781Y-84639128D01*
X99600776Y-84639130D01*
X99447521Y-84689914D01*
X99447517Y-84689915D01*
X99440666Y-84692186D01*
X99434522Y-84695975D01*
X99434519Y-84695977D01*
X99297488Y-84780497D01*
X99297480Y-84780503D01*
X99291344Y-84784288D01*
X99286242Y-84789389D01*
X99286238Y-84789393D01*
X99172393Y-84903238D01*
X99172389Y-84903242D01*
X99167288Y-84908344D01*
X99163499Y-84914486D01*
X99159016Y-84920157D01*
X99157566Y-84919010D01*
X99120122Y-84954845D01*
X99059689Y-84970559D01*
X98999262Y-84954829D01*
X98962117Y-84919263D01*
X98960590Y-84920471D01*
X98947205Y-84903544D01*
X98833455Y-84789794D01*
X98822194Y-84780890D01*
X98685266Y-84696432D01*
X98672267Y-84690370D01*
X98519125Y-84639624D01*
X98505958Y-84636805D01*
X98413109Y-84627319D01*
X98406832Y-84627000D01*
X98288826Y-84627000D01*
X98275950Y-84630450D01*
X98272500Y-84643326D01*
X98272500Y-85978000D01*
X98255887Y-86040000D01*
X98210500Y-86085387D01*
X98148500Y-86102000D01*
X96951327Y-86102000D01*
X96938451Y-86105450D01*
X96935001Y-86118326D01*
X96935001Y-86373829D01*
X96935321Y-86380111D01*
X96944806Y-86472962D01*
X96948787Y-86491560D01*
X96945902Y-86554461D01*
X96912495Y-86607834D01*
X96857181Y-86637919D01*
X96794222Y-86636957D01*
X96739853Y-86605196D01*
X95720331Y-85585674D01*
X96935000Y-85585674D01*
X96938450Y-85598549D01*
X96951326Y-85602000D01*
X97756174Y-85602000D01*
X97769049Y-85598549D01*
X97772500Y-85585674D01*
X97772500Y-84643327D01*
X97769049Y-84630451D01*
X97756174Y-84627001D01*
X97638171Y-84627001D01*
X97631888Y-84627321D01*
X97539040Y-84636805D01*
X97525877Y-84639623D01*
X97372732Y-84690370D01*
X97359733Y-84696432D01*
X97222805Y-84780890D01*
X97211544Y-84789794D01*
X97097794Y-84903544D01*
X97088890Y-84914805D01*
X97004432Y-85051733D01*
X96998370Y-85064732D01*
X96947624Y-85217874D01*
X96944805Y-85231041D01*
X96935319Y-85323890D01*
X96935000Y-85330168D01*
X96935000Y-85585674D01*
X95720331Y-85585674D01*
X95351819Y-85217162D01*
X95324939Y-85176934D01*
X95315500Y-85129481D01*
X95315500Y-83228518D01*
X96236000Y-83228518D01*
X96236353Y-83235114D01*
X96241573Y-83283667D01*
X96245111Y-83298641D01*
X96289547Y-83417777D01*
X96297962Y-83433189D01*
X96373498Y-83534092D01*
X96385907Y-83546501D01*
X96486810Y-83622037D01*
X96502222Y-83630452D01*
X96621358Y-83674888D01*
X96636332Y-83678426D01*
X96684885Y-83683646D01*
X96691482Y-83684000D01*
X97269674Y-83684000D01*
X97282549Y-83680549D01*
X97286000Y-83667674D01*
X97786000Y-83667674D01*
X97789450Y-83680549D01*
X97802326Y-83684000D01*
X98380518Y-83684000D01*
X98387114Y-83683646D01*
X98435667Y-83678426D01*
X98450641Y-83674888D01*
X98569777Y-83630452D01*
X98585189Y-83622037D01*
X98686092Y-83546501D01*
X98698501Y-83534092D01*
X98774037Y-83433189D01*
X98782452Y-83417777D01*
X98826888Y-83298641D01*
X98830426Y-83283667D01*
X98835646Y-83235114D01*
X98836000Y-83228518D01*
X98836000Y-83070326D01*
X98832549Y-83057450D01*
X98819674Y-83054000D01*
X97802326Y-83054000D01*
X97789450Y-83057450D01*
X97786000Y-83070326D01*
X97786000Y-83667674D01*
X97286000Y-83667674D01*
X97286000Y-83070326D01*
X97282549Y-83057450D01*
X97269674Y-83054000D01*
X96252326Y-83054000D01*
X96239450Y-83057450D01*
X96236000Y-83070326D01*
X96236000Y-83228518D01*
X95315500Y-83228518D01*
X95315500Y-82537674D01*
X96236000Y-82537674D01*
X96239450Y-82550549D01*
X96252326Y-82554000D01*
X97269674Y-82554000D01*
X97282549Y-82550549D01*
X97286000Y-82537674D01*
X97286000Y-81940326D01*
X97282549Y-81927450D01*
X97269674Y-81924000D01*
X96691482Y-81924000D01*
X96684885Y-81924353D01*
X96636332Y-81929573D01*
X96621358Y-81933111D01*
X96502222Y-81977547D01*
X96486810Y-81985962D01*
X96385907Y-82061498D01*
X96373498Y-82073907D01*
X96297962Y-82174810D01*
X96289547Y-82190222D01*
X96245111Y-82309358D01*
X96241573Y-82324332D01*
X96236353Y-82372885D01*
X96236000Y-82379482D01*
X96236000Y-82537674D01*
X95315500Y-82537674D01*
X95315500Y-80126769D01*
X95331311Y-80066180D01*
X95374710Y-80021042D01*
X95432730Y-79985487D01*
X95509132Y-79938668D01*
X95690643Y-79783643D01*
X95845668Y-79602132D01*
X95970389Y-79398605D01*
X96061737Y-79178073D01*
X96117461Y-78945966D01*
X96136189Y-78708000D01*
X96117461Y-78470034D01*
X96061737Y-78237927D01*
X95970389Y-78017395D01*
X95901192Y-77904475D01*
X95848214Y-77818022D01*
X95848211Y-77818018D01*
X95845668Y-77813868D01*
X95840750Y-77808110D01*
X95693803Y-77636057D01*
X95690643Y-77632357D01*
X95684957Y-77627501D01*
X95512836Y-77480495D01*
X95512831Y-77480492D01*
X95509132Y-77477332D01*
X95504984Y-77474790D01*
X95504977Y-77474785D01*
X95309763Y-77355159D01*
X95309762Y-77355158D01*
X95305605Y-77352611D01*
X95085073Y-77261263D01*
X95080344Y-77260127D01*
X95080336Y-77260125D01*
X94857699Y-77206675D01*
X94857695Y-77206674D01*
X94852966Y-77205539D01*
X94848115Y-77205157D01*
X94848114Y-77205157D01*
X94619854Y-77187193D01*
X94615000Y-77186811D01*
X94610146Y-77187193D01*
X94381885Y-77205157D01*
X94381882Y-77205157D01*
X94377034Y-77205539D01*
X94372306Y-77206673D01*
X94372300Y-77206675D01*
X94149663Y-77260125D01*
X94149651Y-77260128D01*
X94144927Y-77261263D01*
X94140430Y-77263125D01*
X94140426Y-77263127D01*
X93928899Y-77350745D01*
X93928895Y-77350746D01*
X93924395Y-77352611D01*
X93920242Y-77355155D01*
X93920236Y-77355159D01*
X93725022Y-77474785D01*
X93725009Y-77474794D01*
X93720868Y-77477332D01*
X93717173Y-77480487D01*
X93717163Y-77480495D01*
X93543057Y-77629196D01*
X93543050Y-77629202D01*
X93539357Y-77632357D01*
X93536202Y-77636050D01*
X93536196Y-77636057D01*
X93439290Y-77749520D01*
X93396914Y-77781598D01*
X93345000Y-77792988D01*
X93293086Y-77781598D01*
X93250710Y-77749520D01*
X93153803Y-77636057D01*
X93150643Y-77632357D01*
X93144957Y-77627501D01*
X92972836Y-77480495D01*
X92972831Y-77480492D01*
X92969132Y-77477332D01*
X92964984Y-77474790D01*
X92964977Y-77474785D01*
X92769763Y-77355159D01*
X92769762Y-77355158D01*
X92765605Y-77352611D01*
X92545073Y-77261263D01*
X92540344Y-77260127D01*
X92540336Y-77260125D01*
X92317699Y-77206675D01*
X92317695Y-77206674D01*
X92312966Y-77205539D01*
X92308115Y-77205157D01*
X92308114Y-77205157D01*
X92079854Y-77187193D01*
X92075000Y-77186811D01*
X92070146Y-77187193D01*
X91841885Y-77205157D01*
X91841882Y-77205157D01*
X91837034Y-77205539D01*
X91832306Y-77206673D01*
X91832300Y-77206675D01*
X91609663Y-77260125D01*
X91609651Y-77260128D01*
X91604927Y-77261263D01*
X91600430Y-77263125D01*
X91600426Y-77263127D01*
X91388899Y-77350745D01*
X91388895Y-77350746D01*
X91384395Y-77352611D01*
X91380242Y-77355155D01*
X91380236Y-77355159D01*
X91185022Y-77474785D01*
X91185009Y-77474794D01*
X91180868Y-77477332D01*
X91177173Y-77480487D01*
X91177163Y-77480495D01*
X91003057Y-77629196D01*
X91003050Y-77629202D01*
X90999357Y-77632357D01*
X90996202Y-77636050D01*
X90996196Y-77636057D01*
X90847495Y-77810163D01*
X90847487Y-77810173D01*
X90844332Y-77813868D01*
X90841794Y-77818009D01*
X90841785Y-77818022D01*
X90722159Y-78013236D01*
X90722155Y-78013242D01*
X90719611Y-78017395D01*
X90717746Y-78021895D01*
X90717745Y-78021899D01*
X90652966Y-78178290D01*
X90628263Y-78237927D01*
X90627128Y-78242651D01*
X90627125Y-78242663D01*
X90573675Y-78465300D01*
X90573673Y-78465306D01*
X90572539Y-78470034D01*
X90572157Y-78474882D01*
X90572157Y-78474885D01*
X90554719Y-78696457D01*
X90553811Y-78708000D01*
X90554193Y-78712854D01*
X90563588Y-78832238D01*
X90572539Y-78945966D01*
X90573674Y-78950695D01*
X90573675Y-78950699D01*
X90627125Y-79173336D01*
X90627127Y-79173344D01*
X90628263Y-79178073D01*
X90719611Y-79398605D01*
X90722158Y-79402762D01*
X90722159Y-79402763D01*
X90841785Y-79597977D01*
X90841790Y-79597984D01*
X90844332Y-79602132D01*
X90847492Y-79605831D01*
X90847495Y-79605836D01*
X90862164Y-79623011D01*
X90999357Y-79783643D01*
X91003057Y-79786803D01*
X91177159Y-79935501D01*
X91180868Y-79938668D01*
X91185018Y-79941211D01*
X91185022Y-79941214D01*
X91202813Y-79952116D01*
X91384395Y-80063389D01*
X91604927Y-80154737D01*
X91837034Y-80210461D01*
X92075000Y-80229189D01*
X92312966Y-80210461D01*
X92545073Y-80154737D01*
X92765605Y-80063389D01*
X92969132Y-79938668D01*
X93150643Y-79783643D01*
X93250710Y-79666478D01*
X93293086Y-79634401D01*
X93345000Y-79623011D01*
X93396914Y-79634401D01*
X93439289Y-79666478D01*
X93539357Y-79783643D01*
X93720868Y-79938668D01*
X93742812Y-79952115D01*
X93855290Y-80021042D01*
X93898689Y-80066180D01*
X93914500Y-80126769D01*
X93914500Y-85446079D01*
X93914274Y-85453567D01*
X93911094Y-85506118D01*
X93911094Y-85506126D01*
X93910642Y-85513606D01*
X93911993Y-85520982D01*
X93911994Y-85520987D01*
X93921483Y-85572771D01*
X93922610Y-85580171D01*
X93928955Y-85632425D01*
X93928956Y-85632430D01*
X93929860Y-85639872D01*
X93932519Y-85646885D01*
X93932521Y-85646891D01*
X93933450Y-85649340D01*
X93939475Y-85670952D01*
X93939951Y-85673551D01*
X93939954Y-85673560D01*
X93941305Y-85680932D01*
X93944382Y-85687769D01*
X93944383Y-85687772D01*
X93965991Y-85735784D01*
X93968857Y-85742702D01*
X93990182Y-85798930D01*
X93994442Y-85805102D01*
X93994445Y-85805107D01*
X93995937Y-85807268D01*
X94006959Y-85826810D01*
X94008039Y-85829210D01*
X94008044Y-85829219D01*
X94011122Y-85836057D01*
X94015745Y-85841958D01*
X94015747Y-85841961D01*
X94048216Y-85883404D01*
X94052636Y-85889410D01*
X94086817Y-85938929D01*
X94131847Y-85978822D01*
X94137282Y-85983939D01*
X97277059Y-89123716D01*
X97282193Y-89129170D01*
X97322071Y-89174183D01*
X97371577Y-89208355D01*
X97377597Y-89212785D01*
X97424943Y-89249878D01*
X97431779Y-89252954D01*
X97431785Y-89252958D01*
X97434179Y-89254035D01*
X97453733Y-89265063D01*
X97462070Y-89270818D01*
X97469089Y-89273479D01*
X97475127Y-89276649D01*
X97523617Y-89322295D01*
X97541500Y-89386445D01*
X97541500Y-89690560D01*
X97541500Y-89690578D01*
X97541501Y-89693872D01*
X97541853Y-89697150D01*
X97541854Y-89697161D01*
X97547079Y-89745768D01*
X97547080Y-89745773D01*
X97547909Y-89753483D01*
X97550619Y-89760749D01*
X97550620Y-89760753D01*
X97572217Y-89818656D01*
X97598204Y-89888331D01*
X97684454Y-90003546D01*
X97799669Y-90089796D01*
X97934517Y-90140091D01*
X97994127Y-90146500D01*
X99589872Y-90146499D01*
X99649483Y-90140091D01*
X99784331Y-90089796D01*
X99867689Y-90027393D01*
X99915640Y-90005495D01*
X99968357Y-90005495D01*
X100016310Y-90027394D01*
X100092570Y-90084482D01*
X100099669Y-90089796D01*
X100107978Y-90092895D01*
X100109925Y-90093958D01*
X100157141Y-90139517D01*
X100174500Y-90202791D01*
X100174500Y-93321501D01*
X100157887Y-93383501D01*
X100112500Y-93428888D01*
X100050500Y-93445501D01*
X99144128Y-93445501D01*
X99140850Y-93445853D01*
X99140838Y-93445854D01*
X99092231Y-93451079D01*
X99092225Y-93451080D01*
X99084517Y-93451909D01*
X99077252Y-93454618D01*
X99077246Y-93454620D01*
X98957980Y-93499104D01*
X98957978Y-93499104D01*
X98949669Y-93502204D01*
X98942572Y-93507516D01*
X98942568Y-93507519D01*
X98841550Y-93583141D01*
X98841546Y-93583144D01*
X98834454Y-93588454D01*
X98829144Y-93595546D01*
X98829141Y-93595550D01*
X98753519Y-93696568D01*
X98753516Y-93696572D01*
X98748204Y-93703669D01*
X98745104Y-93711978D01*
X98745104Y-93711980D01*
X98700620Y-93831247D01*
X98700619Y-93831250D01*
X98697909Y-93838517D01*
X98697079Y-93846227D01*
X98697079Y-93846232D01*
X98691855Y-93894819D01*
X98691854Y-93894831D01*
X98691500Y-93898127D01*
X98691500Y-93901448D01*
X98691500Y-93901449D01*
X98691500Y-95990560D01*
X98691500Y-95990578D01*
X98691501Y-95993872D01*
X98691853Y-95997150D01*
X98691854Y-95997161D01*
X98697079Y-96045768D01*
X98697080Y-96045773D01*
X98697909Y-96053483D01*
X98700619Y-96060749D01*
X98700620Y-96060753D01*
X98720205Y-96113263D01*
X98748204Y-96188331D01*
X98753516Y-96195427D01*
X98753519Y-96195432D01*
X98778041Y-96228188D01*
X98802281Y-96291447D01*
X98789659Y-96358004D01*
X98743942Y-96407995D01*
X98678775Y-96426500D01*
X98284141Y-96426500D01*
X98284121Y-96426500D01*
X98280992Y-96426501D01*
X98277860Y-96426820D01*
X98277858Y-96426821D01*
X98184938Y-96436312D01*
X98184928Y-96436313D01*
X98178203Y-96437001D01*
X98171781Y-96439128D01*
X98171776Y-96439130D01*
X98018521Y-96489914D01*
X98018517Y-96489915D01*
X98011666Y-96492186D01*
X98005522Y-96495975D01*
X98005519Y-96495977D01*
X97868488Y-96580497D01*
X97868480Y-96580503D01*
X97862344Y-96584288D01*
X97857242Y-96589389D01*
X97857238Y-96589393D01*
X97743393Y-96703238D01*
X97743389Y-96703242D01*
X97738288Y-96708344D01*
X97734503Y-96714480D01*
X97734497Y-96714488D01*
X97649977Y-96851519D01*
X97646186Y-96857666D01*
X97643915Y-96864517D01*
X97643914Y-96864521D01*
X97595033Y-97012034D01*
X97591001Y-97024203D01*
X97590313Y-97030933D01*
X97590312Y-97030940D01*
X97580819Y-97123859D01*
X97580818Y-97123877D01*
X97580500Y-97126991D01*
X97580500Y-97130140D01*
X97580500Y-97697980D01*
X97571061Y-97745433D01*
X97544181Y-97785661D01*
X94962290Y-100367551D01*
X94956838Y-100372684D01*
X94917431Y-100407596D01*
X94917425Y-100407602D01*
X94911817Y-100412571D01*
X94907560Y-100418736D01*
X94907551Y-100418748D01*
X94877649Y-100462068D01*
X94873213Y-100468097D01*
X94840749Y-100509535D01*
X94840743Y-100509543D01*
X94836122Y-100515443D01*
X94833044Y-100522280D01*
X94833043Y-100522283D01*
X94831962Y-100524685D01*
X94820940Y-100544227D01*
X94819441Y-100546398D01*
X94819437Y-100546404D01*
X94815182Y-100552570D01*
X94812526Y-100559570D01*
X94812522Y-100559580D01*
X94793853Y-100608805D01*
X94790989Y-100615719D01*
X94769382Y-100663729D01*
X94769379Y-100663735D01*
X94766305Y-100670568D01*
X94764953Y-100677939D01*
X94764951Y-100677949D01*
X94764474Y-100680553D01*
X94758456Y-100702143D01*
X94757519Y-100704614D01*
X94757517Y-100704619D01*
X94754860Y-100711628D01*
X94753956Y-100719065D01*
X94753956Y-100719069D01*
X94747610Y-100771327D01*
X94746483Y-100778726D01*
X94736994Y-100830510D01*
X94736993Y-100830518D01*
X94735642Y-100837894D01*
X94736094Y-100845373D01*
X94736094Y-100845381D01*
X94739274Y-100897933D01*
X94739500Y-100905421D01*
X94739500Y-110465079D01*
X94739274Y-110472567D01*
X94736094Y-110525118D01*
X94736094Y-110525126D01*
X94735642Y-110532606D01*
X94736993Y-110539983D01*
X94736994Y-110539985D01*
X94737469Y-110542576D01*
X94739500Y-110564927D01*
X94739500Y-110582101D01*
X94725489Y-110639358D01*
X94686624Y-110683676D01*
X94637033Y-110718399D01*
X94637023Y-110718406D01*
X94632599Y-110721505D01*
X94628773Y-110725330D01*
X94628767Y-110725336D01*
X94469334Y-110884769D01*
X94469328Y-110884775D01*
X94465505Y-110888599D01*
X94462402Y-110893029D01*
X94462399Y-110893034D01*
X94333073Y-111077731D01*
X94333068Y-111077738D01*
X94329965Y-111082171D01*
X94327677Y-111087077D01*
X94327675Y-111087081D01*
X94232386Y-111291427D01*
X94232383Y-111291432D01*
X94230097Y-111296337D01*
X94228698Y-111301557D01*
X94228694Y-111301569D01*
X94170337Y-111519365D01*
X94170335Y-111519371D01*
X94168937Y-111524592D01*
X94148341Y-111760000D01*
X94168937Y-111995408D01*
X94170336Y-112000630D01*
X94170337Y-112000634D01*
X94228694Y-112218430D01*
X94228697Y-112218438D01*
X94230097Y-112223663D01*
X94232385Y-112228570D01*
X94232386Y-112228572D01*
X94327678Y-112432927D01*
X94327681Y-112432933D01*
X94329965Y-112437830D01*
X94333064Y-112442257D01*
X94333066Y-112442259D01*
X94462399Y-112626966D01*
X94462402Y-112626970D01*
X94465505Y-112631401D01*
X94632599Y-112798495D01*
X94637028Y-112801596D01*
X94637033Y-112801600D01*
X94731665Y-112867862D01*
X94826170Y-112934035D01*
X95040337Y-113033903D01*
X95268592Y-113095063D01*
X95504000Y-113115659D01*
X95739408Y-113095063D01*
X95744633Y-113093662D01*
X95744638Y-113093662D01*
X95756219Y-113090559D01*
X95820407Y-113090558D01*
X95875995Y-113122652D01*
X97031059Y-114277716D01*
X97036193Y-114283170D01*
X97071093Y-114322565D01*
X97071097Y-114322568D01*
X97076071Y-114328183D01*
X97082247Y-114332446D01*
X97125574Y-114362353D01*
X97131605Y-114366791D01*
X97178944Y-114403878D01*
X97188180Y-114408034D01*
X97207727Y-114419059D01*
X97216070Y-114424818D01*
X97272214Y-114446110D01*
X97272298Y-114446142D01*
X97279220Y-114449009D01*
X97334069Y-114473695D01*
X97344041Y-114475522D01*
X97365656Y-114481547D01*
X97375128Y-114485140D01*
X97432831Y-114492146D01*
X97434815Y-114492387D01*
X97442222Y-114493514D01*
X97501394Y-114504358D01*
X97561433Y-114500725D01*
X97568921Y-114500500D01*
X112711628Y-114500500D01*
X112796372Y-114500500D01*
X113717078Y-114500500D01*
X113739429Y-114502530D01*
X113749394Y-114504357D01*
X113809421Y-114500726D01*
X113816909Y-114500500D01*
X113834372Y-114500500D01*
X114728481Y-114500500D01*
X114775934Y-114509939D01*
X114816162Y-114536819D01*
X115819052Y-115539708D01*
X115824186Y-115545162D01*
X115864071Y-115590183D01*
X115870240Y-115594441D01*
X115870241Y-115594442D01*
X115874599Y-115597450D01*
X115915316Y-115644545D01*
X115928014Y-115705491D01*
X115909493Y-115764928D01*
X115864421Y-115807872D01*
X115804159Y-115823500D01*
X77594500Y-115823500D01*
X77532500Y-115806887D01*
X77487113Y-115761500D01*
X77470500Y-115699500D01*
X77470500Y-114300000D01*
X77852708Y-114300000D01*
X77853237Y-114305709D01*
X77866373Y-114447472D01*
X77872141Y-114509712D01*
X77873710Y-114515226D01*
X77928205Y-114706759D01*
X77928207Y-114706764D01*
X77929777Y-114712282D01*
X78023654Y-114900813D01*
X78027106Y-114905384D01*
X78147117Y-115064305D01*
X78147121Y-115064310D01*
X78150575Y-115068883D01*
X78154811Y-115072744D01*
X78154815Y-115072749D01*
X78261549Y-115170049D01*
X78306218Y-115210771D01*
X78485282Y-115321643D01*
X78681671Y-115397724D01*
X78888695Y-115436423D01*
X79093576Y-115436423D01*
X79099305Y-115436423D01*
X79306329Y-115397724D01*
X79502718Y-115321643D01*
X79681782Y-115210771D01*
X79837425Y-115068883D01*
X79964346Y-114900813D01*
X80058223Y-114712282D01*
X80115859Y-114509712D01*
X80135292Y-114300000D01*
X80115859Y-114090288D01*
X80058223Y-113887718D01*
X79964346Y-113699187D01*
X79904744Y-113620261D01*
X79840882Y-113535694D01*
X79840878Y-113535690D01*
X79837425Y-113531117D01*
X79833188Y-113527254D01*
X79833184Y-113527250D01*
X79686016Y-113393089D01*
X79686017Y-113393089D01*
X79681782Y-113389229D01*
X79676916Y-113386216D01*
X79676912Y-113386213D01*
X79507589Y-113281373D01*
X79507588Y-113281372D01*
X79502718Y-113278357D01*
X79497380Y-113276289D01*
X79497376Y-113276287D01*
X79311676Y-113204347D01*
X79311671Y-113204345D01*
X79306329Y-113202276D01*
X79300694Y-113201222D01*
X79300692Y-113201222D01*
X79104935Y-113164629D01*
X79104930Y-113164628D01*
X79099305Y-113163577D01*
X78888695Y-113163577D01*
X78883070Y-113164628D01*
X78883064Y-113164629D01*
X78687307Y-113201222D01*
X78687302Y-113201223D01*
X78681671Y-113202276D01*
X78676330Y-113204344D01*
X78676323Y-113204347D01*
X78490623Y-113276287D01*
X78490614Y-113276291D01*
X78485282Y-113278357D01*
X78480415Y-113281370D01*
X78480410Y-113281373D01*
X78311087Y-113386213D01*
X78311077Y-113386219D01*
X78306218Y-113389229D01*
X78301987Y-113393085D01*
X78301983Y-113393089D01*
X78154815Y-113527250D01*
X78154805Y-113527260D01*
X78150575Y-113531117D01*
X78147126Y-113535683D01*
X78147117Y-113535694D01*
X78027106Y-113694615D01*
X78027103Y-113694619D01*
X78023654Y-113699187D01*
X78021101Y-113704312D01*
X78021099Y-113704317D01*
X77932336Y-113882577D01*
X77932332Y-113882585D01*
X77929777Y-113887718D01*
X77928208Y-113893231D01*
X77928205Y-113893240D01*
X77873710Y-114084773D01*
X77872141Y-114090288D01*
X77871612Y-114095993D01*
X77871612Y-114095995D01*
X77862050Y-114199182D01*
X77852708Y-114300000D01*
X77470500Y-114300000D01*
X77470500Y-109318335D01*
X86447500Y-109318335D01*
X86448343Y-109323387D01*
X86448344Y-109323398D01*
X86467442Y-109437843D01*
X86488429Y-109563614D01*
X86490093Y-109568461D01*
X86490094Y-109568465D01*
X86567507Y-109793962D01*
X86567510Y-109793969D01*
X86569172Y-109798810D01*
X86571607Y-109803310D01*
X86571610Y-109803316D01*
X86674145Y-109992784D01*
X86687526Y-110017509D01*
X86840262Y-110213744D01*
X86844029Y-110217211D01*
X86844032Y-110217215D01*
X87018819Y-110378117D01*
X87023215Y-110382164D01*
X87082938Y-110421183D01*
X87227099Y-110515368D01*
X87227102Y-110515369D01*
X87231393Y-110518173D01*
X87459119Y-110618063D01*
X87700179Y-110679108D01*
X87885933Y-110694500D01*
X90207497Y-110694500D01*
X90210067Y-110694500D01*
X90395821Y-110679108D01*
X90636881Y-110618063D01*
X90864607Y-110518173D01*
X91072785Y-110382164D01*
X91255738Y-110213744D01*
X91408474Y-110017509D01*
X91526828Y-109798810D01*
X91607571Y-109563614D01*
X91648500Y-109318335D01*
X91648500Y-109069665D01*
X91607571Y-108824386D01*
X91526828Y-108589190D01*
X91408474Y-108370491D01*
X91255738Y-108174256D01*
X91251970Y-108170787D01*
X91251967Y-108170784D01*
X91076560Y-108009311D01*
X91076559Y-108009310D01*
X91072785Y-108005836D01*
X90981802Y-107946394D01*
X90868900Y-107872631D01*
X90868893Y-107872627D01*
X90864607Y-107869827D01*
X90859916Y-107867769D01*
X90859910Y-107867766D01*
X90657700Y-107779069D01*
X90636881Y-107769937D01*
X90631911Y-107768678D01*
X90631910Y-107768678D01*
X90400795Y-107710151D01*
X90400788Y-107710149D01*
X90395821Y-107708892D01*
X90390709Y-107708468D01*
X90390701Y-107708467D01*
X90212633Y-107693712D01*
X90212617Y-107693711D01*
X90210067Y-107693500D01*
X87885933Y-107693500D01*
X87883383Y-107693711D01*
X87883366Y-107693712D01*
X87705298Y-107708467D01*
X87705288Y-107708468D01*
X87700179Y-107708892D01*
X87695213Y-107710149D01*
X87695204Y-107710151D01*
X87464089Y-107768678D01*
X87464084Y-107768679D01*
X87459119Y-107769937D01*
X87454425Y-107771995D01*
X87454422Y-107771997D01*
X87236089Y-107867766D01*
X87236077Y-107867772D01*
X87231393Y-107869827D01*
X87227111Y-107872624D01*
X87227099Y-107872631D01*
X87027512Y-108003028D01*
X87027506Y-108003031D01*
X87023215Y-108005836D01*
X87019446Y-108009305D01*
X87019439Y-108009311D01*
X86844032Y-108170784D01*
X86844023Y-108170793D01*
X86840262Y-108174256D01*
X86837113Y-108178301D01*
X86837111Y-108178304D01*
X86690678Y-108366440D01*
X86690672Y-108366448D01*
X86687526Y-108370491D01*
X86685088Y-108374995D01*
X86685084Y-108375002D01*
X86571610Y-108584683D01*
X86571605Y-108584693D01*
X86569172Y-108589190D01*
X86567511Y-108594026D01*
X86567507Y-108594037D01*
X86490094Y-108819534D01*
X86490092Y-108819541D01*
X86488429Y-108824386D01*
X86487585Y-108829441D01*
X86487585Y-108829443D01*
X86448344Y-109064601D01*
X86448343Y-109064613D01*
X86447500Y-109069665D01*
X86447500Y-109318335D01*
X77470500Y-109318335D01*
X77470500Y-97250000D01*
X79885811Y-97250000D01*
X79886193Y-97254854D01*
X79898968Y-97417186D01*
X79904539Y-97487966D01*
X79905674Y-97492695D01*
X79905675Y-97492699D01*
X79959125Y-97715336D01*
X79959127Y-97715344D01*
X79960263Y-97720073D01*
X80051611Y-97940605D01*
X80054158Y-97944762D01*
X80054159Y-97944763D01*
X80173785Y-98139977D01*
X80173790Y-98139984D01*
X80176332Y-98144132D01*
X80179492Y-98147831D01*
X80179495Y-98147836D01*
X80327098Y-98320656D01*
X80331357Y-98325643D01*
X80335057Y-98328803D01*
X80509159Y-98477501D01*
X80512868Y-98480668D01*
X80517018Y-98483211D01*
X80517022Y-98483214D01*
X80594645Y-98530781D01*
X80716395Y-98605389D01*
X80936927Y-98696737D01*
X81169034Y-98752461D01*
X81407000Y-98771189D01*
X81644966Y-98752461D01*
X81877073Y-98696737D01*
X82097605Y-98605389D01*
X82301132Y-98480668D01*
X82482643Y-98325643D01*
X82582712Y-98208476D01*
X82625084Y-98176402D01*
X82676998Y-98165011D01*
X82728912Y-98176401D01*
X82771289Y-98208479D01*
X82867098Y-98320656D01*
X82871357Y-98325643D01*
X82875057Y-98328803D01*
X83049159Y-98477501D01*
X83052868Y-98480668D01*
X83057018Y-98483211D01*
X83057022Y-98483214D01*
X83134645Y-98530781D01*
X83256395Y-98605389D01*
X83476927Y-98696737D01*
X83709034Y-98752461D01*
X83947000Y-98771189D01*
X84184966Y-98752461D01*
X84338265Y-98715657D01*
X84400871Y-98716887D01*
X84454893Y-98748550D01*
X84911181Y-99204838D01*
X84938061Y-99245066D01*
X84947500Y-99292519D01*
X84947500Y-101893069D01*
X84930023Y-101956543D01*
X84882517Y-102002124D01*
X84829002Y-102031084D01*
X84828995Y-102031088D01*
X84824491Y-102033526D01*
X84820448Y-102036672D01*
X84820440Y-102036678D01*
X84632304Y-102183111D01*
X84628256Y-102186262D01*
X84624793Y-102190023D01*
X84624784Y-102190032D01*
X84463311Y-102365439D01*
X84463305Y-102365446D01*
X84459836Y-102369215D01*
X84457031Y-102373506D01*
X84457028Y-102373512D01*
X84326631Y-102573099D01*
X84326624Y-102573111D01*
X84323827Y-102577393D01*
X84321772Y-102582077D01*
X84321766Y-102582089D01*
X84234764Y-102780436D01*
X84223937Y-102805119D01*
X84222679Y-102810084D01*
X84222678Y-102810089D01*
X84164151Y-103041204D01*
X84164149Y-103041213D01*
X84162892Y-103046179D01*
X84162468Y-103051288D01*
X84162467Y-103051298D01*
X84147712Y-103229366D01*
X84147711Y-103229383D01*
X84147500Y-103231933D01*
X84147500Y-105556067D01*
X84147711Y-105558617D01*
X84147712Y-105558633D01*
X84162467Y-105736701D01*
X84162468Y-105736709D01*
X84162892Y-105741821D01*
X84164149Y-105746788D01*
X84164151Y-105746795D01*
X84200001Y-105888361D01*
X84223937Y-105982881D01*
X84225997Y-105987577D01*
X84321766Y-106205910D01*
X84321769Y-106205916D01*
X84323827Y-106210607D01*
X84326627Y-106214893D01*
X84326631Y-106214900D01*
X84437057Y-106383919D01*
X84459836Y-106418785D01*
X84463310Y-106422559D01*
X84463311Y-106422560D01*
X84624784Y-106597967D01*
X84624787Y-106597970D01*
X84628256Y-106601738D01*
X84824491Y-106754474D01*
X85043190Y-106872828D01*
X85278386Y-106953571D01*
X85523665Y-106994500D01*
X85767201Y-106994500D01*
X85772335Y-106994500D01*
X86017614Y-106953571D01*
X86252810Y-106872828D01*
X86471509Y-106754474D01*
X86491932Y-106738578D01*
X90447500Y-106738578D01*
X90447501Y-106741872D01*
X90447853Y-106745150D01*
X90447854Y-106745161D01*
X90453079Y-106793768D01*
X90453080Y-106793773D01*
X90453909Y-106801483D01*
X90456619Y-106808749D01*
X90456620Y-106808753D01*
X90490217Y-106898831D01*
X90504204Y-106936331D01*
X90590454Y-107051546D01*
X90705669Y-107137796D01*
X90840517Y-107188091D01*
X90900127Y-107194500D01*
X92995872Y-107194499D01*
X93055483Y-107188091D01*
X93190331Y-107137796D01*
X93305546Y-107051546D01*
X93391796Y-106936331D01*
X93442091Y-106801483D01*
X93448500Y-106741873D01*
X93448499Y-102046128D01*
X93442091Y-101986517D01*
X93391796Y-101851669D01*
X93305546Y-101736454D01*
X93270436Y-101710171D01*
X93197431Y-101655519D01*
X93197430Y-101655518D01*
X93190331Y-101650204D01*
X93091295Y-101613266D01*
X93062752Y-101602620D01*
X93062750Y-101602619D01*
X93055483Y-101599909D01*
X93047770Y-101599079D01*
X93047767Y-101599079D01*
X92999180Y-101593855D01*
X92999169Y-101593854D01*
X92995873Y-101593500D01*
X92992551Y-101593500D01*
X92899500Y-101593500D01*
X92837500Y-101576887D01*
X92792113Y-101531500D01*
X92775500Y-101469500D01*
X92775500Y-98668769D01*
X92791311Y-98608180D01*
X92834710Y-98563042D01*
X92905204Y-98519843D01*
X92969132Y-98480668D01*
X93150643Y-98325643D01*
X93250712Y-98208476D01*
X93293084Y-98176402D01*
X93344998Y-98165011D01*
X93396912Y-98176401D01*
X93439289Y-98208479D01*
X93535098Y-98320656D01*
X93539357Y-98325643D01*
X93543057Y-98328803D01*
X93717159Y-98477501D01*
X93720868Y-98480668D01*
X93725018Y-98483211D01*
X93725022Y-98483214D01*
X93802645Y-98530781D01*
X93924395Y-98605389D01*
X94144927Y-98696737D01*
X94377034Y-98752461D01*
X94615000Y-98771189D01*
X94852966Y-98752461D01*
X95085073Y-98696737D01*
X95305605Y-98605389D01*
X95509132Y-98480668D01*
X95690643Y-98325643D01*
X95845668Y-98144132D01*
X95970389Y-97940605D01*
X96061737Y-97720073D01*
X96117461Y-97487966D01*
X96136189Y-97250000D01*
X96117461Y-97012034D01*
X96061737Y-96779927D01*
X95970389Y-96559395D01*
X95911387Y-96463112D01*
X95848214Y-96360022D01*
X95848211Y-96360018D01*
X95845668Y-96355868D01*
X95814731Y-96319646D01*
X95693803Y-96178057D01*
X95693802Y-96178056D01*
X95690643Y-96174357D01*
X95619111Y-96113263D01*
X95512836Y-96022495D01*
X95512831Y-96022492D01*
X95509132Y-96019332D01*
X95504984Y-96016790D01*
X95504977Y-96016785D01*
X95309763Y-95897159D01*
X95309762Y-95897158D01*
X95305605Y-95894611D01*
X95085073Y-95803263D01*
X95080344Y-95802127D01*
X95080336Y-95802125D01*
X94857699Y-95748675D01*
X94857695Y-95748674D01*
X94852966Y-95747539D01*
X94848115Y-95747157D01*
X94848114Y-95747157D01*
X94619854Y-95729193D01*
X94615000Y-95728811D01*
X94610146Y-95729193D01*
X94381885Y-95747157D01*
X94381882Y-95747157D01*
X94377034Y-95747539D01*
X94372306Y-95748673D01*
X94372300Y-95748675D01*
X94149663Y-95802125D01*
X94149651Y-95802128D01*
X94144927Y-95803263D01*
X94140430Y-95805125D01*
X94140426Y-95805127D01*
X93928899Y-95892745D01*
X93928895Y-95892746D01*
X93924395Y-95894611D01*
X93920242Y-95897155D01*
X93920236Y-95897159D01*
X93725022Y-96016785D01*
X93725009Y-96016794D01*
X93720868Y-96019332D01*
X93717173Y-96022487D01*
X93717163Y-96022495D01*
X93543057Y-96171196D01*
X93543050Y-96171202D01*
X93539357Y-96174357D01*
X93536202Y-96178050D01*
X93536196Y-96178057D01*
X93439289Y-96291520D01*
X93396912Y-96323598D01*
X93344998Y-96334988D01*
X93293085Y-96323598D01*
X93250710Y-96291520D01*
X93150643Y-96174357D01*
X93079111Y-96113263D01*
X92972836Y-96022495D01*
X92972831Y-96022492D01*
X92969132Y-96019332D01*
X92964984Y-96016790D01*
X92964977Y-96016785D01*
X92769763Y-95897159D01*
X92769762Y-95897158D01*
X92765605Y-95894611D01*
X92545073Y-95803263D01*
X92540344Y-95802127D01*
X92540336Y-95802125D01*
X92317699Y-95748675D01*
X92317695Y-95748674D01*
X92312966Y-95747539D01*
X92308115Y-95747157D01*
X92308114Y-95747157D01*
X92079854Y-95729193D01*
X92075000Y-95728811D01*
X92070146Y-95729193D01*
X91841885Y-95747157D01*
X91841882Y-95747157D01*
X91837034Y-95747539D01*
X91832306Y-95748673D01*
X91832300Y-95748675D01*
X91609663Y-95802125D01*
X91609651Y-95802128D01*
X91604927Y-95803263D01*
X91600430Y-95805125D01*
X91600426Y-95805127D01*
X91388899Y-95892745D01*
X91388895Y-95892746D01*
X91384395Y-95894611D01*
X91380242Y-95897155D01*
X91380236Y-95897159D01*
X91185022Y-96016785D01*
X91185009Y-96016794D01*
X91180868Y-96019332D01*
X91177173Y-96022487D01*
X91177163Y-96022495D01*
X91003057Y-96171196D01*
X91003050Y-96171202D01*
X90999357Y-96174357D01*
X90996202Y-96178050D01*
X90996196Y-96178057D01*
X90847495Y-96352163D01*
X90847487Y-96352173D01*
X90844332Y-96355868D01*
X90841794Y-96360009D01*
X90841785Y-96360022D01*
X90722159Y-96555236D01*
X90722155Y-96555242D01*
X90719611Y-96559395D01*
X90717746Y-96563895D01*
X90717745Y-96563899D01*
X90655366Y-96714496D01*
X90628263Y-96779927D01*
X90627128Y-96784651D01*
X90627125Y-96784663D01*
X90573675Y-97007300D01*
X90573673Y-97007306D01*
X90572539Y-97012034D01*
X90572157Y-97016882D01*
X90572157Y-97016885D01*
X90554193Y-97245146D01*
X90553811Y-97250000D01*
X90554193Y-97254854D01*
X90566968Y-97417186D01*
X90572539Y-97487966D01*
X90573674Y-97492695D01*
X90573675Y-97492699D01*
X90627125Y-97715336D01*
X90627127Y-97715344D01*
X90628263Y-97720073D01*
X90719611Y-97940605D01*
X90722158Y-97944762D01*
X90722159Y-97944763D01*
X90841785Y-98139977D01*
X90841790Y-98139984D01*
X90844332Y-98144132D01*
X90847492Y-98147831D01*
X90847495Y-98147836D01*
X90995098Y-98320656D01*
X90999357Y-98325643D01*
X91180868Y-98480668D01*
X91185028Y-98483217D01*
X91315290Y-98563042D01*
X91358689Y-98608180D01*
X91374500Y-98668769D01*
X91374500Y-101469501D01*
X91357887Y-101531501D01*
X91312500Y-101576888D01*
X91250500Y-101593501D01*
X90900128Y-101593501D01*
X90896850Y-101593853D01*
X90896838Y-101593854D01*
X90848231Y-101599079D01*
X90848225Y-101599080D01*
X90840517Y-101599909D01*
X90833252Y-101602618D01*
X90833246Y-101602620D01*
X90713980Y-101647104D01*
X90713978Y-101647104D01*
X90705669Y-101650204D01*
X90698572Y-101655516D01*
X90698568Y-101655519D01*
X90597550Y-101731141D01*
X90597546Y-101731144D01*
X90590454Y-101736454D01*
X90585144Y-101743546D01*
X90585141Y-101743550D01*
X90509519Y-101844568D01*
X90509516Y-101844572D01*
X90504204Y-101851669D01*
X90501104Y-101859978D01*
X90501104Y-101859980D01*
X90456620Y-101979247D01*
X90456619Y-101979250D01*
X90453909Y-101986517D01*
X90453079Y-101994227D01*
X90453079Y-101994232D01*
X90447855Y-102042819D01*
X90447854Y-102042831D01*
X90447500Y-102046127D01*
X90447500Y-102049448D01*
X90447500Y-102049449D01*
X90447500Y-106738560D01*
X90447500Y-106738578D01*
X86491932Y-106738578D01*
X86667744Y-106601738D01*
X86836164Y-106418785D01*
X86972173Y-106210607D01*
X87072063Y-105982881D01*
X87133108Y-105741821D01*
X87148500Y-105556067D01*
X87148500Y-103231933D01*
X87133108Y-103046179D01*
X87072063Y-102805119D01*
X86972173Y-102577393D01*
X86968605Y-102571932D01*
X86838971Y-102373512D01*
X86836164Y-102369215D01*
X86803685Y-102333933D01*
X86671215Y-102190032D01*
X86671211Y-102190029D01*
X86667744Y-102186262D01*
X86477900Y-102038500D01*
X86475559Y-102036678D01*
X86475557Y-102036676D01*
X86471509Y-102033526D01*
X86462567Y-102028687D01*
X86413483Y-102002124D01*
X86365977Y-101956543D01*
X86348500Y-101893069D01*
X86348500Y-98975910D01*
X86348726Y-98968423D01*
X86351904Y-98915881D01*
X86352357Y-98908394D01*
X86341516Y-98849235D01*
X86340389Y-98841830D01*
X86335448Y-98801140D01*
X86333140Y-98782128D01*
X86330480Y-98775116D01*
X86330480Y-98775113D01*
X86329547Y-98772653D01*
X86323520Y-98751035D01*
X86321694Y-98741068D01*
X86297012Y-98686228D01*
X86294145Y-98679306D01*
X86275479Y-98630087D01*
X86272818Y-98623070D01*
X86268556Y-98616896D01*
X86268552Y-98616888D01*
X86267058Y-98614724D01*
X86256032Y-98595175D01*
X86254956Y-98592785D01*
X86251877Y-98585943D01*
X86239777Y-98570499D01*
X86214788Y-98538602D01*
X86210349Y-98532569D01*
X86180442Y-98489241D01*
X86180441Y-98489240D01*
X86176183Y-98483071D01*
X86131170Y-98443193D01*
X86125716Y-98438059D01*
X85445550Y-97757893D01*
X85413887Y-97703871D01*
X85412657Y-97641265D01*
X85414066Y-97635398D01*
X85449461Y-97487966D01*
X85468189Y-97250000D01*
X85449461Y-97012034D01*
X85393737Y-96779927D01*
X85302389Y-96559395D01*
X85243387Y-96463112D01*
X85180214Y-96360022D01*
X85180211Y-96360018D01*
X85177668Y-96355868D01*
X85146731Y-96319646D01*
X85025803Y-96178057D01*
X85025802Y-96178056D01*
X85022643Y-96174357D01*
X84951111Y-96113263D01*
X84844836Y-96022495D01*
X84844831Y-96022492D01*
X84841132Y-96019332D01*
X84836984Y-96016790D01*
X84836977Y-96016785D01*
X84641763Y-95897159D01*
X84641762Y-95897158D01*
X84637605Y-95894611D01*
X84417073Y-95803263D01*
X84412344Y-95802127D01*
X84412336Y-95802125D01*
X84189699Y-95748675D01*
X84189695Y-95748674D01*
X84184966Y-95747539D01*
X84180115Y-95747157D01*
X84180114Y-95747157D01*
X83951854Y-95729193D01*
X83947000Y-95728811D01*
X83942146Y-95729193D01*
X83713885Y-95747157D01*
X83713882Y-95747157D01*
X83709034Y-95747539D01*
X83704306Y-95748673D01*
X83704300Y-95748675D01*
X83481663Y-95802125D01*
X83481651Y-95802128D01*
X83476927Y-95803263D01*
X83472430Y-95805125D01*
X83472426Y-95805127D01*
X83260899Y-95892745D01*
X83260895Y-95892746D01*
X83256395Y-95894611D01*
X83252242Y-95897155D01*
X83252236Y-95897159D01*
X83057022Y-96016785D01*
X83057009Y-96016794D01*
X83052868Y-96019332D01*
X83049173Y-96022487D01*
X83049163Y-96022495D01*
X82875057Y-96171196D01*
X82875050Y-96171202D01*
X82871357Y-96174357D01*
X82868202Y-96178050D01*
X82868196Y-96178057D01*
X82771289Y-96291520D01*
X82728912Y-96323598D01*
X82676998Y-96334988D01*
X82625085Y-96323598D01*
X82582710Y-96291520D01*
X82482643Y-96174357D01*
X82411111Y-96113263D01*
X82304836Y-96022495D01*
X82304831Y-96022492D01*
X82301132Y-96019332D01*
X82296984Y-96016790D01*
X82296977Y-96016785D01*
X82101763Y-95897159D01*
X82101762Y-95897158D01*
X82097605Y-95894611D01*
X81877073Y-95803263D01*
X81872344Y-95802127D01*
X81872336Y-95802125D01*
X81649699Y-95748675D01*
X81649695Y-95748674D01*
X81644966Y-95747539D01*
X81640115Y-95747157D01*
X81640114Y-95747157D01*
X81411854Y-95729193D01*
X81407000Y-95728811D01*
X81402146Y-95729193D01*
X81173885Y-95747157D01*
X81173882Y-95747157D01*
X81169034Y-95747539D01*
X81164306Y-95748673D01*
X81164300Y-95748675D01*
X80941663Y-95802125D01*
X80941651Y-95802128D01*
X80936927Y-95803263D01*
X80932430Y-95805125D01*
X80932426Y-95805127D01*
X80720899Y-95892745D01*
X80720895Y-95892746D01*
X80716395Y-95894611D01*
X80712242Y-95897155D01*
X80712236Y-95897159D01*
X80517022Y-96016785D01*
X80517009Y-96016794D01*
X80512868Y-96019332D01*
X80509173Y-96022487D01*
X80509163Y-96022495D01*
X80335057Y-96171196D01*
X80335050Y-96171202D01*
X80331357Y-96174357D01*
X80328202Y-96178050D01*
X80328196Y-96178057D01*
X80179495Y-96352163D01*
X80179487Y-96352173D01*
X80176332Y-96355868D01*
X80173794Y-96360009D01*
X80173785Y-96360022D01*
X80054159Y-96555236D01*
X80054155Y-96555242D01*
X80051611Y-96559395D01*
X80049746Y-96563895D01*
X80049745Y-96563899D01*
X79987366Y-96714496D01*
X79960263Y-96779927D01*
X79959128Y-96784651D01*
X79959125Y-96784663D01*
X79905675Y-97007300D01*
X79905673Y-97007306D01*
X79904539Y-97012034D01*
X79904157Y-97016882D01*
X79904157Y-97016885D01*
X79886193Y-97245146D01*
X79885811Y-97250000D01*
X77470500Y-97250000D01*
X77470500Y-79944295D01*
X80527794Y-79944295D01*
X80535771Y-79952116D01*
X80712463Y-80060394D01*
X80721126Y-80064808D01*
X80932581Y-80152395D01*
X80941818Y-80155397D01*
X81164378Y-80208829D01*
X81173963Y-80210347D01*
X81402146Y-80228306D01*
X81411854Y-80228306D01*
X81640036Y-80210347D01*
X81649621Y-80208829D01*
X81872181Y-80155397D01*
X81881418Y-80152395D01*
X82092880Y-80064805D01*
X82101527Y-80060400D01*
X82278229Y-79952115D01*
X82286204Y-79944295D01*
X83067794Y-79944295D01*
X83075771Y-79952116D01*
X83252463Y-80060394D01*
X83261126Y-80064808D01*
X83472581Y-80152395D01*
X83481818Y-80155397D01*
X83704378Y-80208829D01*
X83713963Y-80210347D01*
X83942146Y-80228306D01*
X83951854Y-80228306D01*
X84180036Y-80210347D01*
X84189621Y-80208829D01*
X84412181Y-80155397D01*
X84421418Y-80152395D01*
X84632880Y-80064805D01*
X84641527Y-80060400D01*
X84818229Y-79952115D01*
X84826204Y-79944295D01*
X84820273Y-79934827D01*
X83958542Y-79073095D01*
X83947000Y-79066431D01*
X83935457Y-79073095D01*
X83073725Y-79934827D01*
X83067794Y-79944295D01*
X82286204Y-79944295D01*
X82280273Y-79934827D01*
X81418542Y-79073095D01*
X81407000Y-79066431D01*
X81395457Y-79073095D01*
X80533725Y-79934827D01*
X80527794Y-79944295D01*
X77470500Y-79944295D01*
X77470500Y-78712854D01*
X79886694Y-78712854D01*
X79904652Y-78941036D01*
X79906170Y-78950621D01*
X79959602Y-79173181D01*
X79962604Y-79182418D01*
X80050191Y-79393873D01*
X80054605Y-79402536D01*
X80162882Y-79579227D01*
X80170703Y-79587204D01*
X80180171Y-79581273D01*
X81041903Y-78719542D01*
X81048567Y-78708000D01*
X81048566Y-78707999D01*
X81765431Y-78707999D01*
X81772095Y-78719541D01*
X82633827Y-79581273D01*
X82644828Y-79588164D01*
X82648727Y-79588587D01*
X82676999Y-79583681D01*
X82705269Y-79588586D01*
X82709171Y-79588163D01*
X82720171Y-79581273D01*
X83581903Y-78719542D01*
X83588567Y-78708000D01*
X83588566Y-78707999D01*
X84305431Y-78707999D01*
X84312095Y-78719541D01*
X85173827Y-79581273D01*
X85183295Y-79587204D01*
X85191115Y-79579229D01*
X85299400Y-79402527D01*
X85303805Y-79393880D01*
X85391395Y-79182418D01*
X85394397Y-79173181D01*
X85447829Y-78950621D01*
X85449347Y-78941036D01*
X85467306Y-78712854D01*
X85467306Y-78703146D01*
X85449347Y-78474963D01*
X85447829Y-78465378D01*
X85394397Y-78242818D01*
X85391395Y-78233581D01*
X85303808Y-78022126D01*
X85299394Y-78013463D01*
X85191116Y-77836771D01*
X85183295Y-77828794D01*
X85173827Y-77834725D01*
X84312095Y-78696456D01*
X84305431Y-78707999D01*
X83588566Y-78707999D01*
X83581903Y-78696457D01*
X82720171Y-77834725D01*
X82709171Y-77827835D01*
X82705268Y-77827411D01*
X82676999Y-77832317D01*
X82648728Y-77827411D01*
X82644828Y-77827834D01*
X82633827Y-77834725D01*
X81772095Y-78696456D01*
X81765431Y-78707999D01*
X81048566Y-78707999D01*
X81041903Y-78696457D01*
X80180171Y-77834725D01*
X80170703Y-77828794D01*
X80162882Y-77836771D01*
X80054605Y-78013463D01*
X80050191Y-78022126D01*
X79962604Y-78233581D01*
X79959602Y-78242818D01*
X79906170Y-78465378D01*
X79904652Y-78474963D01*
X79886694Y-78703146D01*
X79886694Y-78712854D01*
X77470500Y-78712854D01*
X77470500Y-77471703D01*
X80527794Y-77471703D01*
X80533725Y-77481171D01*
X81395456Y-78342903D01*
X81406999Y-78349567D01*
X81418541Y-78342903D01*
X82280273Y-77481171D01*
X82286204Y-77471703D01*
X83067794Y-77471703D01*
X83073725Y-77481171D01*
X83935456Y-78342903D01*
X83946999Y-78349567D01*
X83958541Y-78342903D01*
X84820273Y-77481171D01*
X84826204Y-77471703D01*
X84818227Y-77463882D01*
X84641536Y-77355605D01*
X84632873Y-77351191D01*
X84421418Y-77263604D01*
X84412181Y-77260602D01*
X84189621Y-77207170D01*
X84180036Y-77205652D01*
X83951854Y-77187694D01*
X83942146Y-77187694D01*
X83713963Y-77205652D01*
X83704378Y-77207170D01*
X83481818Y-77260602D01*
X83472581Y-77263604D01*
X83261126Y-77351191D01*
X83252463Y-77355605D01*
X83075771Y-77463882D01*
X83067794Y-77471703D01*
X82286204Y-77471703D01*
X82278227Y-77463882D01*
X82101536Y-77355605D01*
X82092873Y-77351191D01*
X81881418Y-77263604D01*
X81872181Y-77260602D01*
X81649621Y-77207170D01*
X81640036Y-77205652D01*
X81411854Y-77187694D01*
X81402146Y-77187694D01*
X81173963Y-77205652D01*
X81164378Y-77207170D01*
X80941818Y-77260602D01*
X80932581Y-77263604D01*
X80721126Y-77351191D01*
X80712463Y-77355605D01*
X80535771Y-77463882D01*
X80527794Y-77471703D01*
X77470500Y-77471703D01*
X77470500Y-70612000D01*
X77852708Y-70612000D01*
X77872141Y-70821712D01*
X77873710Y-70827226D01*
X77928205Y-71018759D01*
X77928207Y-71018764D01*
X77929777Y-71024282D01*
X78023654Y-71212813D01*
X78027106Y-71217384D01*
X78147117Y-71376305D01*
X78147121Y-71376310D01*
X78150575Y-71380883D01*
X78154811Y-71384744D01*
X78154815Y-71384749D01*
X78261549Y-71482049D01*
X78306218Y-71522771D01*
X78485282Y-71633643D01*
X78681671Y-71709724D01*
X78888695Y-71748423D01*
X79093576Y-71748423D01*
X79099305Y-71748423D01*
X79306329Y-71709724D01*
X79502718Y-71633643D01*
X79681782Y-71522771D01*
X79837425Y-71380883D01*
X79964346Y-71212813D01*
X80058223Y-71024282D01*
X80115859Y-70821712D01*
X80135292Y-70612000D01*
X80115859Y-70402288D01*
X80058223Y-70199718D01*
X79964346Y-70011187D01*
X79914716Y-69945467D01*
X79840882Y-69847694D01*
X79840878Y-69847690D01*
X79837425Y-69843117D01*
X79833188Y-69839254D01*
X79833184Y-69839250D01*
X79686016Y-69705089D01*
X79686017Y-69705089D01*
X79681782Y-69701229D01*
X79676916Y-69698216D01*
X79676912Y-69698213D01*
X79507589Y-69593373D01*
X79507588Y-69593372D01*
X79502718Y-69590357D01*
X79497380Y-69588289D01*
X79497376Y-69588287D01*
X79311676Y-69516347D01*
X79311671Y-69516345D01*
X79306329Y-69514276D01*
X79300694Y-69513222D01*
X79300692Y-69513222D01*
X79104935Y-69476629D01*
X79104930Y-69476628D01*
X79099305Y-69475577D01*
X78888695Y-69475577D01*
X78883070Y-69476628D01*
X78883064Y-69476629D01*
X78687307Y-69513222D01*
X78687302Y-69513223D01*
X78681671Y-69514276D01*
X78676330Y-69516344D01*
X78676323Y-69516347D01*
X78490623Y-69588287D01*
X78490614Y-69588291D01*
X78485282Y-69590357D01*
X78480415Y-69593370D01*
X78480410Y-69593373D01*
X78311087Y-69698213D01*
X78311077Y-69698219D01*
X78306218Y-69701229D01*
X78301987Y-69705085D01*
X78301983Y-69705089D01*
X78154815Y-69839250D01*
X78154805Y-69839260D01*
X78150575Y-69843117D01*
X78147126Y-69847683D01*
X78147117Y-69847694D01*
X78027106Y-70006615D01*
X78027103Y-70006619D01*
X78023654Y-70011187D01*
X78021101Y-70016312D01*
X78021099Y-70016317D01*
X77932336Y-70194577D01*
X77932332Y-70194585D01*
X77929777Y-70199718D01*
X77928208Y-70205231D01*
X77928205Y-70205240D01*
X77873710Y-70396773D01*
X77872141Y-70402288D01*
X77852708Y-70612000D01*
X77470500Y-70612000D01*
X77470500Y-69212500D01*
X77487113Y-69150500D01*
X77532500Y-69105113D01*
X77594500Y-69088500D01*
X92186000Y-69088500D01*
X92248000Y-69105113D01*
G37*
%TD.AperFunction*%
%TA.AperFunction,Conductor*%
G36*
X123124000Y-107208613D02*
G01*
X123169387Y-107254000D01*
X123186000Y-107316000D01*
X123186000Y-108758369D01*
X123188551Y-108769311D01*
X123199780Y-108768943D01*
X123394263Y-108716831D01*
X123404397Y-108713143D01*
X123608676Y-108617886D01*
X123618008Y-108612498D01*
X123802643Y-108483215D01*
X123810909Y-108476278D01*
X123970278Y-108316909D01*
X123977219Y-108308638D01*
X124104119Y-108127406D01*
X124148437Y-108088540D01*
X124205694Y-108074529D01*
X124262951Y-108088540D01*
X124307269Y-108127405D01*
X124434399Y-108308966D01*
X124434402Y-108308970D01*
X124437505Y-108313401D01*
X124604599Y-108480495D01*
X124609031Y-108483598D01*
X124609033Y-108483600D01*
X124722622Y-108563136D01*
X124798170Y-108616035D01*
X125012337Y-108715903D01*
X125240592Y-108777063D01*
X125476000Y-108797659D01*
X125711408Y-108777063D01*
X125939663Y-108715903D01*
X126153830Y-108616035D01*
X126347401Y-108480495D01*
X126514495Y-108313401D01*
X126563905Y-108242837D01*
X126644425Y-108127842D01*
X126688743Y-108088976D01*
X126746000Y-108074965D01*
X126803257Y-108088976D01*
X126847575Y-108127842D01*
X126974395Y-108308961D01*
X126974401Y-108308968D01*
X126977505Y-108313401D01*
X127144599Y-108480495D01*
X127149031Y-108483598D01*
X127149033Y-108483600D01*
X127262622Y-108563136D01*
X127338170Y-108616035D01*
X127552337Y-108715903D01*
X127780592Y-108777063D01*
X128016000Y-108797659D01*
X128251408Y-108777063D01*
X128479663Y-108715903D01*
X128693830Y-108616035D01*
X128887401Y-108480495D01*
X129054495Y-108313401D01*
X129103905Y-108242837D01*
X129184425Y-108127842D01*
X129228743Y-108088976D01*
X129286000Y-108074965D01*
X129343257Y-108088976D01*
X129387575Y-108127842D01*
X129514395Y-108308961D01*
X129514401Y-108308968D01*
X129517505Y-108313401D01*
X129684599Y-108480495D01*
X129689031Y-108483598D01*
X129689033Y-108483600D01*
X129802622Y-108563136D01*
X129878170Y-108616035D01*
X130092337Y-108715903D01*
X130320592Y-108777063D01*
X130556000Y-108797659D01*
X130791408Y-108777063D01*
X131019663Y-108715903D01*
X131233830Y-108616035D01*
X131427401Y-108480495D01*
X131594495Y-108313401D01*
X131643905Y-108242837D01*
X131724425Y-108127842D01*
X131768743Y-108088976D01*
X131826000Y-108074965D01*
X131883257Y-108088976D01*
X131927575Y-108127842D01*
X132054395Y-108308961D01*
X132054401Y-108308968D01*
X132057505Y-108313401D01*
X132224599Y-108480495D01*
X132229031Y-108483598D01*
X132229033Y-108483600D01*
X132342622Y-108563136D01*
X132418170Y-108616035D01*
X132423070Y-108618320D01*
X132423072Y-108618321D01*
X132609905Y-108705443D01*
X132662081Y-108751200D01*
X132681500Y-108817825D01*
X132681500Y-110514883D01*
X132667489Y-110572140D01*
X132628624Y-110616456D01*
X132595918Y-110639358D01*
X132483034Y-110718399D01*
X132483029Y-110718402D01*
X132478599Y-110721505D01*
X132474775Y-110725328D01*
X132474769Y-110725334D01*
X132315334Y-110884769D01*
X132315328Y-110884775D01*
X132311505Y-110888599D01*
X132308403Y-110893028D01*
X132308403Y-110893029D01*
X132181574Y-111074160D01*
X132137256Y-111113025D01*
X132079999Y-111127036D01*
X132022742Y-111113025D01*
X131978426Y-111074161D01*
X131848495Y-110888599D01*
X131681401Y-110721505D01*
X131676970Y-110718402D01*
X131676966Y-110718399D01*
X131492259Y-110589066D01*
X131492257Y-110589064D01*
X131487830Y-110585965D01*
X131482933Y-110583681D01*
X131482927Y-110583678D01*
X131278572Y-110488386D01*
X131278570Y-110488385D01*
X131273663Y-110486097D01*
X131268438Y-110484697D01*
X131268430Y-110484694D01*
X131050634Y-110426337D01*
X131050630Y-110426336D01*
X131045408Y-110424937D01*
X131040020Y-110424465D01*
X131040017Y-110424465D01*
X130815395Y-110404813D01*
X130810000Y-110404341D01*
X130804605Y-110404813D01*
X130579982Y-110424465D01*
X130579977Y-110424465D01*
X130574592Y-110424937D01*
X130569371Y-110426335D01*
X130569365Y-110426337D01*
X130351569Y-110484694D01*
X130351557Y-110484698D01*
X130346337Y-110486097D01*
X130341432Y-110488383D01*
X130341427Y-110488386D01*
X130137081Y-110583675D01*
X130137077Y-110583677D01*
X130132171Y-110585965D01*
X130127738Y-110589068D01*
X130127731Y-110589073D01*
X129943034Y-110718399D01*
X129943029Y-110718402D01*
X129938599Y-110721505D01*
X129934775Y-110725328D01*
X129934769Y-110725334D01*
X129775334Y-110884769D01*
X129775328Y-110884775D01*
X129771505Y-110888599D01*
X129768403Y-110893028D01*
X129768403Y-110893029D01*
X129641574Y-111074160D01*
X129597256Y-111113025D01*
X129539999Y-111127036D01*
X129482742Y-111113025D01*
X129438426Y-111074161D01*
X129308495Y-110888599D01*
X129141401Y-110721505D01*
X129136970Y-110718402D01*
X129136966Y-110718399D01*
X128952259Y-110589066D01*
X128952257Y-110589064D01*
X128947830Y-110585965D01*
X128942933Y-110583681D01*
X128942927Y-110583678D01*
X128738572Y-110488386D01*
X128738570Y-110488385D01*
X128733663Y-110486097D01*
X128728438Y-110484697D01*
X128728430Y-110484694D01*
X128510634Y-110426337D01*
X128510630Y-110426336D01*
X128505408Y-110424937D01*
X128500020Y-110424465D01*
X128500017Y-110424465D01*
X128275395Y-110404813D01*
X128270000Y-110404341D01*
X128264605Y-110404813D01*
X128039982Y-110424465D01*
X128039977Y-110424465D01*
X128034592Y-110424937D01*
X128029371Y-110426335D01*
X128029365Y-110426337D01*
X127811569Y-110484694D01*
X127811557Y-110484698D01*
X127806337Y-110486097D01*
X127801432Y-110488383D01*
X127801427Y-110488386D01*
X127597081Y-110583675D01*
X127597077Y-110583677D01*
X127592171Y-110585965D01*
X127587738Y-110589068D01*
X127587731Y-110589073D01*
X127403034Y-110718399D01*
X127403029Y-110718402D01*
X127398599Y-110721505D01*
X127394775Y-110725328D01*
X127394769Y-110725334D01*
X127235334Y-110884769D01*
X127235328Y-110884775D01*
X127231505Y-110888599D01*
X127228403Y-110893028D01*
X127228403Y-110893029D01*
X127101574Y-111074160D01*
X127057256Y-111113025D01*
X126999999Y-111127036D01*
X126942742Y-111113025D01*
X126898426Y-111074161D01*
X126768495Y-110888599D01*
X126601401Y-110721505D01*
X126596970Y-110718402D01*
X126596966Y-110718399D01*
X126412259Y-110589066D01*
X126412257Y-110589064D01*
X126407830Y-110585965D01*
X126402933Y-110583681D01*
X126402927Y-110583678D01*
X126198572Y-110488386D01*
X126198570Y-110488385D01*
X126193663Y-110486097D01*
X126188438Y-110484697D01*
X126188430Y-110484694D01*
X125970634Y-110426337D01*
X125970630Y-110426336D01*
X125965408Y-110424937D01*
X125960020Y-110424465D01*
X125960017Y-110424465D01*
X125735395Y-110404813D01*
X125730000Y-110404341D01*
X125724605Y-110404813D01*
X125499982Y-110424465D01*
X125499977Y-110424465D01*
X125494592Y-110424937D01*
X125489371Y-110426335D01*
X125489365Y-110426337D01*
X125271569Y-110484694D01*
X125271557Y-110484698D01*
X125266337Y-110486097D01*
X125261432Y-110488383D01*
X125261427Y-110488386D01*
X125057081Y-110583675D01*
X125057077Y-110583677D01*
X125052171Y-110585965D01*
X125047738Y-110589068D01*
X125047731Y-110589073D01*
X124863034Y-110718399D01*
X124863029Y-110718402D01*
X124858599Y-110721505D01*
X124854775Y-110725328D01*
X124854769Y-110725334D01*
X124695334Y-110884769D01*
X124695328Y-110884775D01*
X124691505Y-110888599D01*
X124688403Y-110893028D01*
X124688403Y-110893029D01*
X124561269Y-111074596D01*
X124516951Y-111113461D01*
X124459694Y-111127472D01*
X124402437Y-111113461D01*
X124358119Y-111074595D01*
X124231215Y-110893357D01*
X124224280Y-110885092D01*
X124064909Y-110725721D01*
X124056643Y-110718784D01*
X123872008Y-110589501D01*
X123862676Y-110584113D01*
X123658397Y-110488856D01*
X123648263Y-110485168D01*
X123453780Y-110433056D01*
X123442551Y-110432688D01*
X123440000Y-110443631D01*
X123440000Y-111886000D01*
X123423387Y-111948000D01*
X123378000Y-111993387D01*
X123316000Y-112010000D01*
X123064000Y-112010000D01*
X123002000Y-111993387D01*
X122956613Y-111948000D01*
X122940000Y-111886000D01*
X122940000Y-110443631D01*
X122937448Y-110432688D01*
X122926219Y-110433056D01*
X122731736Y-110485168D01*
X122721602Y-110488856D01*
X122517332Y-110584110D01*
X122507982Y-110589508D01*
X122323357Y-110718784D01*
X122315092Y-110725719D01*
X122155719Y-110885092D01*
X122148788Y-110893352D01*
X122021880Y-111074596D01*
X121977562Y-111113461D01*
X121920305Y-111127472D01*
X121863048Y-111113461D01*
X121818730Y-111074595D01*
X121688495Y-110888599D01*
X121521401Y-110721505D01*
X121516970Y-110718402D01*
X121516966Y-110718399D01*
X121332259Y-110589066D01*
X121332257Y-110589064D01*
X121327830Y-110585965D01*
X121322933Y-110583681D01*
X121322927Y-110583678D01*
X121168095Y-110511479D01*
X121115919Y-110465722D01*
X121096500Y-110399097D01*
X121096500Y-108664711D01*
X121110511Y-108607454D01*
X121149377Y-108563136D01*
X121180375Y-108541431D01*
X121267401Y-108480495D01*
X121434495Y-108313401D01*
X121564730Y-108127405D01*
X121609048Y-108088540D01*
X121666305Y-108074529D01*
X121723562Y-108088540D01*
X121767880Y-108127405D01*
X121894784Y-108308643D01*
X121901721Y-108316909D01*
X122061090Y-108476278D01*
X122069356Y-108483215D01*
X122253991Y-108612498D01*
X122263323Y-108617886D01*
X122467602Y-108713143D01*
X122477736Y-108716831D01*
X122672219Y-108768943D01*
X122683448Y-108769311D01*
X122686000Y-108758369D01*
X122686000Y-107316000D01*
X122702613Y-107254000D01*
X122748000Y-107208613D01*
X122810000Y-107192000D01*
X123062000Y-107192000D01*
X123124000Y-107208613D01*
G37*
%TD.AperFunction*%
%TA.AperFunction,Conductor*%
G36*
X102869500Y-96463112D02*
G01*
X102914887Y-96508499D01*
X102931500Y-96570499D01*
X102931500Y-109703079D01*
X102931274Y-109710567D01*
X102928094Y-109763118D01*
X102928094Y-109763126D01*
X102927642Y-109770606D01*
X102928993Y-109777982D01*
X102928994Y-109777987D01*
X102938483Y-109829771D01*
X102939610Y-109837171D01*
X102945955Y-109889425D01*
X102945956Y-109889430D01*
X102946860Y-109896872D01*
X102949519Y-109903885D01*
X102949521Y-109903891D01*
X102950450Y-109906340D01*
X102956475Y-109927952D01*
X102956951Y-109930551D01*
X102956954Y-109930560D01*
X102958305Y-109937932D01*
X102961382Y-109944769D01*
X102961383Y-109944772D01*
X102982991Y-109992784D01*
X102985857Y-109999702D01*
X103007182Y-110055930D01*
X103011442Y-110062102D01*
X103011445Y-110062107D01*
X103012937Y-110064268D01*
X103023959Y-110083810D01*
X103025039Y-110086210D01*
X103025044Y-110086219D01*
X103028122Y-110093057D01*
X103032745Y-110098958D01*
X103032747Y-110098961D01*
X103065216Y-110140404D01*
X103069636Y-110146410D01*
X103103817Y-110195929D01*
X103109435Y-110200906D01*
X103114405Y-110206516D01*
X103112465Y-110208234D01*
X103136758Y-110242647D01*
X103145230Y-110299312D01*
X103127324Y-110353736D01*
X103086862Y-110394302D01*
X103032483Y-110412347D01*
X102893983Y-110424465D01*
X102893979Y-110424465D01*
X102888592Y-110424937D01*
X102883371Y-110426335D01*
X102883365Y-110426337D01*
X102665569Y-110484694D01*
X102665557Y-110484698D01*
X102660337Y-110486097D01*
X102655432Y-110488383D01*
X102655427Y-110488386D01*
X102451081Y-110583675D01*
X102451077Y-110583677D01*
X102446171Y-110585965D01*
X102441738Y-110589068D01*
X102441731Y-110589073D01*
X102257034Y-110718399D01*
X102257029Y-110718402D01*
X102252599Y-110721505D01*
X102248775Y-110725328D01*
X102248769Y-110725334D01*
X102089334Y-110884769D01*
X102089328Y-110884775D01*
X102085505Y-110888599D01*
X102082403Y-110893028D01*
X102082403Y-110893029D01*
X101955574Y-111074160D01*
X101911256Y-111113025D01*
X101853999Y-111127036D01*
X101796742Y-111113025D01*
X101752426Y-111074161D01*
X101622495Y-110888599D01*
X101455401Y-110721505D01*
X101450970Y-110718402D01*
X101450966Y-110718399D01*
X101266259Y-110589066D01*
X101266257Y-110589064D01*
X101261830Y-110585965D01*
X101256933Y-110583681D01*
X101256927Y-110583678D01*
X101052572Y-110488386D01*
X101052570Y-110488385D01*
X101047663Y-110486097D01*
X101042438Y-110484697D01*
X101042430Y-110484694D01*
X100824634Y-110426337D01*
X100824630Y-110426336D01*
X100819408Y-110424937D01*
X100814020Y-110424465D01*
X100814017Y-110424465D01*
X100589395Y-110404813D01*
X100584000Y-110404341D01*
X100578605Y-110404813D01*
X100353982Y-110424465D01*
X100353977Y-110424465D01*
X100348592Y-110424937D01*
X100343371Y-110426335D01*
X100343365Y-110426337D01*
X100125569Y-110484694D01*
X100125557Y-110484698D01*
X100120337Y-110486097D01*
X100115432Y-110488383D01*
X100115427Y-110488386D01*
X99911081Y-110583675D01*
X99911077Y-110583677D01*
X99906171Y-110585965D01*
X99901738Y-110589068D01*
X99901731Y-110589073D01*
X99717034Y-110718399D01*
X99717029Y-110718402D01*
X99712599Y-110721505D01*
X99708775Y-110725328D01*
X99708769Y-110725334D01*
X99549334Y-110884769D01*
X99549328Y-110884775D01*
X99545505Y-110888599D01*
X99542403Y-110893028D01*
X99542403Y-110893029D01*
X99415269Y-111074596D01*
X99370951Y-111113461D01*
X99313694Y-111127472D01*
X99256437Y-111113461D01*
X99212119Y-111074595D01*
X99085215Y-110893357D01*
X99078280Y-110885092D01*
X98918909Y-110725721D01*
X98910643Y-110718784D01*
X98726008Y-110589501D01*
X98716676Y-110584113D01*
X98512397Y-110488856D01*
X98502263Y-110485168D01*
X98307780Y-110433056D01*
X98296551Y-110432688D01*
X98294000Y-110443631D01*
X98294000Y-111886000D01*
X98277387Y-111948000D01*
X98232000Y-111993387D01*
X98170000Y-112010000D01*
X97918000Y-112010000D01*
X97856000Y-111993387D01*
X97810613Y-111948000D01*
X97794000Y-111886000D01*
X97794000Y-110443631D01*
X97791448Y-110432688D01*
X97780219Y-110433056D01*
X97585736Y-110485168D01*
X97575602Y-110488856D01*
X97371332Y-110584110D01*
X97361982Y-110589508D01*
X97177357Y-110718784D01*
X97169092Y-110725719D01*
X97009719Y-110885092D01*
X97002788Y-110893352D01*
X96875880Y-111074596D01*
X96831562Y-111113461D01*
X96774305Y-111127472D01*
X96717048Y-111113461D01*
X96672730Y-111074595D01*
X96542495Y-110888599D01*
X96375401Y-110721505D01*
X96259791Y-110640554D01*
X96219247Y-110592888D01*
X96207142Y-110531491D01*
X96207905Y-110518880D01*
X96208358Y-110511394D01*
X96197514Y-110452221D01*
X96196387Y-110444815D01*
X96196146Y-110442831D01*
X96189140Y-110385128D01*
X96185547Y-110375656D01*
X96179522Y-110354041D01*
X96177695Y-110344069D01*
X96153012Y-110289227D01*
X96150143Y-110282301D01*
X96148555Y-110278113D01*
X96140500Y-110234149D01*
X96140500Y-101222019D01*
X96149939Y-101174566D01*
X96176819Y-101134338D01*
X96473263Y-100837894D01*
X97373607Y-99937549D01*
X97434007Y-99904270D01*
X97502848Y-99908405D01*
X97558832Y-99948678D01*
X97584643Y-100012630D01*
X97590806Y-100072960D01*
X97593623Y-100086122D01*
X97644370Y-100239267D01*
X97650432Y-100252266D01*
X97734890Y-100389194D01*
X97743794Y-100400455D01*
X97857544Y-100514205D01*
X97868805Y-100523109D01*
X98005733Y-100607567D01*
X98018732Y-100613629D01*
X98171874Y-100664375D01*
X98185041Y-100667194D01*
X98277890Y-100676680D01*
X98284168Y-100677000D01*
X98539674Y-100677000D01*
X98552549Y-100673549D01*
X98556000Y-100660674D01*
X98556000Y-99463500D01*
X98572613Y-99401500D01*
X98618000Y-99356113D01*
X98680000Y-99339500D01*
X98932000Y-99339500D01*
X98994000Y-99356113D01*
X99039387Y-99401500D01*
X99056000Y-99463500D01*
X99056000Y-100660673D01*
X99059450Y-100673548D01*
X99072326Y-100676999D01*
X99327829Y-100676999D01*
X99334111Y-100676678D01*
X99426959Y-100667194D01*
X99440122Y-100664376D01*
X99593267Y-100613629D01*
X99606266Y-100607567D01*
X99743194Y-100523109D01*
X99754455Y-100514205D01*
X99868205Y-100400455D01*
X99877109Y-100389194D01*
X99961568Y-100252265D01*
X99968628Y-100237125D01*
X100014324Y-100184984D01*
X100080869Y-100165525D01*
X100147458Y-100184831D01*
X100183953Y-100226279D01*
X100186642Y-100224622D01*
X100274890Y-100367694D01*
X100283794Y-100378955D01*
X100397544Y-100492705D01*
X100408805Y-100501609D01*
X100545733Y-100586067D01*
X100558732Y-100592129D01*
X100711874Y-100642875D01*
X100725041Y-100645694D01*
X100817890Y-100655180D01*
X100824168Y-100655500D01*
X101079674Y-100655500D01*
X101092549Y-100652049D01*
X101096000Y-100639174D01*
X101096000Y-100639173D01*
X101596000Y-100639173D01*
X101599450Y-100652048D01*
X101612326Y-100655499D01*
X101867829Y-100655499D01*
X101874111Y-100655178D01*
X101966959Y-100645694D01*
X101980122Y-100642876D01*
X102133267Y-100592129D01*
X102146266Y-100586067D01*
X102283194Y-100501609D01*
X102294455Y-100492705D01*
X102408205Y-100378955D01*
X102417109Y-100367694D01*
X102501567Y-100230766D01*
X102507629Y-100217767D01*
X102558375Y-100064625D01*
X102561194Y-100051458D01*
X102570680Y-99958609D01*
X102571000Y-99952332D01*
X102571000Y-99834326D01*
X102567549Y-99821450D01*
X102554674Y-99818000D01*
X101612326Y-99818000D01*
X101599450Y-99821450D01*
X101596000Y-99834326D01*
X101596000Y-100639173D01*
X101096000Y-100639173D01*
X101096000Y-99442000D01*
X101112613Y-99380000D01*
X101158000Y-99334613D01*
X101220000Y-99318000D01*
X102554673Y-99318000D01*
X102567548Y-99314549D01*
X102570999Y-99301674D01*
X102570999Y-99183671D01*
X102570678Y-99177388D01*
X102561194Y-99084540D01*
X102558376Y-99071377D01*
X102507629Y-98918232D01*
X102501567Y-98905233D01*
X102417109Y-98768305D01*
X102408205Y-98757044D01*
X102294455Y-98643294D01*
X102277529Y-98629910D01*
X102278735Y-98628383D01*
X102243160Y-98591220D01*
X102227440Y-98530782D01*
X102243171Y-98470346D01*
X102278992Y-98432938D01*
X102277843Y-98431484D01*
X102283509Y-98427003D01*
X102289656Y-98423212D01*
X102413712Y-98299156D01*
X102505814Y-98149834D01*
X102560999Y-97983297D01*
X102571500Y-97880509D01*
X102571499Y-97105492D01*
X102560999Y-97002703D01*
X102505814Y-96836166D01*
X102430763Y-96714488D01*
X102417502Y-96692988D01*
X102417500Y-96692985D01*
X102413712Y-96686844D01*
X102385047Y-96658179D01*
X102354798Y-96608817D01*
X102350256Y-96551101D01*
X102372411Y-96497614D01*
X102416434Y-96460014D01*
X102472729Y-96446499D01*
X102807500Y-96446499D01*
X102869500Y-96463112D01*
G37*
%TD.AperFunction*%
%TA.AperFunction,Conductor*%
G36*
X123730700Y-77729631D02*
G01*
X123786690Y-77769625D01*
X123812738Y-77833310D01*
X123815571Y-77859660D01*
X123819112Y-77874641D01*
X123828925Y-77900952D01*
X123836743Y-77944284D01*
X123828926Y-77987616D01*
X123818620Y-78015247D01*
X123818619Y-78015250D01*
X123815909Y-78022517D01*
X123815079Y-78030231D01*
X123815079Y-78030234D01*
X123809855Y-78078819D01*
X123809854Y-78078831D01*
X123809500Y-78082127D01*
X123809500Y-78085448D01*
X123809500Y-78085449D01*
X123809500Y-79074560D01*
X123809500Y-79074578D01*
X123809501Y-79077872D01*
X123809853Y-79081150D01*
X123809854Y-79081161D01*
X123815080Y-79129773D01*
X123815909Y-79137483D01*
X123818619Y-79144749D01*
X123828659Y-79171670D01*
X123836476Y-79215000D01*
X123828659Y-79258330D01*
X123818621Y-79285244D01*
X123818620Y-79285248D01*
X123815909Y-79292517D01*
X123815079Y-79300231D01*
X123815079Y-79300234D01*
X123809855Y-79348819D01*
X123809854Y-79348831D01*
X123809500Y-79352127D01*
X123809500Y-79355448D01*
X123809500Y-79355449D01*
X123809500Y-80344560D01*
X123809500Y-80344578D01*
X123809501Y-80347872D01*
X123809853Y-80351150D01*
X123809854Y-80351161D01*
X123809951Y-80352061D01*
X123815909Y-80407483D01*
X123828658Y-80441665D01*
X123828659Y-80441668D01*
X123836476Y-80484998D01*
X123828660Y-80528327D01*
X123820391Y-80550500D01*
X123815909Y-80562517D01*
X123815079Y-80570231D01*
X123815079Y-80570234D01*
X123809855Y-80618819D01*
X123809854Y-80618831D01*
X123809500Y-80622127D01*
X123809500Y-80625448D01*
X123809500Y-80625449D01*
X123809500Y-81614560D01*
X123809500Y-81614578D01*
X123809501Y-81617872D01*
X123809853Y-81621150D01*
X123809854Y-81621161D01*
X123815080Y-81669769D01*
X123815909Y-81677483D01*
X123818618Y-81684747D01*
X123818619Y-81684750D01*
X123828658Y-81711666D01*
X123836476Y-81754997D01*
X123828659Y-81798327D01*
X123818619Y-81825246D01*
X123818615Y-81825259D01*
X123815909Y-81832517D01*
X123815080Y-81840218D01*
X123815079Y-81840227D01*
X123809855Y-81888819D01*
X123809854Y-81888831D01*
X123809500Y-81892127D01*
X123809500Y-81895448D01*
X123809500Y-81895449D01*
X123809500Y-82884560D01*
X123809500Y-82884578D01*
X123809501Y-82887872D01*
X123809853Y-82891150D01*
X123809854Y-82891161D01*
X123815080Y-82939773D01*
X123815909Y-82947483D01*
X123818619Y-82954749D01*
X123828659Y-82981670D01*
X123836476Y-83025000D01*
X123828659Y-83068330D01*
X123818621Y-83095244D01*
X123818620Y-83095248D01*
X123815909Y-83102517D01*
X123815079Y-83110231D01*
X123815079Y-83110234D01*
X123809855Y-83158819D01*
X123809854Y-83158831D01*
X123809500Y-83162127D01*
X123809500Y-83165448D01*
X123809500Y-83165449D01*
X123809500Y-84154560D01*
X123809500Y-84154578D01*
X123809501Y-84157872D01*
X123809853Y-84161150D01*
X123809854Y-84161161D01*
X123815080Y-84209773D01*
X123815909Y-84217483D01*
X123828659Y-84251668D01*
X123836476Y-84294998D01*
X123828660Y-84338327D01*
X123819027Y-84364157D01*
X123815909Y-84372517D01*
X123815079Y-84380231D01*
X123815079Y-84380234D01*
X123809855Y-84428819D01*
X123809854Y-84428831D01*
X123809500Y-84432127D01*
X123809500Y-84435448D01*
X123809500Y-84435449D01*
X123809500Y-85424560D01*
X123809500Y-85424578D01*
X123809501Y-85427872D01*
X123809853Y-85431150D01*
X123809854Y-85431161D01*
X123815080Y-85479773D01*
X123815909Y-85487483D01*
X123818618Y-85494747D01*
X123818619Y-85494750D01*
X123828658Y-85521666D01*
X123836476Y-85564997D01*
X123828659Y-85608327D01*
X123818619Y-85635246D01*
X123818615Y-85635259D01*
X123815909Y-85642517D01*
X123815080Y-85650218D01*
X123815079Y-85650227D01*
X123809855Y-85698819D01*
X123809854Y-85698831D01*
X123809500Y-85702127D01*
X123809500Y-85705448D01*
X123809500Y-85705449D01*
X123809500Y-86694560D01*
X123809500Y-86694578D01*
X123809501Y-86697872D01*
X123809853Y-86701150D01*
X123809854Y-86701161D01*
X123815080Y-86749769D01*
X123815909Y-86757483D01*
X123818618Y-86764747D01*
X123818619Y-86764750D01*
X123828658Y-86791666D01*
X123836476Y-86834997D01*
X123828659Y-86878327D01*
X123818619Y-86905246D01*
X123818615Y-86905259D01*
X123815909Y-86912517D01*
X123815080Y-86920218D01*
X123815079Y-86920227D01*
X123809855Y-86968819D01*
X123809854Y-86968831D01*
X123809500Y-86972127D01*
X123809500Y-86975448D01*
X123809500Y-86975449D01*
X123809500Y-87964560D01*
X123809500Y-87964578D01*
X123809501Y-87967872D01*
X123809853Y-87971150D01*
X123809854Y-87971161D01*
X123815080Y-88019773D01*
X123815909Y-88027483D01*
X123828658Y-88061666D01*
X123828659Y-88061668D01*
X123836476Y-88104998D01*
X123828660Y-88148327D01*
X123827218Y-88152194D01*
X123815909Y-88182517D01*
X123815079Y-88190231D01*
X123815079Y-88190234D01*
X123809855Y-88238819D01*
X123809854Y-88238831D01*
X123809500Y-88242127D01*
X123809500Y-88245448D01*
X123809500Y-88245449D01*
X123809500Y-89234560D01*
X123809500Y-89234578D01*
X123809501Y-89237872D01*
X123809853Y-89241150D01*
X123809854Y-89241161D01*
X123815080Y-89289773D01*
X123815909Y-89297483D01*
X123818619Y-89304749D01*
X123828659Y-89331670D01*
X123836476Y-89375000D01*
X123828659Y-89418330D01*
X123818621Y-89445244D01*
X123818620Y-89445248D01*
X123815909Y-89452517D01*
X123815079Y-89460231D01*
X123815079Y-89460234D01*
X123809855Y-89508819D01*
X123809854Y-89508831D01*
X123809500Y-89512127D01*
X123809500Y-89515448D01*
X123809500Y-89515449D01*
X123809500Y-90504560D01*
X123809500Y-90504578D01*
X123809501Y-90507872D01*
X123809853Y-90511150D01*
X123809854Y-90511161D01*
X123815080Y-90559769D01*
X123815909Y-90567483D01*
X123818618Y-90574747D01*
X123818619Y-90574750D01*
X123828658Y-90601666D01*
X123836476Y-90644997D01*
X123828659Y-90688327D01*
X123818619Y-90715246D01*
X123818615Y-90715259D01*
X123815909Y-90722517D01*
X123815080Y-90730218D01*
X123815079Y-90730227D01*
X123809855Y-90778819D01*
X123809854Y-90778831D01*
X123809500Y-90782127D01*
X123809500Y-90785448D01*
X123809500Y-90785449D01*
X123809500Y-91774560D01*
X123809500Y-91774578D01*
X123809501Y-91777872D01*
X123809853Y-91781150D01*
X123809854Y-91781161D01*
X123815011Y-91829132D01*
X123815909Y-91837483D01*
X123818618Y-91844747D01*
X123818619Y-91844750D01*
X123828658Y-91871666D01*
X123836476Y-91914997D01*
X123828659Y-91958327D01*
X123818619Y-91985246D01*
X123818615Y-91985259D01*
X123815909Y-91992517D01*
X123815080Y-92000218D01*
X123815079Y-92000227D01*
X123809855Y-92048819D01*
X123809854Y-92048831D01*
X123809500Y-92052127D01*
X123809500Y-92055448D01*
X123809500Y-92055449D01*
X123809500Y-93044560D01*
X123809500Y-93044578D01*
X123809501Y-93047872D01*
X123809853Y-93051150D01*
X123809854Y-93051161D01*
X123813512Y-93085189D01*
X123815909Y-93107483D01*
X123818619Y-93114749D01*
X123828659Y-93141670D01*
X123836476Y-93185000D01*
X123828659Y-93228330D01*
X123818621Y-93255244D01*
X123818620Y-93255248D01*
X123815909Y-93262517D01*
X123815079Y-93270231D01*
X123815079Y-93270234D01*
X123809855Y-93318819D01*
X123809854Y-93318831D01*
X123809500Y-93322127D01*
X123809500Y-93325448D01*
X123809500Y-93325449D01*
X123809500Y-94314560D01*
X123809500Y-94314578D01*
X123809501Y-94317872D01*
X123809853Y-94321150D01*
X123809854Y-94321161D01*
X123815079Y-94369768D01*
X123815080Y-94369773D01*
X123815909Y-94377483D01*
X123818619Y-94384749D01*
X123818620Y-94384753D01*
X123844352Y-94453742D01*
X123866204Y-94512331D01*
X123952454Y-94627546D01*
X124067669Y-94713796D01*
X124202517Y-94764091D01*
X124262127Y-94770500D01*
X125494480Y-94770499D01*
X125541933Y-94779938D01*
X125582161Y-94806818D01*
X126641181Y-95865838D01*
X126668061Y-95906066D01*
X126677500Y-95953519D01*
X126677500Y-96508858D01*
X126677500Y-96508877D01*
X126677501Y-96512008D01*
X126677820Y-96515140D01*
X126677821Y-96515141D01*
X126687312Y-96608061D01*
X126687313Y-96608069D01*
X126688001Y-96614797D01*
X126690129Y-96621219D01*
X126690130Y-96621223D01*
X126734492Y-96755097D01*
X126743186Y-96781334D01*
X126760130Y-96808804D01*
X126831497Y-96924511D01*
X126831500Y-96924515D01*
X126835288Y-96930656D01*
X126959344Y-97054712D01*
X126964786Y-97058069D01*
X126999215Y-97100967D01*
X127011607Y-97155000D01*
X126999215Y-97209033D01*
X126964786Y-97251930D01*
X126959344Y-97255288D01*
X126954238Y-97260393D01*
X126954234Y-97260397D01*
X126840393Y-97374238D01*
X126840389Y-97374242D01*
X126835288Y-97379344D01*
X126831503Y-97385480D01*
X126831497Y-97385488D01*
X126746977Y-97522519D01*
X126743186Y-97528666D01*
X126740916Y-97535514D01*
X126740914Y-97535520D01*
X126735961Y-97550468D01*
X126697798Y-97606587D01*
X126635810Y-97634211D01*
X126568564Y-97625068D01*
X126522391Y-97586997D01*
X126521419Y-97587859D01*
X126516443Y-97582242D01*
X126512183Y-97576071D01*
X126467170Y-97536193D01*
X126461716Y-97531059D01*
X123522939Y-94592282D01*
X123517822Y-94586847D01*
X123477929Y-94541817D01*
X123428410Y-94507636D01*
X123422404Y-94503216D01*
X123380961Y-94470747D01*
X123380958Y-94470745D01*
X123375057Y-94466122D01*
X123368219Y-94463044D01*
X123368210Y-94463039D01*
X123365810Y-94461959D01*
X123346268Y-94450937D01*
X123344107Y-94449445D01*
X123344102Y-94449442D01*
X123337930Y-94445182D01*
X123281702Y-94423857D01*
X123274784Y-94420991D01*
X123226772Y-94399383D01*
X123226769Y-94399382D01*
X123219932Y-94396305D01*
X123212560Y-94394954D01*
X123212551Y-94394951D01*
X123209952Y-94394475D01*
X123188340Y-94388450D01*
X123185891Y-94387521D01*
X123185885Y-94387519D01*
X123178872Y-94384860D01*
X123171430Y-94383956D01*
X123171425Y-94383955D01*
X123119171Y-94377610D01*
X123111771Y-94376483D01*
X123080352Y-94370726D01*
X123031795Y-94350484D01*
X122996001Y-94311932D01*
X122979411Y-94262009D01*
X122974091Y-94212517D01*
X122923796Y-94077669D01*
X122837546Y-93962454D01*
X122747197Y-93894819D01*
X122729431Y-93881519D01*
X122729430Y-93881518D01*
X122722331Y-93876204D01*
X122641972Y-93846232D01*
X122594752Y-93828620D01*
X122594750Y-93828619D01*
X122587483Y-93825909D01*
X122579770Y-93825079D01*
X122579767Y-93825079D01*
X122531180Y-93819855D01*
X122531169Y-93819854D01*
X122527873Y-93819500D01*
X122524550Y-93819500D01*
X121535439Y-93819500D01*
X121535420Y-93819500D01*
X121532128Y-93819501D01*
X121528850Y-93819853D01*
X121528838Y-93819854D01*
X121480226Y-93825080D01*
X121480223Y-93825080D01*
X121472517Y-93825909D01*
X121465257Y-93828616D01*
X121465251Y-93828618D01*
X121438327Y-93838660D01*
X121394998Y-93846476D01*
X121351669Y-93838659D01*
X121317483Y-93825909D01*
X121309766Y-93825079D01*
X121309765Y-93825079D01*
X121261180Y-93819855D01*
X121261169Y-93819854D01*
X121257873Y-93819500D01*
X121254550Y-93819500D01*
X120265439Y-93819500D01*
X120265420Y-93819500D01*
X120262128Y-93819501D01*
X120258850Y-93819853D01*
X120258838Y-93819854D01*
X120210226Y-93825080D01*
X120210223Y-93825080D01*
X120202517Y-93825909D01*
X120195257Y-93828616D01*
X120195251Y-93828618D01*
X120168327Y-93838660D01*
X120124998Y-93846476D01*
X120081669Y-93838659D01*
X120047483Y-93825909D01*
X120039766Y-93825079D01*
X120039765Y-93825079D01*
X119991180Y-93819855D01*
X119991169Y-93819854D01*
X119987873Y-93819500D01*
X119984550Y-93819500D01*
X118995439Y-93819500D01*
X118995420Y-93819500D01*
X118992128Y-93819501D01*
X118988850Y-93819853D01*
X118988838Y-93819854D01*
X118940226Y-93825080D01*
X118940223Y-93825080D01*
X118932517Y-93825909D01*
X118925257Y-93828616D01*
X118925251Y-93828618D01*
X118898327Y-93838660D01*
X118854998Y-93846476D01*
X118811669Y-93838659D01*
X118777483Y-93825909D01*
X118769766Y-93825079D01*
X118769765Y-93825079D01*
X118721180Y-93819855D01*
X118721169Y-93819854D01*
X118717873Y-93819500D01*
X118714550Y-93819500D01*
X117725439Y-93819500D01*
X117725420Y-93819500D01*
X117722128Y-93819501D01*
X117718850Y-93819853D01*
X117718838Y-93819854D01*
X117670226Y-93825080D01*
X117670223Y-93825080D01*
X117662517Y-93825909D01*
X117655257Y-93828616D01*
X117655251Y-93828618D01*
X117628327Y-93838660D01*
X117584998Y-93846476D01*
X117541669Y-93838659D01*
X117507483Y-93825909D01*
X117499766Y-93825079D01*
X117499765Y-93825079D01*
X117451180Y-93819855D01*
X117451169Y-93819854D01*
X117447873Y-93819500D01*
X117444550Y-93819500D01*
X116455439Y-93819500D01*
X116455420Y-93819500D01*
X116452128Y-93819501D01*
X116448850Y-93819853D01*
X116448838Y-93819854D01*
X116400226Y-93825080D01*
X116400223Y-93825080D01*
X116392517Y-93825909D01*
X116385257Y-93828616D01*
X116385251Y-93828618D01*
X116358327Y-93838660D01*
X116314998Y-93846476D01*
X116271669Y-93838659D01*
X116237483Y-93825909D01*
X116229766Y-93825079D01*
X116229765Y-93825079D01*
X116181180Y-93819855D01*
X116181169Y-93819854D01*
X116177873Y-93819500D01*
X116174550Y-93819500D01*
X115185439Y-93819500D01*
X115185420Y-93819500D01*
X115182128Y-93819501D01*
X115178850Y-93819853D01*
X115178838Y-93819854D01*
X115130226Y-93825080D01*
X115130223Y-93825080D01*
X115122517Y-93825909D01*
X115115257Y-93828616D01*
X115115251Y-93828618D01*
X115088327Y-93838660D01*
X115044998Y-93846476D01*
X115001669Y-93838659D01*
X114967483Y-93825909D01*
X114959766Y-93825079D01*
X114959765Y-93825079D01*
X114911180Y-93819855D01*
X114911169Y-93819854D01*
X114907873Y-93819500D01*
X114904550Y-93819500D01*
X113915439Y-93819500D01*
X113915420Y-93819500D01*
X113912128Y-93819501D01*
X113908850Y-93819853D01*
X113908838Y-93819854D01*
X113860226Y-93825080D01*
X113860223Y-93825080D01*
X113852517Y-93825909D01*
X113845257Y-93828616D01*
X113845251Y-93828618D01*
X113818327Y-93838660D01*
X113774998Y-93846476D01*
X113731669Y-93838659D01*
X113697483Y-93825909D01*
X113689766Y-93825079D01*
X113689765Y-93825079D01*
X113641180Y-93819855D01*
X113641169Y-93819854D01*
X113637873Y-93819500D01*
X113634550Y-93819500D01*
X112645439Y-93819500D01*
X112645420Y-93819500D01*
X112642128Y-93819501D01*
X112638850Y-93819853D01*
X112638838Y-93819854D01*
X112590226Y-93825080D01*
X112590223Y-93825080D01*
X112582517Y-93825909D01*
X112575257Y-93828616D01*
X112575251Y-93828618D01*
X112548327Y-93838660D01*
X112504998Y-93846476D01*
X112461669Y-93838659D01*
X112427483Y-93825909D01*
X112419766Y-93825079D01*
X112419765Y-93825079D01*
X112371180Y-93819855D01*
X112371169Y-93819854D01*
X112367873Y-93819500D01*
X112364550Y-93819500D01*
X111375439Y-93819500D01*
X111375420Y-93819500D01*
X111372128Y-93819501D01*
X111368850Y-93819853D01*
X111368838Y-93819854D01*
X111320226Y-93825080D01*
X111320223Y-93825080D01*
X111312517Y-93825909D01*
X111305255Y-93828617D01*
X111305253Y-93828618D01*
X111277616Y-93838926D01*
X111234284Y-93846743D01*
X111190952Y-93838925D01*
X111164641Y-93829112D01*
X111149667Y-93825573D01*
X111101114Y-93820353D01*
X111094518Y-93820000D01*
X110866326Y-93820000D01*
X110853450Y-93823450D01*
X110850000Y-93836326D01*
X110850000Y-96303674D01*
X110853450Y-96316549D01*
X110866326Y-96320000D01*
X110914182Y-96320000D01*
X110976182Y-96336613D01*
X111021569Y-96382000D01*
X111038182Y-96444000D01*
X111021569Y-96506000D01*
X110936069Y-96654089D01*
X110936066Y-96654094D01*
X110932821Y-96659716D01*
X110930815Y-96665888D01*
X110930813Y-96665894D01*
X110876333Y-96833564D01*
X110876331Y-96833573D01*
X110874326Y-96839744D01*
X110873648Y-96846194D01*
X110873646Y-96846204D01*
X110861332Y-96963375D01*
X110854540Y-97028000D01*
X110855219Y-97034460D01*
X110873646Y-97209795D01*
X110873647Y-97209803D01*
X110874326Y-97216256D01*
X110876331Y-97222428D01*
X110876333Y-97222435D01*
X110929313Y-97385488D01*
X110932821Y-97396284D01*
X110936068Y-97401908D01*
X110936069Y-97401910D01*
X111012162Y-97533708D01*
X111027467Y-97560216D01*
X111031811Y-97565041D01*
X111031813Y-97565043D01*
X111143223Y-97688776D01*
X111154129Y-97700888D01*
X111307270Y-97812151D01*
X111480197Y-97889144D01*
X111665354Y-97928500D01*
X111848143Y-97928500D01*
X111854646Y-97928500D01*
X112039803Y-97889144D01*
X112212730Y-97812151D01*
X112365871Y-97700888D01*
X112492533Y-97560216D01*
X112587179Y-97396284D01*
X112645674Y-97216256D01*
X112665460Y-97028000D01*
X112645674Y-96839744D01*
X112587179Y-96659716D01*
X112583930Y-96654088D01*
X112581287Y-96648152D01*
X112583779Y-96647042D01*
X112570500Y-96597602D01*
X112570500Y-96444500D01*
X112587113Y-96382500D01*
X112632500Y-96337113D01*
X112694500Y-96320500D01*
X113578647Y-96320499D01*
X113637872Y-96320499D01*
X113697483Y-96314091D01*
X113725412Y-96303674D01*
X113731665Y-96301342D01*
X113774999Y-96293523D01*
X113818330Y-96301340D01*
X113852517Y-96314091D01*
X113912127Y-96320500D01*
X114907872Y-96320499D01*
X114967483Y-96314091D01*
X114995412Y-96303674D01*
X115001665Y-96301342D01*
X115044999Y-96293523D01*
X115088330Y-96301340D01*
X115122517Y-96314091D01*
X115182127Y-96320500D01*
X116177872Y-96320499D01*
X116237483Y-96314091D01*
X116265412Y-96303674D01*
X116271665Y-96301342D01*
X116314999Y-96293523D01*
X116358330Y-96301340D01*
X116392517Y-96314091D01*
X116452127Y-96320500D01*
X117447872Y-96320499D01*
X117507483Y-96314091D01*
X117535412Y-96303674D01*
X117541665Y-96301342D01*
X117584999Y-96293523D01*
X117628330Y-96301340D01*
X117662517Y-96314091D01*
X117722127Y-96320500D01*
X118717872Y-96320499D01*
X118777483Y-96314091D01*
X118805412Y-96303674D01*
X118811665Y-96301342D01*
X118854999Y-96293523D01*
X118898330Y-96301340D01*
X118932517Y-96314091D01*
X118992127Y-96320500D01*
X119935500Y-96320499D01*
X119997500Y-96337112D01*
X120042887Y-96382499D01*
X120059500Y-96444499D01*
X120059500Y-96585785D01*
X120050061Y-96633238D01*
X120023180Y-96673467D01*
X119918280Y-96778365D01*
X119912829Y-96783497D01*
X119873431Y-96818401D01*
X119873425Y-96818407D01*
X119867817Y-96823376D01*
X119863560Y-96829541D01*
X119863551Y-96829553D01*
X119833649Y-96872873D01*
X119829213Y-96878902D01*
X119796749Y-96920340D01*
X119796743Y-96920348D01*
X119792122Y-96926248D01*
X119789044Y-96933085D01*
X119789043Y-96933088D01*
X119787962Y-96935490D01*
X119776940Y-96955032D01*
X119775441Y-96957203D01*
X119775437Y-96957209D01*
X119771182Y-96963375D01*
X119768526Y-96970375D01*
X119768522Y-96970385D01*
X119749853Y-97019610D01*
X119746989Y-97026524D01*
X119725382Y-97074534D01*
X119725379Y-97074540D01*
X119722305Y-97081373D01*
X119720953Y-97088744D01*
X119720951Y-97088754D01*
X119720474Y-97091358D01*
X119714456Y-97112948D01*
X119713519Y-97115419D01*
X119713517Y-97115424D01*
X119710860Y-97122433D01*
X119709956Y-97129870D01*
X119709956Y-97129874D01*
X119703610Y-97182132D01*
X119702483Y-97189531D01*
X119692994Y-97241315D01*
X119692993Y-97241323D01*
X119691642Y-97248699D01*
X119692094Y-97256178D01*
X119692094Y-97256186D01*
X119695274Y-97308738D01*
X119695500Y-97316226D01*
X119695500Y-104623079D01*
X119695274Y-104630567D01*
X119692094Y-104683118D01*
X119692094Y-104683126D01*
X119691642Y-104690606D01*
X119692993Y-104697982D01*
X119692994Y-104697987D01*
X119702483Y-104749771D01*
X119703610Y-104757171D01*
X119709955Y-104809425D01*
X119709956Y-104809430D01*
X119710860Y-104816872D01*
X119713519Y-104823885D01*
X119713521Y-104823891D01*
X119714450Y-104826340D01*
X119720475Y-104847952D01*
X119720951Y-104850551D01*
X119720954Y-104850560D01*
X119722305Y-104857932D01*
X119725382Y-104864769D01*
X119725383Y-104864772D01*
X119746991Y-104912784D01*
X119749857Y-104919702D01*
X119771182Y-104975930D01*
X119775442Y-104982102D01*
X119775445Y-104982107D01*
X119776937Y-104984268D01*
X119787959Y-105003810D01*
X119789039Y-105006210D01*
X119789044Y-105006219D01*
X119792122Y-105013057D01*
X119796745Y-105018958D01*
X119796747Y-105018961D01*
X119829216Y-105060404D01*
X119833636Y-105066410D01*
X119867817Y-105115929D01*
X119912847Y-105155822D01*
X119918282Y-105160939D01*
X120645704Y-105888361D01*
X120676605Y-105939788D01*
X120679745Y-105999702D01*
X120654389Y-106054078D01*
X120606474Y-106090184D01*
X120547216Y-106099570D01*
X120401396Y-106086813D01*
X120401395Y-106086813D01*
X120396000Y-106086341D01*
X120390605Y-106086813D01*
X120165985Y-106106465D01*
X120165983Y-106106465D01*
X120160592Y-106106937D01*
X120155367Y-106108336D01*
X120155361Y-106108338D01*
X120143778Y-106111442D01*
X120079591Y-106111442D01*
X120024005Y-106079348D01*
X118592819Y-104648162D01*
X118565939Y-104607934D01*
X118556500Y-104560481D01*
X118556500Y-99675392D01*
X118564749Y-99630920D01*
X118581703Y-99603279D01*
X118580363Y-99602306D01*
X118584184Y-99597045D01*
X118588533Y-99592216D01*
X118683179Y-99428284D01*
X118741674Y-99248256D01*
X118761460Y-99060000D01*
X118741674Y-98871744D01*
X118683179Y-98691716D01*
X118588533Y-98527784D01*
X118546109Y-98480668D01*
X118466220Y-98391942D01*
X118466219Y-98391941D01*
X118461871Y-98387112D01*
X118456613Y-98383292D01*
X118456611Y-98383290D01*
X118313988Y-98279669D01*
X118313987Y-98279668D01*
X118308730Y-98275849D01*
X118302792Y-98273205D01*
X118141745Y-98201501D01*
X118141740Y-98201499D01*
X118135803Y-98198856D01*
X118129444Y-98197504D01*
X118129440Y-98197503D01*
X117957008Y-98160852D01*
X117957005Y-98160851D01*
X117950646Y-98159500D01*
X117761354Y-98159500D01*
X117754995Y-98160851D01*
X117754991Y-98160852D01*
X117582559Y-98197503D01*
X117582552Y-98197505D01*
X117576197Y-98198856D01*
X117570262Y-98201498D01*
X117570254Y-98201501D01*
X117409207Y-98273205D01*
X117409202Y-98273207D01*
X117403270Y-98275849D01*
X117398016Y-98279665D01*
X117398011Y-98279669D01*
X117255388Y-98383290D01*
X117255381Y-98383295D01*
X117250129Y-98387112D01*
X117245784Y-98391937D01*
X117245779Y-98391942D01*
X117127813Y-98522956D01*
X117127808Y-98522962D01*
X117123467Y-98527784D01*
X117120222Y-98533404D01*
X117120218Y-98533410D01*
X117032069Y-98686089D01*
X117032066Y-98686094D01*
X117028821Y-98691716D01*
X117026815Y-98697888D01*
X117026813Y-98697894D01*
X116972333Y-98865564D01*
X116972331Y-98865573D01*
X116970326Y-98871744D01*
X116969648Y-98878194D01*
X116969646Y-98878204D01*
X116951962Y-99046464D01*
X116950540Y-99060000D01*
X116951219Y-99066460D01*
X116969646Y-99241795D01*
X116969647Y-99241803D01*
X116970326Y-99248256D01*
X116972331Y-99254428D01*
X116972333Y-99254435D01*
X117013132Y-99380000D01*
X117028821Y-99428284D01*
X117032068Y-99433908D01*
X117032069Y-99433910D01*
X117088033Y-99530842D01*
X117123467Y-99592216D01*
X117127813Y-99597043D01*
X117131637Y-99602306D01*
X117130296Y-99603279D01*
X117147251Y-99630920D01*
X117155500Y-99675392D01*
X117155500Y-104877079D01*
X117155274Y-104884567D01*
X117152094Y-104937118D01*
X117152094Y-104937126D01*
X117151642Y-104944606D01*
X117152993Y-104951982D01*
X117152994Y-104951987D01*
X117162483Y-105003771D01*
X117163610Y-105011171D01*
X117169955Y-105063425D01*
X117169956Y-105063430D01*
X117170860Y-105070872D01*
X117173519Y-105077885D01*
X117173521Y-105077891D01*
X117174450Y-105080340D01*
X117180475Y-105101952D01*
X117180951Y-105104551D01*
X117180954Y-105104560D01*
X117182305Y-105111932D01*
X117185382Y-105118769D01*
X117185383Y-105118772D01*
X117206991Y-105166784D01*
X117209857Y-105173702D01*
X117231182Y-105229930D01*
X117235442Y-105236102D01*
X117235445Y-105236107D01*
X117236937Y-105238268D01*
X117247959Y-105257810D01*
X117249039Y-105260210D01*
X117249044Y-105260219D01*
X117252122Y-105267057D01*
X117256745Y-105272958D01*
X117256747Y-105272961D01*
X117289216Y-105314404D01*
X117293636Y-105320410D01*
X117327817Y-105369929D01*
X117372847Y-105409822D01*
X117378282Y-105414939D01*
X119033348Y-107070005D01*
X119065442Y-107125591D01*
X119065442Y-107189778D01*
X119062338Y-107201361D01*
X119062336Y-107201367D01*
X119060937Y-107206592D01*
X119060465Y-107211983D01*
X119060465Y-107211985D01*
X119052702Y-107300719D01*
X119040341Y-107442000D01*
X119040813Y-107447395D01*
X119060121Y-107668090D01*
X119060937Y-107677408D01*
X119062336Y-107682630D01*
X119062337Y-107682634D01*
X119120694Y-107900430D01*
X119120697Y-107900438D01*
X119122097Y-107905663D01*
X119124385Y-107910570D01*
X119124386Y-107910572D01*
X119219678Y-108114927D01*
X119219681Y-108114933D01*
X119221965Y-108119830D01*
X119225064Y-108124257D01*
X119225066Y-108124259D01*
X119354399Y-108308966D01*
X119354402Y-108308970D01*
X119357505Y-108313401D01*
X119524599Y-108480495D01*
X119589617Y-108526021D01*
X119642623Y-108563136D01*
X119681489Y-108607454D01*
X119695500Y-108664711D01*
X119695500Y-110753242D01*
X119686061Y-110800695D01*
X119659181Y-110840923D01*
X119615334Y-110884769D01*
X119615328Y-110884775D01*
X119611505Y-110888599D01*
X119608402Y-110893029D01*
X119608399Y-110893034D01*
X119479067Y-111077739D01*
X119479060Y-111077749D01*
X119475965Y-111082171D01*
X119473686Y-111087058D01*
X119473674Y-111087079D01*
X119461473Y-111113246D01*
X119424577Y-111159217D01*
X119370624Y-111182956D01*
X119311804Y-111179101D01*
X119261411Y-111148521D01*
X118625819Y-110512929D01*
X118598939Y-110472701D01*
X118589500Y-110425248D01*
X118589500Y-108013921D01*
X118589726Y-108006433D01*
X118592905Y-107953881D01*
X118593358Y-107946394D01*
X118582514Y-107887221D01*
X118581387Y-107879815D01*
X118579924Y-107867766D01*
X118574140Y-107820128D01*
X118570547Y-107810656D01*
X118564522Y-107789041D01*
X118562695Y-107779069D01*
X118538009Y-107724220D01*
X118535142Y-107717298D01*
X118520014Y-107677408D01*
X118513818Y-107661070D01*
X118508059Y-107652727D01*
X118497033Y-107633177D01*
X118495956Y-107630784D01*
X118492878Y-107623944D01*
X118455791Y-107576605D01*
X118451353Y-107570574D01*
X118421446Y-107527247D01*
X118417183Y-107521071D01*
X118411568Y-107516097D01*
X118411565Y-107516093D01*
X118372170Y-107481193D01*
X118366716Y-107476059D01*
X118191376Y-107300719D01*
X118191375Y-107300718D01*
X118191367Y-107300710D01*
X118191362Y-107300706D01*
X113824808Y-102934152D01*
X109446819Y-98556162D01*
X109419939Y-98515934D01*
X109410500Y-98468481D01*
X109410500Y-95946504D01*
X109424796Y-95888703D01*
X109464387Y-95844229D01*
X109520145Y-95823338D01*
X109579212Y-95830846D01*
X109627970Y-95865022D01*
X109655176Y-95917986D01*
X109659112Y-95934642D01*
X109703547Y-96053777D01*
X109711962Y-96069189D01*
X109787498Y-96170092D01*
X109799907Y-96182501D01*
X109900810Y-96258037D01*
X109916222Y-96266452D01*
X110035358Y-96310888D01*
X110050332Y-96314426D01*
X110098885Y-96319646D01*
X110105482Y-96320000D01*
X110333674Y-96320000D01*
X110346549Y-96316549D01*
X110350000Y-96303674D01*
X110350000Y-93836326D01*
X110346549Y-93823450D01*
X110333674Y-93820000D01*
X110105482Y-93820000D01*
X110098885Y-93820353D01*
X110050332Y-93825573D01*
X110035358Y-93829111D01*
X109916222Y-93873547D01*
X109900810Y-93881962D01*
X109799907Y-93957498D01*
X109787498Y-93969907D01*
X109711962Y-94070810D01*
X109703547Y-94086222D01*
X109659112Y-94205357D01*
X109655176Y-94222014D01*
X109627970Y-94274978D01*
X109579212Y-94309154D01*
X109520145Y-94316662D01*
X109464387Y-94295771D01*
X109424796Y-94251297D01*
X109410500Y-94193496D01*
X109410500Y-92472449D01*
X109410500Y-92464944D01*
X109402078Y-92430779D01*
X109399380Y-92416053D01*
X109396044Y-92388574D01*
X109396043Y-92388573D01*
X109395140Y-92381128D01*
X109382663Y-92348228D01*
X109378213Y-92333952D01*
X109369790Y-92299775D01*
X109353432Y-92268609D01*
X109347299Y-92254982D01*
X109334818Y-92222070D01*
X109314829Y-92193112D01*
X109307082Y-92180297D01*
X109294219Y-92155789D01*
X109290734Y-92149148D01*
X109267404Y-92122813D01*
X109258172Y-92111030D01*
X109257353Y-92109843D01*
X109238183Y-92082071D01*
X109232570Y-92077098D01*
X109232568Y-92077096D01*
X109211848Y-92058740D01*
X109201257Y-92048149D01*
X109182905Y-92027433D01*
X109182901Y-92027430D01*
X109177929Y-92021817D01*
X109171757Y-92017556D01*
X109171753Y-92017553D01*
X109148966Y-92001824D01*
X109137181Y-91992591D01*
X109110852Y-91969266D01*
X109104213Y-91965781D01*
X109104208Y-91965778D01*
X109079703Y-91952917D01*
X109066892Y-91945173D01*
X109061617Y-91941532D01*
X109037930Y-91925182D01*
X109030918Y-91922522D01*
X109030915Y-91922521D01*
X109005026Y-91912702D01*
X108991376Y-91906559D01*
X108966865Y-91893695D01*
X108960225Y-91890210D01*
X108926063Y-91881789D01*
X108911773Y-91877337D01*
X108890530Y-91869281D01*
X108848602Y-91842768D01*
X108820422Y-91801942D01*
X108810499Y-91753342D01*
X108810499Y-90782128D01*
X108804091Y-90722517D01*
X108791340Y-90688330D01*
X108783523Y-90644999D01*
X108791342Y-90601665D01*
X108801379Y-90574753D01*
X108804091Y-90567483D01*
X108810500Y-90507873D01*
X108810499Y-89512128D01*
X108804091Y-89452517D01*
X108791340Y-89418330D01*
X108783523Y-89375000D01*
X108791340Y-89331668D01*
X108804091Y-89297483D01*
X108810500Y-89237873D01*
X108810499Y-88242128D01*
X108804091Y-88182517D01*
X108791340Y-88148331D01*
X108783523Y-88105000D01*
X108791340Y-88061668D01*
X108804091Y-88027483D01*
X108810500Y-87967873D01*
X108810499Y-86972128D01*
X108804091Y-86912517D01*
X108791340Y-86878330D01*
X108783523Y-86834999D01*
X108790827Y-86794518D01*
X113030000Y-86794518D01*
X113030353Y-86801114D01*
X113035573Y-86849667D01*
X113039111Y-86864641D01*
X113083547Y-86983777D01*
X113091962Y-86999189D01*
X113167498Y-87100092D01*
X113179907Y-87112501D01*
X113280810Y-87188037D01*
X113296222Y-87196452D01*
X113415358Y-87240888D01*
X113430332Y-87244426D01*
X113478885Y-87249646D01*
X113485482Y-87250000D01*
X115363674Y-87250000D01*
X115376549Y-87246549D01*
X115380000Y-87233674D01*
X115880000Y-87233674D01*
X115883450Y-87246549D01*
X115896326Y-87250000D01*
X117774518Y-87250000D01*
X117781114Y-87249646D01*
X117829667Y-87244426D01*
X117844641Y-87240888D01*
X117963777Y-87196452D01*
X117979189Y-87188037D01*
X118080092Y-87112501D01*
X118092501Y-87100092D01*
X118168037Y-86999189D01*
X118176452Y-86983777D01*
X118220888Y-86864641D01*
X118224426Y-86849667D01*
X118229646Y-86801114D01*
X118230000Y-86794518D01*
X118230000Y-84916326D01*
X118226549Y-84903450D01*
X118213674Y-84900000D01*
X117421326Y-84900000D01*
X117408450Y-84903450D01*
X117405000Y-84916326D01*
X117405000Y-85296736D01*
X117407243Y-85308014D01*
X117413638Y-85317585D01*
X117420872Y-85324819D01*
X117452966Y-85380406D01*
X117452966Y-85444594D01*
X117420872Y-85500181D01*
X117413638Y-85507414D01*
X117407243Y-85516985D01*
X117405000Y-85528264D01*
X117405000Y-86301000D01*
X117388387Y-86363000D01*
X117343000Y-86408387D01*
X117281000Y-86425000D01*
X116508264Y-86425000D01*
X116496985Y-86427243D01*
X116487414Y-86433638D01*
X116480181Y-86440872D01*
X116424594Y-86472966D01*
X116360406Y-86472966D01*
X116304819Y-86440872D01*
X116297585Y-86433638D01*
X116288014Y-86427243D01*
X116276736Y-86425000D01*
X115896326Y-86425000D01*
X115883450Y-86428450D01*
X115880000Y-86441326D01*
X115880000Y-87233674D01*
X115380000Y-87233674D01*
X115380000Y-86441326D01*
X115376549Y-86428450D01*
X115363674Y-86425000D01*
X114983264Y-86425000D01*
X114971985Y-86427243D01*
X114962414Y-86433638D01*
X114955181Y-86440872D01*
X114899594Y-86472966D01*
X114835406Y-86472966D01*
X114779819Y-86440872D01*
X114772585Y-86433638D01*
X114763014Y-86427243D01*
X114751736Y-86425000D01*
X113979000Y-86425000D01*
X113917000Y-86408387D01*
X113871613Y-86363000D01*
X113855000Y-86301000D01*
X113855000Y-85528264D01*
X113852756Y-85516985D01*
X113846361Y-85507414D01*
X113839128Y-85500181D01*
X113807034Y-85444594D01*
X113807034Y-85412500D01*
X114463431Y-85412500D01*
X114470095Y-85424042D01*
X114855957Y-85809904D01*
X114867500Y-85816568D01*
X114879042Y-85809904D01*
X115264904Y-85424042D01*
X115271568Y-85412500D01*
X115988431Y-85412500D01*
X115995095Y-85424042D01*
X116380957Y-85809904D01*
X116392500Y-85816568D01*
X116404042Y-85809904D01*
X116789904Y-85424042D01*
X116796568Y-85412500D01*
X116789904Y-85400957D01*
X116404042Y-85015095D01*
X116392500Y-85008431D01*
X116380957Y-85015095D01*
X115995095Y-85400957D01*
X115988431Y-85412500D01*
X115271568Y-85412500D01*
X115264904Y-85400957D01*
X114879042Y-85015095D01*
X114867500Y-85008431D01*
X114855957Y-85015095D01*
X114470095Y-85400957D01*
X114463431Y-85412500D01*
X113807034Y-85412500D01*
X113807034Y-85380406D01*
X113839128Y-85324819D01*
X113846361Y-85317585D01*
X113852756Y-85308014D01*
X113855000Y-85296736D01*
X113855000Y-84916326D01*
X113851549Y-84903450D01*
X113838674Y-84900000D01*
X113046326Y-84900000D01*
X113033450Y-84903450D01*
X113030000Y-84916326D01*
X113030000Y-86794518D01*
X108790827Y-86794518D01*
X108791342Y-86791665D01*
X108801379Y-86764753D01*
X108804091Y-86757483D01*
X108810500Y-86697873D01*
X108810499Y-85702128D01*
X108804091Y-85642517D01*
X108791341Y-85608332D01*
X108783523Y-85564998D01*
X108791342Y-85521664D01*
X108793087Y-85516985D01*
X108804091Y-85487483D01*
X108810500Y-85427873D01*
X108810499Y-84432128D01*
X108805290Y-84383674D01*
X113030000Y-84383674D01*
X113033450Y-84396549D01*
X113046326Y-84400000D01*
X113838674Y-84400000D01*
X113851549Y-84396549D01*
X113855000Y-84383674D01*
X113855000Y-84003264D01*
X113852756Y-83991985D01*
X113846361Y-83982414D01*
X113839128Y-83975181D01*
X113807034Y-83919594D01*
X113807034Y-83887500D01*
X114463431Y-83887500D01*
X114470095Y-83899042D01*
X114855957Y-84284904D01*
X114867500Y-84291568D01*
X114879042Y-84284904D01*
X115264904Y-83899042D01*
X115271567Y-83887500D01*
X115988431Y-83887500D01*
X115995095Y-83899042D01*
X116380957Y-84284904D01*
X116392500Y-84291568D01*
X116404042Y-84284904D01*
X116789904Y-83899042D01*
X116796568Y-83887499D01*
X116789904Y-83875957D01*
X116404042Y-83490095D01*
X116392500Y-83483431D01*
X116380957Y-83490095D01*
X115995095Y-83875957D01*
X115988431Y-83887500D01*
X115271567Y-83887500D01*
X115271568Y-83887499D01*
X115264904Y-83875957D01*
X114879042Y-83490095D01*
X114867500Y-83483431D01*
X114855957Y-83490095D01*
X114470095Y-83875957D01*
X114463431Y-83887500D01*
X113807034Y-83887500D01*
X113807034Y-83855406D01*
X113839128Y-83799819D01*
X113846361Y-83792585D01*
X113852756Y-83783014D01*
X113855000Y-83771736D01*
X113855000Y-82999000D01*
X113871613Y-82937000D01*
X113917000Y-82891613D01*
X113979000Y-82875000D01*
X114751736Y-82875000D01*
X114763014Y-82872756D01*
X114772585Y-82866361D01*
X114779819Y-82859128D01*
X114835406Y-82827034D01*
X114899594Y-82827034D01*
X114955181Y-82859128D01*
X114962414Y-82866361D01*
X114971985Y-82872756D01*
X114983264Y-82875000D01*
X115363674Y-82875000D01*
X115376549Y-82871549D01*
X115380000Y-82858674D01*
X115880000Y-82858674D01*
X115883450Y-82871549D01*
X115896326Y-82875000D01*
X116276736Y-82875000D01*
X116288014Y-82872756D01*
X116297585Y-82866361D01*
X116304819Y-82859128D01*
X116360406Y-82827034D01*
X116424594Y-82827034D01*
X116480181Y-82859128D01*
X116487414Y-82866361D01*
X116496985Y-82872756D01*
X116508264Y-82875000D01*
X117281000Y-82875000D01*
X117343000Y-82891613D01*
X117388387Y-82937000D01*
X117405000Y-82999000D01*
X117405000Y-83771736D01*
X117407243Y-83783014D01*
X117413638Y-83792585D01*
X117420872Y-83799819D01*
X117452966Y-83855406D01*
X117452966Y-83919594D01*
X117420872Y-83975181D01*
X117413638Y-83982414D01*
X117407243Y-83991985D01*
X117405000Y-84003264D01*
X117405000Y-84383674D01*
X117408450Y-84396549D01*
X117421326Y-84400000D01*
X118213674Y-84400000D01*
X118226549Y-84396549D01*
X118230000Y-84383674D01*
X118230000Y-82505482D01*
X118229646Y-82498885D01*
X118224426Y-82450332D01*
X118220888Y-82435358D01*
X118176452Y-82316222D01*
X118168037Y-82300810D01*
X118092501Y-82199907D01*
X118080092Y-82187498D01*
X117979189Y-82111962D01*
X117963777Y-82103547D01*
X117844641Y-82059111D01*
X117829667Y-82055573D01*
X117781114Y-82050353D01*
X117774518Y-82050000D01*
X115896326Y-82050000D01*
X115883450Y-82053450D01*
X115880000Y-82066326D01*
X115880000Y-82858674D01*
X115380000Y-82858674D01*
X115380000Y-82066326D01*
X115376549Y-82053450D01*
X115363674Y-82050000D01*
X113485482Y-82050000D01*
X113478885Y-82050353D01*
X113430332Y-82055573D01*
X113415358Y-82059111D01*
X113296222Y-82103547D01*
X113280810Y-82111962D01*
X113179907Y-82187498D01*
X113167498Y-82199907D01*
X113091962Y-82300810D01*
X113083547Y-82316222D01*
X113039111Y-82435358D01*
X113035573Y-82450332D01*
X113030353Y-82498885D01*
X113030000Y-82505482D01*
X113030000Y-84383674D01*
X108805290Y-84383674D01*
X108804091Y-84372517D01*
X108791341Y-84338332D01*
X108783523Y-84294998D01*
X108791342Y-84251664D01*
X108801379Y-84224753D01*
X108804091Y-84217483D01*
X108810500Y-84157873D01*
X108810499Y-83162128D01*
X108804091Y-83102517D01*
X108791340Y-83068330D01*
X108783523Y-83025000D01*
X108791340Y-82981668D01*
X108804091Y-82947483D01*
X108810500Y-82887873D01*
X108810499Y-81892128D01*
X108804091Y-81832517D01*
X108791340Y-81798330D01*
X108783523Y-81754999D01*
X108791342Y-81711665D01*
X108801379Y-81684753D01*
X108804091Y-81677483D01*
X108810500Y-81617873D01*
X108810499Y-80622128D01*
X108804091Y-80562517D01*
X108791340Y-80528330D01*
X108783523Y-80484999D01*
X108791342Y-80441665D01*
X108801379Y-80414753D01*
X108804091Y-80407483D01*
X108810500Y-80347873D01*
X108810499Y-79404499D01*
X108827112Y-79342500D01*
X108872499Y-79297113D01*
X108934499Y-79280500D01*
X116721079Y-79280500D01*
X116728566Y-79280725D01*
X116788606Y-79284358D01*
X116795994Y-79283004D01*
X116817648Y-79279036D01*
X116862352Y-79279035D01*
X116891394Y-79284357D01*
X116951422Y-79280726D01*
X116958910Y-79280500D01*
X118670157Y-79280500D01*
X118720593Y-79291221D01*
X118840254Y-79344498D01*
X118846197Y-79347144D01*
X119031354Y-79386500D01*
X119214143Y-79386500D01*
X119220646Y-79386500D01*
X119405803Y-79347144D01*
X119531406Y-79291221D01*
X119581843Y-79280500D01*
X121765079Y-79280500D01*
X121772566Y-79280725D01*
X121832606Y-79284358D01*
X121891782Y-79273513D01*
X121899181Y-79272387D01*
X121958872Y-79265140D01*
X121968332Y-79261551D01*
X121989959Y-79255522D01*
X121999932Y-79253695D01*
X122054808Y-79228996D01*
X122061673Y-79226152D01*
X122117930Y-79204818D01*
X122126264Y-79199064D01*
X122145821Y-79188034D01*
X122155057Y-79183878D01*
X122202416Y-79146774D01*
X122208420Y-79142355D01*
X122257929Y-79108183D01*
X122297822Y-79063151D01*
X122302924Y-79057731D01*
X123601771Y-77758884D01*
X123662010Y-77725642D01*
X123730700Y-77729631D01*
G37*
%TD.AperFunction*%
%TA.AperFunction,Conductor*%
G36*
X104535541Y-93249237D02*
G01*
X104574430Y-93306461D01*
X104582821Y-93332284D01*
X104586068Y-93337908D01*
X104586069Y-93337910D01*
X104653451Y-93454620D01*
X104677467Y-93496216D01*
X104681811Y-93501041D01*
X104681813Y-93501043D01*
X104709675Y-93531987D01*
X104804129Y-93636888D01*
X104957270Y-93748151D01*
X105113123Y-93817542D01*
X105118643Y-93820000D01*
X105130197Y-93825144D01*
X105315354Y-93864500D01*
X105498143Y-93864500D01*
X105504646Y-93864500D01*
X105689803Y-93825144D01*
X105862730Y-93748151D01*
X106015871Y-93636888D01*
X106093352Y-93550836D01*
X106142277Y-93517587D01*
X106201041Y-93510788D01*
X106256268Y-93531987D01*
X106295389Y-93576361D01*
X106309500Y-93633810D01*
X106309500Y-94314560D01*
X106309500Y-94314578D01*
X106309501Y-94317872D01*
X106309853Y-94321150D01*
X106309854Y-94321161D01*
X106315079Y-94369768D01*
X106315080Y-94369773D01*
X106315909Y-94377483D01*
X106318619Y-94384749D01*
X106318620Y-94384753D01*
X106344352Y-94453742D01*
X106366204Y-94512331D01*
X106452454Y-94627546D01*
X106567669Y-94713796D01*
X106702517Y-94764091D01*
X106748758Y-94769062D01*
X106805003Y-94789660D01*
X106845032Y-94834223D01*
X106859500Y-94892351D01*
X106859500Y-100169079D01*
X106859274Y-100176567D01*
X106856094Y-100229118D01*
X106856094Y-100229126D01*
X106855642Y-100236606D01*
X106856993Y-100243982D01*
X106856994Y-100243987D01*
X106866483Y-100295771D01*
X106867610Y-100303171D01*
X106873955Y-100355425D01*
X106873956Y-100355430D01*
X106874860Y-100362872D01*
X106877519Y-100369885D01*
X106877521Y-100369891D01*
X106878450Y-100372340D01*
X106884475Y-100393952D01*
X106884951Y-100396551D01*
X106884954Y-100396560D01*
X106886305Y-100403932D01*
X106889382Y-100410769D01*
X106889383Y-100410772D01*
X106910991Y-100458784D01*
X106913857Y-100465702D01*
X106935182Y-100521930D01*
X106939442Y-100528102D01*
X106939445Y-100528107D01*
X106940937Y-100530268D01*
X106951959Y-100549810D01*
X106953039Y-100552210D01*
X106953044Y-100552219D01*
X106956122Y-100559057D01*
X106960745Y-100564958D01*
X106960747Y-100564961D01*
X106993216Y-100606404D01*
X106997636Y-100612410D01*
X107031817Y-100661929D01*
X107076847Y-100701822D01*
X107082282Y-100706939D01*
X109309495Y-102934152D01*
X109333734Y-102968449D01*
X109345135Y-103008870D01*
X109349646Y-103051795D01*
X109349647Y-103051803D01*
X109350326Y-103058256D01*
X109408821Y-103238284D01*
X109412068Y-103243908D01*
X109412069Y-103243910D01*
X109495917Y-103389140D01*
X109503467Y-103402216D01*
X109630129Y-103542888D01*
X109783270Y-103654151D01*
X109956197Y-103731144D01*
X110141354Y-103770500D01*
X110324143Y-103770500D01*
X110330646Y-103770500D01*
X110515803Y-103731144D01*
X110688730Y-103654151D01*
X110841871Y-103542888D01*
X110968533Y-103402216D01*
X111063179Y-103238284D01*
X111121674Y-103058256D01*
X111141460Y-102870000D01*
X111121674Y-102681744D01*
X111063179Y-102501716D01*
X111058902Y-102494308D01*
X111058455Y-102492777D01*
X111057287Y-102490152D01*
X111057644Y-102489992D01*
X111042406Y-102437720D01*
X111053904Y-102379905D01*
X111090800Y-102333933D01*
X111144754Y-102310191D01*
X111203575Y-102314046D01*
X111253969Y-102344626D01*
X117152181Y-108242837D01*
X117179061Y-108283065D01*
X117188500Y-108330518D01*
X117188500Y-108996475D01*
X117169636Y-109062220D01*
X117118783Y-109107962D01*
X117051415Y-109119783D01*
X116988027Y-109094086D01*
X116956961Y-109069747D01*
X116956958Y-109069745D01*
X116951057Y-109065122D01*
X116944219Y-109062044D01*
X116944210Y-109062039D01*
X116941810Y-109060959D01*
X116922268Y-109049937D01*
X116920107Y-109048445D01*
X116920102Y-109048442D01*
X116913930Y-109044182D01*
X116857702Y-109022857D01*
X116850784Y-109019991D01*
X116802772Y-108998383D01*
X116802769Y-108998382D01*
X116795932Y-108995305D01*
X116788560Y-108993954D01*
X116788551Y-108993951D01*
X116785952Y-108993475D01*
X116764340Y-108987450D01*
X116761891Y-108986521D01*
X116761885Y-108986519D01*
X116754872Y-108983860D01*
X116747430Y-108982956D01*
X116747425Y-108982955D01*
X116695171Y-108976610D01*
X116687771Y-108975483D01*
X116635987Y-108965994D01*
X116635982Y-108965993D01*
X116628606Y-108964642D01*
X116621126Y-108965094D01*
X116621118Y-108965094D01*
X116568567Y-108968274D01*
X116561079Y-108968500D01*
X110319921Y-108968500D01*
X110312433Y-108968274D01*
X110259881Y-108965094D01*
X110259873Y-108965094D01*
X110252394Y-108964642D01*
X110245018Y-108965993D01*
X110245011Y-108965994D01*
X110193228Y-108975483D01*
X110185828Y-108976610D01*
X110133569Y-108982956D01*
X110133565Y-108982956D01*
X110126128Y-108983860D01*
X110119119Y-108986517D01*
X110119114Y-108986519D01*
X110116643Y-108987456D01*
X110095053Y-108993474D01*
X110092452Y-108993950D01*
X110092438Y-108993954D01*
X110085069Y-108995305D01*
X110078232Y-108998381D01*
X110078232Y-108998382D01*
X110030226Y-109019987D01*
X110023310Y-109022851D01*
X109974082Y-109041521D01*
X109974070Y-109041526D01*
X109967070Y-109044182D01*
X109960904Y-109048437D01*
X109960894Y-109048443D01*
X109958717Y-109049946D01*
X109939195Y-109060957D01*
X109936788Y-109062040D01*
X109936778Y-109062045D01*
X109929944Y-109065122D01*
X109924043Y-109069744D01*
X109924038Y-109069748D01*
X109882608Y-109102206D01*
X109876580Y-109106642D01*
X109833246Y-109136554D01*
X109833242Y-109136556D01*
X109827071Y-109140817D01*
X109822101Y-109146426D01*
X109822094Y-109146433D01*
X109787177Y-109185846D01*
X109782044Y-109191298D01*
X108575994Y-110397347D01*
X108520410Y-110429440D01*
X108456226Y-110429443D01*
X108444633Y-110426337D01*
X108439408Y-110424937D01*
X108434014Y-110424465D01*
X108209395Y-110404813D01*
X108204000Y-110404341D01*
X108198605Y-110404813D01*
X107973982Y-110424465D01*
X107973977Y-110424465D01*
X107968592Y-110424937D01*
X107963371Y-110426335D01*
X107963365Y-110426337D01*
X107745569Y-110484694D01*
X107745557Y-110484698D01*
X107740337Y-110486097D01*
X107735432Y-110488383D01*
X107735427Y-110488386D01*
X107531081Y-110583675D01*
X107531077Y-110583677D01*
X107526171Y-110585965D01*
X107521738Y-110589068D01*
X107521731Y-110589073D01*
X107337034Y-110718399D01*
X107337029Y-110718402D01*
X107332599Y-110721505D01*
X107328775Y-110725328D01*
X107328769Y-110725334D01*
X107169334Y-110884769D01*
X107169328Y-110884775D01*
X107165505Y-110888599D01*
X107162403Y-110893028D01*
X107162403Y-110893029D01*
X107035574Y-111074160D01*
X106991256Y-111113025D01*
X106933999Y-111127036D01*
X106876742Y-111113025D01*
X106832426Y-111074161D01*
X106702495Y-110888599D01*
X106535401Y-110721505D01*
X106530970Y-110718402D01*
X106530966Y-110718399D01*
X106346259Y-110589066D01*
X106346257Y-110589064D01*
X106341830Y-110585965D01*
X106336933Y-110583681D01*
X106336927Y-110583678D01*
X106132572Y-110488386D01*
X106132570Y-110488385D01*
X106127663Y-110486097D01*
X106122438Y-110484697D01*
X106122430Y-110484694D01*
X105904634Y-110426337D01*
X105904630Y-110426336D01*
X105899408Y-110424937D01*
X105894020Y-110424465D01*
X105894017Y-110424465D01*
X105669395Y-110404813D01*
X105664000Y-110404341D01*
X105658605Y-110404813D01*
X105433985Y-110424465D01*
X105433983Y-110424465D01*
X105428592Y-110424937D01*
X105423367Y-110426336D01*
X105423361Y-110426338D01*
X105411778Y-110429442D01*
X105347591Y-110429442D01*
X105292005Y-110397348D01*
X104368819Y-109474162D01*
X104341939Y-109433934D01*
X104332500Y-109386481D01*
X104332500Y-93344780D01*
X104351803Y-93278337D01*
X104403703Y-93232581D01*
X104472042Y-93221758D01*
X104535541Y-93249237D01*
G37*
%TD.AperFunction*%
%TA.AperFunction,Conductor*%
G36*
X133537934Y-77169939D02*
G01*
X133578162Y-77196819D01*
X134145181Y-77763838D01*
X134172061Y-77804066D01*
X134181500Y-77851519D01*
X134181500Y-78406858D01*
X134181500Y-78406877D01*
X134181501Y-78410008D01*
X134181820Y-78413140D01*
X134181821Y-78413141D01*
X134191312Y-78506061D01*
X134191313Y-78506069D01*
X134192001Y-78512797D01*
X134194129Y-78519219D01*
X134194130Y-78519223D01*
X134229174Y-78624977D01*
X134247186Y-78679334D01*
X134261873Y-78703146D01*
X134335497Y-78822511D01*
X134335500Y-78822515D01*
X134339288Y-78828656D01*
X134344393Y-78833761D01*
X134432951Y-78922319D01*
X134465045Y-78977906D01*
X134465045Y-79042094D01*
X134432951Y-79097681D01*
X134344393Y-79186238D01*
X134344389Y-79186242D01*
X134339288Y-79191344D01*
X134335503Y-79197480D01*
X134335497Y-79197488D01*
X134256935Y-79324860D01*
X134247186Y-79340666D01*
X134244915Y-79347517D01*
X134244914Y-79347521D01*
X134210162Y-79452397D01*
X134192001Y-79507203D01*
X134191313Y-79513933D01*
X134191312Y-79513940D01*
X134181819Y-79606859D01*
X134181818Y-79606877D01*
X134181500Y-79609991D01*
X134181500Y-79613138D01*
X134181500Y-79613139D01*
X134181500Y-80406858D01*
X134181500Y-80406877D01*
X134181501Y-80410008D01*
X134181820Y-80413140D01*
X134181821Y-80413141D01*
X134191312Y-80506061D01*
X134191313Y-80506069D01*
X134192001Y-80512797D01*
X134194129Y-80519219D01*
X134194130Y-80519223D01*
X134244914Y-80672478D01*
X134247186Y-80679334D01*
X134250977Y-80685480D01*
X134335497Y-80822511D01*
X134335500Y-80822515D01*
X134339288Y-80828656D01*
X134463344Y-80952712D01*
X134469484Y-80956499D01*
X134469488Y-80956502D01*
X134502520Y-80976876D01*
X134612666Y-81044814D01*
X134779203Y-81099999D01*
X134881991Y-81110500D01*
X135882008Y-81110499D01*
X135984797Y-81099999D01*
X136151334Y-81044814D01*
X136300656Y-80952712D01*
X136424712Y-80828656D01*
X136448192Y-80790589D01*
X136461259Y-80769404D01*
X136506366Y-80726223D01*
X136566798Y-80710500D01*
X136828481Y-80710500D01*
X136875934Y-80719939D01*
X136916162Y-80746819D01*
X137321348Y-81152005D01*
X137353442Y-81207591D01*
X137353442Y-81271778D01*
X137350338Y-81283361D01*
X137350337Y-81283365D01*
X137348937Y-81288592D01*
X137328341Y-81524000D01*
X137328813Y-81529395D01*
X137347660Y-81744818D01*
X137348937Y-81759408D01*
X137350336Y-81764630D01*
X137350337Y-81764634D01*
X137408694Y-81982430D01*
X137408697Y-81982438D01*
X137410097Y-81987663D01*
X137412385Y-81992570D01*
X137412386Y-81992572D01*
X137507678Y-82196927D01*
X137507681Y-82196933D01*
X137509965Y-82201830D01*
X137513064Y-82206257D01*
X137513066Y-82206259D01*
X137642399Y-82390966D01*
X137642402Y-82390970D01*
X137645505Y-82395401D01*
X137812599Y-82562495D01*
X137817032Y-82565599D01*
X137817038Y-82565604D01*
X137998158Y-82692425D01*
X138037024Y-82736743D01*
X138051035Y-82794000D01*
X138037024Y-82851257D01*
X137998159Y-82895575D01*
X137817041Y-83022395D01*
X137812599Y-83025505D01*
X137808775Y-83029328D01*
X137808769Y-83029334D01*
X137649334Y-83188769D01*
X137649328Y-83188775D01*
X137645505Y-83192599D01*
X137642402Y-83197029D01*
X137642399Y-83197034D01*
X137513073Y-83381731D01*
X137513068Y-83381738D01*
X137509965Y-83386171D01*
X137507677Y-83391077D01*
X137507675Y-83391081D01*
X137412386Y-83595427D01*
X137412383Y-83595432D01*
X137410097Y-83600337D01*
X137408698Y-83605557D01*
X137408694Y-83605569D01*
X137350337Y-83823365D01*
X137350335Y-83823371D01*
X137348937Y-83828592D01*
X137348465Y-83833977D01*
X137348465Y-83833982D01*
X137337019Y-83964815D01*
X137328341Y-84064000D01*
X137328813Y-84069395D01*
X137344891Y-84253169D01*
X137348937Y-84299408D01*
X137350336Y-84304630D01*
X137350337Y-84304634D01*
X137408694Y-84522430D01*
X137408697Y-84522438D01*
X137410097Y-84527663D01*
X137412385Y-84532570D01*
X137412386Y-84532572D01*
X137507678Y-84736927D01*
X137507681Y-84736933D01*
X137509965Y-84741830D01*
X137513064Y-84746257D01*
X137513066Y-84746259D01*
X137642399Y-84930966D01*
X137642402Y-84930970D01*
X137645505Y-84935401D01*
X137649336Y-84939232D01*
X137767430Y-85057326D01*
X137798726Y-85110072D01*
X137800915Y-85171365D01*
X137773462Y-85226210D01*
X137723083Y-85261189D01*
X137607702Y-85304223D01*
X137591669Y-85310204D01*
X137584572Y-85315516D01*
X137584568Y-85315519D01*
X137483550Y-85391141D01*
X137483546Y-85391144D01*
X137476454Y-85396454D01*
X137471144Y-85403546D01*
X137471141Y-85403550D01*
X137395519Y-85504568D01*
X137395516Y-85504572D01*
X137390204Y-85511669D01*
X137387104Y-85519978D01*
X137387104Y-85519980D01*
X137342620Y-85639247D01*
X137342619Y-85639250D01*
X137339909Y-85646517D01*
X137339079Y-85654227D01*
X137339079Y-85654232D01*
X137333855Y-85702819D01*
X137333854Y-85702831D01*
X137333500Y-85706127D01*
X137333500Y-85709448D01*
X137333500Y-85709449D01*
X137333500Y-87498560D01*
X137333500Y-87498578D01*
X137333501Y-87501872D01*
X137333853Y-87505150D01*
X137333854Y-87505161D01*
X137339079Y-87553768D01*
X137339080Y-87553773D01*
X137339909Y-87561483D01*
X137342619Y-87568749D01*
X137342620Y-87568753D01*
X137373099Y-87650470D01*
X137390204Y-87696331D01*
X137395518Y-87703430D01*
X137395519Y-87703431D01*
X137450767Y-87777233D01*
X137469154Y-87812385D01*
X137475500Y-87851544D01*
X137475500Y-106219289D01*
X137461489Y-106276546D01*
X137422623Y-106320864D01*
X137309034Y-106400399D01*
X137309029Y-106400402D01*
X137304599Y-106403505D01*
X137300775Y-106407328D01*
X137300769Y-106407334D01*
X137141334Y-106566769D01*
X137141328Y-106566775D01*
X137137505Y-106570599D01*
X137134402Y-106575029D01*
X137134399Y-106575034D01*
X137007575Y-106756159D01*
X136963257Y-106795025D01*
X136906000Y-106809036D01*
X136848743Y-106795025D01*
X136804425Y-106756159D01*
X136698504Y-106604888D01*
X136674495Y-106570599D01*
X136507401Y-106403505D01*
X136502970Y-106400402D01*
X136502966Y-106400399D01*
X136318259Y-106271066D01*
X136318257Y-106271064D01*
X136313830Y-106267965D01*
X136308933Y-106265681D01*
X136308927Y-106265678D01*
X136104572Y-106170386D01*
X136104570Y-106170385D01*
X136099663Y-106168097D01*
X136094438Y-106166697D01*
X136094430Y-106166694D01*
X135876634Y-106108337D01*
X135876630Y-106108336D01*
X135871408Y-106106937D01*
X135866020Y-106106465D01*
X135866017Y-106106465D01*
X135641395Y-106086813D01*
X135636000Y-106086341D01*
X135630605Y-106086813D01*
X135405982Y-106106465D01*
X135405977Y-106106465D01*
X135400592Y-106106937D01*
X135395371Y-106108335D01*
X135395365Y-106108337D01*
X135177569Y-106166694D01*
X135177557Y-106166698D01*
X135172337Y-106168097D01*
X135167432Y-106170383D01*
X135167427Y-106170386D01*
X134963081Y-106265675D01*
X134963077Y-106265677D01*
X134958171Y-106267965D01*
X134953738Y-106271068D01*
X134953731Y-106271073D01*
X134769034Y-106400399D01*
X134769029Y-106400402D01*
X134764599Y-106403505D01*
X134760775Y-106407328D01*
X134760769Y-106407334D01*
X134601334Y-106566769D01*
X134601328Y-106566775D01*
X134597505Y-106570599D01*
X134594402Y-106575029D01*
X134594399Y-106575034D01*
X134467575Y-106756159D01*
X134423257Y-106795025D01*
X134366000Y-106809036D01*
X134308743Y-106795025D01*
X134264425Y-106756159D01*
X134158504Y-106604888D01*
X134134495Y-106570599D01*
X134117819Y-106553923D01*
X134090939Y-106513695D01*
X134081500Y-106466242D01*
X134081500Y-92880518D01*
X134590000Y-92880518D01*
X134590353Y-92887114D01*
X134595573Y-92935667D01*
X134599111Y-92950641D01*
X134643547Y-93069777D01*
X134651962Y-93085189D01*
X134727498Y-93186092D01*
X134739907Y-93198501D01*
X134840810Y-93274037D01*
X134856222Y-93282452D01*
X134975358Y-93326888D01*
X134990332Y-93330426D01*
X135038885Y-93335646D01*
X135045482Y-93336000D01*
X135623674Y-93336000D01*
X135636549Y-93332549D01*
X135640000Y-93319674D01*
X136140000Y-93319674D01*
X136143450Y-93332549D01*
X136156326Y-93336000D01*
X136734518Y-93336000D01*
X136741114Y-93335646D01*
X136789667Y-93330426D01*
X136804641Y-93326888D01*
X136923777Y-93282452D01*
X136939189Y-93274037D01*
X137040092Y-93198501D01*
X137052501Y-93186092D01*
X137128037Y-93085189D01*
X137136452Y-93069777D01*
X137180888Y-92950641D01*
X137184426Y-92935667D01*
X137189646Y-92887114D01*
X137190000Y-92880518D01*
X137190000Y-92722326D01*
X137186549Y-92709450D01*
X137173674Y-92706000D01*
X136156326Y-92706000D01*
X136143450Y-92709450D01*
X136140000Y-92722326D01*
X136140000Y-93319674D01*
X135640000Y-93319674D01*
X135640000Y-92722326D01*
X135636549Y-92709450D01*
X135623674Y-92706000D01*
X134606326Y-92706000D01*
X134593450Y-92709450D01*
X134590000Y-92722326D01*
X134590000Y-92880518D01*
X134081500Y-92880518D01*
X134081500Y-92189674D01*
X134590000Y-92189674D01*
X134593450Y-92202549D01*
X134606326Y-92206000D01*
X135623674Y-92206000D01*
X135636549Y-92202549D01*
X135640000Y-92189674D01*
X136140000Y-92189674D01*
X136143450Y-92202549D01*
X136156326Y-92206000D01*
X137173674Y-92206000D01*
X137186549Y-92202549D01*
X137190000Y-92189674D01*
X137190000Y-92031482D01*
X137189646Y-92024885D01*
X137184426Y-91976332D01*
X137180888Y-91961358D01*
X137136452Y-91842222D01*
X137128037Y-91826810D01*
X137052501Y-91725907D01*
X137040092Y-91713498D01*
X136939189Y-91637962D01*
X136923777Y-91629547D01*
X136804641Y-91585111D01*
X136789667Y-91581573D01*
X136741114Y-91576353D01*
X136734518Y-91576000D01*
X136156326Y-91576000D01*
X136143450Y-91579450D01*
X136140000Y-91592326D01*
X136140000Y-92189674D01*
X135640000Y-92189674D01*
X135640000Y-91592326D01*
X135636549Y-91579450D01*
X135623674Y-91576000D01*
X135045482Y-91576000D01*
X135038885Y-91576353D01*
X134990332Y-91581573D01*
X134975358Y-91585111D01*
X134856222Y-91629547D01*
X134840810Y-91637962D01*
X134739907Y-91713498D01*
X134727498Y-91725907D01*
X134651962Y-91826810D01*
X134643547Y-91842222D01*
X134599111Y-91961358D01*
X134595573Y-91976332D01*
X134590353Y-92024885D01*
X134590000Y-92031482D01*
X134590000Y-92189674D01*
X134081500Y-92189674D01*
X134081500Y-84256921D01*
X134081726Y-84249433D01*
X134084125Y-84209773D01*
X134085358Y-84189394D01*
X134074514Y-84130220D01*
X134073387Y-84122814D01*
X134070030Y-84095169D01*
X134066140Y-84063128D01*
X134062547Y-84053656D01*
X134056522Y-84032042D01*
X134054695Y-84022068D01*
X134030006Y-83967212D01*
X134027142Y-83960297D01*
X134008480Y-83911088D01*
X134008478Y-83911084D01*
X134005818Y-83904070D01*
X134000063Y-83895733D01*
X133989035Y-83876179D01*
X133987958Y-83873785D01*
X133987954Y-83873779D01*
X133984878Y-83866943D01*
X133947785Y-83819597D01*
X133943355Y-83813577D01*
X133909183Y-83764071D01*
X133864170Y-83724193D01*
X133858716Y-83719059D01*
X128241939Y-78102282D01*
X128236822Y-78096847D01*
X128196929Y-78051817D01*
X128147410Y-78017636D01*
X128141404Y-78013216D01*
X128099961Y-77980747D01*
X128099958Y-77980745D01*
X128094057Y-77976122D01*
X128087219Y-77973044D01*
X128087210Y-77973039D01*
X128084810Y-77971959D01*
X128065268Y-77960937D01*
X128063107Y-77959445D01*
X128063102Y-77959442D01*
X128056930Y-77955182D01*
X128000702Y-77933857D01*
X127993784Y-77930991D01*
X127945772Y-77909383D01*
X127945769Y-77909382D01*
X127938932Y-77906305D01*
X127931560Y-77904954D01*
X127931551Y-77904951D01*
X127928952Y-77904475D01*
X127907340Y-77898450D01*
X127904891Y-77897521D01*
X127904885Y-77897519D01*
X127897872Y-77894860D01*
X127890430Y-77893956D01*
X127890425Y-77893955D01*
X127838171Y-77887610D01*
X127830771Y-77886483D01*
X127778987Y-77876994D01*
X127778982Y-77876993D01*
X127771606Y-77875642D01*
X127764126Y-77876094D01*
X127764118Y-77876094D01*
X127711567Y-77879274D01*
X127704079Y-77879500D01*
X126434000Y-77879500D01*
X126372000Y-77862887D01*
X126326613Y-77817500D01*
X126310000Y-77755500D01*
X126310000Y-77576326D01*
X126306549Y-77563450D01*
X126293674Y-77560000D01*
X124934000Y-77560000D01*
X124872000Y-77543387D01*
X124826613Y-77498000D01*
X124810000Y-77436000D01*
X124810000Y-77284500D01*
X124826613Y-77222500D01*
X124872000Y-77177113D01*
X124934000Y-77160500D01*
X133490481Y-77160500D01*
X133537934Y-77169939D01*
G37*
%TD.AperFunction*%
%TA.AperFunction,Conductor*%
G36*
X128083199Y-79924856D02*
G01*
X132644181Y-84485838D01*
X132671061Y-84526066D01*
X132680500Y-84573519D01*
X132680500Y-106066642D01*
X132661081Y-106133267D01*
X132608905Y-106179023D01*
X132522556Y-106219289D01*
X132423081Y-106265675D01*
X132423077Y-106265677D01*
X132418171Y-106267965D01*
X132413738Y-106271068D01*
X132413731Y-106271073D01*
X132229034Y-106400399D01*
X132229029Y-106400402D01*
X132224599Y-106403505D01*
X132220775Y-106407328D01*
X132220769Y-106407334D01*
X132061334Y-106566769D01*
X132061328Y-106566775D01*
X132057505Y-106570599D01*
X132054402Y-106575029D01*
X132054399Y-106575034D01*
X131927575Y-106756159D01*
X131883257Y-106795025D01*
X131826000Y-106809036D01*
X131768743Y-106795025D01*
X131724425Y-106756159D01*
X131618504Y-106604888D01*
X131594495Y-106570599D01*
X131427401Y-106403505D01*
X131422970Y-106400402D01*
X131422966Y-106400399D01*
X131238259Y-106271066D01*
X131238257Y-106271064D01*
X131233830Y-106267965D01*
X131228933Y-106265681D01*
X131228927Y-106265678D01*
X131024572Y-106170386D01*
X131024570Y-106170385D01*
X131019663Y-106168097D01*
X131014438Y-106166697D01*
X131014430Y-106166694D01*
X130796634Y-106108337D01*
X130796630Y-106108336D01*
X130791408Y-106106937D01*
X130786022Y-106106465D01*
X130786018Y-106106465D01*
X130757664Y-106103984D01*
X130716069Y-106092837D01*
X130680794Y-106068137D01*
X126720819Y-102108162D01*
X126693939Y-102067934D01*
X126684500Y-102020481D01*
X126684500Y-101905230D01*
X126698015Y-101848935D01*
X126735615Y-101804912D01*
X126789102Y-101782757D01*
X126846818Y-101787299D01*
X126896180Y-101817548D01*
X126959344Y-101880712D01*
X126965485Y-101884500D01*
X126965488Y-101884502D01*
X126979378Y-101893069D01*
X127108666Y-101972814D01*
X127275203Y-102027999D01*
X127377991Y-102038500D01*
X128128008Y-102038499D01*
X128230797Y-102027999D01*
X128397334Y-101972814D01*
X128546656Y-101880712D01*
X128670712Y-101756656D01*
X128674503Y-101750509D01*
X128678984Y-101744843D01*
X128680438Y-101745992D01*
X128717846Y-101710171D01*
X128778282Y-101694440D01*
X128838720Y-101710160D01*
X128875883Y-101745735D01*
X128877410Y-101744529D01*
X128890794Y-101761455D01*
X129004544Y-101875205D01*
X129015805Y-101884109D01*
X129152733Y-101968567D01*
X129165732Y-101974629D01*
X129318874Y-102025375D01*
X129332041Y-102028194D01*
X129424890Y-102037680D01*
X129431168Y-102038000D01*
X129536674Y-102038000D01*
X129549549Y-102034549D01*
X129553000Y-102021674D01*
X129553000Y-102021673D01*
X130053000Y-102021673D01*
X130056450Y-102034548D01*
X130069326Y-102037999D01*
X130174829Y-102037999D01*
X130181111Y-102037678D01*
X130273959Y-102028194D01*
X130287122Y-102025376D01*
X130440267Y-101974629D01*
X130453266Y-101968567D01*
X130590194Y-101884109D01*
X130601455Y-101875205D01*
X130715205Y-101761455D01*
X130724109Y-101750194D01*
X130808567Y-101613266D01*
X130814629Y-101600267D01*
X130865375Y-101447125D01*
X130868194Y-101433958D01*
X130877680Y-101341109D01*
X130878000Y-101334832D01*
X130878000Y-101104326D01*
X130874549Y-101091450D01*
X130861674Y-101088000D01*
X130069326Y-101088000D01*
X130056450Y-101091450D01*
X130053000Y-101104326D01*
X130053000Y-102021673D01*
X129553000Y-102021673D01*
X129553000Y-100712000D01*
X129569613Y-100650000D01*
X129615000Y-100604613D01*
X129677000Y-100588000D01*
X130861673Y-100588000D01*
X130874548Y-100584549D01*
X130877999Y-100571674D01*
X130877999Y-100341171D01*
X130877678Y-100334888D01*
X130868194Y-100242040D01*
X130865376Y-100228877D01*
X130814629Y-100075732D01*
X130808567Y-100062733D01*
X130724109Y-99925805D01*
X130715205Y-99914544D01*
X130601455Y-99800794D01*
X130590194Y-99791890D01*
X130453266Y-99707432D01*
X130440267Y-99701370D01*
X130393788Y-99685969D01*
X130342104Y-99652831D01*
X130312652Y-99598961D01*
X130312652Y-99537565D01*
X130342104Y-99483695D01*
X130393789Y-99450557D01*
X130447334Y-99432814D01*
X130596656Y-99340712D01*
X130720712Y-99216656D01*
X130812814Y-99067334D01*
X130867999Y-98900797D01*
X130878500Y-98798009D01*
X130878499Y-97797992D01*
X130867999Y-97695203D01*
X130812814Y-97528666D01*
X130742651Y-97414913D01*
X130724502Y-97385488D01*
X130724500Y-97385485D01*
X130720712Y-97379344D01*
X130596656Y-97255288D01*
X130591213Y-97251930D01*
X130556785Y-97209033D01*
X130544393Y-97155000D01*
X130556785Y-97100967D01*
X130591213Y-97058069D01*
X130596656Y-97054712D01*
X130720712Y-96930656D01*
X130812814Y-96781334D01*
X130867999Y-96614797D01*
X130878500Y-96512009D01*
X130878499Y-95511992D01*
X130867999Y-95409203D01*
X130812814Y-95242666D01*
X130752545Y-95144953D01*
X130734084Y-95079568D01*
X130734123Y-95062951D01*
X130745756Y-90076327D01*
X130761550Y-90016061D01*
X130804659Y-89971082D01*
X130850656Y-89942712D01*
X130974712Y-89818656D01*
X131066814Y-89669334D01*
X131121999Y-89502797D01*
X131132500Y-89400009D01*
X131132499Y-88399992D01*
X131121999Y-88297203D01*
X131066814Y-88130666D01*
X130998415Y-88019773D01*
X130978502Y-87987488D01*
X130978500Y-87987485D01*
X130974712Y-87981344D01*
X130850656Y-87857288D01*
X130844515Y-87853500D01*
X130844511Y-87853497D01*
X130707480Y-87768977D01*
X130701334Y-87765186D01*
X130534797Y-87710001D01*
X130528064Y-87709313D01*
X130528059Y-87709312D01*
X130435140Y-87699819D01*
X130435123Y-87699818D01*
X130432009Y-87699500D01*
X130428860Y-87699500D01*
X129635141Y-87699500D01*
X129635121Y-87699500D01*
X129631992Y-87699501D01*
X129628860Y-87699820D01*
X129628858Y-87699821D01*
X129535938Y-87709312D01*
X129535928Y-87709313D01*
X129529203Y-87710001D01*
X129522781Y-87712128D01*
X129522776Y-87712130D01*
X129369521Y-87762914D01*
X129369517Y-87762915D01*
X129362666Y-87765186D01*
X129356522Y-87768975D01*
X129356519Y-87768977D01*
X129219488Y-87853497D01*
X129219480Y-87853503D01*
X129213344Y-87857288D01*
X129208242Y-87862389D01*
X129208238Y-87862393D01*
X129119681Y-87950951D01*
X129064094Y-87983045D01*
X128999906Y-87983045D01*
X128944319Y-87950951D01*
X128855761Y-87862393D01*
X128850656Y-87857288D01*
X128844515Y-87853500D01*
X128844511Y-87853497D01*
X128707480Y-87768977D01*
X128701334Y-87765186D01*
X128534797Y-87710001D01*
X128528064Y-87709313D01*
X128528059Y-87709312D01*
X128435140Y-87699819D01*
X128435123Y-87699818D01*
X128432009Y-87699500D01*
X128428860Y-87699500D01*
X127741563Y-87699500D01*
X127686428Y-87686568D01*
X127642793Y-87650470D01*
X127619759Y-87598734D01*
X127622131Y-87542153D01*
X127649411Y-87492531D01*
X127732533Y-87400216D01*
X127827179Y-87236284D01*
X127885674Y-87056256D01*
X127905460Y-86868000D01*
X127885674Y-86679744D01*
X127827179Y-86499716D01*
X127732533Y-86335784D01*
X127605871Y-86195112D01*
X127600613Y-86191292D01*
X127600611Y-86191290D01*
X127457988Y-86087669D01*
X127457987Y-86087668D01*
X127452730Y-86083849D01*
X127438021Y-86077300D01*
X127285745Y-86009501D01*
X127285740Y-86009499D01*
X127279803Y-86006856D01*
X127273444Y-86005504D01*
X127273440Y-86005503D01*
X127101008Y-85968852D01*
X127101005Y-85968851D01*
X127094646Y-85967500D01*
X126905354Y-85967500D01*
X126898995Y-85968851D01*
X126898991Y-85968852D01*
X126726559Y-86005503D01*
X126726552Y-86005505D01*
X126720197Y-86006856D01*
X126714262Y-86009498D01*
X126714254Y-86009501D01*
X126553207Y-86081205D01*
X126553202Y-86081207D01*
X126547270Y-86083849D01*
X126507382Y-86112828D01*
X126444228Y-86136128D01*
X126378204Y-86122995D01*
X126328772Y-86077300D01*
X126310499Y-86012510D01*
X126310499Y-85705439D01*
X126310499Y-85702128D01*
X126304091Y-85642517D01*
X126291341Y-85608332D01*
X126283523Y-85564998D01*
X126291342Y-85521664D01*
X126293087Y-85516985D01*
X126304091Y-85487483D01*
X126310500Y-85427873D01*
X126310499Y-84432128D01*
X126304091Y-84372517D01*
X126291341Y-84338332D01*
X126283523Y-84294998D01*
X126291342Y-84251664D01*
X126301379Y-84224753D01*
X126304091Y-84217483D01*
X126310500Y-84157873D01*
X126310499Y-83162128D01*
X126304091Y-83102517D01*
X126291340Y-83068330D01*
X126283523Y-83025000D01*
X126291340Y-82981668D01*
X126304091Y-82947483D01*
X126310500Y-82887873D01*
X126310499Y-81893413D01*
X126319465Y-81847119D01*
X126345067Y-81807519D01*
X126383603Y-81780341D01*
X126388406Y-81778178D01*
X126408803Y-81768998D01*
X126415673Y-81766152D01*
X126471930Y-81744818D01*
X126480264Y-81739064D01*
X126499821Y-81728034D01*
X126509057Y-81723878D01*
X126556413Y-81686775D01*
X126562420Y-81682355D01*
X126611929Y-81648183D01*
X126651822Y-81603151D01*
X126656924Y-81597731D01*
X127062975Y-81191681D01*
X127091486Y-81170392D01*
X127124869Y-81158075D01*
X127279803Y-81125144D01*
X127452730Y-81048151D01*
X127605871Y-80936888D01*
X127732533Y-80796216D01*
X127827179Y-80632284D01*
X127885674Y-80452256D01*
X127905460Y-80264000D01*
X127885674Y-80075744D01*
X127877586Y-80050854D01*
X127874504Y-79985487D01*
X127905126Y-79927653D01*
X127960923Y-79893461D01*
X128026355Y-79892433D01*
X128083199Y-79924856D01*
G37*
%TD.AperFunction*%
%TA.AperFunction,Conductor*%
G36*
X125232385Y-102058912D02*
G01*
X125269985Y-102102935D01*
X125283500Y-102159230D01*
X125283500Y-102337079D01*
X125283274Y-102344567D01*
X125280094Y-102397118D01*
X125280094Y-102397126D01*
X125279642Y-102404606D01*
X125280993Y-102411982D01*
X125280994Y-102411987D01*
X125290483Y-102463771D01*
X125291610Y-102471171D01*
X125297955Y-102523425D01*
X125297956Y-102523430D01*
X125298860Y-102530872D01*
X125301519Y-102537885D01*
X125301521Y-102537891D01*
X125302450Y-102540340D01*
X125308475Y-102561952D01*
X125308951Y-102564551D01*
X125308954Y-102564560D01*
X125310305Y-102571932D01*
X125313382Y-102578769D01*
X125313383Y-102578772D01*
X125334991Y-102626784D01*
X125337857Y-102633702D01*
X125359182Y-102689930D01*
X125363442Y-102696102D01*
X125363445Y-102696107D01*
X125364937Y-102698268D01*
X125375959Y-102717810D01*
X125377039Y-102720210D01*
X125377044Y-102720219D01*
X125380122Y-102727057D01*
X125384745Y-102732958D01*
X125384747Y-102732961D01*
X125417216Y-102774404D01*
X125421636Y-102780410D01*
X125455817Y-102829929D01*
X125500847Y-102869822D01*
X125506282Y-102874939D01*
X128589256Y-105957913D01*
X128621350Y-106013500D01*
X128621350Y-106077687D01*
X128589256Y-106133275D01*
X128533669Y-106165369D01*
X128469482Y-106165369D01*
X128256634Y-106108337D01*
X128256630Y-106108336D01*
X128251408Y-106106937D01*
X128246020Y-106106465D01*
X128246017Y-106106465D01*
X128021395Y-106086813D01*
X128016000Y-106086341D01*
X128010605Y-106086813D01*
X127785982Y-106106465D01*
X127785977Y-106106465D01*
X127780592Y-106106937D01*
X127775371Y-106108335D01*
X127775365Y-106108337D01*
X127557569Y-106166694D01*
X127557557Y-106166698D01*
X127552337Y-106168097D01*
X127547432Y-106170383D01*
X127547427Y-106170386D01*
X127343081Y-106265675D01*
X127343077Y-106265677D01*
X127338171Y-106267965D01*
X127333738Y-106271068D01*
X127333731Y-106271073D01*
X127149034Y-106400399D01*
X127149029Y-106400402D01*
X127144599Y-106403505D01*
X127140775Y-106407328D01*
X127140769Y-106407334D01*
X126981334Y-106566769D01*
X126981328Y-106566775D01*
X126977505Y-106570599D01*
X126974402Y-106575029D01*
X126974399Y-106575034D01*
X126847575Y-106756159D01*
X126803257Y-106795025D01*
X126746000Y-106809036D01*
X126688743Y-106795025D01*
X126644425Y-106756159D01*
X126538504Y-106604888D01*
X126514495Y-106570599D01*
X126347401Y-106403505D01*
X126342970Y-106400402D01*
X126342966Y-106400399D01*
X126158259Y-106271066D01*
X126158257Y-106271064D01*
X126153830Y-106267965D01*
X126148933Y-106265681D01*
X126148927Y-106265678D01*
X125944572Y-106170386D01*
X125944570Y-106170385D01*
X125939663Y-106168097D01*
X125934438Y-106166697D01*
X125934430Y-106166694D01*
X125716634Y-106108337D01*
X125716630Y-106108336D01*
X125711408Y-106106937D01*
X125706020Y-106106465D01*
X125706017Y-106106465D01*
X125481395Y-106086813D01*
X125476000Y-106086341D01*
X125470605Y-106086813D01*
X125245985Y-106106465D01*
X125245983Y-106106465D01*
X125240592Y-106106937D01*
X125235367Y-106108336D01*
X125235361Y-106108338D01*
X125223778Y-106111442D01*
X125159591Y-106111442D01*
X125104005Y-106079348D01*
X124322837Y-105298180D01*
X124292587Y-105248817D01*
X124288045Y-105191101D01*
X124310200Y-105137614D01*
X124354223Y-105100014D01*
X124410518Y-105086499D01*
X124586859Y-105086499D01*
X124590008Y-105086499D01*
X124692797Y-105075999D01*
X124859334Y-105020814D01*
X125008656Y-104928712D01*
X125132712Y-104804656D01*
X125224814Y-104655334D01*
X125279999Y-104488797D01*
X125290500Y-104386009D01*
X125290499Y-103385992D01*
X125279999Y-103283203D01*
X125224814Y-103116666D01*
X125132712Y-102967344D01*
X125008656Y-102843288D01*
X125002507Y-102839495D01*
X125002503Y-102839492D01*
X124974404Y-102822161D01*
X124931223Y-102777054D01*
X124915500Y-102716622D01*
X124915500Y-102261378D01*
X124931223Y-102200946D01*
X124974404Y-102155839D01*
X125002503Y-102138507D01*
X125002501Y-102138507D01*
X125008656Y-102134712D01*
X125071819Y-102071549D01*
X125121182Y-102041299D01*
X125178898Y-102036757D01*
X125232385Y-102058912D01*
G37*
%TD.AperFunction*%
%TA.AperFunction,Conductor*%
G36*
X123250435Y-101964641D02*
G01*
X123287451Y-102000079D01*
X123289016Y-101998843D01*
X123293498Y-102004511D01*
X123297288Y-102010656D01*
X123421344Y-102134712D01*
X123427493Y-102138505D01*
X123427496Y-102138507D01*
X123455596Y-102155839D01*
X123498777Y-102200946D01*
X123514500Y-102261378D01*
X123514500Y-102685782D01*
X123498777Y-102746214D01*
X123455596Y-102791321D01*
X123377496Y-102839492D01*
X123377487Y-102839498D01*
X123371344Y-102843288D01*
X123366237Y-102848394D01*
X123366237Y-102848395D01*
X123277327Y-102937305D01*
X123221739Y-102969398D01*
X123157552Y-102969398D01*
X123101965Y-102937304D01*
X123013455Y-102848794D01*
X123002194Y-102839890D01*
X122865266Y-102755432D01*
X122852267Y-102749370D01*
X122699125Y-102698624D01*
X122685958Y-102695805D01*
X122593109Y-102686319D01*
X122586832Y-102686000D01*
X122456326Y-102686000D01*
X122443450Y-102689450D01*
X122440000Y-102702326D01*
X122440000Y-104012000D01*
X122423387Y-104074000D01*
X122378000Y-104119387D01*
X122316000Y-104136000D01*
X122064000Y-104136000D01*
X122002000Y-104119387D01*
X121956613Y-104074000D01*
X121940000Y-104012000D01*
X121940000Y-102702327D01*
X121936549Y-102689451D01*
X121923674Y-102686001D01*
X121793171Y-102686001D01*
X121786888Y-102686321D01*
X121694040Y-102695805D01*
X121680877Y-102698623D01*
X121527732Y-102749370D01*
X121514733Y-102755432D01*
X121377805Y-102839890D01*
X121366544Y-102848794D01*
X121308181Y-102907158D01*
X121258818Y-102937408D01*
X121201102Y-102941950D01*
X121147615Y-102919795D01*
X121110015Y-102875772D01*
X121096500Y-102819477D01*
X121096500Y-102159230D01*
X121110015Y-102102935D01*
X121147615Y-102058912D01*
X121201102Y-102036757D01*
X121258818Y-102041299D01*
X121308181Y-102071549D01*
X121371344Y-102134712D01*
X121377485Y-102138500D01*
X121377488Y-102138502D01*
X121411094Y-102159230D01*
X121520666Y-102226814D01*
X121687203Y-102281999D01*
X121789991Y-102292500D01*
X122540008Y-102292499D01*
X122642797Y-102281999D01*
X122809334Y-102226814D01*
X122958656Y-102134712D01*
X123082712Y-102010656D01*
X123086503Y-102004509D01*
X123090984Y-101998843D01*
X123092548Y-102000079D01*
X123129565Y-101964641D01*
X123190000Y-101948916D01*
X123250435Y-101964641D01*
G37*
%TD.AperFunction*%
%TA.AperFunction,Conductor*%
G36*
X104509777Y-80567426D02*
G01*
X104555244Y-80613584D01*
X104571224Y-80676371D01*
X104553935Y-80736628D01*
X104552122Y-80738943D01*
X104549048Y-80745772D01*
X104549043Y-80745781D01*
X104547962Y-80748185D01*
X104536940Y-80767727D01*
X104535441Y-80769898D01*
X104535437Y-80769904D01*
X104531182Y-80776070D01*
X104528526Y-80783070D01*
X104528522Y-80783080D01*
X104509853Y-80832305D01*
X104506989Y-80839219D01*
X104485382Y-80887229D01*
X104485379Y-80887235D01*
X104482305Y-80894068D01*
X104480953Y-80901439D01*
X104480951Y-80901449D01*
X104480474Y-80904053D01*
X104474456Y-80925643D01*
X104473519Y-80928114D01*
X104473517Y-80928119D01*
X104470860Y-80935128D01*
X104469956Y-80942565D01*
X104469956Y-80942569D01*
X104463610Y-80994827D01*
X104462483Y-81002226D01*
X104452994Y-81054010D01*
X104452993Y-81054018D01*
X104451642Y-81061394D01*
X104452094Y-81068873D01*
X104452094Y-81068881D01*
X104455274Y-81121433D01*
X104455500Y-81128921D01*
X104455500Y-81799501D01*
X104438887Y-81861501D01*
X104393500Y-81906888D01*
X104331500Y-81923501D01*
X104308128Y-81923501D01*
X104304850Y-81923853D01*
X104304838Y-81923854D01*
X104256231Y-81929079D01*
X104256225Y-81929080D01*
X104248517Y-81929909D01*
X104241252Y-81932618D01*
X104241246Y-81932620D01*
X104121980Y-81977104D01*
X104121978Y-81977104D01*
X104113669Y-81980204D01*
X104106572Y-81985516D01*
X104106568Y-81985519D01*
X104005550Y-82061141D01*
X104005546Y-82061144D01*
X103998454Y-82066454D01*
X103993144Y-82073546D01*
X103993141Y-82073550D01*
X103917519Y-82174568D01*
X103917516Y-82174572D01*
X103912204Y-82181669D01*
X103909104Y-82189978D01*
X103909104Y-82189980D01*
X103864620Y-82309247D01*
X103864619Y-82309250D01*
X103861909Y-82316517D01*
X103861079Y-82324227D01*
X103861079Y-82324232D01*
X103855855Y-82372819D01*
X103855854Y-82372831D01*
X103855500Y-82376127D01*
X103855500Y-82379448D01*
X103855500Y-82379449D01*
X103855500Y-83228560D01*
X103855500Y-83228578D01*
X103855501Y-83231872D01*
X103855853Y-83235150D01*
X103855854Y-83235161D01*
X103861079Y-83283768D01*
X103861080Y-83283773D01*
X103861909Y-83291483D01*
X103864619Y-83298749D01*
X103864620Y-83298753D01*
X103895569Y-83381731D01*
X103912204Y-83426331D01*
X103998454Y-83541546D01*
X104113669Y-83627796D01*
X104248517Y-83678091D01*
X104308127Y-83684500D01*
X106003872Y-83684499D01*
X106063483Y-83678091D01*
X106142170Y-83648742D01*
X106200953Y-83641892D01*
X106256220Y-83663069D01*
X106295375Y-83707450D01*
X106309500Y-83764925D01*
X106309500Y-84154560D01*
X106309500Y-84154578D01*
X106309501Y-84157872D01*
X106309853Y-84161150D01*
X106309854Y-84161161D01*
X106315080Y-84209773D01*
X106315909Y-84217483D01*
X106328659Y-84251668D01*
X106336476Y-84294998D01*
X106328660Y-84338327D01*
X106319027Y-84364157D01*
X106315909Y-84372517D01*
X106315079Y-84380231D01*
X106315079Y-84380234D01*
X106309855Y-84428819D01*
X106309854Y-84428831D01*
X106309500Y-84432127D01*
X106309500Y-84435448D01*
X106309500Y-84435449D01*
X106309500Y-85424560D01*
X106309500Y-85424578D01*
X106309501Y-85427872D01*
X106309853Y-85431150D01*
X106309854Y-85431161D01*
X106315080Y-85479773D01*
X106315909Y-85487483D01*
X106318618Y-85494747D01*
X106318619Y-85494750D01*
X106328658Y-85521666D01*
X106336476Y-85564997D01*
X106328659Y-85608327D01*
X106318619Y-85635246D01*
X106318615Y-85635259D01*
X106315909Y-85642517D01*
X106315080Y-85650218D01*
X106315079Y-85650227D01*
X106309855Y-85698819D01*
X106309854Y-85698831D01*
X106309500Y-85702127D01*
X106309500Y-85705448D01*
X106309500Y-85705449D01*
X106309500Y-86694560D01*
X106309500Y-86694578D01*
X106309501Y-86697872D01*
X106309853Y-86701150D01*
X106309854Y-86701161D01*
X106315080Y-86749769D01*
X106315909Y-86757483D01*
X106318618Y-86764747D01*
X106318619Y-86764750D01*
X106328658Y-86791666D01*
X106336476Y-86834997D01*
X106328659Y-86878327D01*
X106318619Y-86905246D01*
X106318615Y-86905259D01*
X106315909Y-86912517D01*
X106315080Y-86920218D01*
X106315079Y-86920227D01*
X106309855Y-86968819D01*
X106309854Y-86968831D01*
X106309500Y-86972127D01*
X106309500Y-86975448D01*
X106309500Y-86975449D01*
X106309500Y-87964560D01*
X106309500Y-87964578D01*
X106309501Y-87967872D01*
X106309853Y-87971154D01*
X106309855Y-87971176D01*
X106311445Y-87985971D01*
X106305486Y-88039336D01*
X106277524Y-88085178D01*
X106244667Y-88107015D01*
X106245727Y-88109035D01*
X106239081Y-88112522D01*
X106232070Y-88115182D01*
X106225899Y-88119441D01*
X106225894Y-88119444D01*
X106223722Y-88120944D01*
X106204187Y-88131962D01*
X106201784Y-88133043D01*
X106201777Y-88133047D01*
X106194943Y-88136123D01*
X106189043Y-88140745D01*
X106189040Y-88140747D01*
X106147595Y-88173216D01*
X106141566Y-88177651D01*
X106098249Y-88207551D01*
X106098241Y-88207557D01*
X106092071Y-88211817D01*
X106087101Y-88217426D01*
X106087094Y-88217433D01*
X106052184Y-88256838D01*
X106047051Y-88262290D01*
X104853681Y-89455661D01*
X104804318Y-89485911D01*
X104746602Y-89490453D01*
X104693115Y-89468298D01*
X104655515Y-89424275D01*
X104642000Y-89367980D01*
X104642000Y-88912326D01*
X104638549Y-88899450D01*
X104625674Y-88896000D01*
X103658326Y-88896000D01*
X103645450Y-88899450D01*
X103642000Y-88912326D01*
X103642000Y-90129674D01*
X103645450Y-90142549D01*
X103658326Y-90146000D01*
X103863980Y-90146000D01*
X103920275Y-90159515D01*
X103964298Y-90197115D01*
X103986453Y-90250602D01*
X103981911Y-90308318D01*
X103951661Y-90357681D01*
X103154290Y-91155051D01*
X103148838Y-91160184D01*
X103109431Y-91195096D01*
X103109425Y-91195102D01*
X103103817Y-91200071D01*
X103099560Y-91206236D01*
X103099551Y-91206248D01*
X103069649Y-91249568D01*
X103065213Y-91255597D01*
X103032749Y-91297035D01*
X103032743Y-91297043D01*
X103028122Y-91302943D01*
X103025044Y-91309780D01*
X103025043Y-91309783D01*
X103023962Y-91312185D01*
X103012940Y-91331727D01*
X103011441Y-91333898D01*
X103011437Y-91333904D01*
X103007182Y-91340070D01*
X103004526Y-91347070D01*
X103004522Y-91347080D01*
X102985853Y-91396305D01*
X102982989Y-91403219D01*
X102961382Y-91451229D01*
X102961379Y-91451235D01*
X102958305Y-91458068D01*
X102956953Y-91465439D01*
X102956951Y-91465449D01*
X102956474Y-91468053D01*
X102950456Y-91489643D01*
X102949519Y-91492114D01*
X102949517Y-91492119D01*
X102946860Y-91499128D01*
X102945956Y-91506565D01*
X102945956Y-91506569D01*
X102939610Y-91558827D01*
X102938483Y-91566226D01*
X102928994Y-91618010D01*
X102928993Y-91618018D01*
X102927642Y-91625394D01*
X102928094Y-91632873D01*
X102928094Y-91632881D01*
X102931274Y-91685433D01*
X102931500Y-91692921D01*
X102931500Y-93321500D01*
X102914887Y-93383500D01*
X102869500Y-93428887D01*
X102807500Y-93445500D01*
X101699500Y-93445500D01*
X101637500Y-93428887D01*
X101592113Y-93383500D01*
X101575500Y-93321500D01*
X101575500Y-90270499D01*
X101592113Y-90208499D01*
X101637500Y-90163112D01*
X101699500Y-90146499D01*
X101886561Y-90146499D01*
X101889872Y-90146499D01*
X101949483Y-90140091D01*
X102084331Y-90089796D01*
X102168105Y-90027082D01*
X102216057Y-90005183D01*
X102268774Y-90005183D01*
X102316727Y-90027082D01*
X102392810Y-90084037D01*
X102408222Y-90092452D01*
X102527358Y-90136888D01*
X102542332Y-90140426D01*
X102590885Y-90145646D01*
X102597482Y-90146000D01*
X103125674Y-90146000D01*
X103138549Y-90142549D01*
X103142000Y-90129674D01*
X103142000Y-88379674D01*
X103642000Y-88379674D01*
X103645450Y-88392549D01*
X103658326Y-88396000D01*
X104625674Y-88396000D01*
X104638549Y-88392549D01*
X104642000Y-88379674D01*
X104642000Y-87601482D01*
X104641646Y-87594885D01*
X104636426Y-87546332D01*
X104632888Y-87531358D01*
X104588452Y-87412222D01*
X104580037Y-87396810D01*
X104504501Y-87295907D01*
X104492092Y-87283498D01*
X104391189Y-87207962D01*
X104375777Y-87199547D01*
X104256641Y-87155111D01*
X104241667Y-87151573D01*
X104193114Y-87146353D01*
X104186518Y-87146000D01*
X103658326Y-87146000D01*
X103645450Y-87149450D01*
X103642000Y-87162326D01*
X103642000Y-88379674D01*
X103142000Y-88379674D01*
X103142000Y-87162326D01*
X103138549Y-87149450D01*
X103125674Y-87146000D01*
X102678500Y-87146000D01*
X102616500Y-87129387D01*
X102571113Y-87084000D01*
X102554500Y-87022000D01*
X102554500Y-84098921D01*
X102554726Y-84091433D01*
X102556059Y-84069395D01*
X102558358Y-84031394D01*
X102547514Y-83972221D01*
X102546387Y-83964815D01*
X102540896Y-83919594D01*
X102539140Y-83905128D01*
X102535547Y-83895656D01*
X102529522Y-83874041D01*
X102527695Y-83864069D01*
X102503009Y-83809220D01*
X102500142Y-83802298D01*
X102492829Y-83783014D01*
X102478818Y-83746070D01*
X102473059Y-83737727D01*
X102462033Y-83718177D01*
X102460956Y-83715784D01*
X102457878Y-83708944D01*
X102435632Y-83680549D01*
X102420791Y-83661605D01*
X102416353Y-83655574D01*
X102386446Y-83612247D01*
X102382183Y-83606071D01*
X102376568Y-83601097D01*
X102376565Y-83601093D01*
X102337170Y-83566193D01*
X102331716Y-83561059D01*
X99913878Y-81143221D01*
X99881419Y-81086238D01*
X99882564Y-81020668D01*
X99916992Y-80964852D01*
X99975073Y-80934402D01*
X100040562Y-80937833D01*
X100065203Y-80945999D01*
X100167991Y-80956500D01*
X100968008Y-80956499D01*
X101070797Y-80945999D01*
X101237334Y-80890814D01*
X101386656Y-80798712D01*
X101510712Y-80674656D01*
X101536847Y-80632284D01*
X101550960Y-80609404D01*
X101596067Y-80566223D01*
X101656499Y-80550500D01*
X104447238Y-80550500D01*
X104509777Y-80567426D01*
G37*
%TD.AperFunction*%
%TA.AperFunction,Conductor*%
G36*
X123373727Y-75772844D02*
G01*
X123417300Y-75808714D01*
X123440461Y-75860181D01*
X123438413Y-75916582D01*
X123411580Y-75966233D01*
X123402180Y-75976842D01*
X123397051Y-75982290D01*
X121536162Y-77843181D01*
X121495934Y-77870061D01*
X121448481Y-77879500D01*
X119846855Y-77879500D01*
X119796419Y-77868780D01*
X119754705Y-77838472D01*
X119753173Y-77836771D01*
X119731871Y-77813112D01*
X119726613Y-77809292D01*
X119726611Y-77809290D01*
X119583988Y-77705669D01*
X119583987Y-77705668D01*
X119578730Y-77701849D01*
X119572792Y-77699205D01*
X119411745Y-77627501D01*
X119411740Y-77627499D01*
X119405803Y-77624856D01*
X119399444Y-77623504D01*
X119399440Y-77623503D01*
X119227008Y-77586852D01*
X119227005Y-77586851D01*
X119220646Y-77585500D01*
X119031354Y-77585500D01*
X119024995Y-77586851D01*
X119024991Y-77586852D01*
X118852559Y-77623503D01*
X118852552Y-77623505D01*
X118846197Y-77624856D01*
X118840262Y-77627498D01*
X118840254Y-77627501D01*
X118679207Y-77699205D01*
X118679202Y-77699207D01*
X118673270Y-77701849D01*
X118668016Y-77705665D01*
X118668011Y-77705669D01*
X118525388Y-77809290D01*
X118525381Y-77809295D01*
X118520129Y-77813112D01*
X118515784Y-77817937D01*
X118515779Y-77817942D01*
X118497295Y-77838472D01*
X118455581Y-77868780D01*
X118405145Y-77879500D01*
X117225851Y-77879500D01*
X117174963Y-77868577D01*
X117172972Y-77867681D01*
X117159718Y-77860725D01*
X117129606Y-77842522D01*
X117122449Y-77840291D01*
X117122445Y-77840290D01*
X117096013Y-77832053D01*
X117082015Y-77826744D01*
X117056770Y-77815382D01*
X117056765Y-77815380D01*
X117049932Y-77812305D01*
X117042563Y-77810954D01*
X117042552Y-77810951D01*
X117015307Y-77805958D01*
X117000776Y-77802377D01*
X116974357Y-77794145D01*
X116974354Y-77794144D01*
X116967196Y-77791914D01*
X116959518Y-77791449D01*
X116932078Y-77789789D01*
X116917219Y-77787984D01*
X116889988Y-77782994D01*
X116889982Y-77782993D01*
X116882606Y-77781642D01*
X116875123Y-77782094D01*
X116875116Y-77782094D01*
X116847476Y-77783766D01*
X116832508Y-77783766D01*
X116804884Y-77782095D01*
X116804876Y-77782095D01*
X116797394Y-77781643D01*
X116762782Y-77787984D01*
X116747933Y-77789788D01*
X116720289Y-77791460D01*
X116720280Y-77791461D01*
X116712804Y-77791914D01*
X116705647Y-77794143D01*
X116705642Y-77794145D01*
X116679219Y-77802379D01*
X116664681Y-77805962D01*
X116637446Y-77810952D01*
X116637438Y-77810954D01*
X116630068Y-77812305D01*
X116623231Y-77815382D01*
X116623228Y-77815383D01*
X116597971Y-77826750D01*
X116583979Y-77832056D01*
X116550394Y-77842522D01*
X116543979Y-77846399D01*
X116543974Y-77846402D01*
X116520280Y-77860725D01*
X116507082Y-77867656D01*
X116506202Y-77868052D01*
X116505093Y-77868551D01*
X116454149Y-77879500D01*
X108934000Y-77879500D01*
X108872000Y-77862887D01*
X108826613Y-77817500D01*
X108810000Y-77755500D01*
X108810000Y-77576326D01*
X108806549Y-77563450D01*
X108793674Y-77560000D01*
X106310000Y-77560000D01*
X106310000Y-77555898D01*
X106277366Y-77555833D01*
X106221938Y-77523782D01*
X106053761Y-77355605D01*
X105793818Y-77095661D01*
X105766938Y-77055433D01*
X105764599Y-77043674D01*
X106310000Y-77043674D01*
X106313450Y-77056549D01*
X106326326Y-77060000D01*
X107293674Y-77060000D01*
X107306549Y-77056549D01*
X107310000Y-77043674D01*
X107810000Y-77043674D01*
X107813450Y-77056549D01*
X107826326Y-77060000D01*
X108793674Y-77060000D01*
X108806549Y-77056549D01*
X108810000Y-77043674D01*
X108810000Y-76815482D01*
X108809646Y-76808885D01*
X108804426Y-76760332D01*
X108800888Y-76745358D01*
X108756452Y-76626222D01*
X108748037Y-76610810D01*
X108672501Y-76509907D01*
X108660092Y-76497498D01*
X108559189Y-76421962D01*
X108543777Y-76413547D01*
X108424641Y-76369111D01*
X108409667Y-76365573D01*
X108361114Y-76360353D01*
X108354518Y-76360000D01*
X107826326Y-76360000D01*
X107813450Y-76363450D01*
X107810000Y-76376326D01*
X107810000Y-77043674D01*
X107310000Y-77043674D01*
X107310000Y-76376326D01*
X107306549Y-76363450D01*
X107293674Y-76360000D01*
X106765482Y-76360000D01*
X106758885Y-76360353D01*
X106710332Y-76365573D01*
X106695358Y-76369111D01*
X106576222Y-76413547D01*
X106560810Y-76421962D01*
X106459907Y-76497498D01*
X106447498Y-76509907D01*
X106371962Y-76610810D01*
X106363547Y-76626222D01*
X106319111Y-76745358D01*
X106315573Y-76760332D01*
X106310353Y-76808885D01*
X106310000Y-76815482D01*
X106310000Y-77043674D01*
X105764599Y-77043674D01*
X105757499Y-77007980D01*
X105757499Y-76440141D01*
X105757499Y-76436992D01*
X105746999Y-76334203D01*
X105691814Y-76167666D01*
X105607192Y-76030471D01*
X105603502Y-76024488D01*
X105603500Y-76024485D01*
X105599712Y-76018344D01*
X105553049Y-75971681D01*
X105522799Y-75922318D01*
X105518257Y-75864602D01*
X105540412Y-75811115D01*
X105584435Y-75773515D01*
X105640730Y-75760000D01*
X123318770Y-75760000D01*
X123373727Y-75772844D01*
G37*
%TD.AperFunction*%
%TD*%
M02*
