%TF.GenerationSoftware,KiCad,Pcbnew,(7.0.0)*%
%TF.CreationDate,2023-04-20T18:18:11+02:00*%
%TF.ProjectId,PCB_uitlezen_gsm,5043425f-7569-4746-9c65-7a656e5f6773,rev?*%
%TF.SameCoordinates,Original*%
%TF.FileFunction,Copper,L2,Bot*%
%TF.FilePolarity,Positive*%
%FSLAX46Y46*%
G04 Gerber Fmt 4.6, Leading zero omitted, Abs format (unit mm)*
G04 Created by KiCad (PCBNEW (7.0.0)) date 2023-04-20 18:18:11*
%MOMM*%
%LPD*%
G01*
G04 APERTURE LIST*
%TA.AperFunction,ComponentPad*%
%ADD10R,1.700000X1.700000*%
%TD*%
%TA.AperFunction,ComponentPad*%
%ADD11O,1.700000X1.700000*%
%TD*%
%TA.AperFunction,ComponentPad*%
%ADD12C,2.032000*%
%TD*%
%TA.AperFunction,ComponentPad*%
%ADD13R,2.000000X4.600000*%
%TD*%
%TA.AperFunction,ComponentPad*%
%ADD14O,2.000000X4.200000*%
%TD*%
%TA.AperFunction,ComponentPad*%
%ADD15O,4.200000X2.000000*%
%TD*%
%TA.AperFunction,HeatsinkPad*%
%ADD16C,0.600000*%
%TD*%
%TA.AperFunction,ViaPad*%
%ADD17C,0.800000*%
%TD*%
%TA.AperFunction,Conductor*%
%ADD18C,0.400000*%
%TD*%
G04 APERTURE END LIST*
D10*
%TO.P,SCHERM3,1,Pin_1*%
%TO.N,unconnected-(SCHERM3-Pin_1-Pad1)*%
X115823999Y-111759999D03*
D11*
%TO.P,SCHERM3,2,Pin_2*%
%TO.N,+3.3V*%
X113283999Y-111759999D03*
%TO.P,SCHERM3,3,Pin_3*%
%TO.N,GPIO18*%
X110743999Y-111759999D03*
%TO.P,SCHERM3,4,Pin_4*%
%TO.N,GPIO23*%
X108203999Y-111759999D03*
%TO.P,SCHERM3,5,Pin_5*%
%TO.N,GPIO25*%
X105663999Y-111759999D03*
%TO.P,SCHERM3,6,Pin_6*%
%TO.N,GPIO26*%
X103123999Y-111759999D03*
%TO.P,SCHERM3,7,Pin_7*%
%TO.N,GPIO27*%
X100583999Y-111759999D03*
%TO.P,SCHERM3,8,Pin_8*%
%TO.N,GND*%
X98043999Y-111759999D03*
%TO.P,SCHERM3,9,Pin_9*%
%TO.N,+3.3V*%
X95503999Y-111759999D03*
%TD*%
D12*
%TO.P,U2,1,IN-*%
%TO.N,Net-(J2-Pad2)*%
X81407000Y-97250000D03*
%TO.P,U2,2,IN-*%
X83947000Y-97250000D03*
%TO.P,U2,3,IN+*%
%TO.N,Net-(J2-Pad1)*%
X92075000Y-97250000D03*
%TO.P,U2,4,IN+*%
X94615000Y-97250000D03*
%TO.P,U2,5,OUT+*%
%TO.N,VDD*%
X94615000Y-78708000D03*
%TO.P,U2,6,OUT+*%
X92075000Y-78708000D03*
%TO.P,U2,7,OUT-*%
%TO.N,GND*%
X83947000Y-78708000D03*
%TO.P,U2,8,OUT-*%
X81407000Y-78708000D03*
%TD*%
D10*
%TO.P,SCHERM1,1,Pin_1*%
%TO.N,unconnected-(SCHERM1-Pin_1-Pad1)*%
X140715999Y-107441999D03*
D11*
%TO.P,SCHERM1,2,Pin_2*%
%TO.N,+3.3V*%
X138175999Y-107441999D03*
%TO.P,SCHERM1,3,Pin_3*%
%TO.N,GPIO18*%
X135635999Y-107441999D03*
%TO.P,SCHERM1,4,Pin_4*%
%TO.N,GPIO23*%
X133095999Y-107441999D03*
%TO.P,SCHERM1,5,Pin_5*%
%TO.N,GPIO2*%
X130555999Y-107441999D03*
%TO.P,SCHERM1,6,Pin_6*%
%TO.N,GPIO4*%
X128015999Y-107441999D03*
%TO.P,SCHERM1,7,Pin_7*%
%TO.N,GPIO15*%
X125475999Y-107441999D03*
%TO.P,SCHERM1,8,Pin_8*%
%TO.N,GND*%
X122935999Y-107441999D03*
%TO.P,SCHERM1,9,Pin_9*%
%TO.N,+3.3V*%
X120395999Y-107441999D03*
%TD*%
D10*
%TO.P,J1,1,Pin_1*%
%TO.N,+3.3V*%
X138683999Y-86603999D03*
D11*
%TO.P,J1,2,Pin_2*%
%TO.N,RX0*%
X138683999Y-84063999D03*
%TO.P,J1,3,Pin_3*%
%TO.N,TX0*%
X138683999Y-81523999D03*
%TO.P,J1,4,Pin_4*%
%TO.N,GND*%
X138683999Y-78983999D03*
%TD*%
D13*
%TO.P,J2,1*%
%TO.N,Net-(J2-Pad1)*%
X91947999Y-104393999D03*
D14*
%TO.P,J2,2*%
%TO.N,Net-(J2-Pad2)*%
X85647999Y-104393999D03*
D15*
%TO.P,J2,3*%
%TO.N,N/C*%
X89047999Y-109193999D03*
%TD*%
D16*
%TO.P,U1,39,GND*%
%TO.N,GND*%
X114105000Y-83887500D03*
X114105000Y-85412500D03*
X114867500Y-83125000D03*
X114867500Y-84650000D03*
X114867500Y-86175000D03*
X115630000Y-83887500D03*
X115630000Y-85412500D03*
X116392500Y-83125000D03*
X116392500Y-84650000D03*
X116392500Y-86175000D03*
X117155000Y-83887500D03*
X117155000Y-85412500D03*
%TD*%
D10*
%TO.P,SCHERM2,1,Pin_1*%
%TO.N,unconnected-(SCHERM2-Pin_1-Pad1)*%
X140969999Y-111759999D03*
D11*
%TO.P,SCHERM2,2,Pin_2*%
%TO.N,+3.3V*%
X138429999Y-111759999D03*
%TO.P,SCHERM2,3,Pin_3*%
%TO.N,GPIO18*%
X135889999Y-111759999D03*
%TO.P,SCHERM2,4,Pin_4*%
%TO.N,GPIO23*%
X133349999Y-111759999D03*
%TO.P,SCHERM2,5,Pin_5*%
%TO.N,GPIO14*%
X130809999Y-111759999D03*
%TO.P,SCHERM2,6,Pin_6*%
%TO.N,GPIO12*%
X128269999Y-111759999D03*
%TO.P,SCHERM2,7,Pin_7*%
%TO.N,GPIO13*%
X125729999Y-111759999D03*
%TO.P,SCHERM2,8,Pin_8*%
%TO.N,GND*%
X123189999Y-111759999D03*
%TO.P,SCHERM2,9,Pin_9*%
%TO.N,+3.3V*%
X120649999Y-111759999D03*
%TD*%
D17*
%TO.N,+3.3V*%
X117856000Y-99060000D03*
X130048000Y-88900000D03*
X119126000Y-78486000D03*
%TO.N,GND*%
X124206000Y-98552000D03*
X110617000Y-94742000D03*
X115316000Y-76708000D03*
X143764000Y-96774000D03*
X131826000Y-100838000D03*
X122936000Y-108966000D03*
X98044000Y-108712000D03*
X117348000Y-91313000D03*
X104140000Y-85598000D03*
X81026000Y-92964000D03*
X82296000Y-104648000D03*
X122428000Y-81788000D03*
X130302000Y-78232000D03*
X122174000Y-103886000D03*
X102616000Y-76962000D03*
X111760000Y-106680000D03*
X126746000Y-104648000D03*
X81280000Y-85090000D03*
X98806000Y-99822000D03*
X91440000Y-91948000D03*
X85598000Y-72898000D03*
X110998000Y-84201000D03*
%TO.N,RX0*%
X124968000Y-82296000D03*
%TO.N,TX0*%
X135382000Y-80010000D03*
X127000000Y-80264000D03*
%TO.N,GPIO18*%
X127000000Y-86868000D03*
%TO.N,GPIO4*%
X125222000Y-92710000D03*
%TO.N,GPIO12*%
X110236000Y-102870000D03*
%TO.N,GPIO13*%
X111760000Y-97028000D03*
%TO.N,GPIO26*%
X105410000Y-91440000D03*
%TO.N,GPIO27*%
X105410000Y-92964000D03*
%TD*%
D18*
%TO.N,+3.3V*%
X117856000Y-99060000D02*
X119126000Y-97790000D01*
X132344000Y-86604000D02*
X138684000Y-86604000D01*
X119126000Y-81026000D02*
X119126000Y-78486000D01*
X119126000Y-97790000D02*
X119126000Y-81026000D01*
X130048000Y-88900000D02*
X132344000Y-86604000D01*
%TO.N,RX0*%
X124968000Y-82296000D02*
X125190000Y-82518000D01*
X137138000Y-82518000D02*
X138684000Y-84064000D01*
X125190000Y-82518000D02*
X137138000Y-82518000D01*
%TO.N,TX0*%
X127000000Y-80264000D02*
X135128000Y-80264000D01*
X135128000Y-80264000D02*
X135382000Y-80010000D01*
%TO.N,GPIO18*%
X133858000Y-113792000D02*
X112776000Y-113792000D01*
X135381000Y-99059000D02*
X134366000Y-98044000D01*
X135890000Y-111760000D02*
X133858000Y-113792000D01*
X127000000Y-86868000D02*
X127000000Y-90678000D01*
X135381000Y-107696000D02*
X135381000Y-99059000D01*
X112776000Y-113792000D02*
X110744000Y-111760000D01*
X127000000Y-90678000D02*
X134366000Y-98044000D01*
%TO.N,GPIO4*%
X125222000Y-92710000D02*
X126619000Y-94107000D01*
X128016000Y-107442000D02*
X128016000Y-95504000D01*
X128016000Y-95504000D02*
X126619000Y-94107000D01*
%TO.N,GPIO12*%
X120132233Y-113010000D02*
X127020000Y-113010000D01*
X127020000Y-113010000D02*
X128270000Y-111760000D01*
X117729000Y-110363000D02*
X117729000Y-110606767D01*
X117729000Y-110606767D02*
X120132233Y-113010000D01*
X117729000Y-110363000D02*
X110236000Y-102870000D01*
%TO.N,GPIO13*%
X123952000Y-109982000D02*
X121168233Y-109982000D01*
X123952000Y-109982000D02*
X125730000Y-111760000D01*
X121168233Y-109982000D02*
X111760000Y-100573767D01*
X111760000Y-100573767D02*
X111760000Y-97028000D01*
%TO.N,GPIO26*%
X103060000Y-111696000D02*
X103124000Y-111760000D01*
X106835000Y-101346000D02*
X103060000Y-105121000D01*
X103060000Y-105121000D02*
X103060000Y-111696000D01*
X105410000Y-91440000D02*
X106835000Y-92865000D01*
X106835000Y-92865000D02*
X106835000Y-101346000D01*
%TO.N,GPIO27*%
X100520000Y-111696000D02*
X100584000Y-111760000D01*
X100520000Y-105220000D02*
X100520000Y-111696000D01*
X105410000Y-100330000D02*
X100520000Y-105220000D01*
X105410000Y-92964000D02*
X105410000Y-100330000D01*
%TD*%
%TA.AperFunction,Conductor*%
%TO.N,GND*%
G36*
X92248000Y-69105113D02*
G01*
X92293387Y-69150500D01*
X92310000Y-69212500D01*
X92310000Y-75760000D01*
X140293674Y-75760000D01*
X140310000Y-75760000D01*
X140310000Y-70612000D01*
X140590708Y-70612000D01*
X140610141Y-70821712D01*
X140611710Y-70827226D01*
X140666205Y-71018759D01*
X140666207Y-71018764D01*
X140667777Y-71024282D01*
X140761654Y-71212813D01*
X140765106Y-71217384D01*
X140885117Y-71376305D01*
X140885121Y-71376310D01*
X140888575Y-71380883D01*
X140892811Y-71384744D01*
X140892815Y-71384749D01*
X140999549Y-71482049D01*
X141044218Y-71522771D01*
X141223282Y-71633643D01*
X141419671Y-71709724D01*
X141626695Y-71748423D01*
X141831576Y-71748423D01*
X141837305Y-71748423D01*
X142044329Y-71709724D01*
X142240718Y-71633643D01*
X142419782Y-71522771D01*
X142575425Y-71380883D01*
X142702346Y-71212813D01*
X142796223Y-71024282D01*
X142853859Y-70821712D01*
X142873292Y-70612000D01*
X142853859Y-70402288D01*
X142796223Y-70199718D01*
X142702346Y-70011187D01*
X142652716Y-69945467D01*
X142578882Y-69847694D01*
X142578878Y-69847690D01*
X142575425Y-69843117D01*
X142571188Y-69839254D01*
X142571184Y-69839250D01*
X142424016Y-69705089D01*
X142424017Y-69705089D01*
X142419782Y-69701229D01*
X142414916Y-69698216D01*
X142414912Y-69698213D01*
X142245589Y-69593373D01*
X142245588Y-69593372D01*
X142240718Y-69590357D01*
X142235380Y-69588289D01*
X142235376Y-69588287D01*
X142049676Y-69516347D01*
X142049671Y-69516345D01*
X142044329Y-69514276D01*
X142038694Y-69513222D01*
X142038692Y-69513222D01*
X141842935Y-69476629D01*
X141842930Y-69476628D01*
X141837305Y-69475577D01*
X141626695Y-69475577D01*
X141621070Y-69476628D01*
X141621064Y-69476629D01*
X141425307Y-69513222D01*
X141425302Y-69513223D01*
X141419671Y-69514276D01*
X141414330Y-69516344D01*
X141414323Y-69516347D01*
X141228623Y-69588287D01*
X141228614Y-69588291D01*
X141223282Y-69590357D01*
X141218415Y-69593370D01*
X141218410Y-69593373D01*
X141049087Y-69698213D01*
X141049077Y-69698219D01*
X141044218Y-69701229D01*
X141039987Y-69705085D01*
X141039983Y-69705089D01*
X140892815Y-69839250D01*
X140892805Y-69839260D01*
X140888575Y-69843117D01*
X140885126Y-69847683D01*
X140885117Y-69847694D01*
X140765106Y-70006615D01*
X140765103Y-70006619D01*
X140761654Y-70011187D01*
X140759101Y-70016312D01*
X140759099Y-70016317D01*
X140670336Y-70194577D01*
X140670332Y-70194585D01*
X140667777Y-70199718D01*
X140666208Y-70205231D01*
X140666205Y-70205240D01*
X140611710Y-70396773D01*
X140610141Y-70402288D01*
X140590708Y-70612000D01*
X140310000Y-70612000D01*
X140310000Y-69212500D01*
X140326613Y-69150500D01*
X140372000Y-69105113D01*
X140434000Y-69088500D01*
X143131500Y-69088500D01*
X143193500Y-69105113D01*
X143238887Y-69150500D01*
X143255500Y-69212500D01*
X143255500Y-115699500D01*
X143238887Y-115761500D01*
X143193500Y-115806887D01*
X143131500Y-115823500D01*
X77594500Y-115823500D01*
X77532500Y-115806887D01*
X77487113Y-115761500D01*
X77470500Y-115699500D01*
X77470500Y-114300000D01*
X77852708Y-114300000D01*
X77853237Y-114305709D01*
X77870903Y-114496358D01*
X77872141Y-114509712D01*
X77873710Y-114515226D01*
X77928205Y-114706759D01*
X77928207Y-114706764D01*
X77929777Y-114712282D01*
X78023654Y-114900813D01*
X78027106Y-114905384D01*
X78147117Y-115064305D01*
X78147121Y-115064310D01*
X78150575Y-115068883D01*
X78154811Y-115072744D01*
X78154815Y-115072749D01*
X78261549Y-115170049D01*
X78306218Y-115210771D01*
X78485282Y-115321643D01*
X78681671Y-115397724D01*
X78888695Y-115436423D01*
X79093576Y-115436423D01*
X79099305Y-115436423D01*
X79306329Y-115397724D01*
X79502718Y-115321643D01*
X79681782Y-115210771D01*
X79837425Y-115068883D01*
X79964346Y-114900813D01*
X80058223Y-114712282D01*
X80115859Y-114509712D01*
X80135292Y-114300000D01*
X80115859Y-114090288D01*
X80058223Y-113887718D01*
X79964346Y-113699187D01*
X79914716Y-113633467D01*
X79840882Y-113535694D01*
X79840878Y-113535690D01*
X79837425Y-113531117D01*
X79833188Y-113527254D01*
X79833184Y-113527250D01*
X79686016Y-113393089D01*
X79686017Y-113393089D01*
X79681782Y-113389229D01*
X79676916Y-113386216D01*
X79676912Y-113386213D01*
X79507589Y-113281373D01*
X79507588Y-113281372D01*
X79502718Y-113278357D01*
X79497380Y-113276289D01*
X79497376Y-113276287D01*
X79311676Y-113204347D01*
X79311671Y-113204345D01*
X79306329Y-113202276D01*
X79300694Y-113201222D01*
X79300692Y-113201222D01*
X79104935Y-113164629D01*
X79104930Y-113164628D01*
X79099305Y-113163577D01*
X78888695Y-113163577D01*
X78883070Y-113164628D01*
X78883064Y-113164629D01*
X78687307Y-113201222D01*
X78687302Y-113201223D01*
X78681671Y-113202276D01*
X78676330Y-113204344D01*
X78676323Y-113204347D01*
X78490623Y-113276287D01*
X78490614Y-113276291D01*
X78485282Y-113278357D01*
X78480415Y-113281370D01*
X78480410Y-113281373D01*
X78311087Y-113386213D01*
X78311077Y-113386219D01*
X78306218Y-113389229D01*
X78301987Y-113393085D01*
X78301983Y-113393089D01*
X78154815Y-113527250D01*
X78154805Y-113527260D01*
X78150575Y-113531117D01*
X78147126Y-113535683D01*
X78147117Y-113535694D01*
X78027106Y-113694615D01*
X78027103Y-113694619D01*
X78023654Y-113699187D01*
X78021101Y-113704312D01*
X78021099Y-113704317D01*
X77932336Y-113882577D01*
X77932332Y-113882585D01*
X77929777Y-113887718D01*
X77928208Y-113893231D01*
X77928205Y-113893240D01*
X77873710Y-114084773D01*
X77872141Y-114090288D01*
X77852708Y-114300000D01*
X77470500Y-114300000D01*
X77470500Y-111760000D01*
X94148341Y-111760000D01*
X94168937Y-111995408D01*
X94170336Y-112000630D01*
X94170337Y-112000634D01*
X94228694Y-112218430D01*
X94228697Y-112218438D01*
X94230097Y-112223663D01*
X94232385Y-112228570D01*
X94232386Y-112228572D01*
X94327678Y-112432927D01*
X94327681Y-112432933D01*
X94329965Y-112437830D01*
X94333064Y-112442257D01*
X94333066Y-112442259D01*
X94462399Y-112626966D01*
X94462402Y-112626970D01*
X94465505Y-112631401D01*
X94632599Y-112798495D01*
X94637031Y-112801598D01*
X94637033Y-112801600D01*
X94728899Y-112865925D01*
X94826170Y-112934035D01*
X95040337Y-113033903D01*
X95268592Y-113095063D01*
X95504000Y-113115659D01*
X95739408Y-113095063D01*
X95967663Y-113033903D01*
X96181830Y-112934035D01*
X96375401Y-112798495D01*
X96542495Y-112631401D01*
X96672730Y-112445405D01*
X96717048Y-112406540D01*
X96774305Y-112392529D01*
X96831562Y-112406540D01*
X96875880Y-112445405D01*
X97002784Y-112626643D01*
X97009721Y-112634909D01*
X97169090Y-112794278D01*
X97177356Y-112801215D01*
X97361991Y-112930498D01*
X97371323Y-112935886D01*
X97575602Y-113031143D01*
X97585736Y-113034831D01*
X97780219Y-113086943D01*
X97791448Y-113087311D01*
X97794000Y-113076369D01*
X98294000Y-113076369D01*
X98296551Y-113087311D01*
X98307780Y-113086943D01*
X98502263Y-113034831D01*
X98512397Y-113031143D01*
X98716676Y-112935886D01*
X98726008Y-112930498D01*
X98910643Y-112801215D01*
X98918909Y-112794278D01*
X99078278Y-112634909D01*
X99085219Y-112626638D01*
X99212119Y-112445406D01*
X99256437Y-112406540D01*
X99313694Y-112392529D01*
X99370951Y-112406540D01*
X99415269Y-112445405D01*
X99542399Y-112626966D01*
X99542402Y-112626970D01*
X99545505Y-112631401D01*
X99712599Y-112798495D01*
X99717031Y-112801598D01*
X99717033Y-112801600D01*
X99808899Y-112865925D01*
X99906170Y-112934035D01*
X100120337Y-113033903D01*
X100348592Y-113095063D01*
X100584000Y-113115659D01*
X100819408Y-113095063D01*
X101047663Y-113033903D01*
X101261830Y-112934035D01*
X101455401Y-112798495D01*
X101622495Y-112631401D01*
X101752424Y-112445842D01*
X101796743Y-112406976D01*
X101854000Y-112392965D01*
X101911257Y-112406976D01*
X101955575Y-112445842D01*
X102082395Y-112626961D01*
X102082401Y-112626968D01*
X102085505Y-112631401D01*
X102252599Y-112798495D01*
X102257031Y-112801598D01*
X102257033Y-112801600D01*
X102348899Y-112865925D01*
X102446170Y-112934035D01*
X102660337Y-113033903D01*
X102888592Y-113095063D01*
X103124000Y-113115659D01*
X103359408Y-113095063D01*
X103587663Y-113033903D01*
X103801830Y-112934035D01*
X103995401Y-112798495D01*
X104162495Y-112631401D01*
X104292424Y-112445842D01*
X104336743Y-112406976D01*
X104394000Y-112392965D01*
X104451257Y-112406976D01*
X104495575Y-112445842D01*
X104622395Y-112626961D01*
X104622401Y-112626968D01*
X104625505Y-112631401D01*
X104792599Y-112798495D01*
X104797031Y-112801598D01*
X104797033Y-112801600D01*
X104888899Y-112865925D01*
X104986170Y-112934035D01*
X105200337Y-113033903D01*
X105428592Y-113095063D01*
X105664000Y-113115659D01*
X105899408Y-113095063D01*
X106127663Y-113033903D01*
X106341830Y-112934035D01*
X106535401Y-112798495D01*
X106702495Y-112631401D01*
X106832424Y-112445842D01*
X106876743Y-112406976D01*
X106934000Y-112392965D01*
X106991257Y-112406976D01*
X107035575Y-112445842D01*
X107162395Y-112626961D01*
X107162401Y-112626968D01*
X107165505Y-112631401D01*
X107332599Y-112798495D01*
X107337031Y-112801598D01*
X107337033Y-112801600D01*
X107428899Y-112865925D01*
X107526170Y-112934035D01*
X107740337Y-113033903D01*
X107968592Y-113095063D01*
X108204000Y-113115659D01*
X108439408Y-113095063D01*
X108667663Y-113033903D01*
X108881830Y-112934035D01*
X109075401Y-112798495D01*
X109242495Y-112631401D01*
X109372424Y-112445842D01*
X109416743Y-112406976D01*
X109474000Y-112392965D01*
X109531257Y-112406976D01*
X109575575Y-112445842D01*
X109702395Y-112626961D01*
X109702401Y-112626968D01*
X109705505Y-112631401D01*
X109872599Y-112798495D01*
X109877031Y-112801598D01*
X109877033Y-112801600D01*
X109968899Y-112865925D01*
X110066170Y-112934035D01*
X110280337Y-113033903D01*
X110508592Y-113095063D01*
X110744000Y-113115659D01*
X110979408Y-113095063D01*
X110984633Y-113093662D01*
X110984638Y-113093662D01*
X110996219Y-113090559D01*
X111060407Y-113090558D01*
X111115995Y-113122652D01*
X112263059Y-114269716D01*
X112268193Y-114275170D01*
X112308071Y-114320183D01*
X112357577Y-114354355D01*
X112363597Y-114358785D01*
X112410943Y-114395878D01*
X112417779Y-114398954D01*
X112417785Y-114398958D01*
X112420179Y-114400035D01*
X112439733Y-114411063D01*
X112448070Y-114416818D01*
X112504288Y-114438138D01*
X112504296Y-114438141D01*
X112511217Y-114441007D01*
X112566069Y-114465695D01*
X112576041Y-114467522D01*
X112597656Y-114473547D01*
X112607128Y-114477140D01*
X112664831Y-114484146D01*
X112666815Y-114484387D01*
X112674222Y-114485514D01*
X112733394Y-114496358D01*
X112793433Y-114492725D01*
X112800921Y-114492500D01*
X133833079Y-114492500D01*
X133840566Y-114492725D01*
X133900606Y-114496358D01*
X133959782Y-114485513D01*
X133967181Y-114484387D01*
X134026872Y-114477140D01*
X134036332Y-114473551D01*
X134057959Y-114467522D01*
X134067932Y-114465695D01*
X134122808Y-114440996D01*
X134129673Y-114438152D01*
X134185930Y-114416818D01*
X134194264Y-114411064D01*
X134213821Y-114400034D01*
X134223057Y-114395878D01*
X134270413Y-114358775D01*
X134276420Y-114354355D01*
X134325929Y-114320183D01*
X134365822Y-114275151D01*
X134370924Y-114269731D01*
X135518006Y-113122649D01*
X135573594Y-113090557D01*
X135637778Y-113090557D01*
X135654592Y-113095063D01*
X135890000Y-113115659D01*
X136125408Y-113095063D01*
X136353663Y-113033903D01*
X136567830Y-112934035D01*
X136761401Y-112798495D01*
X136928495Y-112631401D01*
X137058424Y-112445842D01*
X137102743Y-112406976D01*
X137160000Y-112392965D01*
X137217257Y-112406976D01*
X137261575Y-112445842D01*
X137388395Y-112626961D01*
X137388401Y-112626968D01*
X137391505Y-112631401D01*
X137558599Y-112798495D01*
X137563031Y-112801598D01*
X137563033Y-112801600D01*
X137654899Y-112865925D01*
X137752170Y-112934035D01*
X137966337Y-113033903D01*
X138194592Y-113095063D01*
X138430000Y-113115659D01*
X138665408Y-113095063D01*
X138893663Y-113033903D01*
X139107830Y-112934035D01*
X139301401Y-112798495D01*
X139423329Y-112676566D01*
X139476072Y-112645273D01*
X139537365Y-112643084D01*
X139592210Y-112670537D01*
X139627189Y-112720916D01*
X139676204Y-112852331D01*
X139681518Y-112859430D01*
X139681519Y-112859431D01*
X139737367Y-112934035D01*
X139762454Y-112967546D01*
X139877669Y-113053796D01*
X140012517Y-113104091D01*
X140072127Y-113110500D01*
X141867872Y-113110499D01*
X141927483Y-113104091D01*
X142062331Y-113053796D01*
X142177546Y-112967546D01*
X142263796Y-112852331D01*
X142314091Y-112717483D01*
X142320500Y-112657873D01*
X142320499Y-110862128D01*
X142314091Y-110802517D01*
X142263796Y-110667669D01*
X142177546Y-110552454D01*
X142134504Y-110520233D01*
X142069431Y-110471519D01*
X142069430Y-110471518D01*
X142062331Y-110466204D01*
X141955442Y-110426337D01*
X141934752Y-110418620D01*
X141934750Y-110418619D01*
X141927483Y-110415909D01*
X141919770Y-110415079D01*
X141919767Y-110415079D01*
X141871180Y-110409855D01*
X141871169Y-110409854D01*
X141867873Y-110409500D01*
X141864550Y-110409500D01*
X140075439Y-110409500D01*
X140075420Y-110409500D01*
X140072128Y-110409501D01*
X140068850Y-110409853D01*
X140068838Y-110409854D01*
X140020231Y-110415079D01*
X140020225Y-110415080D01*
X140012517Y-110415909D01*
X140005252Y-110418618D01*
X140005246Y-110418620D01*
X139885980Y-110463104D01*
X139885978Y-110463104D01*
X139877669Y-110466204D01*
X139870572Y-110471516D01*
X139870568Y-110471519D01*
X139769550Y-110547141D01*
X139769546Y-110547144D01*
X139762454Y-110552454D01*
X139757144Y-110559546D01*
X139757141Y-110559550D01*
X139681519Y-110660568D01*
X139681516Y-110660572D01*
X139676204Y-110667669D01*
X139671938Y-110679108D01*
X139627189Y-110799083D01*
X139592210Y-110849462D01*
X139537365Y-110876915D01*
X139476072Y-110874726D01*
X139423326Y-110843430D01*
X139305232Y-110725336D01*
X139305230Y-110725334D01*
X139301401Y-110721505D01*
X139296970Y-110718402D01*
X139296966Y-110718399D01*
X139112259Y-110589066D01*
X139112257Y-110589064D01*
X139107830Y-110585965D01*
X139102933Y-110583681D01*
X139102927Y-110583678D01*
X138898572Y-110488386D01*
X138898570Y-110488385D01*
X138893663Y-110486097D01*
X138888438Y-110484697D01*
X138888430Y-110484694D01*
X138670634Y-110426337D01*
X138670630Y-110426336D01*
X138665408Y-110424937D01*
X138660020Y-110424465D01*
X138660017Y-110424465D01*
X138435395Y-110404813D01*
X138430000Y-110404341D01*
X138424605Y-110404813D01*
X138199982Y-110424465D01*
X138199977Y-110424465D01*
X138194592Y-110424937D01*
X138189371Y-110426335D01*
X138189365Y-110426337D01*
X137971569Y-110484694D01*
X137971557Y-110484698D01*
X137966337Y-110486097D01*
X137961432Y-110488383D01*
X137961427Y-110488386D01*
X137757081Y-110583675D01*
X137757077Y-110583677D01*
X137752171Y-110585965D01*
X137747738Y-110589068D01*
X137747731Y-110589073D01*
X137563034Y-110718399D01*
X137563029Y-110718402D01*
X137558599Y-110721505D01*
X137554775Y-110725328D01*
X137554769Y-110725334D01*
X137395334Y-110884769D01*
X137395328Y-110884775D01*
X137391505Y-110888599D01*
X137388402Y-110893029D01*
X137388399Y-110893034D01*
X137261575Y-111074159D01*
X137217257Y-111113025D01*
X137160000Y-111127036D01*
X137102743Y-111113025D01*
X137058425Y-111074159D01*
X137032104Y-111036568D01*
X136928495Y-110888599D01*
X136761401Y-110721505D01*
X136756970Y-110718402D01*
X136756966Y-110718399D01*
X136572259Y-110589066D01*
X136572257Y-110589064D01*
X136567830Y-110585965D01*
X136562933Y-110583681D01*
X136562927Y-110583678D01*
X136358572Y-110488386D01*
X136358570Y-110488385D01*
X136353663Y-110486097D01*
X136348438Y-110484697D01*
X136348430Y-110484694D01*
X136130634Y-110426337D01*
X136130630Y-110426336D01*
X136125408Y-110424937D01*
X136120020Y-110424465D01*
X136120017Y-110424465D01*
X135895395Y-110404813D01*
X135890000Y-110404341D01*
X135884605Y-110404813D01*
X135659982Y-110424465D01*
X135659977Y-110424465D01*
X135654592Y-110424937D01*
X135649371Y-110426335D01*
X135649365Y-110426337D01*
X135431569Y-110484694D01*
X135431557Y-110484698D01*
X135426337Y-110486097D01*
X135421432Y-110488383D01*
X135421427Y-110488386D01*
X135217081Y-110583675D01*
X135217077Y-110583677D01*
X135212171Y-110585965D01*
X135207738Y-110589068D01*
X135207731Y-110589073D01*
X135023034Y-110718399D01*
X135023029Y-110718402D01*
X135018599Y-110721505D01*
X135014775Y-110725328D01*
X135014769Y-110725334D01*
X134855334Y-110884769D01*
X134855328Y-110884775D01*
X134851505Y-110888599D01*
X134848402Y-110893029D01*
X134848399Y-110893034D01*
X134721575Y-111074159D01*
X134677257Y-111113025D01*
X134620000Y-111127036D01*
X134562743Y-111113025D01*
X134518425Y-111074159D01*
X134492104Y-111036568D01*
X134388495Y-110888599D01*
X134221401Y-110721505D01*
X134216970Y-110718402D01*
X134216966Y-110718399D01*
X134032259Y-110589066D01*
X134032257Y-110589064D01*
X134027830Y-110585965D01*
X134022933Y-110583681D01*
X134022927Y-110583678D01*
X133818572Y-110488386D01*
X133818570Y-110488385D01*
X133813663Y-110486097D01*
X133808438Y-110484697D01*
X133808430Y-110484694D01*
X133590634Y-110426337D01*
X133590630Y-110426336D01*
X133585408Y-110424937D01*
X133580020Y-110424465D01*
X133580017Y-110424465D01*
X133355395Y-110404813D01*
X133350000Y-110404341D01*
X133344605Y-110404813D01*
X133119982Y-110424465D01*
X133119977Y-110424465D01*
X133114592Y-110424937D01*
X133109371Y-110426335D01*
X133109365Y-110426337D01*
X132891569Y-110484694D01*
X132891557Y-110484698D01*
X132886337Y-110486097D01*
X132881432Y-110488383D01*
X132881427Y-110488386D01*
X132677081Y-110583675D01*
X132677077Y-110583677D01*
X132672171Y-110585965D01*
X132667738Y-110589068D01*
X132667731Y-110589073D01*
X132483034Y-110718399D01*
X132483029Y-110718402D01*
X132478599Y-110721505D01*
X132474775Y-110725328D01*
X132474769Y-110725334D01*
X132315334Y-110884769D01*
X132315328Y-110884775D01*
X132311505Y-110888599D01*
X132308403Y-110893028D01*
X132308403Y-110893029D01*
X132181574Y-111074160D01*
X132137256Y-111113025D01*
X132079999Y-111127036D01*
X132022742Y-111113025D01*
X131978426Y-111074161D01*
X131848495Y-110888599D01*
X131681401Y-110721505D01*
X131676970Y-110718402D01*
X131676966Y-110718399D01*
X131492259Y-110589066D01*
X131492257Y-110589064D01*
X131487830Y-110585965D01*
X131482933Y-110583681D01*
X131482927Y-110583678D01*
X131278572Y-110488386D01*
X131278570Y-110488385D01*
X131273663Y-110486097D01*
X131268438Y-110484697D01*
X131268430Y-110484694D01*
X131050634Y-110426337D01*
X131050630Y-110426336D01*
X131045408Y-110424937D01*
X131040020Y-110424465D01*
X131040017Y-110424465D01*
X130815395Y-110404813D01*
X130810000Y-110404341D01*
X130804605Y-110404813D01*
X130579982Y-110424465D01*
X130579977Y-110424465D01*
X130574592Y-110424937D01*
X130569371Y-110426335D01*
X130569365Y-110426337D01*
X130351569Y-110484694D01*
X130351557Y-110484698D01*
X130346337Y-110486097D01*
X130341432Y-110488383D01*
X130341427Y-110488386D01*
X130137081Y-110583675D01*
X130137077Y-110583677D01*
X130132171Y-110585965D01*
X130127738Y-110589068D01*
X130127731Y-110589073D01*
X129943034Y-110718399D01*
X129943029Y-110718402D01*
X129938599Y-110721505D01*
X129934775Y-110725328D01*
X129934769Y-110725334D01*
X129775334Y-110884769D01*
X129775328Y-110884775D01*
X129771505Y-110888599D01*
X129768403Y-110893028D01*
X129768403Y-110893029D01*
X129641574Y-111074160D01*
X129597256Y-111113025D01*
X129539999Y-111127036D01*
X129482742Y-111113025D01*
X129438426Y-111074161D01*
X129308495Y-110888599D01*
X129141401Y-110721505D01*
X129136970Y-110718402D01*
X129136966Y-110718399D01*
X128952259Y-110589066D01*
X128952257Y-110589064D01*
X128947830Y-110585965D01*
X128942933Y-110583681D01*
X128942927Y-110583678D01*
X128738572Y-110488386D01*
X128738570Y-110488385D01*
X128733663Y-110486097D01*
X128728438Y-110484697D01*
X128728430Y-110484694D01*
X128510634Y-110426337D01*
X128510630Y-110426336D01*
X128505408Y-110424937D01*
X128500020Y-110424465D01*
X128500017Y-110424465D01*
X128275395Y-110404813D01*
X128270000Y-110404341D01*
X128264605Y-110404813D01*
X128039982Y-110424465D01*
X128039977Y-110424465D01*
X128034592Y-110424937D01*
X128029371Y-110426335D01*
X128029365Y-110426337D01*
X127811569Y-110484694D01*
X127811557Y-110484698D01*
X127806337Y-110486097D01*
X127801432Y-110488383D01*
X127801427Y-110488386D01*
X127597081Y-110583675D01*
X127597077Y-110583677D01*
X127592171Y-110585965D01*
X127587738Y-110589068D01*
X127587731Y-110589073D01*
X127403034Y-110718399D01*
X127403029Y-110718402D01*
X127398599Y-110721505D01*
X127394775Y-110725328D01*
X127394769Y-110725334D01*
X127235334Y-110884769D01*
X127235328Y-110884775D01*
X127231505Y-110888599D01*
X127228403Y-110893028D01*
X127228403Y-110893029D01*
X127101574Y-111074160D01*
X127057256Y-111113025D01*
X126999999Y-111127036D01*
X126942742Y-111113025D01*
X126898426Y-111074161D01*
X126768495Y-110888599D01*
X126601401Y-110721505D01*
X126596970Y-110718402D01*
X126596966Y-110718399D01*
X126412259Y-110589066D01*
X126412257Y-110589064D01*
X126407830Y-110585965D01*
X126402933Y-110583681D01*
X126402927Y-110583678D01*
X126198572Y-110488386D01*
X126198570Y-110488385D01*
X126193663Y-110486097D01*
X126188438Y-110484697D01*
X126188430Y-110484694D01*
X125970634Y-110426337D01*
X125970630Y-110426336D01*
X125965408Y-110424937D01*
X125960020Y-110424465D01*
X125960017Y-110424465D01*
X125735395Y-110404813D01*
X125730000Y-110404341D01*
X125724605Y-110404813D01*
X125499985Y-110424465D01*
X125499983Y-110424465D01*
X125494592Y-110424937D01*
X125489367Y-110426336D01*
X125489361Y-110426338D01*
X125477778Y-110429442D01*
X125413591Y-110429442D01*
X125358005Y-110397348D01*
X124464939Y-109504282D01*
X124459822Y-109498847D01*
X124419929Y-109453817D01*
X124370410Y-109419636D01*
X124364404Y-109415216D01*
X124322961Y-109382747D01*
X124322958Y-109382745D01*
X124317057Y-109378122D01*
X124310219Y-109375044D01*
X124310210Y-109375039D01*
X124307810Y-109373959D01*
X124288268Y-109362937D01*
X124286107Y-109361445D01*
X124286102Y-109361442D01*
X124279930Y-109357182D01*
X124223702Y-109335857D01*
X124216784Y-109332991D01*
X124168772Y-109311383D01*
X124168769Y-109311382D01*
X124161932Y-109308305D01*
X124154560Y-109306954D01*
X124154551Y-109306951D01*
X124151952Y-109306475D01*
X124130340Y-109300450D01*
X124127891Y-109299521D01*
X124127885Y-109299519D01*
X124120872Y-109296860D01*
X124113430Y-109295956D01*
X124113425Y-109295955D01*
X124061171Y-109289610D01*
X124053771Y-109288483D01*
X124001987Y-109278994D01*
X124001982Y-109278993D01*
X123994606Y-109277642D01*
X123987126Y-109278094D01*
X123987118Y-109278094D01*
X123934567Y-109281274D01*
X123927079Y-109281500D01*
X121509752Y-109281500D01*
X121462299Y-109272061D01*
X121422071Y-109245181D01*
X121007478Y-108830588D01*
X120976898Y-108780194D01*
X120973043Y-108721373D01*
X120996785Y-108667419D01*
X121042752Y-108630526D01*
X121073830Y-108616035D01*
X121267401Y-108480495D01*
X121434495Y-108313401D01*
X121564730Y-108127405D01*
X121609048Y-108088540D01*
X121666305Y-108074529D01*
X121723562Y-108088540D01*
X121767880Y-108127405D01*
X121894784Y-108308643D01*
X121901721Y-108316909D01*
X122061090Y-108476278D01*
X122069356Y-108483215D01*
X122253991Y-108612498D01*
X122263323Y-108617886D01*
X122467602Y-108713143D01*
X122477736Y-108716831D01*
X122672219Y-108768943D01*
X122683448Y-108769311D01*
X122686000Y-108758369D01*
X123186000Y-108758369D01*
X123188551Y-108769311D01*
X123199780Y-108768943D01*
X123394263Y-108716831D01*
X123404397Y-108713143D01*
X123608676Y-108617886D01*
X123618008Y-108612498D01*
X123802643Y-108483215D01*
X123810909Y-108476278D01*
X123970278Y-108316909D01*
X123977219Y-108308638D01*
X124104119Y-108127406D01*
X124148437Y-108088540D01*
X124205694Y-108074529D01*
X124262951Y-108088540D01*
X124307269Y-108127405D01*
X124434399Y-108308966D01*
X124434402Y-108308970D01*
X124437505Y-108313401D01*
X124604599Y-108480495D01*
X124609031Y-108483598D01*
X124609033Y-108483600D01*
X124753260Y-108584589D01*
X124798170Y-108616035D01*
X124803070Y-108618320D01*
X124803072Y-108618321D01*
X124854815Y-108642449D01*
X125012337Y-108715903D01*
X125017567Y-108717304D01*
X125017569Y-108717305D01*
X125059619Y-108728572D01*
X125240592Y-108777063D01*
X125476000Y-108797659D01*
X125711408Y-108777063D01*
X125939663Y-108715903D01*
X126153830Y-108616035D01*
X126347401Y-108480495D01*
X126514495Y-108313401D01*
X126611926Y-108174256D01*
X126644425Y-108127842D01*
X126688743Y-108088976D01*
X126746000Y-108074965D01*
X126803257Y-108088976D01*
X126847575Y-108127842D01*
X126974395Y-108308961D01*
X126974401Y-108308968D01*
X126977505Y-108313401D01*
X127144599Y-108480495D01*
X127149031Y-108483598D01*
X127149033Y-108483600D01*
X127293260Y-108584589D01*
X127338170Y-108616035D01*
X127343070Y-108618320D01*
X127343072Y-108618321D01*
X127394815Y-108642449D01*
X127552337Y-108715903D01*
X127557567Y-108717304D01*
X127557569Y-108717305D01*
X127599619Y-108728572D01*
X127780592Y-108777063D01*
X128016000Y-108797659D01*
X128251408Y-108777063D01*
X128479663Y-108715903D01*
X128693830Y-108616035D01*
X128887401Y-108480495D01*
X129054495Y-108313401D01*
X129151926Y-108174256D01*
X129184425Y-108127842D01*
X129228743Y-108088976D01*
X129286000Y-108074965D01*
X129343257Y-108088976D01*
X129387575Y-108127842D01*
X129514395Y-108308961D01*
X129514401Y-108308968D01*
X129517505Y-108313401D01*
X129684599Y-108480495D01*
X129689031Y-108483598D01*
X129689033Y-108483600D01*
X129833260Y-108584589D01*
X129878170Y-108616035D01*
X129883070Y-108618320D01*
X129883072Y-108618321D01*
X129934815Y-108642449D01*
X130092337Y-108715903D01*
X130097567Y-108717304D01*
X130097569Y-108717305D01*
X130139619Y-108728572D01*
X130320592Y-108777063D01*
X130556000Y-108797659D01*
X130791408Y-108777063D01*
X131019663Y-108715903D01*
X131233830Y-108616035D01*
X131427401Y-108480495D01*
X131594495Y-108313401D01*
X131691926Y-108174256D01*
X131724425Y-108127842D01*
X131768743Y-108088976D01*
X131826000Y-108074965D01*
X131883257Y-108088976D01*
X131927575Y-108127842D01*
X132054395Y-108308961D01*
X132054401Y-108308968D01*
X132057505Y-108313401D01*
X132224599Y-108480495D01*
X132229031Y-108483598D01*
X132229033Y-108483600D01*
X132373260Y-108584589D01*
X132418170Y-108616035D01*
X132423070Y-108618320D01*
X132423072Y-108618321D01*
X132474815Y-108642449D01*
X132632337Y-108715903D01*
X132637567Y-108717304D01*
X132637569Y-108717305D01*
X132679619Y-108728572D01*
X132860592Y-108777063D01*
X133096000Y-108797659D01*
X133331408Y-108777063D01*
X133559663Y-108715903D01*
X133773830Y-108616035D01*
X133967401Y-108480495D01*
X134134495Y-108313401D01*
X134231926Y-108174256D01*
X134264425Y-108127842D01*
X134308743Y-108088976D01*
X134366000Y-108074965D01*
X134423257Y-108088976D01*
X134467575Y-108127842D01*
X134594395Y-108308961D01*
X134594401Y-108308968D01*
X134597505Y-108313401D01*
X134764599Y-108480495D01*
X134769031Y-108483598D01*
X134769033Y-108483600D01*
X134913260Y-108584589D01*
X134958170Y-108616035D01*
X134963070Y-108618320D01*
X134963072Y-108618321D01*
X135014815Y-108642449D01*
X135172337Y-108715903D01*
X135177567Y-108717304D01*
X135177569Y-108717305D01*
X135219619Y-108728572D01*
X135400592Y-108777063D01*
X135636000Y-108797659D01*
X135871408Y-108777063D01*
X136099663Y-108715903D01*
X136313830Y-108616035D01*
X136507401Y-108480495D01*
X136674495Y-108313401D01*
X136771926Y-108174256D01*
X136804425Y-108127842D01*
X136848743Y-108088976D01*
X136906000Y-108074965D01*
X136963257Y-108088976D01*
X137007575Y-108127842D01*
X137134395Y-108308961D01*
X137134401Y-108308968D01*
X137137505Y-108313401D01*
X137304599Y-108480495D01*
X137309031Y-108483598D01*
X137309033Y-108483600D01*
X137453260Y-108584589D01*
X137498170Y-108616035D01*
X137503070Y-108618320D01*
X137503072Y-108618321D01*
X137554815Y-108642449D01*
X137712337Y-108715903D01*
X137717567Y-108717304D01*
X137717569Y-108717305D01*
X137759619Y-108728572D01*
X137940592Y-108777063D01*
X138176000Y-108797659D01*
X138411408Y-108777063D01*
X138639663Y-108715903D01*
X138853830Y-108616035D01*
X139047401Y-108480495D01*
X139169329Y-108358566D01*
X139222072Y-108327273D01*
X139283365Y-108325084D01*
X139338210Y-108352537D01*
X139373189Y-108402916D01*
X139422204Y-108534331D01*
X139427518Y-108541430D01*
X139427519Y-108541431D01*
X139483367Y-108616035D01*
X139508454Y-108649546D01*
X139623669Y-108735796D01*
X139758517Y-108786091D01*
X139818127Y-108792500D01*
X141613872Y-108792499D01*
X141673483Y-108786091D01*
X141808331Y-108735796D01*
X141923546Y-108649546D01*
X142009796Y-108534331D01*
X142060091Y-108399483D01*
X142066500Y-108339873D01*
X142066499Y-106544128D01*
X142060091Y-106484517D01*
X142009796Y-106349669D01*
X141923546Y-106234454D01*
X141833030Y-106166694D01*
X141815431Y-106153519D01*
X141815430Y-106153518D01*
X141808331Y-106148204D01*
X141701442Y-106108337D01*
X141680752Y-106100620D01*
X141680750Y-106100619D01*
X141673483Y-106097909D01*
X141665770Y-106097079D01*
X141665767Y-106097079D01*
X141617180Y-106091855D01*
X141617169Y-106091854D01*
X141613873Y-106091500D01*
X141610550Y-106091500D01*
X139821439Y-106091500D01*
X139821420Y-106091500D01*
X139818128Y-106091501D01*
X139814850Y-106091853D01*
X139814838Y-106091854D01*
X139766231Y-106097079D01*
X139766225Y-106097080D01*
X139758517Y-106097909D01*
X139751252Y-106100618D01*
X139751246Y-106100620D01*
X139631980Y-106145104D01*
X139631978Y-106145104D01*
X139623669Y-106148204D01*
X139616572Y-106153516D01*
X139616568Y-106153519D01*
X139515550Y-106229141D01*
X139515546Y-106229144D01*
X139508454Y-106234454D01*
X139503144Y-106241546D01*
X139503141Y-106241550D01*
X139427519Y-106342568D01*
X139427516Y-106342572D01*
X139422204Y-106349669D01*
X139419104Y-106357978D01*
X139419105Y-106357978D01*
X139373189Y-106481083D01*
X139338210Y-106531462D01*
X139283365Y-106558915D01*
X139222072Y-106556726D01*
X139169326Y-106525430D01*
X139051232Y-106407336D01*
X139051230Y-106407334D01*
X139047401Y-106403505D01*
X139042970Y-106400402D01*
X139042966Y-106400399D01*
X138858259Y-106271066D01*
X138858257Y-106271064D01*
X138853830Y-106267965D01*
X138848933Y-106265681D01*
X138848927Y-106265678D01*
X138644572Y-106170386D01*
X138644570Y-106170385D01*
X138639663Y-106168097D01*
X138634438Y-106166697D01*
X138634430Y-106166694D01*
X138416634Y-106108337D01*
X138416630Y-106108336D01*
X138411408Y-106106937D01*
X138406020Y-106106465D01*
X138406017Y-106106465D01*
X138181395Y-106086813D01*
X138176000Y-106086341D01*
X138170605Y-106086813D01*
X137945982Y-106106465D01*
X137945977Y-106106465D01*
X137940592Y-106106937D01*
X137935371Y-106108335D01*
X137935365Y-106108337D01*
X137717569Y-106166694D01*
X137717557Y-106166698D01*
X137712337Y-106168097D01*
X137707432Y-106170383D01*
X137707427Y-106170386D01*
X137503081Y-106265675D01*
X137503077Y-106265677D01*
X137498171Y-106267965D01*
X137493738Y-106271068D01*
X137493731Y-106271073D01*
X137309034Y-106400399D01*
X137309029Y-106400402D01*
X137304599Y-106403505D01*
X137300775Y-106407328D01*
X137300769Y-106407334D01*
X137141334Y-106566769D01*
X137141328Y-106566775D01*
X137137505Y-106570599D01*
X137134402Y-106575029D01*
X137134399Y-106575034D01*
X137007575Y-106756159D01*
X136963257Y-106795025D01*
X136906000Y-106809036D01*
X136848743Y-106795025D01*
X136804425Y-106756159D01*
X136698504Y-106604888D01*
X136674495Y-106570599D01*
X136507401Y-106403505D01*
X136502970Y-106400402D01*
X136502966Y-106400399D01*
X136318259Y-106271066D01*
X136318257Y-106271064D01*
X136313830Y-106267965D01*
X136308933Y-106265681D01*
X136308927Y-106265678D01*
X136153095Y-106193013D01*
X136100919Y-106147256D01*
X136081500Y-106080631D01*
X136081500Y-103378000D01*
X140590708Y-103378000D01*
X140610141Y-103587712D01*
X140611710Y-103593226D01*
X140666205Y-103784759D01*
X140666207Y-103784764D01*
X140667777Y-103790282D01*
X140670334Y-103795418D01*
X140670336Y-103795422D01*
X140759099Y-103973682D01*
X140761654Y-103978813D01*
X140765106Y-103983384D01*
X140885117Y-104142305D01*
X140885121Y-104142310D01*
X140888575Y-104146883D01*
X140892811Y-104150744D01*
X140892815Y-104150749D01*
X140999549Y-104248049D01*
X141044218Y-104288771D01*
X141223282Y-104399643D01*
X141419671Y-104475724D01*
X141626695Y-104514423D01*
X141831576Y-104514423D01*
X141837305Y-104514423D01*
X142044329Y-104475724D01*
X142240718Y-104399643D01*
X142419782Y-104288771D01*
X142575425Y-104146883D01*
X142702346Y-103978813D01*
X142796223Y-103790282D01*
X142853859Y-103587712D01*
X142873292Y-103378000D01*
X142853859Y-103168288D01*
X142796223Y-102965718D01*
X142702346Y-102777187D01*
X142625604Y-102675564D01*
X142578882Y-102613694D01*
X142578878Y-102613690D01*
X142575425Y-102609117D01*
X142571188Y-102605254D01*
X142571184Y-102605250D01*
X142424016Y-102471089D01*
X142424017Y-102471089D01*
X142419782Y-102467229D01*
X142414916Y-102464216D01*
X142414912Y-102464213D01*
X142245589Y-102359373D01*
X142245588Y-102359372D01*
X142240718Y-102356357D01*
X142235380Y-102354289D01*
X142235376Y-102354287D01*
X142049676Y-102282347D01*
X142049671Y-102282345D01*
X142044329Y-102280276D01*
X142038694Y-102279222D01*
X142038692Y-102279222D01*
X141842935Y-102242629D01*
X141842930Y-102242628D01*
X141837305Y-102241577D01*
X141626695Y-102241577D01*
X141621070Y-102242628D01*
X141621064Y-102242629D01*
X141425307Y-102279222D01*
X141425302Y-102279223D01*
X141419671Y-102280276D01*
X141414330Y-102282344D01*
X141414323Y-102282347D01*
X141228623Y-102354287D01*
X141228614Y-102354291D01*
X141223282Y-102356357D01*
X141218415Y-102359370D01*
X141218410Y-102359373D01*
X141049087Y-102464213D01*
X141049077Y-102464219D01*
X141044218Y-102467229D01*
X141039987Y-102471085D01*
X141039983Y-102471089D01*
X140892815Y-102605250D01*
X140892805Y-102605260D01*
X140888575Y-102609117D01*
X140885126Y-102613683D01*
X140885117Y-102613694D01*
X140765106Y-102772615D01*
X140765103Y-102772619D01*
X140761654Y-102777187D01*
X140759101Y-102782312D01*
X140759099Y-102782317D01*
X140670336Y-102960577D01*
X140670332Y-102960585D01*
X140667777Y-102965718D01*
X140666208Y-102971231D01*
X140666205Y-102971240D01*
X140611710Y-103162773D01*
X140610141Y-103168288D01*
X140590708Y-103378000D01*
X136081500Y-103378000D01*
X136081500Y-99083921D01*
X136081726Y-99076433D01*
X136084905Y-99023881D01*
X136085358Y-99016394D01*
X136074514Y-98957221D01*
X136073387Y-98949815D01*
X136073146Y-98947831D01*
X136066140Y-98890128D01*
X136062547Y-98880656D01*
X136056522Y-98859041D01*
X136054695Y-98849069D01*
X136030009Y-98794220D01*
X136027142Y-98787298D01*
X136008480Y-98738090D01*
X136005818Y-98731070D01*
X136000059Y-98722727D01*
X135989033Y-98703177D01*
X135987956Y-98700784D01*
X135984878Y-98693944D01*
X135947791Y-98646605D01*
X135943353Y-98640574D01*
X135913446Y-98597247D01*
X135909183Y-98591071D01*
X135903568Y-98586097D01*
X135903565Y-98586093D01*
X135864170Y-98551193D01*
X135858716Y-98546059D01*
X127736819Y-90424162D01*
X127709939Y-90383934D01*
X127700500Y-90336481D01*
X127700500Y-87483392D01*
X127708749Y-87438920D01*
X127725703Y-87411279D01*
X127724363Y-87410306D01*
X127728184Y-87405045D01*
X127732533Y-87400216D01*
X127827179Y-87236284D01*
X127885674Y-87056256D01*
X127905460Y-86868000D01*
X127885674Y-86679744D01*
X127827179Y-86499716D01*
X127732533Y-86335784D01*
X127605871Y-86195112D01*
X127600613Y-86191292D01*
X127600611Y-86191290D01*
X127457988Y-86087669D01*
X127457987Y-86087668D01*
X127452730Y-86083849D01*
X127446792Y-86081205D01*
X127285745Y-86009501D01*
X127285740Y-86009499D01*
X127279803Y-86006856D01*
X127273444Y-86005504D01*
X127273440Y-86005503D01*
X127101008Y-85968852D01*
X127101005Y-85968851D01*
X127094646Y-85967500D01*
X126905354Y-85967500D01*
X126898995Y-85968851D01*
X126898991Y-85968852D01*
X126726559Y-86005503D01*
X126726552Y-86005505D01*
X126720197Y-86006856D01*
X126714262Y-86009498D01*
X126714254Y-86009501D01*
X126553207Y-86081205D01*
X126553202Y-86081207D01*
X126547270Y-86083849D01*
X126542016Y-86087665D01*
X126542011Y-86087669D01*
X126399388Y-86191290D01*
X126399381Y-86191295D01*
X126394129Y-86195112D01*
X126389784Y-86199937D01*
X126389779Y-86199942D01*
X126271813Y-86330956D01*
X126271808Y-86330962D01*
X126267467Y-86335784D01*
X126264222Y-86341404D01*
X126264218Y-86341410D01*
X126176069Y-86494089D01*
X126176066Y-86494094D01*
X126172821Y-86499716D01*
X126170815Y-86505888D01*
X126170813Y-86505894D01*
X126116333Y-86673564D01*
X126116331Y-86673573D01*
X126114326Y-86679744D01*
X126113648Y-86686194D01*
X126113646Y-86686204D01*
X126095962Y-86854464D01*
X126094540Y-86868000D01*
X126095219Y-86874460D01*
X126113646Y-87049795D01*
X126113647Y-87049803D01*
X126114326Y-87056256D01*
X126116331Y-87062428D01*
X126116333Y-87062435D01*
X126170813Y-87230105D01*
X126172821Y-87236284D01*
X126267467Y-87400216D01*
X126271813Y-87405043D01*
X126275637Y-87410306D01*
X126274296Y-87411279D01*
X126291251Y-87438920D01*
X126299500Y-87483392D01*
X126299500Y-90653079D01*
X126299274Y-90660567D01*
X126296094Y-90713118D01*
X126296094Y-90713126D01*
X126295642Y-90720606D01*
X126296993Y-90727982D01*
X126296994Y-90727987D01*
X126306483Y-90779771D01*
X126307610Y-90787171D01*
X126313955Y-90839425D01*
X126313956Y-90839430D01*
X126314860Y-90846872D01*
X126317519Y-90853885D01*
X126317521Y-90853891D01*
X126318450Y-90856340D01*
X126324475Y-90877952D01*
X126324951Y-90880551D01*
X126324954Y-90880560D01*
X126326305Y-90887932D01*
X126329382Y-90894769D01*
X126329383Y-90894772D01*
X126350991Y-90942784D01*
X126353857Y-90949702D01*
X126375182Y-91005930D01*
X126379442Y-91012102D01*
X126379445Y-91012107D01*
X126380937Y-91014268D01*
X126391959Y-91033810D01*
X126393039Y-91036210D01*
X126393044Y-91036219D01*
X126396122Y-91043057D01*
X126400745Y-91048958D01*
X126400747Y-91048961D01*
X126433216Y-91090404D01*
X126437636Y-91096410D01*
X126471817Y-91145929D01*
X126516847Y-91185822D01*
X126522282Y-91190939D01*
X134644181Y-99312838D01*
X134671061Y-99353066D01*
X134680500Y-99400519D01*
X134680500Y-106436242D01*
X134671061Y-106483695D01*
X134644181Y-106523923D01*
X134601334Y-106566769D01*
X134601328Y-106566775D01*
X134597505Y-106570599D01*
X134594402Y-106575029D01*
X134594399Y-106575034D01*
X134467575Y-106756159D01*
X134423257Y-106795025D01*
X134366000Y-106809036D01*
X134308743Y-106795025D01*
X134264425Y-106756159D01*
X134158504Y-106604888D01*
X134134495Y-106570599D01*
X133967401Y-106403505D01*
X133962970Y-106400402D01*
X133962966Y-106400399D01*
X133778259Y-106271066D01*
X133778257Y-106271064D01*
X133773830Y-106267965D01*
X133768933Y-106265681D01*
X133768927Y-106265678D01*
X133564572Y-106170386D01*
X133564570Y-106170385D01*
X133559663Y-106168097D01*
X133554438Y-106166697D01*
X133554430Y-106166694D01*
X133336634Y-106108337D01*
X133336630Y-106108336D01*
X133331408Y-106106937D01*
X133326020Y-106106465D01*
X133326017Y-106106465D01*
X133101395Y-106086813D01*
X133096000Y-106086341D01*
X133090605Y-106086813D01*
X132865982Y-106106465D01*
X132865977Y-106106465D01*
X132860592Y-106106937D01*
X132855371Y-106108335D01*
X132855365Y-106108337D01*
X132637569Y-106166694D01*
X132637557Y-106166698D01*
X132632337Y-106168097D01*
X132627432Y-106170383D01*
X132627427Y-106170386D01*
X132423081Y-106265675D01*
X132423077Y-106265677D01*
X132418171Y-106267965D01*
X132413738Y-106271068D01*
X132413731Y-106271073D01*
X132229034Y-106400399D01*
X132229029Y-106400402D01*
X132224599Y-106403505D01*
X132220775Y-106407328D01*
X132220769Y-106407334D01*
X132061334Y-106566769D01*
X132061328Y-106566775D01*
X132057505Y-106570599D01*
X132054402Y-106575029D01*
X132054399Y-106575034D01*
X131927575Y-106756159D01*
X131883257Y-106795025D01*
X131826000Y-106809036D01*
X131768743Y-106795025D01*
X131724425Y-106756159D01*
X131618504Y-106604888D01*
X131594495Y-106570599D01*
X131427401Y-106403505D01*
X131422970Y-106400402D01*
X131422966Y-106400399D01*
X131238259Y-106271066D01*
X131238257Y-106271064D01*
X131233830Y-106267965D01*
X131228933Y-106265681D01*
X131228927Y-106265678D01*
X131024572Y-106170386D01*
X131024570Y-106170385D01*
X131019663Y-106168097D01*
X131014438Y-106166697D01*
X131014430Y-106166694D01*
X130796634Y-106108337D01*
X130796630Y-106108336D01*
X130791408Y-106106937D01*
X130786020Y-106106465D01*
X130786017Y-106106465D01*
X130561395Y-106086813D01*
X130556000Y-106086341D01*
X130550605Y-106086813D01*
X130325982Y-106106465D01*
X130325977Y-106106465D01*
X130320592Y-106106937D01*
X130315371Y-106108335D01*
X130315365Y-106108337D01*
X130097569Y-106166694D01*
X130097557Y-106166698D01*
X130092337Y-106168097D01*
X130087432Y-106170383D01*
X130087427Y-106170386D01*
X129883081Y-106265675D01*
X129883077Y-106265677D01*
X129878171Y-106267965D01*
X129873738Y-106271068D01*
X129873731Y-106271073D01*
X129689034Y-106400399D01*
X129689029Y-106400402D01*
X129684599Y-106403505D01*
X129680775Y-106407328D01*
X129680769Y-106407334D01*
X129521334Y-106566769D01*
X129521328Y-106566775D01*
X129517505Y-106570599D01*
X129514402Y-106575029D01*
X129514399Y-106575034D01*
X129387575Y-106756159D01*
X129343257Y-106795025D01*
X129286000Y-106809036D01*
X129228743Y-106795025D01*
X129184425Y-106756159D01*
X129078504Y-106604888D01*
X129054495Y-106570599D01*
X128887401Y-106403505D01*
X128769376Y-106320863D01*
X128730511Y-106276546D01*
X128716500Y-106219289D01*
X128716500Y-95528910D01*
X128716726Y-95521423D01*
X128719904Y-95468881D01*
X128720357Y-95461394D01*
X128709516Y-95402235D01*
X128708389Y-95394830D01*
X128708118Y-95392602D01*
X128701140Y-95335128D01*
X128698480Y-95328116D01*
X128698480Y-95328113D01*
X128697547Y-95325653D01*
X128691520Y-95304035D01*
X128689694Y-95294068D01*
X128665012Y-95239228D01*
X128662145Y-95232306D01*
X128643479Y-95183087D01*
X128640818Y-95176070D01*
X128636556Y-95169896D01*
X128636552Y-95169888D01*
X128635058Y-95167724D01*
X128624032Y-95148175D01*
X128622956Y-95145785D01*
X128619877Y-95138943D01*
X128582788Y-95091602D01*
X128578349Y-95085569D01*
X128548442Y-95042241D01*
X128548441Y-95042240D01*
X128544183Y-95036071D01*
X128499170Y-94996193D01*
X128493716Y-94991059D01*
X126148504Y-92645847D01*
X126124264Y-92611549D01*
X126112864Y-92571127D01*
X126110022Y-92544087D01*
X126107674Y-92521744D01*
X126049179Y-92341716D01*
X125954533Y-92177784D01*
X125827871Y-92037112D01*
X125822613Y-92033292D01*
X125822611Y-92033290D01*
X125679988Y-91929669D01*
X125679987Y-91929668D01*
X125674730Y-91925849D01*
X125668792Y-91923205D01*
X125507745Y-91851501D01*
X125507740Y-91851499D01*
X125501803Y-91848856D01*
X125495444Y-91847504D01*
X125495440Y-91847503D01*
X125323008Y-91810852D01*
X125323005Y-91810851D01*
X125316646Y-91809500D01*
X125127354Y-91809500D01*
X125120995Y-91810851D01*
X125120991Y-91810852D01*
X124948559Y-91847503D01*
X124948552Y-91847505D01*
X124942197Y-91848856D01*
X124936262Y-91851498D01*
X124936254Y-91851501D01*
X124775207Y-91923205D01*
X124775202Y-91923207D01*
X124769270Y-91925849D01*
X124764016Y-91929665D01*
X124764011Y-91929669D01*
X124621388Y-92033290D01*
X124621381Y-92033295D01*
X124616129Y-92037112D01*
X124611784Y-92041937D01*
X124611779Y-92041942D01*
X124493813Y-92172956D01*
X124493808Y-92172962D01*
X124489467Y-92177784D01*
X124486222Y-92183404D01*
X124486218Y-92183410D01*
X124398069Y-92336089D01*
X124398066Y-92336094D01*
X124394821Y-92341716D01*
X124392815Y-92347888D01*
X124392813Y-92347894D01*
X124338333Y-92515564D01*
X124338331Y-92515573D01*
X124336326Y-92521744D01*
X124335648Y-92528194D01*
X124335646Y-92528204D01*
X124322313Y-92655068D01*
X124316540Y-92710000D01*
X124317219Y-92716460D01*
X124335646Y-92891795D01*
X124335647Y-92891803D01*
X124336326Y-92898256D01*
X124338331Y-92904428D01*
X124338333Y-92904435D01*
X124392813Y-93072105D01*
X124394821Y-93078284D01*
X124398068Y-93083908D01*
X124398069Y-93083910D01*
X124437528Y-93152256D01*
X124489467Y-93242216D01*
X124493811Y-93247041D01*
X124493813Y-93247043D01*
X124611779Y-93378057D01*
X124616129Y-93382888D01*
X124769270Y-93494151D01*
X124942197Y-93571144D01*
X125097127Y-93604075D01*
X125130514Y-93616392D01*
X125159027Y-93637684D01*
X127279181Y-95757838D01*
X127306061Y-95798066D01*
X127315500Y-95845519D01*
X127315500Y-106219289D01*
X127301489Y-106276546D01*
X127262623Y-106320864D01*
X127149034Y-106400399D01*
X127149029Y-106400402D01*
X127144599Y-106403505D01*
X127140775Y-106407328D01*
X127140769Y-106407334D01*
X126981334Y-106566769D01*
X126981328Y-106566775D01*
X126977505Y-106570599D01*
X126974402Y-106575029D01*
X126974399Y-106575034D01*
X126847575Y-106756159D01*
X126803257Y-106795025D01*
X126746000Y-106809036D01*
X126688743Y-106795025D01*
X126644425Y-106756159D01*
X126538504Y-106604888D01*
X126514495Y-106570599D01*
X126347401Y-106403505D01*
X126342970Y-106400402D01*
X126342966Y-106400399D01*
X126158259Y-106271066D01*
X126158257Y-106271064D01*
X126153830Y-106267965D01*
X126148933Y-106265681D01*
X126148927Y-106265678D01*
X125944572Y-106170386D01*
X125944570Y-106170385D01*
X125939663Y-106168097D01*
X125934438Y-106166697D01*
X125934430Y-106166694D01*
X125716634Y-106108337D01*
X125716630Y-106108336D01*
X125711408Y-106106937D01*
X125706020Y-106106465D01*
X125706017Y-106106465D01*
X125481395Y-106086813D01*
X125476000Y-106086341D01*
X125470605Y-106086813D01*
X125245982Y-106106465D01*
X125245977Y-106106465D01*
X125240592Y-106106937D01*
X125235371Y-106108335D01*
X125235365Y-106108337D01*
X125017569Y-106166694D01*
X125017557Y-106166698D01*
X125012337Y-106168097D01*
X125007432Y-106170383D01*
X125007427Y-106170386D01*
X124803081Y-106265675D01*
X124803077Y-106265677D01*
X124798171Y-106267965D01*
X124793738Y-106271068D01*
X124793731Y-106271073D01*
X124609034Y-106400399D01*
X124609029Y-106400402D01*
X124604599Y-106403505D01*
X124600775Y-106407328D01*
X124600769Y-106407334D01*
X124441334Y-106566769D01*
X124441328Y-106566775D01*
X124437505Y-106570599D01*
X124434403Y-106575028D01*
X124434403Y-106575029D01*
X124307269Y-106756596D01*
X124262951Y-106795461D01*
X124205694Y-106809472D01*
X124148437Y-106795461D01*
X124104119Y-106756595D01*
X123977215Y-106575357D01*
X123970280Y-106567092D01*
X123810909Y-106407721D01*
X123802643Y-106400784D01*
X123618008Y-106271501D01*
X123608676Y-106266113D01*
X123404397Y-106170856D01*
X123394263Y-106167168D01*
X123199780Y-106115056D01*
X123188551Y-106114688D01*
X123186000Y-106125631D01*
X123186000Y-108758369D01*
X122686000Y-108758369D01*
X122686000Y-106125631D01*
X122683448Y-106114688D01*
X122672219Y-106115056D01*
X122477736Y-106167168D01*
X122467602Y-106170856D01*
X122263332Y-106266110D01*
X122253982Y-106271508D01*
X122069357Y-106400784D01*
X122061092Y-106407719D01*
X121901719Y-106567092D01*
X121894788Y-106575352D01*
X121767880Y-106756596D01*
X121723562Y-106795461D01*
X121666305Y-106809472D01*
X121609048Y-106795461D01*
X121564730Y-106756595D01*
X121458504Y-106604888D01*
X121434495Y-106570599D01*
X121267401Y-106403505D01*
X121262970Y-106400402D01*
X121262966Y-106400399D01*
X121078259Y-106271066D01*
X121078257Y-106271064D01*
X121073830Y-106267965D01*
X121068933Y-106265681D01*
X121068927Y-106265678D01*
X120864572Y-106170386D01*
X120864570Y-106170385D01*
X120859663Y-106168097D01*
X120854438Y-106166697D01*
X120854430Y-106166694D01*
X120636634Y-106108337D01*
X120636630Y-106108336D01*
X120631408Y-106106937D01*
X120626020Y-106106465D01*
X120626017Y-106106465D01*
X120401395Y-106086813D01*
X120396000Y-106086341D01*
X120390605Y-106086813D01*
X120165982Y-106106465D01*
X120165977Y-106106465D01*
X120160592Y-106106937D01*
X120155371Y-106108335D01*
X120155365Y-106108337D01*
X119937569Y-106166694D01*
X119937557Y-106166698D01*
X119932337Y-106168097D01*
X119927432Y-106170383D01*
X119927427Y-106170386D01*
X119723081Y-106265675D01*
X119723077Y-106265677D01*
X119718171Y-106267965D01*
X119713738Y-106271068D01*
X119713731Y-106271073D01*
X119529034Y-106400399D01*
X119529029Y-106400402D01*
X119524599Y-106403505D01*
X119520775Y-106407328D01*
X119520769Y-106407334D01*
X119361334Y-106566769D01*
X119361328Y-106566775D01*
X119357505Y-106570599D01*
X119354402Y-106575029D01*
X119354399Y-106575034D01*
X119225067Y-106759739D01*
X119225060Y-106759749D01*
X119221965Y-106764171D01*
X119219686Y-106769058D01*
X119219674Y-106769079D01*
X119207473Y-106795246D01*
X119170577Y-106841217D01*
X119116624Y-106864956D01*
X119057804Y-106861101D01*
X119007411Y-106830521D01*
X112496819Y-100319929D01*
X112469939Y-100279701D01*
X112460500Y-100232248D01*
X112460500Y-99060000D01*
X116950540Y-99060000D01*
X116951219Y-99066460D01*
X116969646Y-99241795D01*
X116969647Y-99241803D01*
X116970326Y-99248256D01*
X116972331Y-99254428D01*
X116972333Y-99254435D01*
X117026813Y-99422105D01*
X117028821Y-99428284D01*
X117123467Y-99592216D01*
X117250129Y-99732888D01*
X117403270Y-99844151D01*
X117576197Y-99921144D01*
X117761354Y-99960500D01*
X117944143Y-99960500D01*
X117950646Y-99960500D01*
X118135803Y-99921144D01*
X118308730Y-99844151D01*
X118461871Y-99732888D01*
X118588533Y-99592216D01*
X118683179Y-99428284D01*
X118741674Y-99248256D01*
X118746864Y-99198870D01*
X118758264Y-99158449D01*
X118782501Y-99124154D01*
X119603731Y-98302924D01*
X119609151Y-98297822D01*
X119654183Y-98257929D01*
X119688355Y-98208420D01*
X119692775Y-98202413D01*
X119729878Y-98155057D01*
X119734033Y-98145822D01*
X119745063Y-98126265D01*
X119750818Y-98117930D01*
X119772146Y-98061688D01*
X119775002Y-98054791D01*
X119799694Y-97999932D01*
X119801518Y-97989974D01*
X119807548Y-97968340D01*
X119811140Y-97958872D01*
X119818389Y-97899165D01*
X119819516Y-97891762D01*
X119830357Y-97832606D01*
X119826726Y-97772577D01*
X119826500Y-97765090D01*
X119826500Y-82296000D01*
X124062540Y-82296000D01*
X124063219Y-82302460D01*
X124081646Y-82477795D01*
X124081647Y-82477803D01*
X124082326Y-82484256D01*
X124084331Y-82490428D01*
X124084333Y-82490435D01*
X124138813Y-82658105D01*
X124140821Y-82664284D01*
X124144068Y-82669908D01*
X124144069Y-82669910D01*
X124208936Y-82782264D01*
X124235467Y-82828216D01*
X124239811Y-82833041D01*
X124239813Y-82833043D01*
X124335473Y-82939284D01*
X124362129Y-82968888D01*
X124367387Y-82972708D01*
X124367388Y-82972709D01*
X124389103Y-82988486D01*
X124515270Y-83080151D01*
X124688197Y-83157144D01*
X124873354Y-83196500D01*
X124982909Y-83196500D01*
X125012583Y-83200103D01*
X125014116Y-83200480D01*
X125021128Y-83203140D01*
X125078297Y-83210081D01*
X125080830Y-83210389D01*
X125088235Y-83211516D01*
X125104066Y-83214416D01*
X125147394Y-83222357D01*
X125207421Y-83218726D01*
X125214909Y-83218500D01*
X136796481Y-83218500D01*
X136843934Y-83227939D01*
X136884162Y-83254819D01*
X137321348Y-83692005D01*
X137353442Y-83747591D01*
X137353442Y-83811778D01*
X137350338Y-83823361D01*
X137350337Y-83823365D01*
X137348937Y-83828592D01*
X137328341Y-84064000D01*
X137328813Y-84069395D01*
X137344321Y-84246656D01*
X137348937Y-84299408D01*
X137350336Y-84304630D01*
X137350337Y-84304634D01*
X137408694Y-84522430D01*
X137408697Y-84522438D01*
X137410097Y-84527663D01*
X137412385Y-84532570D01*
X137412386Y-84532572D01*
X137507678Y-84736927D01*
X137507681Y-84736933D01*
X137509965Y-84741830D01*
X137513064Y-84746257D01*
X137513066Y-84746259D01*
X137642399Y-84930966D01*
X137642402Y-84930970D01*
X137645505Y-84935401D01*
X137649336Y-84939232D01*
X137767430Y-85057326D01*
X137798726Y-85110072D01*
X137800915Y-85171365D01*
X137773462Y-85226210D01*
X137723083Y-85261189D01*
X137607702Y-85304223D01*
X137591669Y-85310204D01*
X137584572Y-85315516D01*
X137584568Y-85315519D01*
X137483550Y-85391141D01*
X137483546Y-85391144D01*
X137476454Y-85396454D01*
X137471144Y-85403546D01*
X137471141Y-85403550D01*
X137395519Y-85504568D01*
X137395516Y-85504572D01*
X137390204Y-85511669D01*
X137387104Y-85519978D01*
X137387104Y-85519980D01*
X137342620Y-85639247D01*
X137342619Y-85639250D01*
X137339909Y-85646517D01*
X137339079Y-85654227D01*
X137339079Y-85654232D01*
X137333855Y-85702819D01*
X137333854Y-85702831D01*
X137333500Y-85706127D01*
X137333500Y-85709449D01*
X137333500Y-85779500D01*
X137316887Y-85841500D01*
X137271500Y-85886887D01*
X137209500Y-85903500D01*
X132368910Y-85903500D01*
X132361423Y-85903274D01*
X132308881Y-85900095D01*
X132308873Y-85900095D01*
X132301394Y-85899643D01*
X132294019Y-85900994D01*
X132294009Y-85900995D01*
X132242242Y-85910481D01*
X132234843Y-85911608D01*
X132182567Y-85917956D01*
X132182561Y-85917957D01*
X132175128Y-85918860D01*
X132168123Y-85921516D01*
X132168112Y-85921519D01*
X132165639Y-85922457D01*
X132144041Y-85928478D01*
X132141451Y-85928952D01*
X132141444Y-85928954D01*
X132134068Y-85930306D01*
X132127225Y-85933385D01*
X132127227Y-85933385D01*
X132079234Y-85954984D01*
X132072318Y-85957848D01*
X132023088Y-85976519D01*
X132023078Y-85976523D01*
X132016070Y-85979182D01*
X132009899Y-85983441D01*
X132009894Y-85983444D01*
X132007722Y-85984944D01*
X131988187Y-85995962D01*
X131985784Y-85997043D01*
X131985777Y-85997047D01*
X131978943Y-86000123D01*
X131973043Y-86004745D01*
X131973040Y-86004747D01*
X131931595Y-86037216D01*
X131925566Y-86041651D01*
X131882249Y-86071551D01*
X131882241Y-86071557D01*
X131876071Y-86075817D01*
X131871101Y-86081426D01*
X131871094Y-86081433D01*
X131836184Y-86120838D01*
X131831051Y-86126290D01*
X129985027Y-87972315D01*
X129956514Y-87993607D01*
X129923128Y-88005924D01*
X129774557Y-88037504D01*
X129774555Y-88037504D01*
X129768197Y-88038856D01*
X129762262Y-88041498D01*
X129762254Y-88041501D01*
X129601207Y-88113205D01*
X129601202Y-88113207D01*
X129595270Y-88115849D01*
X129590016Y-88119665D01*
X129590011Y-88119669D01*
X129447388Y-88223290D01*
X129447381Y-88223295D01*
X129442129Y-88227112D01*
X129437784Y-88231937D01*
X129437779Y-88231942D01*
X129319813Y-88362956D01*
X129319808Y-88362962D01*
X129315467Y-88367784D01*
X129312222Y-88373404D01*
X129312218Y-88373410D01*
X129224069Y-88526089D01*
X129224066Y-88526094D01*
X129220821Y-88531716D01*
X129218815Y-88537888D01*
X129218813Y-88537894D01*
X129164333Y-88705564D01*
X129164331Y-88705573D01*
X129162326Y-88711744D01*
X129161648Y-88718194D01*
X129161646Y-88718204D01*
X129143962Y-88886464D01*
X129142540Y-88900000D01*
X129143219Y-88906460D01*
X129161646Y-89081795D01*
X129161647Y-89081803D01*
X129162326Y-89088256D01*
X129164331Y-89094428D01*
X129164333Y-89094435D01*
X129218813Y-89262105D01*
X129220821Y-89268284D01*
X129315467Y-89432216D01*
X129442129Y-89572888D01*
X129595270Y-89684151D01*
X129768197Y-89761144D01*
X129953354Y-89800500D01*
X130136143Y-89800500D01*
X130142646Y-89800500D01*
X130327803Y-89761144D01*
X130500730Y-89684151D01*
X130653871Y-89572888D01*
X130780533Y-89432216D01*
X130875179Y-89268284D01*
X130933674Y-89088256D01*
X130938864Y-89038870D01*
X130950264Y-88998449D01*
X130974501Y-88964154D01*
X132597837Y-87340819D01*
X132638066Y-87313939D01*
X132685519Y-87304500D01*
X137209501Y-87304500D01*
X137271501Y-87321113D01*
X137316888Y-87366500D01*
X137333501Y-87428500D01*
X137333501Y-87501872D01*
X137333853Y-87505150D01*
X137333854Y-87505161D01*
X137339079Y-87553768D01*
X137339080Y-87553773D01*
X137339909Y-87561483D01*
X137342619Y-87568749D01*
X137342620Y-87568753D01*
X137376217Y-87658831D01*
X137390204Y-87696331D01*
X137476454Y-87811546D01*
X137591669Y-87897796D01*
X137726517Y-87948091D01*
X137786127Y-87954500D01*
X139581872Y-87954499D01*
X139641483Y-87948091D01*
X139776331Y-87897796D01*
X139891546Y-87811546D01*
X139977796Y-87696331D01*
X140028091Y-87561483D01*
X140034500Y-87501873D01*
X140034499Y-85706128D01*
X140028091Y-85646517D01*
X139977796Y-85511669D01*
X139891546Y-85396454D01*
X139776331Y-85310204D01*
X139706359Y-85284106D01*
X139644916Y-85261189D01*
X139594537Y-85226210D01*
X139567084Y-85171365D01*
X139569273Y-85110072D01*
X139600566Y-85057329D01*
X139722495Y-84935401D01*
X139858035Y-84741830D01*
X139957903Y-84527663D01*
X140019063Y-84299408D01*
X140039659Y-84064000D01*
X140019063Y-83828592D01*
X139957903Y-83600337D01*
X139858035Y-83386171D01*
X139722495Y-83192599D01*
X139555401Y-83025505D01*
X139550968Y-83022401D01*
X139550961Y-83022395D01*
X139369842Y-82895575D01*
X139330976Y-82851257D01*
X139316965Y-82794000D01*
X139330976Y-82736743D01*
X139369842Y-82692425D01*
X139550961Y-82565604D01*
X139550961Y-82565603D01*
X139555401Y-82562495D01*
X139722495Y-82395401D01*
X139858035Y-82201830D01*
X139957903Y-81987663D01*
X140019063Y-81759408D01*
X140039659Y-81524000D01*
X140019063Y-81288592D01*
X139957903Y-81060337D01*
X139858035Y-80846171D01*
X139722495Y-80652599D01*
X139555401Y-80485505D01*
X139550970Y-80482402D01*
X139550966Y-80482399D01*
X139369405Y-80355269D01*
X139330540Y-80310951D01*
X139316529Y-80253694D01*
X139330540Y-80196437D01*
X139369406Y-80152119D01*
X139550638Y-80025219D01*
X139558909Y-80018278D01*
X139718278Y-79858909D01*
X139725215Y-79850643D01*
X139854498Y-79666008D01*
X139859886Y-79656676D01*
X139955143Y-79452397D01*
X139958831Y-79442263D01*
X140010943Y-79247780D01*
X140011311Y-79236551D01*
X140000369Y-79234000D01*
X137367631Y-79234000D01*
X137356688Y-79236551D01*
X137357056Y-79247780D01*
X137409168Y-79442263D01*
X137412856Y-79452397D01*
X137508113Y-79656676D01*
X137513501Y-79666008D01*
X137642784Y-79850643D01*
X137649721Y-79858909D01*
X137809090Y-80018278D01*
X137817356Y-80025215D01*
X137998595Y-80152120D01*
X138037460Y-80196438D01*
X138051471Y-80253695D01*
X138037460Y-80310952D01*
X137998594Y-80355270D01*
X137817034Y-80482399D01*
X137817029Y-80482402D01*
X137812599Y-80485505D01*
X137808775Y-80489328D01*
X137808769Y-80489334D01*
X137649334Y-80648769D01*
X137649328Y-80648775D01*
X137645505Y-80652599D01*
X137642402Y-80657029D01*
X137642399Y-80657034D01*
X137513073Y-80841731D01*
X137513068Y-80841738D01*
X137509965Y-80846171D01*
X137507677Y-80851077D01*
X137507675Y-80851081D01*
X137412386Y-81055427D01*
X137412383Y-81055432D01*
X137410097Y-81060337D01*
X137408698Y-81065557D01*
X137408694Y-81065569D01*
X137350337Y-81283365D01*
X137350335Y-81283371D01*
X137348937Y-81288592D01*
X137348465Y-81293977D01*
X137348465Y-81293982D01*
X137336140Y-81434856D01*
X137328341Y-81524000D01*
X137328813Y-81529395D01*
X137342319Y-81683766D01*
X137334285Y-81739709D01*
X137302259Y-81786275D01*
X137252895Y-81813792D01*
X137196446Y-81816544D01*
X137187987Y-81814994D01*
X137187982Y-81814993D01*
X137180606Y-81813642D01*
X137173126Y-81814094D01*
X137173118Y-81814094D01*
X137120567Y-81817274D01*
X137113079Y-81817500D01*
X125801901Y-81817500D01*
X125745605Y-81803984D01*
X125702473Y-81767145D01*
X125700533Y-81763784D01*
X125573871Y-81623112D01*
X125568613Y-81619292D01*
X125568611Y-81619290D01*
X125425988Y-81515669D01*
X125425987Y-81515668D01*
X125420730Y-81511849D01*
X125414792Y-81509205D01*
X125253745Y-81437501D01*
X125253740Y-81437499D01*
X125247803Y-81434856D01*
X125241444Y-81433504D01*
X125241440Y-81433503D01*
X125069008Y-81396852D01*
X125069005Y-81396851D01*
X125062646Y-81395500D01*
X124873354Y-81395500D01*
X124866995Y-81396851D01*
X124866991Y-81396852D01*
X124694559Y-81433503D01*
X124694552Y-81433505D01*
X124688197Y-81434856D01*
X124682262Y-81437498D01*
X124682254Y-81437501D01*
X124521207Y-81509205D01*
X124521202Y-81509207D01*
X124515270Y-81511849D01*
X124510016Y-81515665D01*
X124510011Y-81515669D01*
X124367388Y-81619290D01*
X124367381Y-81619295D01*
X124362129Y-81623112D01*
X124357784Y-81627937D01*
X124357779Y-81627942D01*
X124239813Y-81758956D01*
X124239808Y-81758962D01*
X124235467Y-81763784D01*
X124232222Y-81769404D01*
X124232218Y-81769410D01*
X124144069Y-81922089D01*
X124144066Y-81922094D01*
X124140821Y-81927716D01*
X124138815Y-81933888D01*
X124138813Y-81933894D01*
X124084333Y-82101564D01*
X124084331Y-82101573D01*
X124082326Y-82107744D01*
X124081648Y-82114194D01*
X124081646Y-82114204D01*
X124063962Y-82282464D01*
X124062540Y-82296000D01*
X119826500Y-82296000D01*
X119826500Y-80264000D01*
X126094540Y-80264000D01*
X126095219Y-80270460D01*
X126113646Y-80445795D01*
X126113647Y-80445803D01*
X126114326Y-80452256D01*
X126116331Y-80458428D01*
X126116333Y-80458435D01*
X126145124Y-80547043D01*
X126172821Y-80632284D01*
X126176068Y-80637908D01*
X126176069Y-80637910D01*
X126264068Y-80790330D01*
X126267467Y-80796216D01*
X126271811Y-80801041D01*
X126271813Y-80801043D01*
X126336150Y-80872496D01*
X126394129Y-80936888D01*
X126547270Y-81048151D01*
X126720197Y-81125144D01*
X126905354Y-81164500D01*
X127088143Y-81164500D01*
X127094646Y-81164500D01*
X127279803Y-81125144D01*
X127452730Y-81048151D01*
X127535273Y-80988179D01*
X127569837Y-80970569D01*
X127608155Y-80964500D01*
X135103079Y-80964500D01*
X135110566Y-80964725D01*
X135170606Y-80968358D01*
X135229782Y-80957513D01*
X135237181Y-80956387D01*
X135296872Y-80949140D01*
X135306332Y-80945551D01*
X135327959Y-80939522D01*
X135337932Y-80937695D01*
X135374082Y-80921424D01*
X135424973Y-80910500D01*
X135470143Y-80910500D01*
X135476646Y-80910500D01*
X135661803Y-80871144D01*
X135834730Y-80794151D01*
X135987871Y-80682888D01*
X136114533Y-80542216D01*
X136209179Y-80378284D01*
X136267674Y-80198256D01*
X136287460Y-80010000D01*
X136267674Y-79821744D01*
X136209179Y-79641716D01*
X136114533Y-79477784D01*
X136091674Y-79452397D01*
X135992220Y-79341942D01*
X135992219Y-79341941D01*
X135987871Y-79337112D01*
X135982613Y-79333292D01*
X135982611Y-79333290D01*
X135839988Y-79229669D01*
X135839987Y-79229668D01*
X135834730Y-79225849D01*
X135828792Y-79223205D01*
X135667745Y-79151501D01*
X135667740Y-79151499D01*
X135661803Y-79148856D01*
X135655444Y-79147504D01*
X135655440Y-79147503D01*
X135483008Y-79110852D01*
X135483005Y-79110851D01*
X135476646Y-79109500D01*
X135287354Y-79109500D01*
X135280995Y-79110851D01*
X135280991Y-79110852D01*
X135108559Y-79147503D01*
X135108552Y-79147505D01*
X135102197Y-79148856D01*
X135096262Y-79151498D01*
X135096254Y-79151501D01*
X134935207Y-79223205D01*
X134935202Y-79223207D01*
X134929270Y-79225849D01*
X134924016Y-79229665D01*
X134924011Y-79229669D01*
X134781388Y-79333290D01*
X134781381Y-79333295D01*
X134776129Y-79337112D01*
X134771784Y-79341937D01*
X134771779Y-79341942D01*
X134653813Y-79472956D01*
X134653808Y-79472962D01*
X134649467Y-79477784D01*
X134635774Y-79501500D01*
X134590389Y-79546887D01*
X134528388Y-79563500D01*
X127608155Y-79563500D01*
X127569837Y-79557431D01*
X127535273Y-79539820D01*
X127452730Y-79479849D01*
X127446792Y-79477205D01*
X127285745Y-79405501D01*
X127285740Y-79405499D01*
X127279803Y-79402856D01*
X127273444Y-79401504D01*
X127273440Y-79401503D01*
X127101008Y-79364852D01*
X127101005Y-79364851D01*
X127094646Y-79363500D01*
X126905354Y-79363500D01*
X126898995Y-79364851D01*
X126898991Y-79364852D01*
X126726559Y-79401503D01*
X126726552Y-79401505D01*
X126720197Y-79402856D01*
X126714262Y-79405498D01*
X126714254Y-79405501D01*
X126553207Y-79477205D01*
X126553202Y-79477207D01*
X126547270Y-79479849D01*
X126542016Y-79483665D01*
X126542011Y-79483669D01*
X126399388Y-79587290D01*
X126399381Y-79587295D01*
X126394129Y-79591112D01*
X126389784Y-79595937D01*
X126389779Y-79595942D01*
X126271813Y-79726956D01*
X126271808Y-79726962D01*
X126267467Y-79731784D01*
X126264222Y-79737404D01*
X126264218Y-79737410D01*
X126176069Y-79890089D01*
X126176066Y-79890094D01*
X126172821Y-79895716D01*
X126170815Y-79901888D01*
X126170813Y-79901894D01*
X126116333Y-80069564D01*
X126116331Y-80069573D01*
X126114326Y-80075744D01*
X126113648Y-80082194D01*
X126113646Y-80082204D01*
X126100179Y-80210347D01*
X126094540Y-80264000D01*
X119826500Y-80264000D01*
X119826500Y-79101392D01*
X119834749Y-79056920D01*
X119851703Y-79029279D01*
X119850363Y-79028306D01*
X119854184Y-79023045D01*
X119858533Y-79018216D01*
X119953179Y-78854284D01*
X119993091Y-78731448D01*
X137356688Y-78731448D01*
X137367631Y-78734000D01*
X138417674Y-78734000D01*
X138430549Y-78730549D01*
X138434000Y-78717674D01*
X138934000Y-78717674D01*
X138937450Y-78730549D01*
X138950326Y-78734000D01*
X140000369Y-78734000D01*
X140011311Y-78731448D01*
X140010943Y-78720219D01*
X139958831Y-78525736D01*
X139955143Y-78515602D01*
X139859889Y-78311332D01*
X139854491Y-78301982D01*
X139725215Y-78117357D01*
X139718280Y-78109092D01*
X139558909Y-77949721D01*
X139550643Y-77942784D01*
X139366008Y-77813501D01*
X139356676Y-77808113D01*
X139152397Y-77712856D01*
X139142263Y-77709168D01*
X138947780Y-77657056D01*
X138936551Y-77656688D01*
X138934000Y-77667631D01*
X138934000Y-78717674D01*
X138434000Y-78717674D01*
X138434000Y-77667631D01*
X138431448Y-77656688D01*
X138420219Y-77657056D01*
X138225736Y-77709168D01*
X138215602Y-77712856D01*
X138011332Y-77808110D01*
X138001982Y-77813508D01*
X137817357Y-77942784D01*
X137809092Y-77949719D01*
X137649719Y-78109092D01*
X137642784Y-78117357D01*
X137513508Y-78301982D01*
X137508110Y-78311332D01*
X137412856Y-78515602D01*
X137409168Y-78525736D01*
X137357056Y-78720219D01*
X137356688Y-78731448D01*
X119993091Y-78731448D01*
X120011674Y-78674256D01*
X120031460Y-78486000D01*
X120011674Y-78297744D01*
X119953179Y-78117716D01*
X119858533Y-77953784D01*
X119790343Y-77878052D01*
X119736220Y-77817942D01*
X119736219Y-77817941D01*
X119731871Y-77813112D01*
X119726613Y-77809292D01*
X119726611Y-77809290D01*
X119583988Y-77705669D01*
X119583987Y-77705668D01*
X119578730Y-77701849D01*
X119572792Y-77699205D01*
X119411745Y-77627501D01*
X119411740Y-77627499D01*
X119405803Y-77624856D01*
X119399444Y-77623504D01*
X119399440Y-77623503D01*
X119227008Y-77586852D01*
X119227005Y-77586851D01*
X119220646Y-77585500D01*
X119031354Y-77585500D01*
X119024995Y-77586851D01*
X119024991Y-77586852D01*
X118852559Y-77623503D01*
X118852552Y-77623505D01*
X118846197Y-77624856D01*
X118840262Y-77627498D01*
X118840254Y-77627501D01*
X118679207Y-77699205D01*
X118679202Y-77699207D01*
X118673270Y-77701849D01*
X118668016Y-77705665D01*
X118668011Y-77705669D01*
X118525388Y-77809290D01*
X118525381Y-77809295D01*
X118520129Y-77813112D01*
X118515784Y-77817937D01*
X118515779Y-77817942D01*
X118397813Y-77948956D01*
X118397808Y-77948962D01*
X118393467Y-77953784D01*
X118390222Y-77959404D01*
X118390218Y-77959410D01*
X118302069Y-78112089D01*
X118302066Y-78112094D01*
X118298821Y-78117716D01*
X118296815Y-78123888D01*
X118296813Y-78123894D01*
X118242333Y-78291564D01*
X118242331Y-78291573D01*
X118240326Y-78297744D01*
X118239648Y-78304194D01*
X118239646Y-78304204D01*
X118234879Y-78349567D01*
X118220540Y-78486000D01*
X118221219Y-78492460D01*
X118239646Y-78667795D01*
X118239647Y-78667803D01*
X118240326Y-78674256D01*
X118242331Y-78680428D01*
X118242333Y-78680435D01*
X118259738Y-78734000D01*
X118298821Y-78854284D01*
X118302068Y-78859908D01*
X118302069Y-78859910D01*
X118354441Y-78950621D01*
X118393467Y-79018216D01*
X118397813Y-79023043D01*
X118401637Y-79028306D01*
X118400296Y-79029279D01*
X118417251Y-79056920D01*
X118425500Y-79101392D01*
X118425500Y-97448481D01*
X118416061Y-97495934D01*
X118389181Y-97536162D01*
X117793027Y-98132315D01*
X117764514Y-98153607D01*
X117731128Y-98165924D01*
X117582557Y-98197504D01*
X117582555Y-98197504D01*
X117576197Y-98198856D01*
X117570262Y-98201498D01*
X117570254Y-98201501D01*
X117409207Y-98273205D01*
X117409202Y-98273207D01*
X117403270Y-98275849D01*
X117398016Y-98279665D01*
X117398011Y-98279669D01*
X117255388Y-98383290D01*
X117255381Y-98383295D01*
X117250129Y-98387112D01*
X117245784Y-98391937D01*
X117245779Y-98391942D01*
X117127813Y-98522956D01*
X117127808Y-98522962D01*
X117123467Y-98527784D01*
X117120222Y-98533404D01*
X117120218Y-98533410D01*
X117032069Y-98686089D01*
X117032066Y-98686094D01*
X117028821Y-98691716D01*
X117026815Y-98697888D01*
X117026813Y-98697894D01*
X116972333Y-98865564D01*
X116972331Y-98865573D01*
X116970326Y-98871744D01*
X116969648Y-98878194D01*
X116969646Y-98878204D01*
X116955123Y-99016394D01*
X116950540Y-99060000D01*
X112460500Y-99060000D01*
X112460500Y-97643392D01*
X112468749Y-97598920D01*
X112485703Y-97571279D01*
X112484363Y-97570306D01*
X112488184Y-97565045D01*
X112492533Y-97560216D01*
X112587179Y-97396284D01*
X112645674Y-97216256D01*
X112665460Y-97028000D01*
X112645674Y-96839744D01*
X112587179Y-96659716D01*
X112492533Y-96495784D01*
X112424343Y-96420052D01*
X112370220Y-96359942D01*
X112370219Y-96359941D01*
X112365871Y-96355112D01*
X112360613Y-96351292D01*
X112360611Y-96351290D01*
X112217988Y-96247669D01*
X112217987Y-96247668D01*
X112212730Y-96243849D01*
X112206792Y-96241205D01*
X112045745Y-96169501D01*
X112045740Y-96169499D01*
X112039803Y-96166856D01*
X112033444Y-96165504D01*
X112033440Y-96165503D01*
X111861008Y-96128852D01*
X111861005Y-96128851D01*
X111854646Y-96127500D01*
X111665354Y-96127500D01*
X111658995Y-96128851D01*
X111658991Y-96128852D01*
X111486559Y-96165503D01*
X111486552Y-96165505D01*
X111480197Y-96166856D01*
X111474262Y-96169498D01*
X111474254Y-96169501D01*
X111313207Y-96241205D01*
X111313202Y-96241207D01*
X111307270Y-96243849D01*
X111302016Y-96247665D01*
X111302011Y-96247669D01*
X111159388Y-96351290D01*
X111159381Y-96351295D01*
X111154129Y-96355112D01*
X111149784Y-96359937D01*
X111149779Y-96359942D01*
X111031813Y-96490956D01*
X111031808Y-96490962D01*
X111027467Y-96495784D01*
X111024222Y-96501404D01*
X111024218Y-96501410D01*
X110936069Y-96654089D01*
X110936066Y-96654094D01*
X110932821Y-96659716D01*
X110930815Y-96665888D01*
X110930813Y-96665894D01*
X110876333Y-96833564D01*
X110876331Y-96833573D01*
X110874326Y-96839744D01*
X110873648Y-96846194D01*
X110873646Y-96846204D01*
X110856716Y-97007300D01*
X110854540Y-97028000D01*
X110855219Y-97034460D01*
X110873646Y-97209795D01*
X110873647Y-97209803D01*
X110874326Y-97216256D01*
X110876331Y-97222428D01*
X110876333Y-97222435D01*
X110885290Y-97250000D01*
X110932821Y-97396284D01*
X110936068Y-97401908D01*
X110936069Y-97401910D01*
X111013579Y-97536162D01*
X111027467Y-97560216D01*
X111031813Y-97565043D01*
X111035637Y-97570306D01*
X111034296Y-97571279D01*
X111051251Y-97598920D01*
X111059500Y-97643392D01*
X111059500Y-100548846D01*
X111059274Y-100556334D01*
X111056094Y-100608885D01*
X111056094Y-100608893D01*
X111055642Y-100616373D01*
X111056993Y-100623749D01*
X111056994Y-100623754D01*
X111066483Y-100675538D01*
X111067610Y-100682938D01*
X111073955Y-100735192D01*
X111073956Y-100735197D01*
X111074860Y-100742639D01*
X111077519Y-100749652D01*
X111077521Y-100749658D01*
X111078450Y-100752107D01*
X111084475Y-100773719D01*
X111084951Y-100776318D01*
X111084954Y-100776327D01*
X111086305Y-100783699D01*
X111089382Y-100790536D01*
X111089383Y-100790539D01*
X111110991Y-100838551D01*
X111113857Y-100845469D01*
X111135182Y-100901697D01*
X111139442Y-100907869D01*
X111139445Y-100907874D01*
X111140937Y-100910035D01*
X111151959Y-100929577D01*
X111153039Y-100931977D01*
X111153044Y-100931986D01*
X111156122Y-100938824D01*
X111160745Y-100944725D01*
X111160747Y-100944728D01*
X111193216Y-100986171D01*
X111197636Y-100992177D01*
X111231817Y-101041696D01*
X111276847Y-101081589D01*
X111282282Y-101086706D01*
X120425128Y-110229552D01*
X120457222Y-110285139D01*
X120457222Y-110349327D01*
X120425128Y-110404914D01*
X120369541Y-110437008D01*
X120191566Y-110484695D01*
X120191556Y-110484698D01*
X120186337Y-110486097D01*
X120181432Y-110488383D01*
X120181427Y-110488386D01*
X119977081Y-110583675D01*
X119977077Y-110583677D01*
X119972171Y-110585965D01*
X119967738Y-110589068D01*
X119967731Y-110589073D01*
X119783034Y-110718399D01*
X119783029Y-110718402D01*
X119778599Y-110721505D01*
X119774775Y-110725328D01*
X119774769Y-110725334D01*
X119615334Y-110884769D01*
X119615328Y-110884775D01*
X119611505Y-110888599D01*
X119608402Y-110893029D01*
X119608399Y-110893034D01*
X119479067Y-111077739D01*
X119479060Y-111077749D01*
X119475965Y-111082171D01*
X119473686Y-111087058D01*
X119473674Y-111087079D01*
X119461473Y-111113246D01*
X119424577Y-111159217D01*
X119370624Y-111182956D01*
X119311804Y-111179101D01*
X119261411Y-111148521D01*
X118460696Y-110347806D01*
X118438580Y-110317749D01*
X118426408Y-110282474D01*
X118422516Y-110261233D01*
X118421389Y-110253830D01*
X118416943Y-110217215D01*
X118414140Y-110194128D01*
X118411480Y-110187116D01*
X118411480Y-110187113D01*
X118410547Y-110184653D01*
X118404520Y-110163035D01*
X118402694Y-110153068D01*
X118378010Y-110098223D01*
X118375143Y-110091301D01*
X118356477Y-110042082D01*
X118353818Y-110035070D01*
X118348061Y-110026730D01*
X118337036Y-110007181D01*
X118335957Y-110004784D01*
X118335956Y-110004783D01*
X118332878Y-109997943D01*
X118295785Y-109950597D01*
X118291355Y-109944577D01*
X118257183Y-109895071D01*
X118212170Y-109855193D01*
X118206716Y-109850059D01*
X111162504Y-102805847D01*
X111138264Y-102771549D01*
X111126864Y-102731127D01*
X111121674Y-102681744D01*
X111063179Y-102501716D01*
X110968533Y-102337784D01*
X110916752Y-102280276D01*
X110846220Y-102201942D01*
X110846219Y-102201941D01*
X110841871Y-102197112D01*
X110836613Y-102193292D01*
X110836611Y-102193290D01*
X110693988Y-102089669D01*
X110693987Y-102089668D01*
X110688730Y-102085849D01*
X110682792Y-102083205D01*
X110521745Y-102011501D01*
X110521740Y-102011499D01*
X110515803Y-102008856D01*
X110509444Y-102007504D01*
X110509440Y-102007503D01*
X110337008Y-101970852D01*
X110337005Y-101970851D01*
X110330646Y-101969500D01*
X110141354Y-101969500D01*
X110134995Y-101970851D01*
X110134991Y-101970852D01*
X109962559Y-102007503D01*
X109962552Y-102007505D01*
X109956197Y-102008856D01*
X109950262Y-102011498D01*
X109950254Y-102011501D01*
X109789207Y-102083205D01*
X109789202Y-102083207D01*
X109783270Y-102085849D01*
X109778016Y-102089665D01*
X109778011Y-102089669D01*
X109635388Y-102193290D01*
X109635381Y-102193295D01*
X109630129Y-102197112D01*
X109625784Y-102201937D01*
X109625779Y-102201942D01*
X109507813Y-102332956D01*
X109507808Y-102332962D01*
X109503467Y-102337784D01*
X109500222Y-102343404D01*
X109500218Y-102343410D01*
X109412069Y-102496089D01*
X109412066Y-102496094D01*
X109408821Y-102501716D01*
X109406815Y-102507888D01*
X109406813Y-102507894D01*
X109352333Y-102675564D01*
X109352331Y-102675573D01*
X109350326Y-102681744D01*
X109349648Y-102688194D01*
X109349646Y-102688204D01*
X109331962Y-102856464D01*
X109330540Y-102870000D01*
X109331219Y-102876460D01*
X109349646Y-103051795D01*
X109349647Y-103051803D01*
X109350326Y-103058256D01*
X109352331Y-103064428D01*
X109352333Y-103064435D01*
X109386428Y-103169367D01*
X109408821Y-103238284D01*
X109503467Y-103402216D01*
X109630129Y-103542888D01*
X109783270Y-103654151D01*
X109956197Y-103731144D01*
X110111127Y-103764075D01*
X110144514Y-103776392D01*
X110173027Y-103797684D01*
X116573162Y-110197819D01*
X116603412Y-110247182D01*
X116607954Y-110304898D01*
X116585799Y-110358385D01*
X116541776Y-110395985D01*
X116485481Y-110409500D01*
X114929439Y-110409500D01*
X114929420Y-110409500D01*
X114926128Y-110409501D01*
X114922850Y-110409853D01*
X114922838Y-110409854D01*
X114874231Y-110415079D01*
X114874225Y-110415080D01*
X114866517Y-110415909D01*
X114859252Y-110418618D01*
X114859246Y-110418620D01*
X114739980Y-110463104D01*
X114739978Y-110463104D01*
X114731669Y-110466204D01*
X114724572Y-110471516D01*
X114724568Y-110471519D01*
X114623550Y-110547141D01*
X114623546Y-110547144D01*
X114616454Y-110552454D01*
X114611144Y-110559546D01*
X114611141Y-110559550D01*
X114535519Y-110660568D01*
X114535516Y-110660572D01*
X114530204Y-110667669D01*
X114525938Y-110679108D01*
X114481189Y-110799083D01*
X114446210Y-110849462D01*
X114391365Y-110876915D01*
X114330072Y-110874726D01*
X114277326Y-110843430D01*
X114159232Y-110725336D01*
X114159230Y-110725334D01*
X114155401Y-110721505D01*
X114150970Y-110718402D01*
X114150966Y-110718399D01*
X113966259Y-110589066D01*
X113966257Y-110589064D01*
X113961830Y-110585965D01*
X113956933Y-110583681D01*
X113956927Y-110583678D01*
X113752572Y-110488386D01*
X113752570Y-110488385D01*
X113747663Y-110486097D01*
X113742438Y-110484697D01*
X113742430Y-110484694D01*
X113524634Y-110426337D01*
X113524630Y-110426336D01*
X113519408Y-110424937D01*
X113514020Y-110424465D01*
X113514017Y-110424465D01*
X113289395Y-110404813D01*
X113284000Y-110404341D01*
X113278605Y-110404813D01*
X113053982Y-110424465D01*
X113053977Y-110424465D01*
X113048592Y-110424937D01*
X113043371Y-110426335D01*
X113043365Y-110426337D01*
X112825569Y-110484694D01*
X112825557Y-110484698D01*
X112820337Y-110486097D01*
X112815432Y-110488383D01*
X112815427Y-110488386D01*
X112611081Y-110583675D01*
X112611077Y-110583677D01*
X112606171Y-110585965D01*
X112601738Y-110589068D01*
X112601731Y-110589073D01*
X112417034Y-110718399D01*
X112417029Y-110718402D01*
X112412599Y-110721505D01*
X112408775Y-110725328D01*
X112408769Y-110725334D01*
X112249334Y-110884769D01*
X112249328Y-110884775D01*
X112245505Y-110888599D01*
X112242403Y-110893028D01*
X112242403Y-110893029D01*
X112115574Y-111074160D01*
X112071256Y-111113025D01*
X112013999Y-111127036D01*
X111956742Y-111113025D01*
X111912426Y-111074161D01*
X111782495Y-110888599D01*
X111615401Y-110721505D01*
X111610970Y-110718402D01*
X111610966Y-110718399D01*
X111426259Y-110589066D01*
X111426257Y-110589064D01*
X111421830Y-110585965D01*
X111416933Y-110583681D01*
X111416927Y-110583678D01*
X111212572Y-110488386D01*
X111212570Y-110488385D01*
X111207663Y-110486097D01*
X111202438Y-110484697D01*
X111202430Y-110484694D01*
X110984634Y-110426337D01*
X110984630Y-110426336D01*
X110979408Y-110424937D01*
X110974020Y-110424465D01*
X110974017Y-110424465D01*
X110749395Y-110404813D01*
X110744000Y-110404341D01*
X110738605Y-110404813D01*
X110513982Y-110424465D01*
X110513977Y-110424465D01*
X110508592Y-110424937D01*
X110503371Y-110426335D01*
X110503365Y-110426337D01*
X110285569Y-110484694D01*
X110285557Y-110484698D01*
X110280337Y-110486097D01*
X110275432Y-110488383D01*
X110275427Y-110488386D01*
X110071081Y-110583675D01*
X110071077Y-110583677D01*
X110066171Y-110585965D01*
X110061738Y-110589068D01*
X110061731Y-110589073D01*
X109877034Y-110718399D01*
X109877029Y-110718402D01*
X109872599Y-110721505D01*
X109868775Y-110725328D01*
X109868769Y-110725334D01*
X109709334Y-110884769D01*
X109709328Y-110884775D01*
X109705505Y-110888599D01*
X109702403Y-110893028D01*
X109702403Y-110893029D01*
X109575574Y-111074160D01*
X109531256Y-111113025D01*
X109473999Y-111127036D01*
X109416742Y-111113025D01*
X109372426Y-111074161D01*
X109242495Y-110888599D01*
X109075401Y-110721505D01*
X109070970Y-110718402D01*
X109070966Y-110718399D01*
X108886259Y-110589066D01*
X108886257Y-110589064D01*
X108881830Y-110585965D01*
X108876933Y-110583681D01*
X108876927Y-110583678D01*
X108672572Y-110488386D01*
X108672570Y-110488385D01*
X108667663Y-110486097D01*
X108662438Y-110484697D01*
X108662430Y-110484694D01*
X108444634Y-110426337D01*
X108444630Y-110426336D01*
X108439408Y-110424937D01*
X108434020Y-110424465D01*
X108434017Y-110424465D01*
X108209395Y-110404813D01*
X108204000Y-110404341D01*
X108198605Y-110404813D01*
X107973982Y-110424465D01*
X107973977Y-110424465D01*
X107968592Y-110424937D01*
X107963371Y-110426335D01*
X107963365Y-110426337D01*
X107745569Y-110484694D01*
X107745557Y-110484698D01*
X107740337Y-110486097D01*
X107735432Y-110488383D01*
X107735427Y-110488386D01*
X107531081Y-110583675D01*
X107531077Y-110583677D01*
X107526171Y-110585965D01*
X107521738Y-110589068D01*
X107521731Y-110589073D01*
X107337034Y-110718399D01*
X107337029Y-110718402D01*
X107332599Y-110721505D01*
X107328775Y-110725328D01*
X107328769Y-110725334D01*
X107169334Y-110884769D01*
X107169328Y-110884775D01*
X107165505Y-110888599D01*
X107162403Y-110893028D01*
X107162403Y-110893029D01*
X107035574Y-111074160D01*
X106991256Y-111113025D01*
X106933999Y-111127036D01*
X106876742Y-111113025D01*
X106832426Y-111074161D01*
X106702495Y-110888599D01*
X106535401Y-110721505D01*
X106530970Y-110718402D01*
X106530966Y-110718399D01*
X106346259Y-110589066D01*
X106346257Y-110589064D01*
X106341830Y-110585965D01*
X106336933Y-110583681D01*
X106336927Y-110583678D01*
X106132572Y-110488386D01*
X106132570Y-110488385D01*
X106127663Y-110486097D01*
X106122438Y-110484697D01*
X106122430Y-110484694D01*
X105904634Y-110426337D01*
X105904630Y-110426336D01*
X105899408Y-110424937D01*
X105894020Y-110424465D01*
X105894017Y-110424465D01*
X105669395Y-110404813D01*
X105664000Y-110404341D01*
X105658605Y-110404813D01*
X105433982Y-110424465D01*
X105433977Y-110424465D01*
X105428592Y-110424937D01*
X105423371Y-110426335D01*
X105423365Y-110426337D01*
X105205569Y-110484694D01*
X105205557Y-110484698D01*
X105200337Y-110486097D01*
X105195432Y-110488383D01*
X105195427Y-110488386D01*
X104991081Y-110583675D01*
X104991077Y-110583677D01*
X104986171Y-110585965D01*
X104981738Y-110589068D01*
X104981731Y-110589073D01*
X104797034Y-110718399D01*
X104797029Y-110718402D01*
X104792599Y-110721505D01*
X104788775Y-110725328D01*
X104788769Y-110725334D01*
X104629334Y-110884769D01*
X104629328Y-110884775D01*
X104625505Y-110888599D01*
X104622403Y-110893028D01*
X104622403Y-110893029D01*
X104495574Y-111074160D01*
X104451256Y-111113025D01*
X104393999Y-111127036D01*
X104336742Y-111113025D01*
X104292426Y-111074161D01*
X104162495Y-110888599D01*
X103995401Y-110721505D01*
X103990968Y-110718401D01*
X103990961Y-110718395D01*
X103813377Y-110594050D01*
X103774511Y-110549732D01*
X103760500Y-110492475D01*
X103760500Y-105462519D01*
X103769939Y-105415066D01*
X103796819Y-105374838D01*
X104663078Y-104508579D01*
X107312731Y-101858924D01*
X107318151Y-101853822D01*
X107363183Y-101813929D01*
X107397355Y-101764420D01*
X107401775Y-101758413D01*
X107438878Y-101711057D01*
X107443033Y-101701822D01*
X107454063Y-101682265D01*
X107459818Y-101673930D01*
X107481146Y-101617688D01*
X107484002Y-101610791D01*
X107508694Y-101555932D01*
X107510518Y-101545974D01*
X107516548Y-101524340D01*
X107520140Y-101514872D01*
X107527389Y-101455165D01*
X107528516Y-101447762D01*
X107539357Y-101388606D01*
X107535726Y-101328577D01*
X107535500Y-101321090D01*
X107535500Y-92889910D01*
X107535726Y-92882423D01*
X107538904Y-92829881D01*
X107539357Y-92822394D01*
X107528516Y-92763235D01*
X107527389Y-92755830D01*
X107527118Y-92753602D01*
X107520140Y-92696128D01*
X107517480Y-92689116D01*
X107517480Y-92689113D01*
X107516547Y-92686653D01*
X107510520Y-92665035D01*
X107508694Y-92655068D01*
X107484012Y-92600228D01*
X107481145Y-92593306D01*
X107462479Y-92544087D01*
X107459818Y-92537070D01*
X107455556Y-92530896D01*
X107455552Y-92530888D01*
X107454058Y-92528724D01*
X107443032Y-92509175D01*
X107441956Y-92506785D01*
X107438877Y-92499943D01*
X107401788Y-92452602D01*
X107397349Y-92446569D01*
X107367442Y-92403241D01*
X107367441Y-92403240D01*
X107363183Y-92397071D01*
X107318170Y-92357193D01*
X107312716Y-92352059D01*
X106336504Y-91375847D01*
X106312264Y-91341549D01*
X106300864Y-91301127D01*
X106295674Y-91251744D01*
X106237179Y-91071716D01*
X106142533Y-90907784D01*
X106096212Y-90856340D01*
X106020220Y-90771942D01*
X106020219Y-90771941D01*
X106015871Y-90767112D01*
X106010613Y-90763292D01*
X106010611Y-90763290D01*
X105867988Y-90659669D01*
X105867987Y-90659668D01*
X105862730Y-90655849D01*
X105856509Y-90653079D01*
X105695745Y-90581501D01*
X105695740Y-90581499D01*
X105689803Y-90578856D01*
X105683444Y-90577504D01*
X105683440Y-90577503D01*
X105511008Y-90540852D01*
X105511005Y-90540851D01*
X105504646Y-90539500D01*
X105315354Y-90539500D01*
X105308995Y-90540851D01*
X105308991Y-90540852D01*
X105136559Y-90577503D01*
X105136552Y-90577505D01*
X105130197Y-90578856D01*
X105124262Y-90581498D01*
X105124254Y-90581501D01*
X104963207Y-90653205D01*
X104963202Y-90653207D01*
X104957270Y-90655849D01*
X104952016Y-90659665D01*
X104952011Y-90659669D01*
X104809388Y-90763290D01*
X104809381Y-90763295D01*
X104804129Y-90767112D01*
X104799784Y-90771937D01*
X104799779Y-90771942D01*
X104681813Y-90902956D01*
X104681808Y-90902962D01*
X104677467Y-90907784D01*
X104674222Y-90913404D01*
X104674218Y-90913410D01*
X104586069Y-91066089D01*
X104586066Y-91066094D01*
X104582821Y-91071716D01*
X104580815Y-91077888D01*
X104580813Y-91077894D01*
X104526333Y-91245564D01*
X104526331Y-91245573D01*
X104524326Y-91251744D01*
X104523648Y-91258194D01*
X104523646Y-91258204D01*
X104505962Y-91426464D01*
X104504540Y-91440000D01*
X104505219Y-91446460D01*
X104523646Y-91621795D01*
X104523647Y-91621803D01*
X104524326Y-91628256D01*
X104526331Y-91634428D01*
X104526333Y-91634435D01*
X104580813Y-91802105D01*
X104582821Y-91808284D01*
X104586068Y-91813908D01*
X104586069Y-91813910D01*
X104652902Y-91929669D01*
X104677467Y-91972216D01*
X104802623Y-92111215D01*
X104802624Y-92111217D01*
X104804129Y-92112888D01*
X104803834Y-92113153D01*
X104837995Y-92167821D01*
X104837995Y-92236179D01*
X104803834Y-92290846D01*
X104804129Y-92291112D01*
X104802624Y-92292782D01*
X104802621Y-92292786D01*
X104799785Y-92295936D01*
X104799781Y-92295940D01*
X104681813Y-92426956D01*
X104681808Y-92426962D01*
X104677467Y-92431784D01*
X104674222Y-92437404D01*
X104674218Y-92437410D01*
X104586069Y-92590089D01*
X104586066Y-92590094D01*
X104582821Y-92595716D01*
X104580815Y-92601888D01*
X104580813Y-92601894D01*
X104526333Y-92769564D01*
X104526331Y-92769573D01*
X104524326Y-92775744D01*
X104523648Y-92782194D01*
X104523646Y-92782204D01*
X104510800Y-92904435D01*
X104504540Y-92964000D01*
X104505219Y-92970460D01*
X104523646Y-93145795D01*
X104523647Y-93145803D01*
X104524326Y-93152256D01*
X104526331Y-93158428D01*
X104526333Y-93158435D01*
X104555124Y-93247043D01*
X104582821Y-93332284D01*
X104677467Y-93496216D01*
X104681813Y-93501043D01*
X104685637Y-93506306D01*
X104684296Y-93507279D01*
X104701251Y-93534920D01*
X104709500Y-93579392D01*
X104709500Y-99988481D01*
X104700061Y-100035934D01*
X104673181Y-100076162D01*
X100042290Y-104707051D01*
X100036838Y-104712184D01*
X99997431Y-104747096D01*
X99997425Y-104747102D01*
X99991817Y-104752071D01*
X99987560Y-104758236D01*
X99987551Y-104758248D01*
X99957649Y-104801568D01*
X99953213Y-104807597D01*
X99920749Y-104849035D01*
X99920743Y-104849043D01*
X99916122Y-104854943D01*
X99913044Y-104861780D01*
X99913043Y-104861783D01*
X99911962Y-104864185D01*
X99900940Y-104883727D01*
X99899441Y-104885898D01*
X99899437Y-104885904D01*
X99895182Y-104892070D01*
X99892526Y-104899070D01*
X99892522Y-104899080D01*
X99873853Y-104948305D01*
X99870989Y-104955219D01*
X99849382Y-105003229D01*
X99849379Y-105003235D01*
X99846305Y-105010068D01*
X99844953Y-105017439D01*
X99844951Y-105017449D01*
X99844474Y-105020053D01*
X99838456Y-105041643D01*
X99837519Y-105044114D01*
X99837517Y-105044119D01*
X99834860Y-105051128D01*
X99833956Y-105058565D01*
X99833956Y-105058569D01*
X99827610Y-105110827D01*
X99826483Y-105118226D01*
X99816994Y-105170010D01*
X99816993Y-105170018D01*
X99815642Y-105177394D01*
X99816094Y-105184873D01*
X99816094Y-105184881D01*
X99819274Y-105237433D01*
X99819500Y-105244921D01*
X99819500Y-110582101D01*
X99805489Y-110639358D01*
X99766624Y-110683676D01*
X99717033Y-110718399D01*
X99717023Y-110718406D01*
X99712599Y-110721505D01*
X99708773Y-110725330D01*
X99708767Y-110725336D01*
X99549334Y-110884769D01*
X99549328Y-110884775D01*
X99545505Y-110888599D01*
X99542403Y-110893028D01*
X99542403Y-110893029D01*
X99415269Y-111074596D01*
X99370951Y-111113461D01*
X99313694Y-111127472D01*
X99256437Y-111113461D01*
X99212119Y-111074595D01*
X99085215Y-110893357D01*
X99078280Y-110885092D01*
X98918909Y-110725721D01*
X98910643Y-110718784D01*
X98726008Y-110589501D01*
X98716676Y-110584113D01*
X98512397Y-110488856D01*
X98502263Y-110485168D01*
X98307780Y-110433056D01*
X98296551Y-110432688D01*
X98294000Y-110443631D01*
X98294000Y-113076369D01*
X97794000Y-113076369D01*
X97794000Y-110443631D01*
X97791448Y-110432688D01*
X97780219Y-110433056D01*
X97585736Y-110485168D01*
X97575602Y-110488856D01*
X97371332Y-110584110D01*
X97361982Y-110589508D01*
X97177357Y-110718784D01*
X97169092Y-110725719D01*
X97009719Y-110885092D01*
X97002788Y-110893352D01*
X96875880Y-111074596D01*
X96831562Y-111113461D01*
X96774305Y-111127472D01*
X96717048Y-111113461D01*
X96672730Y-111074595D01*
X96542495Y-110888599D01*
X96375401Y-110721505D01*
X96370970Y-110718402D01*
X96370966Y-110718399D01*
X96186259Y-110589066D01*
X96186257Y-110589064D01*
X96181830Y-110585965D01*
X96176933Y-110583681D01*
X96176927Y-110583678D01*
X95972572Y-110488386D01*
X95972570Y-110488385D01*
X95967663Y-110486097D01*
X95962438Y-110484697D01*
X95962430Y-110484694D01*
X95744634Y-110426337D01*
X95744630Y-110426336D01*
X95739408Y-110424937D01*
X95734020Y-110424465D01*
X95734017Y-110424465D01*
X95509395Y-110404813D01*
X95504000Y-110404341D01*
X95498605Y-110404813D01*
X95273982Y-110424465D01*
X95273977Y-110424465D01*
X95268592Y-110424937D01*
X95263371Y-110426335D01*
X95263365Y-110426337D01*
X95045569Y-110484694D01*
X95045557Y-110484698D01*
X95040337Y-110486097D01*
X95035432Y-110488383D01*
X95035427Y-110488386D01*
X94831081Y-110583675D01*
X94831077Y-110583677D01*
X94826171Y-110585965D01*
X94821738Y-110589068D01*
X94821731Y-110589073D01*
X94637034Y-110718399D01*
X94637029Y-110718402D01*
X94632599Y-110721505D01*
X94628775Y-110725328D01*
X94628769Y-110725334D01*
X94469334Y-110884769D01*
X94469328Y-110884775D01*
X94465505Y-110888599D01*
X94462402Y-110893029D01*
X94462399Y-110893034D01*
X94333073Y-111077731D01*
X94333068Y-111077738D01*
X94329965Y-111082171D01*
X94327677Y-111087077D01*
X94327675Y-111087081D01*
X94232386Y-111291427D01*
X94232383Y-111291432D01*
X94230097Y-111296337D01*
X94228698Y-111301557D01*
X94228694Y-111301569D01*
X94170337Y-111519365D01*
X94170335Y-111519371D01*
X94168937Y-111524592D01*
X94148341Y-111760000D01*
X77470500Y-111760000D01*
X77470500Y-109318335D01*
X86447500Y-109318335D01*
X86448343Y-109323387D01*
X86448344Y-109323398D01*
X86478528Y-109504282D01*
X86488429Y-109563614D01*
X86490093Y-109568461D01*
X86490094Y-109568465D01*
X86567507Y-109793962D01*
X86567510Y-109793969D01*
X86569172Y-109798810D01*
X86571607Y-109803310D01*
X86571610Y-109803316D01*
X86681937Y-110007181D01*
X86687526Y-110017509D01*
X86840262Y-110213744D01*
X86844029Y-110217211D01*
X86844032Y-110217215D01*
X86956115Y-110320394D01*
X87023215Y-110382164D01*
X87083759Y-110421719D01*
X87227099Y-110515368D01*
X87227102Y-110515369D01*
X87231393Y-110518173D01*
X87459119Y-110618063D01*
X87700179Y-110679108D01*
X87885933Y-110694500D01*
X90207497Y-110694500D01*
X90210067Y-110694500D01*
X90395821Y-110679108D01*
X90636881Y-110618063D01*
X90864607Y-110518173D01*
X91072785Y-110382164D01*
X91255738Y-110213744D01*
X91408474Y-110017509D01*
X91526828Y-109798810D01*
X91607571Y-109563614D01*
X91648500Y-109318335D01*
X91648500Y-109069665D01*
X91607571Y-108824386D01*
X91526828Y-108589190D01*
X91408474Y-108370491D01*
X91255738Y-108174256D01*
X91251970Y-108170787D01*
X91251967Y-108170784D01*
X91076560Y-108009311D01*
X91076559Y-108009310D01*
X91072785Y-108005836D01*
X91064885Y-108000675D01*
X90868900Y-107872631D01*
X90868893Y-107872627D01*
X90864607Y-107869827D01*
X90859916Y-107867769D01*
X90859910Y-107867766D01*
X90641577Y-107771997D01*
X90641578Y-107771997D01*
X90636881Y-107769937D01*
X90631911Y-107768678D01*
X90631910Y-107768678D01*
X90400795Y-107710151D01*
X90400788Y-107710149D01*
X90395821Y-107708892D01*
X90390709Y-107708468D01*
X90390701Y-107708467D01*
X90212633Y-107693712D01*
X90212617Y-107693711D01*
X90210067Y-107693500D01*
X87885933Y-107693500D01*
X87883383Y-107693711D01*
X87883366Y-107693712D01*
X87705298Y-107708467D01*
X87705288Y-107708468D01*
X87700179Y-107708892D01*
X87695213Y-107710149D01*
X87695204Y-107710151D01*
X87464089Y-107768678D01*
X87464084Y-107768679D01*
X87459119Y-107769937D01*
X87454425Y-107771995D01*
X87454422Y-107771997D01*
X87236089Y-107867766D01*
X87236077Y-107867772D01*
X87231393Y-107869827D01*
X87227111Y-107872624D01*
X87227099Y-107872631D01*
X87027512Y-108003028D01*
X87027506Y-108003031D01*
X87023215Y-108005836D01*
X87019446Y-108009305D01*
X87019439Y-108009311D01*
X86844032Y-108170784D01*
X86844023Y-108170793D01*
X86840262Y-108174256D01*
X86837113Y-108178301D01*
X86837111Y-108178304D01*
X86690678Y-108366440D01*
X86690672Y-108366448D01*
X86687526Y-108370491D01*
X86685088Y-108374995D01*
X86685084Y-108375002D01*
X86571610Y-108584683D01*
X86571605Y-108584693D01*
X86569172Y-108589190D01*
X86567511Y-108594026D01*
X86567507Y-108594037D01*
X86490094Y-108819534D01*
X86490092Y-108819541D01*
X86488429Y-108824386D01*
X86487585Y-108829441D01*
X86487585Y-108829443D01*
X86448344Y-109064601D01*
X86448343Y-109064613D01*
X86447500Y-109069665D01*
X86447500Y-109318335D01*
X77470500Y-109318335D01*
X77470500Y-105556067D01*
X84147500Y-105556067D01*
X84147711Y-105558617D01*
X84147712Y-105558633D01*
X84162467Y-105736701D01*
X84162468Y-105736709D01*
X84162892Y-105741821D01*
X84164149Y-105746788D01*
X84164151Y-105746795D01*
X84222678Y-105977910D01*
X84223937Y-105982881D01*
X84225997Y-105987577D01*
X84321766Y-106205910D01*
X84321769Y-106205916D01*
X84323827Y-106210607D01*
X84326627Y-106214893D01*
X84326631Y-106214900D01*
X84395861Y-106320864D01*
X84459836Y-106418785D01*
X84463310Y-106422559D01*
X84463311Y-106422560D01*
X84624784Y-106597967D01*
X84624787Y-106597970D01*
X84628256Y-106601738D01*
X84824491Y-106754474D01*
X85043190Y-106872828D01*
X85278386Y-106953571D01*
X85523665Y-106994500D01*
X85767201Y-106994500D01*
X85772335Y-106994500D01*
X86017614Y-106953571D01*
X86252810Y-106872828D01*
X86471509Y-106754474D01*
X86491932Y-106738578D01*
X90447500Y-106738578D01*
X90447501Y-106741872D01*
X90447853Y-106745150D01*
X90447854Y-106745161D01*
X90453079Y-106793768D01*
X90453080Y-106793773D01*
X90453909Y-106801483D01*
X90456619Y-106808749D01*
X90456620Y-106808753D01*
X90490217Y-106898831D01*
X90504204Y-106936331D01*
X90590454Y-107051546D01*
X90705669Y-107137796D01*
X90840517Y-107188091D01*
X90900127Y-107194500D01*
X92995872Y-107194499D01*
X93055483Y-107188091D01*
X93190331Y-107137796D01*
X93305546Y-107051546D01*
X93391796Y-106936331D01*
X93442091Y-106801483D01*
X93448500Y-106741873D01*
X93448499Y-102046128D01*
X93442091Y-101986517D01*
X93391796Y-101851669D01*
X93305546Y-101736454D01*
X93259286Y-101701824D01*
X93197431Y-101655519D01*
X93197430Y-101655518D01*
X93190331Y-101650204D01*
X93093775Y-101614191D01*
X93062752Y-101602620D01*
X93062750Y-101602619D01*
X93055483Y-101599909D01*
X93047770Y-101599079D01*
X93047767Y-101599079D01*
X92999180Y-101593855D01*
X92999169Y-101593854D01*
X92995873Y-101593500D01*
X92992550Y-101593500D01*
X90903439Y-101593500D01*
X90903420Y-101593500D01*
X90900128Y-101593501D01*
X90896850Y-101593853D01*
X90896838Y-101593854D01*
X90848231Y-101599079D01*
X90848225Y-101599080D01*
X90840517Y-101599909D01*
X90833252Y-101602618D01*
X90833246Y-101602620D01*
X90713980Y-101647104D01*
X90713978Y-101647104D01*
X90705669Y-101650204D01*
X90698572Y-101655516D01*
X90698568Y-101655519D01*
X90597550Y-101731141D01*
X90597546Y-101731144D01*
X90590454Y-101736454D01*
X90585144Y-101743546D01*
X90585141Y-101743550D01*
X90509519Y-101844568D01*
X90509516Y-101844572D01*
X90504204Y-101851669D01*
X90501104Y-101859978D01*
X90501104Y-101859980D01*
X90456620Y-101979247D01*
X90456619Y-101979250D01*
X90453909Y-101986517D01*
X90453079Y-101994227D01*
X90453079Y-101994232D01*
X90447855Y-102042819D01*
X90447854Y-102042831D01*
X90447500Y-102046127D01*
X90447500Y-102049448D01*
X90447500Y-102049449D01*
X90447500Y-106738560D01*
X90447500Y-106738578D01*
X86491932Y-106738578D01*
X86667744Y-106601738D01*
X86836164Y-106418785D01*
X86972173Y-106210607D01*
X87072063Y-105982881D01*
X87133108Y-105741821D01*
X87148500Y-105556067D01*
X87148500Y-103231933D01*
X87133108Y-103046179D01*
X87072063Y-102805119D01*
X86972173Y-102577393D01*
X86836164Y-102369215D01*
X86759487Y-102285921D01*
X86671215Y-102190032D01*
X86671211Y-102190029D01*
X86667744Y-102186262D01*
X86471509Y-102033526D01*
X86466997Y-102031084D01*
X86257316Y-101917610D01*
X86257310Y-101917607D01*
X86252810Y-101915172D01*
X86247969Y-101913510D01*
X86247962Y-101913507D01*
X86022465Y-101836094D01*
X86022461Y-101836093D01*
X86017614Y-101834429D01*
X86008768Y-101832952D01*
X85777398Y-101794344D01*
X85777387Y-101794343D01*
X85772335Y-101793500D01*
X85523665Y-101793500D01*
X85518613Y-101794343D01*
X85518601Y-101794344D01*
X85283443Y-101833585D01*
X85283441Y-101833585D01*
X85278386Y-101834429D01*
X85273541Y-101836092D01*
X85273534Y-101836094D01*
X85048037Y-101913507D01*
X85048026Y-101913511D01*
X85043190Y-101915172D01*
X85038693Y-101917605D01*
X85038683Y-101917610D01*
X84829002Y-102031084D01*
X84828995Y-102031088D01*
X84824491Y-102033526D01*
X84820448Y-102036672D01*
X84820440Y-102036678D01*
X84632304Y-102183111D01*
X84628256Y-102186262D01*
X84624793Y-102190023D01*
X84624784Y-102190032D01*
X84463311Y-102365439D01*
X84463305Y-102365446D01*
X84459836Y-102369215D01*
X84457031Y-102373506D01*
X84457028Y-102373512D01*
X84326631Y-102573099D01*
X84326624Y-102573111D01*
X84323827Y-102577393D01*
X84321772Y-102582077D01*
X84321766Y-102582089D01*
X84233939Y-102782317D01*
X84223937Y-102805119D01*
X84222679Y-102810084D01*
X84222678Y-102810089D01*
X84164151Y-103041204D01*
X84164149Y-103041213D01*
X84162892Y-103046179D01*
X84162468Y-103051288D01*
X84162467Y-103051298D01*
X84147712Y-103229366D01*
X84147711Y-103229383D01*
X84147500Y-103231933D01*
X84147500Y-105556067D01*
X77470500Y-105556067D01*
X77470500Y-97250000D01*
X79885811Y-97250000D01*
X79886193Y-97254854D01*
X79901431Y-97448481D01*
X79904539Y-97487966D01*
X79905674Y-97492695D01*
X79905675Y-97492699D01*
X79959125Y-97715336D01*
X79959127Y-97715344D01*
X79960263Y-97720073D01*
X80051611Y-97940605D01*
X80054158Y-97944762D01*
X80054159Y-97944763D01*
X80173785Y-98139977D01*
X80173790Y-98139984D01*
X80176332Y-98144132D01*
X80179492Y-98147831D01*
X80179495Y-98147836D01*
X80307581Y-98297805D01*
X80331357Y-98325643D01*
X80512868Y-98480668D01*
X80517018Y-98483211D01*
X80517022Y-98483214D01*
X80598935Y-98533410D01*
X80716395Y-98605389D01*
X80936927Y-98696737D01*
X81169034Y-98752461D01*
X81407000Y-98771189D01*
X81644966Y-98752461D01*
X81877073Y-98696737D01*
X82097605Y-98605389D01*
X82301132Y-98480668D01*
X82482643Y-98325643D01*
X82582712Y-98208476D01*
X82625084Y-98176402D01*
X82676998Y-98165011D01*
X82728912Y-98176401D01*
X82771289Y-98208479D01*
X82847581Y-98297805D01*
X82871357Y-98325643D01*
X83052868Y-98480668D01*
X83057018Y-98483211D01*
X83057022Y-98483214D01*
X83138935Y-98533410D01*
X83256395Y-98605389D01*
X83476927Y-98696737D01*
X83709034Y-98752461D01*
X83947000Y-98771189D01*
X84184966Y-98752461D01*
X84417073Y-98696737D01*
X84637605Y-98605389D01*
X84841132Y-98480668D01*
X85022643Y-98325643D01*
X85177668Y-98144132D01*
X85302389Y-97940605D01*
X85393737Y-97720073D01*
X85449461Y-97487966D01*
X85468189Y-97250000D01*
X90553811Y-97250000D01*
X90554193Y-97254854D01*
X90569431Y-97448481D01*
X90572539Y-97487966D01*
X90573674Y-97492695D01*
X90573675Y-97492699D01*
X90627125Y-97715336D01*
X90627127Y-97715344D01*
X90628263Y-97720073D01*
X90719611Y-97940605D01*
X90722158Y-97944762D01*
X90722159Y-97944763D01*
X90841785Y-98139977D01*
X90841790Y-98139984D01*
X90844332Y-98144132D01*
X90847492Y-98147831D01*
X90847495Y-98147836D01*
X90975581Y-98297805D01*
X90999357Y-98325643D01*
X91180868Y-98480668D01*
X91185018Y-98483211D01*
X91185022Y-98483214D01*
X91266935Y-98533410D01*
X91384395Y-98605389D01*
X91604927Y-98696737D01*
X91837034Y-98752461D01*
X92075000Y-98771189D01*
X92312966Y-98752461D01*
X92545073Y-98696737D01*
X92765605Y-98605389D01*
X92969132Y-98480668D01*
X93150643Y-98325643D01*
X93250712Y-98208476D01*
X93293084Y-98176402D01*
X93344998Y-98165011D01*
X93396912Y-98176401D01*
X93439289Y-98208479D01*
X93515581Y-98297805D01*
X93539357Y-98325643D01*
X93720868Y-98480668D01*
X93725018Y-98483211D01*
X93725022Y-98483214D01*
X93806935Y-98533410D01*
X93924395Y-98605389D01*
X94144927Y-98696737D01*
X94377034Y-98752461D01*
X94615000Y-98771189D01*
X94852966Y-98752461D01*
X95085073Y-98696737D01*
X95305605Y-98605389D01*
X95509132Y-98480668D01*
X95690643Y-98325643D01*
X95845668Y-98144132D01*
X95970389Y-97940605D01*
X96061737Y-97720073D01*
X96117461Y-97487966D01*
X96136189Y-97250000D01*
X96117461Y-97012034D01*
X96061737Y-96779927D01*
X95970389Y-96559395D01*
X95845668Y-96355868D01*
X95690643Y-96174357D01*
X95684957Y-96169501D01*
X95512836Y-96022495D01*
X95512831Y-96022492D01*
X95509132Y-96019332D01*
X95504984Y-96016790D01*
X95504977Y-96016785D01*
X95309763Y-95897159D01*
X95309762Y-95897158D01*
X95305605Y-95894611D01*
X95085073Y-95803263D01*
X95080344Y-95802127D01*
X95080336Y-95802125D01*
X94857699Y-95748675D01*
X94857695Y-95748674D01*
X94852966Y-95747539D01*
X94848115Y-95747157D01*
X94848114Y-95747157D01*
X94619854Y-95729193D01*
X94615000Y-95728811D01*
X94610146Y-95729193D01*
X94381885Y-95747157D01*
X94381882Y-95747157D01*
X94377034Y-95747539D01*
X94372306Y-95748673D01*
X94372300Y-95748675D01*
X94149663Y-95802125D01*
X94149651Y-95802128D01*
X94144927Y-95803263D01*
X94140430Y-95805125D01*
X94140426Y-95805127D01*
X93928899Y-95892745D01*
X93928895Y-95892746D01*
X93924395Y-95894611D01*
X93920242Y-95897155D01*
X93920236Y-95897159D01*
X93725022Y-96016785D01*
X93725009Y-96016794D01*
X93720868Y-96019332D01*
X93717173Y-96022487D01*
X93717163Y-96022495D01*
X93543057Y-96171196D01*
X93543050Y-96171202D01*
X93539357Y-96174357D01*
X93536202Y-96178050D01*
X93536196Y-96178057D01*
X93439289Y-96291520D01*
X93396912Y-96323598D01*
X93344998Y-96334988D01*
X93293085Y-96323598D01*
X93250710Y-96291520D01*
X93150643Y-96174357D01*
X93144957Y-96169501D01*
X92972836Y-96022495D01*
X92972831Y-96022492D01*
X92969132Y-96019332D01*
X92964984Y-96016790D01*
X92964977Y-96016785D01*
X92769763Y-95897159D01*
X92769762Y-95897158D01*
X92765605Y-95894611D01*
X92545073Y-95803263D01*
X92540344Y-95802127D01*
X92540336Y-95802125D01*
X92317699Y-95748675D01*
X92317695Y-95748674D01*
X92312966Y-95747539D01*
X92308115Y-95747157D01*
X92308114Y-95747157D01*
X92079854Y-95729193D01*
X92075000Y-95728811D01*
X92070146Y-95729193D01*
X91841885Y-95747157D01*
X91841882Y-95747157D01*
X91837034Y-95747539D01*
X91832306Y-95748673D01*
X91832300Y-95748675D01*
X91609663Y-95802125D01*
X91609651Y-95802128D01*
X91604927Y-95803263D01*
X91600430Y-95805125D01*
X91600426Y-95805127D01*
X91388899Y-95892745D01*
X91388895Y-95892746D01*
X91384395Y-95894611D01*
X91380242Y-95897155D01*
X91380236Y-95897159D01*
X91185022Y-96016785D01*
X91185009Y-96016794D01*
X91180868Y-96019332D01*
X91177173Y-96022487D01*
X91177163Y-96022495D01*
X91003057Y-96171196D01*
X91003050Y-96171202D01*
X90999357Y-96174357D01*
X90996202Y-96178050D01*
X90996196Y-96178057D01*
X90847495Y-96352163D01*
X90847487Y-96352173D01*
X90844332Y-96355868D01*
X90841794Y-96360009D01*
X90841785Y-96360022D01*
X90722159Y-96555236D01*
X90722155Y-96555242D01*
X90719611Y-96559395D01*
X90628263Y-96779927D01*
X90627128Y-96784651D01*
X90627125Y-96784663D01*
X90573675Y-97007300D01*
X90573673Y-97007306D01*
X90572539Y-97012034D01*
X90553811Y-97250000D01*
X85468189Y-97250000D01*
X85449461Y-97012034D01*
X85393737Y-96779927D01*
X85302389Y-96559395D01*
X85177668Y-96355868D01*
X85022643Y-96174357D01*
X85016957Y-96169501D01*
X84844836Y-96022495D01*
X84844831Y-96022492D01*
X84841132Y-96019332D01*
X84836984Y-96016790D01*
X84836977Y-96016785D01*
X84641763Y-95897159D01*
X84641762Y-95897158D01*
X84637605Y-95894611D01*
X84417073Y-95803263D01*
X84412344Y-95802127D01*
X84412336Y-95802125D01*
X84189699Y-95748675D01*
X84189695Y-95748674D01*
X84184966Y-95747539D01*
X84180115Y-95747157D01*
X84180114Y-95747157D01*
X83951854Y-95729193D01*
X83947000Y-95728811D01*
X83942146Y-95729193D01*
X83713885Y-95747157D01*
X83713882Y-95747157D01*
X83709034Y-95747539D01*
X83704306Y-95748673D01*
X83704300Y-95748675D01*
X83481663Y-95802125D01*
X83481651Y-95802128D01*
X83476927Y-95803263D01*
X83472430Y-95805125D01*
X83472426Y-95805127D01*
X83260899Y-95892745D01*
X83260895Y-95892746D01*
X83256395Y-95894611D01*
X83252242Y-95897155D01*
X83252236Y-95897159D01*
X83057022Y-96016785D01*
X83057009Y-96016794D01*
X83052868Y-96019332D01*
X83049173Y-96022487D01*
X83049163Y-96022495D01*
X82875057Y-96171196D01*
X82875050Y-96171202D01*
X82871357Y-96174357D01*
X82868202Y-96178050D01*
X82868196Y-96178057D01*
X82771289Y-96291520D01*
X82728912Y-96323598D01*
X82676998Y-96334988D01*
X82625085Y-96323598D01*
X82582710Y-96291520D01*
X82482643Y-96174357D01*
X82476957Y-96169501D01*
X82304836Y-96022495D01*
X82304831Y-96022492D01*
X82301132Y-96019332D01*
X82296984Y-96016790D01*
X82296977Y-96016785D01*
X82101763Y-95897159D01*
X82101762Y-95897158D01*
X82097605Y-95894611D01*
X81877073Y-95803263D01*
X81872344Y-95802127D01*
X81872336Y-95802125D01*
X81649699Y-95748675D01*
X81649695Y-95748674D01*
X81644966Y-95747539D01*
X81640115Y-95747157D01*
X81640114Y-95747157D01*
X81411854Y-95729193D01*
X81407000Y-95728811D01*
X81402146Y-95729193D01*
X81173885Y-95747157D01*
X81173882Y-95747157D01*
X81169034Y-95747539D01*
X81164306Y-95748673D01*
X81164300Y-95748675D01*
X80941663Y-95802125D01*
X80941651Y-95802128D01*
X80936927Y-95803263D01*
X80932430Y-95805125D01*
X80932426Y-95805127D01*
X80720899Y-95892745D01*
X80720895Y-95892746D01*
X80716395Y-95894611D01*
X80712242Y-95897155D01*
X80712236Y-95897159D01*
X80517022Y-96016785D01*
X80517009Y-96016794D01*
X80512868Y-96019332D01*
X80509173Y-96022487D01*
X80509163Y-96022495D01*
X80335057Y-96171196D01*
X80335050Y-96171202D01*
X80331357Y-96174357D01*
X80328202Y-96178050D01*
X80328196Y-96178057D01*
X80179495Y-96352163D01*
X80179487Y-96352173D01*
X80176332Y-96355868D01*
X80173794Y-96360009D01*
X80173785Y-96360022D01*
X80054159Y-96555236D01*
X80054155Y-96555242D01*
X80051611Y-96559395D01*
X79960263Y-96779927D01*
X79959128Y-96784651D01*
X79959125Y-96784663D01*
X79905675Y-97007300D01*
X79905673Y-97007306D01*
X79904539Y-97012034D01*
X79885811Y-97250000D01*
X77470500Y-97250000D01*
X77470500Y-86891216D01*
X114508342Y-86891216D01*
X114515111Y-86897984D01*
X114524765Y-86902634D01*
X114681782Y-86957576D01*
X114695280Y-86960657D01*
X114860577Y-86979282D01*
X114874423Y-86979282D01*
X115039719Y-86960657D01*
X115053217Y-86957576D01*
X115210233Y-86902634D01*
X115219888Y-86897984D01*
X115226656Y-86891216D01*
X116033342Y-86891216D01*
X116040111Y-86897984D01*
X116049765Y-86902634D01*
X116206782Y-86957576D01*
X116220280Y-86960657D01*
X116385577Y-86979282D01*
X116399423Y-86979282D01*
X116564719Y-86960657D01*
X116578217Y-86957576D01*
X116735233Y-86902634D01*
X116744888Y-86897984D01*
X116751656Y-86891216D01*
X116745728Y-86881781D01*
X116404042Y-86540095D01*
X116392500Y-86533431D01*
X116380956Y-86540096D01*
X116039271Y-86881780D01*
X116033342Y-86891216D01*
X115226656Y-86891216D01*
X115220728Y-86881781D01*
X114879042Y-86540095D01*
X114867500Y-86533431D01*
X114855956Y-86540096D01*
X114514271Y-86881780D01*
X114508342Y-86891216D01*
X77470500Y-86891216D01*
X77470500Y-86128716D01*
X113745842Y-86128716D01*
X113752611Y-86135484D01*
X113762265Y-86140134D01*
X113919284Y-86195077D01*
X113932771Y-86198155D01*
X113968481Y-86202178D01*
X114020569Y-86220404D01*
X114059591Y-86259425D01*
X114077819Y-86311513D01*
X114081843Y-86347219D01*
X114084923Y-86360717D01*
X114139864Y-86517731D01*
X114144515Y-86527389D01*
X114151282Y-86534156D01*
X114160717Y-86528228D01*
X114502404Y-86186542D01*
X114509068Y-86175000D01*
X115225931Y-86175000D01*
X115232595Y-86186542D01*
X115574281Y-86528228D01*
X115584547Y-86534679D01*
X115589047Y-86533105D01*
X115630001Y-86526147D01*
X115670955Y-86533106D01*
X115675451Y-86534679D01*
X115685717Y-86528228D01*
X116027404Y-86186542D01*
X116034068Y-86175000D01*
X116750931Y-86175000D01*
X116757595Y-86186542D01*
X117099281Y-86528228D01*
X117108716Y-86534156D01*
X117115484Y-86527388D01*
X117120134Y-86517733D01*
X117175077Y-86360715D01*
X117178155Y-86347227D01*
X117182178Y-86311518D01*
X117200405Y-86259428D01*
X117239428Y-86220405D01*
X117291518Y-86202178D01*
X117327227Y-86198155D01*
X117340715Y-86195077D01*
X117497733Y-86140134D01*
X117507388Y-86135484D01*
X117514156Y-86128716D01*
X117508228Y-86119281D01*
X117166542Y-85777595D01*
X117155000Y-85770931D01*
X117143457Y-85777595D01*
X116757595Y-86163457D01*
X116750931Y-86175000D01*
X116034068Y-86175000D01*
X116027404Y-86163457D01*
X115641542Y-85777595D01*
X115630000Y-85770931D01*
X115618457Y-85777595D01*
X115232595Y-86163457D01*
X115225931Y-86175000D01*
X114509068Y-86175000D01*
X114502404Y-86163457D01*
X114116542Y-85777595D01*
X114105000Y-85770931D01*
X114093456Y-85777596D01*
X113751771Y-86119280D01*
X113745842Y-86128716D01*
X77470500Y-86128716D01*
X77470500Y-85419423D01*
X113300718Y-85419423D01*
X113319342Y-85584719D01*
X113322423Y-85598217D01*
X113377364Y-85755231D01*
X113382015Y-85764889D01*
X113388782Y-85771656D01*
X113398217Y-85765728D01*
X113739904Y-85424042D01*
X113746568Y-85412500D01*
X114463431Y-85412500D01*
X114470095Y-85424042D01*
X114855957Y-85809904D01*
X114867500Y-85816568D01*
X114879042Y-85809904D01*
X115264904Y-85424042D01*
X115271568Y-85412500D01*
X115988431Y-85412500D01*
X115995095Y-85424042D01*
X116380957Y-85809904D01*
X116392500Y-85816568D01*
X116404042Y-85809904D01*
X116789904Y-85424042D01*
X116796568Y-85412500D01*
X117513431Y-85412500D01*
X117520095Y-85424042D01*
X117861781Y-85765728D01*
X117871216Y-85771656D01*
X117877984Y-85764888D01*
X117882634Y-85755233D01*
X117937576Y-85598217D01*
X117940657Y-85584719D01*
X117959282Y-85419423D01*
X117959282Y-85405577D01*
X117940657Y-85240280D01*
X117937576Y-85226782D01*
X117882634Y-85069765D01*
X117877984Y-85060111D01*
X117871216Y-85053342D01*
X117861780Y-85059271D01*
X117520096Y-85400956D01*
X117513431Y-85412500D01*
X116796568Y-85412500D01*
X116789904Y-85400957D01*
X116404042Y-85015095D01*
X116392500Y-85008431D01*
X116380957Y-85015095D01*
X115995095Y-85400957D01*
X115988431Y-85412500D01*
X115271568Y-85412500D01*
X115264904Y-85400957D01*
X114879042Y-85015095D01*
X114867500Y-85008431D01*
X114855957Y-85015095D01*
X114470095Y-85400957D01*
X114463431Y-85412500D01*
X113746568Y-85412500D01*
X113739904Y-85400957D01*
X113398219Y-85059272D01*
X113388783Y-85053343D01*
X113382013Y-85060113D01*
X113377366Y-85069764D01*
X113322423Y-85226782D01*
X113319342Y-85240280D01*
X113300718Y-85405577D01*
X113300718Y-85419423D01*
X77470500Y-85419423D01*
X77470500Y-84695450D01*
X113745319Y-84695450D01*
X113751772Y-84705719D01*
X114093457Y-85047404D01*
X114105000Y-85054068D01*
X114116542Y-85047404D01*
X114502404Y-84661542D01*
X114509068Y-84650000D01*
X115225931Y-84650000D01*
X115232595Y-84661542D01*
X115618457Y-85047404D01*
X115630000Y-85054068D01*
X115641542Y-85047404D01*
X116027404Y-84661542D01*
X116034068Y-84650000D01*
X116750931Y-84650000D01*
X116757595Y-84661542D01*
X117143457Y-85047404D01*
X117155000Y-85054068D01*
X117166542Y-85047404D01*
X117508228Y-84705717D01*
X117514679Y-84695451D01*
X117513106Y-84690955D01*
X117506147Y-84650001D01*
X117513105Y-84609047D01*
X117514679Y-84604547D01*
X117508228Y-84594281D01*
X117166542Y-84252595D01*
X117155000Y-84245931D01*
X117143457Y-84252595D01*
X116757595Y-84638457D01*
X116750931Y-84650000D01*
X116034068Y-84650000D01*
X116027404Y-84638457D01*
X115641542Y-84252595D01*
X115630000Y-84245931D01*
X115618457Y-84252595D01*
X115232595Y-84638457D01*
X115225931Y-84650000D01*
X114509068Y-84650000D01*
X114502404Y-84638457D01*
X114116542Y-84252595D01*
X114105000Y-84245931D01*
X114093456Y-84252596D01*
X113751771Y-84594280D01*
X113745320Y-84604547D01*
X113746894Y-84609046D01*
X113753852Y-84650000D01*
X113746893Y-84690954D01*
X113745319Y-84695450D01*
X77470500Y-84695450D01*
X77470500Y-83894423D01*
X113300718Y-83894423D01*
X113319342Y-84059719D01*
X113322423Y-84073217D01*
X113377364Y-84230231D01*
X113382015Y-84239889D01*
X113388782Y-84246656D01*
X113398217Y-84240728D01*
X113739904Y-83899042D01*
X113746567Y-83887500D01*
X114463431Y-83887500D01*
X114470095Y-83899042D01*
X114855957Y-84284904D01*
X114867500Y-84291568D01*
X114879042Y-84284904D01*
X115264904Y-83899042D01*
X115271567Y-83887500D01*
X115988431Y-83887500D01*
X115995095Y-83899042D01*
X116380957Y-84284904D01*
X116392500Y-84291568D01*
X116404042Y-84284904D01*
X116789904Y-83899042D01*
X116796567Y-83887500D01*
X117513431Y-83887500D01*
X117520095Y-83899042D01*
X117861781Y-84240728D01*
X117871216Y-84246656D01*
X117877984Y-84239888D01*
X117882634Y-84230233D01*
X117937576Y-84073217D01*
X117940657Y-84059719D01*
X117959282Y-83894423D01*
X117959282Y-83880577D01*
X117940657Y-83715280D01*
X117937576Y-83701782D01*
X117882634Y-83544765D01*
X117877984Y-83535111D01*
X117871216Y-83528342D01*
X117861780Y-83534271D01*
X117520096Y-83875956D01*
X117513431Y-83887500D01*
X116796567Y-83887500D01*
X116796568Y-83887499D01*
X116789904Y-83875957D01*
X116404042Y-83490095D01*
X116392500Y-83483431D01*
X116380957Y-83490095D01*
X115995095Y-83875957D01*
X115988431Y-83887500D01*
X115271567Y-83887500D01*
X115271568Y-83887499D01*
X115264904Y-83875957D01*
X114879042Y-83490095D01*
X114867500Y-83483431D01*
X114855957Y-83490095D01*
X114470095Y-83875957D01*
X114463431Y-83887500D01*
X113746567Y-83887500D01*
X113746568Y-83887499D01*
X113739904Y-83875957D01*
X113398219Y-83534272D01*
X113388783Y-83528343D01*
X113382013Y-83535113D01*
X113377366Y-83544764D01*
X113322423Y-83701782D01*
X113319342Y-83715280D01*
X113300718Y-83880577D01*
X113300718Y-83894423D01*
X77470500Y-83894423D01*
X77470500Y-83171283D01*
X113745843Y-83171283D01*
X113751772Y-83180719D01*
X114093457Y-83522404D01*
X114105000Y-83529068D01*
X114116542Y-83522404D01*
X114502404Y-83136542D01*
X114509068Y-83125000D01*
X115225931Y-83125000D01*
X115232595Y-83136542D01*
X115618457Y-83522404D01*
X115630000Y-83529068D01*
X115641542Y-83522404D01*
X116027404Y-83136542D01*
X116034068Y-83125000D01*
X116750931Y-83125000D01*
X116757595Y-83136542D01*
X117143457Y-83522404D01*
X117155000Y-83529068D01*
X117166542Y-83522404D01*
X117508228Y-83180717D01*
X117514156Y-83171282D01*
X117507389Y-83164515D01*
X117497731Y-83159864D01*
X117340717Y-83104923D01*
X117327219Y-83101843D01*
X117291513Y-83097819D01*
X117239425Y-83079591D01*
X117200404Y-83040569D01*
X117182178Y-82988481D01*
X117178155Y-82952771D01*
X117175077Y-82939284D01*
X117120134Y-82782265D01*
X117115484Y-82772611D01*
X117108716Y-82765842D01*
X117099280Y-82771771D01*
X116757596Y-83113456D01*
X116750931Y-83125000D01*
X116034068Y-83125000D01*
X116027404Y-83113457D01*
X115685719Y-82771772D01*
X115675450Y-82765319D01*
X115670954Y-82766893D01*
X115630000Y-82773852D01*
X115589046Y-82766894D01*
X115584547Y-82765320D01*
X115574280Y-82771771D01*
X115232596Y-83113456D01*
X115225931Y-83125000D01*
X114509068Y-83125000D01*
X114502404Y-83113457D01*
X114160719Y-82771772D01*
X114151283Y-82765843D01*
X114144513Y-82772613D01*
X114139866Y-82782264D01*
X114084923Y-82939282D01*
X114081843Y-82952779D01*
X114077819Y-82988486D01*
X114059592Y-83040572D01*
X114020572Y-83079592D01*
X113968486Y-83097819D01*
X113932779Y-83101843D01*
X113919282Y-83104923D01*
X113762264Y-83159866D01*
X113752613Y-83164513D01*
X113745843Y-83171283D01*
X77470500Y-83171283D01*
X77470500Y-82408783D01*
X114508343Y-82408783D01*
X114514272Y-82418219D01*
X114855957Y-82759904D01*
X114867500Y-82766568D01*
X114879042Y-82759904D01*
X115220728Y-82418217D01*
X115226655Y-82408783D01*
X116033343Y-82408783D01*
X116039272Y-82418219D01*
X116380957Y-82759904D01*
X116392500Y-82766568D01*
X116404042Y-82759904D01*
X116745728Y-82418217D01*
X116751656Y-82408782D01*
X116744889Y-82402015D01*
X116735231Y-82397364D01*
X116578217Y-82342423D01*
X116564719Y-82339342D01*
X116399423Y-82320718D01*
X116385577Y-82320718D01*
X116220280Y-82339342D01*
X116206782Y-82342423D01*
X116049764Y-82397366D01*
X116040113Y-82402013D01*
X116033343Y-82408783D01*
X115226655Y-82408783D01*
X115226656Y-82408782D01*
X115219889Y-82402015D01*
X115210231Y-82397364D01*
X115053217Y-82342423D01*
X115039719Y-82339342D01*
X114874423Y-82320718D01*
X114860577Y-82320718D01*
X114695280Y-82339342D01*
X114681782Y-82342423D01*
X114524764Y-82397366D01*
X114515113Y-82402013D01*
X114508343Y-82408783D01*
X77470500Y-82408783D01*
X77470500Y-79944295D01*
X80527794Y-79944295D01*
X80535771Y-79952116D01*
X80712463Y-80060394D01*
X80721126Y-80064808D01*
X80932581Y-80152395D01*
X80941818Y-80155397D01*
X81164378Y-80208829D01*
X81173963Y-80210347D01*
X81402146Y-80228306D01*
X81411854Y-80228306D01*
X81640036Y-80210347D01*
X81649621Y-80208829D01*
X81872181Y-80155397D01*
X81881418Y-80152395D01*
X82092880Y-80064805D01*
X82101527Y-80060400D01*
X82278229Y-79952115D01*
X82286204Y-79944295D01*
X83067794Y-79944295D01*
X83075771Y-79952116D01*
X83252463Y-80060394D01*
X83261126Y-80064808D01*
X83472581Y-80152395D01*
X83481818Y-80155397D01*
X83704378Y-80208829D01*
X83713963Y-80210347D01*
X83942146Y-80228306D01*
X83951854Y-80228306D01*
X84180036Y-80210347D01*
X84189621Y-80208829D01*
X84412181Y-80155397D01*
X84421418Y-80152395D01*
X84632880Y-80064805D01*
X84641527Y-80060400D01*
X84818229Y-79952115D01*
X84826204Y-79944295D01*
X84820273Y-79934827D01*
X83958542Y-79073095D01*
X83947000Y-79066431D01*
X83935457Y-79073095D01*
X83073725Y-79934827D01*
X83067794Y-79944295D01*
X82286204Y-79944295D01*
X82280273Y-79934827D01*
X81418542Y-79073095D01*
X81407000Y-79066431D01*
X81395457Y-79073095D01*
X80533725Y-79934827D01*
X80527794Y-79944295D01*
X77470500Y-79944295D01*
X77470500Y-78712854D01*
X79886694Y-78712854D01*
X79904652Y-78941036D01*
X79906170Y-78950621D01*
X79959602Y-79173181D01*
X79962604Y-79182418D01*
X80050191Y-79393873D01*
X80054605Y-79402536D01*
X80162882Y-79579227D01*
X80170703Y-79587204D01*
X80180171Y-79581273D01*
X81041903Y-78719542D01*
X81048567Y-78708000D01*
X81048566Y-78707999D01*
X81765431Y-78707999D01*
X81772095Y-78719541D01*
X82633827Y-79581273D01*
X82644828Y-79588164D01*
X82648727Y-79588587D01*
X82676999Y-79583681D01*
X82705269Y-79588586D01*
X82709171Y-79588163D01*
X82720171Y-79581273D01*
X83581903Y-78719542D01*
X83588567Y-78708000D01*
X83588566Y-78707999D01*
X84305431Y-78707999D01*
X84312095Y-78719541D01*
X85173827Y-79581273D01*
X85183295Y-79587204D01*
X85191115Y-79579229D01*
X85299400Y-79402527D01*
X85303805Y-79393880D01*
X85391395Y-79182418D01*
X85394397Y-79173181D01*
X85447829Y-78950621D01*
X85449347Y-78941036D01*
X85467306Y-78712854D01*
X85467306Y-78708000D01*
X90553811Y-78708000D01*
X90572539Y-78945966D01*
X90573674Y-78950695D01*
X90573675Y-78950699D01*
X90627125Y-79173336D01*
X90627127Y-79173344D01*
X90628263Y-79178073D01*
X90719611Y-79398605D01*
X90722158Y-79402762D01*
X90722159Y-79402763D01*
X90841785Y-79597977D01*
X90841790Y-79597984D01*
X90844332Y-79602132D01*
X90847492Y-79605831D01*
X90847495Y-79605836D01*
X90862164Y-79623011D01*
X90999357Y-79783643D01*
X91003057Y-79786803D01*
X91176370Y-79934827D01*
X91180868Y-79938668D01*
X91185018Y-79941211D01*
X91185022Y-79941214D01*
X91202813Y-79952116D01*
X91384395Y-80063389D01*
X91604927Y-80154737D01*
X91837034Y-80210461D01*
X92075000Y-80229189D01*
X92312966Y-80210461D01*
X92545073Y-80154737D01*
X92765605Y-80063389D01*
X92969132Y-79938668D01*
X93150643Y-79783643D01*
X93250710Y-79666478D01*
X93293086Y-79634401D01*
X93345000Y-79623011D01*
X93396914Y-79634401D01*
X93439289Y-79666478D01*
X93539357Y-79783643D01*
X93543057Y-79786803D01*
X93716370Y-79934827D01*
X93720868Y-79938668D01*
X93725018Y-79941211D01*
X93725022Y-79941214D01*
X93742813Y-79952116D01*
X93924395Y-80063389D01*
X94144927Y-80154737D01*
X94377034Y-80210461D01*
X94615000Y-80229189D01*
X94852966Y-80210461D01*
X95085073Y-80154737D01*
X95305605Y-80063389D01*
X95509132Y-79938668D01*
X95690643Y-79783643D01*
X95845668Y-79602132D01*
X95970389Y-79398605D01*
X96061737Y-79178073D01*
X96117461Y-78945966D01*
X96136189Y-78708000D01*
X96117461Y-78470034D01*
X96061737Y-78237927D01*
X95970389Y-78017395D01*
X95859703Y-77836771D01*
X95848214Y-77818022D01*
X95848211Y-77818018D01*
X95845668Y-77813868D01*
X95840750Y-77808110D01*
X95693803Y-77636057D01*
X95690643Y-77632357D01*
X95684957Y-77627501D01*
X95512836Y-77480495D01*
X95512831Y-77480492D01*
X95509132Y-77477332D01*
X95504984Y-77474790D01*
X95504977Y-77474785D01*
X95309763Y-77355159D01*
X95309762Y-77355158D01*
X95305605Y-77352611D01*
X95085073Y-77261263D01*
X95080344Y-77260127D01*
X95080336Y-77260125D01*
X94857699Y-77206675D01*
X94857695Y-77206674D01*
X94852966Y-77205539D01*
X94848115Y-77205157D01*
X94848114Y-77205157D01*
X94619854Y-77187193D01*
X94615000Y-77186811D01*
X94610146Y-77187193D01*
X94381885Y-77205157D01*
X94381882Y-77205157D01*
X94377034Y-77205539D01*
X94372306Y-77206673D01*
X94372300Y-77206675D01*
X94149663Y-77260125D01*
X94149651Y-77260128D01*
X94144927Y-77261263D01*
X94140430Y-77263125D01*
X94140426Y-77263127D01*
X93928899Y-77350745D01*
X93928895Y-77350746D01*
X93924395Y-77352611D01*
X93920242Y-77355155D01*
X93920236Y-77355159D01*
X93725022Y-77474785D01*
X93725009Y-77474794D01*
X93720868Y-77477332D01*
X93717173Y-77480487D01*
X93717163Y-77480495D01*
X93543057Y-77629196D01*
X93543050Y-77629202D01*
X93539357Y-77632357D01*
X93536202Y-77636050D01*
X93536196Y-77636057D01*
X93439290Y-77749520D01*
X93396914Y-77781598D01*
X93345000Y-77792988D01*
X93293086Y-77781598D01*
X93250710Y-77749520D01*
X93153803Y-77636057D01*
X93150643Y-77632357D01*
X93144957Y-77627501D01*
X92972836Y-77480495D01*
X92972831Y-77480492D01*
X92969132Y-77477332D01*
X92964984Y-77474790D01*
X92964977Y-77474785D01*
X92769763Y-77355159D01*
X92769762Y-77355158D01*
X92765605Y-77352611D01*
X92545073Y-77261263D01*
X92540344Y-77260127D01*
X92540336Y-77260125D01*
X92317699Y-77206675D01*
X92317695Y-77206674D01*
X92312966Y-77205539D01*
X92308115Y-77205157D01*
X92308114Y-77205157D01*
X92079854Y-77187193D01*
X92075000Y-77186811D01*
X92070146Y-77187193D01*
X91841885Y-77205157D01*
X91841882Y-77205157D01*
X91837034Y-77205539D01*
X91832306Y-77206673D01*
X91832300Y-77206675D01*
X91609663Y-77260125D01*
X91609651Y-77260128D01*
X91604927Y-77261263D01*
X91600430Y-77263125D01*
X91600426Y-77263127D01*
X91388899Y-77350745D01*
X91388895Y-77350746D01*
X91384395Y-77352611D01*
X91380242Y-77355155D01*
X91380236Y-77355159D01*
X91185022Y-77474785D01*
X91185009Y-77474794D01*
X91180868Y-77477332D01*
X91177173Y-77480487D01*
X91177163Y-77480495D01*
X91003057Y-77629196D01*
X91003050Y-77629202D01*
X90999357Y-77632357D01*
X90996202Y-77636050D01*
X90996196Y-77636057D01*
X90847495Y-77810163D01*
X90847487Y-77810173D01*
X90844332Y-77813868D01*
X90841794Y-77818009D01*
X90841785Y-77818022D01*
X90722159Y-78013236D01*
X90722155Y-78013242D01*
X90719611Y-78017395D01*
X90717746Y-78021895D01*
X90717745Y-78021899D01*
X90681629Y-78109092D01*
X90628263Y-78237927D01*
X90627128Y-78242651D01*
X90627125Y-78242663D01*
X90573675Y-78465300D01*
X90573673Y-78465306D01*
X90572539Y-78470034D01*
X90572157Y-78474882D01*
X90572157Y-78474885D01*
X90554719Y-78696457D01*
X90553811Y-78708000D01*
X85467306Y-78708000D01*
X85467306Y-78703146D01*
X85449347Y-78474963D01*
X85447829Y-78465378D01*
X85394397Y-78242818D01*
X85391395Y-78233581D01*
X85303808Y-78022126D01*
X85299394Y-78013463D01*
X85191116Y-77836771D01*
X85183295Y-77828794D01*
X85173827Y-77834725D01*
X84312095Y-78696456D01*
X84305431Y-78707999D01*
X83588566Y-78707999D01*
X83581903Y-78696457D01*
X82720171Y-77834725D01*
X82709171Y-77827835D01*
X82705268Y-77827411D01*
X82676999Y-77832317D01*
X82648728Y-77827411D01*
X82644828Y-77827834D01*
X82633827Y-77834725D01*
X81772095Y-78696456D01*
X81765431Y-78707999D01*
X81048566Y-78707999D01*
X81041903Y-78696457D01*
X80180171Y-77834725D01*
X80170703Y-77828794D01*
X80162882Y-77836771D01*
X80054605Y-78013463D01*
X80050191Y-78022126D01*
X79962604Y-78233581D01*
X79959602Y-78242818D01*
X79906170Y-78465378D01*
X79904652Y-78474963D01*
X79886694Y-78703146D01*
X79886694Y-78712854D01*
X77470500Y-78712854D01*
X77470500Y-77471703D01*
X80527794Y-77471703D01*
X80533725Y-77481171D01*
X81395456Y-78342903D01*
X81406999Y-78349567D01*
X81418541Y-78342903D01*
X82280273Y-77481171D01*
X82286204Y-77471703D01*
X83067794Y-77471703D01*
X83073725Y-77481171D01*
X83935456Y-78342903D01*
X83946999Y-78349567D01*
X83958541Y-78342903D01*
X84820273Y-77481171D01*
X84826204Y-77471703D01*
X84818227Y-77463882D01*
X84641536Y-77355605D01*
X84632873Y-77351191D01*
X84421418Y-77263604D01*
X84412181Y-77260602D01*
X84189621Y-77207170D01*
X84180036Y-77205652D01*
X83951854Y-77187694D01*
X83942146Y-77187694D01*
X83713963Y-77205652D01*
X83704378Y-77207170D01*
X83481818Y-77260602D01*
X83472581Y-77263604D01*
X83261126Y-77351191D01*
X83252463Y-77355605D01*
X83075771Y-77463882D01*
X83067794Y-77471703D01*
X82286204Y-77471703D01*
X82278227Y-77463882D01*
X82101536Y-77355605D01*
X82092873Y-77351191D01*
X81881418Y-77263604D01*
X81872181Y-77260602D01*
X81649621Y-77207170D01*
X81640036Y-77205652D01*
X81411854Y-77187694D01*
X81402146Y-77187694D01*
X81173963Y-77205652D01*
X81164378Y-77207170D01*
X80941818Y-77260602D01*
X80932581Y-77263604D01*
X80721126Y-77351191D01*
X80712463Y-77355605D01*
X80535771Y-77463882D01*
X80527794Y-77471703D01*
X77470500Y-77471703D01*
X77470500Y-70612000D01*
X77852708Y-70612000D01*
X77872141Y-70821712D01*
X77873710Y-70827226D01*
X77928205Y-71018759D01*
X77928207Y-71018764D01*
X77929777Y-71024282D01*
X78023654Y-71212813D01*
X78027106Y-71217384D01*
X78147117Y-71376305D01*
X78147121Y-71376310D01*
X78150575Y-71380883D01*
X78154811Y-71384744D01*
X78154815Y-71384749D01*
X78261549Y-71482049D01*
X78306218Y-71522771D01*
X78485282Y-71633643D01*
X78681671Y-71709724D01*
X78888695Y-71748423D01*
X79093576Y-71748423D01*
X79099305Y-71748423D01*
X79306329Y-71709724D01*
X79502718Y-71633643D01*
X79681782Y-71522771D01*
X79837425Y-71380883D01*
X79964346Y-71212813D01*
X80058223Y-71024282D01*
X80115859Y-70821712D01*
X80135292Y-70612000D01*
X80115859Y-70402288D01*
X80058223Y-70199718D01*
X79964346Y-70011187D01*
X79914716Y-69945467D01*
X79840882Y-69847694D01*
X79840878Y-69847690D01*
X79837425Y-69843117D01*
X79833188Y-69839254D01*
X79833184Y-69839250D01*
X79686016Y-69705089D01*
X79686017Y-69705089D01*
X79681782Y-69701229D01*
X79676916Y-69698216D01*
X79676912Y-69698213D01*
X79507589Y-69593373D01*
X79507588Y-69593372D01*
X79502718Y-69590357D01*
X79497380Y-69588289D01*
X79497376Y-69588287D01*
X79311676Y-69516347D01*
X79311671Y-69516345D01*
X79306329Y-69514276D01*
X79300694Y-69513222D01*
X79300692Y-69513222D01*
X79104935Y-69476629D01*
X79104930Y-69476628D01*
X79099305Y-69475577D01*
X78888695Y-69475577D01*
X78883070Y-69476628D01*
X78883064Y-69476629D01*
X78687307Y-69513222D01*
X78687302Y-69513223D01*
X78681671Y-69514276D01*
X78676330Y-69516344D01*
X78676323Y-69516347D01*
X78490623Y-69588287D01*
X78490614Y-69588291D01*
X78485282Y-69590357D01*
X78480415Y-69593370D01*
X78480410Y-69593373D01*
X78311087Y-69698213D01*
X78311077Y-69698219D01*
X78306218Y-69701229D01*
X78301987Y-69705085D01*
X78301983Y-69705089D01*
X78154815Y-69839250D01*
X78154805Y-69839260D01*
X78150575Y-69843117D01*
X78147126Y-69847683D01*
X78147117Y-69847694D01*
X78027106Y-70006615D01*
X78027103Y-70006619D01*
X78023654Y-70011187D01*
X78021101Y-70016312D01*
X78021099Y-70016317D01*
X77932336Y-70194577D01*
X77932332Y-70194585D01*
X77929777Y-70199718D01*
X77928208Y-70205231D01*
X77928205Y-70205240D01*
X77873710Y-70396773D01*
X77872141Y-70402288D01*
X77852708Y-70612000D01*
X77470500Y-70612000D01*
X77470500Y-69212500D01*
X77487113Y-69150500D01*
X77532500Y-69105113D01*
X77594500Y-69088500D01*
X92186000Y-69088500D01*
X92248000Y-69105113D01*
G37*
%TD.AperFunction*%
%TD*%
M02*
