<?xml version="1.0" encoding="UTF-8" standalone="no"?>
<svg
   width="203mm"
   height="109mm"
   viewBox="0 0 203 109"
   version="1.1"
   preserveAspectRatio="xMidYMid meet"
   id="svg312"
   sodipodi:docname="box pcb gsm.svg"
   inkscape:version="1.2.2 (732a01da63, 2022-12-09)"
   xmlns:inkscape="http://www.inkscape.org/namespaces/inkscape"
   xmlns:sodipodi="http://sodipodi.sourceforge.net/DTD/sodipodi-0.dtd"
   xmlns="http://www.w3.org/2000/svg"
   xmlns:svg="http://www.w3.org/2000/svg">
  <defs
     id="defs316" />
  <sodipodi:namedview
     id="namedview314"
     pagecolor="#ffffff"
     bordercolor="#000000"
     borderopacity="0.25"
     inkscape:showpageshadow="2"
     inkscape:pageopacity="0.0"
     inkscape:pagecheckerboard="0"
     inkscape:deskcolor="#d1d1d1"
     inkscape:document-units="mm"
     showgrid="false"
     inkscape:zoom="1.8325328"
     inkscape:cx="383.62205"
     inkscape:cy="249.65446"
     inkscape:window-width="1920"
     inkscape:window-height="991"
     inkscape:window-x="-9"
     inkscape:window-y="-9"
     inkscape:window-maximized="1"
     inkscape:current-layer="svg312" />
  <g
     id="svgGroup"
     stroke-linecap="round"
     fill-rule="evenodd"
     font-size="9pt"
     stroke="#000"
     stroke-width="0.25mm"
     fill="none"
     style="stroke:#000;stroke-width:0.25mm;fill:none">
    <path
       d="M 0 83 L 0 91.125 L 3 91.125 L 3 100.875 L 0 100.875 L 0 109 L 11.625 109 L 11.625 106 L 21.375 106 L 21.375 109 L 31.125 109 L 31.125 106 L 40.875 106 L 40.875 109 L 50.625 109 L 50.625 106 L 60.375 106 L 60.375 109 L 70.125 109 L 72 109 L 72 100.875 L 69 100.875 L 69 91.125 L 72 91.125 L 72 83 L 60.375 83 L 60.375 86 L 50.625 86 L 50.625 83 L 40.875 83 L 40.875 86 L 31.125 86 L 31.125 83 L 21.375 83 L 21.375 86 L 11.625 86 L 11.625 83 L 1.875 83 L 0 83 Z"
       id="front_outsideCutPath"
       stroke="#FF0000"
       stroke-width="0.1"
       style="stroke:#FF0000;stroke-width:0.1"
       vector-effect="non-scaling-stroke" />
    <path
       d="M 39.79 97.964 L 39.368 97.964 L 39.368 96.164 Q 39.368 95.947 39.305 95.8 A 0.501 0.501 0 0 0 39.213 95.656 Q 39.058 95.488 38.728 95.488 A 1.276 1.276 0 0 0 38.49 95.509 Q 38.357 95.535 38.254 95.591 A 0.594 0.594 0 0 0 38.088 95.724 Q 37.903 95.94 37.887 96.412 A 2.7 2.7 0 0 0 37.885 96.504 L 37.885 97.964 L 37.464 97.964 L 37.464 95.181 L 37.807 95.181 L 37.875 95.562 L 37.895 95.562 A 0.853 0.853 0 0 1 38.23 95.258 A 1.026 1.026 0 0 1 38.258 95.243 Q 38.492 95.13 38.779 95.13 Q 39.282 95.13 39.536 95.373 Q 39.729 95.557 39.775 95.91 A 1.839 1.839 0 0 1 39.79 96.148 L 39.79 97.964 Z M 31.692 95.181 L 31.692 95.509 L 30.984 95.509 L 30.984 97.964 L 30.563 97.964 L 30.563 95.509 L 30.065 95.509 L 30.065 95.318 L 30.563 95.166 L 30.563 95.011 A 1.708 1.708 0 0 1 30.602 94.624 Q 30.726 94.096 31.231 94.004 A 1.281 1.281 0 0 1 31.459 93.985 A 1.357 1.357 0 0 1 31.651 94 Q 31.744 94.013 31.848 94.039 A 2.728 2.728 0 0 1 31.977 94.074 L 31.868 94.412 A 2.047 2.047 0 0 0 31.708 94.367 Q 31.628 94.348 31.557 94.34 A 0.906 0.906 0 0 0 31.451 94.333 A 0.568 0.568 0 0 0 31.314 94.349 A 0.365 0.365 0 0 0 31.098 94.492 Q 30.995 94.636 30.985 94.937 A 1.99 1.99 0 0 0 30.984 95.001 L 30.984 95.181 L 31.692 95.181 Z M 41.935 97.616 L 41.935 97.939 A 0.415 0.415 0 0 1 41.886 97.958 Q 41.825 97.978 41.733 97.993 Q 41.6 98.015 41.493 98.015 Q 40.686 98.015 40.686 97.164 L 40.686 95.509 L 40.287 95.509 L 40.287 95.306 L 40.686 95.13 L 40.864 94.536 L 41.107 94.536 L 41.107 95.181 L 41.915 95.181 L 41.915 95.509 L 41.107 95.509 L 41.107 97.146 A 0.849 0.849 0 0 0 41.12 97.295 Q 41.134 97.377 41.166 97.442 A 0.409 0.409 0 0 0 41.227 97.532 A 0.392 0.392 0 0 0 41.467 97.66 A 0.563 0.563 0 0 0 41.554 97.667 A 1.384 1.384 0 0 0 41.757 97.652 A 1.278 1.278 0 0 0 41.77 97.65 A 2.28 2.28 0 0 0 41.831 97.64 Q 41.893 97.628 41.935 97.616 Z M 33.802 95.161 L 33.744 95.552 A 1.858 1.858 0 0 0 33.61 95.527 Q 33.544 95.517 33.485 95.515 A 0.989 0.989 0 0 0 33.439 95.514 A 0.73 0.73 0 0 0 32.9 95.747 A 0.999 0.999 0 0 0 32.862 95.788 A 0.962 0.962 0 0 0 32.63 96.328 A 1.279 1.279 0 0 0 32.622 96.471 L 32.622 97.964 L 32.2 97.964 L 32.2 95.181 L 32.548 95.181 L 32.596 95.697 L 32.617 95.697 Q 32.772 95.425 32.99 95.278 Q 33.208 95.13 33.47 95.13 A 1.935 1.935 0 0 1 33.643 95.138 A 1.412 1.412 0 0 1 33.802 95.161 Z M 36.686 96.993 A 2.177 2.177 0 0 0 36.725 96.57 A 2.474 2.474 0 0 0 36.724 96.503 Q 36.718 96.271 36.668 96.075 A 1.312 1.312 0 0 0 36.381 95.519 A 1.103 1.103 0 0 0 35.869 95.188 A 1.416 1.416 0 0 0 35.453 95.13 A 1.637 1.637 0 0 0 35.159 95.156 A 1.115 1.115 0 0 0 34.508 95.51 Q 34.168 95.889 34.168 96.57 A 2.109 2.109 0 0 0 34.195 96.911 A 1.559 1.559 0 0 0 34.325 97.337 Q 34.483 97.664 34.772 97.839 A 1.174 1.174 0 0 0 35.042 97.959 A 1.354 1.354 0 0 0 35.435 98.015 Q 36.039 98.015 36.382 97.633 Q 36.61 97.379 36.686 96.993 Z M 34.605 96.57 A 2.134 2.134 0 0 0 34.625 96.875 Q 34.647 97.03 34.695 97.155 A 0.884 0.884 0 0 0 34.818 97.382 A 0.691 0.691 0 0 0 35.268 97.647 A 1.047 1.047 0 0 0 35.445 97.662 A 0.979 0.979 0 0 0 35.703 97.63 A 0.681 0.681 0 0 0 36.074 97.384 Q 36.233 97.177 36.274 96.828 A 2.22 2.22 0 0 0 36.288 96.57 A 2.103 2.103 0 0 0 36.268 96.27 Q 36.246 96.118 36.2 95.994 A 0.868 0.868 0 0 0 36.074 95.764 A 0.693 0.693 0 0 0 35.643 95.507 A 1.063 1.063 0 0 0 35.44 95.488 A 1.003 1.003 0 0 0 35.19 95.518 A 0.671 0.671 0 0 0 34.816 95.76 A 0.871 0.871 0 0 0 34.68 96.022 Q 34.64 96.142 34.621 96.289 A 2.227 2.227 0 0 0 34.605 96.57 Z"
       id="front_labelLayer"
       stroke="#777777"
       fill="#777777"
       style="stroke:#777777;fill:#777777"
       vector-effect="non-scaling-stroke" />
    <path
       d="M 78 83 L 78 91.125 L 75 91.125 L 75 100.875 L 78 100.875 L 78 109 L 86.875 109 L 86.875 106 L 96.625 106 L 96.625 109 L 106.375 109 L 106.375 106 L 116.125 106 L 116.125 109 L 125 109 L 125 100.875 L 128 100.875 L 128 91.125 L 125 91.125 L 125 83 L 116.125 83 L 116.125 86 L 106.375 86 L 106.375 83 L 96.625 83 L 96.625 86 L 86.875 86 L 86.875 83 L 78 83 Z"
       id="left_outsideCutPath"
       stroke="#FF0000"
       stroke-width="0.1"
       style="stroke:#FF0000;stroke-width:0.1"
       vector-effect="non-scaling-stroke" />
    <path
       d="M 103.35 95.181 L 103.35 95.509 L 102.641 95.509 L 102.641 97.964 L 102.22 97.964 L 102.22 95.509 L 101.722 95.509 L 101.722 95.318 L 102.22 95.166 L 102.22 95.011 A 1.708 1.708 0 0 1 102.26 94.624 Q 102.383 94.096 102.888 94.004 A 1.281 1.281 0 0 1 103.116 93.985 A 1.357 1.357 0 0 1 103.308 94 Q 103.402 94.013 103.506 94.039 A 2.728 2.728 0 0 1 103.634 94.074 L 103.525 94.412 A 2.047 2.047 0 0 0 103.366 94.367 Q 103.285 94.348 103.214 94.34 A 0.906 0.906 0 0 0 103.108 94.333 A 0.568 0.568 0 0 0 102.971 94.349 A 0.365 0.365 0 0 0 102.756 94.492 Q 102.652 94.636 102.642 94.937 A 1.99 1.99 0 0 0 102.641 95.001 L 102.641 95.181 L 103.35 95.181 Z M 101.377 96.382 L 101.377 96.649 L 99.46 96.649 A 1.692 1.692 0 0 0 99.489 96.932 Q 99.546 97.218 99.707 97.393 A 0.766 0.766 0 0 0 100.11 97.619 A 1.16 1.16 0 0 0 100.369 97.647 A 2.226 2.226 0 0 0 101.203 97.481 A 2.552 2.552 0 0 0 101.258 97.459 L 101.258 97.834 A 2.53 2.53 0 0 1 101.027 97.922 A 1.935 1.935 0 0 1 100.835 97.973 Q 100.635 98.015 100.354 98.015 A 1.638 1.638 0 0 1 99.944 97.966 A 1.16 1.16 0 0 1 99.38 97.639 A 1.24 1.24 0 0 1 99.083 97.094 Q 99.032 96.901 99.024 96.671 A 2.408 2.408 0 0 1 99.023 96.595 A 2.213 2.213 0 0 1 99.064 96.156 Q 99.14 95.783 99.354 95.526 A 1.08 1.08 0 0 1 100.142 95.134 A 1.49 1.49 0 0 1 100.244 95.13 A 1.284 1.284 0 0 1 100.606 95.179 A 0.977 0.977 0 0 1 101.072 95.474 A 1.179 1.179 0 0 1 101.339 96.013 A 1.715 1.715 0 0 1 101.377 96.382 Z M 105.137 97.616 L 105.137 97.939 A 0.415 0.415 0 0 1 105.088 97.958 Q 105.027 97.978 104.935 97.993 Q 104.802 98.015 104.695 98.015 Q 103.888 98.015 103.888 97.164 L 103.888 95.509 L 103.489 95.509 L 103.489 95.306 L 103.888 95.13 L 104.066 94.536 L 104.309 94.536 L 104.309 95.181 L 105.117 95.181 L 105.117 95.509 L 104.309 95.509 L 104.309 97.146 A 0.849 0.849 0 0 0 104.322 97.295 Q 104.336 97.377 104.368 97.442 A 0.409 0.409 0 0 0 104.429 97.532 A 0.392 0.392 0 0 0 104.67 97.66 A 0.563 0.563 0 0 0 104.756 97.667 A 1.384 1.384 0 0 0 104.959 97.652 A 1.278 1.278 0 0 0 104.972 97.65 A 2.28 2.28 0 0 0 105.033 97.64 Q 105.095 97.628 105.137 97.616 Z M 98.284 94.013 L 98.284 97.964 L 97.863 97.964 L 97.863 94.013 L 98.284 94.013 Z M 99.47 96.306 L 100.925 96.306 A 1.436 1.436 0 0 0 100.908 96.075 Q 100.887 95.951 100.844 95.852 A 0.652 0.652 0 0 0 100.747 95.695 A 0.577 0.577 0 0 0 100.399 95.497 A 0.866 0.866 0 0 0 100.239 95.483 A 0.831 0.831 0 0 0 99.999 95.516 A 0.642 0.642 0 0 0 99.705 95.702 Q 99.525 95.899 99.478 96.234 A 1.592 1.592 0 0 0 99.47 96.306 Z"
       id="left_labelLayer"
       stroke="#777777"
       fill="#777777"
       style="stroke:#777777;fill:#777777"
       vector-effect="non-scaling-stroke" />
    <path
       d="M 134 59 L 134 67.875 L 131 67.875 L 131 77.625 L 134 77.625 L 134 87.375 L 131 87.375 L 131 97.125 L 134 97.125 L 134 106 L 142.625 106 L 142.625 109 L 152.375 109 L 152.375 106 L 162.125 106 L 162.125 109 L 171.875 109 L 171.875 106 L 181.625 106 L 181.625 109 L 191.375 109 L 191.375 106 L 200 106 L 200 97.125 L 203 97.125 L 203 87.375 L 200 87.375 L 200 77.625 L 203 77.625 L 203 67.875 L 200 67.875 L 200 59 L 191.375 59 L 191.375 56 L 181.625 56 L 181.625 59 L 171.875 59 L 171.875 56 L 162.125 56 L 162.125 59 L 152.375 59 L 152.375 56 L 142.625 56 L 142.625 59 L 134 59 Z"
       id="top_outsideCutPath"
       stroke="#FF0000"
       stroke-width="0.1"
       style="stroke:#FF0000;stroke-width:0.1"
       vector-effect="non-scaling-stroke" />
    <path
       d="M 170.809 83.991 L 170.747 83.991 Q 170.809 84.488 170.809 84.933 L 170.809 87.267 L 169.95 87.267 L 169.95 79.048 L 170.649 79.048 L 170.768 79.824 L 170.809 79.824 A 2.313 2.313 0 0 1 171.144 79.444 A 1.788 1.788 0 0 1 171.581 79.151 A 2.152 2.152 0 0 1 172.197 78.971 A 2.785 2.785 0 0 1 172.59 78.944 A 2.634 2.634 0 0 1 173.334 79.044 A 1.947 1.947 0 0 1 174.331 79.715 A 2.58 2.58 0 0 1 174.772 80.575 Q 174.885 80.945 174.924 81.391 A 5.595 5.595 0 0 1 174.945 81.879 Q 174.945 82.865 174.634 83.541 A 2.415 2.415 0 0 1 174.321 84.05 A 2.034 2.034 0 0 1 172.875 84.81 A 2.914 2.914 0 0 1 172.59 84.824 A 2.606 2.606 0 0 1 171.935 84.744 A 2.268 2.268 0 0 1 171.578 84.619 A 1.903 1.903 0 0 1 170.809 83.991 Z M 162.414 84.011 L 162.414 84.669 Q 162.288 84.729 162.054 84.771 A 3.214 3.214 0 0 1 162.003 84.78 Q 161.749 84.821 161.543 84.824 A 2.202 2.202 0 0 1 161.514 84.824 Q 160.201 84.824 159.935 83.721 A 2.701 2.701 0 0 1 159.868 83.09 L 159.868 79.715 L 159.055 79.715 L 159.055 79.301 L 159.868 78.944 L 160.23 77.733 L 160.727 77.733 L 160.727 79.048 L 162.373 79.048 L 162.373 79.715 L 160.727 79.715 L 160.727 83.054 A 1.73 1.73 0 0 0 160.752 83.358 Q 160.782 83.524 160.847 83.656 A 0.833 0.833 0 0 0 160.97 83.841 A 0.798 0.798 0 0 0 161.461 84.102 A 1.148 1.148 0 0 0 161.638 84.115 A 2.822 2.822 0 0 0 162.051 84.085 A 2.598 2.598 0 0 0 162.078 84.081 A 4.648 4.648 0 0 0 162.202 84.06 Q 162.329 84.036 162.414 84.011 Z M 168.365 82.742 A 4.438 4.438 0 0 0 168.444 81.879 A 5.042 5.042 0 0 0 168.442 81.743 Q 168.429 81.27 168.327 80.869 A 2.675 2.675 0 0 0 167.743 79.736 A 2.249 2.249 0 0 0 166.699 79.063 A 2.887 2.887 0 0 0 165.851 78.944 A 3.337 3.337 0 0 0 165.252 78.996 A 2.273 2.273 0 0 0 163.926 79.718 Q 163.232 80.492 163.232 81.879 A 4.298 4.298 0 0 0 163.286 82.575 A 3.178 3.178 0 0 0 163.553 83.442 Q 163.874 84.11 164.464 84.467 A 2.392 2.392 0 0 0 165.013 84.711 A 2.759 2.759 0 0 0 165.815 84.824 A 3.336 3.336 0 0 0 166.397 84.775 A 2.291 2.291 0 0 0 167.745 84.045 Q 168.209 83.528 168.365 82.742 Z M 164.122 81.879 A 4.351 4.351 0 0 0 164.164 82.5 Q 164.256 83.142 164.557 83.535 A 1.408 1.408 0 0 0 165.474 84.075 A 2.134 2.134 0 0 0 165.835 84.104 A 1.996 1.996 0 0 0 166.362 84.039 A 1.389 1.389 0 0 0 167.116 83.538 A 1.844 1.844 0 0 0 167.404 82.978 Q 167.488 82.72 167.525 82.404 A 4.526 4.526 0 0 0 167.554 81.879 A 4.287 4.287 0 0 0 167.513 81.268 Q 167.421 80.626 167.116 80.236 A 1.413 1.413 0 0 0 166.238 79.711 A 2.167 2.167 0 0 0 165.825 79.674 Q 164.981 79.674 164.552 80.228 Q 164.243 80.626 164.156 81.307 A 4.54 4.54 0 0 0 164.122 81.879 Z M 170.809 81.687 L 170.809 81.879 A 5.681 5.681 0 0 0 170.837 82.466 Q 170.899 83.058 171.097 83.419 A 1.296 1.296 0 0 0 171.208 83.59 A 1.246 1.246 0 0 0 171.84 84.016 Q 172.122 84.104 172.486 84.104 Q 173.193 84.104 173.605 83.554 A 1.712 1.712 0 0 0 173.638 83.509 Q 174.055 82.914 174.055 81.869 A 4.336 4.336 0 0 0 174.014 81.254 Q 173.924 80.63 173.638 80.241 Q 173.221 79.674 172.466 79.674 A 2.476 2.476 0 0 0 172.003 79.714 Q 171.484 79.813 171.208 80.155 Q 170.82 80.637 170.809 81.687 Z"
       id="top_labelLayer"
       stroke="#777777"
       fill="#777777"
       style="stroke:#777777;fill:#777777"
       vector-effect="non-scaling-stroke" />
    <path
       d="M 0 54 L 0 62.125 L 3 62.125 L 3 71.875 L 0 71.875 L 0 80 L 11.625 80 L 11.625 77 L 21.375 77 L 21.375 80 L 31.125 80 L 31.125 77 L 40.875 77 L 40.875 80 L 50.625 80 L 50.625 77 L 60.375 77 L 60.375 80 L 70.125 80 L 72 80 L 72 71.875 L 69 71.875 L 69 62.125 L 72 62.125 L 72 54 L 60.375 54 L 60.375 57 L 50.625 57 L 50.625 54 L 40.875 54 L 40.875 57 L 31.125 57 L 31.125 54 L 21.375 54 L 21.375 57 L 11.625 57 L 11.625 54 L 1.875 54 L 0 54 Z"
       id="back_outsideCutPath"
       stroke="#FF0000"
       stroke-width="0.1"
       style="stroke:#FF0000;stroke-width:0.1"
       vector-effect="non-scaling-stroke" />
    <path
       d="M 39.56 67.526 L 39.58 67.526 A 2.495 2.495 0 0 1 39.642 67.442 Q 39.713 67.35 39.814 67.232 A 9.056 9.056 0 0 1 39.913 67.119 L 40.812 66.167 L 41.312 66.167 L 40.184 67.353 L 41.39 68.95 L 40.88 68.95 L 39.897 67.635 L 39.58 67.909 L 39.58 68.95 L 39.164 68.95 L 39.164 64.999 L 39.58 64.999 L 39.58 67.094 A 2.809 2.809 0 0 1 39.579 67.173 Q 39.575 67.303 39.56 67.515 A 16.754 16.754 0 0 1 39.56 67.526 Z M 31.031 68.592 L 31.001 68.592 L 30.912 68.95 L 30.61 68.95 L 30.61 64.999 L 31.031 64.999 L 31.031 65.959 A 8.788 8.788 0 0 1 31.026 66.256 Q 31.022 66.396 31.012 66.521 A 5.237 5.237 0 0 1 31.011 66.538 L 31.031 66.538 A 0.958 0.958 0 0 1 31.731 66.132 A 1.44 1.44 0 0 1 31.904 66.121 A 1.288 1.288 0 0 1 32.267 66.17 A 0.964 0.964 0 0 1 32.756 66.496 A 1.242 1.242 0 0 1 32.974 66.915 Q 33.028 67.088 33.048 67.295 A 2.705 2.705 0 0 1 33.06 67.556 Q 33.06 68.04 32.907 68.371 A 1.185 1.185 0 0 1 32.754 68.621 A 0.998 0.998 0 0 1 32.045 68.994 A 1.43 1.43 0 0 1 31.904 69.001 A 1.278 1.278 0 0 1 31.583 68.962 A 1.112 1.112 0 0 1 31.408 68.9 A 0.934 0.934 0 0 1 31.031 68.592 Z M 35.82 68.95 L 35.507 68.95 L 35.424 68.554 L 35.403 68.554 A 1.747 1.747 0 0 1 35.262 68.712 Q 35.125 68.847 34.988 68.908 Q 34.818 68.984 34.577 68.998 A 1.897 1.897 0 0 1 34.471 69.001 Q 34.058 69.001 33.823 68.787 A 0.693 0.693 0 0 1 33.614 68.422 A 1.061 1.061 0 0 1 33.588 68.181 Q 33.588 67.338 34.936 67.297 L 35.408 67.282 L 35.408 67.109 A 1.211 1.211 0 0 0 35.397 66.934 Q 35.384 66.845 35.356 66.773 A 0.47 0.47 0 0 0 35.267 66.625 Q 35.127 66.469 34.817 66.469 Q 34.469 66.469 34.03 66.683 L 33.9 66.36 A 1.943 1.943 0 0 1 34.275 66.206 A 2.212 2.212 0 0 1 34.351 66.185 Q 34.596 66.121 34.842 66.121 A 1.78 1.78 0 0 1 35.113 66.141 Q 35.411 66.187 35.58 66.342 Q 35.768 66.516 35.809 66.853 A 1.658 1.658 0 0 1 35.82 67.051 L 35.82 68.95 Z M 38.544 66.261 L 38.415 66.619 A 1.875 1.875 0 0 0 38.211 66.551 A 2.24 2.24 0 0 0 38.11 66.526 A 1.741 1.741 0 0 0 37.977 66.502 Q 37.891 66.49 37.818 66.49 A 0.935 0.935 0 0 0 37.438 66.561 Q 37.04 66.736 36.981 67.343 A 2.329 2.329 0 0 0 36.97 67.571 A 2.041 2.041 0 0 0 36.99 67.869 Q 37.012 68.019 37.059 68.142 A 0.874 0.874 0 0 0 37.177 68.358 A 0.669 0.669 0 0 0 37.611 68.618 A 1.02 1.02 0 0 0 37.79 68.633 A 1.764 1.764 0 0 0 38.277 68.562 A 2.178 2.178 0 0 0 38.504 68.483 L 38.504 68.856 Q 38.224 69.001 37.8 69.001 Q 37.196 69.001 36.865 68.629 A 1.219 1.219 0 0 1 36.611 68.163 Q 36.533 67.906 36.533 67.576 A 2.326 2.326 0 0 1 36.569 67.153 Q 36.613 66.918 36.71 66.732 A 1.162 1.162 0 0 1 36.87 66.497 A 1.091 1.091 0 0 1 37.467 66.154 A 1.654 1.654 0 0 1 37.828 66.116 Q 38.029 66.116 38.229 66.16 A 2.104 2.104 0 0 1 38.346 66.188 Q 38.464 66.22 38.542 66.26 A 0.662 0.662 0 0 1 38.544 66.261 Z M 31.844 66.474 A 1.184 1.184 0 0 0 31.614 66.495 Q 31.357 66.546 31.221 66.722 A 0.722 0.722 0 0 0 31.117 66.921 Q 31.031 67.162 31.031 67.556 Q 31.031 68.054 31.172 68.312 A 0.636 0.636 0 0 0 31.227 68.395 A 0.611 0.611 0 0 0 31.537 68.605 Q 31.64 68.637 31.767 68.645 A 1.355 1.355 0 0 0 31.854 68.648 Q 32.242 68.648 32.433 68.365 A 0.968 0.968 0 0 0 32.552 68.106 Q 32.59 67.983 32.608 67.834 A 2.415 2.415 0 0 0 32.623 67.551 A 2.49 2.49 0 0 0 32.608 67.267 Q 32.572 66.957 32.452 66.769 A 0.699 0.699 0 0 0 32.433 66.741 A 0.615 0.615 0 0 0 32.041 66.493 A 0.975 0.975 0 0 0 31.844 66.474 Z M 35.398 67.833 L 35.398 67.581 L 34.977 67.599 A 3.095 3.095 0 0 0 34.729 67.617 Q 34.486 67.646 34.333 67.713 A 0.647 0.647 0 0 0 34.252 67.755 A 0.45 0.45 0 0 0 34.037 68.082 A 0.666 0.666 0 0 0 34.03 68.186 Q 34.03 68.414 34.168 68.534 A 0.459 0.459 0 0 0 34.34 68.625 Q 34.435 68.653 34.555 68.653 Q 34.895 68.653 35.109 68.492 A 0.704 0.704 0 0 0 35.174 68.437 Q 35.397 68.222 35.398 67.837 A 1.334 1.334 0 0 0 35.398 67.833 Z"
       id="back_labelLayer"
       stroke="#777777"
       fill="#777777"
       style="stroke:#777777;fill:#777777"
       vector-effect="non-scaling-stroke" />
    <path
       d="M 78 54 L 78 62.125 L 75 62.125 L 75 71.875 L 78 71.875 L 78 80 L 86.875 80 L 86.875 77 L 96.625 77 L 96.625 80 L 106.375 80 L 106.375 77 L 116.125 77 L 116.125 80 L 125 80 L 125 71.875 L 128 71.875 L 128 62.125 L 125 62.125 L 125 54 L 116.125 54 L 116.125 57 L 106.375 57 L 106.375 54 L 96.625 54 L 96.625 57 L 86.875 57 L 86.875 54 L 78 54 Z"
       id="right_outsideCutPath"
       stroke="#FF0000"
       stroke-width="0.1"
       style="stroke:#FF0000;stroke-width:0.1"
       vector-effect="non-scaling-stroke" />
    <path
       d="M 104.733 68.351 L 104.312 68.351 L 104.312 66.551 Q 104.312 66.334 104.249 66.187 A 0.501 0.501 0 0 0 104.157 66.043 Q 104.002 65.875 103.672 65.875 Q 103.385 65.875 103.2 65.977 A 0.59 0.59 0 0 0 103.031 66.114 Q 102.846 66.332 102.831 66.805 A 2.72 2.72 0 0 0 102.829 66.896 L 102.829 68.351 L 102.408 68.351 L 102.408 64.4 L 102.829 64.4 L 102.829 65.596 Q 102.829 65.751 102.819 65.868 A 1.649 1.649 0 0 1 102.809 65.954 L 102.834 65.954 A 0.842 0.842 0 0 1 103.129 65.67 A 1.029 1.029 0 0 1 103.188 65.638 A 1.082 1.082 0 0 1 103.544 65.532 A 1.368 1.368 0 0 1 103.713 65.522 Q 104.223 65.522 104.478 65.765 Q 104.733 66.007 104.733 66.535 L 104.733 68.351 Z M 100.874 65.568 L 101.836 65.568 L 101.836 65.835 L 101.321 65.895 A 0.685 0.685 0 0 1 101.38 65.984 Q 101.406 66.029 101.43 66.084 A 1.299 1.299 0 0 1 101.448 66.128 A 0.811 0.811 0 0 1 101.496 66.322 A 1.041 1.041 0 0 1 101.504 66.452 Q 101.504 66.86 101.225 67.104 A 0.935 0.935 0 0 1 100.857 67.298 Q 100.718 67.337 100.552 67.345 A 1.831 1.831 0 0 1 100.458 67.348 A 1.355 1.355 0 0 1 100.301 67.339 A 1.144 1.144 0 0 1 100.224 67.328 Q 100.07 67.409 100.005 67.514 A 0.317 0.317 0 0 0 99.955 67.686 A 0.218 0.218 0 0 0 99.966 67.757 Q 99.987 67.819 100.049 67.854 Q 100.143 67.909 100.371 67.909 L 100.864 67.909 Q 101.165 67.909 101.374 67.994 A 0.762 0.762 0 0 1 101.558 68.099 A 0.617 0.617 0 0 1 101.788 68.492 A 0.926 0.926 0 0 1 101.801 68.653 A 0.913 0.913 0 0 1 101.749 68.969 Q 101.665 69.199 101.445 69.348 A 1 1 0 0 1 101.43 69.358 A 1.264 1.264 0 0 1 101.104 69.505 Q 100.944 69.554 100.748 69.578 A 3.341 3.341 0 0 1 100.349 69.6 A 2.361 2.361 0 0 1 100.032 69.58 Q 99.871 69.558 99.74 69.513 A 0.98 0.98 0 0 1 99.507 69.397 Q 99.23 69.207 99.212 68.87 A 0.89 0.89 0 0 1 99.211 68.823 Q 99.211 68.569 99.374 68.384 A 0.736 0.736 0 0 1 99.626 68.2 A 1.043 1.043 0 0 1 99.831 68.132 A 0.437 0.437 0 0 1 99.661 67.995 A 0.519 0.519 0 0 1 99.652 67.983 Q 99.579 67.881 99.579 67.746 A 0.482 0.482 0 0 1 99.603 67.591 A 0.427 0.427 0 0 1 99.66 67.48 A 0.603 0.603 0 0 1 99.74 67.39 Q 99.812 67.323 99.917 67.259 A 0.739 0.739 0 0 1 99.596 67.002 A 0.916 0.916 0 0 1 99.565 66.957 A 0.871 0.871 0 0 1 99.432 66.537 A 1.063 1.063 0 0 1 99.429 66.469 A 1.218 1.218 0 0 1 99.461 66.181 A 0.801 0.801 0 0 1 99.704 65.765 A 0.895 0.895 0 0 1 100.047 65.575 Q 100.184 65.534 100.348 65.522 A 1.862 1.862 0 0 1 100.481 65.517 A 1.616 1.616 0 0 1 100.694 65.531 A 1.23 1.23 0 0 1 100.874 65.568 Z M 106.879 68.003 L 106.879 68.325 A 0.415 0.415 0 0 1 106.83 68.345 Q 106.769 68.365 106.677 68.38 Q 106.544 68.402 106.437 68.402 Q 105.63 68.402 105.63 67.551 L 105.63 65.895 L 105.231 65.895 L 105.231 65.692 L 105.63 65.517 L 105.808 64.923 L 106.051 64.923 L 106.051 65.568 L 106.859 65.568 L 106.859 65.895 L 106.051 65.895 L 106.051 67.533 A 0.849 0.849 0 0 0 106.064 67.682 Q 106.078 67.764 106.11 67.829 A 0.409 0.409 0 0 0 106.171 67.919 A 0.392 0.392 0 0 0 106.411 68.047 A 0.563 0.563 0 0 0 106.498 68.054 A 1.384 1.384 0 0 0 106.701 68.039 A 1.278 1.278 0 0 0 106.714 68.037 A 2.28 2.28 0 0 0 106.775 68.027 Q 106.837 68.015 106.879 68.003 Z M 97.723 65.548 L 97.665 65.939 A 1.858 1.858 0 0 0 97.531 65.914 Q 97.465 65.904 97.405 65.902 A 0.989 0.989 0 0 0 97.36 65.901 A 0.73 0.73 0 0 0 96.821 66.134 A 0.999 0.999 0 0 0 96.782 66.175 A 0.962 0.962 0 0 0 96.55 66.715 A 1.279 1.279 0 0 0 96.542 66.858 L 96.542 68.351 L 96.121 68.351 L 96.121 65.568 L 96.469 65.568 L 96.517 66.083 L 96.537 66.083 Q 96.692 65.812 96.911 65.664 Q 97.129 65.517 97.391 65.517 A 1.935 1.935 0 0 1 97.564 65.525 A 1.412 1.412 0 0 1 97.723 65.548 Z M 98.665 65.568 L 98.665 68.351 L 98.244 68.351 L 98.244 65.568 L 98.665 65.568 Z M 100.729 68.287 L 100.224 68.287 A 0.969 0.969 0 0 0 100.05 68.302 Q 99.95 68.32 99.872 68.361 A 0.494 0.494 0 0 0 99.777 68.424 A 0.444 0.444 0 0 0 99.631 68.676 A 0.674 0.674 0 0 0 99.617 68.818 Q 99.617 69.029 99.783 69.144 A 0.495 0.495 0 0 0 99.808 69.161 A 0.675 0.675 0 0 0 99.974 69.232 Q 100.13 69.277 100.35 69.278 A 2.145 2.145 0 0 0 100.354 69.278 Q 100.828 69.278 101.082 69.151 A 0.7 0.7 0 0 0 101.139 69.119 A 0.615 0.615 0 0 0 101.282 68.999 A 0.461 0.461 0 0 0 101.395 68.688 A 0.57 0.57 0 0 0 101.384 68.575 Q 101.371 68.51 101.341 68.462 A 0.266 0.266 0 0 0 101.255 68.375 A 0.4 0.4 0 0 0 101.16 68.334 Q 101.059 68.302 100.899 68.292 A 2.682 2.682 0 0 0 100.729 68.287 Z M 99.94 66.819 A 0.451 0.451 0 0 0 100.011 66.901 Q 100.176 67.051 100.47 67.051 A 0.918 0.918 0 0 0 100.711 67.022 Q 101.087 66.92 101.087 66.452 A 0.906 0.906 0 0 0 101.056 66.203 Q 100.948 65.824 100.463 65.824 Q 100.235 65.824 100.088 65.918 A 0.485 0.485 0 0 0 100.006 65.984 Q 99.846 66.144 99.846 66.459 Q 99.846 66.679 99.94 66.819 Z M 98.214 64.737 A 0.467 0.467 0 0 0 98.208 64.814 Q 98.208 64.956 98.279 65.026 Q 98.35 65.096 98.457 65.096 Q 98.558 65.096 98.632 65.026 A 0.206 0.206 0 0 0 98.672 64.973 Q 98.691 64.938 98.699 64.894 A 0.436 0.436 0 0 0 98.706 64.814 Q 98.706 64.672 98.632 64.603 A 0.248 0.248 0 0 0 98.457 64.535 A 0.322 0.322 0 0 0 98.436 64.535 A 0.244 0.244 0 0 0 98.279 64.602 A 0.197 0.197 0 0 0 98.236 64.664 Q 98.221 64.696 98.214 64.737 Z"
       id="right_labelLayer"
       stroke="#777777"
       fill="#777777"
       style="stroke:#777777;fill:#777777"
       vector-effect="non-scaling-stroke" />
    <path
       d="M 134 3 L 134 11.875 L 131 11.875 L 131 21.625 L 134 21.625 L 134 31.375 L 131 31.375 L 131 41.125 L 134 41.125 L 134 50 L 142.625 50 L 142.625 53 L 152.375 53 L 152.375 50 L 162.125 50 L 162.125 53 L 171.875 53 L 171.875 50 L 181.625 50 L 181.625 53 L 191.375 53 L 191.375 50 L 200 50 L 200 41.125 L 203 41.125 L 203 31.375 L 200 31.375 L 200 21.625 L 203 21.625 L 203 11.875 L 200 11.875 L 200 3 L 191.375 3 L 191.375 0 L 181.625 0 L 181.625 3 L 171.875 3 L 171.875 0 L 162.125 0 L 162.125 3 L 152.375 3 L 152.375 0 L 142.625 0 L 142.625 3 L 134 3 Z"
       id="bottom_outsideCutPath"
       stroke="#FF0000"
       stroke-width="0.1"
       style="stroke:#FF0000;stroke-width:0.1"
       vector-effect="non-scaling-stroke" />
    <path
       d="M 184.437 30.475 L 183.578 30.475 L 183.578 26.785 Q 183.578 26.36 183.464 26.068 A 1.038 1.038 0 0 0 183.288 25.767 A 0.904 0.904 0 0 0 182.868 25.496 Q 182.66 25.428 182.388 25.428 A 2.211 2.211 0 0 0 181.938 25.471 Q 181.67 25.527 181.469 25.655 A 1.138 1.138 0 0 0 181.202 25.889 A 1.42 1.42 0 0 0 180.962 26.325 Q 180.82 26.721 180.819 27.298 A 4.627 4.627 0 0 0 180.819 27.307 L 180.819 30.475 L 179.96 30.475 L 179.96 26.785 Q 179.96 26.36 179.846 26.068 A 1.038 1.038 0 0 0 179.67 25.767 A 0.901 0.901 0 0 0 179.256 25.498 Q 179.107 25.449 178.924 25.435 A 2.012 2.012 0 0 0 178.765 25.428 A 2.134 2.134 0 0 0 178.323 25.471 Q 177.846 25.572 177.582 25.912 A 1.441 1.441 0 0 0 177.368 26.318 Q 177.23 26.71 177.21 27.298 A 5.982 5.982 0 0 0 177.207 27.499 L 177.207 30.475 L 176.347 30.475 L 176.347 24.802 L 177.046 24.802 L 177.186 25.579 L 177.227 25.579 Q 177.471 25.165 177.913 24.932 A 2.04 2.04 0 0 1 178.719 24.706 A 2.464 2.464 0 0 1 178.904 24.699 Q 179.728 24.699 180.199 25.068 A 1.467 1.467 0 0 1 180.643 25.661 L 180.685 25.661 A 1.794 1.794 0 0 1 181.36 24.991 A 2.155 2.155 0 0 1 181.42 24.957 A 2.175 2.175 0 0 1 182.217 24.715 A 2.712 2.712 0 0 1 182.517 24.699 A 2.987 2.987 0 0 1 183.059 24.745 Q 183.626 24.849 183.958 25.193 Q 184.307 25.553 184.402 26.227 A 3.941 3.941 0 0 1 184.437 26.774 L 184.437 30.475 Z M 150.422 29.745 L 150.36 29.745 L 150.179 30.475 L 149.563 30.475 L 149.563 22.421 L 150.422 22.421 L 150.422 24.378 A 17.913 17.913 0 0 1 150.412 24.983 Q 150.402 25.288 150.381 25.558 L 150.422 25.558 A 1.953 1.953 0 0 1 151.848 24.73 A 2.934 2.934 0 0 1 152.202 24.709 A 2.626 2.626 0 0 1 152.941 24.808 A 1.966 1.966 0 0 1 153.939 25.472 A 2.532 2.532 0 0 1 154.383 26.328 Q 154.492 26.68 154.533 27.102 A 5.515 5.515 0 0 1 154.557 27.633 Q 154.557 28.619 154.247 29.295 A 2.415 2.415 0 0 1 153.934 29.805 A 2.034 2.034 0 0 1 152.488 30.565 A 2.914 2.914 0 0 1 152.202 30.578 A 2.606 2.606 0 0 1 151.548 30.499 A 2.268 2.268 0 0 1 151.191 30.374 A 1.903 1.903 0 0 1 150.422 29.745 Z M 165.069 29.766 L 165.069 30.423 Q 164.943 30.484 164.709 30.526 A 3.214 3.214 0 0 1 164.658 30.534 Q 164.404 30.575 164.198 30.578 A 2.202 2.202 0 0 1 164.169 30.578 Q 162.856 30.578 162.59 29.475 A 2.701 2.701 0 0 1 162.523 28.844 L 162.523 25.47 L 161.71 25.47 L 161.71 25.056 L 162.523 24.699 L 162.885 23.488 L 163.382 23.488 L 163.382 24.802 L 165.028 24.802 L 165.028 25.47 L 163.382 25.47 L 163.382 28.808 A 1.73 1.73 0 0 0 163.407 29.112 Q 163.437 29.279 163.502 29.411 A 0.833 0.833 0 0 0 163.625 29.595 A 0.798 0.798 0 0 0 164.116 29.856 A 1.148 1.148 0 0 0 164.293 29.869 A 2.822 2.822 0 0 0 164.706 29.84 A 2.598 2.598 0 0 0 164.733 29.836 A 4.648 4.648 0 0 0 164.857 29.814 Q 164.984 29.791 165.069 29.766 Z M 168.811 29.766 L 168.811 30.423 Q 168.685 30.484 168.451 30.526 A 3.214 3.214 0 0 1 168.4 30.534 Q 168.146 30.575 167.94 30.578 A 2.202 2.202 0 0 1 167.911 30.578 Q 166.598 30.578 166.332 29.475 A 2.701 2.701 0 0 1 166.265 28.844 L 166.265 25.47 L 165.452 25.47 L 165.452 25.056 L 166.265 24.699 L 166.627 23.488 L 167.124 23.488 L 167.124 24.802 L 168.77 24.802 L 168.77 25.47 L 167.124 25.47 L 167.124 28.808 A 1.73 1.73 0 0 0 167.149 29.112 Q 167.179 29.279 167.244 29.411 A 0.833 0.833 0 0 0 167.367 29.595 A 0.798 0.798 0 0 0 167.858 29.856 A 1.148 1.148 0 0 0 168.035 29.869 A 2.822 2.822 0 0 0 168.448 29.84 A 2.598 2.598 0 0 0 168.475 29.836 A 4.648 4.648 0 0 0 168.599 29.814 Q 168.726 29.791 168.811 29.766 Z M 160.876 28.497 A 4.438 4.438 0 0 0 160.955 27.633 A 5.042 5.042 0 0 0 160.953 27.497 Q 160.94 27.025 160.838 26.624 A 2.675 2.675 0 0 0 160.253 25.491 A 2.249 2.249 0 0 0 159.209 24.817 A 2.887 2.887 0 0 0 158.362 24.699 A 3.337 3.337 0 0 0 157.762 24.75 A 2.273 2.273 0 0 0 156.436 25.472 Q 155.743 26.246 155.743 27.633 A 4.298 4.298 0 0 0 155.797 28.33 A 3.178 3.178 0 0 0 156.064 29.196 Q 156.384 29.864 156.974 30.221 A 2.392 2.392 0 0 0 157.524 30.465 A 2.759 2.759 0 0 0 158.325 30.578 A 3.336 3.336 0 0 0 158.908 30.53 A 2.291 2.291 0 0 0 160.256 29.799 Q 160.72 29.282 160.876 28.497 Z M 174.762 28.497 A 4.438 4.438 0 0 0 174.841 27.633 A 5.042 5.042 0 0 0 174.839 27.497 Q 174.827 27.025 174.724 26.624 A 2.675 2.675 0 0 0 174.14 25.491 A 2.249 2.249 0 0 0 173.096 24.817 A 2.887 2.887 0 0 0 172.248 24.699 A 3.337 3.337 0 0 0 171.649 24.75 A 2.273 2.273 0 0 0 170.323 25.472 Q 169.629 26.246 169.629 27.633 A 4.298 4.298 0 0 0 169.683 28.33 A 3.178 3.178 0 0 0 169.95 29.196 Q 170.271 29.864 170.861 30.221 A 2.392 2.392 0 0 0 171.41 30.465 A 2.759 2.759 0 0 0 172.212 30.578 A 3.336 3.336 0 0 0 172.795 30.53 A 2.291 2.291 0 0 0 174.143 29.799 Q 174.607 29.282 174.762 28.497 Z M 156.633 27.633 A 4.351 4.351 0 0 0 156.674 28.255 Q 156.767 28.896 157.068 29.29 A 1.408 1.408 0 0 0 157.985 29.83 A 2.134 2.134 0 0 0 158.346 29.859 A 1.996 1.996 0 0 0 158.873 29.793 A 1.389 1.389 0 0 0 159.627 29.292 A 1.844 1.844 0 0 0 159.914 28.733 Q 159.999 28.474 160.036 28.159 A 4.526 4.526 0 0 0 160.064 27.633 A 4.287 4.287 0 0 0 160.024 27.022 Q 159.931 26.381 159.627 25.99 A 1.413 1.413 0 0 0 158.748 25.466 A 2.167 2.167 0 0 0 158.336 25.428 Q 157.492 25.428 157.062 25.982 Q 156.753 26.381 156.667 27.061 A 4.54 4.54 0 0 0 156.633 27.633 Z M 170.52 27.633 A 4.351 4.351 0 0 0 170.561 28.255 Q 170.654 28.896 170.954 29.29 A 1.408 1.408 0 0 0 171.871 29.83 A 2.134 2.134 0 0 0 172.233 29.859 A 1.996 1.996 0 0 0 172.759 29.793 A 1.389 1.389 0 0 0 173.514 29.292 A 1.844 1.844 0 0 0 173.801 28.733 Q 173.885 28.474 173.922 28.159 A 4.526 4.526 0 0 0 173.951 27.633 A 4.287 4.287 0 0 0 173.91 27.022 Q 173.818 26.381 173.514 25.99 A 1.413 1.413 0 0 0 172.635 25.466 A 2.167 2.167 0 0 0 172.222 25.428 Q 171.379 25.428 170.949 25.982 Q 170.64 26.381 170.553 27.061 A 4.54 4.54 0 0 0 170.52 27.633 Z M 152.078 25.428 A 2.414 2.414 0 0 0 151.611 25.471 Q 151.086 25.574 150.81 25.933 Q 150.469 26.377 150.428 27.353 A 6.619 6.619 0 0 0 150.422 27.633 A 5.681 5.681 0 0 0 150.45 28.221 Q 150.512 28.813 150.709 29.173 A 1.296 1.296 0 0 0 150.82 29.344 A 1.246 1.246 0 0 0 151.453 29.771 Q 151.735 29.859 152.099 29.859 Q 152.891 29.859 153.279 29.282 A 1.972 1.972 0 0 0 153.523 28.754 Q 153.667 28.282 153.667 27.623 A 5.076 5.076 0 0 0 153.636 27.045 Q 153.558 26.363 153.279 25.972 Q 152.891 25.428 152.078 25.428 Z"
       id="bottom_labelLayer"
       stroke="#777777"
       fill="#777777"
       style="stroke:#777777;fill:#777777"
       vector-effect="non-scaling-stroke" />
  </g>
  <rect
     style="fill:none;stroke:#ff0000;stroke-width:0.25"
     id="rect570"
     width="11"
     height="12"
     x="108.125"
     y="90.125" />
  <rect
     style="fill:none;stroke:#ff0000;stroke-width:0.25"
     id="rect626"
     width="24"
     height="4"
     x="150.125"
     y="100.125" />
  <rect
     style="fill:none;stroke:#ff0000;stroke-width:0.25"
     id="rect626-0"
     width="24"
     height="4"
     x="175.125"
     y="100.125" />
  <rect
     style="fill:none;stroke:#ff0000;stroke-width:0.25"
     id="rect626-1"
     width="24"
     height="4"
     x="175.125"
     y="95.125" />
</svg>
