<?xml version="1.0" encoding="UTF-8" standalone="no"?>
<svg
   width="226mm"
   height="143mm"
   viewBox="0 0 226 143"
   version="1.1"
   preserveAspectRatio="xMidYMid meet"
   id="svg449"
   sodipodi:docname="box.svg"
   inkscape:version="1.2.2 (732a01da63, 2022-12-09)"
   xmlns:inkscape="http://www.inkscape.org/namespaces/inkscape"
   xmlns:sodipodi="http://sodipodi.sourceforge.net/DTD/sodipodi-0.dtd"
   xmlns="http://www.w3.org/2000/svg"
   xmlns:svg="http://www.w3.org/2000/svg">
  <defs
     id="defs453" />
  <sodipodi:namedview
     id="namedview451"
     pagecolor="#ffffff"
     bordercolor="#000000"
     borderopacity="0.25"
     inkscape:showpageshadow="2"
     inkscape:pageopacity="0.0"
     inkscape:pagecheckerboard="0"
     inkscape:deskcolor="#d1d1d1"
     inkscape:document-units="mm"
     showgrid="false"
     inkscape:zoom="1.4875874"
     inkscape:cx="475.26619"
     inkscape:cy="323.00623"
     inkscape:window-width="2400"
     inkscape:window-height="1261"
     inkscape:window-x="-9"
     inkscape:window-y="-9"
     inkscape:window-maximized="1"
     inkscape:current-layer="svgGroup" />
  <g
     id="svgGroup"
     stroke-linecap="round"
     fill-rule="evenodd"
     font-size="9pt"
     stroke="#000"
     stroke-width="0.25mm"
     fill="none"
     style="stroke:#000;stroke-width:0.25mm;fill:none">
    <path
       d="M 0 114 L 0 123.625 L 4.5 123.625 L 4.5 133.375 L 0 133.375 L 0 143 L 13.125 143 L 13.125 138.5 L 22.875 138.5 L 22.875 143 L 32.625 143 L 32.625 138.5 L 42.375 138.5 L 42.375 143 L 52.125 143 L 52.125 138.5 L 61.875 138.5 L 61.875 143 L 71.625 143 L 75 143 L 75 133.375 L 70.5 133.375 L 70.5 123.625 L 75 123.625 L 75 114 L 61.875 114 L 61.875 118.5 L 52.125 118.5 L 52.125 114 L 42.375 114 L 42.375 118.5 L 32.625 118.5 L 32.625 114 L 22.875 114 L 22.875 118.5 L 13.125 118.5 L 13.125 114 L 3.375 114 L 0 114 Z"
       id="front_outsideCutPath"
       stroke="#FF0000"
       stroke-width="0.1"
       style="stroke:#FF0000;stroke-width:0.1"
       vector-effect="non-scaling-stroke" />
    <path
       d="M 41.727 130.691 L 41.257 130.691 L 41.257 128.683 A 1.329 1.329 0 0 0 41.241 128.474 Q 41.205 128.248 41.084 128.116 Q 40.944 127.965 40.676 127.936 A 1.246 1.246 0 0 0 40.543 127.929 Q 40.222 127.929 40.014 128.044 A 0.663 0.663 0 0 0 39.829 128.193 Q 39.622 128.433 39.604 128.96 A 3.012 3.012 0 0 0 39.603 129.062 L 39.603 130.691 L 39.133 130.691 L 39.133 127.587 L 39.515 127.587 L 39.591 128.011 L 39.614 128.011 A 0.952 0.952 0 0 1 39.987 127.672 A 1.145 1.145 0 0 1 40.019 127.656 Q 40.28 127.53 40.6 127.53 A 1.856 1.856 0 0 1 40.916 127.555 Q 41.247 127.612 41.444 127.8 A 0.815 0.815 0 0 1 41.642 128.112 Q 41.69 128.241 41.711 128.4 A 2.052 2.052 0 0 1 41.727 128.666 L 41.727 130.691 Z M 32.695 127.587 L 32.695 127.952 L 31.905 127.952 L 31.905 130.691 L 31.435 130.691 L 31.435 127.952 L 30.88 127.952 L 30.88 127.74 L 31.435 127.57 L 31.435 127.397 Q 31.435 126.409 32.18 126.274 A 1.429 1.429 0 0 1 32.435 126.253 A 1.514 1.514 0 0 1 32.649 126.269 Q 32.753 126.284 32.869 126.313 A 3.043 3.043 0 0 1 33.013 126.352 L 32.891 126.729 A 2.283 2.283 0 0 0 32.713 126.679 Q 32.624 126.657 32.545 126.648 A 1.011 1.011 0 0 0 32.426 126.641 Q 32.16 126.641 32.033 126.818 Q 31.905 126.995 31.905 127.386 L 31.905 127.587 L 32.695 127.587 Z M 44.12 130.303 L 44.12 130.662 A 0.462 0.462 0 0 1 44.065 130.684 Q 44.007 130.703 43.923 130.718 A 1.757 1.757 0 0 1 43.895 130.723 Q 43.746 130.747 43.627 130.747 A 1.228 1.228 0 0 1 43.265 130.698 Q 42.727 130.532 42.727 129.798 L 42.727 127.952 L 42.282 127.952 L 42.282 127.725 L 42.727 127.53 L 42.925 126.867 L 43.197 126.867 L 43.197 127.587 L 44.097 127.587 L 44.097 127.952 L 43.197 127.952 L 43.197 129.779 Q 43.197 130.059 43.33 130.209 A 0.437 0.437 0 0 0 43.598 130.352 A 0.628 0.628 0 0 0 43.695 130.359 A 1.544 1.544 0 0 0 43.921 130.343 A 1.421 1.421 0 0 0 43.936 130.341 Q 44.052 130.322 44.12 130.303 Z M 35.049 127.564 L 34.984 128 Q 34.791 127.958 34.644 127.958 A 0.815 0.815 0 0 0 34.042 128.218 A 1.115 1.115 0 0 0 34 128.263 A 1.074 1.074 0 0 0 33.741 128.866 A 1.427 1.427 0 0 0 33.732 129.025 L 33.732 130.691 L 33.262 130.691 L 33.262 127.587 L 33.65 127.587 L 33.704 128.162 L 33.726 128.162 A 1.588 1.588 0 0 1 33.904 127.908 A 1.213 1.213 0 0 1 34.143 127.694 Q 34.386 127.53 34.678 127.53 A 2.158 2.158 0 0 1 34.871 127.538 A 1.575 1.575 0 0 1 35.049 127.564 Z M 38.265 129.608 A 2.428 2.428 0 0 0 38.309 129.136 A 2.759 2.759 0 0 0 38.308 129.061 Q 38.301 128.803 38.245 128.583 A 1.464 1.464 0 0 0 37.925 127.963 Q 37.541 127.53 36.89 127.53 A 1.826 1.826 0 0 0 36.562 127.558 A 1.243 1.243 0 0 0 35.836 127.953 A 1.299 1.299 0 0 0 35.677 128.175 Q 35.554 128.389 35.5 128.664 A 2.441 2.441 0 0 0 35.457 129.136 A 2.352 2.352 0 0 0 35.486 129.517 A 1.739 1.739 0 0 0 35.632 129.991 A 1.545 1.545 0 0 0 35.666 130.058 A 1.273 1.273 0 0 0 36.131 130.552 A 1.309 1.309 0 0 0 36.431 130.685 A 1.51 1.51 0 0 0 36.87 130.747 A 1.826 1.826 0 0 0 37.189 130.721 A 1.253 1.253 0 0 0 37.926 130.321 A 1.311 1.311 0 0 0 38.082 130.106 Q 38.21 129.888 38.265 129.608 Z M 35.944 129.136 A 2.381 2.381 0 0 0 35.966 129.476 Q 35.991 129.648 36.044 129.788 A 0.986 0.986 0 0 0 36.182 130.042 A 0.771 0.771 0 0 0 36.684 130.338 A 1.168 1.168 0 0 0 36.881 130.354 Q 37.343 130.354 37.582 130.043 A 1.009 1.009 0 0 0 37.739 129.737 Q 37.785 129.596 37.806 129.423 A 2.476 2.476 0 0 0 37.821 129.136 A 2.346 2.346 0 0 0 37.799 128.801 Q 37.775 128.631 37.723 128.493 A 0.968 0.968 0 0 0 37.582 128.237 Q 37.343 127.929 36.876 127.929 A 1.119 1.119 0 0 0 36.597 127.962 A 0.749 0.749 0 0 0 36.179 128.232 A 0.972 0.972 0 0 0 36.028 128.524 Q 35.983 128.658 35.962 128.823 A 2.484 2.484 0 0 0 35.944 129.136 Z"
       id="front_labelLayer"
       stroke="#777777"
       fill="#777777"
       style="stroke:#777777;fill:#777777"
       vector-effect="non-scaling-stroke" />
    <path
       d="M 82.5 114 L 82.5 123.625 L 78 123.625 L 78 133.375 L 82.5 133.375 L 82.5 143 L 88.625 143 L 88.625 138.5 L 98.375 138.5 L 98.375 143 L 108.125 143 L 108.125 138.5 L 117.875 138.5 L 117.875 143 L 127.625 143 L 127.625 138.5 L 137.375 138.5 L 137.375 143 L 143.5 143 L 143.5 133.375 L 148 133.375 L 148 123.625 L 143.5 123.625 L 143.5 114 L 137.375 114 L 137.375 118.5 L 127.625 118.5 L 127.625 114 L 117.875 114 L 117.875 118.5 L 108.125 118.5 L 108.125 114 L 98.375 114 L 98.375 118.5 L 88.625 118.5 L 88.625 114 L 82.5 114 Z"
       id="left_outsideCutPath"
       stroke="#FF0000"
       stroke-width="0.1"
       style="stroke:#FF0000;stroke-width:0.1"
       vector-effect="non-scaling-stroke" />
    <path
       d="M 115.063 127.587 L 115.063 127.952 L 114.273 127.952 L 114.273 130.691 L 113.803 130.691 L 113.803 127.952 L 113.248 127.952 L 113.248 127.74 L 113.803 127.57 L 113.803 127.397 Q 113.803 126.409 114.548 126.274 A 1.429 1.429 0 0 1 114.803 126.253 A 1.514 1.514 0 0 1 115.017 126.269 Q 115.121 126.284 115.237 126.313 A 3.043 3.043 0 0 1 115.38 126.352 L 115.259 126.729 A 2.283 2.283 0 0 0 115.081 126.679 Q 114.991 126.657 114.912 126.648 A 1.011 1.011 0 0 0 114.794 126.641 Q 114.528 126.641 114.4 126.818 Q 114.273 126.995 114.273 127.386 L 114.273 127.587 L 115.063 127.587 Z M 112.863 128.926 L 112.863 129.224 L 110.724 129.224 Q 110.734 129.597 110.859 129.847 A 0.883 0.883 0 0 0 111.001 130.053 A 0.854 0.854 0 0 0 111.449 130.306 A 1.294 1.294 0 0 0 111.738 130.337 A 2.483 2.483 0 0 0 112.668 130.152 A 2.846 2.846 0 0 0 112.73 130.127 L 112.73 130.546 A 2.822 2.822 0 0 1 112.472 130.643 A 2.158 2.158 0 0 1 112.258 130.7 Q 112.036 130.747 111.721 130.747 A 1.827 1.827 0 0 1 111.264 130.693 A 1.294 1.294 0 0 1 110.635 130.328 A 1.384 1.384 0 0 1 110.304 129.72 Q 110.237 129.47 110.237 129.164 A 2.469 2.469 0 0 1 110.283 128.675 Q 110.343 128.377 110.483 128.146 A 1.392 1.392 0 0 1 110.607 127.972 A 1.205 1.205 0 0 1 111.485 127.534 A 1.662 1.662 0 0 1 111.6 127.53 A 1.432 1.432 0 0 1 112.003 127.584 A 1.09 1.09 0 0 1 112.523 127.914 A 1.314 1.314 0 0 1 112.821 128.514 A 1.913 1.913 0 0 1 112.863 128.926 Z M 117.057 130.303 L 117.057 130.662 A 0.462 0.462 0 0 1 117.002 130.684 Q 116.944 130.703 116.86 130.718 A 1.757 1.757 0 0 1 116.832 130.723 Q 116.683 130.747 116.564 130.747 A 1.228 1.228 0 0 1 116.202 130.698 Q 115.664 130.532 115.664 129.798 L 115.664 127.952 L 115.219 127.952 L 115.219 127.725 L 115.664 127.53 L 115.862 126.867 L 116.134 126.867 L 116.134 127.587 L 117.034 127.587 L 117.034 127.952 L 116.134 127.952 L 116.134 129.779 Q 116.134 130.059 116.267 130.209 A 0.437 0.437 0 0 0 116.535 130.352 A 0.628 0.628 0 0 0 116.632 130.359 A 1.544 1.544 0 0 0 116.858 130.343 A 1.421 1.421 0 0 0 116.873 130.341 Q 116.989 130.322 117.057 130.303 Z M 109.413 126.284 L 109.413 130.691 L 108.943 130.691 L 108.943 126.284 L 109.413 126.284 Z M 110.736 128.841 L 112.359 128.841 A 1.602 1.602 0 0 0 112.339 128.584 Q 112.317 128.446 112.268 128.335 A 0.727 0.727 0 0 0 112.16 128.16 A 0.644 0.644 0 0 0 111.772 127.939 A 0.966 0.966 0 0 0 111.594 127.924 A 0.927 0.927 0 0 0 111.326 127.96 A 0.716 0.716 0 0 0 110.998 128.167 A 0.929 0.929 0 0 0 110.813 128.479 Q 110.766 128.607 110.745 128.761 A 1.776 1.776 0 0 0 110.736 128.841 Z"
       id="left_labelLayer"
       stroke="#777777"
       fill="#777777"
       style="stroke:#777777;fill:#777777"
       vector-effect="non-scaling-stroke" />
    <path
       d="M 155.5 77.5 L 155.5 83.625 L 151 83.625 L 151 93.375 L 155.5 93.375 L 155.5 103.125 L 151 103.125 L 151 112.875 L 155.5 112.875 L 155.5 122.625 L 151 122.625 L 151 132.375 L 155.5 132.375 L 155.5 138.5 L 164.125 138.5 L 164.125 143 L 173.875 143 L 173.875 138.5 L 183.625 138.5 L 183.625 143 L 193.375 143 L 193.375 138.5 L 203.125 138.5 L 203.125 143 L 212.875 143 L 212.875 138.5 L 221.5 138.5 L 221.5 132.375 L 226 132.375 L 226 122.625 L 221.5 122.625 L 221.5 112.875 L 226 112.875 L 226 103.125 L 221.5 103.125 L 221.5 93.375 L 226 93.375 L 226 83.625 L 221.5 83.625 L 221.5 77.5 L 212.875 77.5 L 212.875 73 L 203.125 73 L 203.125 77.5 L 193.375 77.5 L 193.375 73 L 183.625 73 L 183.625 77.5 L 173.875 77.5 L 173.875 73 L 164.125 73 L 164.125 77.5 L 155.5 77.5 Z"
       id="top_outsideCutPath"
       stroke="#FF0000"
       stroke-width="0.1"
       style="stroke:#FF0000;stroke-width:0.1"
       vector-effect="non-scaling-stroke" />
    <path
       d="M 193.531 109.969 L 193.449 109.969 A 10.739 10.739 0 0 1 193.52 110.762 A 8.999 8.999 0 0 1 193.531 111.213 L 193.531 114.296 L 192.396 114.296 L 192.396 103.44 L 193.319 103.44 L 193.477 104.466 L 193.531 104.466 A 3.055 3.055 0 0 1 193.973 103.964 A 2.362 2.362 0 0 1 194.55 103.577 A 2.842 2.842 0 0 1 195.364 103.339 A 3.678 3.678 0 0 1 195.883 103.304 A 3.478 3.478 0 0 1 196.865 103.435 A 2.571 2.571 0 0 1 198.183 104.322 A 3.407 3.407 0 0 1 198.764 105.457 Q 198.915 105.947 198.966 106.535 A 7.389 7.389 0 0 1 198.993 107.18 A 6.653 6.653 0 0 1 198.905 108.299 Q 198.724 109.36 198.169 110.047 A 2.686 2.686 0 0 1 196.26 111.051 A 3.849 3.849 0 0 1 195.883 111.069 A 3.442 3.442 0 0 1 195.018 110.964 A 2.995 2.995 0 0 1 194.546 110.799 A 2.513 2.513 0 0 1 193.531 109.969 Z M 182.443 109.996 L 182.443 110.864 Q 182.277 110.945 181.968 111 A 4.246 4.246 0 0 1 181.9 111.011 Q 181.541 111.069 181.254 111.069 Q 179.08 111.069 179.08 108.779 L 179.08 104.322 L 178.007 104.322 L 178.007 103.775 L 179.08 103.304 L 179.559 101.704 L 180.215 101.704 L 180.215 103.44 L 182.389 103.44 L 182.389 104.322 L 180.215 104.322 L 180.215 108.731 A 2.285 2.285 0 0 0 180.248 109.133 Q 180.318 109.524 180.536 109.771 A 1.054 1.054 0 0 0 181.184 110.115 A 1.517 1.517 0 0 0 181.418 110.133 A 3.727 3.727 0 0 0 181.964 110.094 A 3.435 3.435 0 0 0 181.999 110.088 Q 182.266 110.046 182.428 110 A 1.704 1.704 0 0 0 182.443 109.996 Z M 190.303 108.32 A 5.862 5.862 0 0 0 190.407 107.18 A 6.66 6.66 0 0 0 190.405 107 Q 190.36 105.342 189.481 104.35 A 2.971 2.971 0 0 0 188.102 103.46 A 3.813 3.813 0 0 0 186.982 103.304 A 4.407 4.407 0 0 0 186.191 103.372 A 3.002 3.002 0 0 0 184.439 104.326 A 3.135 3.135 0 0 0 184.054 104.86 Q 183.523 105.785 183.523 107.18 A 5.677 5.677 0 0 0 183.595 108.099 A 4.198 4.198 0 0 0 183.947 109.244 A 3.73 3.73 0 0 0 184.03 109.406 A 3.072 3.072 0 0 0 185.15 110.598 A 3.16 3.16 0 0 0 185.876 110.92 A 3.644 3.644 0 0 0 186.935 111.069 A 4.406 4.406 0 0 0 187.704 111.005 A 3.025 3.025 0 0 0 189.484 110.041 A 3.166 3.166 0 0 0 189.861 109.523 Q 190.169 108.997 190.303 108.32 Z M 184.699 107.18 A 5.746 5.746 0 0 0 184.754 108.001 Q 184.814 108.417 184.941 108.755 A 2.381 2.381 0 0 0 185.273 109.367 Q 185.848 110.119 186.962 110.119 A 2.636 2.636 0 0 0 187.657 110.033 A 1.834 1.834 0 0 0 188.654 109.371 A 2.436 2.436 0 0 0 189.033 108.632 Q 189.145 108.29 189.193 107.874 A 5.977 5.977 0 0 0 189.231 107.18 Q 189.231 106.263 188.994 105.629 A 2.336 2.336 0 0 0 188.654 105.009 A 1.867 1.867 0 0 0 187.493 104.317 A 2.862 2.862 0 0 0 186.948 104.268 A 2.701 2.701 0 0 0 186.276 104.346 A 1.807 1.807 0 0 0 185.267 104.999 Q 184.858 105.526 184.744 106.424 A 5.996 5.996 0 0 0 184.699 107.18 Z M 193.531 106.927 L 193.531 107.18 A 7.503 7.503 0 0 0 193.568 107.955 Q 193.671 108.939 194.058 109.439 A 1.646 1.646 0 0 0 194.893 110.003 Q 195.172 110.09 195.512 110.112 A 3.649 3.649 0 0 0 195.746 110.119 Q 196.717 110.119 197.267 109.333 A 2.744 2.744 0 0 0 197.643 108.531 Q 197.752 108.163 197.793 107.722 A 6.045 6.045 0 0 0 197.817 107.166 A 5.726 5.726 0 0 0 197.764 106.354 Q 197.645 105.531 197.267 105.016 A 1.765 1.765 0 0 0 195.976 104.281 A 2.441 2.441 0 0 0 195.719 104.268 Q 194.57 104.268 194.058 104.903 A 1.944 1.944 0 0 0 193.754 105.457 Q 193.561 105.98 193.535 106.753 A 7.222 7.222 0 0 0 193.531 106.927 Z"
       id="top_labelLayer"
       stroke="#777777"
       fill="#777777"
       style="stroke:#777777;fill:#777777"
       vector-effect="non-scaling-stroke" />
    <path
       d="M 0 82 L 0 91.625 L 4.5 91.625 L 4.5 101.375 L 0 101.375 L 0 111 L 13.125 111 L 13.125 106.5 L 22.875 106.5 L 22.875 111 L 32.625 111 L 32.625 106.5 L 42.375 106.5 L 42.375 111 L 52.125 111 L 52.125 106.5 L 61.875 106.5 L 61.875 111 L 71.625 111 L 75 111 L 75 101.375 L 70.5 101.375 L 70.5 91.625 L 75 91.625 L 75 82 L 61.875 82 L 61.875 86.5 L 52.125 86.5 L 52.125 82 L 42.375 82 L 42.375 86.5 L 32.625 86.5 L 32.625 82 L 22.875 82 L 22.875 86.5 L 13.125 86.5 L 13.125 82 L 3.375 82 L 0 82 Z"
       id="back_outsideCutPath"
       stroke="#FF0000"
       stroke-width="0.1"
       style="stroke:#FF0000;stroke-width:0.1"
       vector-effect="non-scaling-stroke" />
    <path
       d="M 41.471 97.086 L 41.493 97.086 A 2.783 2.783 0 0 1 41.562 96.993 Q 41.641 96.89 41.754 96.759 A 10.1 10.1 0 0 1 41.864 96.633 L 42.867 95.571 L 43.425 95.571 L 42.167 96.894 L 43.512 98.675 L 42.943 98.675 L 41.847 97.208 L 41.493 97.514 L 41.493 98.675 L 41.029 98.675 L 41.029 94.268 L 41.493 94.268 L 41.493 96.605 Q 41.493 96.758 41.471 97.074 A 20.768 20.768 0 0 1 41.471 97.086 Z M 31.958 98.276 L 31.924 98.276 L 31.825 98.675 L 31.488 98.675 L 31.488 94.268 L 31.958 94.268 L 31.958 95.339 A 9.802 9.802 0 0 1 31.952 95.67 Q 31.947 95.827 31.936 95.966 A 5.855 5.855 0 0 1 31.935 95.985 L 31.958 95.985 A 1.069 1.069 0 0 1 32.738 95.531 A 1.606 1.606 0 0 1 32.932 95.52 A 1.437 1.437 0 0 1 33.336 95.574 A 1.076 1.076 0 0 1 33.882 95.938 Q 34.153 96.272 34.207 96.829 A 3.018 3.018 0 0 1 34.221 97.12 A 2.756 2.756 0 0 1 34.184 97.584 Q 34.109 98.023 33.879 98.308 A 1.113 1.113 0 0 1 33.088 98.724 A 1.594 1.594 0 0 1 32.932 98.732 A 1.426 1.426 0 0 1 32.574 98.688 A 1.241 1.241 0 0 1 32.378 98.62 A 1.041 1.041 0 0 1 31.958 98.276 Z M 37.299 98.675 L 36.951 98.675 L 36.857 98.233 L 36.834 98.233 A 1.949 1.949 0 0 1 36.677 98.41 Q 36.592 98.493 36.507 98.551 A 0.866 0.866 0 0 1 36.371 98.628 A 1.084 1.084 0 0 1 36.148 98.699 Q 36.039 98.721 35.913 98.728 A 2.116 2.116 0 0 1 35.795 98.732 Q 35.426 98.732 35.184 98.579 A 0.81 0.81 0 0 1 35.072 98.494 A 0.773 0.773 0 0 1 34.838 98.086 A 1.183 1.183 0 0 1 34.81 97.817 A 0.813 0.813 0 0 1 35.272 97.049 Q 35.617 96.866 36.218 96.835 A 4.592 4.592 0 0 1 36.313 96.831 L 36.84 96.814 L 36.84 96.622 A 1.35 1.35 0 0 0 36.827 96.427 Q 36.795 96.206 36.683 96.082 A 0.477 0.477 0 0 0 36.487 95.955 Q 36.359 95.908 36.18 95.908 A 1.531 1.531 0 0 0 35.828 95.952 Q 35.666 95.99 35.491 96.062 A 3.148 3.148 0 0 0 35.302 96.146 L 35.158 95.786 A 2.168 2.168 0 0 1 35.576 95.614 A 2.467 2.467 0 0 1 35.661 95.591 A 2.177 2.177 0 0 1 36.209 95.52 A 1.986 1.986 0 0 1 36.511 95.542 Q 36.843 95.593 37.031 95.766 Q 37.299 96.013 37.299 96.557 L 37.299 98.675 Z M 40.338 95.676 L 40.193 96.075 Q 40.038 96.013 39.853 95.972 A 1.942 1.942 0 0 0 39.706 95.944 Q 39.61 95.931 39.528 95.931 A 1.043 1.043 0 0 0 39.104 96.01 Q 38.66 96.206 38.594 96.883 A 2.598 2.598 0 0 0 38.582 97.137 A 2.277 2.277 0 0 0 38.604 97.469 Q 38.654 97.805 38.813 98.015 A 0.747 0.747 0 0 0 39.296 98.304 A 1.137 1.137 0 0 0 39.497 98.321 A 1.968 1.968 0 0 0 40.039 98.242 A 2.43 2.43 0 0 0 40.292 98.154 L 40.292 98.57 Q 40.025 98.709 39.638 98.728 A 2.578 2.578 0 0 1 39.508 98.732 A 1.757 1.757 0 0 1 39.08 98.683 A 1.191 1.191 0 0 1 38.464 98.317 Q 38.145 97.958 38.102 97.343 A 2.843 2.843 0 0 1 38.095 97.143 A 2.594 2.594 0 0 1 38.135 96.671 Q 38.217 96.225 38.47 95.939 A 1.217 1.217 0 0 1 39.137 95.556 A 1.845 1.845 0 0 1 39.539 95.514 A 2.122 2.122 0 0 1 39.987 95.563 Q 40.208 95.61 40.335 95.674 A 0.719 0.719 0 0 1 40.338 95.676 Z M 32.864 95.914 A 1.321 1.321 0 0 0 32.608 95.937 Q 32.321 95.994 32.17 96.19 Q 31.958 96.466 31.958 97.12 A 3.108 3.108 0 0 0 31.973 97.441 Q 32.016 97.849 32.176 98.056 Q 32.371 98.309 32.778 98.335 A 1.512 1.512 0 0 0 32.875 98.338 A 0.937 0.937 0 0 0 33.141 98.302 A 0.676 0.676 0 0 0 33.521 98.022 A 1.079 1.079 0 0 0 33.655 97.733 Q 33.696 97.596 33.716 97.43 A 2.694 2.694 0 0 0 33.733 97.115 A 2.778 2.778 0 0 0 33.717 96.798 Q 33.677 96.452 33.543 96.243 A 0.78 0.78 0 0 0 33.521 96.211 A 0.686 0.686 0 0 0 33.085 95.935 A 1.087 1.087 0 0 0 32.864 95.914 Z M 36.829 97.429 L 36.829 97.149 L 36.359 97.168 Q 35.89 97.185 35.64 97.295 A 0.722 0.722 0 0 0 35.55 97.342 A 0.502 0.502 0 0 0 35.311 97.706 A 0.743 0.743 0 0 0 35.302 97.823 Q 35.302 98.047 35.422 98.177 A 0.419 0.419 0 0 0 35.457 98.211 Q 35.611 98.344 35.889 98.344 Q 36.268 98.344 36.507 98.164 A 0.785 0.785 0 0 0 36.578 98.103 A 0.787 0.787 0 0 0 36.798 97.71 Q 36.828 97.583 36.829 97.434 A 1.485 1.485 0 0 0 36.829 97.429 Z"
       id="back_labelLayer"
       stroke="#777777"
       fill="#777777"
       style="stroke:#777777;fill:#777777"
       vector-effect="non-scaling-stroke" />
    <path
       d="M 82.5 82 L 82.5 91.625 L 78 91.625 L 78 101.375 L 82.5 101.375 L 82.5 111 L 88.625 111 L 88.625 106.5 L 98.375 106.5 L 98.375 111 L 108.125 111 L 108.125 106.5 L 117.875 106.5 L 117.875 111 L 127.625 111 L 127.625 106.5 L 137.375 106.5 L 137.375 111 L 143.5 111 L 143.5 101.375 L 148 101.375 L 148 91.625 L 143.5 91.625 L 143.5 82 L 137.375 82 L 137.375 86.5 L 127.625 86.5 L 127.625 82 L 117.875 82 L 117.875 86.5 L 108.125 86.5 L 108.125 82 L 98.375 82 L 98.375 86.5 L 88.625 86.5 L 88.625 82 L 82.5 82 Z"
       id="right_outsideCutPath"
       stroke="#FF0000"
       stroke-width="0.1"
       style="stroke:#FF0000;stroke-width:0.1"
       vector-effect="non-scaling-stroke" />
    <path
       d="M 116.607 98.007 L 116.136 98.007 L 116.136 95.999 A 1.329 1.329 0 0 0 116.121 95.79 Q 116.085 95.564 115.964 95.432 Q 115.824 95.281 115.556 95.252 A 1.246 1.246 0 0 0 115.423 95.245 A 1.423 1.423 0 0 0 115.157 95.269 Q 115.009 95.297 114.896 95.359 A 0.658 0.658 0 0 0 114.708 95.512 A 0.782 0.782 0 0 0 114.575 95.747 Q 114.495 95.962 114.484 96.282 A 3.034 3.034 0 0 0 114.483 96.384 L 114.483 98.007 L 114.012 98.007 L 114.012 93.6 L 114.483 93.6 L 114.483 94.934 A 4.229 4.229 0 0 1 114.48 95.096 Q 114.474 95.232 114.46 95.333 L 114.488 95.333 A 0.939 0.939 0 0 1 114.817 95.016 A 1.147 1.147 0 0 1 114.883 94.981 A 1.207 1.207 0 0 1 115.279 94.863 A 1.526 1.526 0 0 1 115.468 94.852 A 1.907 1.907 0 0 1 115.789 94.877 Q 116.124 94.934 116.322 95.122 A 0.819 0.819 0 0 1 116.524 95.439 Q 116.572 95.571 116.592 95.735 A 2.033 2.033 0 0 1 116.607 95.982 L 116.607 98.007 Z M 112.302 94.903 L 113.375 94.903 L 113.375 95.2 L 112.8 95.268 A 0.764 0.764 0 0 1 112.866 95.366 Q 112.896 95.417 112.922 95.478 A 1.449 1.449 0 0 1 112.942 95.527 A 0.904 0.904 0 0 1 112.995 95.743 A 1.161 1.161 0 0 1 113.004 95.888 A 1.078 1.078 0 0 1 112.955 96.222 A 0.872 0.872 0 0 1 112.693 96.616 Q 112.381 96.888 111.837 96.888 A 1.511 1.511 0 0 1 111.663 96.878 A 1.276 1.276 0 0 1 111.577 96.865 Q 111.406 96.956 111.332 97.073 A 0.354 0.354 0 0 0 111.277 97.265 Q 111.277 97.388 111.375 97.449 A 0.261 0.261 0 0 0 111.381 97.453 A 0.33 0.33 0 0 0 111.455 97.483 Q 111.56 97.514 111.741 97.514 L 112.291 97.514 Q 112.627 97.514 112.859 97.608 A 0.85 0.85 0 0 1 113.065 97.726 Q 113.336 97.939 113.336 98.344 A 1.018 1.018 0 0 1 113.277 98.696 Q 113.181 98.96 112.922 99.13 A 1.41 1.41 0 0 1 112.559 99.294 Q 112.211 99.4 111.716 99.4 A 2.634 2.634 0 0 1 111.362 99.378 Q 111.004 99.329 110.777 99.173 A 0.749 0.749 0 0 1 110.535 98.911 Q 110.447 98.747 110.447 98.533 A 0.719 0.719 0 0 1 110.628 98.043 Q 110.809 97.837 111.138 97.763 Q 111.019 97.709 110.938 97.596 Q 110.858 97.483 110.858 97.333 A 0.538 0.538 0 0 1 110.885 97.159 A 0.476 0.476 0 0 1 110.948 97.035 A 0.673 0.673 0 0 1 111.037 96.935 Q 111.084 96.891 111.145 96.847 A 1.477 1.477 0 0 1 111.234 96.789 A 0.824 0.824 0 0 1 110.876 96.502 A 1.022 1.022 0 0 1 110.842 96.452 A 0.972 0.972 0 0 1 110.693 95.983 A 1.186 1.186 0 0 1 110.69 95.908 A 1.358 1.358 0 0 1 110.726 95.587 A 0.894 0.894 0 0 1 110.996 95.122 A 0.998 0.998 0 0 1 111.38 94.911 Q 111.532 94.864 111.715 94.851 A 2.076 2.076 0 0 1 111.863 94.846 A 1.802 1.802 0 0 1 112.101 94.861 A 1.372 1.372 0 0 1 112.302 94.903 Z M 119 97.619 L 119 97.978 A 0.462 0.462 0 0 1 118.945 98 Q 118.886 98.019 118.803 98.034 A 1.757 1.757 0 0 1 118.775 98.039 Q 118.626 98.063 118.507 98.063 A 1.228 1.228 0 0 1 118.145 98.015 Q 117.606 97.848 117.606 97.115 L 117.606 95.268 L 117.162 95.268 L 117.162 95.041 L 117.606 94.846 L 117.805 94.183 L 118.076 94.183 L 118.076 94.903 L 118.977 94.903 L 118.977 95.268 L 118.076 95.268 L 118.076 97.095 Q 118.076 97.375 118.21 97.525 A 0.437 0.437 0 0 0 118.478 97.668 A 0.628 0.628 0 0 0 118.575 97.675 A 1.544 1.544 0 0 0 118.801 97.659 A 1.421 1.421 0 0 0 118.816 97.657 Q 118.932 97.638 119 97.619 Z M 108.787 94.88 L 108.722 95.316 Q 108.53 95.274 108.382 95.274 A 0.815 0.815 0 0 0 107.781 95.534 A 1.115 1.115 0 0 0 107.738 95.58 A 1.074 1.074 0 0 0 107.479 96.182 A 1.427 1.427 0 0 0 107.47 96.341 L 107.47 98.007 L 107 98.007 L 107 94.903 L 107.388 94.903 L 107.442 95.478 L 107.465 95.478 A 1.588 1.588 0 0 1 107.642 95.224 A 1.213 1.213 0 0 1 107.881 95.01 Q 108.125 94.846 108.416 94.846 A 2.158 2.158 0 0 1 108.61 94.854 A 1.575 1.575 0 0 1 108.787 94.88 Z M 109.838 94.903 L 109.838 98.007 L 109.368 98.007 L 109.368 94.903 L 109.838 94.903 Z M 112.14 97.936 L 111.577 97.936 A 1.081 1.081 0 0 0 111.382 97.952 Q 111.198 97.986 111.078 98.089 A 0.495 0.495 0 0 0 110.916 98.37 A 0.752 0.752 0 0 0 110.9 98.528 Q 110.9 98.763 111.085 98.892 A 0.552 0.552 0 0 0 111.112 98.91 A 0.753 0.753 0 0 0 111.298 98.989 Q 111.472 99.04 111.717 99.04 A 2.334 2.334 0 0 0 111.721 99.04 A 3.16 3.16 0 0 0 112.03 99.026 Q 112.339 98.996 112.534 98.899 A 0.781 0.781 0 0 0 112.598 98.863 A 0.686 0.686 0 0 0 112.757 98.73 A 0.514 0.514 0 0 0 112.882 98.383 A 0.636 0.636 0 0 0 112.871 98.257 Q 112.84 98.105 112.727 98.034 A 0.446 0.446 0 0 0 112.621 97.987 Q 112.508 97.953 112.33 97.941 A 2.991 2.991 0 0 0 112.14 97.936 Z M 111.155 95.897 A 0.918 0.918 0 0 0 111.174 96.089 Q 111.199 96.208 111.26 96.298 A 0.503 0.503 0 0 0 111.339 96.39 A 0.608 0.608 0 0 0 111.584 96.522 Q 111.677 96.549 111.788 96.555 A 1.21 1.21 0 0 0 111.852 96.557 A 1.024 1.024 0 0 0 112.12 96.525 Q 112.427 96.441 112.509 96.14 A 0.952 0.952 0 0 0 112.54 95.888 A 1.011 1.011 0 0 0 112.505 95.611 Q 112.417 95.301 112.101 95.219 A 1.022 1.022 0 0 0 111.843 95.189 Q 111.512 95.189 111.333 95.367 A 0.564 0.564 0 0 0 111.197 95.597 Q 111.168 95.686 111.159 95.794 A 1.237 1.237 0 0 0 111.155 95.897 Z M 109.408 93.825 A 0.22 0.22 0 0 0 109.359 93.894 Q 109.328 93.961 109.328 94.062 Q 109.328 94.142 109.348 94.201 A 0.243 0.243 0 0 0 109.408 94.298 A 0.264 0.264 0 0 0 109.503 94.359 A 0.299 0.299 0 0 0 109.606 94.376 A 0.274 0.274 0 0 0 109.801 94.298 A 0.229 0.229 0 0 0 109.846 94.239 Q 109.866 94.2 109.876 94.151 A 0.486 0.486 0 0 0 109.883 94.062 A 0.538 0.538 0 0 0 109.881 94.011 Q 109.877 93.964 109.864 93.926 A 0.237 0.237 0 0 0 109.801 93.827 A 0.277 0.277 0 0 0 109.606 93.75 A 0.359 0.359 0 0 0 109.582 93.751 A 0.272 0.272 0 0 0 109.408 93.825 Z"
       id="right_labelLayer"
       stroke="#777777"
       fill="#777777"
       style="stroke:#777777;fill:#777777"
       vector-effect="non-scaling-stroke" />
    <path
       d="M 155.5 4.5 L 155.5 10.625 L 151 10.625 L 151 20.375 L 155.5 20.375 L 155.5 30.125 L 151 30.125 L 151 39.875 L 155.5 39.875 L 155.5 49.625 L 151 49.625 L 151 59.375 L 155.5 59.375 L 155.5 65.5 L 164.125 65.5 L 164.125 70 L 173.875 70 L 173.875 65.5 L 183.625 65.5 L 183.625 70 L 193.375 70 L 193.375 65.5 L 203.125 65.5 L 203.125 70 L 212.875 70 L 212.875 65.5 L 221.5 65.5 L 221.5 59.375 L 226 59.375 L 226 49.625 L 221.5 49.625 L 221.5 39.875 L 226 39.875 L 226 30.125 L 221.5 30.125 L 221.5 20.375 L 226 20.375 L 226 10.625 L 221.5 10.625 L 221.5 4.5 L 212.875 4.5 L 212.875 0 L 203.125 0 L 203.125 4.5 L 193.375 4.5 L 193.375 0 L 183.625 0 L 183.625 4.5 L 173.875 4.5 L 173.875 0 L 164.125 0 L 164.125 4.5 L 155.5 4.5 Z"
       id="bottom_outsideCutPath"
       stroke="#FF0000"
       stroke-width="0.1"
       style="stroke:#FF0000;stroke-width:0.1"
       vector-effect="non-scaling-stroke" />
    <path
       d="M 211.53 40.25 L 210.395 40.25 L 210.395 35.376 A 3.348 3.348 0 0 0 210.362 34.884 Q 210.324 34.632 210.245 34.43 A 1.371 1.371 0 0 0 210.013 34.033 A 1.194 1.194 0 0 0 209.458 33.674 Q 209.26 33.61 209.019 33.592 A 2.634 2.634 0 0 0 208.823 33.585 A 2.92 2.92 0 0 0 208.229 33.641 Q 207.876 33.715 207.609 33.884 A 1.503 1.503 0 0 0 207.258 34.193 A 1.875 1.875 0 0 0 206.94 34.769 Q 206.753 35.292 206.752 36.055 A 6.277 6.277 0 0 0 206.752 36.066 L 206.752 40.25 L 205.617 40.25 L 205.617 35.376 A 3.348 3.348 0 0 0 205.583 34.884 Q 205.546 34.632 205.467 34.43 A 1.371 1.371 0 0 0 205.234 34.033 Q 204.852 33.585 204.038 33.585 Q 203.294 33.585 202.828 33.896 A 1.487 1.487 0 0 0 202.476 34.224 Q 201.98 34.863 201.98 36.319 L 201.98 40.25 L 200.846 40.25 L 200.846 32.758 L 201.769 32.758 L 201.953 33.783 L 202.008 33.783 A 2.23 2.23 0 0 1 202.914 32.929 A 2.694 2.694 0 0 1 203.978 32.63 A 3.254 3.254 0 0 1 204.223 32.621 A 3.715 3.715 0 0 1 205.059 32.708 Q 205.573 32.827 205.932 33.109 A 1.937 1.937 0 0 1 206.519 33.892 L 206.574 33.892 A 2.369 2.369 0 0 1 207.467 33.006 A 2.847 2.847 0 0 1 207.545 32.963 A 2.872 2.872 0 0 1 208.598 32.642 A 3.581 3.581 0 0 1 208.994 32.621 A 3.945 3.945 0 0 1 209.71 32.682 Q 210.107 32.755 210.418 32.918 A 1.87 1.87 0 0 1 210.898 33.274 A 1.954 1.954 0 0 1 211.317 33.96 Q 211.53 34.529 211.53 35.362 L 211.53 40.25 Z M 166.604 39.286 L 166.522 39.286 L 166.283 40.25 L 165.47 40.25 L 165.47 29.613 L 166.604 29.613 L 166.604 32.197 A 23.659 23.659 0 0 1 166.592 32.996 Q 166.578 33.4 166.55 33.756 L 166.604 33.756 A 2.58 2.58 0 0 1 168.488 32.662 A 3.876 3.876 0 0 1 168.956 32.635 A 3.468 3.468 0 0 1 169.932 32.765 A 2.596 2.596 0 0 1 171.249 33.643 A 3.344 3.344 0 0 1 171.836 34.772 Q 172.066 35.516 172.066 36.497 A 6.653 6.653 0 0 1 171.978 37.616 Q 171.797 38.677 171.243 39.365 A 2.686 2.686 0 0 1 169.333 40.369 A 3.849 3.849 0 0 1 168.956 40.387 A 3.442 3.442 0 0 1 168.091 40.281 A 2.995 2.995 0 0 1 167.62 40.117 A 2.513 2.513 0 0 1 166.604 39.286 Z M 185.95 39.313 L 185.95 40.181 Q 185.783 40.262 185.474 40.317 A 4.246 4.246 0 0 1 185.407 40.328 Q 185.048 40.387 184.761 40.387 Q 182.587 40.387 182.587 38.097 L 182.587 33.639 L 181.514 33.639 L 181.514 33.093 L 182.587 32.621 L 183.065 31.021 L 183.722 31.021 L 183.722 32.758 L 185.895 32.758 L 185.895 33.639 L 183.722 33.639 L 183.722 38.049 A 2.285 2.285 0 0 0 183.755 38.45 Q 183.825 38.841 184.043 39.088 A 1.054 1.054 0 0 0 184.691 39.433 A 1.517 1.517 0 0 0 184.925 39.45 A 3.727 3.727 0 0 0 185.471 39.411 A 3.435 3.435 0 0 0 185.506 39.406 Q 185.773 39.363 185.935 39.318 A 1.704 1.704 0 0 0 185.95 39.313 Z M 190.893 39.313 L 190.893 40.181 Q 190.726 40.262 190.417 40.317 A 4.246 4.246 0 0 1 190.349 40.328 Q 189.99 40.387 189.703 40.387 Q 187.529 40.387 187.529 38.097 L 187.529 33.639 L 186.456 33.639 L 186.456 33.093 L 187.529 32.621 L 188.008 31.021 L 188.664 31.021 L 188.664 32.758 L 190.838 32.758 L 190.838 33.639 L 188.664 33.639 L 188.664 38.049 A 2.285 2.285 0 0 0 188.697 38.45 Q 188.767 38.841 188.985 39.088 A 1.054 1.054 0 0 0 189.633 39.433 A 1.517 1.517 0 0 0 189.867 39.45 A 3.727 3.727 0 0 0 190.413 39.411 A 3.435 3.435 0 0 0 190.448 39.406 Q 190.716 39.363 190.877 39.318 A 1.704 1.704 0 0 0 190.893 39.313 Z M 180.411 37.637 A 5.862 5.862 0 0 0 180.516 36.497 A 6.66 6.66 0 0 0 180.513 36.317 Q 180.468 34.659 179.589 33.667 A 2.971 2.971 0 0 0 178.21 32.777 A 3.813 3.813 0 0 0 177.091 32.621 A 4.407 4.407 0 0 0 176.299 32.689 A 3.002 3.002 0 0 0 174.548 33.643 A 3.135 3.135 0 0 0 174.163 34.177 Q 173.632 35.102 173.632 36.497 A 5.677 5.677 0 0 0 173.703 37.416 A 4.198 4.198 0 0 0 174.056 38.561 A 3.73 3.73 0 0 0 174.138 38.723 A 3.072 3.072 0 0 0 175.259 39.915 A 3.16 3.16 0 0 0 175.984 40.237 A 3.644 3.644 0 0 0 177.043 40.387 A 4.406 4.406 0 0 0 177.812 40.322 A 3.025 3.025 0 0 0 179.593 39.358 A 3.166 3.166 0 0 0 179.97 38.84 Q 180.277 38.314 180.411 37.637 Z M 198.752 37.637 A 5.862 5.862 0 0 0 198.856 36.497 A 6.66 6.66 0 0 0 198.854 36.317 Q 198.809 34.659 197.93 33.667 A 2.971 2.971 0 0 0 196.551 32.777 A 3.813 3.813 0 0 0 195.432 32.621 A 4.407 4.407 0 0 0 194.64 32.689 A 3.002 3.002 0 0 0 192.889 33.643 A 3.135 3.135 0 0 0 192.504 34.177 Q 191.973 35.102 191.973 36.497 A 5.677 5.677 0 0 0 192.044 37.416 A 4.198 4.198 0 0 0 192.396 38.561 A 3.73 3.73 0 0 0 192.479 38.723 A 3.072 3.072 0 0 0 193.6 39.915 A 3.16 3.16 0 0 0 194.325 40.237 A 3.644 3.644 0 0 0 195.384 40.387 A 4.406 4.406 0 0 0 196.153 40.322 A 3.025 3.025 0 0 0 197.934 39.358 A 3.166 3.166 0 0 0 198.31 38.84 Q 198.618 38.314 198.752 37.637 Z M 174.808 36.497 A 5.746 5.746 0 0 0 174.862 37.318 Q 174.923 37.735 175.049 38.072 A 2.381 2.381 0 0 0 175.382 38.684 Q 175.956 39.436 177.07 39.436 A 2.636 2.636 0 0 0 177.766 39.35 A 1.834 1.834 0 0 0 178.762 38.688 A 2.436 2.436 0 0 0 179.141 37.949 Q 179.253 37.608 179.302 37.191 A 5.977 5.977 0 0 0 179.34 36.497 Q 179.34 35.58 179.102 34.947 A 2.336 2.336 0 0 0 178.762 34.326 A 1.867 1.867 0 0 0 177.602 33.634 A 2.862 2.862 0 0 0 177.057 33.585 A 2.701 2.701 0 0 0 176.384 33.664 A 1.807 1.807 0 0 0 175.375 34.316 Q 174.967 34.843 174.852 35.741 A 5.996 5.996 0 0 0 174.808 36.497 Z M 193.148 36.497 A 5.746 5.746 0 0 0 193.203 37.318 Q 193.263 37.735 193.39 38.072 A 2.381 2.381 0 0 0 193.723 38.684 Q 194.297 39.436 195.411 39.436 A 2.636 2.636 0 0 0 196.106 39.35 A 1.834 1.834 0 0 0 197.103 38.688 A 2.436 2.436 0 0 0 197.482 37.949 Q 197.594 37.608 197.643 37.191 A 5.977 5.977 0 0 0 197.681 36.497 Q 197.681 35.58 197.443 34.947 A 2.336 2.336 0 0 0 197.103 34.326 A 1.867 1.867 0 0 0 195.942 33.634 A 2.862 2.862 0 0 0 195.397 33.585 A 2.701 2.701 0 0 0 194.725 33.664 A 1.807 1.807 0 0 0 193.716 34.316 Q 193.307 34.843 193.193 35.741 A 5.996 5.996 0 0 0 193.148 36.497 Z M 168.792 33.585 A 3.189 3.189 0 0 0 168.174 33.64 Q 167.823 33.71 167.555 33.866 A 1.509 1.509 0 0 0 167.117 34.251 A 1.943 1.943 0 0 0 166.836 34.787 Q 166.646 35.319 166.612 36.127 A 8.743 8.743 0 0 0 166.604 36.497 A 7.503 7.503 0 0 0 166.642 37.272 Q 166.744 38.257 167.131 38.756 A 1.646 1.646 0 0 0 167.966 39.32 Q 168.245 39.407 168.586 39.429 A 3.649 3.649 0 0 0 168.819 39.436 A 2.262 2.262 0 0 0 169.462 39.35 A 1.632 1.632 0 0 0 170.378 38.674 A 2.605 2.605 0 0 0 170.7 37.977 Q 170.891 37.354 170.891 36.483 Q 170.891 35.096 170.43 34.379 A 1.883 1.883 0 0 0 170.378 34.303 A 1.655 1.655 0 0 0 169.324 33.636 A 2.624 2.624 0 0 0 168.792 33.585 Z"
       id="bottom_labelLayer"
       stroke="#777777"
       fill="#777777"
       style="stroke:#777777;fill:#777777"
       vector-effect="non-scaling-stroke" />
    <rect
       style="fill:none;stroke:#ff0000;stroke-width:0.25"
       id="rect2632"
       width="17"
       height="8"
       x="40.625"
       y="126.625" />
    <rect
       style="fill:none;stroke:#ff0000;stroke-width:0.25"
       id="rect449-0"
       width="4"
       height="13"
       x="215.625"
       y="106.625" />
    <circle
       style="fill:none;stroke:#ff0000;stroke-width:0.25"
       id="path527"
       cx="210.125"
       cy="97.125"
       r="2.5" />
    <circle
       style="fill:none;stroke:#ff0000;stroke-width:0.25"
       id="path527-4"
       cx="210.125"
       cy="101.625"
       r="2.5" />
    <circle
       style="fill:none;stroke:#ff0000;stroke-width:0.25"
       id="path527-4-2"
       cx="216.625"
       cy="99.875"
       r="2.5" />
    <circle
       style="fill:none;stroke:#ff0000;stroke-width:0.25"
       id="path303"
       cx="196.625"
       cy="120.625"
       r="2" />
    <circle
       style="fill:none;stroke:#ff0000;stroke-width:0.25"
       id="path303-7"
       cx="204.625"
       cy="120.625"
       r="2" />
  </g>
  <rect
     style="fill:none;stroke:#ff0000;stroke-width:0.25"
     id="rect624"
     width="11"
     height="12"
     x="124.625"
     y="123.625" />
</svg>
