<?xml version="1.0" encoding="UTF-8" standalone="no"?>
<svg
   width="217mm"
   height="137mm"
   viewBox="0 0 217 137"
   version="1.1"
   preserveAspectRatio="xMidYMid meet"
   id="svg309"
   sodipodi:docname="box pcb morse.svg"
   inkscape:version="1.2.2 (732a01da63, 2022-12-09)"
   xmlns:inkscape="http://www.inkscape.org/namespaces/inkscape"
   xmlns:sodipodi="http://sodipodi.sourceforge.net/DTD/sodipodi-0.dtd"
   xmlns="http://www.w3.org/2000/svg"
   xmlns:svg="http://www.w3.org/2000/svg">
  <defs
     id="defs313" />
  <sodipodi:namedview
     id="namedview311"
     pagecolor="#ffffff"
     bordercolor="#000000"
     borderopacity="0.25"
     inkscape:showpageshadow="2"
     inkscape:pageopacity="0.0"
     inkscape:pagecheckerboard="0"
     inkscape:deskcolor="#d1d1d1"
     inkscape:document-units="mm"
     showgrid="false"
     inkscape:zoom="1.5527372"
     inkscape:cx="410.24327"
     inkscape:cy="310.74157"
     inkscape:window-width="1920"
     inkscape:window-height="991"
     inkscape:window-x="-9"
     inkscape:window-y="-9"
     inkscape:window-maximized="1"
     inkscape:current-layer="svg309" />
  <g
     id="svgGroup"
     stroke-linecap="round"
     fill-rule="evenodd"
     font-size="9pt"
     stroke="#000"
     stroke-width="0.25mm"
     fill="none"
     style="stroke:#000;stroke-width:0.25mm;fill:none">
    <path
       d="M 0 111 L 0 120.25 L 3 120.25 L 3 127.75 L 0 127.75 L 0 135.25 L 0 137 L 9.75 137 L 9.75 134 L 17.25 134 L 17.25 137 L 24.75 137 L 24.75 134 L 32.25 134 L 32.25 137 L 39.75 137 L 39.75 134 L 47.25 134 L 47.25 137 L 54.75 137 L 54.75 134 L 62.25 134 L 62.25 137 L 69.75 137 L 72 137 L 72 127.75 L 69 127.75 L 69 120.25 L 72 120.25 L 72 112.75 L 72 111 L 62.25 111 L 62.25 114 L 54.75 114 L 54.75 111 L 47.25 111 L 47.25 114 L 39.75 114 L 39.75 111 L 32.25 111 L 32.25 114 L 24.75 114 L 24.75 111 L 17.25 111 L 17.25 114 L 9.75 114 L 9.75 111 L 2.25 111 L 0 111 Z"
       id="front_outsideCutPath"
       stroke="#FF0000"
       stroke-width="0.1"
       style="stroke:#FF0000;stroke-width:0.1"
       vector-effect="non-scaling-stroke" />
    <path
       d="M 39.79 125.964 L 39.368 125.964 L 39.368 124.164 Q 39.368 123.947 39.305 123.8 A 0.501 0.501 0 0 0 39.213 123.656 Q 39.058 123.488 38.728 123.488 A 1.276 1.276 0 0 0 38.49 123.509 Q 38.357 123.535 38.254 123.591 A 0.594 0.594 0 0 0 38.088 123.724 Q 37.903 123.94 37.887 124.412 A 2.7 2.7 0 0 0 37.885 124.504 L 37.885 125.964 L 37.464 125.964 L 37.464 123.181 L 37.807 123.181 L 37.875 123.562 L 37.895 123.562 A 0.853 0.853 0 0 1 38.23 123.258 A 1.026 1.026 0 0 1 38.258 123.243 Q 38.492 123.13 38.779 123.13 Q 39.282 123.13 39.536 123.373 Q 39.729 123.557 39.775 123.91 A 1.839 1.839 0 0 1 39.79 124.148 L 39.79 125.964 Z M 31.692 123.181 L 31.692 123.509 L 30.984 123.509 L 30.984 125.964 L 30.563 125.964 L 30.563 123.509 L 30.065 123.509 L 30.065 123.318 L 30.563 123.166 L 30.563 123.011 A 1.708 1.708 0 0 1 30.602 122.624 Q 30.726 122.096 31.231 122.004 A 1.281 1.281 0 0 1 31.459 121.985 A 1.357 1.357 0 0 1 31.651 122 Q 31.744 122.013 31.848 122.039 A 2.728 2.728 0 0 1 31.977 122.074 L 31.868 122.412 A 2.047 2.047 0 0 0 31.708 122.367 Q 31.628 122.348 31.557 122.34 A 0.906 0.906 0 0 0 31.451 122.333 A 0.568 0.568 0 0 0 31.314 122.349 A 0.365 0.365 0 0 0 31.098 122.492 Q 30.995 122.636 30.985 122.937 A 1.99 1.99 0 0 0 30.984 123.001 L 30.984 123.181 L 31.692 123.181 Z M 41.935 125.616 L 41.935 125.939 A 0.415 0.415 0 0 1 41.886 125.958 Q 41.825 125.978 41.733 125.993 Q 41.6 126.015 41.493 126.015 Q 40.686 126.015 40.686 125.164 L 40.686 123.509 L 40.287 123.509 L 40.287 123.306 L 40.686 123.13 L 40.864 122.536 L 41.107 122.536 L 41.107 123.181 L 41.915 123.181 L 41.915 123.509 L 41.107 123.509 L 41.107 125.146 A 0.849 0.849 0 0 0 41.12 125.295 Q 41.134 125.377 41.166 125.442 A 0.409 0.409 0 0 0 41.227 125.532 A 0.392 0.392 0 0 0 41.467 125.66 A 0.563 0.563 0 0 0 41.554 125.667 A 1.384 1.384 0 0 0 41.757 125.652 A 1.278 1.278 0 0 0 41.77 125.65 A 2.28 2.28 0 0 0 41.831 125.64 Q 41.893 125.628 41.935 125.616 Z M 33.802 123.161 L 33.744 123.552 A 1.858 1.858 0 0 0 33.61 123.527 Q 33.544 123.517 33.485 123.515 A 0.989 0.989 0 0 0 33.439 123.514 A 0.73 0.73 0 0 0 32.9 123.747 A 0.999 0.999 0 0 0 32.862 123.788 A 0.962 0.962 0 0 0 32.63 124.328 A 1.279 1.279 0 0 0 32.622 124.471 L 32.622 125.964 L 32.2 125.964 L 32.2 123.181 L 32.548 123.181 L 32.596 123.697 L 32.617 123.697 Q 32.772 123.425 32.99 123.278 Q 33.208 123.13 33.47 123.13 A 1.935 1.935 0 0 1 33.643 123.138 A 1.412 1.412 0 0 1 33.802 123.161 Z M 36.686 124.993 A 2.177 2.177 0 0 0 36.725 124.57 A 2.474 2.474 0 0 0 36.724 124.503 Q 36.718 124.271 36.668 124.075 A 1.312 1.312 0 0 0 36.381 123.519 A 1.103 1.103 0 0 0 35.869 123.188 A 1.416 1.416 0 0 0 35.453 123.13 A 1.637 1.637 0 0 0 35.159 123.156 A 1.115 1.115 0 0 0 34.508 123.51 Q 34.168 123.889 34.168 124.57 A 2.109 2.109 0 0 0 34.195 124.911 A 1.559 1.559 0 0 0 34.325 125.337 Q 34.483 125.664 34.772 125.839 A 1.174 1.174 0 0 0 35.042 125.959 A 1.354 1.354 0 0 0 35.435 126.015 Q 36.039 126.015 36.382 125.633 Q 36.61 125.379 36.686 124.993 Z M 34.605 124.57 A 2.134 2.134 0 0 0 34.625 124.875 Q 34.647 125.03 34.695 125.155 A 0.884 0.884 0 0 0 34.818 125.382 A 0.691 0.691 0 0 0 35.268 125.647 A 1.047 1.047 0 0 0 35.445 125.662 A 0.979 0.979 0 0 0 35.703 125.63 A 0.681 0.681 0 0 0 36.074 125.384 Q 36.233 125.177 36.274 124.828 A 2.22 2.22 0 0 0 36.288 124.57 A 2.103 2.103 0 0 0 36.268 124.27 Q 36.246 124.118 36.2 123.994 A 0.868 0.868 0 0 0 36.074 123.764 A 0.693 0.693 0 0 0 35.643 123.507 A 1.063 1.063 0 0 0 35.44 123.488 A 1.003 1.003 0 0 0 35.19 123.518 A 0.671 0.671 0 0 0 34.816 123.76 A 0.871 0.871 0 0 0 34.68 124.022 Q 34.64 124.142 34.621 124.289 A 2.227 2.227 0 0 0 34.605 124.57 Z"
       id="front_labelLayer"
       stroke="#777777"
       fill="#777777"
       style="stroke:#777777;fill:#777777"
       vector-effect="non-scaling-stroke" />
    <path
       d="M 78 111 L 78 120.25 L 75 120.25 L 75 127.75 L 78 127.75 L 78 135.25 L 78 137 L 82.25 137 L 82.25 134 L 89.75 134 L 89.75 137 L 97.25 137 L 97.25 134 L 104.75 134 L 104.75 137 L 112.25 137 L 112.25 134 L 119.75 134 L 119.75 137 L 127.25 137 L 127.25 134 L 134.75 134 L 134.75 137 L 139 137 L 139 127.75 L 142 127.75 L 142 120.25 L 139 120.25 L 139 112.75 L 139 111 L 134.75 111 L 134.75 114 L 127.25 114 L 127.25 111 L 119.75 111 L 119.75 114 L 112.25 114 L 112.25 111 L 104.75 111 L 104.75 114 L 97.25 114 L 97.25 111 L 89.75 111 L 89.75 114 L 82.25 114 L 82.25 111 L 78 111 Z"
       id="left_outsideCutPath"
       stroke="#FF0000"
       stroke-width="0.1"
       style="stroke:#FF0000;stroke-width:0.1"
       vector-effect="non-scaling-stroke" />
    <path
       d="M 110.35 123.181 L 110.35 123.509 L 109.641 123.509 L 109.641 125.964 L 109.22 125.964 L 109.22 123.509 L 108.722 123.509 L 108.722 123.318 L 109.22 123.166 L 109.22 123.011 A 1.708 1.708 0 0 1 109.26 122.624 Q 109.383 122.096 109.888 122.004 A 1.281 1.281 0 0 1 110.116 121.985 A 1.357 1.357 0 0 1 110.308 122 Q 110.402 122.013 110.506 122.039 A 2.728 2.728 0 0 1 110.634 122.074 L 110.525 122.412 A 2.047 2.047 0 0 0 110.366 122.367 Q 110.285 122.348 110.214 122.34 A 0.906 0.906 0 0 0 110.108 122.333 A 0.568 0.568 0 0 0 109.971 122.349 A 0.365 0.365 0 0 0 109.756 122.492 Q 109.652 122.636 109.642 122.937 A 1.99 1.99 0 0 0 109.641 123.001 L 109.641 123.181 L 110.35 123.181 Z M 108.377 124.382 L 108.377 124.649 L 106.46 124.649 A 1.692 1.692 0 0 0 106.489 124.932 Q 106.546 125.218 106.707 125.393 A 0.766 0.766 0 0 0 107.11 125.619 A 1.16 1.16 0 0 0 107.369 125.647 A 2.226 2.226 0 0 0 108.203 125.481 A 2.552 2.552 0 0 0 108.258 125.459 L 108.258 125.834 A 2.53 2.53 0 0 1 108.027 125.922 A 1.935 1.935 0 0 1 107.835 125.973 Q 107.635 126.015 107.354 126.015 A 1.638 1.638 0 0 1 106.944 125.966 A 1.16 1.16 0 0 1 106.38 125.639 A 1.24 1.24 0 0 1 106.083 125.094 Q 106.032 124.901 106.024 124.671 A 2.408 2.408 0 0 1 106.023 124.595 A 2.213 2.213 0 0 1 106.064 124.156 Q 106.14 123.783 106.354 123.526 A 1.08 1.08 0 0 1 107.142 123.134 A 1.49 1.49 0 0 1 107.244 123.13 A 1.284 1.284 0 0 1 107.606 123.179 A 0.977 0.977 0 0 1 108.072 123.474 A 1.179 1.179 0 0 1 108.339 124.013 A 1.715 1.715 0 0 1 108.377 124.382 Z M 112.137 125.616 L 112.137 125.939 A 0.415 0.415 0 0 1 112.088 125.958 Q 112.027 125.978 111.935 125.993 Q 111.802 126.015 111.695 126.015 Q 110.888 126.015 110.888 125.164 L 110.888 123.509 L 110.489 123.509 L 110.489 123.306 L 110.888 123.13 L 111.066 122.536 L 111.309 122.536 L 111.309 123.181 L 112.117 123.181 L 112.117 123.509 L 111.309 123.509 L 111.309 125.146 A 0.849 0.849 0 0 0 111.322 125.295 Q 111.336 125.377 111.368 125.442 A 0.409 0.409 0 0 0 111.429 125.532 A 0.392 0.392 0 0 0 111.67 125.66 A 0.563 0.563 0 0 0 111.756 125.667 A 1.384 1.384 0 0 0 111.959 125.652 A 1.278 1.278 0 0 0 111.972 125.65 A 2.28 2.28 0 0 0 112.033 125.64 Q 112.095 125.628 112.137 125.616 Z M 105.284 122.013 L 105.284 125.964 L 104.863 125.964 L 104.863 122.013 L 105.284 122.013 Z M 106.47 124.306 L 107.925 124.306 A 1.436 1.436 0 0 0 107.908 124.075 Q 107.887 123.951 107.844 123.852 A 0.652 0.652 0 0 0 107.747 123.695 A 0.577 0.577 0 0 0 107.399 123.497 A 0.866 0.866 0 0 0 107.239 123.483 A 0.831 0.831 0 0 0 106.999 123.516 A 0.642 0.642 0 0 0 106.705 123.702 Q 106.525 123.899 106.478 124.234 A 1.592 1.592 0 0 0 106.47 124.306 Z"
       id="left_labelLayer"
       stroke="#777777"
       fill="#777777"
       style="stroke:#777777;fill:#777777"
       vector-effect="non-scaling-stroke" />
    <path
       d="M 148 73 L 148 77.25 L 145 77.25 L 145 84.75 L 148 84.75 L 148 92.25 L 145 92.25 L 145 99.75 L 148 99.75 L 148 107.25 L 145 107.25 L 145 114.75 L 148 114.75 L 148 122.25 L 145 122.25 L 145 129.75 L 148 129.75 L 148 134 L 154.75 134 L 154.75 137 L 162.25 137 L 162.25 134 L 169.75 134 L 169.75 137 L 177.25 137 L 177.25 134 L 184.75 134 L 184.75 137 L 192.25 137 L 192.25 134 L 199.75 134 L 199.75 137 L 207.25 137 L 207.25 134 L 214 134 L 214 129.75 L 217 129.75 L 217 122.25 L 214 122.25 L 214 114.75 L 217 114.75 L 217 107.25 L 214 107.25 L 214 99.75 L 217 99.75 L 217 92.25 L 214 92.25 L 214 84.75 L 217 84.75 L 217 77.25 L 214 77.25 L 214 73 L 207.25 73 L 207.25 70 L 199.75 70 L 199.75 73 L 192.25 73 L 192.25 70 L 184.75 70 L 184.75 73 L 177.25 73 L 177.25 70 L 169.75 70 L 169.75 73 L 162.25 73 L 162.25 70 L 154.75 70 L 154.75 73 L 148 73 Z"
       id="top_outsideCutPath"
       stroke="#FF0000"
       stroke-width="0.1"
       style="stroke:#FF0000;stroke-width:0.1"
       vector-effect="non-scaling-stroke" />
    <path
       d="M 185.816 105.384 L 185.737 105.384 A 10.279 10.279 0 0 1 185.805 106.144 A 8.613 8.613 0 0 1 185.816 106.575 L 185.816 109.526 L 184.729 109.526 L 184.729 99.136 L 185.613 99.136 L 185.763 100.117 L 185.816 100.117 A 2.924 2.924 0 0 1 186.238 99.637 A 2.261 2.261 0 0 1 186.79 99.267 A 2.72 2.72 0 0 1 187.57 99.039 A 3.521 3.521 0 0 1 188.066 99.005 A 3.329 3.329 0 0 1 189.007 99.131 A 2.461 2.461 0 0 1 190.268 99.98 A 3.261 3.261 0 0 1 190.825 101.066 Q 190.968 101.535 191.018 102.098 A 7.073 7.073 0 0 1 191.043 102.715 Q 191.043 104.481 190.255 105.46 A 2.571 2.571 0 0 1 188.427 106.421 A 3.684 3.684 0 0 1 188.066 106.438 A 3.294 3.294 0 0 1 187.239 106.337 A 2.867 2.867 0 0 1 186.787 106.179 A 2.406 2.406 0 0 1 185.816 105.384 Z M 175.203 105.411 L 175.203 106.242 A 1.068 1.068 0 0 1 175.076 106.292 Q 174.941 106.337 174.748 106.371 A 4.062 4.062 0 0 1 174.683 106.382 Q 174.362 106.434 174.101 106.438 A 2.785 2.785 0 0 1 174.064 106.438 Q 171.984 106.438 171.984 104.246 L 171.984 99.98 L 170.956 99.98 L 170.956 99.456 L 171.984 99.005 L 172.442 97.474 L 173.07 97.474 L 173.07 99.136 L 175.151 99.136 L 175.151 99.98 L 173.07 99.98 L 173.07 104.2 A 2.187 2.187 0 0 0 173.101 104.584 Q 173.139 104.795 173.222 104.962 A 1.054 1.054 0 0 0 173.377 105.195 A 1.009 1.009 0 0 0 173.998 105.525 A 1.452 1.452 0 0 0 174.221 105.541 Q 174.509 105.541 174.778 105.499 A 5.875 5.875 0 0 0 174.934 105.472 Q 175.084 105.444 175.188 105.415 A 1.633 1.633 0 0 0 175.203 105.411 Z M 182.825 102.715 Q 182.825 104.468 181.942 105.453 Q 181.059 106.438 179.502 106.438 A 3.488 3.488 0 0 1 178.488 106.295 A 3.024 3.024 0 0 1 177.794 105.986 A 2.94 2.94 0 0 1 176.721 104.846 A 3.57 3.57 0 0 1 176.642 104.691 A 4.018 4.018 0 0 1 176.305 103.595 A 5.433 5.433 0 0 1 176.237 102.715 A 5.639 5.639 0 0 1 176.336 101.624 Q 176.531 100.633 177.113 99.983 A 2.873 2.873 0 0 1 178.79 99.07 A 4.218 4.218 0 0 1 179.547 99.005 A 3.65 3.65 0 0 1 180.619 99.155 A 2.843 2.843 0 0 1 181.939 100.006 A 3.382 3.382 0 0 1 182.678 101.438 Q 182.807 101.945 182.823 102.542 A 6.374 6.374 0 0 1 182.825 102.715 Z M 177.362 102.715 A 5.5 5.5 0 0 0 177.414 103.501 Q 177.472 103.899 177.593 104.223 A 2.279 2.279 0 0 0 177.912 104.809 Q 178.461 105.528 179.528 105.528 A 2.523 2.523 0 0 0 180.193 105.446 A 1.756 1.756 0 0 0 181.147 104.812 Q 181.558 104.279 181.664 103.379 A 5.721 5.721 0 0 0 181.7 102.715 Q 181.7 101.347 181.147 100.637 A 1.787 1.787 0 0 0 180.036 99.975 A 2.739 2.739 0 0 0 179.515 99.928 A 2.585 2.585 0 0 0 178.871 100.003 A 1.73 1.73 0 0 0 177.905 100.628 A 2.246 2.246 0 0 0 177.556 101.302 Q 177.453 101.612 177.405 101.992 A 5.739 5.739 0 0 0 177.362 102.715 Z M 185.816 102.473 L 185.816 102.715 Q 185.816 103.999 186.179 104.662 A 1.638 1.638 0 0 0 186.319 104.877 Q 186.823 105.528 187.935 105.528 Q 188.865 105.528 189.391 104.776 Q 189.807 104.182 189.895 103.234 A 5.786 5.786 0 0 0 189.918 102.702 A 5.481 5.481 0 0 0 189.867 101.924 Q 189.81 101.531 189.691 101.21 A 2.303 2.303 0 0 0 189.391 100.644 A 1.69 1.69 0 0 0 188.156 99.94 A 2.337 2.337 0 0 0 187.909 99.928 Q 186.81 99.928 186.319 100.536 Q 185.829 101.145 185.816 102.473 Z"
       id="top_labelLayer"
       stroke="#777777"
       fill="#777777"
       style="stroke:#777777;fill:#777777"
       vector-effect="non-scaling-stroke" />
    <path
       d="M 0 82 L 0 91.25 L 3 91.25 L 3 98.75 L 0 98.75 L 0 106.25 L 0 108 L 9.75 108 L 9.75 105 L 17.25 105 L 17.25 108 L 24.75 108 L 24.75 105 L 32.25 105 L 32.25 108 L 39.75 108 L 39.75 105 L 47.25 105 L 47.25 108 L 54.75 108 L 54.75 105 L 62.25 105 L 62.25 108 L 69.75 108 L 72 108 L 72 98.75 L 69 98.75 L 69 91.25 L 72 91.25 L 72 83.75 L 72 82 L 62.25 82 L 62.25 85 L 54.75 85 L 54.75 82 L 47.25 82 L 47.25 85 L 39.75 85 L 39.75 82 L 32.25 82 L 32.25 85 L 24.75 85 L 24.75 82 L 17.25 82 L 17.25 85 L 9.75 85 L 9.75 82 L 2.25 82 L 0 82 Z"
       id="back_outsideCutPath"
       stroke="#FF0000"
       stroke-width="0.1"
       style="stroke:#FF0000;stroke-width:0.1"
       vector-effect="non-scaling-stroke" />
    <path
       d="M 39.56 95.526 L 39.58 95.526 A 2.495 2.495 0 0 1 39.642 95.442 Q 39.713 95.35 39.814 95.232 A 9.056 9.056 0 0 1 39.913 95.119 L 40.812 94.167 L 41.312 94.167 L 40.184 95.353 L 41.39 96.95 L 40.88 96.95 L 39.897 95.635 L 39.58 95.909 L 39.58 96.95 L 39.164 96.95 L 39.164 92.999 L 39.58 92.999 L 39.58 95.094 A 2.809 2.809 0 0 1 39.579 95.173 Q 39.575 95.303 39.56 95.515 A 16.754 16.754 0 0 1 39.56 95.526 Z M 31.031 96.592 L 31.001 96.592 L 30.912 96.95 L 30.61 96.95 L 30.61 92.999 L 31.031 92.999 L 31.031 93.959 A 8.788 8.788 0 0 1 31.026 94.256 Q 31.022 94.396 31.012 94.521 A 5.237 5.237 0 0 1 31.011 94.538 L 31.031 94.538 A 0.958 0.958 0 0 1 31.731 94.132 A 1.44 1.44 0 0 1 31.904 94.121 A 1.288 1.288 0 0 1 32.267 94.17 A 0.964 0.964 0 0 1 32.756 94.496 A 1.242 1.242 0 0 1 32.974 94.915 Q 33.028 95.088 33.048 95.295 A 2.705 2.705 0 0 1 33.06 95.556 Q 33.06 96.04 32.907 96.371 A 1.185 1.185 0 0 1 32.754 96.621 A 0.998 0.998 0 0 1 32.045 96.994 A 1.43 1.43 0 0 1 31.904 97.001 A 1.278 1.278 0 0 1 31.583 96.962 A 1.112 1.112 0 0 1 31.408 96.9 A 0.934 0.934 0 0 1 31.031 96.592 Z M 35.82 96.95 L 35.507 96.95 L 35.424 96.554 L 35.403 96.554 A 1.747 1.747 0 0 1 35.262 96.712 Q 35.125 96.847 34.988 96.908 Q 34.818 96.984 34.577 96.998 A 1.897 1.897 0 0 1 34.471 97.001 Q 34.058 97.001 33.823 96.787 A 0.693 0.693 0 0 1 33.614 96.422 A 1.061 1.061 0 0 1 33.588 96.181 Q 33.588 95.338 34.936 95.297 L 35.408 95.282 L 35.408 95.109 A 1.211 1.211 0 0 0 35.397 94.934 Q 35.384 94.845 35.356 94.773 A 0.47 0.47 0 0 0 35.267 94.625 Q 35.127 94.469 34.817 94.469 Q 34.469 94.469 34.03 94.683 L 33.9 94.36 A 1.943 1.943 0 0 1 34.275 94.206 A 2.212 2.212 0 0 1 34.351 94.185 Q 34.596 94.121 34.842 94.121 A 1.78 1.78 0 0 1 35.113 94.141 Q 35.411 94.187 35.58 94.342 Q 35.768 94.516 35.809 94.853 A 1.658 1.658 0 0 1 35.82 95.051 L 35.82 96.95 Z M 38.544 94.261 L 38.415 94.619 A 1.875 1.875 0 0 0 38.211 94.551 A 2.24 2.24 0 0 0 38.11 94.526 A 1.741 1.741 0 0 0 37.977 94.502 Q 37.891 94.49 37.818 94.49 A 0.935 0.935 0 0 0 37.438 94.561 Q 37.04 94.736 36.981 95.343 A 2.329 2.329 0 0 0 36.97 95.571 A 2.041 2.041 0 0 0 36.99 95.869 Q 37.012 96.019 37.059 96.142 A 0.874 0.874 0 0 0 37.177 96.358 A 0.669 0.669 0 0 0 37.611 96.618 A 1.02 1.02 0 0 0 37.79 96.633 A 1.764 1.764 0 0 0 38.277 96.562 A 2.178 2.178 0 0 0 38.504 96.483 L 38.504 96.856 Q 38.224 97.001 37.8 97.001 Q 37.196 97.001 36.865 96.629 A 1.219 1.219 0 0 1 36.611 96.163 Q 36.533 95.906 36.533 95.576 A 2.326 2.326 0 0 1 36.569 95.153 Q 36.613 94.918 36.71 94.732 A 1.162 1.162 0 0 1 36.87 94.497 A 1.091 1.091 0 0 1 37.467 94.154 A 1.654 1.654 0 0 1 37.828 94.116 Q 38.029 94.116 38.229 94.16 A 2.104 2.104 0 0 1 38.346 94.188 Q 38.464 94.22 38.542 94.26 A 0.662 0.662 0 0 1 38.544 94.261 Z M 31.844 94.474 A 1.184 1.184 0 0 0 31.614 94.495 Q 31.357 94.546 31.221 94.722 A 0.722 0.722 0 0 0 31.117 94.921 Q 31.031 95.162 31.031 95.556 Q 31.031 96.054 31.172 96.312 A 0.636 0.636 0 0 0 31.227 96.395 A 0.611 0.611 0 0 0 31.537 96.605 Q 31.64 96.637 31.767 96.645 A 1.355 1.355 0 0 0 31.854 96.648 Q 32.242 96.648 32.433 96.365 A 0.968 0.968 0 0 0 32.552 96.106 Q 32.59 95.983 32.608 95.834 A 2.415 2.415 0 0 0 32.623 95.551 A 2.49 2.49 0 0 0 32.608 95.267 Q 32.572 94.957 32.452 94.769 A 0.699 0.699 0 0 0 32.433 94.741 A 0.615 0.615 0 0 0 32.041 94.493 A 0.975 0.975 0 0 0 31.844 94.474 Z M 35.398 95.833 L 35.398 95.581 L 34.977 95.599 A 3.095 3.095 0 0 0 34.729 95.617 Q 34.486 95.646 34.333 95.713 A 0.647 0.647 0 0 0 34.252 95.755 A 0.45 0.45 0 0 0 34.037 96.082 A 0.666 0.666 0 0 0 34.03 96.186 Q 34.03 96.414 34.168 96.534 A 0.459 0.459 0 0 0 34.34 96.625 Q 34.435 96.653 34.555 96.653 Q 34.895 96.653 35.109 96.492 A 0.704 0.704 0 0 0 35.174 96.437 Q 35.397 96.222 35.398 95.837 A 1.334 1.334 0 0 0 35.398 95.833 Z"
       id="back_labelLayer"
       stroke="#777777"
       fill="#777777"
       style="stroke:#777777;fill:#777777"
       vector-effect="non-scaling-stroke" />
    <path
       d="M 78 82 L 78 91.25 L 75 91.25 L 75 98.75 L 78 98.75 L 78 106.25 L 78 108 L 82.25 108 L 82.25 105 L 89.75 105 L 89.75 108 L 97.25 108 L 97.25 105 L 104.75 105 L 104.75 108 L 112.25 108 L 112.25 105 L 119.75 105 L 119.75 108 L 127.25 108 L 127.25 105 L 134.75 105 L 134.75 108 L 139 108 L 139 98.75 L 142 98.75 L 142 91.25 L 139 91.25 L 139 83.75 L 139 82 L 134.75 82 L 134.75 85 L 127.25 85 L 127.25 82 L 119.75 82 L 119.75 85 L 112.25 85 L 112.25 82 L 104.75 82 L 104.75 85 L 97.25 85 L 97.25 82 L 89.75 82 L 89.75 85 L 82.25 85 L 82.25 82 L 78 82 Z"
       id="right_outsideCutPath"
       stroke="#FF0000"
       stroke-width="0.1"
       style="stroke:#FF0000;stroke-width:0.1"
       vector-effect="non-scaling-stroke" />
    <path
       d="M 111.733 96.351 L 111.312 96.351 L 111.312 94.551 Q 111.312 94.334 111.249 94.187 A 0.501 0.501 0 0 0 111.157 94.043 Q 111.002 93.875 110.672 93.875 Q 110.385 93.875 110.2 93.977 A 0.59 0.59 0 0 0 110.031 94.114 Q 109.846 94.332 109.831 94.805 A 2.72 2.72 0 0 0 109.829 94.896 L 109.829 96.351 L 109.408 96.351 L 109.408 92.4 L 109.829 92.4 L 109.829 93.596 Q 109.829 93.751 109.819 93.868 A 1.649 1.649 0 0 1 109.809 93.954 L 109.834 93.954 A 0.842 0.842 0 0 1 110.129 93.67 A 1.029 1.029 0 0 1 110.188 93.638 A 1.082 1.082 0 0 1 110.544 93.532 A 1.368 1.368 0 0 1 110.713 93.522 Q 111.223 93.522 111.478 93.765 Q 111.733 94.007 111.733 94.535 L 111.733 96.351 Z M 107.874 93.568 L 108.836 93.568 L 108.836 93.835 L 108.321 93.895 A 0.685 0.685 0 0 1 108.38 93.984 Q 108.406 94.029 108.43 94.084 A 1.299 1.299 0 0 1 108.448 94.128 A 0.811 0.811 0 0 1 108.496 94.322 A 1.041 1.041 0 0 1 108.504 94.452 Q 108.504 94.86 108.225 95.104 A 0.935 0.935 0 0 1 107.857 95.298 Q 107.718 95.337 107.552 95.345 A 1.831 1.831 0 0 1 107.458 95.348 A 1.355 1.355 0 0 1 107.301 95.339 A 1.144 1.144 0 0 1 107.224 95.328 Q 107.07 95.409 107.005 95.514 A 0.317 0.317 0 0 0 106.955 95.686 A 0.218 0.218 0 0 0 106.966 95.757 Q 106.987 95.819 107.049 95.854 Q 107.143 95.909 107.371 95.909 L 107.864 95.909 Q 108.165 95.909 108.374 95.994 A 0.762 0.762 0 0 1 108.558 96.099 A 0.617 0.617 0 0 1 108.788 96.492 A 0.926 0.926 0 0 1 108.801 96.653 A 0.913 0.913 0 0 1 108.749 96.969 Q 108.665 97.199 108.445 97.348 A 1 1 0 0 1 108.43 97.358 A 1.264 1.264 0 0 1 108.104 97.505 Q 107.944 97.554 107.748 97.578 A 3.341 3.341 0 0 1 107.349 97.6 A 2.361 2.361 0 0 1 107.032 97.58 Q 106.871 97.558 106.74 97.513 A 0.98 0.98 0 0 1 106.507 97.397 Q 106.23 97.207 106.212 96.87 A 0.89 0.89 0 0 1 106.211 96.823 Q 106.211 96.569 106.374 96.384 A 0.736 0.736 0 0 1 106.626 96.2 A 1.043 1.043 0 0 1 106.831 96.132 A 0.437 0.437 0 0 1 106.661 95.995 A 0.519 0.519 0 0 1 106.652 95.983 Q 106.579 95.881 106.579 95.746 A 0.482 0.482 0 0 1 106.603 95.591 A 0.427 0.427 0 0 1 106.66 95.48 A 0.603 0.603 0 0 1 106.74 95.39 Q 106.812 95.323 106.917 95.259 A 0.739 0.739 0 0 1 106.596 95.002 A 0.916 0.916 0 0 1 106.565 94.957 A 0.871 0.871 0 0 1 106.432 94.537 A 1.063 1.063 0 0 1 106.429 94.469 A 1.218 1.218 0 0 1 106.461 94.181 A 0.801 0.801 0 0 1 106.704 93.765 A 0.895 0.895 0 0 1 107.047 93.575 Q 107.184 93.534 107.348 93.522 A 1.862 1.862 0 0 1 107.481 93.517 A 1.616 1.616 0 0 1 107.694 93.531 A 1.23 1.23 0 0 1 107.874 93.568 Z M 113.879 96.003 L 113.879 96.325 A 0.415 0.415 0 0 1 113.83 96.345 Q 113.769 96.365 113.677 96.38 Q 113.544 96.402 113.437 96.402 Q 112.63 96.402 112.63 95.551 L 112.63 93.895 L 112.231 93.895 L 112.231 93.692 L 112.63 93.517 L 112.808 92.923 L 113.051 92.923 L 113.051 93.568 L 113.859 93.568 L 113.859 93.895 L 113.051 93.895 L 113.051 95.533 A 0.849 0.849 0 0 0 113.064 95.682 Q 113.078 95.764 113.11 95.829 A 0.409 0.409 0 0 0 113.171 95.919 A 0.392 0.392 0 0 0 113.411 96.047 A 0.563 0.563 0 0 0 113.498 96.054 A 1.384 1.384 0 0 0 113.701 96.039 A 1.278 1.278 0 0 0 113.714 96.037 A 2.28 2.28 0 0 0 113.775 96.027 Q 113.837 96.015 113.879 96.003 Z M 104.723 93.548 L 104.665 93.939 A 1.858 1.858 0 0 0 104.531 93.914 Q 104.465 93.904 104.405 93.902 A 0.989 0.989 0 0 0 104.36 93.901 A 0.73 0.73 0 0 0 103.821 94.134 A 0.999 0.999 0 0 0 103.782 94.175 A 0.962 0.962 0 0 0 103.55 94.715 A 1.279 1.279 0 0 0 103.542 94.858 L 103.542 96.351 L 103.121 96.351 L 103.121 93.568 L 103.469 93.568 L 103.517 94.083 L 103.537 94.083 Q 103.692 93.812 103.911 93.664 Q 104.129 93.517 104.391 93.517 A 1.935 1.935 0 0 1 104.564 93.525 A 1.412 1.412 0 0 1 104.723 93.548 Z M 105.665 93.568 L 105.665 96.351 L 105.244 96.351 L 105.244 93.568 L 105.665 93.568 Z M 107.729 96.287 L 107.224 96.287 A 0.969 0.969 0 0 0 107.05 96.302 Q 106.95 96.32 106.872 96.361 A 0.494 0.494 0 0 0 106.777 96.424 A 0.444 0.444 0 0 0 106.631 96.676 A 0.674 0.674 0 0 0 106.617 96.818 Q 106.617 97.029 106.783 97.144 A 0.495 0.495 0 0 0 106.808 97.161 A 0.675 0.675 0 0 0 106.974 97.232 Q 107.13 97.277 107.35 97.278 A 2.145 2.145 0 0 0 107.354 97.278 Q 107.828 97.278 108.082 97.151 A 0.7 0.7 0 0 0 108.139 97.119 A 0.615 0.615 0 0 0 108.282 96.999 A 0.461 0.461 0 0 0 108.395 96.688 A 0.57 0.57 0 0 0 108.384 96.575 Q 108.371 96.51 108.341 96.462 A 0.266 0.266 0 0 0 108.255 96.375 A 0.4 0.4 0 0 0 108.16 96.334 Q 108.059 96.302 107.899 96.292 A 2.682 2.682 0 0 0 107.729 96.287 Z M 106.94 94.819 A 0.451 0.451 0 0 0 107.011 94.901 Q 107.176 95.051 107.47 95.051 A 0.918 0.918 0 0 0 107.711 95.022 Q 108.087 94.92 108.087 94.452 A 0.906 0.906 0 0 0 108.056 94.203 Q 107.948 93.824 107.463 93.824 Q 107.235 93.824 107.088 93.918 A 0.485 0.485 0 0 0 107.006 93.984 Q 106.846 94.144 106.846 94.459 Q 106.846 94.679 106.94 94.819 Z M 105.214 92.737 A 0.467 0.467 0 0 0 105.208 92.814 Q 105.208 92.956 105.279 93.026 Q 105.35 93.096 105.457 93.096 Q 105.558 93.096 105.632 93.026 A 0.206 0.206 0 0 0 105.672 92.973 Q 105.691 92.938 105.699 92.894 A 0.436 0.436 0 0 0 105.706 92.814 Q 105.706 92.672 105.632 92.603 A 0.248 0.248 0 0 0 105.457 92.535 A 0.322 0.322 0 0 0 105.436 92.535 A 0.244 0.244 0 0 0 105.279 92.602 A 0.197 0.197 0 0 0 105.236 92.664 Q 105.221 92.696 105.214 92.737 Z"
       id="right_labelLayer"
       stroke="#777777"
       fill="#777777"
       style="stroke:#777777;fill:#777777"
       vector-effect="non-scaling-stroke" />
    <path
       d="M 148 3 L 148 7.25 L 145 7.25 L 145 14.75 L 148 14.75 L 148 22.25 L 145 22.25 L 145 29.75 L 148 29.75 L 148 37.25 L 145 37.25 L 145 44.75 L 148 44.75 L 148 52.25 L 145 52.25 L 145 59.75 L 148 59.75 L 148 64 L 154.75 64 L 154.75 67 L 162.25 67 L 162.25 64 L 169.75 64 L 169.75 67 L 177.25 67 L 177.25 64 L 184.75 64 L 184.75 67 L 192.25 67 L 192.25 64 L 199.75 64 L 199.75 67 L 207.25 67 L 207.25 64 L 214 64 L 214 59.75 L 217 59.75 L 217 52.25 L 214 52.25 L 214 44.75 L 217 44.75 L 217 37.25 L 214 37.25 L 214 29.75 L 217 29.75 L 217 22.25 L 214 22.25 L 214 14.75 L 217 14.75 L 217 7.25 L 214 7.25 L 214 3 L 207.25 3 L 207.25 0 L 199.75 0 L 199.75 3 L 192.25 3 L 192.25 0 L 184.75 0 L 184.75 3 L 177.25 3 L 177.25 0 L 169.75 0 L 169.75 3 L 162.25 3 L 162.25 0 L 154.75 0 L 154.75 3 L 148 3 Z"
       id="bottom_outsideCutPath"
       stroke="#FF0000"
       stroke-width="0.1"
       style="stroke:#FF0000;stroke-width:0.1"
       vector-effect="non-scaling-stroke" />
    <path
       d="M 203.043 38.525 L 201.957 38.525 L 201.957 33.86 A 3.204 3.204 0 0 0 201.925 33.389 Q 201.848 32.875 201.591 32.574 A 1.143 1.143 0 0 0 201.059 32.23 Q 200.87 32.169 200.639 32.152 A 2.521 2.521 0 0 0 200.452 32.145 Q 199.741 32.145 199.29 32.432 A 1.438 1.438 0 0 0 198.954 32.728 A 1.795 1.795 0 0 0 198.649 33.279 Q 198.471 33.779 198.47 34.509 A 5.972 5.972 0 0 0 198.47 34.521 L 198.47 38.525 L 197.384 38.525 L 197.384 33.86 A 3.204 3.204 0 0 0 197.351 33.389 Q 197.275 32.875 197.017 32.574 Q 196.7 32.203 196.074 32.153 A 2.543 2.543 0 0 0 195.872 32.145 A 2.698 2.698 0 0 0 195.314 32.199 Q 194.711 32.327 194.377 32.757 Q 193.903 33.369 193.903 34.763 L 193.903 38.525 L 192.817 38.525 L 192.817 31.354 L 193.7 31.354 L 193.877 32.335 L 193.929 32.335 A 2.135 2.135 0 0 1 194.796 31.517 A 2.579 2.579 0 0 1 195.814 31.232 A 3.114 3.114 0 0 1 196.049 31.223 A 3.556 3.556 0 0 1 196.849 31.306 Q 197.342 31.42 197.685 31.69 A 1.854 1.854 0 0 1 198.247 32.44 L 198.3 32.44 A 2.268 2.268 0 0 1 199.154 31.592 A 2.725 2.725 0 0 1 199.229 31.55 A 2.749 2.749 0 0 1 200.237 31.243 A 3.428 3.428 0 0 1 200.616 31.223 A 3.775 3.775 0 0 1 201.301 31.281 Q 201.681 31.351 201.978 31.507 A 1.79 1.79 0 0 1 202.438 31.848 Q 202.879 32.303 202.998 33.155 A 4.982 4.982 0 0 1 203.043 33.847 L 203.043 38.525 Z M 160.043 37.602 L 159.964 37.602 L 159.735 38.525 L 158.957 38.525 L 158.957 28.344 L 160.043 28.344 L 160.043 30.817 A 22.645 22.645 0 0 1 160.031 31.582 Q 160.018 31.944 159.994 32.266 A 13.548 13.548 0 0 1 159.99 32.309 L 160.043 32.309 A 2.469 2.469 0 0 1 161.845 31.262 A 3.71 3.71 0 0 1 162.294 31.236 A 3.32 3.32 0 0 1 163.228 31.361 A 2.485 2.485 0 0 1 164.489 32.201 A 3.201 3.201 0 0 1 165.05 33.282 Q 165.188 33.727 165.24 34.261 A 6.972 6.972 0 0 1 165.271 34.933 Q 165.271 36.699 164.482 37.678 A 2.571 2.571 0 0 1 162.655 38.638 A 3.684 3.684 0 0 1 162.294 38.656 A 3.294 3.294 0 0 1 161.466 38.555 A 2.867 2.867 0 0 1 161.014 38.397 A 2.406 2.406 0 0 1 160.043 37.602 Z M 178.559 37.628 L 178.559 38.459 A 1.068 1.068 0 0 1 178.433 38.51 Q 178.298 38.555 178.104 38.589 A 4.062 4.062 0 0 1 178.039 38.6 Q 177.719 38.652 177.458 38.655 A 2.785 2.785 0 0 1 177.421 38.656 Q 175.34 38.656 175.34 36.464 L 175.34 32.198 L 174.313 32.198 L 174.313 31.674 L 175.34 31.223 L 175.798 29.692 L 176.426 29.692 L 176.426 31.354 L 178.507 31.354 L 178.507 32.198 L 176.426 32.198 L 176.426 36.418 A 2.187 2.187 0 0 0 176.458 36.802 Q 176.496 37.013 176.578 37.18 A 1.054 1.054 0 0 0 176.734 37.413 A 1.009 1.009 0 0 0 177.354 37.743 A 1.452 1.452 0 0 0 177.578 37.759 Q 177.866 37.759 178.134 37.717 A 5.875 5.875 0 0 0 178.291 37.69 Q 178.441 37.662 178.545 37.633 A 1.633 1.633 0 0 0 178.559 37.628 Z M 183.29 37.628 L 183.29 38.459 A 1.068 1.068 0 0 1 183.163 38.51 Q 183.028 38.555 182.835 38.589 A 4.062 4.062 0 0 1 182.77 38.6 Q 182.449 38.652 182.188 38.655 A 2.785 2.785 0 0 1 182.152 38.656 Q 180.071 38.656 180.071 36.464 L 180.071 32.198 L 179.044 32.198 L 179.044 31.674 L 180.071 31.223 L 180.529 29.692 L 181.157 29.692 L 181.157 31.354 L 183.238 31.354 L 183.238 32.198 L 181.157 32.198 L 181.157 36.418 A 2.187 2.187 0 0 0 181.189 36.802 Q 181.226 37.013 181.309 37.18 A 1.054 1.054 0 0 0 181.465 37.413 A 1.009 1.009 0 0 0 182.085 37.743 A 1.452 1.452 0 0 0 182.309 37.759 Q 182.596 37.759 182.865 37.717 A 5.875 5.875 0 0 0 183.022 37.69 Q 183.171 37.662 183.275 37.633 A 1.633 1.633 0 0 0 183.29 37.628 Z M 173.358 34.933 Q 173.358 36.686 172.474 37.671 Q 171.591 38.656 170.034 38.656 A 3.488 3.488 0 0 1 169.02 38.513 A 3.024 3.024 0 0 1 168.326 38.204 A 2.94 2.94 0 0 1 167.254 37.064 A 3.57 3.57 0 0 1 167.175 36.909 A 4.018 4.018 0 0 1 166.837 35.813 A 5.433 5.433 0 0 1 166.769 34.933 A 5.639 5.639 0 0 1 166.868 33.842 Q 167.064 32.851 167.646 32.201 A 2.873 2.873 0 0 1 169.322 31.288 A 4.218 4.218 0 0 1 170.08 31.223 A 3.65 3.65 0 0 1 171.151 31.373 A 2.843 2.843 0 0 1 172.471 32.224 A 3.382 3.382 0 0 1 173.21 33.656 Q 173.339 34.163 173.355 34.76 A 6.374 6.374 0 0 1 173.358 34.933 Z M 190.913 34.933 Q 190.913 36.686 190.029 37.671 Q 189.146 38.656 187.589 38.656 A 3.488 3.488 0 0 1 186.575 38.513 A 3.024 3.024 0 0 1 185.881 38.204 A 2.94 2.94 0 0 1 184.809 37.064 A 3.57 3.57 0 0 1 184.729 36.909 A 4.018 4.018 0 0 1 184.392 35.813 A 5.433 5.433 0 0 1 184.324 34.933 A 5.639 5.639 0 0 1 184.423 33.842 Q 184.618 32.851 185.201 32.201 A 2.873 2.873 0 0 1 186.877 31.288 A 4.218 4.218 0 0 1 187.635 31.223 A 3.65 3.65 0 0 1 188.706 31.373 A 2.843 2.843 0 0 1 190.026 32.224 A 3.382 3.382 0 0 1 190.765 33.656 Q 190.894 34.163 190.91 34.76 A 6.374 6.374 0 0 1 190.913 34.933 Z M 167.894 34.933 A 5.5 5.5 0 0 0 167.947 35.718 Q 168.004 36.117 168.126 36.44 A 2.279 2.279 0 0 0 168.444 37.026 Q 168.994 37.746 170.06 37.746 A 2.523 2.523 0 0 0 170.726 37.663 A 1.756 1.756 0 0 0 171.68 37.03 Q 172.091 36.497 172.196 35.597 A 5.721 5.721 0 0 0 172.232 34.933 Q 172.232 33.565 171.68 32.855 A 1.787 1.787 0 0 0 170.569 32.193 A 2.739 2.739 0 0 0 170.047 32.145 A 2.585 2.585 0 0 0 169.404 32.221 A 1.73 1.73 0 0 0 168.437 32.846 A 2.246 2.246 0 0 0 168.088 33.52 Q 167.985 33.83 167.937 34.209 A 5.739 5.739 0 0 0 167.894 34.933 Z M 185.449 34.933 A 5.5 5.5 0 0 0 185.502 35.718 Q 185.559 36.117 185.681 36.44 A 2.279 2.279 0 0 0 185.999 37.026 Q 186.548 37.746 187.615 37.746 A 2.523 2.523 0 0 0 188.28 37.663 A 1.756 1.756 0 0 0 189.234 37.03 Q 189.645 36.497 189.751 35.597 A 5.721 5.721 0 0 0 189.787 34.933 Q 189.787 33.565 189.234 32.855 A 1.787 1.787 0 0 0 188.123 32.193 A 2.739 2.739 0 0 0 187.602 32.145 A 2.585 2.585 0 0 0 186.958 32.221 A 1.73 1.73 0 0 0 185.992 32.846 A 2.246 2.246 0 0 0 185.643 33.52 Q 185.54 33.83 185.492 34.209 A 5.739 5.739 0 0 0 185.449 34.933 Z M 162.137 32.145 A 3.052 3.052 0 0 0 161.545 32.199 Q 161.209 32.265 160.953 32.415 A 1.444 1.444 0 0 0 160.534 32.783 A 1.859 1.859 0 0 0 160.264 33.296 Q 160.083 33.805 160.05 34.579 A 8.368 8.368 0 0 0 160.043 34.933 Q 160.043 36.217 160.406 36.88 A 1.638 1.638 0 0 0 160.547 37.095 Q 161.05 37.746 162.163 37.746 A 2.165 2.165 0 0 0 162.778 37.664 A 1.562 1.562 0 0 0 163.655 37.017 Q 164.145 36.287 164.145 34.92 A 6.417 6.417 0 0 0 164.106 34.188 Q 164.014 33.389 163.704 32.906 A 1.802 1.802 0 0 0 163.655 32.832 A 1.584 1.584 0 0 0 162.646 32.194 A 2.512 2.512 0 0 0 162.137 32.145 Z"
       id="bottom_labelLayer"
       stroke="#777777"
       fill="#777777"
       style="stroke:#777777;fill:#777777"
       vector-effect="non-scaling-stroke" />
  </g>
  <rect
     style="fill:none;stroke:#ff0000;stroke-width:0.25"
     id="rect580"
     width="11"
     height="11"
     x="120.125"
     y="119.125" />
  <rect
     style="fill:none;stroke:#ff0000;stroke-width:0.25"
     id="rect636"
     width="17"
     height="8"
     x="39.125"
     y="122.125" />
  <rect
     style="fill:none;stroke:#ff0000;stroke-width:0.25"
     id="rect638"
     width="4"
     height="12"
     x="208.125"
     y="103.125" />
  <circle
     style="fill:none;stroke:#ff0000;stroke-width:0.25"
     id="path711"
     cx="209.625"
     cy="95.625"
     r="2.5" />
  <circle
     style="fill:none;stroke:#ff0000;stroke-width:0.25"
     id="path711-1"
     cx="202.625"
     cy="92.625"
     r="2.5" />
  <circle
     style="fill:none;stroke:#ff0000;stroke-width:0.25"
     id="path711-1-9"
     cx="202.625"
     cy="97.125"
     r="2.5" />
  <circle
     style="fill:none;stroke:#ff0000;stroke-width:0.25"
     id="path757"
     cx="188.125"
     cy="113.625"
     r="2" />
  <circle
     style="fill:none;stroke:#ff0000;stroke-width:0.25"
     id="path757-9"
     cx="196.125"
     cy="113.625"
     r="2" />
</svg>
