%TF.GenerationSoftware,KiCad,Pcbnew,7.0.1*%
%TF.CreationDate,2023-03-21T17:25:17+01:00*%
%TF.ProjectId,PCB_uitlezen_gsm,5043425f-7569-4746-9c65-7a656e5f6773,rev?*%
%TF.SameCoordinates,Original*%
%TF.FileFunction,Copper,L1,Top*%
%TF.FilePolarity,Positive*%
%FSLAX46Y46*%
G04 Gerber Fmt 4.6, Leading zero omitted, Abs format (unit mm)*
G04 Created by KiCad (PCBNEW 7.0.1) date 2023-03-21 17:25:17*
%MOMM*%
%LPD*%
G01*
G04 APERTURE LIST*
G04 Aperture macros list*
%AMRoundRect*
0 Rectangle with rounded corners*
0 $1 Rounding radius*
0 $2 $3 $4 $5 $6 $7 $8 $9 X,Y pos of 4 corners*
0 Add a 4 corners polygon primitive as box body*
4,1,4,$2,$3,$4,$5,$6,$7,$8,$9,$2,$3,0*
0 Add four circle primitives for the rounded corners*
1,1,$1+$1,$2,$3*
1,1,$1+$1,$4,$5*
1,1,$1+$1,$6,$7*
1,1,$1+$1,$8,$9*
0 Add four rect primitives between the rounded corners*
20,1,$1+$1,$2,$3,$4,$5,0*
20,1,$1+$1,$4,$5,$6,$7,0*
20,1,$1+$1,$6,$7,$8,$9,0*
20,1,$1+$1,$8,$9,$2,$3,0*%
G04 Aperture macros list end*
%TA.AperFunction,SMDPad,CuDef*%
%ADD10RoundRect,0.250000X0.350000X0.450000X-0.350000X0.450000X-0.350000X-0.450000X0.350000X-0.450000X0*%
%TD*%
%TA.AperFunction,SMDPad,CuDef*%
%ADD11RoundRect,0.250000X-0.350000X-0.450000X0.350000X-0.450000X0.350000X0.450000X-0.350000X0.450000X0*%
%TD*%
%TA.AperFunction,SMDPad,CuDef*%
%ADD12RoundRect,0.250000X0.325000X0.450000X-0.325000X0.450000X-0.325000X-0.450000X0.325000X-0.450000X0*%
%TD*%
%TA.AperFunction,SMDPad,CuDef*%
%ADD13RoundRect,0.250000X0.337500X0.475000X-0.337500X0.475000X-0.337500X-0.475000X0.337500X-0.475000X0*%
%TD*%
%TA.AperFunction,ComponentPad*%
%ADD14R,1.350000X1.350000*%
%TD*%
%TA.AperFunction,ComponentPad*%
%ADD15O,1.350000X1.350000*%
%TD*%
%TA.AperFunction,SMDPad,CuDef*%
%ADD16RoundRect,0.250000X-0.450000X0.350000X-0.450000X-0.350000X0.450000X-0.350000X0.450000X0.350000X0*%
%TD*%
%TA.AperFunction,ComponentPad*%
%ADD17C,2.032000*%
%TD*%
%TA.AperFunction,SMDPad,CuDef*%
%ADD18RoundRect,0.250000X-0.475000X0.337500X-0.475000X-0.337500X0.475000X-0.337500X0.475000X0.337500X0*%
%TD*%
%TA.AperFunction,SMDPad,CuDef*%
%ADD19R,1.500000X2.000000*%
%TD*%
%TA.AperFunction,SMDPad,CuDef*%
%ADD20R,3.800000X2.000000*%
%TD*%
%TA.AperFunction,SMDPad,CuDef*%
%ADD21R,1.600000X0.760000*%
%TD*%
%TA.AperFunction,ComponentPad*%
%ADD22R,2.000000X4.600000*%
%TD*%
%TA.AperFunction,ComponentPad*%
%ADD23O,2.000000X4.200000*%
%TD*%
%TA.AperFunction,ComponentPad*%
%ADD24O,4.200000X2.000000*%
%TD*%
%TA.AperFunction,SMDPad,CuDef*%
%ADD25RoundRect,0.250000X0.475000X-0.337500X0.475000X0.337500X-0.475000X0.337500X-0.475000X-0.337500X0*%
%TD*%
%TA.AperFunction,SMDPad,CuDef*%
%ADD26R,1.500000X0.900000*%
%TD*%
%TA.AperFunction,SMDPad,CuDef*%
%ADD27R,0.900000X1.500000*%
%TD*%
%TA.AperFunction,SMDPad,CuDef*%
%ADD28R,1.050000X1.050000*%
%TD*%
%TA.AperFunction,HeatsinkPad*%
%ADD29C,0.600000*%
%TD*%
%TA.AperFunction,SMDPad,CuDef*%
%ADD30R,4.200000X4.200000*%
%TD*%
%TA.AperFunction,ViaPad*%
%ADD31C,0.800000*%
%TD*%
%TA.AperFunction,Conductor*%
%ADD32C,0.400000*%
%TD*%
G04 APERTURE END LIST*
D10*
%TO.P,R7,1*%
%TO.N,Net-(D1-K)*%
X124190000Y-103886000D03*
%TO.P,R7,2*%
%TO.N,GND*%
X122190000Y-103886000D03*
%TD*%
%TO.P,R6,1*%
%TO.N,+3.3V*%
X130032000Y-88900000D03*
%TO.P,R6,2*%
%TO.N,GPIO5*%
X128032000Y-88900000D03*
%TD*%
%TO.P,R3,1*%
%TO.N,GND*%
X124190000Y-98552000D03*
%TO.P,R3,2*%
%TO.N,GPIO2*%
X122190000Y-98552000D03*
%TD*%
D11*
%TO.P,R1,1*%
%TO.N,+3.3V*%
X98568000Y-79756000D03*
%TO.P,R1,2*%
%TO.N,/EN*%
X100568000Y-79756000D03*
%TD*%
D12*
%TO.P,D1,1,K*%
%TO.N,Net-(D1-K)*%
X124215000Y-101092000D03*
%TO.P,D1,2,A*%
%TO.N,GPIO2*%
X122165000Y-101092000D03*
%TD*%
D13*
%TO.P,C1,1*%
%TO.N,+3.3V*%
X104669500Y-76962000D03*
%TO.P,C1,2*%
%TO.N,GND*%
X102594500Y-76962000D03*
%TD*%
%TO.P,C2,1*%
%TO.N,VDD*%
X100097500Y-85852000D03*
%TO.P,C2,2*%
%TO.N,GND*%
X98022500Y-85852000D03*
%TD*%
D14*
%TO.P,SCHERM3,1,Pin_1*%
%TO.N,unconnected-(SCHERM3-Pin_1-Pad1)*%
X115760000Y-110744000D03*
D15*
%TO.P,SCHERM3,2,Pin_2*%
%TO.N,+3.3V*%
X113760000Y-110744000D03*
%TO.P,SCHERM3,3,Pin_3*%
%TO.N,GPIO18*%
X111760000Y-110744000D03*
%TO.P,SCHERM3,4,Pin_4*%
%TO.N,GPIO23*%
X109760000Y-110744000D03*
%TO.P,SCHERM3,5,Pin_5*%
%TO.N,GPIO25*%
X107760000Y-110744000D03*
%TO.P,SCHERM3,6,Pin_6*%
%TO.N,GPIO26*%
X105760000Y-110744000D03*
%TO.P,SCHERM3,7,Pin_7*%
%TO.N,GPIO27*%
X103760000Y-110744000D03*
%TO.P,SCHERM3,8,Pin_8*%
%TO.N,GND*%
X101760000Y-110744000D03*
%TO.P,SCHERM3,9,Pin_9*%
%TO.N,+3.3V*%
X99760000Y-110744000D03*
%TD*%
D16*
%TO.P,R5,1*%
%TO.N,+3.3V*%
X135382000Y-78010000D03*
%TO.P,R5,2*%
%TO.N,TX0*%
X135382000Y-80010000D03*
%TD*%
D10*
%TO.P,R2,1*%
%TO.N,+3.3V*%
X129778000Y-96012000D03*
%TO.P,R2,2*%
%TO.N,GPIO0*%
X127778000Y-96012000D03*
%TD*%
D17*
%TO.P,U2,1,IN-*%
%TO.N,Net-(J2-Pad2)*%
X81407000Y-97250000D03*
%TO.P,U2,2,IN-*%
X83947000Y-97250000D03*
%TO.P,U2,3,IN+*%
%TO.N,Net-(J2-Pad1)*%
X92075000Y-97250000D03*
%TO.P,U2,4,IN+*%
X94615000Y-97250000D03*
%TO.P,U2,5,OUT+*%
%TO.N,VDD*%
X94615000Y-78708000D03*
%TO.P,U2,6,OUT+*%
X92075000Y-78708000D03*
%TO.P,U2,7,OUT-*%
%TO.N,GND*%
X83947000Y-78708000D03*
%TO.P,U2,8,OUT-*%
X81407000Y-78708000D03*
%TD*%
D14*
%TO.P,SCHERM1,1,Pin_1*%
%TO.N,unconnected-(SCHERM1-Pin_1-Pad1)*%
X139381000Y-107696000D03*
D15*
%TO.P,SCHERM1,2,Pin_2*%
%TO.N,+3.3V*%
X137381000Y-107696000D03*
%TO.P,SCHERM1,3,Pin_3*%
%TO.N,GPIO18*%
X135381000Y-107696000D03*
%TO.P,SCHERM1,4,Pin_4*%
%TO.N,GPIO23*%
X133381000Y-107696000D03*
%TO.P,SCHERM1,5,Pin_5*%
%TO.N,GPIO2*%
X131381000Y-107696000D03*
%TO.P,SCHERM1,6,Pin_6*%
%TO.N,GPIO4*%
X129381000Y-107696000D03*
%TO.P,SCHERM1,7,Pin_7*%
%TO.N,GPIO15*%
X127381000Y-107696000D03*
%TO.P,SCHERM1,8,Pin_8*%
%TO.N,GND*%
X125381000Y-107696000D03*
%TO.P,SCHERM1,9,Pin_9*%
%TO.N,+3.3V*%
X123381000Y-107696000D03*
%TD*%
D14*
%TO.P,J1,1,Pin_1*%
%TO.N,+3.3V*%
X138684000Y-84518000D03*
D15*
%TO.P,J1,2,Pin_2*%
%TO.N,RX0*%
X138684000Y-82518000D03*
%TO.P,J1,3,Pin_3*%
%TO.N,TX0*%
X138684000Y-80518000D03*
%TO.P,J1,4,Pin_4*%
%TO.N,GND*%
X138684000Y-78518000D03*
%TD*%
D18*
%TO.P,C4,1*%
%TO.N,+3.3V*%
X98806000Y-97514500D03*
%TO.P,C4,2*%
%TO.N,GND*%
X98806000Y-99589500D03*
%TD*%
D10*
%TO.P,R4,1*%
%TO.N,+3.3V*%
X129778000Y-98298000D03*
%TO.P,R4,2*%
%TO.N,Net-(D2-A)*%
X127778000Y-98298000D03*
%TD*%
D19*
%TO.P,U3,1,GND*%
%TO.N,GND*%
X103392000Y-88646000D03*
%TO.P,U3,2,VO*%
%TO.N,+3.3V*%
X101092000Y-88646000D03*
D20*
X101092000Y-94946000D03*
D19*
%TO.P,U3,3,VI*%
%TO.N,VDD*%
X98792000Y-88646000D03*
%TD*%
D21*
%TO.P,SW2,1,1*%
%TO.N,GPIO0*%
X128270000Y-92456000D03*
%TO.P,SW2,2,2*%
%TO.N,GND*%
X135890000Y-92456000D03*
%TD*%
D22*
%TO.P,J2,1*%
%TO.N,Net-(J2-Pad1)*%
X93726000Y-104394000D03*
D23*
%TO.P,J2,2*%
%TO.N,Net-(J2-Pad2)*%
X87426000Y-104394000D03*
D24*
%TO.P,J2,3*%
%TO.N,N/C*%
X90826000Y-109194000D03*
%TD*%
D25*
%TO.P,C3,1*%
%TO.N,GND*%
X101346000Y-99568000D03*
%TO.P,C3,2*%
%TO.N,+3.3V*%
X101346000Y-97493000D03*
%TD*%
D26*
%TO.P,U1,1,GND*%
%TO.N,GND*%
X107560000Y-77310000D03*
%TO.P,U1,2,VDD*%
%TO.N,+3.3V*%
X107560000Y-78580000D03*
%TO.P,U1,3,EN*%
%TO.N,/EN*%
X107560000Y-79850000D03*
%TO.P,U1,4,SENSOR_VP*%
%TO.N,unconnected-(U1-SENSOR_VP-Pad4)*%
X107560000Y-81120000D03*
%TO.P,U1,5,SENSOR_VN*%
%TO.N,unconnected-(U1-SENSOR_VN-Pad5)*%
X107560000Y-82390000D03*
%TO.P,U1,6,IO34*%
%TO.N,unconnected-(U1-IO34-Pad6)*%
X107560000Y-83660000D03*
%TO.P,U1,7,IO35*%
%TO.N,unconnected-(U1-IO35-Pad7)*%
X107560000Y-84930000D03*
%TO.P,U1,8,IO32*%
%TO.N,unconnected-(U1-IO32-Pad8)*%
X107560000Y-86200000D03*
%TO.P,U1,9,IO33*%
%TO.N,unconnected-(U1-IO33-Pad9)*%
X107560000Y-87470000D03*
%TO.P,U1,10,IO25*%
%TO.N,GPIO25*%
X107560000Y-88740000D03*
%TO.P,U1,11,IO26*%
%TO.N,GPIO26*%
X107560000Y-90010000D03*
%TO.P,U1,12,IO27*%
%TO.N,GPIO27*%
X107560000Y-91280000D03*
%TO.P,U1,13,IO14*%
%TO.N,GPIO14*%
X107560000Y-92550000D03*
%TO.P,U1,14,IO12*%
%TO.N,GPIO12*%
X107560000Y-93820000D03*
D27*
%TO.P,U1,15,GND*%
%TO.N,GND*%
X110600000Y-95070000D03*
%TO.P,U1,16,IO13*%
%TO.N,GPIO13*%
X111870000Y-95070000D03*
%TO.P,U1,17,SHD/SD2*%
%TO.N,unconnected-(U1-SHD{slash}SD2-Pad17)*%
X113140000Y-95070000D03*
%TO.P,U1,18,SWP/SD3*%
%TO.N,unconnected-(U1-SWP{slash}SD3-Pad18)*%
X114410000Y-95070000D03*
%TO.P,U1,19,SCS/CMD*%
%TO.N,unconnected-(U1-SCS{slash}CMD-Pad19)*%
X115680000Y-95070000D03*
%TO.P,U1,20,SCK/CLK*%
%TO.N,unconnected-(U1-SCK{slash}CLK-Pad20)*%
X116950000Y-95070000D03*
%TO.P,U1,21,SDO/SD0*%
%TO.N,unconnected-(U1-SDO{slash}SD0-Pad21)*%
X118220000Y-95070000D03*
%TO.P,U1,22,SDI/SD1*%
%TO.N,unconnected-(U1-SDI{slash}SD1-Pad22)*%
X119490000Y-95070000D03*
%TO.P,U1,23,IO15*%
%TO.N,GPIO15*%
X120760000Y-95070000D03*
%TO.P,U1,24,IO2*%
%TO.N,GPIO2*%
X122030000Y-95070000D03*
D26*
%TO.P,U1,25,IO0*%
%TO.N,GPIO0*%
X125060000Y-93820000D03*
%TO.P,U1,26,IO4*%
%TO.N,GPIO4*%
X125060000Y-92550000D03*
%TO.P,U1,27,IO16*%
%TO.N,unconnected-(U1-IO16-Pad27)*%
X125060000Y-91280000D03*
%TO.P,U1,28,IO17*%
%TO.N,unconnected-(U1-IO17-Pad28)*%
X125060000Y-90010000D03*
%TO.P,U1,29,IO5*%
%TO.N,GPIO5*%
X125060000Y-88740000D03*
%TO.P,U1,30,IO18*%
%TO.N,GPIO18*%
X125060000Y-87470000D03*
%TO.P,U1,31,IO19*%
%TO.N,unconnected-(U1-IO19-Pad31)*%
X125060000Y-86200000D03*
%TO.P,U1,32,NC*%
%TO.N,unconnected-(U1-NC-Pad32)*%
X125060000Y-84930000D03*
%TO.P,U1,33,IO21*%
%TO.N,unconnected-(U1-IO21-Pad33)*%
X125060000Y-83660000D03*
%TO.P,U1,34,RXD0/IO3*%
%TO.N,RX0*%
X125060000Y-82390000D03*
%TO.P,U1,35,TXD0/IO1*%
%TO.N,TX0*%
X125060000Y-81120000D03*
%TO.P,U1,36,IO22*%
%TO.N,unconnected-(U1-IO22-Pad36)*%
X125060000Y-79850000D03*
%TO.P,U1,37,IO23*%
%TO.N,GPIO23*%
X125060000Y-78580000D03*
%TO.P,U1,38,GND*%
%TO.N,GND*%
X125060000Y-77310000D03*
D28*
%TO.P,U1,39,GND*%
X114105000Y-83125000D03*
D29*
X114105000Y-83887500D03*
D28*
X114105000Y-84650000D03*
D29*
X114105000Y-85412500D03*
D28*
X114105000Y-86175000D03*
D29*
X114867500Y-83125000D03*
X114867500Y-84650000D03*
X114867500Y-86175000D03*
D28*
X115630000Y-83125000D03*
D29*
X115630000Y-83887500D03*
D28*
X115630000Y-84650000D03*
D30*
X115630000Y-84650000D03*
D29*
X115630000Y-85412500D03*
D28*
X115630000Y-86175000D03*
D29*
X116392500Y-83125000D03*
X116392500Y-84650000D03*
X116392500Y-86175000D03*
D28*
X117155000Y-83125000D03*
D29*
X117155000Y-83887500D03*
D28*
X117155000Y-84650000D03*
D29*
X117155000Y-85412500D03*
D28*
X117155000Y-86175000D03*
%TD*%
D14*
%TO.P,SCHERM2,1,Pin_1*%
%TO.N,unconnected-(SCHERM2-Pin_1-Pad1)*%
X139382000Y-110998000D03*
D15*
%TO.P,SCHERM2,2,Pin_2*%
%TO.N,+3.3V*%
X137382000Y-110998000D03*
%TO.P,SCHERM2,3,Pin_3*%
%TO.N,GPIO18*%
X135382000Y-110998000D03*
%TO.P,SCHERM2,4,Pin_4*%
%TO.N,GPIO23*%
X133382000Y-110998000D03*
%TO.P,SCHERM2,5,Pin_5*%
%TO.N,GPIO14*%
X131382000Y-110998000D03*
%TO.P,SCHERM2,6,Pin_6*%
%TO.N,GPIO12*%
X129382000Y-110998000D03*
%TO.P,SCHERM2,7,Pin_7*%
%TO.N,GPIO13*%
X127382000Y-110998000D03*
%TO.P,SCHERM2,8,Pin_8*%
%TO.N,GND*%
X125382000Y-110998000D03*
%TO.P,SCHERM2,9,Pin_9*%
%TO.N,+3.3V*%
X123382000Y-110998000D03*
%TD*%
D12*
%TO.P,D2,1,K*%
%TO.N,GND*%
X129803000Y-100838000D03*
%TO.P,D2,2,A*%
%TO.N,Net-(D2-A)*%
X127753000Y-100838000D03*
%TD*%
D21*
%TO.P,SW1,1,1*%
%TO.N,/EN*%
X105156000Y-82804000D03*
%TO.P,SW1,2,2*%
%TO.N,GND*%
X97536000Y-82804000D03*
%TD*%
D31*
%TO.N,+3.3V*%
X117856000Y-99060000D03*
X130048000Y-88900000D03*
X119126000Y-78486000D03*
%TO.N,GND*%
X124206000Y-98552000D03*
X101854000Y-108966000D03*
X110617000Y-94742000D03*
X115316000Y-76708000D03*
X140970000Y-99314000D03*
X131826000Y-100838000D03*
X137160000Y-78994000D03*
X117348000Y-91313000D03*
X104140000Y-85598000D03*
X81026000Y-92964000D03*
X82296000Y-104648000D03*
X122428000Y-81788000D03*
X130302000Y-78232000D03*
X128270000Y-109220000D03*
X122174000Y-103886000D03*
X102616000Y-76962000D03*
X111760000Y-106680000D03*
X126746000Y-104648000D03*
X81280000Y-85090000D03*
X91440000Y-91948000D03*
X85598000Y-72898000D03*
X110998000Y-84201000D03*
%TO.N,RX0*%
X124968000Y-82296000D03*
%TO.N,TX0*%
X127000000Y-80264000D03*
%TO.N,GPIO18*%
X127000000Y-86868000D03*
%TO.N,GPIO4*%
X125222000Y-92710000D03*
%TO.N,GPIO12*%
X110236000Y-102870000D03*
%TO.N,GPIO13*%
X111760000Y-97028000D03*
%TO.N,GPIO26*%
X105410000Y-91440000D03*
%TO.N,GPIO27*%
X105410000Y-92964000D03*
%TD*%
D32*
%TO.N,GPIO14*%
X129930000Y-112450000D02*
X131382000Y-110998000D01*
X122350000Y-112450000D02*
X129930000Y-112450000D01*
X108710000Y-98810000D02*
X122350000Y-112450000D01*
X108710000Y-92550000D02*
X108710000Y-98810000D01*
X107560000Y-92550000D02*
X108710000Y-92550000D01*
%TO.N,GPIO23*%
X110835000Y-109669000D02*
X109760000Y-110744000D01*
X117289000Y-109669000D02*
X110835000Y-109669000D01*
X120820000Y-113200000D02*
X117289000Y-109669000D01*
X131180000Y-113200000D02*
X120820000Y-113200000D01*
X133382000Y-110998000D02*
X131180000Y-113200000D01*
%TO.N,+3.3V*%
X112754000Y-113800000D02*
X111729000Y-112775000D01*
X134580000Y-113800000D02*
X112754000Y-113800000D01*
X137382000Y-110998000D02*
X134580000Y-113800000D01*
X101791000Y-112775000D02*
X99760000Y-110744000D01*
X111729000Y-112775000D02*
X101791000Y-112775000D01*
X113760000Y-110744000D02*
X111729000Y-112775000D01*
X138684000Y-84518000D02*
X139975000Y-85809000D01*
X139975000Y-85809000D02*
X139975000Y-105102000D01*
X139975000Y-105102000D02*
X137381000Y-107696000D01*
X99931000Y-98639500D02*
X99931000Y-110573000D01*
X101324500Y-97514500D02*
X101346000Y-97493000D01*
X130032000Y-95758000D02*
X130048000Y-88900000D01*
X123382000Y-107697000D02*
X123381000Y-107696000D01*
X101346000Y-97493000D02*
X101092000Y-97239000D01*
X123382000Y-110998000D02*
X123382000Y-107697000D01*
X100875000Y-94729000D02*
X100875000Y-88863000D01*
X116840000Y-78486000D02*
X116934000Y-78580000D01*
X101092000Y-94946000D02*
X100875000Y-94729000D01*
X116746000Y-78580000D02*
X116840000Y-78486000D01*
X121790000Y-78580000D02*
X123910000Y-76460000D01*
X137382000Y-110998000D02*
X137382000Y-107697000D01*
X116934000Y-78580000D02*
X121790000Y-78580000D01*
X104669500Y-76962000D02*
X102975500Y-78656000D01*
X101854000Y-87884000D02*
X101092000Y-88646000D01*
X98568000Y-80788000D02*
X101854000Y-84074000D01*
X123910000Y-76460000D02*
X133832000Y-76460000D01*
X133832000Y-76460000D02*
X135382000Y-78010000D01*
X98806000Y-97514500D02*
X99931000Y-98639500D01*
X139954000Y-78267720D02*
X139954000Y-83248000D01*
X104669500Y-76962000D02*
X106287500Y-78580000D01*
X106287500Y-78580000D02*
X107560000Y-78580000D01*
X135382000Y-78010000D02*
X135949000Y-77443000D01*
X102975500Y-78656000D02*
X99668000Y-78656000D01*
X117856000Y-103125594D02*
X117856000Y-99060000D01*
X98806000Y-97514500D02*
X101324500Y-97514500D01*
X98568000Y-79756000D02*
X98568000Y-80788000D01*
X101854000Y-84074000D02*
X101854000Y-87884000D01*
X137382000Y-107697000D02*
X137381000Y-107696000D01*
X135949000Y-77443000D02*
X139129280Y-77443000D01*
X99931000Y-110573000D02*
X99760000Y-110744000D01*
X101092000Y-97239000D02*
X101092000Y-94946000D01*
X129778000Y-96012000D02*
X129778000Y-98298000D01*
X123381000Y-107696000D02*
X122426406Y-107696000D01*
X129778000Y-96012000D02*
X130032000Y-95758000D01*
X130048000Y-88900000D02*
X130032000Y-88900000D01*
X99668000Y-78656000D02*
X98568000Y-79756000D01*
X100875000Y-88863000D02*
X101092000Y-88646000D01*
X139129280Y-77443000D02*
X139954000Y-78267720D01*
X107560000Y-78580000D02*
X116746000Y-78580000D01*
X122426406Y-107696000D02*
X117856000Y-103125594D01*
X139954000Y-83248000D02*
X138684000Y-84518000D01*
%TO.N,GND*%
X115630000Y-83887500D02*
X115630000Y-84650000D01*
X114867500Y-84650000D02*
X115630000Y-84650000D01*
X116392500Y-86175000D02*
X117155000Y-85412500D01*
X116392500Y-86175000D02*
X117155000Y-86175000D01*
X114105000Y-85412500D02*
X114105000Y-86175000D01*
X129778000Y-101067000D02*
X129803000Y-101092000D01*
X125382000Y-110998000D02*
X127160000Y-109220000D01*
X127160000Y-109220000D02*
X128270000Y-109220000D01*
X115630000Y-84650000D02*
X116392500Y-84650000D01*
X115630000Y-86175000D02*
X116392500Y-86175000D01*
X101760000Y-110744000D02*
X101760000Y-109060000D01*
X138684000Y-78518000D02*
X137636000Y-78518000D01*
X125381000Y-107696000D02*
X126905000Y-109220000D01*
X114105000Y-83125000D02*
X114867500Y-83125000D01*
X126905000Y-109220000D02*
X128270000Y-109220000D01*
X114867500Y-83125000D02*
X114105000Y-83887500D01*
X114105000Y-83125000D02*
X114105000Y-83887500D01*
X116392500Y-83125000D02*
X115630000Y-83125000D01*
X137636000Y-78518000D02*
X137160000Y-78994000D01*
X129380000Y-77310000D02*
X130302000Y-78232000D01*
X101760000Y-109060000D02*
X101854000Y-108966000D01*
X116392500Y-83125000D02*
X117155000Y-83125000D01*
X114867500Y-84650000D02*
X114105000Y-85412500D01*
X117155000Y-85412500D02*
X117155000Y-86175000D01*
X125060000Y-77310000D02*
X129380000Y-77310000D01*
X114105000Y-85412500D02*
X114867500Y-86175000D01*
X115630000Y-85412500D02*
X116392500Y-84650000D01*
X115630000Y-83125000D02*
X114867500Y-83125000D01*
X114867500Y-84650000D02*
X115630000Y-83887500D01*
X114867500Y-86175000D02*
X115630000Y-86175000D01*
X116392500Y-84650000D02*
X117155000Y-83887500D01*
X117155000Y-85412500D02*
X116392500Y-84650000D01*
X114105000Y-84650000D02*
X114105000Y-85412500D01*
X116392500Y-83125000D02*
X115630000Y-83887500D01*
X114105000Y-86175000D02*
X114867500Y-86175000D01*
X114867500Y-86175000D02*
X115630000Y-85412500D01*
X114867500Y-83125000D02*
X115630000Y-83887500D01*
X115630000Y-85412500D02*
X115630000Y-84650000D01*
%TO.N,VDD*%
X98792000Y-87157500D02*
X100097500Y-85852000D01*
X98792000Y-88646000D02*
X98792000Y-87157500D01*
X94615000Y-85471000D02*
X97790000Y-88646000D01*
X94615000Y-78708000D02*
X94615000Y-85471000D01*
X92075000Y-78708000D02*
X94615000Y-78708000D01*
X97790000Y-88646000D02*
X98792000Y-88646000D01*
%TO.N,Net-(D1-K)*%
X124215000Y-103861000D02*
X124190000Y-103886000D01*
X124215000Y-101092000D02*
X124215000Y-103861000D01*
%TO.N,GPIO2*%
X131381000Y-106179827D02*
X128579173Y-103378000D01*
X123010000Y-95070000D02*
X122030000Y-95070000D01*
X125984000Y-102362000D02*
X125984000Y-98044000D01*
X122165000Y-98577000D02*
X122190000Y-98552000D01*
X128579173Y-103378000D02*
X127000000Y-103378000D01*
X131381000Y-107696000D02*
X131381000Y-106179827D01*
X122165000Y-101092000D02*
X122165000Y-98577000D01*
X125984000Y-98044000D02*
X123010000Y-95070000D01*
X127000000Y-103378000D02*
X125984000Y-102362000D01*
X122190000Y-98552000D02*
X122030000Y-98392000D01*
X122030000Y-98392000D02*
X122030000Y-95070000D01*
%TO.N,Net-(D2-A)*%
X127778000Y-98298000D02*
X127778000Y-100813000D01*
X127778000Y-100813000D02*
X127753000Y-100838000D01*
%TO.N,TX0*%
X135890000Y-80518000D02*
X138684000Y-80518000D01*
X126144000Y-81120000D02*
X127000000Y-80264000D01*
X135382000Y-80010000D02*
X135890000Y-80518000D01*
X125060000Y-81120000D02*
X126144000Y-81120000D01*
%TO.N,Net-(J2-Pad1)*%
X92075000Y-97250000D02*
X94615000Y-97250000D01*
X94615000Y-103505000D02*
X93726000Y-104394000D01*
X94615000Y-97250000D02*
X94615000Y-103505000D01*
%TO.N,Net-(J2-Pad2)*%
X87426000Y-104394000D02*
X87426000Y-100729000D01*
X81407000Y-97250000D02*
X83947000Y-97250000D01*
X87426000Y-100729000D02*
X83947000Y-97250000D01*
%TO.N,/EN*%
X100662000Y-79850000D02*
X100568000Y-79756000D01*
X107560000Y-79850000D02*
X100662000Y-79850000D01*
X105156000Y-81104000D02*
X105156000Y-82804000D01*
X106410000Y-79850000D02*
X105156000Y-81104000D01*
%TO.N,GPIO0*%
X125586000Y-93820000D02*
X127778000Y-96012000D01*
X125060000Y-93820000D02*
X126906000Y-93820000D01*
X126906000Y-93820000D02*
X128270000Y-92456000D01*
X125060000Y-93820000D02*
X125586000Y-93820000D01*
%TO.N,GPIO5*%
X127872000Y-88740000D02*
X128032000Y-88900000D01*
X125060000Y-88740000D02*
X127872000Y-88740000D01*
%TO.N,GPIO18*%
X135382000Y-110998000D02*
X135382000Y-107697000D01*
X126398000Y-87470000D02*
X127000000Y-86868000D01*
X125060000Y-87470000D02*
X126398000Y-87470000D01*
X135382000Y-107697000D02*
X135381000Y-107696000D01*
%TO.N,GPIO23*%
X127729000Y-78580000D02*
X133381000Y-84232000D01*
X133382000Y-107697000D02*
X133381000Y-107696000D01*
X127729000Y-78580000D02*
X125060000Y-78580000D01*
X133381000Y-84232000D02*
X133381000Y-107696000D01*
X133382000Y-110998000D02*
X133382000Y-107697000D01*
%TO.N,GPIO15*%
X120396000Y-104648000D02*
X120396000Y-97291305D01*
X125349000Y-105664000D02*
X121412000Y-105664000D01*
X120396000Y-97291305D02*
X120760000Y-96927305D01*
X121412000Y-105664000D02*
X120396000Y-104648000D01*
X120760000Y-95070000D02*
X120760000Y-96927305D01*
X127381000Y-107696000D02*
X125349000Y-105664000D01*
%TO.N,GPIO14*%
X108679000Y-92550000D02*
X107560000Y-92550000D01*
%TO.N,GPIO12*%
X110236000Y-102870000D02*
X107560000Y-100194000D01*
X107560000Y-99822000D02*
X107560000Y-93820000D01*
X107560000Y-100194000D02*
X107560000Y-99822000D01*
%TO.N,GPIO13*%
X111870000Y-95070000D02*
X111870000Y-96918000D01*
%TO.N,GPIO25*%
X106560000Y-88740000D02*
X103632000Y-91668000D01*
X103632000Y-91668000D02*
X103632000Y-106616000D01*
X103632000Y-106616000D02*
X107760000Y-110744000D01*
X107560000Y-88740000D02*
X106560000Y-88740000D01*
%TO.N,GPIO26*%
X105410000Y-91440000D02*
X106840000Y-90010000D01*
X106840000Y-90010000D02*
X107560000Y-90010000D01*
%TO.N,GPIO27*%
X106830000Y-91280000D02*
X105410000Y-92700000D01*
X105410000Y-92700000D02*
X105410000Y-92964000D01*
X107560000Y-91280000D02*
X106830000Y-91280000D01*
%TD*%
%TA.AperFunction,Conductor*%
%TO.N,GND*%
G36*
X144209500Y-69232113D02*
G01*
X144254887Y-69277500D01*
X144271500Y-69339500D01*
X144271500Y-114089000D01*
X144254887Y-114151000D01*
X144209500Y-114196387D01*
X144147500Y-114213000D01*
X135457019Y-114213000D01*
X135400724Y-114199485D01*
X135356701Y-114161885D01*
X135334546Y-114108398D01*
X135339088Y-114050682D01*
X135369338Y-114001319D01*
X135740190Y-113630467D01*
X136756579Y-112614077D01*
X141458708Y-112614077D01*
X141478140Y-112823792D01*
X141535776Y-113026360D01*
X141629651Y-113214888D01*
X141756575Y-113382962D01*
X141912215Y-113524847D01*
X141912217Y-113524848D01*
X141912218Y-113524849D01*
X142091282Y-113635721D01*
X142287671Y-113711802D01*
X142494695Y-113750501D01*
X142705303Y-113750501D01*
X142705305Y-113750501D01*
X142912329Y-113711802D01*
X143108718Y-113635721D01*
X143287782Y-113524849D01*
X143443425Y-113382961D01*
X143570346Y-113214891D01*
X143570346Y-113214889D01*
X143570348Y-113214888D01*
X143664223Y-113026360D01*
X143721859Y-112823792D01*
X143738975Y-112639078D01*
X143741292Y-112614078D01*
X143721859Y-112404366D01*
X143721859Y-112404363D01*
X143664223Y-112201795D01*
X143570348Y-112013267D01*
X143443424Y-111845193D01*
X143287784Y-111703308D01*
X143149094Y-111617435D01*
X143108718Y-111592435D01*
X143108716Y-111592434D01*
X142912330Y-111516354D01*
X142830239Y-111501009D01*
X142705305Y-111477655D01*
X142494695Y-111477655D01*
X142391183Y-111497004D01*
X142287669Y-111516354D01*
X142091283Y-111592434D01*
X141912215Y-111703308D01*
X141756575Y-111845193D01*
X141629651Y-112013267D01*
X141535776Y-112201795D01*
X141478140Y-112404363D01*
X141458708Y-112614077D01*
X136756579Y-112614077D01*
X137162896Y-112207759D01*
X137213896Y-112176991D01*
X137261583Y-112174235D01*
X137261583Y-112173500D01*
X137490924Y-112173500D01*
X137490926Y-112173500D01*
X137705069Y-112133470D01*
X137905229Y-112055927D01*
X137908208Y-112054773D01*
X137929879Y-112041355D01*
X138093432Y-111940088D01*
X138104409Y-111930080D01*
X138165330Y-111899796D01*
X138233063Y-111906215D01*
X138287215Y-111947405D01*
X138338830Y-112016355D01*
X138349454Y-112030546D01*
X138464669Y-112116796D01*
X138599517Y-112167091D01*
X138659127Y-112173500D01*
X140104872Y-112173499D01*
X140164483Y-112167091D01*
X140299331Y-112116796D01*
X140414546Y-112030546D01*
X140500796Y-111915331D01*
X140551091Y-111780483D01*
X140557500Y-111720873D01*
X140557499Y-110275128D01*
X140551091Y-110215517D01*
X140500796Y-110080669D01*
X140414546Y-109965454D01*
X140299331Y-109879204D01*
X140164483Y-109828909D01*
X140104873Y-109822500D01*
X140104869Y-109822500D01*
X138659130Y-109822500D01*
X138599515Y-109828909D01*
X138464669Y-109879204D01*
X138349454Y-109965453D01*
X138338108Y-109980610D01*
X138305765Y-110023814D01*
X138258011Y-110062296D01*
X138197654Y-110073186D01*
X138139460Y-110053817D01*
X138097668Y-110008929D01*
X138082500Y-109949502D01*
X138082500Y-108745834D01*
X138097668Y-108686407D01*
X138139460Y-108641519D01*
X138197654Y-108622150D01*
X138258011Y-108633040D01*
X138305765Y-108671522D01*
X138348454Y-108728546D01*
X138463669Y-108814796D01*
X138598517Y-108865091D01*
X138658127Y-108871500D01*
X140103872Y-108871499D01*
X140163483Y-108865091D01*
X140298331Y-108814796D01*
X140413546Y-108728546D01*
X140499796Y-108613331D01*
X140550091Y-108478483D01*
X140556500Y-108418873D01*
X140556499Y-106973128D01*
X140550091Y-106913517D01*
X140499796Y-106778669D01*
X140413546Y-106663454D01*
X140298331Y-106577204D01*
X140163483Y-106526909D01*
X140103873Y-106520500D01*
X140103869Y-106520500D01*
X139846518Y-106520500D01*
X139790223Y-106506985D01*
X139746200Y-106469385D01*
X139724045Y-106415898D01*
X139728587Y-106358182D01*
X139758837Y-106308819D01*
X140097764Y-105969892D01*
X140452731Y-105614924D01*
X140458150Y-105609823D01*
X140503183Y-105569929D01*
X140537355Y-105520420D01*
X140541775Y-105514413D01*
X140578878Y-105467057D01*
X140583035Y-105457819D01*
X140594060Y-105438270D01*
X140599818Y-105429930D01*
X140621152Y-105373673D01*
X140623996Y-105366808D01*
X140648695Y-105311932D01*
X140650522Y-105301958D01*
X140656552Y-105280331D01*
X140660140Y-105270871D01*
X140667387Y-105211184D01*
X140668514Y-105203778D01*
X140671720Y-105186283D01*
X140679358Y-105144606D01*
X140675726Y-105084566D01*
X140675500Y-105077079D01*
X140675500Y-85833921D01*
X140675726Y-85826434D01*
X140676885Y-85807266D01*
X140679358Y-85766394D01*
X140668507Y-85707185D01*
X140667390Y-85699841D01*
X140660140Y-85640128D01*
X140656547Y-85630656D01*
X140650522Y-85609044D01*
X140648695Y-85599069D01*
X140624009Y-85544220D01*
X140621152Y-85537326D01*
X140599818Y-85481070D01*
X140599816Y-85481068D01*
X140599816Y-85481066D01*
X140594062Y-85472731D01*
X140583033Y-85453177D01*
X140581527Y-85449831D01*
X140578878Y-85443944D01*
X140541780Y-85396591D01*
X140537352Y-85390573D01*
X140503184Y-85341072D01*
X140503183Y-85341071D01*
X140458153Y-85301178D01*
X140452715Y-85296058D01*
X139895818Y-84739161D01*
X139868938Y-84698933D01*
X139859499Y-84651480D01*
X139859499Y-84384519D01*
X139868938Y-84337066D01*
X139895818Y-84296838D01*
X140161262Y-84031394D01*
X140431731Y-83760924D01*
X140437150Y-83755823D01*
X140482183Y-83715929D01*
X140516351Y-83666426D01*
X140520763Y-83660428D01*
X140557878Y-83613057D01*
X140562034Y-83603820D01*
X140573062Y-83584267D01*
X140578818Y-83575930D01*
X140600153Y-83519671D01*
X140602997Y-83512803D01*
X140627694Y-83457932D01*
X140629519Y-83447970D01*
X140635545Y-83426348D01*
X140639140Y-83416872D01*
X140646389Y-83357165D01*
X140647516Y-83349762D01*
X140658357Y-83290606D01*
X140654726Y-83230577D01*
X140654500Y-83223090D01*
X140654500Y-78292630D01*
X140654726Y-78285143D01*
X140657171Y-78244714D01*
X140658357Y-78225114D01*
X140647509Y-78165921D01*
X140646392Y-78158576D01*
X140639140Y-78098848D01*
X140635546Y-78089372D01*
X140629520Y-78067756D01*
X140627694Y-78057788D01*
X140602997Y-78002915D01*
X140600155Y-77996054D01*
X140578818Y-77939790D01*
X140573058Y-77931446D01*
X140562039Y-77911910D01*
X140557878Y-77902663D01*
X140538597Y-77878052D01*
X140520785Y-77855316D01*
X140516354Y-77849297D01*
X140482183Y-77799791D01*
X140437153Y-77759898D01*
X140431715Y-77754778D01*
X139642220Y-76965283D01*
X139637102Y-76959847D01*
X139597209Y-76914817D01*
X139547712Y-76880651D01*
X139541685Y-76876216D01*
X139494334Y-76839120D01*
X139485093Y-76834961D01*
X139465553Y-76823941D01*
X139457210Y-76818182D01*
X139457207Y-76818181D01*
X139457206Y-76818180D01*
X139400981Y-76796856D01*
X139394063Y-76793991D01*
X139339209Y-76769303D01*
X139329232Y-76767475D01*
X139307619Y-76761450D01*
X139298153Y-76757860D01*
X139238452Y-76750610D01*
X139231051Y-76749483D01*
X139171887Y-76738641D01*
X139111846Y-76742274D01*
X139104359Y-76742500D01*
X135973910Y-76742500D01*
X135966423Y-76742274D01*
X135906392Y-76738642D01*
X135847240Y-76749482D01*
X135839839Y-76750609D01*
X135780125Y-76757860D01*
X135770648Y-76761454D01*
X135749047Y-76767475D01*
X135739070Y-76769303D01*
X135684219Y-76793989D01*
X135677305Y-76796853D01*
X135621069Y-76818182D01*
X135612725Y-76823941D01*
X135593186Y-76834961D01*
X135583943Y-76839121D01*
X135536589Y-76876219D01*
X135530567Y-76880650D01*
X135520581Y-76887544D01*
X135487028Y-76903884D01*
X135450133Y-76909500D01*
X135323519Y-76909500D01*
X135276066Y-76900061D01*
X135235838Y-76873181D01*
X134344940Y-75982283D01*
X134339823Y-75976849D01*
X134330409Y-75966222D01*
X134303584Y-75916573D01*
X134301540Y-75860174D01*
X134324702Y-75808711D01*
X134368274Y-75772843D01*
X134423229Y-75760000D01*
X140310000Y-75760000D01*
X140310000Y-70739000D01*
X141613786Y-70739000D01*
X141633218Y-70948714D01*
X141690854Y-71151282D01*
X141784729Y-71339810D01*
X141911653Y-71507884D01*
X142067293Y-71649769D01*
X142067295Y-71649770D01*
X142067296Y-71649771D01*
X142246360Y-71760643D01*
X142442749Y-71836724D01*
X142649773Y-71875423D01*
X142860381Y-71875423D01*
X142860383Y-71875423D01*
X143067407Y-71836724D01*
X143263796Y-71760643D01*
X143442860Y-71649771D01*
X143598503Y-71507883D01*
X143725424Y-71339813D01*
X143725424Y-71339811D01*
X143725426Y-71339810D01*
X143819301Y-71151282D01*
X143876937Y-70948714D01*
X143879975Y-70915924D01*
X143896370Y-70739000D01*
X143876937Y-70529288D01*
X143876937Y-70529285D01*
X143819301Y-70326717D01*
X143725426Y-70138189D01*
X143598502Y-69970115D01*
X143442862Y-69828230D01*
X143263794Y-69717356D01*
X143067408Y-69641276D01*
X142998398Y-69628376D01*
X142860383Y-69602577D01*
X142649773Y-69602577D01*
X142546260Y-69621926D01*
X142442747Y-69641276D01*
X142246361Y-69717356D01*
X142067293Y-69828230D01*
X141911653Y-69970115D01*
X141784729Y-70138189D01*
X141690854Y-70326717D01*
X141633218Y-70529285D01*
X141613786Y-70739000D01*
X140310000Y-70739000D01*
X140310000Y-69339500D01*
X140326613Y-69277500D01*
X140372000Y-69232113D01*
X140434000Y-69215500D01*
X144147500Y-69215500D01*
X144209500Y-69232113D01*
G37*
%TD.AperFunction*%
%TA.AperFunction,Conductor*%
G36*
X92248000Y-69232113D02*
G01*
X92293387Y-69277500D01*
X92310000Y-69339500D01*
X92310000Y-75760000D01*
X101623976Y-75760000D01*
X101680271Y-75773515D01*
X101724294Y-75811115D01*
X101746449Y-75864602D01*
X101741907Y-75922318D01*
X101711657Y-75971681D01*
X101664683Y-76018654D01*
X101572642Y-76167877D01*
X101517493Y-76334303D01*
X101507000Y-76437021D01*
X101507000Y-76712000D01*
X102720500Y-76712000D01*
X102782500Y-76728613D01*
X102827887Y-76774000D01*
X102844500Y-76836000D01*
X102844500Y-77088000D01*
X102827887Y-77150000D01*
X102782500Y-77195387D01*
X102720500Y-77212000D01*
X101507001Y-77212000D01*
X101507001Y-77486979D01*
X101517493Y-77589695D01*
X101572642Y-77756122D01*
X101578984Y-77766404D01*
X101597416Y-77828796D01*
X101581722Y-77891932D01*
X101536224Y-77938434D01*
X101473445Y-77955500D01*
X99692921Y-77955500D01*
X99685434Y-77955274D01*
X99625391Y-77951641D01*
X99566227Y-77962483D01*
X99558828Y-77963610D01*
X99499124Y-77970860D01*
X99489651Y-77974453D01*
X99468047Y-77980476D01*
X99458069Y-77982305D01*
X99403212Y-78006993D01*
X99396296Y-78009857D01*
X99340070Y-78031181D01*
X99331726Y-78036941D01*
X99312185Y-78047962D01*
X99302941Y-78052122D01*
X99255597Y-78089213D01*
X99249568Y-78093649D01*
X99200070Y-78127816D01*
X99160183Y-78172838D01*
X99155051Y-78178290D01*
X98814160Y-78519181D01*
X98773932Y-78546061D01*
X98726479Y-78555500D01*
X98167991Y-78555500D01*
X98065203Y-78566000D01*
X97898665Y-78621186D01*
X97749342Y-78713288D01*
X97625288Y-78837342D01*
X97533186Y-78986665D01*
X97478000Y-79153202D01*
X97467500Y-79255990D01*
X97467500Y-80256008D01*
X97478000Y-80358796D01*
X97533186Y-80525334D01*
X97625286Y-80674654D01*
X97749345Y-80798713D01*
X97822104Y-80843590D01*
X97861438Y-80882268D01*
X97880103Y-80934178D01*
X97882859Y-80956869D01*
X97886450Y-80966339D01*
X97892475Y-80987952D01*
X97894303Y-80997929D01*
X97918991Y-81052783D01*
X97921856Y-81059701D01*
X97943180Y-81115926D01*
X97943182Y-81115930D01*
X97948941Y-81124273D01*
X97959961Y-81143813D01*
X97964120Y-81153054D01*
X97964121Y-81153055D01*
X97964122Y-81153057D01*
X97972808Y-81164144D01*
X98001216Y-81200405D01*
X98005651Y-81206432D01*
X98039817Y-81255929D01*
X98084847Y-81295822D01*
X98090283Y-81300940D01*
X98504493Y-81715150D01*
X98535536Y-81767047D01*
X98538342Y-81827455D01*
X98512244Y-81882007D01*
X98463448Y-81917727D01*
X98403560Y-81926121D01*
X98383827Y-81924000D01*
X97786000Y-81924000D01*
X97786000Y-82554000D01*
X98836000Y-82554000D01*
X98836000Y-82376169D01*
X98833879Y-82356443D01*
X98842271Y-82296554D01*
X98877991Y-82247757D01*
X98932542Y-82221657D01*
X98992951Y-82224462D01*
X99044849Y-82255506D01*
X101117181Y-84327838D01*
X101144061Y-84368066D01*
X101153500Y-84415519D01*
X101153500Y-84734769D01*
X101139985Y-84791064D01*
X101102385Y-84835087D01*
X101048898Y-84857242D01*
X100991182Y-84852700D01*
X100941819Y-84822450D01*
X100903657Y-84784288D01*
X100754334Y-84692186D01*
X100587797Y-84637000D01*
X100485009Y-84626500D01*
X99709991Y-84626500D01*
X99607203Y-84637000D01*
X99440665Y-84692186D01*
X99291342Y-84784288D01*
X99167286Y-84908344D01*
X99165242Y-84911659D01*
X99120135Y-84954837D01*
X99059704Y-84970558D01*
X98999274Y-84954835D01*
X98954168Y-84911656D01*
X98952316Y-84908654D01*
X98828345Y-84784683D01*
X98679122Y-84692642D01*
X98512696Y-84637493D01*
X98409979Y-84627000D01*
X98272500Y-84627000D01*
X98272500Y-85978000D01*
X98255887Y-86040000D01*
X98210500Y-86085387D01*
X98148500Y-86102000D01*
X96935001Y-86102000D01*
X96935001Y-86376979D01*
X96946874Y-86493207D01*
X96945819Y-86493314D01*
X96948464Y-86543796D01*
X96918012Y-86601876D01*
X96862197Y-86636303D01*
X96796628Y-86637447D01*
X96739645Y-86604988D01*
X95736657Y-85602000D01*
X96935000Y-85602000D01*
X97772500Y-85602000D01*
X97772500Y-84627001D01*
X97635021Y-84627001D01*
X97532304Y-84637493D01*
X97365877Y-84692642D01*
X97216654Y-84784683D01*
X97092683Y-84908654D01*
X97000642Y-85057877D01*
X96945493Y-85224303D01*
X96935000Y-85327021D01*
X96935000Y-85602000D01*
X95736657Y-85602000D01*
X95351819Y-85217162D01*
X95324939Y-85176934D01*
X95315500Y-85129481D01*
X95315500Y-83054000D01*
X96236000Y-83054000D01*
X96236000Y-83231824D01*
X96242402Y-83291375D01*
X96292647Y-83426089D01*
X96378811Y-83541188D01*
X96493910Y-83627352D01*
X96628624Y-83677597D01*
X96688176Y-83684000D01*
X97286000Y-83684000D01*
X97286000Y-83054000D01*
X97786000Y-83054000D01*
X97786000Y-83684000D01*
X98383824Y-83684000D01*
X98443375Y-83677597D01*
X98578089Y-83627352D01*
X98693188Y-83541188D01*
X98779352Y-83426089D01*
X98829597Y-83291375D01*
X98836000Y-83231824D01*
X98836000Y-83054000D01*
X97786000Y-83054000D01*
X97286000Y-83054000D01*
X96236000Y-83054000D01*
X95315500Y-83054000D01*
X95315500Y-82554000D01*
X96236000Y-82554000D01*
X97286000Y-82554000D01*
X97286000Y-81924000D01*
X96688176Y-81924000D01*
X96628624Y-81930402D01*
X96493910Y-81980647D01*
X96378811Y-82066811D01*
X96292647Y-82181910D01*
X96242402Y-82316624D01*
X96236000Y-82376176D01*
X96236000Y-82554000D01*
X95315500Y-82554000D01*
X95315500Y-80126769D01*
X95331310Y-80066180D01*
X95374710Y-80021042D01*
X95432730Y-79985487D01*
X95509132Y-79938668D01*
X95690643Y-79783643D01*
X95845668Y-79602132D01*
X95970389Y-79398605D01*
X96061737Y-79178073D01*
X96117461Y-78945966D01*
X96136189Y-78708000D01*
X96117461Y-78470034D01*
X96066570Y-78258058D01*
X96061737Y-78237926D01*
X95976099Y-78031181D01*
X95970389Y-78017395D01*
X95845668Y-77813868D01*
X95845022Y-77813112D01*
X95770316Y-77725642D01*
X95690643Y-77632357D01*
X95563400Y-77523681D01*
X95509135Y-77477334D01*
X95509132Y-77477332D01*
X95305605Y-77352611D01*
X95305602Y-77352610D01*
X95305601Y-77352609D01*
X95085073Y-77261262D01*
X94852967Y-77205539D01*
X94615000Y-77186811D01*
X94377032Y-77205539D01*
X94144926Y-77261262D01*
X93924398Y-77352609D01*
X93720864Y-77477334D01*
X93539357Y-77632357D01*
X93439290Y-77749520D01*
X93396914Y-77781598D01*
X93345000Y-77792988D01*
X93293086Y-77781598D01*
X93250710Y-77749520D01*
X93209994Y-77701848D01*
X93150643Y-77632357D01*
X93023400Y-77523681D01*
X92969135Y-77477334D01*
X92969132Y-77477332D01*
X92765605Y-77352611D01*
X92765602Y-77352610D01*
X92765601Y-77352609D01*
X92545073Y-77261262D01*
X92312967Y-77205539D01*
X92075000Y-77186811D01*
X91837032Y-77205539D01*
X91604926Y-77261262D01*
X91384398Y-77352609D01*
X91180864Y-77477334D01*
X90999357Y-77632357D01*
X90844334Y-77813864D01*
X90719609Y-78017398D01*
X90628262Y-78237926D01*
X90572539Y-78470032D01*
X90553811Y-78707999D01*
X90572539Y-78945967D01*
X90628262Y-79178073D01*
X90712952Y-79382530D01*
X90719611Y-79398605D01*
X90836289Y-79589007D01*
X90844334Y-79602135D01*
X90905873Y-79674188D01*
X90999357Y-79783643D01*
X91180868Y-79938668D01*
X91384395Y-80063389D01*
X91465862Y-80097134D01*
X91604926Y-80154737D01*
X91678254Y-80172341D01*
X91837034Y-80210461D01*
X92075000Y-80229189D01*
X92312966Y-80210461D01*
X92545073Y-80154737D01*
X92765605Y-80063389D01*
X92969132Y-79938668D01*
X93150643Y-79783643D01*
X93250711Y-79666477D01*
X93293086Y-79634401D01*
X93345000Y-79623011D01*
X93396914Y-79634401D01*
X93439288Y-79666477D01*
X93539357Y-79783643D01*
X93720868Y-79938668D01*
X93730826Y-79944770D01*
X93855290Y-80021042D01*
X93898690Y-80066180D01*
X93914500Y-80126769D01*
X93914500Y-85446079D01*
X93914274Y-85453566D01*
X93910641Y-85513607D01*
X93921483Y-85572771D01*
X93922610Y-85580172D01*
X93929860Y-85639873D01*
X93933450Y-85649339D01*
X93939475Y-85670952D01*
X93941303Y-85680929D01*
X93965991Y-85735783D01*
X93968856Y-85742701D01*
X93990180Y-85798926D01*
X93990182Y-85798930D01*
X93995941Y-85807273D01*
X94006961Y-85826813D01*
X94011120Y-85836054D01*
X94048216Y-85883405D01*
X94052651Y-85889432D01*
X94086817Y-85938929D01*
X94131847Y-85978822D01*
X94137283Y-85983940D01*
X97277058Y-89123715D01*
X97282178Y-89129153D01*
X97322071Y-89174183D01*
X97371577Y-89208355D01*
X97377597Y-89212785D01*
X97424941Y-89249877D01*
X97424942Y-89249877D01*
X97424943Y-89249878D01*
X97434184Y-89254037D01*
X97453730Y-89265061D01*
X97462070Y-89270818D01*
X97464701Y-89272634D01*
X97503397Y-89297103D01*
X97531577Y-89337928D01*
X97541500Y-89386533D01*
X97541500Y-89693869D01*
X97547909Y-89753484D01*
X97572216Y-89818654D01*
X97598204Y-89888331D01*
X97684454Y-90003546D01*
X97799669Y-90089796D01*
X97934517Y-90140091D01*
X97994127Y-90146500D01*
X99589872Y-90146499D01*
X99649483Y-90140091D01*
X99784331Y-90089796D01*
X99867692Y-90027391D01*
X99915640Y-90005494D01*
X99968357Y-90005494D01*
X100016308Y-90027392D01*
X100099669Y-90089796D01*
X100099671Y-90089797D01*
X100111709Y-90098808D01*
X100136070Y-90114058D01*
X100164488Y-90154989D01*
X100174500Y-90203801D01*
X100174500Y-93321501D01*
X100157887Y-93383501D01*
X100112500Y-93428888D01*
X100050500Y-93445501D01*
X99144128Y-93445501D01*
X99114322Y-93448705D01*
X99084515Y-93451909D01*
X98949669Y-93502204D01*
X98834454Y-93588454D01*
X98748204Y-93703668D01*
X98702427Y-93826402D01*
X98697909Y-93838517D01*
X98693810Y-93876647D01*
X98691500Y-93898130D01*
X98691500Y-95993869D01*
X98697909Y-96053484D01*
X98748204Y-96188332D01*
X98778042Y-96228190D01*
X98802281Y-96291448D01*
X98789659Y-96358004D01*
X98743942Y-96407995D01*
X98678775Y-96426500D01*
X98280991Y-96426500D01*
X98178203Y-96437000D01*
X98011665Y-96492186D01*
X97862342Y-96584288D01*
X97738288Y-96708342D01*
X97646186Y-96857665D01*
X97591000Y-97024202D01*
X97580500Y-97126990D01*
X97580500Y-97902008D01*
X97591000Y-98004796D01*
X97646186Y-98171334D01*
X97738288Y-98320657D01*
X97862340Y-98444709D01*
X97862342Y-98444710D01*
X97862344Y-98444712D01*
X97865652Y-98446752D01*
X97908834Y-98491857D01*
X97924559Y-98552289D01*
X97908838Y-98612721D01*
X97865659Y-98657830D01*
X97862654Y-98659683D01*
X97738683Y-98783654D01*
X97646642Y-98932877D01*
X97591493Y-99099303D01*
X97581000Y-99202021D01*
X97581000Y-99339500D01*
X98932000Y-99339500D01*
X98994000Y-99356113D01*
X99039387Y-99401500D01*
X99056000Y-99463500D01*
X99056000Y-100676999D01*
X99106500Y-100676999D01*
X99168500Y-100693612D01*
X99213887Y-100738999D01*
X99230500Y-100800999D01*
X99230500Y-109620197D01*
X99214829Y-109680536D01*
X99171778Y-109725624D01*
X99048565Y-109801913D01*
X98887573Y-109948676D01*
X98756287Y-110122528D01*
X98659181Y-110317542D01*
X98599564Y-110527074D01*
X98579464Y-110744000D01*
X98599564Y-110960925D01*
X98659181Y-111170457D01*
X98756287Y-111365471D01*
X98887573Y-111539323D01*
X99011411Y-111652215D01*
X99048568Y-111686088D01*
X99116756Y-111728308D01*
X99233791Y-111800773D01*
X99412990Y-111870195D01*
X99436931Y-111879470D01*
X99651074Y-111919500D01*
X99651076Y-111919500D01*
X99880417Y-111919500D01*
X99880417Y-111920236D01*
X99928100Y-111922990D01*
X99979104Y-111953761D01*
X101278058Y-113252715D01*
X101283178Y-113258153D01*
X101323071Y-113303183D01*
X101323072Y-113303184D01*
X101372573Y-113337352D01*
X101378591Y-113341780D01*
X101425944Y-113378878D01*
X101435180Y-113383034D01*
X101454731Y-113394062D01*
X101463066Y-113399816D01*
X101463068Y-113399816D01*
X101463070Y-113399818D01*
X101519326Y-113421152D01*
X101526220Y-113424009D01*
X101581069Y-113448695D01*
X101591044Y-113450522D01*
X101612656Y-113456547D01*
X101622128Y-113460140D01*
X101681841Y-113467390D01*
X101689185Y-113468507D01*
X101748394Y-113479358D01*
X101805102Y-113475927D01*
X101808434Y-113475726D01*
X101815921Y-113475500D01*
X111387481Y-113475500D01*
X111434934Y-113484939D01*
X111475162Y-113511819D01*
X111964662Y-114001319D01*
X111994912Y-114050682D01*
X111999454Y-114108398D01*
X111977299Y-114161885D01*
X111933276Y-114199485D01*
X111876981Y-114213000D01*
X77618931Y-114213000D01*
X77556951Y-114196399D01*
X77511567Y-114151040D01*
X77494931Y-114089069D01*
X77494721Y-113711801D01*
X77494125Y-112639078D01*
X78108708Y-112639078D01*
X78128140Y-112848792D01*
X78185776Y-113051360D01*
X78279651Y-113239888D01*
X78406575Y-113407962D01*
X78562215Y-113549847D01*
X78562217Y-113549848D01*
X78562218Y-113549849D01*
X78741282Y-113660721D01*
X78937671Y-113736802D01*
X79144695Y-113775501D01*
X79355303Y-113775501D01*
X79355305Y-113775501D01*
X79562329Y-113736802D01*
X79758718Y-113660721D01*
X79937782Y-113549849D01*
X80093425Y-113407961D01*
X80220346Y-113239891D01*
X80220346Y-113239889D01*
X80220348Y-113239888D01*
X80314223Y-113051360D01*
X80371859Y-112848792D01*
X80378697Y-112775000D01*
X80391292Y-112639078D01*
X80371859Y-112429366D01*
X80371859Y-112429363D01*
X80314223Y-112226795D01*
X80220348Y-112038267D01*
X80093424Y-111870193D01*
X79937784Y-111728308D01*
X79767203Y-111622689D01*
X79758718Y-111617435D01*
X79758716Y-111617434D01*
X79562330Y-111541354D01*
X79482775Y-111526483D01*
X79355305Y-111502655D01*
X79144695Y-111502655D01*
X79071411Y-111516354D01*
X78937669Y-111541354D01*
X78741283Y-111617434D01*
X78562215Y-111728308D01*
X78406575Y-111870193D01*
X78279651Y-112038267D01*
X78185776Y-112226795D01*
X78128140Y-112429363D01*
X78108708Y-112639078D01*
X77494125Y-112639078D01*
X77492280Y-109318335D01*
X88225500Y-109318335D01*
X88266429Y-109563615D01*
X88309020Y-109687677D01*
X88347172Y-109798810D01*
X88451286Y-109991195D01*
X88465529Y-110017514D01*
X88590200Y-110177690D01*
X88618262Y-110213744D01*
X88801215Y-110382164D01*
X89009393Y-110518173D01*
X89237119Y-110618063D01*
X89478179Y-110679108D01*
X89552480Y-110685264D01*
X89663927Y-110694500D01*
X89663933Y-110694500D01*
X91988067Y-110694500D01*
X91988073Y-110694500D01*
X92089387Y-110686104D01*
X92173821Y-110679108D01*
X92414881Y-110618063D01*
X92642607Y-110518173D01*
X92850785Y-110382164D01*
X93033738Y-110213744D01*
X93186474Y-110017509D01*
X93304828Y-109798810D01*
X93385571Y-109563614D01*
X93426500Y-109318335D01*
X93426500Y-109069665D01*
X93385571Y-108824386D01*
X93304828Y-108589190D01*
X93186474Y-108370491D01*
X93186471Y-108370487D01*
X93186470Y-108370485D01*
X93037562Y-108179169D01*
X93033738Y-108174256D01*
X92850785Y-108005836D01*
X92642607Y-107869827D01*
X92642604Y-107869825D01*
X92517523Y-107814960D01*
X92414881Y-107769937D01*
X92173821Y-107708892D01*
X92173819Y-107708891D01*
X92173816Y-107708891D01*
X91988073Y-107693500D01*
X91988067Y-107693500D01*
X89663933Y-107693500D01*
X89663927Y-107693500D01*
X89478183Y-107708891D01*
X89478179Y-107708891D01*
X89478179Y-107708892D01*
X89237119Y-107769937D01*
X89237116Y-107769938D01*
X89237117Y-107769938D01*
X89009395Y-107869825D01*
X88943429Y-107912923D01*
X88801215Y-108005836D01*
X88801213Y-108005837D01*
X88801214Y-108005837D01*
X88618259Y-108174259D01*
X88465529Y-108370485D01*
X88347170Y-108589194D01*
X88266429Y-108824384D01*
X88225500Y-109069665D01*
X88225500Y-109318335D01*
X77492280Y-109318335D01*
X77485575Y-97249999D01*
X79885811Y-97249999D01*
X79904539Y-97487967D01*
X79960262Y-97720073D01*
X80051609Y-97940601D01*
X80176334Y-98144135D01*
X80237873Y-98216188D01*
X80331357Y-98325643D01*
X80403326Y-98387110D01*
X80498598Y-98468481D01*
X80512868Y-98480668D01*
X80716395Y-98605389D01*
X80734096Y-98612721D01*
X80936926Y-98696737D01*
X81010254Y-98714341D01*
X81169034Y-98752461D01*
X81407000Y-98771189D01*
X81644966Y-98752461D01*
X81877073Y-98696737D01*
X82097605Y-98605389D01*
X82301132Y-98480668D01*
X82482643Y-98325643D01*
X82582711Y-98208477D01*
X82625086Y-98176401D01*
X82677000Y-98165011D01*
X82728914Y-98176401D01*
X82771288Y-98208477D01*
X82871357Y-98325643D01*
X82943326Y-98387110D01*
X83038598Y-98468481D01*
X83052868Y-98480668D01*
X83256395Y-98605389D01*
X83274096Y-98612721D01*
X83476926Y-98696737D01*
X83550254Y-98714341D01*
X83709034Y-98752461D01*
X83947000Y-98771189D01*
X84184966Y-98752461D01*
X84338265Y-98715657D01*
X84400871Y-98716887D01*
X84454893Y-98748550D01*
X86689181Y-100982838D01*
X86716061Y-101023066D01*
X86725500Y-101070519D01*
X86725500Y-101893069D01*
X86708023Y-101956543D01*
X86660519Y-102002122D01*
X86626596Y-102020481D01*
X86602485Y-102033529D01*
X86406259Y-102186259D01*
X86406256Y-102186261D01*
X86406256Y-102186262D01*
X86237836Y-102369215D01*
X86193081Y-102437718D01*
X86101825Y-102577395D01*
X86024719Y-102753182D01*
X86001937Y-102805119D01*
X85960856Y-102967344D01*
X85940891Y-103046183D01*
X85925500Y-103231927D01*
X85925500Y-105556073D01*
X85940891Y-105741816D01*
X85940891Y-105741819D01*
X85940892Y-105741821D01*
X86001937Y-105982881D01*
X86040432Y-106070641D01*
X86101825Y-106210604D01*
X86101827Y-106210607D01*
X86237836Y-106418785D01*
X86406256Y-106601738D01*
X86454421Y-106639226D01*
X86602485Y-106754470D01*
X86602487Y-106754471D01*
X86602491Y-106754474D01*
X86821190Y-106872828D01*
X87056386Y-106953571D01*
X87301665Y-106994500D01*
X87550335Y-106994500D01*
X87795614Y-106953571D01*
X88030810Y-106872828D01*
X88249509Y-106754474D01*
X88445744Y-106601738D01*
X88614164Y-106418785D01*
X88750173Y-106210607D01*
X88850063Y-105982881D01*
X88911108Y-105741821D01*
X88922047Y-105609804D01*
X88926500Y-105556073D01*
X88926500Y-103231927D01*
X88912109Y-103058257D01*
X88911108Y-103046179D01*
X88850063Y-102805119D01*
X88750173Y-102577393D01*
X88614164Y-102369215D01*
X88445744Y-102186262D01*
X88379513Y-102134712D01*
X88249514Y-102033529D01*
X88249510Y-102033526D01*
X88249509Y-102033526D01*
X88191480Y-102002122D01*
X88143977Y-101956543D01*
X88126500Y-101893069D01*
X88126500Y-100753921D01*
X88126726Y-100746434D01*
X88127176Y-100738999D01*
X88130358Y-100686394D01*
X88119507Y-100627185D01*
X88118390Y-100619840D01*
X88111140Y-100560128D01*
X88107546Y-100550651D01*
X88101521Y-100529034D01*
X88099695Y-100519068D01*
X88075009Y-100464218D01*
X88072151Y-100457322D01*
X88050818Y-100401070D01*
X88045061Y-100392730D01*
X88034035Y-100373181D01*
X88033656Y-100372339D01*
X88029878Y-100363943D01*
X88029877Y-100363942D01*
X88029877Y-100363941D01*
X87992785Y-100316597D01*
X87988355Y-100310577D01*
X87954183Y-100261071D01*
X87909153Y-100221178D01*
X87903715Y-100216058D01*
X85445550Y-97757893D01*
X85413887Y-97703871D01*
X85412657Y-97641265D01*
X85414066Y-97635397D01*
X85449461Y-97487966D01*
X85468189Y-97250000D01*
X85468189Y-97249999D01*
X90553811Y-97249999D01*
X90572539Y-97487967D01*
X90628262Y-97720073D01*
X90719609Y-97940601D01*
X90844334Y-98144135D01*
X90905873Y-98216188D01*
X90999357Y-98325643D01*
X91071326Y-98387110D01*
X91166598Y-98468481D01*
X91180868Y-98480668D01*
X91384395Y-98605389D01*
X91402096Y-98612721D01*
X91604926Y-98696737D01*
X91678254Y-98714341D01*
X91837034Y-98752461D01*
X92075000Y-98771189D01*
X92312966Y-98752461D01*
X92545073Y-98696737D01*
X92765605Y-98605389D01*
X92969132Y-98480668D01*
X93150643Y-98325643D01*
X93250711Y-98208477D01*
X93293086Y-98176401D01*
X93345000Y-98165011D01*
X93396914Y-98176401D01*
X93439288Y-98208477D01*
X93539357Y-98325643D01*
X93720868Y-98480668D01*
X93777406Y-98515314D01*
X93855290Y-98563042D01*
X93898690Y-98608180D01*
X93914500Y-98668769D01*
X93914500Y-101469500D01*
X93897887Y-101531500D01*
X93852500Y-101576887D01*
X93790500Y-101593500D01*
X92678130Y-101593500D01*
X92618515Y-101599909D01*
X92483669Y-101650204D01*
X92368454Y-101736454D01*
X92282204Y-101851668D01*
X92240068Y-101964640D01*
X92231909Y-101986517D01*
X92226508Y-102036758D01*
X92225500Y-102046130D01*
X92225500Y-106741869D01*
X92231909Y-106801484D01*
X92257056Y-106868907D01*
X92282204Y-106936331D01*
X92368454Y-107051546D01*
X92483669Y-107137796D01*
X92618517Y-107188091D01*
X92678127Y-107194500D01*
X94773872Y-107194499D01*
X94833483Y-107188091D01*
X94968331Y-107137796D01*
X95083546Y-107051546D01*
X95169796Y-106936331D01*
X95220091Y-106801483D01*
X95226500Y-106741873D01*
X95226499Y-103890771D01*
X95234556Y-103846803D01*
X95239816Y-103832932D01*
X95239818Y-103832930D01*
X95261150Y-103776678D01*
X95263999Y-103769800D01*
X95288695Y-103714931D01*
X95290522Y-103704956D01*
X95296549Y-103683339D01*
X95300140Y-103673872D01*
X95307387Y-103614179D01*
X95308514Y-103606777D01*
X95310943Y-103593522D01*
X95319358Y-103547606D01*
X95315726Y-103487566D01*
X95315500Y-103480079D01*
X95315500Y-99839500D01*
X97581001Y-99839500D01*
X97581001Y-99976979D01*
X97591493Y-100079695D01*
X97646642Y-100246122D01*
X97738683Y-100395345D01*
X97862654Y-100519316D01*
X98011877Y-100611357D01*
X98178303Y-100666506D01*
X98281021Y-100677000D01*
X98556000Y-100677000D01*
X98556000Y-99839500D01*
X97581001Y-99839500D01*
X95315500Y-99839500D01*
X95315500Y-98668769D01*
X95331310Y-98608180D01*
X95374710Y-98563042D01*
X95432247Y-98527783D01*
X95509132Y-98480668D01*
X95690643Y-98325643D01*
X95845668Y-98144132D01*
X95970389Y-97940605D01*
X96061737Y-97720073D01*
X96117461Y-97487966D01*
X96136189Y-97250000D01*
X96117461Y-97012034D01*
X96069917Y-96814000D01*
X96061737Y-96779926D01*
X95990860Y-96608816D01*
X95970389Y-96559395D01*
X95845668Y-96355868D01*
X95845022Y-96355112D01*
X95761808Y-96257681D01*
X95690643Y-96174357D01*
X95576957Y-96077260D01*
X95509135Y-96019334D01*
X95509132Y-96019332D01*
X95305605Y-95894611D01*
X95305602Y-95894610D01*
X95305601Y-95894609D01*
X95085073Y-95803262D01*
X94852967Y-95747539D01*
X94615000Y-95728811D01*
X94377032Y-95747539D01*
X94144926Y-95803262D01*
X93924398Y-95894609D01*
X93720864Y-96019334D01*
X93539357Y-96174357D01*
X93439290Y-96291520D01*
X93396914Y-96323598D01*
X93345000Y-96334988D01*
X93293086Y-96323598D01*
X93250710Y-96291520D01*
X93221808Y-96257681D01*
X93150643Y-96174357D01*
X93036957Y-96077260D01*
X92969135Y-96019334D01*
X92969132Y-96019332D01*
X92765605Y-95894611D01*
X92765602Y-95894610D01*
X92765601Y-95894609D01*
X92545073Y-95803262D01*
X92312967Y-95747539D01*
X92075000Y-95728811D01*
X91837032Y-95747539D01*
X91604926Y-95803262D01*
X91384398Y-95894609D01*
X91180864Y-96019334D01*
X90999357Y-96174357D01*
X90844334Y-96355864D01*
X90719609Y-96559398D01*
X90628262Y-96779926D01*
X90572539Y-97012032D01*
X90553811Y-97249999D01*
X85468189Y-97249999D01*
X85449461Y-97012034D01*
X85401917Y-96814000D01*
X85393737Y-96779926D01*
X85322860Y-96608816D01*
X85302389Y-96559395D01*
X85177668Y-96355868D01*
X85177022Y-96355112D01*
X85093808Y-96257681D01*
X85022643Y-96174357D01*
X84908957Y-96077260D01*
X84841135Y-96019334D01*
X84841132Y-96019332D01*
X84637605Y-95894611D01*
X84637602Y-95894610D01*
X84637601Y-95894609D01*
X84417073Y-95803262D01*
X84184967Y-95747539D01*
X83947000Y-95728811D01*
X83709032Y-95747539D01*
X83476926Y-95803262D01*
X83256398Y-95894609D01*
X83052864Y-96019334D01*
X82871357Y-96174357D01*
X82771290Y-96291520D01*
X82728914Y-96323598D01*
X82677000Y-96334988D01*
X82625086Y-96323598D01*
X82582710Y-96291520D01*
X82553808Y-96257681D01*
X82482643Y-96174357D01*
X82368957Y-96077260D01*
X82301135Y-96019334D01*
X82301132Y-96019332D01*
X82097605Y-95894611D01*
X82097602Y-95894610D01*
X82097601Y-95894609D01*
X81877073Y-95803262D01*
X81644967Y-95747539D01*
X81407000Y-95728811D01*
X81169032Y-95747539D01*
X80936926Y-95803262D01*
X80716398Y-95894609D01*
X80512864Y-96019334D01*
X80331357Y-96174357D01*
X80176334Y-96355864D01*
X80051609Y-96559398D01*
X79960262Y-96779926D01*
X79904539Y-97012032D01*
X79885811Y-97249999D01*
X77485575Y-97249999D01*
X77475961Y-79944769D01*
X80523782Y-79944769D01*
X80716620Y-80062941D01*
X80937081Y-80154260D01*
X81169110Y-80209965D01*
X81407000Y-80228687D01*
X81644889Y-80209965D01*
X81876918Y-80154260D01*
X82097379Y-80062942D01*
X82290215Y-79944770D01*
X82290216Y-79944769D01*
X83063782Y-79944769D01*
X83256620Y-80062941D01*
X83477081Y-80154260D01*
X83709110Y-80209965D01*
X83947000Y-80228687D01*
X84184889Y-80209965D01*
X84416918Y-80154260D01*
X84637379Y-80062942D01*
X84830215Y-79944770D01*
X84830216Y-79944769D01*
X83947001Y-79061553D01*
X83947000Y-79061553D01*
X83063782Y-79944769D01*
X82290216Y-79944769D01*
X81407001Y-79061553D01*
X81407000Y-79061553D01*
X80523782Y-79944769D01*
X77475961Y-79944769D01*
X77475274Y-78707999D01*
X79886312Y-78707999D01*
X79905034Y-78945889D01*
X79960739Y-79177918D01*
X80052058Y-79398379D01*
X80170229Y-79591216D01*
X81053446Y-78708001D01*
X81053446Y-78708000D01*
X81053445Y-78707999D01*
X81760553Y-78707999D01*
X82643769Y-79591215D01*
X82662426Y-79589007D01*
X82691576Y-79589008D01*
X82710229Y-79591216D01*
X83593446Y-78708001D01*
X83593446Y-78708000D01*
X83593445Y-78707999D01*
X84300553Y-78707999D01*
X85183769Y-79591216D01*
X85183770Y-79591215D01*
X85301942Y-79398379D01*
X85393260Y-79177918D01*
X85448965Y-78945889D01*
X85467687Y-78707999D01*
X85448965Y-78470110D01*
X85393260Y-78238081D01*
X85301941Y-78017620D01*
X85183769Y-77824782D01*
X84300553Y-78707999D01*
X83593445Y-78707999D01*
X82710229Y-77824782D01*
X82691574Y-77826991D01*
X82662427Y-77826991D01*
X82643769Y-77824783D01*
X81760553Y-78707999D01*
X81053445Y-78707999D01*
X80170229Y-77824782D01*
X80052055Y-78017622D01*
X79960740Y-78238078D01*
X79905034Y-78470110D01*
X79886312Y-78707999D01*
X77475274Y-78707999D01*
X77474587Y-77471229D01*
X80523782Y-77471229D01*
X81406998Y-78354446D01*
X81406999Y-78354446D01*
X82290216Y-77471229D01*
X83063782Y-77471229D01*
X83946998Y-78354446D01*
X83946999Y-78354446D01*
X84830216Y-77471229D01*
X84637379Y-77353058D01*
X84416918Y-77261739D01*
X84184889Y-77206034D01*
X83947000Y-77187312D01*
X83709110Y-77206034D01*
X83477078Y-77261740D01*
X83256622Y-77353055D01*
X83063782Y-77471229D01*
X82290216Y-77471229D01*
X82097379Y-77353058D01*
X81876918Y-77261739D01*
X81644889Y-77206034D01*
X81407000Y-77187312D01*
X81169110Y-77206034D01*
X80937078Y-77261740D01*
X80716622Y-77353055D01*
X80523782Y-77471229D01*
X77474587Y-77471229D01*
X77470847Y-70738999D01*
X77986786Y-70738999D01*
X78006218Y-70948714D01*
X78063854Y-71151282D01*
X78157729Y-71339810D01*
X78284653Y-71507884D01*
X78440293Y-71649769D01*
X78440295Y-71649770D01*
X78440296Y-71649771D01*
X78619360Y-71760643D01*
X78815749Y-71836724D01*
X79022773Y-71875423D01*
X79233381Y-71875423D01*
X79233383Y-71875423D01*
X79440407Y-71836724D01*
X79636796Y-71760643D01*
X79815860Y-71649771D01*
X79971503Y-71507883D01*
X80098424Y-71339813D01*
X80098424Y-71339811D01*
X80098426Y-71339810D01*
X80192301Y-71151282D01*
X80249937Y-70948714D01*
X80252754Y-70918301D01*
X80269370Y-70739000D01*
X80249937Y-70529288D01*
X80249937Y-70529285D01*
X80192301Y-70326717D01*
X80098426Y-70138189D01*
X79971502Y-69970115D01*
X79815862Y-69828230D01*
X79636794Y-69717356D01*
X79440408Y-69641276D01*
X79371398Y-69628376D01*
X79233383Y-69602577D01*
X79022773Y-69602577D01*
X78919260Y-69621926D01*
X78815747Y-69641276D01*
X78619361Y-69717356D01*
X78440293Y-69828230D01*
X78284653Y-69970115D01*
X78157729Y-70138189D01*
X78063854Y-70326717D01*
X78006218Y-70529285D01*
X77986786Y-70738999D01*
X77470847Y-70738999D01*
X77470500Y-70114960D01*
X77470500Y-69339500D01*
X77487113Y-69277500D01*
X77532500Y-69232113D01*
X77594500Y-69215500D01*
X92186000Y-69215500D01*
X92248000Y-69232113D01*
G37*
%TD.AperFunction*%
%TA.AperFunction,Conductor*%
G36*
X125569000Y-107462613D02*
G01*
X125614387Y-107508000D01*
X125631000Y-107570000D01*
X125631000Y-108844620D01*
X125703930Y-108830986D01*
X125906987Y-108752322D01*
X126092131Y-108637685D01*
X126253052Y-108490987D01*
X126281730Y-108453011D01*
X126325413Y-108416737D01*
X126380685Y-108403736D01*
X126435957Y-108416735D01*
X126479640Y-108453009D01*
X126508573Y-108491323D01*
X126642411Y-108613331D01*
X126669568Y-108638088D01*
X126691727Y-108651808D01*
X126854791Y-108752773D01*
X127014888Y-108814795D01*
X127057931Y-108831470D01*
X127272074Y-108871500D01*
X127489924Y-108871500D01*
X127489926Y-108871500D01*
X127704069Y-108831470D01*
X127839496Y-108779004D01*
X127907208Y-108752773D01*
X127907210Y-108752772D01*
X128092432Y-108638088D01*
X128253427Y-108491322D01*
X128282045Y-108453424D01*
X128325728Y-108417150D01*
X128381000Y-108404150D01*
X128436272Y-108417150D01*
X128479955Y-108453425D01*
X128508572Y-108491322D01*
X128642411Y-108613331D01*
X128669568Y-108638088D01*
X128691727Y-108651808D01*
X128854791Y-108752773D01*
X129014888Y-108814795D01*
X129057931Y-108831470D01*
X129272074Y-108871500D01*
X129489924Y-108871500D01*
X129489926Y-108871500D01*
X129704069Y-108831470D01*
X129839496Y-108779004D01*
X129907208Y-108752773D01*
X129907210Y-108752772D01*
X130092432Y-108638088D01*
X130253427Y-108491322D01*
X130282045Y-108453424D01*
X130325728Y-108417150D01*
X130381000Y-108404150D01*
X130436272Y-108417150D01*
X130479955Y-108453425D01*
X130508572Y-108491322D01*
X130642411Y-108613331D01*
X130669568Y-108638088D01*
X130691727Y-108651808D01*
X130854791Y-108752773D01*
X131014888Y-108814795D01*
X131057931Y-108831470D01*
X131272074Y-108871500D01*
X131489924Y-108871500D01*
X131489926Y-108871500D01*
X131704069Y-108831470D01*
X131839496Y-108779004D01*
X131907208Y-108752773D01*
X131907210Y-108752772D01*
X132092432Y-108638088D01*
X132253427Y-108491322D01*
X132282045Y-108453424D01*
X132325728Y-108417150D01*
X132381000Y-108404150D01*
X132436272Y-108417150D01*
X132479955Y-108453425D01*
X132508572Y-108491322D01*
X132641038Y-108612080D01*
X132670934Y-108653631D01*
X132681500Y-108703717D01*
X132681500Y-109991195D01*
X132670934Y-110041281D01*
X132641038Y-110082832D01*
X132509573Y-110202677D01*
X132480954Y-110240575D01*
X132437271Y-110276848D01*
X132382000Y-110289848D01*
X132326729Y-110276848D01*
X132283046Y-110240575D01*
X132254426Y-110202677D01*
X132093432Y-110055912D01*
X131908208Y-109941226D01*
X131705073Y-109862531D01*
X131705070Y-109862530D01*
X131705069Y-109862530D01*
X131490926Y-109822500D01*
X131273074Y-109822500D01*
X131058931Y-109862530D01*
X131058926Y-109862531D01*
X130855791Y-109941226D01*
X130670567Y-110055912D01*
X130509573Y-110202677D01*
X130480954Y-110240575D01*
X130437271Y-110276848D01*
X130382000Y-110289848D01*
X130326729Y-110276848D01*
X130283046Y-110240575D01*
X130254426Y-110202677D01*
X130093432Y-110055912D01*
X129908208Y-109941226D01*
X129705073Y-109862531D01*
X129705070Y-109862530D01*
X129705069Y-109862530D01*
X129490926Y-109822500D01*
X129273074Y-109822500D01*
X129058931Y-109862530D01*
X129058926Y-109862531D01*
X128855791Y-109941226D01*
X128670567Y-110055912D01*
X128509573Y-110202677D01*
X128480954Y-110240575D01*
X128437271Y-110276848D01*
X128382000Y-110289848D01*
X128326729Y-110276848D01*
X128283046Y-110240575D01*
X128254426Y-110202677D01*
X128093432Y-110055912D01*
X127908208Y-109941226D01*
X127705073Y-109862531D01*
X127705070Y-109862530D01*
X127705069Y-109862530D01*
X127490926Y-109822500D01*
X127273074Y-109822500D01*
X127058931Y-109862530D01*
X127058926Y-109862531D01*
X126855791Y-109941226D01*
X126670567Y-110055912D01*
X126509572Y-110202678D01*
X126480639Y-110240991D01*
X126436956Y-110277264D01*
X126381685Y-110290263D01*
X126326413Y-110277263D01*
X126282731Y-110240989D01*
X126254054Y-110203013D01*
X126093131Y-110056314D01*
X125907987Y-109941677D01*
X125704930Y-109863013D01*
X125632000Y-109849380D01*
X125632000Y-111124000D01*
X125615387Y-111186000D01*
X125570000Y-111231387D01*
X125508000Y-111248000D01*
X125256000Y-111248000D01*
X125194000Y-111231387D01*
X125148613Y-111186000D01*
X125132000Y-111124000D01*
X125132000Y-109849380D01*
X125059069Y-109863013D01*
X124856012Y-109941677D01*
X124670868Y-110056314D01*
X124509944Y-110203015D01*
X124481267Y-110240990D01*
X124437584Y-110277263D01*
X124382313Y-110290263D01*
X124327041Y-110277263D01*
X124283359Y-110240990D01*
X124254426Y-110202676D01*
X124122962Y-110082832D01*
X124093066Y-110041281D01*
X124082500Y-109991195D01*
X124082500Y-108701894D01*
X124093066Y-108651808D01*
X124122962Y-108610257D01*
X124187021Y-108551858D01*
X124253427Y-108491322D01*
X124282360Y-108453008D01*
X124326041Y-108416736D01*
X124381313Y-108403736D01*
X124436585Y-108416736D01*
X124480268Y-108453010D01*
X124508945Y-108490986D01*
X124669868Y-108637685D01*
X124855012Y-108752322D01*
X125058069Y-108830986D01*
X125131000Y-108844620D01*
X125131000Y-107570000D01*
X125147613Y-107508000D01*
X125193000Y-107462613D01*
X125255000Y-107446000D01*
X125507000Y-107446000D01*
X125569000Y-107462613D01*
G37*
%TD.AperFunction*%
%TA.AperFunction,Conductor*%
G36*
X123730703Y-77729631D02*
G01*
X123786692Y-77769627D01*
X123812740Y-77833313D01*
X123816402Y-77867377D01*
X123828925Y-77900952D01*
X123836743Y-77944285D01*
X123828925Y-77987617D01*
X123815909Y-78022513D01*
X123815909Y-78022517D01*
X123811047Y-78067744D01*
X123809500Y-78082130D01*
X123809500Y-79077869D01*
X123815909Y-79137485D01*
X123828658Y-79171667D01*
X123836476Y-79214999D01*
X123828659Y-79258330D01*
X123815909Y-79292515D01*
X123815908Y-79292517D01*
X123815909Y-79292517D01*
X123810733Y-79340665D01*
X123809500Y-79352130D01*
X123809500Y-80347869D01*
X123815909Y-80407485D01*
X123828658Y-80441667D01*
X123836476Y-80484999D01*
X123828659Y-80528330D01*
X123815909Y-80562515D01*
X123813838Y-80581776D01*
X123811108Y-80607177D01*
X123809500Y-80622130D01*
X123809500Y-81617869D01*
X123815909Y-81677485D01*
X123828658Y-81711666D01*
X123836476Y-81754997D01*
X123828659Y-81798328D01*
X123815909Y-81832513D01*
X123809500Y-81892130D01*
X123809500Y-82887869D01*
X123815909Y-82947485D01*
X123828658Y-82981667D01*
X123836476Y-83024999D01*
X123828659Y-83068330D01*
X123815909Y-83102515D01*
X123809500Y-83162130D01*
X123809500Y-84157869D01*
X123815909Y-84217485D01*
X123828658Y-84251667D01*
X123836476Y-84294999D01*
X123828659Y-84338330D01*
X123815909Y-84372515D01*
X123809500Y-84432130D01*
X123809500Y-85427869D01*
X123815909Y-85487485D01*
X123828658Y-85521666D01*
X123836476Y-85564997D01*
X123828659Y-85608328D01*
X123815909Y-85642513D01*
X123809500Y-85702130D01*
X123809500Y-86697869D01*
X123815909Y-86757485D01*
X123828658Y-86791666D01*
X123836476Y-86834997D01*
X123828659Y-86878328D01*
X123815909Y-86912513D01*
X123809500Y-86972130D01*
X123809500Y-87967869D01*
X123815909Y-88027485D01*
X123828658Y-88061667D01*
X123836476Y-88104999D01*
X123828659Y-88148330D01*
X123815909Y-88182515D01*
X123809500Y-88242130D01*
X123809500Y-89237869D01*
X123815909Y-89297485D01*
X123828658Y-89331667D01*
X123836476Y-89374999D01*
X123828659Y-89418330D01*
X123815909Y-89452515D01*
X123809500Y-89512130D01*
X123809500Y-90507869D01*
X123815909Y-90567485D01*
X123828658Y-90601666D01*
X123836476Y-90644997D01*
X123828659Y-90688328D01*
X123815909Y-90722513D01*
X123809500Y-90782130D01*
X123809500Y-91777869D01*
X123815909Y-91837485D01*
X123828658Y-91871666D01*
X123836476Y-91914997D01*
X123828659Y-91958328D01*
X123815909Y-91992513D01*
X123815909Y-91992516D01*
X123815909Y-91992517D01*
X123809928Y-92048151D01*
X123809500Y-92052130D01*
X123809500Y-93047869D01*
X123815909Y-93107485D01*
X123828658Y-93141667D01*
X123836476Y-93184999D01*
X123828659Y-93228330D01*
X123815909Y-93262515D01*
X123815908Y-93262517D01*
X123815909Y-93262517D01*
X123809568Y-93321501D01*
X123809500Y-93322130D01*
X123809500Y-94317869D01*
X123815909Y-94377484D01*
X123822928Y-94396303D01*
X123866204Y-94512331D01*
X123952454Y-94627546D01*
X124067669Y-94713796D01*
X124202517Y-94764091D01*
X124262127Y-94770500D01*
X125494480Y-94770499D01*
X125541933Y-94779938D01*
X125582161Y-94806818D01*
X126641181Y-95865838D01*
X126668061Y-95906066D01*
X126677500Y-95953519D01*
X126677500Y-96512008D01*
X126688000Y-96614796D01*
X126743186Y-96781334D01*
X126835288Y-96930657D01*
X126969592Y-97064961D01*
X126967588Y-97066964D01*
X126994014Y-97094574D01*
X127009733Y-97155000D01*
X126994014Y-97215426D01*
X126967588Y-97243035D01*
X126969592Y-97245039D01*
X126835288Y-97379342D01*
X126743186Y-97528665D01*
X126735961Y-97550468D01*
X126697799Y-97606585D01*
X126635813Y-97634211D01*
X126568567Y-97625069D01*
X126516206Y-97581900D01*
X126512183Y-97576071D01*
X126467153Y-97536178D01*
X126461715Y-97531058D01*
X123522940Y-94592283D01*
X123517822Y-94586847D01*
X123477929Y-94541817D01*
X123428432Y-94507651D01*
X123422405Y-94503216D01*
X123375054Y-94466120D01*
X123365813Y-94461961D01*
X123346273Y-94450941D01*
X123337930Y-94445182D01*
X123337927Y-94445181D01*
X123337926Y-94445180D01*
X123281701Y-94423856D01*
X123274783Y-94420991D01*
X123219929Y-94396303D01*
X123209952Y-94394475D01*
X123188339Y-94388450D01*
X123178873Y-94384860D01*
X123119172Y-94377610D01*
X123111769Y-94376483D01*
X123080349Y-94370725D01*
X123031794Y-94350482D01*
X122996001Y-94311931D01*
X122979411Y-94262009D01*
X122978957Y-94257784D01*
X122974091Y-94212517D01*
X122923796Y-94077669D01*
X122837546Y-93962454D01*
X122722331Y-93876204D01*
X122587483Y-93825909D01*
X122527873Y-93819500D01*
X122527869Y-93819500D01*
X121532130Y-93819500D01*
X121472516Y-93825909D01*
X121438331Y-93838659D01*
X121395000Y-93846476D01*
X121351668Y-93838658D01*
X121317486Y-93825909D01*
X121291935Y-93823162D01*
X121257873Y-93819500D01*
X121257869Y-93819500D01*
X120262130Y-93819500D01*
X120202516Y-93825909D01*
X120168331Y-93838659D01*
X120125000Y-93846476D01*
X120081668Y-93838658D01*
X120047486Y-93825909D01*
X120021935Y-93823162D01*
X119987873Y-93819500D01*
X119987869Y-93819500D01*
X118992130Y-93819500D01*
X118932516Y-93825909D01*
X118898331Y-93838659D01*
X118855000Y-93846476D01*
X118811668Y-93838658D01*
X118777486Y-93825909D01*
X118751935Y-93823162D01*
X118717873Y-93819500D01*
X118717869Y-93819500D01*
X117722130Y-93819500D01*
X117662516Y-93825909D01*
X117628331Y-93838659D01*
X117585000Y-93846476D01*
X117541668Y-93838658D01*
X117507486Y-93825909D01*
X117481935Y-93823162D01*
X117447873Y-93819500D01*
X117447869Y-93819500D01*
X116452130Y-93819500D01*
X116392516Y-93825909D01*
X116358331Y-93838659D01*
X116315000Y-93846476D01*
X116271668Y-93838658D01*
X116237486Y-93825909D01*
X116211935Y-93823162D01*
X116177873Y-93819500D01*
X116177869Y-93819500D01*
X115182130Y-93819500D01*
X115122516Y-93825909D01*
X115088331Y-93838659D01*
X115045000Y-93846476D01*
X115001668Y-93838658D01*
X114967486Y-93825909D01*
X114941935Y-93823162D01*
X114907873Y-93819500D01*
X114907869Y-93819500D01*
X113912130Y-93819500D01*
X113852516Y-93825909D01*
X113818331Y-93838659D01*
X113775000Y-93846476D01*
X113731668Y-93838658D01*
X113697486Y-93825909D01*
X113671935Y-93823162D01*
X113637873Y-93819500D01*
X113637869Y-93819500D01*
X112642130Y-93819500D01*
X112582516Y-93825909D01*
X112548331Y-93838659D01*
X112505000Y-93846476D01*
X112461668Y-93838658D01*
X112427486Y-93825909D01*
X112401935Y-93823162D01*
X112367873Y-93819500D01*
X112367869Y-93819500D01*
X111372130Y-93819500D01*
X111312514Y-93825909D01*
X111277617Y-93838925D01*
X111234284Y-93846743D01*
X111190952Y-93838925D01*
X111157377Y-93826402D01*
X111097824Y-93820000D01*
X110850000Y-93820000D01*
X110850000Y-96320000D01*
X110914181Y-96320000D01*
X110976181Y-96336613D01*
X111021568Y-96382000D01*
X111038181Y-96444000D01*
X111021568Y-96506000D01*
X110932820Y-96659715D01*
X110874326Y-96839742D01*
X110854540Y-97028000D01*
X110874326Y-97216257D01*
X110932820Y-97396284D01*
X111027466Y-97560216D01*
X111154129Y-97700889D01*
X111307269Y-97812151D01*
X111480197Y-97889144D01*
X111665352Y-97928500D01*
X111665354Y-97928500D01*
X111854646Y-97928500D01*
X111854648Y-97928500D01*
X111979282Y-97902008D01*
X112039803Y-97889144D01*
X112212730Y-97812151D01*
X112344975Y-97716070D01*
X112365870Y-97700889D01*
X112424840Y-97635397D01*
X112492533Y-97560216D01*
X112587179Y-97396284D01*
X112645674Y-97216256D01*
X112665460Y-97028000D01*
X112645674Y-96839744D01*
X112602979Y-96708342D01*
X112587179Y-96659715D01*
X112587113Y-96659601D01*
X112586976Y-96659092D01*
X112583152Y-96647321D01*
X112583768Y-96647120D01*
X112570500Y-96597601D01*
X112570500Y-96444500D01*
X112587113Y-96382500D01*
X112632500Y-96337113D01*
X112694500Y-96320500D01*
X113637814Y-96320499D01*
X113637872Y-96320499D01*
X113697483Y-96314091D01*
X113731664Y-96301341D01*
X113774998Y-96293523D01*
X113818332Y-96301341D01*
X113852517Y-96314091D01*
X113912127Y-96320500D01*
X114907872Y-96320499D01*
X114967483Y-96314091D01*
X115001664Y-96301341D01*
X115044998Y-96293523D01*
X115088332Y-96301341D01*
X115122517Y-96314091D01*
X115182127Y-96320500D01*
X116177872Y-96320499D01*
X116237483Y-96314091D01*
X116271664Y-96301341D01*
X116314998Y-96293523D01*
X116358332Y-96301341D01*
X116392517Y-96314091D01*
X116452127Y-96320500D01*
X117447872Y-96320499D01*
X117507483Y-96314091D01*
X117541664Y-96301341D01*
X117584998Y-96293523D01*
X117628332Y-96301341D01*
X117662517Y-96314091D01*
X117722127Y-96320500D01*
X118717872Y-96320499D01*
X118777483Y-96314091D01*
X118811664Y-96301341D01*
X118854998Y-96293523D01*
X118898332Y-96301341D01*
X118932517Y-96314091D01*
X118992127Y-96320500D01*
X119935500Y-96320499D01*
X119997500Y-96337112D01*
X120042887Y-96382499D01*
X120059500Y-96444499D01*
X120059500Y-96585785D01*
X120050061Y-96633238D01*
X120023180Y-96673467D01*
X119918280Y-96778365D01*
X119912829Y-96783496D01*
X119867816Y-96823375D01*
X119833649Y-96872873D01*
X119829213Y-96878902D01*
X119792121Y-96926247D01*
X119787961Y-96935491D01*
X119776941Y-96955030D01*
X119771182Y-96963374D01*
X119749853Y-97019610D01*
X119746989Y-97026524D01*
X119722303Y-97081375D01*
X119720475Y-97091352D01*
X119714454Y-97112953D01*
X119710859Y-97122433D01*
X119703609Y-97182132D01*
X119702483Y-97189531D01*
X119691641Y-97248696D01*
X119695274Y-97308739D01*
X119695500Y-97316226D01*
X119695500Y-103675075D01*
X119681985Y-103731370D01*
X119644385Y-103775393D01*
X119590898Y-103797548D01*
X119533182Y-103793006D01*
X119483819Y-103762756D01*
X118592819Y-102871756D01*
X118565939Y-102831528D01*
X118556500Y-102784075D01*
X118556500Y-99675392D01*
X118564736Y-99630955D01*
X118588350Y-99592420D01*
X118588533Y-99592216D01*
X118683179Y-99428284D01*
X118691882Y-99401500D01*
X118741674Y-99248256D01*
X118761460Y-99060000D01*
X118741674Y-98871744D01*
X118685691Y-98699446D01*
X118683179Y-98691715D01*
X118588533Y-98527783D01*
X118461870Y-98387110D01*
X118308730Y-98275848D01*
X118135802Y-98198855D01*
X117950648Y-98159500D01*
X117950646Y-98159500D01*
X117761354Y-98159500D01*
X117761352Y-98159500D01*
X117576197Y-98198855D01*
X117403269Y-98275848D01*
X117250129Y-98387110D01*
X117123466Y-98527783D01*
X117028820Y-98691715D01*
X116970326Y-98871742D01*
X116950540Y-99059999D01*
X116970326Y-99248257D01*
X117028820Y-99428284D01*
X117123466Y-99592216D01*
X117123650Y-99592420D01*
X117147264Y-99630955D01*
X117155500Y-99675392D01*
X117155500Y-103100673D01*
X117155274Y-103108160D01*
X117151641Y-103168201D01*
X117162483Y-103227365D01*
X117163610Y-103234766D01*
X117170860Y-103294467D01*
X117174450Y-103303933D01*
X117180475Y-103325546D01*
X117182303Y-103335523D01*
X117206991Y-103390377D01*
X117209856Y-103397295D01*
X117231180Y-103453520D01*
X117231182Y-103453524D01*
X117236941Y-103461867D01*
X117247961Y-103481407D01*
X117252120Y-103490648D01*
X117289216Y-103537999D01*
X117293651Y-103544026D01*
X117327817Y-103593523D01*
X117372847Y-103633416D01*
X117378283Y-103638534D01*
X121913464Y-108173715D01*
X121918584Y-108179153D01*
X121958477Y-108224183D01*
X122007983Y-108258354D01*
X122014002Y-108262785D01*
X122057584Y-108296928D01*
X122061349Y-108299878D01*
X122070596Y-108304039D01*
X122090132Y-108315058D01*
X122098476Y-108320818D01*
X122154740Y-108342155D01*
X122161601Y-108344997D01*
X122216474Y-108369694D01*
X122226442Y-108371520D01*
X122248058Y-108377546D01*
X122257534Y-108381140D01*
X122317262Y-108388392D01*
X122324607Y-108389509D01*
X122383800Y-108400357D01*
X122383801Y-108400356D01*
X122398611Y-108403071D01*
X122398037Y-108406197D01*
X122430425Y-108412275D01*
X122477497Y-108450172D01*
X122508320Y-108490987D01*
X122508574Y-108491323D01*
X122641038Y-108612080D01*
X122670935Y-108653631D01*
X122681500Y-108703717D01*
X122681500Y-109991195D01*
X122670934Y-110041281D01*
X122641038Y-110082832D01*
X122509573Y-110202676D01*
X122378287Y-110376528D01*
X122281181Y-110571542D01*
X122221564Y-110781074D01*
X122201464Y-110998000D01*
X122201723Y-111000798D01*
X122200418Y-111009284D01*
X122200404Y-111009441D01*
X122200394Y-111009440D01*
X122192589Y-111060219D01*
X122156580Y-111108360D01*
X122102159Y-111133905D01*
X122042117Y-111130851D01*
X121990570Y-111099913D01*
X109446819Y-98556162D01*
X109419939Y-98515934D01*
X109410500Y-98468481D01*
X109410500Y-95953539D01*
X109426024Y-95893465D01*
X109468707Y-95848433D01*
X109527864Y-95829717D01*
X109588683Y-95842003D01*
X109635935Y-95882216D01*
X109647871Y-95913933D01*
X109650959Y-95912782D01*
X109706647Y-96062089D01*
X109792811Y-96177188D01*
X109907910Y-96263352D01*
X110042624Y-96313597D01*
X110102176Y-96320000D01*
X110350000Y-96320000D01*
X110350000Y-93820000D01*
X110102176Y-93820000D01*
X110042624Y-93826402D01*
X109907910Y-93876647D01*
X109792811Y-93962811D01*
X109706647Y-94077910D01*
X109650959Y-94227218D01*
X109647871Y-94226066D01*
X109635935Y-94257784D01*
X109588683Y-94297997D01*
X109527864Y-94310283D01*
X109468707Y-94291567D01*
X109426024Y-94246535D01*
X109410500Y-94186461D01*
X109410500Y-92464944D01*
X109402080Y-92430786D01*
X109399380Y-92416053D01*
X109395140Y-92381128D01*
X109382665Y-92348233D01*
X109378210Y-92333937D01*
X109369790Y-92299776D01*
X109369790Y-92299775D01*
X109353433Y-92268610D01*
X109347297Y-92254975D01*
X109334818Y-92222070D01*
X109323725Y-92206000D01*
X109314830Y-92193113D01*
X109307082Y-92180297D01*
X109290734Y-92149148D01*
X109267394Y-92122802D01*
X109258178Y-92111038D01*
X109238183Y-92082071D01*
X109238181Y-92082068D01*
X109211847Y-92058739D01*
X109201263Y-92048156D01*
X109177929Y-92021817D01*
X109177925Y-92021814D01*
X109148965Y-92001823D01*
X109137180Y-91992590D01*
X109110851Y-91969265D01*
X109079705Y-91952918D01*
X109066891Y-91945172D01*
X109037929Y-91925181D01*
X109005026Y-91912702D01*
X108991377Y-91906559D01*
X108960227Y-91890211D01*
X108960226Y-91890210D01*
X108960225Y-91890210D01*
X108926048Y-91881785D01*
X108911770Y-91877336D01*
X108890528Y-91869280D01*
X108848601Y-91842767D01*
X108820422Y-91801942D01*
X108810499Y-91753342D01*
X108810499Y-90782128D01*
X108804091Y-90722517D01*
X108791340Y-90688331D01*
X108783523Y-90644999D01*
X108791342Y-90601665D01*
X108804090Y-90567485D01*
X108804089Y-90567485D01*
X108804091Y-90567483D01*
X108810500Y-90507873D01*
X108810499Y-89512128D01*
X108804091Y-89452517D01*
X108791340Y-89418330D01*
X108783523Y-89375000D01*
X108791342Y-89331665D01*
X108794223Y-89323939D01*
X108804091Y-89297483D01*
X108810500Y-89237873D01*
X108810499Y-88242128D01*
X108804091Y-88182517D01*
X108791340Y-88148330D01*
X108783523Y-88105000D01*
X108791342Y-88061665D01*
X108794223Y-88053939D01*
X108804091Y-88027483D01*
X108810500Y-87967873D01*
X108810499Y-86972128D01*
X108804091Y-86912517D01*
X108791340Y-86878331D01*
X108783523Y-86834999D01*
X108791342Y-86791665D01*
X108804090Y-86757485D01*
X108804089Y-86757485D01*
X108804091Y-86757483D01*
X108810500Y-86697873D01*
X108810499Y-85702128D01*
X108804091Y-85642517D01*
X108791340Y-85608331D01*
X108783523Y-85565000D01*
X108791342Y-85521665D01*
X108804090Y-85487485D01*
X108804089Y-85487485D01*
X108804091Y-85487483D01*
X108810500Y-85427873D01*
X108810499Y-84900000D01*
X113030000Y-84900000D01*
X113030000Y-86797824D01*
X113036402Y-86857375D01*
X113086647Y-86992089D01*
X113172811Y-87107188D01*
X113287910Y-87193352D01*
X113422624Y-87243597D01*
X113482176Y-87250000D01*
X115380000Y-87250000D01*
X115880000Y-87250000D01*
X117777824Y-87250000D01*
X117837375Y-87243597D01*
X117972089Y-87193352D01*
X118087188Y-87107188D01*
X118173352Y-86992089D01*
X118223597Y-86857375D01*
X118230000Y-86797824D01*
X118230000Y-84900000D01*
X117405000Y-84900000D01*
X117405000Y-85308947D01*
X117420872Y-85324819D01*
X117452966Y-85380406D01*
X117452966Y-85444594D01*
X117420872Y-85500181D01*
X117405000Y-85516052D01*
X117405000Y-86301000D01*
X117388387Y-86363000D01*
X117343000Y-86408387D01*
X117281000Y-86425000D01*
X116496052Y-86425000D01*
X116480181Y-86440872D01*
X116424594Y-86472966D01*
X116360406Y-86472966D01*
X116304819Y-86440872D01*
X116288947Y-86425000D01*
X115880000Y-86425000D01*
X115880000Y-87250000D01*
X115380000Y-87250000D01*
X115380000Y-86425000D01*
X114971052Y-86425000D01*
X114955181Y-86440872D01*
X114899594Y-86472966D01*
X114835406Y-86472966D01*
X114779819Y-86440872D01*
X114763947Y-86425000D01*
X113979000Y-86425000D01*
X113917000Y-86408387D01*
X113871613Y-86363000D01*
X113855000Y-86301000D01*
X113855000Y-85516054D01*
X113854999Y-85516052D01*
X113839128Y-85500181D01*
X113807034Y-85444594D01*
X113807034Y-85412500D01*
X114458553Y-85412500D01*
X114867500Y-85821447D01*
X115276447Y-85412500D01*
X115983553Y-85412500D01*
X116392500Y-85821447D01*
X116801447Y-85412500D01*
X116392500Y-85003553D01*
X115983553Y-85412500D01*
X115276447Y-85412500D01*
X114867500Y-85003553D01*
X114458553Y-85412500D01*
X113807034Y-85412500D01*
X113807034Y-85380406D01*
X113839128Y-85324819D01*
X113854999Y-85308947D01*
X113855000Y-85308947D01*
X113855000Y-84900000D01*
X113030000Y-84900000D01*
X108810499Y-84900000D01*
X108810499Y-84432128D01*
X108807045Y-84400000D01*
X113030000Y-84400000D01*
X113855000Y-84400000D01*
X113855000Y-83991054D01*
X113854999Y-83991052D01*
X113839128Y-83975181D01*
X113807034Y-83919594D01*
X113807034Y-83887500D01*
X114458553Y-83887500D01*
X114867500Y-84296447D01*
X115276447Y-83887500D01*
X115983553Y-83887500D01*
X116392500Y-84296447D01*
X116801447Y-83887500D01*
X116392500Y-83478553D01*
X115983553Y-83887500D01*
X115276447Y-83887500D01*
X114867500Y-83478553D01*
X114458553Y-83887500D01*
X113807034Y-83887500D01*
X113807034Y-83855406D01*
X113839128Y-83799819D01*
X113854999Y-83783947D01*
X113855000Y-83783947D01*
X113855000Y-82999000D01*
X113871613Y-82937000D01*
X113917000Y-82891613D01*
X113979000Y-82875000D01*
X114763947Y-82875000D01*
X114763947Y-82874999D01*
X114779819Y-82859128D01*
X114835406Y-82827034D01*
X114899594Y-82827034D01*
X114955181Y-82859128D01*
X114971053Y-82875000D01*
X115380000Y-82875000D01*
X115380000Y-82050000D01*
X115880000Y-82050000D01*
X115880000Y-82875000D01*
X116288947Y-82875000D01*
X116288947Y-82874999D01*
X116304819Y-82859128D01*
X116360406Y-82827034D01*
X116424594Y-82827034D01*
X116480181Y-82859128D01*
X116496053Y-82875000D01*
X117281000Y-82875000D01*
X117343000Y-82891613D01*
X117388387Y-82937000D01*
X117405000Y-82999000D01*
X117405000Y-83783947D01*
X117420872Y-83799819D01*
X117452966Y-83855406D01*
X117452966Y-83919594D01*
X117420872Y-83975181D01*
X117405000Y-83991052D01*
X117405000Y-84400000D01*
X118230000Y-84400000D01*
X118230000Y-82502176D01*
X118223597Y-82442624D01*
X118173352Y-82307910D01*
X118087188Y-82192811D01*
X117972089Y-82106647D01*
X117837375Y-82056402D01*
X117777824Y-82050000D01*
X115880000Y-82050000D01*
X115380000Y-82050000D01*
X113482176Y-82050000D01*
X113422624Y-82056402D01*
X113287910Y-82106647D01*
X113172811Y-82192811D01*
X113086647Y-82307910D01*
X113036402Y-82442624D01*
X113030000Y-82502176D01*
X113030000Y-84400000D01*
X108807045Y-84400000D01*
X108804091Y-84372517D01*
X108791340Y-84338330D01*
X108783523Y-84295000D01*
X108791342Y-84251665D01*
X108804090Y-84217485D01*
X108804089Y-84217485D01*
X108804091Y-84217483D01*
X108810500Y-84157873D01*
X108810499Y-83162128D01*
X108804091Y-83102517D01*
X108791340Y-83068330D01*
X108783523Y-83025000D01*
X108791342Y-82981665D01*
X108804090Y-82947485D01*
X108804089Y-82947485D01*
X108804091Y-82947483D01*
X108810500Y-82887873D01*
X108810499Y-81892128D01*
X108804091Y-81832517D01*
X108791340Y-81798331D01*
X108783523Y-81754999D01*
X108791342Y-81711665D01*
X108804090Y-81677485D01*
X108804089Y-81677485D01*
X108804091Y-81677483D01*
X108810500Y-81617873D01*
X108810499Y-80622128D01*
X108804091Y-80562517D01*
X108791340Y-80528330D01*
X108783523Y-80484999D01*
X108791342Y-80441665D01*
X108804090Y-80407485D01*
X108804089Y-80407485D01*
X108804091Y-80407483D01*
X108810500Y-80347873D01*
X108810499Y-79404499D01*
X108827112Y-79342500D01*
X108872499Y-79297113D01*
X108934499Y-79280500D01*
X116721079Y-79280500D01*
X116728566Y-79280726D01*
X116732113Y-79280940D01*
X116788606Y-79284358D01*
X116817651Y-79279035D01*
X116862352Y-79279035D01*
X116891394Y-79284357D01*
X116951422Y-79280726D01*
X116958910Y-79280500D01*
X118670157Y-79280500D01*
X118720593Y-79291221D01*
X118846197Y-79347144D01*
X119031352Y-79386500D01*
X119031354Y-79386500D01*
X119220646Y-79386500D01*
X119220648Y-79386500D01*
X119344083Y-79360262D01*
X119405803Y-79347144D01*
X119528496Y-79292517D01*
X119531407Y-79291221D01*
X119581843Y-79280500D01*
X121765079Y-79280500D01*
X121772566Y-79280726D01*
X121775706Y-79280915D01*
X121832606Y-79284358D01*
X121891782Y-79273513D01*
X121899181Y-79272387D01*
X121958872Y-79265140D01*
X121968335Y-79261550D01*
X121989958Y-79255522D01*
X121999932Y-79253695D01*
X122054808Y-79228996D01*
X122061673Y-79226152D01*
X122117930Y-79204818D01*
X122126270Y-79199060D01*
X122145819Y-79188035D01*
X122155057Y-79183878D01*
X122202413Y-79146775D01*
X122208420Y-79142355D01*
X122257929Y-79108183D01*
X122297823Y-79063150D01*
X122302924Y-79057731D01*
X123601770Y-77758886D01*
X123662012Y-77725642D01*
X123730703Y-77729631D01*
G37*
%TD.AperFunction*%
%TA.AperFunction,Conductor*%
G36*
X102869500Y-96463112D02*
G01*
X102914887Y-96508499D01*
X102931500Y-96570499D01*
X102931500Y-106591079D01*
X102931274Y-106598566D01*
X102927641Y-106658607D01*
X102938483Y-106717771D01*
X102939610Y-106725172D01*
X102946860Y-106784873D01*
X102950450Y-106794339D01*
X102956475Y-106815952D01*
X102958303Y-106825929D01*
X102982991Y-106880783D01*
X102985856Y-106887701D01*
X103005308Y-106938990D01*
X103007182Y-106943930D01*
X103012941Y-106952273D01*
X103023961Y-106971813D01*
X103028120Y-106981054D01*
X103028121Y-106981055D01*
X103028122Y-106981057D01*
X103033443Y-106987849D01*
X103065216Y-107028405D01*
X103069654Y-107034436D01*
X103093934Y-107069612D01*
X103103817Y-107083929D01*
X103148847Y-107123822D01*
X103154283Y-107128940D01*
X105444318Y-109418975D01*
X105475503Y-109471346D01*
X105477967Y-109532250D01*
X105451113Y-109586969D01*
X105401431Y-109622282D01*
X105233791Y-109687226D01*
X105048567Y-109801912D01*
X104887573Y-109948677D01*
X104858954Y-109986575D01*
X104815271Y-110022848D01*
X104760000Y-110035848D01*
X104704729Y-110022848D01*
X104661046Y-109986575D01*
X104632426Y-109948677D01*
X104471432Y-109801912D01*
X104286208Y-109687226D01*
X104083073Y-109608531D01*
X104083070Y-109608530D01*
X104083069Y-109608530D01*
X103868926Y-109568500D01*
X103651074Y-109568500D01*
X103436931Y-109608530D01*
X103436926Y-109608531D01*
X103233791Y-109687226D01*
X103048567Y-109801912D01*
X102887572Y-109948678D01*
X102858639Y-109986991D01*
X102814956Y-110023264D01*
X102759685Y-110036263D01*
X102704413Y-110023263D01*
X102660731Y-109986989D01*
X102632054Y-109949013D01*
X102471131Y-109802314D01*
X102285987Y-109687677D01*
X102082930Y-109609013D01*
X102010000Y-109595380D01*
X102010000Y-110870000D01*
X101993387Y-110932000D01*
X101948000Y-110977387D01*
X101886000Y-110994000D01*
X101634000Y-110994000D01*
X101572000Y-110977387D01*
X101526613Y-110932000D01*
X101510000Y-110870000D01*
X101510000Y-109595380D01*
X101437069Y-109609013D01*
X101234012Y-109687677D01*
X101048868Y-109802314D01*
X100887943Y-109949016D01*
X100859265Y-109986991D01*
X100815580Y-110023265D01*
X100760307Y-110036263D01*
X100705034Y-110023260D01*
X100661353Y-109986983D01*
X100656541Y-109980610D01*
X100637927Y-109945292D01*
X100631500Y-109905890D01*
X100631500Y-100773452D01*
X100650278Y-100707844D01*
X100700925Y-100662107D01*
X100768102Y-100650094D01*
X100821021Y-100655500D01*
X101096000Y-100655500D01*
X101096000Y-99818000D01*
X101596000Y-99818000D01*
X101596000Y-100655499D01*
X101870979Y-100655499D01*
X101973695Y-100645006D01*
X102140122Y-100589857D01*
X102289345Y-100497816D01*
X102413316Y-100373845D01*
X102505357Y-100224622D01*
X102560506Y-100058196D01*
X102571000Y-99955479D01*
X102571000Y-99818000D01*
X101596000Y-99818000D01*
X101096000Y-99818000D01*
X101096000Y-99442000D01*
X101112613Y-99380000D01*
X101158000Y-99334613D01*
X101220000Y-99318000D01*
X102570999Y-99318000D01*
X102570999Y-99180521D01*
X102560506Y-99077804D01*
X102505357Y-98911377D01*
X102413316Y-98762154D01*
X102289344Y-98638182D01*
X102286343Y-98636331D01*
X102243161Y-98591223D01*
X102227440Y-98530789D01*
X102243166Y-98470356D01*
X102286347Y-98425252D01*
X102289656Y-98423212D01*
X102413712Y-98299156D01*
X102505814Y-98149834D01*
X102560999Y-97983297D01*
X102571500Y-97880509D01*
X102571499Y-97105492D01*
X102569035Y-97081375D01*
X102560999Y-97002703D01*
X102547967Y-96963375D01*
X102505814Y-96836166D01*
X102413712Y-96686844D01*
X102413711Y-96686842D01*
X102385049Y-96658180D01*
X102354799Y-96608817D01*
X102350257Y-96551101D01*
X102372412Y-96497614D01*
X102416435Y-96460014D01*
X102472730Y-96446499D01*
X102807500Y-96446499D01*
X102869500Y-96463112D01*
G37*
%TD.AperFunction*%
%TA.AperFunction,Conductor*%
G36*
X104535541Y-93249238D02*
G01*
X104574431Y-93306463D01*
X104582820Y-93332284D01*
X104677466Y-93496216D01*
X104804129Y-93636889D01*
X104957269Y-93748151D01*
X105130197Y-93825144D01*
X105315352Y-93864500D01*
X105315354Y-93864500D01*
X105504646Y-93864500D01*
X105504648Y-93864500D01*
X105628084Y-93838262D01*
X105689803Y-93825144D01*
X105862730Y-93748151D01*
X105862729Y-93748151D01*
X106015870Y-93636889D01*
X106018642Y-93633811D01*
X106093350Y-93550838D01*
X106142277Y-93517588D01*
X106201041Y-93510789D01*
X106256268Y-93531988D01*
X106295389Y-93576362D01*
X106309500Y-93633811D01*
X106309500Y-94317869D01*
X106315909Y-94377484D01*
X106322928Y-94396303D01*
X106366204Y-94512331D01*
X106452454Y-94627546D01*
X106567669Y-94713796D01*
X106702517Y-94764091D01*
X106748756Y-94769062D01*
X106805003Y-94789661D01*
X106845032Y-94834224D01*
X106859500Y-94892352D01*
X106859500Y-100169079D01*
X106859274Y-100176566D01*
X106855641Y-100236607D01*
X106866483Y-100295771D01*
X106867610Y-100303172D01*
X106874860Y-100362873D01*
X106878450Y-100372339D01*
X106884475Y-100393952D01*
X106886303Y-100403929D01*
X106910991Y-100458783D01*
X106913856Y-100465701D01*
X106935180Y-100521926D01*
X106935182Y-100521930D01*
X106940941Y-100530273D01*
X106951961Y-100549813D01*
X106956120Y-100559054D01*
X106993216Y-100606405D01*
X106997654Y-100612436D01*
X107027378Y-100655499D01*
X107031817Y-100661929D01*
X107076847Y-100701822D01*
X107082283Y-100706940D01*
X109309495Y-102934152D01*
X109333734Y-102968449D01*
X109345134Y-103008869D01*
X109350325Y-103058254D01*
X109408820Y-103238284D01*
X109503466Y-103402216D01*
X109630129Y-103542889D01*
X109783269Y-103654151D01*
X109956197Y-103731144D01*
X110141352Y-103770500D01*
X110141354Y-103770500D01*
X110330646Y-103770500D01*
X110330648Y-103770500D01*
X110454084Y-103744262D01*
X110515803Y-103731144D01*
X110688730Y-103654151D01*
X110717294Y-103633398D01*
X110841870Y-103542889D01*
X110888906Y-103490651D01*
X110968533Y-103402216D01*
X111063179Y-103238284D01*
X111121674Y-103058256D01*
X111141460Y-102870000D01*
X111121674Y-102681744D01*
X111079152Y-102550876D01*
X111063179Y-102501715D01*
X111058903Y-102494309D01*
X111042408Y-102437718D01*
X111053908Y-102379904D01*
X111090804Y-102333933D01*
X111144758Y-102310193D01*
X111203578Y-102314048D01*
X111253971Y-102344628D01*
X117750708Y-108841365D01*
X117783424Y-108899371D01*
X117781412Y-108965937D01*
X117745254Y-109021862D01*
X117685378Y-109051015D01*
X117619055Y-109044988D01*
X117560702Y-109022857D01*
X117553783Y-109019991D01*
X117498929Y-108995303D01*
X117488952Y-108993475D01*
X117467339Y-108987450D01*
X117457873Y-108983860D01*
X117398172Y-108976610D01*
X117390771Y-108975483D01*
X117331607Y-108964641D01*
X117271566Y-108968274D01*
X117264079Y-108968500D01*
X110859921Y-108968500D01*
X110852434Y-108968274D01*
X110792391Y-108964641D01*
X110733227Y-108975483D01*
X110725828Y-108976610D01*
X110666124Y-108983860D01*
X110656651Y-108987453D01*
X110635047Y-108993476D01*
X110625069Y-108995305D01*
X110570225Y-109019987D01*
X110563310Y-109022851D01*
X110507070Y-109044181D01*
X110498723Y-109049943D01*
X110479187Y-109060961D01*
X110469946Y-109065120D01*
X110422609Y-109102206D01*
X110416579Y-109106643D01*
X110367070Y-109140817D01*
X110327177Y-109185846D01*
X110322044Y-109191298D01*
X109979104Y-109534238D01*
X109928106Y-109565007D01*
X109880416Y-109567766D01*
X109880416Y-109568500D01*
X109868926Y-109568500D01*
X109651074Y-109568500D01*
X109436931Y-109608530D01*
X109436926Y-109608531D01*
X109233791Y-109687226D01*
X109048567Y-109801912D01*
X108887573Y-109948677D01*
X108858954Y-109986575D01*
X108815271Y-110022848D01*
X108760000Y-110035848D01*
X108704729Y-110022848D01*
X108661046Y-109986575D01*
X108632426Y-109948677D01*
X108471432Y-109801912D01*
X108286208Y-109687226D01*
X108083073Y-109608531D01*
X108083070Y-109608530D01*
X108083069Y-109608530D01*
X107868926Y-109568500D01*
X107651074Y-109568500D01*
X107639584Y-109568500D01*
X107639584Y-109567767D01*
X107591890Y-109565006D01*
X107540894Y-109534238D01*
X104368819Y-106362162D01*
X104341939Y-106321934D01*
X104332500Y-106274481D01*
X104332500Y-93344781D01*
X104351803Y-93278338D01*
X104403704Y-93232582D01*
X104472042Y-93221759D01*
X104535541Y-93249238D01*
G37*
%TD.AperFunction*%
%TA.AperFunction,Conductor*%
G36*
X128083198Y-79924855D02*
G01*
X132644181Y-84485838D01*
X132671061Y-84526066D01*
X132680500Y-84573519D01*
X132680500Y-106689195D01*
X132669934Y-106739281D01*
X132640038Y-106780832D01*
X132508573Y-106900677D01*
X132498877Y-106913517D01*
X132479955Y-106938575D01*
X132479953Y-106938577D01*
X132436271Y-106974850D01*
X132380999Y-106987849D01*
X132325728Y-106974849D01*
X132282046Y-106938575D01*
X132253428Y-106900678D01*
X132121962Y-106780832D01*
X132092066Y-106739281D01*
X132081500Y-106689195D01*
X132081500Y-106204748D01*
X132081726Y-106197261D01*
X132081927Y-106193929D01*
X132085358Y-106137221D01*
X132074507Y-106078012D01*
X132073390Y-106070668D01*
X132066140Y-106010955D01*
X132062547Y-106001483D01*
X132056522Y-105979871D01*
X132054695Y-105969896D01*
X132030009Y-105915047D01*
X132027152Y-105908153D01*
X132005818Y-105851897D01*
X132005816Y-105851895D01*
X132005816Y-105851893D01*
X132000062Y-105843558D01*
X131989033Y-105824004D01*
X131984878Y-105814771D01*
X131947780Y-105767418D01*
X131943352Y-105761400D01*
X131909184Y-105711899D01*
X131909183Y-105711898D01*
X131864153Y-105672005D01*
X131858715Y-105666885D01*
X129092113Y-102900283D01*
X129086995Y-102894847D01*
X129047102Y-102849817D01*
X129037643Y-102843288D01*
X128997609Y-102815654D01*
X128991578Y-102811216D01*
X128944227Y-102774120D01*
X128934986Y-102769961D01*
X128915446Y-102758941D01*
X128907103Y-102753182D01*
X128907100Y-102753181D01*
X128907099Y-102753180D01*
X128850874Y-102731856D01*
X128843956Y-102728991D01*
X128789102Y-102704303D01*
X128779125Y-102702475D01*
X128757512Y-102696450D01*
X128748046Y-102692860D01*
X128688345Y-102685610D01*
X128680944Y-102684483D01*
X128621780Y-102673641D01*
X128561739Y-102677274D01*
X128554252Y-102677500D01*
X127341519Y-102677500D01*
X127294066Y-102668061D01*
X127253838Y-102641181D01*
X126720819Y-102108162D01*
X126693939Y-102067934D01*
X126684500Y-102020481D01*
X126684500Y-101905231D01*
X126698015Y-101848936D01*
X126735615Y-101804913D01*
X126789102Y-101782758D01*
X126846818Y-101787300D01*
X126896181Y-101817550D01*
X126959342Y-101880711D01*
X126959344Y-101880712D01*
X127108666Y-101972814D01*
X127197118Y-102002124D01*
X127275202Y-102027999D01*
X127285702Y-102029071D01*
X127377991Y-102038500D01*
X128128008Y-102038499D01*
X128230797Y-102027999D01*
X128397334Y-101972814D01*
X128546656Y-101880712D01*
X128670712Y-101756656D01*
X128672752Y-101753347D01*
X128717856Y-101710166D01*
X128778289Y-101694440D01*
X128838723Y-101710161D01*
X128883831Y-101753343D01*
X128885682Y-101756344D01*
X129009654Y-101880316D01*
X129158877Y-101972357D01*
X129325303Y-102027506D01*
X129428021Y-102038000D01*
X129553000Y-102038000D01*
X129553000Y-101088000D01*
X130053000Y-101088000D01*
X130053000Y-102037999D01*
X130177979Y-102037999D01*
X130280695Y-102027506D01*
X130447122Y-101972357D01*
X130596345Y-101880316D01*
X130720316Y-101756345D01*
X130812357Y-101607122D01*
X130867506Y-101440696D01*
X130878000Y-101337979D01*
X130878000Y-101088000D01*
X130053000Y-101088000D01*
X129553000Y-101088000D01*
X129553000Y-100712000D01*
X129569613Y-100650000D01*
X129615000Y-100604613D01*
X129677000Y-100588000D01*
X130877999Y-100588000D01*
X130877999Y-100338021D01*
X130867506Y-100235304D01*
X130812357Y-100068877D01*
X130720316Y-99919654D01*
X130596345Y-99795683D01*
X130447122Y-99703642D01*
X130393788Y-99685969D01*
X130342104Y-99652830D01*
X130312652Y-99598960D01*
X130312652Y-99537565D01*
X130342104Y-99483695D01*
X130393786Y-99450557D01*
X130447334Y-99432814D01*
X130596656Y-99340712D01*
X130720712Y-99216656D01*
X130812814Y-99067334D01*
X130867999Y-98900797D01*
X130878500Y-98798009D01*
X130878499Y-97797992D01*
X130876933Y-97782666D01*
X130867999Y-97695203D01*
X130862611Y-97678943D01*
X130812814Y-97528666D01*
X130720712Y-97379344D01*
X130720711Y-97379342D01*
X130586408Y-97245039D01*
X130588412Y-97243034D01*
X130561989Y-97215432D01*
X130546266Y-97155000D01*
X130561989Y-97094568D01*
X130588412Y-97066965D01*
X130586408Y-97064961D01*
X130720711Y-96930657D01*
X130721761Y-96928955D01*
X130812814Y-96781334D01*
X130867999Y-96614797D01*
X130878500Y-96512009D01*
X130878499Y-95511992D01*
X130867999Y-95409203D01*
X130812814Y-95242666D01*
X130752544Y-95144952D01*
X130734084Y-95079569D01*
X130734123Y-95062950D01*
X130745756Y-90076327D01*
X130761550Y-90016061D01*
X130804657Y-89971083D01*
X130850656Y-89942712D01*
X130974712Y-89818656D01*
X131066814Y-89669334D01*
X131121999Y-89502797D01*
X131132500Y-89400009D01*
X131132499Y-88399992D01*
X131121999Y-88297203D01*
X131066814Y-88130666D01*
X130974712Y-87981344D01*
X130974711Y-87981342D01*
X130850657Y-87857288D01*
X130701334Y-87765186D01*
X130534797Y-87710000D01*
X130432009Y-87699500D01*
X129631991Y-87699500D01*
X129529203Y-87710000D01*
X129362665Y-87765186D01*
X129213342Y-87857288D01*
X129119681Y-87950950D01*
X129064094Y-87983044D01*
X128999906Y-87983044D01*
X128944319Y-87950950D01*
X128850657Y-87857288D01*
X128701334Y-87765186D01*
X128534797Y-87710000D01*
X128432009Y-87699500D01*
X127741564Y-87699500D01*
X127686429Y-87686568D01*
X127642794Y-87650470D01*
X127619760Y-87598735D01*
X127622132Y-87542153D01*
X127649414Y-87492528D01*
X127732533Y-87400216D01*
X127827179Y-87236284D01*
X127885674Y-87056256D01*
X127905460Y-86868000D01*
X127885674Y-86679744D01*
X127827179Y-86499716D01*
X127827179Y-86499715D01*
X127732533Y-86335783D01*
X127605870Y-86195110D01*
X127452730Y-86083848D01*
X127279802Y-86006855D01*
X127094648Y-85967500D01*
X127094646Y-85967500D01*
X126905354Y-85967500D01*
X126905352Y-85967500D01*
X126720197Y-86006855D01*
X126547272Y-86083847D01*
X126507385Y-86112827D01*
X126444228Y-86136127D01*
X126378204Y-86122994D01*
X126328772Y-86077299D01*
X126310499Y-86012509D01*
X126310499Y-85702130D01*
X126310250Y-85699814D01*
X126304091Y-85642517D01*
X126291340Y-85608331D01*
X126283523Y-85565000D01*
X126291342Y-85521665D01*
X126304090Y-85487485D01*
X126304089Y-85487485D01*
X126304091Y-85487483D01*
X126310500Y-85427873D01*
X126310499Y-84432128D01*
X126304091Y-84372517D01*
X126291340Y-84338330D01*
X126283523Y-84295000D01*
X126291342Y-84251665D01*
X126304090Y-84217485D01*
X126304089Y-84217485D01*
X126304091Y-84217483D01*
X126310500Y-84157873D01*
X126310499Y-83162128D01*
X126304091Y-83102517D01*
X126291340Y-83068330D01*
X126283523Y-83025000D01*
X126291342Y-82981665D01*
X126304090Y-82947485D01*
X126304089Y-82947485D01*
X126304091Y-82947483D01*
X126310500Y-82887873D01*
X126310499Y-81893413D01*
X126319465Y-81847119D01*
X126345067Y-81807519D01*
X126383603Y-81780341D01*
X126388406Y-81778178D01*
X126408803Y-81768998D01*
X126415673Y-81766152D01*
X126471930Y-81744818D01*
X126480270Y-81739060D01*
X126499819Y-81728035D01*
X126509057Y-81723878D01*
X126556413Y-81686775D01*
X126562420Y-81682355D01*
X126611929Y-81648183D01*
X126651823Y-81603150D01*
X126656924Y-81597731D01*
X127062975Y-81191681D01*
X127091486Y-81170391D01*
X127124872Y-81158075D01*
X127279803Y-81125144D01*
X127452730Y-81048151D01*
X127521855Y-80997929D01*
X127605870Y-80936889D01*
X127615992Y-80925648D01*
X127732533Y-80796216D01*
X127827179Y-80632284D01*
X127885674Y-80452256D01*
X127905460Y-80264000D01*
X127885674Y-80075744D01*
X127877585Y-80050851D01*
X127874503Y-79985487D01*
X127905124Y-79927653D01*
X127960922Y-79893460D01*
X128026354Y-79892432D01*
X128083198Y-79924855D01*
G37*
%TD.AperFunction*%
%TA.AperFunction,Conductor*%
G36*
X125232385Y-102058913D02*
G01*
X125269985Y-102102936D01*
X125283500Y-102159231D01*
X125283500Y-102337079D01*
X125283274Y-102344566D01*
X125279641Y-102404607D01*
X125290483Y-102463771D01*
X125291610Y-102471172D01*
X125298860Y-102530873D01*
X125302450Y-102540339D01*
X125308475Y-102561952D01*
X125310303Y-102571929D01*
X125334991Y-102626783D01*
X125337856Y-102633701D01*
X125359180Y-102689926D01*
X125359182Y-102689930D01*
X125364941Y-102698273D01*
X125375961Y-102717813D01*
X125380120Y-102727054D01*
X125417216Y-102774405D01*
X125421651Y-102780432D01*
X125429167Y-102791321D01*
X125448601Y-102819476D01*
X125455817Y-102829929D01*
X125500847Y-102869822D01*
X125506283Y-102874940D01*
X126487058Y-103855715D01*
X126492178Y-103861153D01*
X126532071Y-103906183D01*
X126581577Y-103940355D01*
X126587597Y-103944785D01*
X126634941Y-103981877D01*
X126634942Y-103981877D01*
X126634943Y-103981878D01*
X126644184Y-103986037D01*
X126663730Y-103997061D01*
X126672070Y-104002818D01*
X126728322Y-104024151D01*
X126735218Y-104027009D01*
X126790068Y-104051695D01*
X126800035Y-104053521D01*
X126821651Y-104059546D01*
X126831128Y-104063140D01*
X126890840Y-104070390D01*
X126898185Y-104071507D01*
X126957394Y-104082358D01*
X127014102Y-104078927D01*
X127017434Y-104078726D01*
X127024921Y-104078500D01*
X128237654Y-104078500D01*
X128285107Y-104087939D01*
X128325335Y-104114819D01*
X130644181Y-106433665D01*
X130671061Y-106473893D01*
X130680500Y-106521346D01*
X130680500Y-106689195D01*
X130669934Y-106739281D01*
X130640038Y-106780832D01*
X130508573Y-106900677D01*
X130498877Y-106913517D01*
X130479955Y-106938575D01*
X130479953Y-106938577D01*
X130436271Y-106974850D01*
X130380999Y-106987849D01*
X130325728Y-106974849D01*
X130282046Y-106938575D01*
X130253428Y-106900678D01*
X130092432Y-106753912D01*
X129907208Y-106639226D01*
X129704073Y-106560531D01*
X129704070Y-106560530D01*
X129704069Y-106560530D01*
X129489926Y-106520500D01*
X129272074Y-106520500D01*
X129057931Y-106560530D01*
X129057926Y-106560531D01*
X128854791Y-106639226D01*
X128669567Y-106753911D01*
X128508573Y-106900677D01*
X128498877Y-106913517D01*
X128479955Y-106938575D01*
X128479953Y-106938577D01*
X128436271Y-106974850D01*
X128380999Y-106987849D01*
X128325728Y-106974849D01*
X128282046Y-106938575D01*
X128253428Y-106900678D01*
X128092432Y-106753912D01*
X127907208Y-106639226D01*
X127704073Y-106560531D01*
X127704070Y-106560530D01*
X127704069Y-106560530D01*
X127489926Y-106520500D01*
X127272074Y-106520500D01*
X127260584Y-106520500D01*
X127260584Y-106519766D01*
X127212892Y-106517007D01*
X127161895Y-106486238D01*
X125861940Y-105186283D01*
X125856822Y-105180847D01*
X125816929Y-105135817D01*
X125767432Y-105101651D01*
X125761405Y-105097216D01*
X125714054Y-105060120D01*
X125704813Y-105055961D01*
X125685273Y-105044941D01*
X125676930Y-105039182D01*
X125676927Y-105039181D01*
X125676926Y-105039180D01*
X125620701Y-105017856D01*
X125613783Y-105014991D01*
X125558929Y-104990303D01*
X125548952Y-104988475D01*
X125527339Y-104982450D01*
X125517873Y-104978860D01*
X125458172Y-104971610D01*
X125450771Y-104970483D01*
X125391607Y-104959641D01*
X125331566Y-104963274D01*
X125324079Y-104963500D01*
X125256911Y-104963500D01*
X125194132Y-104946434D01*
X125148634Y-104899932D01*
X125132940Y-104836796D01*
X125151372Y-104774404D01*
X125176744Y-104733268D01*
X125224814Y-104655334D01*
X125279999Y-104488797D01*
X125290500Y-104386009D01*
X125290499Y-103385992D01*
X125279999Y-103283203D01*
X125224814Y-103116666D01*
X125158325Y-103008869D01*
X125132711Y-102967342D01*
X125008657Y-102843288D01*
X124974404Y-102822161D01*
X124931223Y-102777054D01*
X124915500Y-102716622D01*
X124915500Y-102261378D01*
X124931223Y-102200946D01*
X124974404Y-102155839D01*
X124987145Y-102147979D01*
X125008656Y-102134712D01*
X125035206Y-102108162D01*
X125071819Y-102071550D01*
X125121182Y-102041300D01*
X125178898Y-102036758D01*
X125232385Y-102058913D01*
G37*
%TD.AperFunction*%
%TA.AperFunction,Conductor*%
G36*
X133537934Y-77169939D02*
G01*
X133578162Y-77196819D01*
X134145181Y-77763838D01*
X134172061Y-77804066D01*
X134181500Y-77851519D01*
X134181500Y-78410008D01*
X134192000Y-78512796D01*
X134247186Y-78679334D01*
X134339288Y-78828657D01*
X134432950Y-78922319D01*
X134465044Y-78977906D01*
X134465044Y-79042094D01*
X134432950Y-79097681D01*
X134339288Y-79191342D01*
X134247186Y-79340665D01*
X134192000Y-79507202D01*
X134181500Y-79609990D01*
X134181500Y-80410008D01*
X134192000Y-80512796D01*
X134247186Y-80679334D01*
X134339288Y-80828657D01*
X134463342Y-80952711D01*
X134485437Y-80966339D01*
X134612666Y-81044814D01*
X134724017Y-81081712D01*
X134779202Y-81099999D01*
X134788729Y-81100972D01*
X134881991Y-81110500D01*
X135473043Y-81110499D01*
X135523925Y-81121419D01*
X135524943Y-81121877D01*
X135534172Y-81126030D01*
X135553726Y-81137058D01*
X135562070Y-81142818D01*
X135618322Y-81164151D01*
X135625228Y-81167012D01*
X135680068Y-81191694D01*
X135690030Y-81193519D01*
X135711650Y-81199546D01*
X135721125Y-81203139D01*
X135721128Y-81203140D01*
X135780856Y-81210392D01*
X135788201Y-81211509D01*
X135847394Y-81222357D01*
X135907421Y-81218726D01*
X135914909Y-81218500D01*
X137678222Y-81218500D01*
X137733494Y-81231500D01*
X137777176Y-81267773D01*
X137811573Y-81313323D01*
X137935572Y-81426363D01*
X137971300Y-81484066D01*
X137971300Y-81551934D01*
X137935572Y-81609637D01*
X137811573Y-81722676D01*
X137680287Y-81896528D01*
X137583181Y-82091542D01*
X137523564Y-82301074D01*
X137503464Y-82518000D01*
X137523564Y-82734925D01*
X137583181Y-82944457D01*
X137680288Y-83139474D01*
X137761747Y-83247343D01*
X137785874Y-83307003D01*
X137776850Y-83370721D01*
X137737104Y-83421335D01*
X137651455Y-83485451D01*
X137565204Y-83600668D01*
X137514909Y-83735516D01*
X137508500Y-83795130D01*
X137508500Y-85240869D01*
X137514909Y-85300484D01*
X137524796Y-85326991D01*
X137565204Y-85435331D01*
X137651454Y-85550546D01*
X137766669Y-85636796D01*
X137901517Y-85687091D01*
X137961127Y-85693500D01*
X138817480Y-85693499D01*
X138864933Y-85702938D01*
X138905161Y-85729818D01*
X139238181Y-86062838D01*
X139265061Y-86103066D01*
X139274500Y-86150519D01*
X139274500Y-104760481D01*
X139265061Y-104807934D01*
X139238181Y-104848162D01*
X137600103Y-106486238D01*
X137549104Y-106517007D01*
X137501416Y-106519765D01*
X137501416Y-106520500D01*
X137489926Y-106520500D01*
X137272074Y-106520500D01*
X137057931Y-106560530D01*
X137057926Y-106560531D01*
X136854791Y-106639226D01*
X136669567Y-106753912D01*
X136508573Y-106900677D01*
X136479954Y-106938575D01*
X136436271Y-106974848D01*
X136381000Y-106987848D01*
X136325729Y-106974848D01*
X136282046Y-106938575D01*
X136253426Y-106900677D01*
X136092432Y-106753912D01*
X135907208Y-106639226D01*
X135704073Y-106560531D01*
X135704070Y-106560530D01*
X135704069Y-106560530D01*
X135489926Y-106520500D01*
X135272074Y-106520500D01*
X135057931Y-106560530D01*
X135057926Y-106560531D01*
X134854791Y-106639226D01*
X134669567Y-106753912D01*
X134508573Y-106900677D01*
X134479954Y-106938575D01*
X134436271Y-106974848D01*
X134381000Y-106987848D01*
X134325729Y-106974848D01*
X134282046Y-106938575D01*
X134253426Y-106900677D01*
X134121962Y-106780832D01*
X134092066Y-106739281D01*
X134081500Y-106689195D01*
X134081500Y-92706000D01*
X134590000Y-92706000D01*
X134590000Y-92883824D01*
X134596402Y-92943375D01*
X134646647Y-93078089D01*
X134732811Y-93193188D01*
X134847910Y-93279352D01*
X134982624Y-93329597D01*
X135042176Y-93336000D01*
X135640000Y-93336000D01*
X135640000Y-92706000D01*
X136140000Y-92706000D01*
X136140000Y-93336000D01*
X136737824Y-93336000D01*
X136797375Y-93329597D01*
X136932089Y-93279352D01*
X137047188Y-93193188D01*
X137133352Y-93078089D01*
X137183597Y-92943375D01*
X137190000Y-92883824D01*
X137190000Y-92706000D01*
X136140000Y-92706000D01*
X135640000Y-92706000D01*
X134590000Y-92706000D01*
X134081500Y-92706000D01*
X134081500Y-92206000D01*
X134590000Y-92206000D01*
X135640000Y-92206000D01*
X135640000Y-91576000D01*
X136140000Y-91576000D01*
X136140000Y-92206000D01*
X137190000Y-92206000D01*
X137190000Y-92028176D01*
X137183597Y-91968624D01*
X137133352Y-91833910D01*
X137047188Y-91718811D01*
X136932089Y-91632647D01*
X136797375Y-91582402D01*
X136737824Y-91576000D01*
X136140000Y-91576000D01*
X135640000Y-91576000D01*
X135042176Y-91576000D01*
X134982624Y-91582402D01*
X134847910Y-91632647D01*
X134732811Y-91718811D01*
X134646647Y-91833910D01*
X134596402Y-91968624D01*
X134590000Y-92028176D01*
X134590000Y-92206000D01*
X134081500Y-92206000D01*
X134081500Y-84256921D01*
X134081726Y-84249434D01*
X134081927Y-84246102D01*
X134085358Y-84189394D01*
X134074507Y-84130185D01*
X134073390Y-84122840D01*
X134066140Y-84063128D01*
X134062546Y-84053651D01*
X134056521Y-84032034D01*
X134056404Y-84031394D01*
X134054695Y-84022068D01*
X134030009Y-83967218D01*
X134027151Y-83960322D01*
X134005818Y-83904070D01*
X134000061Y-83895730D01*
X133989035Y-83876181D01*
X133984877Y-83866941D01*
X133947785Y-83819597D01*
X133943355Y-83813577D01*
X133909183Y-83764071D01*
X133864153Y-83724178D01*
X133858715Y-83719058D01*
X128241940Y-78102283D01*
X128236822Y-78096847D01*
X128196929Y-78051817D01*
X128191344Y-78047962D01*
X128154481Y-78022517D01*
X128147432Y-78017651D01*
X128141405Y-78013216D01*
X128101949Y-77982305D01*
X128094057Y-77976122D01*
X128094055Y-77976121D01*
X128094054Y-77976120D01*
X128084813Y-77971961D01*
X128065273Y-77960941D01*
X128056930Y-77955182D01*
X128056927Y-77955181D01*
X128056926Y-77955180D01*
X128000701Y-77933856D01*
X127993783Y-77930991D01*
X127938929Y-77906303D01*
X127928952Y-77904475D01*
X127907339Y-77898450D01*
X127897873Y-77894860D01*
X127838172Y-77887610D01*
X127830771Y-77886483D01*
X127771607Y-77875641D01*
X127711566Y-77879274D01*
X127704079Y-77879500D01*
X126434000Y-77879500D01*
X126372000Y-77862887D01*
X126326613Y-77817500D01*
X126310000Y-77755500D01*
X126310000Y-77560000D01*
X124934000Y-77560000D01*
X124872000Y-77543387D01*
X124826613Y-77498000D01*
X124810000Y-77436000D01*
X124810000Y-77284500D01*
X124826613Y-77222500D01*
X124872000Y-77177113D01*
X124934000Y-77160500D01*
X133490481Y-77160500D01*
X133537934Y-77169939D01*
G37*
%TD.AperFunction*%
%TA.AperFunction,Conductor*%
G36*
X123250432Y-101964640D02*
G01*
X123295539Y-102007821D01*
X123297288Y-102010657D01*
X123421342Y-102134711D01*
X123455596Y-102155839D01*
X123498777Y-102200946D01*
X123514500Y-102261378D01*
X123514500Y-102685782D01*
X123498777Y-102746214D01*
X123455596Y-102791321D01*
X123371344Y-102843286D01*
X123277327Y-102937304D01*
X123221739Y-102969397D01*
X123157552Y-102969397D01*
X123101965Y-102937303D01*
X123008345Y-102843683D01*
X122859122Y-102751642D01*
X122692696Y-102696493D01*
X122589979Y-102686000D01*
X122440000Y-102686000D01*
X122440000Y-104012000D01*
X122423387Y-104074000D01*
X122378000Y-104119387D01*
X122316000Y-104136000D01*
X122064000Y-104136000D01*
X122002000Y-104119387D01*
X121956613Y-104074000D01*
X121940000Y-104012000D01*
X121940000Y-102686001D01*
X121790021Y-102686001D01*
X121687304Y-102696493D01*
X121520877Y-102751642D01*
X121371654Y-102843683D01*
X121308181Y-102907157D01*
X121258818Y-102937407D01*
X121201102Y-102941949D01*
X121147615Y-102919794D01*
X121110015Y-102875771D01*
X121096500Y-102819476D01*
X121096500Y-102159231D01*
X121110015Y-102102936D01*
X121147615Y-102058913D01*
X121201102Y-102036758D01*
X121258818Y-102041300D01*
X121308181Y-102071550D01*
X121371342Y-102134711D01*
X121411096Y-102159231D01*
X121520666Y-102226814D01*
X121624973Y-102261378D01*
X121687202Y-102281999D01*
X121697703Y-102283071D01*
X121789991Y-102292500D01*
X122540008Y-102292499D01*
X122642797Y-102281999D01*
X122809334Y-102226814D01*
X122958656Y-102134712D01*
X123082712Y-102010656D01*
X123083822Y-102008856D01*
X123084461Y-102007821D01*
X123129568Y-101964640D01*
X123190000Y-101948917D01*
X123250432Y-101964640D01*
G37*
%TD.AperFunction*%
%TA.AperFunction,Conductor*%
G36*
X104504425Y-80565587D02*
G01*
X104549279Y-80607177D01*
X104568793Y-80665150D01*
X104558219Y-80725397D01*
X104547961Y-80748186D01*
X104536941Y-80767725D01*
X104531182Y-80776069D01*
X104509853Y-80832305D01*
X104506989Y-80839219D01*
X104482303Y-80894070D01*
X104480475Y-80904047D01*
X104474454Y-80925648D01*
X104470859Y-80935128D01*
X104463609Y-80994827D01*
X104462483Y-81002226D01*
X104451641Y-81061391D01*
X104455274Y-81121434D01*
X104455500Y-81128921D01*
X104455500Y-81799501D01*
X104438887Y-81861501D01*
X104393500Y-81906888D01*
X104331500Y-81923501D01*
X104308128Y-81923501D01*
X104278322Y-81926704D01*
X104248515Y-81929909D01*
X104113669Y-81980204D01*
X103998454Y-82066454D01*
X103912204Y-82181668D01*
X103867667Y-82301077D01*
X103861909Y-82316517D01*
X103857617Y-82356443D01*
X103855500Y-82376130D01*
X103855500Y-83231869D01*
X103861909Y-83291484D01*
X103870054Y-83313322D01*
X103912204Y-83426331D01*
X103998454Y-83541546D01*
X104113669Y-83627796D01*
X104248517Y-83678091D01*
X104308127Y-83684500D01*
X106003872Y-83684499D01*
X106063483Y-83678091D01*
X106142170Y-83648742D01*
X106200953Y-83641892D01*
X106256220Y-83663069D01*
X106295375Y-83707450D01*
X106309500Y-83764925D01*
X106309500Y-84157869D01*
X106315909Y-84217485D01*
X106328658Y-84251667D01*
X106336476Y-84294999D01*
X106328659Y-84338330D01*
X106315909Y-84372515D01*
X106309500Y-84432130D01*
X106309500Y-85427869D01*
X106315909Y-85487485D01*
X106328658Y-85521666D01*
X106336476Y-85564997D01*
X106328659Y-85608328D01*
X106315909Y-85642513D01*
X106309500Y-85702130D01*
X106309500Y-86697869D01*
X106315909Y-86757485D01*
X106328658Y-86791666D01*
X106336476Y-86834997D01*
X106328659Y-86878328D01*
X106315909Y-86912513D01*
X106309500Y-86972130D01*
X106309500Y-87967871D01*
X106311446Y-87985966D01*
X106305410Y-88039561D01*
X106277191Y-88085524D01*
X106232129Y-88115159D01*
X106232069Y-88115181D01*
X106223725Y-88120941D01*
X106204183Y-88131963D01*
X106194944Y-88136121D01*
X106147594Y-88173216D01*
X106141566Y-88177652D01*
X106092067Y-88211819D01*
X106052183Y-88256838D01*
X106047051Y-88262290D01*
X104853681Y-89455661D01*
X104804318Y-89485911D01*
X104746602Y-89490453D01*
X104693115Y-89468298D01*
X104655515Y-89424275D01*
X104642000Y-89367980D01*
X104642000Y-88896000D01*
X103642000Y-88896000D01*
X103642000Y-90146000D01*
X103863980Y-90146000D01*
X103920275Y-90159515D01*
X103964298Y-90197115D01*
X103986453Y-90250602D01*
X103981911Y-90308318D01*
X103951661Y-90357681D01*
X103154290Y-91155051D01*
X103148838Y-91160183D01*
X103103816Y-91200070D01*
X103069649Y-91249568D01*
X103065213Y-91255597D01*
X103028121Y-91302942D01*
X103023961Y-91312186D01*
X103012941Y-91331725D01*
X103007182Y-91340069D01*
X102985853Y-91396305D01*
X102982989Y-91403219D01*
X102958303Y-91458070D01*
X102956475Y-91468047D01*
X102950454Y-91489648D01*
X102946859Y-91499128D01*
X102939609Y-91558827D01*
X102938483Y-91566226D01*
X102927641Y-91625391D01*
X102931274Y-91685434D01*
X102931500Y-91692921D01*
X102931500Y-93321500D01*
X102914887Y-93383500D01*
X102869500Y-93428887D01*
X102807500Y-93445500D01*
X101699500Y-93445500D01*
X101637500Y-93428887D01*
X101592113Y-93383500D01*
X101575500Y-93321500D01*
X101575500Y-90270499D01*
X101592113Y-90208499D01*
X101637500Y-90163112D01*
X101699500Y-90146499D01*
X101889870Y-90146499D01*
X101889872Y-90146499D01*
X101949483Y-90140091D01*
X102084331Y-90089796D01*
X102168109Y-90027079D01*
X102216057Y-90005182D01*
X102268774Y-90005182D01*
X102316727Y-90027081D01*
X102399911Y-90089352D01*
X102534624Y-90139597D01*
X102594176Y-90146000D01*
X103142000Y-90146000D01*
X103142000Y-87146000D01*
X103642000Y-87146000D01*
X103642000Y-88396000D01*
X104642000Y-88396000D01*
X104642000Y-87598176D01*
X104635597Y-87538624D01*
X104585352Y-87403910D01*
X104499188Y-87288811D01*
X104384089Y-87202647D01*
X104249375Y-87152402D01*
X104189824Y-87146000D01*
X103642000Y-87146000D01*
X103142000Y-87146000D01*
X102678500Y-87146000D01*
X102616500Y-87129387D01*
X102571113Y-87084000D01*
X102554500Y-87022000D01*
X102554500Y-84098921D01*
X102554726Y-84091434D01*
X102557648Y-84043123D01*
X102558358Y-84031394D01*
X102547507Y-83972185D01*
X102546390Y-83964841D01*
X102539140Y-83905128D01*
X102535547Y-83895656D01*
X102529522Y-83874044D01*
X102527695Y-83864069D01*
X102503009Y-83809220D01*
X102500152Y-83802326D01*
X102478818Y-83746070D01*
X102478816Y-83746068D01*
X102478816Y-83746066D01*
X102473062Y-83737731D01*
X102462033Y-83718177D01*
X102457878Y-83708944D01*
X102420780Y-83661591D01*
X102416352Y-83655573D01*
X102382184Y-83606072D01*
X102376084Y-83600668D01*
X102337153Y-83566178D01*
X102331715Y-83561058D01*
X99913878Y-81143221D01*
X99881419Y-81086237D01*
X99882564Y-81020667D01*
X99916992Y-80964851D01*
X99975074Y-80934401D01*
X100040562Y-80937833D01*
X100065203Y-80945999D01*
X100167991Y-80956500D01*
X100968008Y-80956499D01*
X101070797Y-80945999D01*
X101237334Y-80890814D01*
X101386656Y-80798712D01*
X101510712Y-80674656D01*
X101550959Y-80609404D01*
X101596067Y-80566223D01*
X101656499Y-80550500D01*
X104445146Y-80550500D01*
X104504425Y-80565587D01*
G37*
%TD.AperFunction*%
%TA.AperFunction,Conductor*%
G36*
X137459986Y-78156500D02*
G01*
X137503669Y-78192773D01*
X137526604Y-78244714D01*
X137525987Y-78258058D01*
X137533495Y-78268000D01*
X138810000Y-78268000D01*
X138872000Y-78284613D01*
X138917387Y-78330000D01*
X138934000Y-78392000D01*
X138934000Y-78644000D01*
X138917387Y-78706000D01*
X138872000Y-78751387D01*
X138810000Y-78768000D01*
X137533495Y-78768000D01*
X137583651Y-78944278D01*
X137680712Y-79139205D01*
X137811942Y-79312981D01*
X137935944Y-79426023D01*
X137971672Y-79483726D01*
X137971672Y-79551595D01*
X137935944Y-79609298D01*
X137811573Y-79722676D01*
X137777176Y-79768227D01*
X137733494Y-79804500D01*
X137678222Y-79817500D01*
X136706499Y-79817500D01*
X136644499Y-79800887D01*
X136599112Y-79755500D01*
X136582499Y-79693500D01*
X136582499Y-79609991D01*
X136571999Y-79507203D01*
X136556764Y-79461228D01*
X136516814Y-79340666D01*
X136439303Y-79215000D01*
X136424713Y-79191345D01*
X136380156Y-79146788D01*
X136331047Y-79097679D01*
X136298955Y-79042094D01*
X136298955Y-78977906D01*
X136331047Y-78922320D01*
X136424712Y-78828656D01*
X136516814Y-78679334D01*
X136571999Y-78512797D01*
X136582500Y-78410009D01*
X136582500Y-78267500D01*
X136599113Y-78205500D01*
X136644500Y-78160113D01*
X136706500Y-78143500D01*
X137404715Y-78143500D01*
X137459986Y-78156500D01*
G37*
%TD.AperFunction*%
%TA.AperFunction,Conductor*%
G36*
X123373727Y-75772844D02*
G01*
X123417299Y-75808714D01*
X123440461Y-75860181D01*
X123438413Y-75916581D01*
X123411580Y-75966233D01*
X123402181Y-75976841D01*
X123397052Y-75982289D01*
X121536162Y-77843181D01*
X121495934Y-77870061D01*
X121448481Y-77879500D01*
X119846855Y-77879500D01*
X119796419Y-77868779D01*
X119754704Y-77838471D01*
X119744367Y-77826991D01*
X119731871Y-77813112D01*
X119731870Y-77813111D01*
X119731869Y-77813110D01*
X119578730Y-77701848D01*
X119405802Y-77624855D01*
X119220648Y-77585500D01*
X119220646Y-77585500D01*
X119031354Y-77585500D01*
X119031352Y-77585500D01*
X118846197Y-77624855D01*
X118673269Y-77701848D01*
X118520130Y-77813110D01*
X118497296Y-77838471D01*
X118455581Y-77868779D01*
X118405145Y-77879500D01*
X117225851Y-77879500D01*
X117174963Y-77868577D01*
X117172972Y-77867681D01*
X117159711Y-77860721D01*
X117140793Y-77849285D01*
X117129606Y-77842522D01*
X117116606Y-77838471D01*
X117096014Y-77832054D01*
X117082013Y-77826744D01*
X117077654Y-77824782D01*
X117049932Y-77812305D01*
X117015310Y-77805960D01*
X117000778Y-77802378D01*
X116991416Y-77799460D01*
X116967195Y-77791913D01*
X116932080Y-77789789D01*
X116917219Y-77787984D01*
X116882607Y-77781641D01*
X116847477Y-77783766D01*
X116832507Y-77783766D01*
X116797392Y-77781642D01*
X116762789Y-77787983D01*
X116747933Y-77789787D01*
X116712805Y-77791913D01*
X116679218Y-77802379D01*
X116664681Y-77805962D01*
X116630066Y-77812305D01*
X116597973Y-77826749D01*
X116583974Y-77832058D01*
X116550392Y-77842522D01*
X116520281Y-77860724D01*
X116507082Y-77867656D01*
X116506202Y-77868052D01*
X116505093Y-77868551D01*
X116454149Y-77879500D01*
X108934000Y-77879500D01*
X108872000Y-77862887D01*
X108826613Y-77817500D01*
X108810000Y-77755500D01*
X108810000Y-77560000D01*
X106309518Y-77560000D01*
X106262065Y-77550561D01*
X106221837Y-77523681D01*
X106051214Y-77353058D01*
X105793818Y-77095661D01*
X105769990Y-77060000D01*
X106310000Y-77060000D01*
X107310000Y-77060000D01*
X107310000Y-76360000D01*
X107810000Y-76360000D01*
X107810000Y-77060000D01*
X108810000Y-77060000D01*
X108810000Y-76812176D01*
X108803597Y-76752624D01*
X108753352Y-76617910D01*
X108667188Y-76502811D01*
X108552089Y-76416647D01*
X108417375Y-76366402D01*
X108357824Y-76360000D01*
X107810000Y-76360000D01*
X107310000Y-76360000D01*
X106762176Y-76360000D01*
X106702624Y-76366402D01*
X106567910Y-76416647D01*
X106452811Y-76502811D01*
X106366647Y-76617910D01*
X106316402Y-76752624D01*
X106310000Y-76812176D01*
X106310000Y-77060000D01*
X105769990Y-77060000D01*
X105766938Y-77055433D01*
X105757499Y-77007980D01*
X105757499Y-76436991D01*
X105746999Y-76334203D01*
X105746998Y-76334202D01*
X105691814Y-76167666D01*
X105599712Y-76018344D01*
X105599711Y-76018342D01*
X105553050Y-75971681D01*
X105522800Y-75922318D01*
X105518258Y-75864602D01*
X105540413Y-75811115D01*
X105584436Y-75773515D01*
X105640731Y-75760000D01*
X123318770Y-75760000D01*
X123373727Y-75772844D01*
G37*
%TD.AperFunction*%
%TD*%
M02*
