%TF.GenerationSoftware,KiCad,Pcbnew,7.0.1*%
%TF.CreationDate,2023-03-21T17:25:17+01:00*%
%TF.ProjectId,PCB_uitlezen_gsm,5043425f-7569-4746-9c65-7a656e5f6773,rev?*%
%TF.SameCoordinates,Original*%
%TF.FileFunction,Legend,Top*%
%TF.FilePolarity,Positive*%
%FSLAX46Y46*%
G04 Gerber Fmt 4.6, Leading zero omitted, Abs format (unit mm)*
G04 Created by KiCad (PCBNEW 7.0.1) date 2023-03-21 17:25:17*
%MOMM*%
%LPD*%
G01*
G04 APERTURE LIST*
%ADD10C,0.150000*%
%ADD11C,0.120000*%
G04 APERTURE END LIST*
D10*
X140811238Y-80157619D02*
X141382666Y-80157619D01*
X141096952Y-81157619D02*
X141096952Y-80157619D01*
X141620762Y-80157619D02*
X142287428Y-81157619D01*
X142287428Y-80157619D02*
X141620762Y-81157619D01*
X142858857Y-80157619D02*
X142954095Y-80157619D01*
X142954095Y-80157619D02*
X143049333Y-80205238D01*
X143049333Y-80205238D02*
X143096952Y-80252857D01*
X143096952Y-80252857D02*
X143144571Y-80348095D01*
X143144571Y-80348095D02*
X143192190Y-80538571D01*
X143192190Y-80538571D02*
X143192190Y-80776666D01*
X143192190Y-80776666D02*
X143144571Y-80967142D01*
X143144571Y-80967142D02*
X143096952Y-81062380D01*
X143096952Y-81062380D02*
X143049333Y-81110000D01*
X143049333Y-81110000D02*
X142954095Y-81157619D01*
X142954095Y-81157619D02*
X142858857Y-81157619D01*
X142858857Y-81157619D02*
X142763619Y-81110000D01*
X142763619Y-81110000D02*
X142716000Y-81062380D01*
X142716000Y-81062380D02*
X142668381Y-80967142D01*
X142668381Y-80967142D02*
X142620762Y-80776666D01*
X142620762Y-80776666D02*
X142620762Y-80538571D01*
X142620762Y-80538571D02*
X142668381Y-80348095D01*
X142668381Y-80348095D02*
X142716000Y-80252857D01*
X142716000Y-80252857D02*
X142763619Y-80205238D01*
X142763619Y-80205238D02*
X142858857Y-80157619D01*
X141477904Y-78331238D02*
X141382666Y-78283619D01*
X141382666Y-78283619D02*
X141239809Y-78283619D01*
X141239809Y-78283619D02*
X141096952Y-78331238D01*
X141096952Y-78331238D02*
X141001714Y-78426476D01*
X141001714Y-78426476D02*
X140954095Y-78521714D01*
X140954095Y-78521714D02*
X140906476Y-78712190D01*
X140906476Y-78712190D02*
X140906476Y-78855047D01*
X140906476Y-78855047D02*
X140954095Y-79045523D01*
X140954095Y-79045523D02*
X141001714Y-79140761D01*
X141001714Y-79140761D02*
X141096952Y-79236000D01*
X141096952Y-79236000D02*
X141239809Y-79283619D01*
X141239809Y-79283619D02*
X141335047Y-79283619D01*
X141335047Y-79283619D02*
X141477904Y-79236000D01*
X141477904Y-79236000D02*
X141525523Y-79188380D01*
X141525523Y-79188380D02*
X141525523Y-78855047D01*
X141525523Y-78855047D02*
X141335047Y-78855047D01*
X141954095Y-79283619D02*
X141954095Y-78283619D01*
X141954095Y-78283619D02*
X142525523Y-79283619D01*
X142525523Y-79283619D02*
X142525523Y-78283619D01*
X143001714Y-79283619D02*
X143001714Y-78283619D01*
X143001714Y-78283619D02*
X143239809Y-78283619D01*
X143239809Y-78283619D02*
X143382666Y-78331238D01*
X143382666Y-78331238D02*
X143477904Y-78426476D01*
X143477904Y-78426476D02*
X143525523Y-78521714D01*
X143525523Y-78521714D02*
X143573142Y-78712190D01*
X143573142Y-78712190D02*
X143573142Y-78855047D01*
X143573142Y-78855047D02*
X143525523Y-79045523D01*
X143525523Y-79045523D02*
X143477904Y-79140761D01*
X143477904Y-79140761D02*
X143382666Y-79236000D01*
X143382666Y-79236000D02*
X143239809Y-79283619D01*
X143239809Y-79283619D02*
X143001714Y-79283619D01*
X140858857Y-84221619D02*
X141477904Y-84221619D01*
X141477904Y-84221619D02*
X141144571Y-84602571D01*
X141144571Y-84602571D02*
X141287428Y-84602571D01*
X141287428Y-84602571D02*
X141382666Y-84650190D01*
X141382666Y-84650190D02*
X141430285Y-84697809D01*
X141430285Y-84697809D02*
X141477904Y-84793047D01*
X141477904Y-84793047D02*
X141477904Y-85031142D01*
X141477904Y-85031142D02*
X141430285Y-85126380D01*
X141430285Y-85126380D02*
X141382666Y-85174000D01*
X141382666Y-85174000D02*
X141287428Y-85221619D01*
X141287428Y-85221619D02*
X141001714Y-85221619D01*
X141001714Y-85221619D02*
X140906476Y-85174000D01*
X140906476Y-85174000D02*
X140858857Y-85126380D01*
X141763619Y-84221619D02*
X142096952Y-85221619D01*
X142096952Y-85221619D02*
X142430285Y-84221619D01*
X142668381Y-84221619D02*
X143287428Y-84221619D01*
X143287428Y-84221619D02*
X142954095Y-84602571D01*
X142954095Y-84602571D02*
X143096952Y-84602571D01*
X143096952Y-84602571D02*
X143192190Y-84650190D01*
X143192190Y-84650190D02*
X143239809Y-84697809D01*
X143239809Y-84697809D02*
X143287428Y-84793047D01*
X143287428Y-84793047D02*
X143287428Y-85031142D01*
X143287428Y-85031142D02*
X143239809Y-85126380D01*
X143239809Y-85126380D02*
X143192190Y-85174000D01*
X143192190Y-85174000D02*
X143096952Y-85221619D01*
X143096952Y-85221619D02*
X142811238Y-85221619D01*
X142811238Y-85221619D02*
X142716000Y-85174000D01*
X142716000Y-85174000D02*
X142668381Y-85126380D01*
X141525523Y-83189619D02*
X141192190Y-82713428D01*
X140954095Y-83189619D02*
X140954095Y-82189619D01*
X140954095Y-82189619D02*
X141335047Y-82189619D01*
X141335047Y-82189619D02*
X141430285Y-82237238D01*
X141430285Y-82237238D02*
X141477904Y-82284857D01*
X141477904Y-82284857D02*
X141525523Y-82380095D01*
X141525523Y-82380095D02*
X141525523Y-82522952D01*
X141525523Y-82522952D02*
X141477904Y-82618190D01*
X141477904Y-82618190D02*
X141430285Y-82665809D01*
X141430285Y-82665809D02*
X141335047Y-82713428D01*
X141335047Y-82713428D02*
X140954095Y-82713428D01*
X141858857Y-82189619D02*
X142525523Y-83189619D01*
X142525523Y-82189619D02*
X141858857Y-83189619D01*
X143096952Y-82189619D02*
X143192190Y-82189619D01*
X143192190Y-82189619D02*
X143287428Y-82237238D01*
X143287428Y-82237238D02*
X143335047Y-82284857D01*
X143335047Y-82284857D02*
X143382666Y-82380095D01*
X143382666Y-82380095D02*
X143430285Y-82570571D01*
X143430285Y-82570571D02*
X143430285Y-82808666D01*
X143430285Y-82808666D02*
X143382666Y-82999142D01*
X143382666Y-82999142D02*
X143335047Y-83094380D01*
X143335047Y-83094380D02*
X143287428Y-83142000D01*
X143287428Y-83142000D02*
X143192190Y-83189619D01*
X143192190Y-83189619D02*
X143096952Y-83189619D01*
X143096952Y-83189619D02*
X143001714Y-83142000D01*
X143001714Y-83142000D02*
X142954095Y-83094380D01*
X142954095Y-83094380D02*
X142906476Y-82999142D01*
X142906476Y-82999142D02*
X142858857Y-82808666D01*
X142858857Y-82808666D02*
X142858857Y-82570571D01*
X142858857Y-82570571D02*
X142906476Y-82380095D01*
X142906476Y-82380095D02*
X142954095Y-82284857D01*
X142954095Y-82284857D02*
X143001714Y-82237238D01*
X143001714Y-82237238D02*
X143096952Y-82189619D01*
%TO.C,R7*%
X119975333Y-104602619D02*
X119642000Y-104126428D01*
X119403905Y-104602619D02*
X119403905Y-103602619D01*
X119403905Y-103602619D02*
X119784857Y-103602619D01*
X119784857Y-103602619D02*
X119880095Y-103650238D01*
X119880095Y-103650238D02*
X119927714Y-103697857D01*
X119927714Y-103697857D02*
X119975333Y-103793095D01*
X119975333Y-103793095D02*
X119975333Y-103935952D01*
X119975333Y-103935952D02*
X119927714Y-104031190D01*
X119927714Y-104031190D02*
X119880095Y-104078809D01*
X119880095Y-104078809D02*
X119784857Y-104126428D01*
X119784857Y-104126428D02*
X119403905Y-104126428D01*
X120308667Y-103602619D02*
X120975333Y-103602619D01*
X120975333Y-103602619D02*
X120546762Y-104602619D01*
%TO.C,R6*%
X131913333Y-89362619D02*
X131580000Y-88886428D01*
X131341905Y-89362619D02*
X131341905Y-88362619D01*
X131341905Y-88362619D02*
X131722857Y-88362619D01*
X131722857Y-88362619D02*
X131818095Y-88410238D01*
X131818095Y-88410238D02*
X131865714Y-88457857D01*
X131865714Y-88457857D02*
X131913333Y-88553095D01*
X131913333Y-88553095D02*
X131913333Y-88695952D01*
X131913333Y-88695952D02*
X131865714Y-88791190D01*
X131865714Y-88791190D02*
X131818095Y-88838809D01*
X131818095Y-88838809D02*
X131722857Y-88886428D01*
X131722857Y-88886428D02*
X131341905Y-88886428D01*
X132770476Y-88362619D02*
X132580000Y-88362619D01*
X132580000Y-88362619D02*
X132484762Y-88410238D01*
X132484762Y-88410238D02*
X132437143Y-88457857D01*
X132437143Y-88457857D02*
X132341905Y-88600714D01*
X132341905Y-88600714D02*
X132294286Y-88791190D01*
X132294286Y-88791190D02*
X132294286Y-89172142D01*
X132294286Y-89172142D02*
X132341905Y-89267380D01*
X132341905Y-89267380D02*
X132389524Y-89315000D01*
X132389524Y-89315000D02*
X132484762Y-89362619D01*
X132484762Y-89362619D02*
X132675238Y-89362619D01*
X132675238Y-89362619D02*
X132770476Y-89315000D01*
X132770476Y-89315000D02*
X132818095Y-89267380D01*
X132818095Y-89267380D02*
X132865714Y-89172142D01*
X132865714Y-89172142D02*
X132865714Y-88934047D01*
X132865714Y-88934047D02*
X132818095Y-88838809D01*
X132818095Y-88838809D02*
X132770476Y-88791190D01*
X132770476Y-88791190D02*
X132675238Y-88743571D01*
X132675238Y-88743571D02*
X132484762Y-88743571D01*
X132484762Y-88743571D02*
X132389524Y-88791190D01*
X132389524Y-88791190D02*
X132341905Y-88838809D01*
X132341905Y-88838809D02*
X132294286Y-88934047D01*
%TO.C,R3*%
X119975333Y-99268619D02*
X119642000Y-98792428D01*
X119403905Y-99268619D02*
X119403905Y-98268619D01*
X119403905Y-98268619D02*
X119784857Y-98268619D01*
X119784857Y-98268619D02*
X119880095Y-98316238D01*
X119880095Y-98316238D02*
X119927714Y-98363857D01*
X119927714Y-98363857D02*
X119975333Y-98459095D01*
X119975333Y-98459095D02*
X119975333Y-98601952D01*
X119975333Y-98601952D02*
X119927714Y-98697190D01*
X119927714Y-98697190D02*
X119880095Y-98744809D01*
X119880095Y-98744809D02*
X119784857Y-98792428D01*
X119784857Y-98792428D02*
X119403905Y-98792428D01*
X120308667Y-98268619D02*
X120927714Y-98268619D01*
X120927714Y-98268619D02*
X120594381Y-98649571D01*
X120594381Y-98649571D02*
X120737238Y-98649571D01*
X120737238Y-98649571D02*
X120832476Y-98697190D01*
X120832476Y-98697190D02*
X120880095Y-98744809D01*
X120880095Y-98744809D02*
X120927714Y-98840047D01*
X120927714Y-98840047D02*
X120927714Y-99078142D01*
X120927714Y-99078142D02*
X120880095Y-99173380D01*
X120880095Y-99173380D02*
X120832476Y-99221000D01*
X120832476Y-99221000D02*
X120737238Y-99268619D01*
X120737238Y-99268619D02*
X120451524Y-99268619D01*
X120451524Y-99268619D02*
X120356286Y-99221000D01*
X120356286Y-99221000D02*
X120308667Y-99173380D01*
%TO.C,R1*%
X98131333Y-78440619D02*
X97798000Y-77964428D01*
X97559905Y-78440619D02*
X97559905Y-77440619D01*
X97559905Y-77440619D02*
X97940857Y-77440619D01*
X97940857Y-77440619D02*
X98036095Y-77488238D01*
X98036095Y-77488238D02*
X98083714Y-77535857D01*
X98083714Y-77535857D02*
X98131333Y-77631095D01*
X98131333Y-77631095D02*
X98131333Y-77773952D01*
X98131333Y-77773952D02*
X98083714Y-77869190D01*
X98083714Y-77869190D02*
X98036095Y-77916809D01*
X98036095Y-77916809D02*
X97940857Y-77964428D01*
X97940857Y-77964428D02*
X97559905Y-77964428D01*
X99083714Y-78440619D02*
X98512286Y-78440619D01*
X98798000Y-78440619D02*
X98798000Y-77440619D01*
X98798000Y-77440619D02*
X98702762Y-77583476D01*
X98702762Y-77583476D02*
X98607524Y-77678714D01*
X98607524Y-77678714D02*
X98512286Y-77726333D01*
%TO.C,D1*%
X119403905Y-101554619D02*
X119403905Y-100554619D01*
X119403905Y-100554619D02*
X119642000Y-100554619D01*
X119642000Y-100554619D02*
X119784857Y-100602238D01*
X119784857Y-100602238D02*
X119880095Y-100697476D01*
X119880095Y-100697476D02*
X119927714Y-100792714D01*
X119927714Y-100792714D02*
X119975333Y-100983190D01*
X119975333Y-100983190D02*
X119975333Y-101126047D01*
X119975333Y-101126047D02*
X119927714Y-101316523D01*
X119927714Y-101316523D02*
X119880095Y-101411761D01*
X119880095Y-101411761D02*
X119784857Y-101507000D01*
X119784857Y-101507000D02*
X119642000Y-101554619D01*
X119642000Y-101554619D02*
X119403905Y-101554619D01*
X120927714Y-101554619D02*
X120356286Y-101554619D01*
X120642000Y-101554619D02*
X120642000Y-100554619D01*
X120642000Y-100554619D02*
X120546762Y-100697476D01*
X120546762Y-100697476D02*
X120451524Y-100792714D01*
X120451524Y-100792714D02*
X120356286Y-100840333D01*
%TO.C,C1*%
X100671333Y-77583380D02*
X100623714Y-77631000D01*
X100623714Y-77631000D02*
X100480857Y-77678619D01*
X100480857Y-77678619D02*
X100385619Y-77678619D01*
X100385619Y-77678619D02*
X100242762Y-77631000D01*
X100242762Y-77631000D02*
X100147524Y-77535761D01*
X100147524Y-77535761D02*
X100099905Y-77440523D01*
X100099905Y-77440523D02*
X100052286Y-77250047D01*
X100052286Y-77250047D02*
X100052286Y-77107190D01*
X100052286Y-77107190D02*
X100099905Y-76916714D01*
X100099905Y-76916714D02*
X100147524Y-76821476D01*
X100147524Y-76821476D02*
X100242762Y-76726238D01*
X100242762Y-76726238D02*
X100385619Y-76678619D01*
X100385619Y-76678619D02*
X100480857Y-76678619D01*
X100480857Y-76678619D02*
X100623714Y-76726238D01*
X100623714Y-76726238D02*
X100671333Y-76773857D01*
X101623714Y-77678619D02*
X101052286Y-77678619D01*
X101338000Y-77678619D02*
X101338000Y-76678619D01*
X101338000Y-76678619D02*
X101242762Y-76821476D01*
X101242762Y-76821476D02*
X101147524Y-76916714D01*
X101147524Y-76916714D02*
X101052286Y-76964333D01*
%TO.C,C2*%
X101941333Y-86473380D02*
X101893714Y-86521000D01*
X101893714Y-86521000D02*
X101750857Y-86568619D01*
X101750857Y-86568619D02*
X101655619Y-86568619D01*
X101655619Y-86568619D02*
X101512762Y-86521000D01*
X101512762Y-86521000D02*
X101417524Y-86425761D01*
X101417524Y-86425761D02*
X101369905Y-86330523D01*
X101369905Y-86330523D02*
X101322286Y-86140047D01*
X101322286Y-86140047D02*
X101322286Y-85997190D01*
X101322286Y-85997190D02*
X101369905Y-85806714D01*
X101369905Y-85806714D02*
X101417524Y-85711476D01*
X101417524Y-85711476D02*
X101512762Y-85616238D01*
X101512762Y-85616238D02*
X101655619Y-85568619D01*
X101655619Y-85568619D02*
X101750857Y-85568619D01*
X101750857Y-85568619D02*
X101893714Y-85616238D01*
X101893714Y-85616238D02*
X101941333Y-85663857D01*
X102322286Y-85663857D02*
X102369905Y-85616238D01*
X102369905Y-85616238D02*
X102465143Y-85568619D01*
X102465143Y-85568619D02*
X102703238Y-85568619D01*
X102703238Y-85568619D02*
X102798476Y-85616238D01*
X102798476Y-85616238D02*
X102846095Y-85663857D01*
X102846095Y-85663857D02*
X102893714Y-85759095D01*
X102893714Y-85759095D02*
X102893714Y-85854333D01*
X102893714Y-85854333D02*
X102846095Y-85997190D01*
X102846095Y-85997190D02*
X102274667Y-86568619D01*
X102274667Y-86568619D02*
X102893714Y-86568619D01*
%TO.C,SCHERM3*%
X111398380Y-109298000D02*
X111512666Y-109336095D01*
X111512666Y-109336095D02*
X111703142Y-109336095D01*
X111703142Y-109336095D02*
X111779333Y-109298000D01*
X111779333Y-109298000D02*
X111817428Y-109259904D01*
X111817428Y-109259904D02*
X111855523Y-109183714D01*
X111855523Y-109183714D02*
X111855523Y-109107523D01*
X111855523Y-109107523D02*
X111817428Y-109031333D01*
X111817428Y-109031333D02*
X111779333Y-108993238D01*
X111779333Y-108993238D02*
X111703142Y-108955142D01*
X111703142Y-108955142D02*
X111550761Y-108917047D01*
X111550761Y-108917047D02*
X111474571Y-108878952D01*
X111474571Y-108878952D02*
X111436476Y-108840857D01*
X111436476Y-108840857D02*
X111398380Y-108764666D01*
X111398380Y-108764666D02*
X111398380Y-108688476D01*
X111398380Y-108688476D02*
X111436476Y-108612285D01*
X111436476Y-108612285D02*
X111474571Y-108574190D01*
X111474571Y-108574190D02*
X111550761Y-108536095D01*
X111550761Y-108536095D02*
X111741238Y-108536095D01*
X111741238Y-108536095D02*
X111855523Y-108574190D01*
X112655524Y-109259904D02*
X112617428Y-109298000D01*
X112617428Y-109298000D02*
X112503143Y-109336095D01*
X112503143Y-109336095D02*
X112426952Y-109336095D01*
X112426952Y-109336095D02*
X112312666Y-109298000D01*
X112312666Y-109298000D02*
X112236476Y-109221809D01*
X112236476Y-109221809D02*
X112198381Y-109145619D01*
X112198381Y-109145619D02*
X112160285Y-108993238D01*
X112160285Y-108993238D02*
X112160285Y-108878952D01*
X112160285Y-108878952D02*
X112198381Y-108726571D01*
X112198381Y-108726571D02*
X112236476Y-108650380D01*
X112236476Y-108650380D02*
X112312666Y-108574190D01*
X112312666Y-108574190D02*
X112426952Y-108536095D01*
X112426952Y-108536095D02*
X112503143Y-108536095D01*
X112503143Y-108536095D02*
X112617428Y-108574190D01*
X112617428Y-108574190D02*
X112655524Y-108612285D01*
X112998381Y-109336095D02*
X112998381Y-108536095D01*
X112998381Y-108917047D02*
X113455524Y-108917047D01*
X113455524Y-109336095D02*
X113455524Y-108536095D01*
X113836476Y-108917047D02*
X114103142Y-108917047D01*
X114217428Y-109336095D02*
X113836476Y-109336095D01*
X113836476Y-109336095D02*
X113836476Y-108536095D01*
X113836476Y-108536095D02*
X114217428Y-108536095D01*
X115017429Y-109336095D02*
X114750762Y-108955142D01*
X114560286Y-109336095D02*
X114560286Y-108536095D01*
X114560286Y-108536095D02*
X114865048Y-108536095D01*
X114865048Y-108536095D02*
X114941238Y-108574190D01*
X114941238Y-108574190D02*
X114979333Y-108612285D01*
X114979333Y-108612285D02*
X115017429Y-108688476D01*
X115017429Y-108688476D02*
X115017429Y-108802761D01*
X115017429Y-108802761D02*
X114979333Y-108878952D01*
X114979333Y-108878952D02*
X114941238Y-108917047D01*
X114941238Y-108917047D02*
X114865048Y-108955142D01*
X114865048Y-108955142D02*
X114560286Y-108955142D01*
X115360286Y-109336095D02*
X115360286Y-108536095D01*
X115360286Y-108536095D02*
X115626952Y-109107523D01*
X115626952Y-109107523D02*
X115893619Y-108536095D01*
X115893619Y-108536095D02*
X115893619Y-109336095D01*
X116198381Y-108536095D02*
X116693619Y-108536095D01*
X116693619Y-108536095D02*
X116426953Y-108840857D01*
X116426953Y-108840857D02*
X116541238Y-108840857D01*
X116541238Y-108840857D02*
X116617429Y-108878952D01*
X116617429Y-108878952D02*
X116655524Y-108917047D01*
X116655524Y-108917047D02*
X116693619Y-108993238D01*
X116693619Y-108993238D02*
X116693619Y-109183714D01*
X116693619Y-109183714D02*
X116655524Y-109259904D01*
X116655524Y-109259904D02*
X116617429Y-109298000D01*
X116617429Y-109298000D02*
X116541238Y-109336095D01*
X116541238Y-109336095D02*
X116312667Y-109336095D01*
X116312667Y-109336095D02*
X116236476Y-109298000D01*
X116236476Y-109298000D02*
X116198381Y-109259904D01*
%TO.C,R5*%
X135215333Y-77170619D02*
X134882000Y-76694428D01*
X134643905Y-77170619D02*
X134643905Y-76170619D01*
X134643905Y-76170619D02*
X135024857Y-76170619D01*
X135024857Y-76170619D02*
X135120095Y-76218238D01*
X135120095Y-76218238D02*
X135167714Y-76265857D01*
X135167714Y-76265857D02*
X135215333Y-76361095D01*
X135215333Y-76361095D02*
X135215333Y-76503952D01*
X135215333Y-76503952D02*
X135167714Y-76599190D01*
X135167714Y-76599190D02*
X135120095Y-76646809D01*
X135120095Y-76646809D02*
X135024857Y-76694428D01*
X135024857Y-76694428D02*
X134643905Y-76694428D01*
X136120095Y-76170619D02*
X135643905Y-76170619D01*
X135643905Y-76170619D02*
X135596286Y-76646809D01*
X135596286Y-76646809D02*
X135643905Y-76599190D01*
X135643905Y-76599190D02*
X135739143Y-76551571D01*
X135739143Y-76551571D02*
X135977238Y-76551571D01*
X135977238Y-76551571D02*
X136072476Y-76599190D01*
X136072476Y-76599190D02*
X136120095Y-76646809D01*
X136120095Y-76646809D02*
X136167714Y-76742047D01*
X136167714Y-76742047D02*
X136167714Y-76980142D01*
X136167714Y-76980142D02*
X136120095Y-77075380D01*
X136120095Y-77075380D02*
X136072476Y-77123000D01*
X136072476Y-77123000D02*
X135977238Y-77170619D01*
X135977238Y-77170619D02*
X135739143Y-77170619D01*
X135739143Y-77170619D02*
X135643905Y-77123000D01*
X135643905Y-77123000D02*
X135596286Y-77075380D01*
%TO.C,R2*%
X131659333Y-96474619D02*
X131326000Y-95998428D01*
X131087905Y-96474619D02*
X131087905Y-95474619D01*
X131087905Y-95474619D02*
X131468857Y-95474619D01*
X131468857Y-95474619D02*
X131564095Y-95522238D01*
X131564095Y-95522238D02*
X131611714Y-95569857D01*
X131611714Y-95569857D02*
X131659333Y-95665095D01*
X131659333Y-95665095D02*
X131659333Y-95807952D01*
X131659333Y-95807952D02*
X131611714Y-95903190D01*
X131611714Y-95903190D02*
X131564095Y-95950809D01*
X131564095Y-95950809D02*
X131468857Y-95998428D01*
X131468857Y-95998428D02*
X131087905Y-95998428D01*
X132040286Y-95569857D02*
X132087905Y-95522238D01*
X132087905Y-95522238D02*
X132183143Y-95474619D01*
X132183143Y-95474619D02*
X132421238Y-95474619D01*
X132421238Y-95474619D02*
X132516476Y-95522238D01*
X132516476Y-95522238D02*
X132564095Y-95569857D01*
X132564095Y-95569857D02*
X132611714Y-95665095D01*
X132611714Y-95665095D02*
X132611714Y-95760333D01*
X132611714Y-95760333D02*
X132564095Y-95903190D01*
X132564095Y-95903190D02*
X131992667Y-96474619D01*
X131992667Y-96474619D02*
X132611714Y-96474619D01*
%TO.C,U2*%
X79629095Y-75535619D02*
X79629095Y-76345142D01*
X79629095Y-76345142D02*
X79676714Y-76440380D01*
X79676714Y-76440380D02*
X79724333Y-76488000D01*
X79724333Y-76488000D02*
X79819571Y-76535619D01*
X79819571Y-76535619D02*
X80010047Y-76535619D01*
X80010047Y-76535619D02*
X80105285Y-76488000D01*
X80105285Y-76488000D02*
X80152904Y-76440380D01*
X80152904Y-76440380D02*
X80200523Y-76345142D01*
X80200523Y-76345142D02*
X80200523Y-75535619D01*
X80629095Y-75630857D02*
X80676714Y-75583238D01*
X80676714Y-75583238D02*
X80771952Y-75535619D01*
X80771952Y-75535619D02*
X81010047Y-75535619D01*
X81010047Y-75535619D02*
X81105285Y-75583238D01*
X81105285Y-75583238D02*
X81152904Y-75630857D01*
X81152904Y-75630857D02*
X81200523Y-75726095D01*
X81200523Y-75726095D02*
X81200523Y-75821333D01*
X81200523Y-75821333D02*
X81152904Y-75964190D01*
X81152904Y-75964190D02*
X80581476Y-76535619D01*
X80581476Y-76535619D02*
X81200523Y-76535619D01*
%TO.C,SCHERM1*%
X133727380Y-105482000D02*
X133841666Y-105520095D01*
X133841666Y-105520095D02*
X134032142Y-105520095D01*
X134032142Y-105520095D02*
X134108333Y-105482000D01*
X134108333Y-105482000D02*
X134146428Y-105443904D01*
X134146428Y-105443904D02*
X134184523Y-105367714D01*
X134184523Y-105367714D02*
X134184523Y-105291523D01*
X134184523Y-105291523D02*
X134146428Y-105215333D01*
X134146428Y-105215333D02*
X134108333Y-105177238D01*
X134108333Y-105177238D02*
X134032142Y-105139142D01*
X134032142Y-105139142D02*
X133879761Y-105101047D01*
X133879761Y-105101047D02*
X133803571Y-105062952D01*
X133803571Y-105062952D02*
X133765476Y-105024857D01*
X133765476Y-105024857D02*
X133727380Y-104948666D01*
X133727380Y-104948666D02*
X133727380Y-104872476D01*
X133727380Y-104872476D02*
X133765476Y-104796285D01*
X133765476Y-104796285D02*
X133803571Y-104758190D01*
X133803571Y-104758190D02*
X133879761Y-104720095D01*
X133879761Y-104720095D02*
X134070238Y-104720095D01*
X134070238Y-104720095D02*
X134184523Y-104758190D01*
X134984524Y-105443904D02*
X134946428Y-105482000D01*
X134946428Y-105482000D02*
X134832143Y-105520095D01*
X134832143Y-105520095D02*
X134755952Y-105520095D01*
X134755952Y-105520095D02*
X134641666Y-105482000D01*
X134641666Y-105482000D02*
X134565476Y-105405809D01*
X134565476Y-105405809D02*
X134527381Y-105329619D01*
X134527381Y-105329619D02*
X134489285Y-105177238D01*
X134489285Y-105177238D02*
X134489285Y-105062952D01*
X134489285Y-105062952D02*
X134527381Y-104910571D01*
X134527381Y-104910571D02*
X134565476Y-104834380D01*
X134565476Y-104834380D02*
X134641666Y-104758190D01*
X134641666Y-104758190D02*
X134755952Y-104720095D01*
X134755952Y-104720095D02*
X134832143Y-104720095D01*
X134832143Y-104720095D02*
X134946428Y-104758190D01*
X134946428Y-104758190D02*
X134984524Y-104796285D01*
X135327381Y-105520095D02*
X135327381Y-104720095D01*
X135327381Y-105101047D02*
X135784524Y-105101047D01*
X135784524Y-105520095D02*
X135784524Y-104720095D01*
X136165476Y-105101047D02*
X136432142Y-105101047D01*
X136546428Y-105520095D02*
X136165476Y-105520095D01*
X136165476Y-105520095D02*
X136165476Y-104720095D01*
X136165476Y-104720095D02*
X136546428Y-104720095D01*
X137346429Y-105520095D02*
X137079762Y-105139142D01*
X136889286Y-105520095D02*
X136889286Y-104720095D01*
X136889286Y-104720095D02*
X137194048Y-104720095D01*
X137194048Y-104720095D02*
X137270238Y-104758190D01*
X137270238Y-104758190D02*
X137308333Y-104796285D01*
X137308333Y-104796285D02*
X137346429Y-104872476D01*
X137346429Y-104872476D02*
X137346429Y-104986761D01*
X137346429Y-104986761D02*
X137308333Y-105062952D01*
X137308333Y-105062952D02*
X137270238Y-105101047D01*
X137270238Y-105101047D02*
X137194048Y-105139142D01*
X137194048Y-105139142D02*
X136889286Y-105139142D01*
X137689286Y-105520095D02*
X137689286Y-104720095D01*
X137689286Y-104720095D02*
X137955952Y-105291523D01*
X137955952Y-105291523D02*
X138222619Y-104720095D01*
X138222619Y-104720095D02*
X138222619Y-105520095D01*
X139022619Y-105520095D02*
X138565476Y-105520095D01*
X138794048Y-105520095D02*
X138794048Y-104720095D01*
X138794048Y-104720095D02*
X138717857Y-104834380D01*
X138717857Y-104834380D02*
X138641667Y-104910571D01*
X138641667Y-104910571D02*
X138565476Y-104948666D01*
%TO.C,J1*%
X138350666Y-86330619D02*
X138350666Y-87044904D01*
X138350666Y-87044904D02*
X138303047Y-87187761D01*
X138303047Y-87187761D02*
X138207809Y-87283000D01*
X138207809Y-87283000D02*
X138064952Y-87330619D01*
X138064952Y-87330619D02*
X137969714Y-87330619D01*
X139350666Y-87330619D02*
X138779238Y-87330619D01*
X139064952Y-87330619D02*
X139064952Y-86330619D01*
X139064952Y-86330619D02*
X138969714Y-86473476D01*
X138969714Y-86473476D02*
X138874476Y-86568714D01*
X138874476Y-86568714D02*
X138779238Y-86616333D01*
%TO.C,C4*%
X98893333Y-101967380D02*
X98845714Y-102015000D01*
X98845714Y-102015000D02*
X98702857Y-102062619D01*
X98702857Y-102062619D02*
X98607619Y-102062619D01*
X98607619Y-102062619D02*
X98464762Y-102015000D01*
X98464762Y-102015000D02*
X98369524Y-101919761D01*
X98369524Y-101919761D02*
X98321905Y-101824523D01*
X98321905Y-101824523D02*
X98274286Y-101634047D01*
X98274286Y-101634047D02*
X98274286Y-101491190D01*
X98274286Y-101491190D02*
X98321905Y-101300714D01*
X98321905Y-101300714D02*
X98369524Y-101205476D01*
X98369524Y-101205476D02*
X98464762Y-101110238D01*
X98464762Y-101110238D02*
X98607619Y-101062619D01*
X98607619Y-101062619D02*
X98702857Y-101062619D01*
X98702857Y-101062619D02*
X98845714Y-101110238D01*
X98845714Y-101110238D02*
X98893333Y-101157857D01*
X99750476Y-101395952D02*
X99750476Y-102062619D01*
X99512381Y-101015000D02*
X99274286Y-101729285D01*
X99274286Y-101729285D02*
X99893333Y-101729285D01*
%TO.C,R4*%
X131659333Y-99014619D02*
X131326000Y-98538428D01*
X131087905Y-99014619D02*
X131087905Y-98014619D01*
X131087905Y-98014619D02*
X131468857Y-98014619D01*
X131468857Y-98014619D02*
X131564095Y-98062238D01*
X131564095Y-98062238D02*
X131611714Y-98109857D01*
X131611714Y-98109857D02*
X131659333Y-98205095D01*
X131659333Y-98205095D02*
X131659333Y-98347952D01*
X131659333Y-98347952D02*
X131611714Y-98443190D01*
X131611714Y-98443190D02*
X131564095Y-98490809D01*
X131564095Y-98490809D02*
X131468857Y-98538428D01*
X131468857Y-98538428D02*
X131087905Y-98538428D01*
X132516476Y-98347952D02*
X132516476Y-99014619D01*
X132278381Y-97967000D02*
X132040286Y-98681285D01*
X132040286Y-98681285D02*
X132659333Y-98681285D01*
%TO.C,U3*%
X101854095Y-94458619D02*
X101854095Y-95268142D01*
X101854095Y-95268142D02*
X101901714Y-95363380D01*
X101901714Y-95363380D02*
X101949333Y-95411000D01*
X101949333Y-95411000D02*
X102044571Y-95458619D01*
X102044571Y-95458619D02*
X102235047Y-95458619D01*
X102235047Y-95458619D02*
X102330285Y-95411000D01*
X102330285Y-95411000D02*
X102377904Y-95363380D01*
X102377904Y-95363380D02*
X102425523Y-95268142D01*
X102425523Y-95268142D02*
X102425523Y-94458619D01*
X102806476Y-94458619D02*
X103425523Y-94458619D01*
X103425523Y-94458619D02*
X103092190Y-94839571D01*
X103092190Y-94839571D02*
X103235047Y-94839571D01*
X103235047Y-94839571D02*
X103330285Y-94887190D01*
X103330285Y-94887190D02*
X103377904Y-94934809D01*
X103377904Y-94934809D02*
X103425523Y-95030047D01*
X103425523Y-95030047D02*
X103425523Y-95268142D01*
X103425523Y-95268142D02*
X103377904Y-95363380D01*
X103377904Y-95363380D02*
X103330285Y-95411000D01*
X103330285Y-95411000D02*
X103235047Y-95458619D01*
X103235047Y-95458619D02*
X102949333Y-95458619D01*
X102949333Y-95458619D02*
X102854095Y-95411000D01*
X102854095Y-95411000D02*
X102806476Y-95363380D01*
%TO.C,SW2*%
X134302667Y-90839000D02*
X134445524Y-90886619D01*
X134445524Y-90886619D02*
X134683619Y-90886619D01*
X134683619Y-90886619D02*
X134778857Y-90839000D01*
X134778857Y-90839000D02*
X134826476Y-90791380D01*
X134826476Y-90791380D02*
X134874095Y-90696142D01*
X134874095Y-90696142D02*
X134874095Y-90600904D01*
X134874095Y-90600904D02*
X134826476Y-90505666D01*
X134826476Y-90505666D02*
X134778857Y-90458047D01*
X134778857Y-90458047D02*
X134683619Y-90410428D01*
X134683619Y-90410428D02*
X134493143Y-90362809D01*
X134493143Y-90362809D02*
X134397905Y-90315190D01*
X134397905Y-90315190D02*
X134350286Y-90267571D01*
X134350286Y-90267571D02*
X134302667Y-90172333D01*
X134302667Y-90172333D02*
X134302667Y-90077095D01*
X134302667Y-90077095D02*
X134350286Y-89981857D01*
X134350286Y-89981857D02*
X134397905Y-89934238D01*
X134397905Y-89934238D02*
X134493143Y-89886619D01*
X134493143Y-89886619D02*
X134731238Y-89886619D01*
X134731238Y-89886619D02*
X134874095Y-89934238D01*
X135207429Y-89886619D02*
X135445524Y-90886619D01*
X135445524Y-90886619D02*
X135636000Y-90172333D01*
X135636000Y-90172333D02*
X135826476Y-90886619D01*
X135826476Y-90886619D02*
X136064572Y-89886619D01*
X136397905Y-89981857D02*
X136445524Y-89934238D01*
X136445524Y-89934238D02*
X136540762Y-89886619D01*
X136540762Y-89886619D02*
X136778857Y-89886619D01*
X136778857Y-89886619D02*
X136874095Y-89934238D01*
X136874095Y-89934238D02*
X136921714Y-89981857D01*
X136921714Y-89981857D02*
X136969333Y-90077095D01*
X136969333Y-90077095D02*
X136969333Y-90172333D01*
X136969333Y-90172333D02*
X136921714Y-90315190D01*
X136921714Y-90315190D02*
X136350286Y-90886619D01*
X136350286Y-90886619D02*
X136969333Y-90886619D01*
%TO.C,J2*%
X85391666Y-109713619D02*
X85391666Y-110427904D01*
X85391666Y-110427904D02*
X85344047Y-110570761D01*
X85344047Y-110570761D02*
X85248809Y-110666000D01*
X85248809Y-110666000D02*
X85105952Y-110713619D01*
X85105952Y-110713619D02*
X85010714Y-110713619D01*
X85820238Y-109808857D02*
X85867857Y-109761238D01*
X85867857Y-109761238D02*
X85963095Y-109713619D01*
X85963095Y-109713619D02*
X86201190Y-109713619D01*
X86201190Y-109713619D02*
X86296428Y-109761238D01*
X86296428Y-109761238D02*
X86344047Y-109808857D01*
X86344047Y-109808857D02*
X86391666Y-109904095D01*
X86391666Y-109904095D02*
X86391666Y-109999333D01*
X86391666Y-109999333D02*
X86344047Y-110142190D01*
X86344047Y-110142190D02*
X85772619Y-110713619D01*
X85772619Y-110713619D02*
X86391666Y-110713619D01*
%TO.C,C3*%
X101433333Y-101967380D02*
X101385714Y-102015000D01*
X101385714Y-102015000D02*
X101242857Y-102062619D01*
X101242857Y-102062619D02*
X101147619Y-102062619D01*
X101147619Y-102062619D02*
X101004762Y-102015000D01*
X101004762Y-102015000D02*
X100909524Y-101919761D01*
X100909524Y-101919761D02*
X100861905Y-101824523D01*
X100861905Y-101824523D02*
X100814286Y-101634047D01*
X100814286Y-101634047D02*
X100814286Y-101491190D01*
X100814286Y-101491190D02*
X100861905Y-101300714D01*
X100861905Y-101300714D02*
X100909524Y-101205476D01*
X100909524Y-101205476D02*
X101004762Y-101110238D01*
X101004762Y-101110238D02*
X101147619Y-101062619D01*
X101147619Y-101062619D02*
X101242857Y-101062619D01*
X101242857Y-101062619D02*
X101385714Y-101110238D01*
X101385714Y-101110238D02*
X101433333Y-101157857D01*
X101766667Y-101062619D02*
X102385714Y-101062619D01*
X102385714Y-101062619D02*
X102052381Y-101443571D01*
X102052381Y-101443571D02*
X102195238Y-101443571D01*
X102195238Y-101443571D02*
X102290476Y-101491190D01*
X102290476Y-101491190D02*
X102338095Y-101538809D01*
X102338095Y-101538809D02*
X102385714Y-101634047D01*
X102385714Y-101634047D02*
X102385714Y-101872142D01*
X102385714Y-101872142D02*
X102338095Y-101967380D01*
X102338095Y-101967380D02*
X102290476Y-102015000D01*
X102290476Y-102015000D02*
X102195238Y-102062619D01*
X102195238Y-102062619D02*
X101909524Y-102062619D01*
X101909524Y-102062619D02*
X101814286Y-102015000D01*
X101814286Y-102015000D02*
X101766667Y-101967380D01*
%TO.C,U1*%
X106680095Y-96363619D02*
X106680095Y-97173142D01*
X106680095Y-97173142D02*
X106727714Y-97268380D01*
X106727714Y-97268380D02*
X106775333Y-97316000D01*
X106775333Y-97316000D02*
X106870571Y-97363619D01*
X106870571Y-97363619D02*
X107061047Y-97363619D01*
X107061047Y-97363619D02*
X107156285Y-97316000D01*
X107156285Y-97316000D02*
X107203904Y-97268380D01*
X107203904Y-97268380D02*
X107251523Y-97173142D01*
X107251523Y-97173142D02*
X107251523Y-96363619D01*
X108251523Y-97363619D02*
X107680095Y-97363619D01*
X107965809Y-97363619D02*
X107965809Y-96363619D01*
X107965809Y-96363619D02*
X107870571Y-96506476D01*
X107870571Y-96506476D02*
X107775333Y-96601714D01*
X107775333Y-96601714D02*
X107680095Y-96649333D01*
%TO.C,SCHERM2*%
X138502380Y-109707000D02*
X138616666Y-109745095D01*
X138616666Y-109745095D02*
X138807142Y-109745095D01*
X138807142Y-109745095D02*
X138883333Y-109707000D01*
X138883333Y-109707000D02*
X138921428Y-109668904D01*
X138921428Y-109668904D02*
X138959523Y-109592714D01*
X138959523Y-109592714D02*
X138959523Y-109516523D01*
X138959523Y-109516523D02*
X138921428Y-109440333D01*
X138921428Y-109440333D02*
X138883333Y-109402238D01*
X138883333Y-109402238D02*
X138807142Y-109364142D01*
X138807142Y-109364142D02*
X138654761Y-109326047D01*
X138654761Y-109326047D02*
X138578571Y-109287952D01*
X138578571Y-109287952D02*
X138540476Y-109249857D01*
X138540476Y-109249857D02*
X138502380Y-109173666D01*
X138502380Y-109173666D02*
X138502380Y-109097476D01*
X138502380Y-109097476D02*
X138540476Y-109021285D01*
X138540476Y-109021285D02*
X138578571Y-108983190D01*
X138578571Y-108983190D02*
X138654761Y-108945095D01*
X138654761Y-108945095D02*
X138845238Y-108945095D01*
X138845238Y-108945095D02*
X138959523Y-108983190D01*
X139759524Y-109668904D02*
X139721428Y-109707000D01*
X139721428Y-109707000D02*
X139607143Y-109745095D01*
X139607143Y-109745095D02*
X139530952Y-109745095D01*
X139530952Y-109745095D02*
X139416666Y-109707000D01*
X139416666Y-109707000D02*
X139340476Y-109630809D01*
X139340476Y-109630809D02*
X139302381Y-109554619D01*
X139302381Y-109554619D02*
X139264285Y-109402238D01*
X139264285Y-109402238D02*
X139264285Y-109287952D01*
X139264285Y-109287952D02*
X139302381Y-109135571D01*
X139302381Y-109135571D02*
X139340476Y-109059380D01*
X139340476Y-109059380D02*
X139416666Y-108983190D01*
X139416666Y-108983190D02*
X139530952Y-108945095D01*
X139530952Y-108945095D02*
X139607143Y-108945095D01*
X139607143Y-108945095D02*
X139721428Y-108983190D01*
X139721428Y-108983190D02*
X139759524Y-109021285D01*
X140102381Y-109745095D02*
X140102381Y-108945095D01*
X140102381Y-109326047D02*
X140559524Y-109326047D01*
X140559524Y-109745095D02*
X140559524Y-108945095D01*
X140940476Y-109326047D02*
X141207142Y-109326047D01*
X141321428Y-109745095D02*
X140940476Y-109745095D01*
X140940476Y-109745095D02*
X140940476Y-108945095D01*
X140940476Y-108945095D02*
X141321428Y-108945095D01*
X142121429Y-109745095D02*
X141854762Y-109364142D01*
X141664286Y-109745095D02*
X141664286Y-108945095D01*
X141664286Y-108945095D02*
X141969048Y-108945095D01*
X141969048Y-108945095D02*
X142045238Y-108983190D01*
X142045238Y-108983190D02*
X142083333Y-109021285D01*
X142083333Y-109021285D02*
X142121429Y-109097476D01*
X142121429Y-109097476D02*
X142121429Y-109211761D01*
X142121429Y-109211761D02*
X142083333Y-109287952D01*
X142083333Y-109287952D02*
X142045238Y-109326047D01*
X142045238Y-109326047D02*
X141969048Y-109364142D01*
X141969048Y-109364142D02*
X141664286Y-109364142D01*
X142464286Y-109745095D02*
X142464286Y-108945095D01*
X142464286Y-108945095D02*
X142730952Y-109516523D01*
X142730952Y-109516523D02*
X142997619Y-108945095D01*
X142997619Y-108945095D02*
X142997619Y-109745095D01*
X143340476Y-109021285D02*
X143378572Y-108983190D01*
X143378572Y-108983190D02*
X143454762Y-108945095D01*
X143454762Y-108945095D02*
X143645238Y-108945095D01*
X143645238Y-108945095D02*
X143721429Y-108983190D01*
X143721429Y-108983190D02*
X143759524Y-109021285D01*
X143759524Y-109021285D02*
X143797619Y-109097476D01*
X143797619Y-109097476D02*
X143797619Y-109173666D01*
X143797619Y-109173666D02*
X143759524Y-109287952D01*
X143759524Y-109287952D02*
X143302381Y-109745095D01*
X143302381Y-109745095D02*
X143797619Y-109745095D01*
%TO.C,D2*%
X131341905Y-101554619D02*
X131341905Y-100554619D01*
X131341905Y-100554619D02*
X131580000Y-100554619D01*
X131580000Y-100554619D02*
X131722857Y-100602238D01*
X131722857Y-100602238D02*
X131818095Y-100697476D01*
X131818095Y-100697476D02*
X131865714Y-100792714D01*
X131865714Y-100792714D02*
X131913333Y-100983190D01*
X131913333Y-100983190D02*
X131913333Y-101126047D01*
X131913333Y-101126047D02*
X131865714Y-101316523D01*
X131865714Y-101316523D02*
X131818095Y-101411761D01*
X131818095Y-101411761D02*
X131722857Y-101507000D01*
X131722857Y-101507000D02*
X131580000Y-101554619D01*
X131580000Y-101554619D02*
X131341905Y-101554619D01*
X132294286Y-100649857D02*
X132341905Y-100602238D01*
X132341905Y-100602238D02*
X132437143Y-100554619D01*
X132437143Y-100554619D02*
X132675238Y-100554619D01*
X132675238Y-100554619D02*
X132770476Y-100602238D01*
X132770476Y-100602238D02*
X132818095Y-100649857D01*
X132818095Y-100649857D02*
X132865714Y-100745095D01*
X132865714Y-100745095D02*
X132865714Y-100840333D01*
X132865714Y-100840333D02*
X132818095Y-100983190D01*
X132818095Y-100983190D02*
X132246667Y-101554619D01*
X132246667Y-101554619D02*
X132865714Y-101554619D01*
%TO.C,SW1*%
X102044667Y-80933000D02*
X102187524Y-80980619D01*
X102187524Y-80980619D02*
X102425619Y-80980619D01*
X102425619Y-80980619D02*
X102520857Y-80933000D01*
X102520857Y-80933000D02*
X102568476Y-80885380D01*
X102568476Y-80885380D02*
X102616095Y-80790142D01*
X102616095Y-80790142D02*
X102616095Y-80694904D01*
X102616095Y-80694904D02*
X102568476Y-80599666D01*
X102568476Y-80599666D02*
X102520857Y-80552047D01*
X102520857Y-80552047D02*
X102425619Y-80504428D01*
X102425619Y-80504428D02*
X102235143Y-80456809D01*
X102235143Y-80456809D02*
X102139905Y-80409190D01*
X102139905Y-80409190D02*
X102092286Y-80361571D01*
X102092286Y-80361571D02*
X102044667Y-80266333D01*
X102044667Y-80266333D02*
X102044667Y-80171095D01*
X102044667Y-80171095D02*
X102092286Y-80075857D01*
X102092286Y-80075857D02*
X102139905Y-80028238D01*
X102139905Y-80028238D02*
X102235143Y-79980619D01*
X102235143Y-79980619D02*
X102473238Y-79980619D01*
X102473238Y-79980619D02*
X102616095Y-80028238D01*
X102949429Y-79980619D02*
X103187524Y-80980619D01*
X103187524Y-80980619D02*
X103378000Y-80266333D01*
X103378000Y-80266333D02*
X103568476Y-80980619D01*
X103568476Y-80980619D02*
X103806572Y-79980619D01*
X104711333Y-80980619D02*
X104139905Y-80980619D01*
X104425619Y-80980619D02*
X104425619Y-79980619D01*
X104425619Y-79980619D02*
X104330381Y-80123476D01*
X104330381Y-80123476D02*
X104235143Y-80218714D01*
X104235143Y-80218714D02*
X104139905Y-80266333D01*
D11*
%TO.C,R7*%
X123417064Y-104621000D02*
X122962936Y-104621000D01*
X123417064Y-103151000D02*
X122962936Y-103151000D01*
%TO.C,R6*%
X129259064Y-89635000D02*
X128804936Y-89635000D01*
X129259064Y-88165000D02*
X128804936Y-88165000D01*
%TO.C,R3*%
X123417064Y-99287000D02*
X122962936Y-99287000D01*
X123417064Y-97817000D02*
X122962936Y-97817000D01*
%TO.C,R1*%
X99340936Y-79021000D02*
X99795064Y-79021000D01*
X99340936Y-80491000D02*
X99795064Y-80491000D01*
%TO.C,D1*%
X125050000Y-102052000D02*
X125050000Y-100132000D01*
X125050000Y-100132000D02*
X122190000Y-100132000D01*
X122190000Y-102052000D02*
X125050000Y-102052000D01*
%TO.C,C1*%
X103893252Y-77697000D02*
X103370748Y-77697000D01*
X103893252Y-76227000D02*
X103370748Y-76227000D01*
%TO.C,C2*%
X99321252Y-86587000D02*
X98798748Y-86587000D01*
X99321252Y-85117000D02*
X98798748Y-85117000D01*
%TO.C,SCHERM3*%
X116820000Y-109684000D02*
X116820000Y-110744000D01*
X115760000Y-109684000D02*
X116820000Y-109684000D01*
X114760000Y-109684000D02*
X98700000Y-109684000D01*
X114760000Y-109684000D02*
X114760000Y-111804000D01*
X98700000Y-109684000D02*
X98700000Y-111804000D01*
X114760000Y-111804000D02*
X98700000Y-111804000D01*
%TO.C,R5*%
X136117000Y-78782936D02*
X136117000Y-79237064D01*
X134647000Y-78782936D02*
X134647000Y-79237064D01*
%TO.C,R2*%
X129005064Y-96747000D02*
X128550936Y-96747000D01*
X129005064Y-95277000D02*
X128550936Y-95277000D01*
%TO.C,U2*%
X96266000Y-76930000D02*
X79502000Y-76930000D01*
X79502000Y-76930000D02*
X79502000Y-99028000D01*
X79502000Y-99028000D02*
X96266000Y-99028000D01*
X96266000Y-99028000D02*
X96266000Y-76930000D01*
%TO.C,SCHERM1*%
X140441000Y-106636000D02*
X140441000Y-107696000D01*
X139381000Y-106636000D02*
X140441000Y-106636000D01*
X138381000Y-106636000D02*
X122321000Y-106636000D01*
X138381000Y-106636000D02*
X138381000Y-108756000D01*
X122321000Y-106636000D02*
X122321000Y-108756000D01*
X138381000Y-108756000D02*
X122321000Y-108756000D01*
%TO.C,J1*%
X139744000Y-85578000D02*
X138684000Y-85578000D01*
X139744000Y-84518000D02*
X139744000Y-85578000D01*
X139744000Y-83518000D02*
X139744000Y-77458000D01*
X139744000Y-83518000D02*
X137624000Y-83518000D01*
X139744000Y-77458000D02*
X137624000Y-77458000D01*
X137624000Y-83518000D02*
X137624000Y-77458000D01*
%TO.C,C4*%
X99541000Y-98290748D02*
X99541000Y-98813252D01*
X98071000Y-98290748D02*
X98071000Y-98813252D01*
%TO.C,R4*%
X129005064Y-99033000D02*
X128550936Y-99033000D01*
X129005064Y-97563000D02*
X128550936Y-97563000D01*
%TO.C,U3*%
X104502000Y-87696000D02*
X104502000Y-93706000D01*
X97682000Y-89946000D02*
X97682000Y-93706000D01*
X104502000Y-93706000D02*
X103242000Y-93706000D01*
X97682000Y-93706000D02*
X98942000Y-93706000D01*
%TO.C,SW2*%
X127470000Y-91776000D02*
X129320000Y-91776000D01*
X129320000Y-91126000D02*
X129320000Y-91776000D01*
X129320000Y-91126000D02*
X134840000Y-91126000D01*
X129320000Y-92517000D02*
X129320000Y-93786000D01*
X129320000Y-93786000D02*
X134840000Y-93786000D01*
X134840000Y-91126000D02*
X134840000Y-92395000D01*
X134840000Y-92517000D02*
X134840000Y-93786000D01*
%TO.C,J2*%
X94726000Y-99494000D02*
X93426000Y-99494000D01*
X94426000Y-99794000D02*
X94426000Y-101794000D01*
X79926000Y-99794000D02*
X94426000Y-99794000D01*
X94726000Y-101194000D02*
X94726000Y-99494000D01*
X94426000Y-106994000D02*
X94426000Y-108994000D01*
X94426000Y-108994000D02*
X93126000Y-108994000D01*
X88526000Y-108994000D02*
X79926000Y-108994000D01*
X79926000Y-108994000D02*
X79926000Y-99794000D01*
%TO.C,C3*%
X100611000Y-98791752D02*
X100611000Y-98269248D01*
X102081000Y-98791752D02*
X102081000Y-98269248D01*
%TO.C,U1*%
X107190000Y-69700000D02*
X107190000Y-76115000D01*
X107190000Y-69700000D02*
X125430000Y-69700000D01*
X107190000Y-76115000D02*
X106810000Y-76115000D01*
X107190000Y-94660000D02*
X107190000Y-95440000D01*
X107190000Y-95440000D02*
X108190000Y-95440000D01*
X125430000Y-69700000D02*
X125430000Y-76115000D01*
X125430000Y-94660000D02*
X125430000Y-95440000D01*
X125430000Y-95440000D02*
X124430000Y-95440000D01*
%TO.C,SCHERM2*%
X140442000Y-109938000D02*
X140442000Y-110998000D01*
X139382000Y-109938000D02*
X140442000Y-109938000D01*
X138382000Y-109938000D02*
X122322000Y-109938000D01*
X138382000Y-109938000D02*
X138382000Y-112058000D01*
X122322000Y-109938000D02*
X122322000Y-112058000D01*
X138382000Y-112058000D02*
X122322000Y-112058000D01*
%TO.C,D2*%
X130638000Y-101798000D02*
X130638000Y-99878000D01*
X130638000Y-99878000D02*
X127778000Y-99878000D01*
X127778000Y-101798000D02*
X130638000Y-101798000D01*
%TO.C,SW1*%
X105956000Y-83484000D02*
X104106000Y-83484000D01*
X104106000Y-84134000D02*
X104106000Y-83484000D01*
X104106000Y-84134000D02*
X98586000Y-84134000D01*
X104106000Y-82743000D02*
X104106000Y-81474000D01*
X104106000Y-81474000D02*
X98586000Y-81474000D01*
X98586000Y-84134000D02*
X98586000Y-82865000D01*
X98586000Y-82743000D02*
X98586000Y-81474000D01*
%TD*%
M02*
