M48
; DRILL file {KiCad 7.0.1} date Tue Mar 21 16:37:49 2023
; FORMAT={-:-/ absolute / inch / decimal}
; #@! TF.CreationDate,2023-03-21T16:37:49+01:00
; #@! TF.GenerationSoftware,Kicad,Pcbnew,7.0.1
; #@! TF.FileFunction,MixedPlating,1,2
FMAT,2
INCH
; #@! TA.AperFunction,Plated,PTH,ComponentDrill
T1C0.0118
; #@! TA.AperFunction,Plated,PTH,ViaDrill
T2C0.0157
; #@! TA.AperFunction,Plated,PTH,ComponentDrill
T3C0.0315
; #@! TA.AperFunction,Plated,PTH,ComponentDrill
T4C0.0354
; #@! TA.AperFunction,Plated,PTH,ComponentDrill
T5C0.0394
; #@! TA.AperFunction,Plated,PTH,ComponentDrill
T6C0.0433
; #@! TA.AperFunction,Plated,PTH,ComponentDrill
T7C0.0500
; #@! TA.AperFunction,Plated,PTH,ComponentDrill
T8C0.0512
; #@! TA.AperFunction,Plated,PTH,ComponentDrill
T9C0.0598
%
G90
G05
T1
X2.4697Y-1.8509
X2.4697Y-1.9109
X2.4997Y-1.8209
X2.4997Y-1.8809
X2.4997Y-1.9409
X2.5297Y-1.8509
X2.5297Y-1.9109
X2.5597Y-1.8209
X2.5597Y-1.8809
X2.5597Y-1.9409
X2.5898Y-1.8509
X2.5898Y-1.9109
T2
X1.21Y-1.85
X1.21Y-2.2
X1.21Y-2.4
X1.21Y-2.6
X1.23Y-1.43
X1.335Y-3.425
X1.6Y-2.2
X1.6Y-2.4
X1.6Y-2.6
X1.6Y-3.5
X1.695Y-1.81
X1.83Y-1.595
X2.0146Y-2.02
X2.1Y-1.6
X2.18Y-2.68
X2.19Y-3.03
X2.4921Y-2.374
X2.5Y-1.6
X2.5Y-2.12
X2.72Y-3.39
X2.79Y-1.95
X2.9Y-2.09
X2.9Y-2.14
X2.9Y-2.4787
X2.901Y-1.7419
X2.905Y-1.595
X3.0Y-1.7
X3.0Y-2.7
X3.07Y-2.26
X3.09Y-3.39
X3.1Y-2.4213
X3.17Y-2.9
X3.21Y-1.71
X3.23Y-2.46
X3.27Y-2.29
X3.27Y-2.37
X3.3Y-1.8
X3.42Y-2.7
X3.42Y-2.94
X3.43Y-2.27
X3.43Y-2.44
X3.43Y-3.2
T3
X3.5Y-1.6213
X3.5Y-1.7
X3.5Y-1.7787
X3.5Y-1.8575
X3.53Y-2.4413
X3.53Y-2.52
X3.53Y-2.5987
X3.53Y-2.6775
T4
X3.2Y-1.96
X3.2002Y-2.14
X3.3Y-1.96
X3.3002Y-2.14
X3.46Y-2.03
X3.56Y-2.03
T5
X1.9618Y-2.5421
X2.4343Y-2.5421
T6
X2.6114Y-2.772
X2.6114Y-3.028
X2.7886Y-2.772
X2.7886Y-3.028
X2.9228Y-2.77
X2.9228Y-3.0259
X3.1Y-2.77
X3.1Y-3.0259
T7
X1.245Y-2.0387
X1.245Y-2.7687
X1.345Y-2.0387
X1.345Y-2.7687
X1.665Y-2.0387
X1.665Y-2.7687
X1.765Y-2.0387
X1.765Y-2.7687
T8
X1.9618Y-3.0224
X2.2Y-2.4654
X2.4362Y-3.0244
T9
X2.0Y-3.4
X2.2Y-3.4
X2.4Y-3.4
T5
G00X1.44Y-3.0267
M15
G01X1.44Y-3.1133
M16
G05
G00X1.6172Y-3.259
M15
G01X1.5306Y-3.259
M16
G05
G00X1.688Y-3.0188
M15
G01X1.688Y-3.1212
M16
G05
T0
M30
